<svg width="360" height="340" viewBox="0 0 360 340" fill="none" xmlns="http://www.w3.org/2000/svg">
<path d="M172.124 105.003L163.36 95.7302L151.383 102.838C148.97 101.053 146.441 99.4901 143.822 98.1654L144.761 84.2806L132.538 80.6324L125.721 92.7844C122.775 92.4546 119.808 92.3708 116.85 92.5347L110.714 80.0176L98.3087 82.9708L98.4801 96.8872C95.7896 98.0629 93.1811 99.4808 90.6714 101.126L79.1082 93.3471L69.8442 102.11L76.9562 114.096C75.1749 116.509 73.6135 119.037 72.2888 121.657L58.4078 120.709L54.767 132.933L66.9171 139.762C66.5892 142.708 66.5072 145.676 66.6712 148.636L54.1633 154.766L57.1221 167.177L71.033 167.015C72.2087 169.708 73.6284 172.318 75.2737 174.83L67.5096 186.395L76.2742 195.668L88.251 188.56C90.6639 190.343 93.1923 191.908 95.812 193.233L94.8729 207.118L107.096 210.766L113.913 198.614C116.857 198.944 119.825 199.027 122.784 198.865L128.92 211.382L141.325 208.429L141.154 194.513C143.844 193.337 146.453 191.919 148.961 190.274L160.526 198.047L169.79 189.285L162.678 177.298C164.459 174.886 166.022 172.357 167.345 169.737L181.226 170.686L184.867 158.461L172.717 151.634C173.045 148.689 173.127 145.72 172.963 142.76L185.472 136.63L182.513 124.217L168.603 124.379C167.427 121.687 166.007 119.076 164.36 116.567L172.124 105.003ZM142.381 169.57C129.21 182.029 108.432 181.44 95.9704 168.258C83.5091 155.074 84.0849 134.288 97.2541 121.828C110.423 109.369 131.204 109.958 143.665 123.142C156.126 136.324 155.553 157.11 142.381 169.57Z" fill="white"/>
<path d="M128.921 211.802C128.765 211.802 128.618 211.714 128.547 211.567L122.532 199.297C119.741 199.435 116.922 199.355 114.144 199.061L107.461 210.971C107.366 211.142 107.165 211.222 106.976 211.166L94.7536 207.518C94.5673 207.462 94.4424 207.283 94.4555 207.089L95.3759 193.479C92.9183 192.219 90.5166 190.734 88.2248 189.059L76.4865 196.026C76.3188 196.124 76.1046 196.095 75.9704 195.953L67.2058 186.68C67.0716 186.538 67.053 186.322 67.1629 186.16L74.7724 174.824C73.2277 172.443 71.8806 169.959 70.7608 167.434L57.1257 167.593C56.9394 167.602 56.7606 167.462 56.714 167.272L53.7552 154.86C53.7104 154.669 53.8017 154.474 53.9769 154.388L66.2369 148.379C66.0972 145.588 66.1754 142.769 66.4698 139.987L54.5601 133.295C54.3905 133.2 54.3085 132.998 54.3644 132.812L58.0052 120.587C58.0611 120.399 58.2381 120.278 58.4337 120.289L72.039 121.219C73.2985 118.76 74.7817 116.356 76.453 114.07L69.4826 102.322C69.382 102.154 69.4137 101.94 69.5553 101.806L78.8193 93.0433C78.9609 92.9091 79.177 92.8905 79.3391 93.0004L90.675 100.619C93.0525 99.0783 95.5343 97.7293 98.0589 96.6095L97.8913 82.9688C97.8894 82.7732 98.0217 82.6017 98.2117 82.557L110.617 79.6057C110.807 79.5591 111.003 79.6523 111.088 79.8274L117.103 92.0967C119.892 91.9589 122.711 92.0371 125.491 92.3334L132.175 80.4236C132.27 80.2522 132.471 80.1721 132.659 80.228L144.882 83.8762C145.068 83.9321 145.193 84.111 145.18 84.3047L144.259 97.9156C146.717 99.1751 149.121 100.662 151.409 102.335L163.147 95.3686C163.315 95.2679 163.529 95.2996 163.663 95.4412L172.428 104.715C172.562 104.856 172.581 105.072 172.471 105.234L164.861 116.57C166.404 118.951 167.753 121.435 168.873 123.96L182.508 123.801C182.698 123.811 182.873 123.932 182.92 124.122L185.878 136.535C185.923 136.725 185.832 136.92 185.657 137.006L173.397 143.015C173.536 145.808 173.458 148.629 173.164 151.407L185.073 158.1C185.243 158.195 185.325 158.396 185.269 158.582L181.628 170.807C181.572 170.995 181.395 171.116 181.2 171.105L167.595 170.175C166.337 172.631 164.854 175.035 163.181 177.326L170.151 189.074C170.251 189.242 170.22 189.456 170.078 189.59L160.814 198.353C160.673 198.487 160.457 198.506 160.294 198.396L148.959 190.777C146.579 192.32 144.097 193.667 141.575 194.785L141.742 208.425C141.744 208.621 141.612 208.792 141.422 208.837L129.016 211.79C128.985 211.798 128.953 211.802 128.921 211.802ZM122.786 198.45C122.944 198.45 123.09 198.539 123.16 198.684L129.149 210.902L140.904 208.103L140.738 194.52C140.736 194.352 140.835 194.2 140.988 194.133C143.635 192.976 146.242 191.561 148.733 189.927C148.873 189.836 149.055 189.836 149.195 189.929L160.483 197.516L169.26 189.212L162.318 177.514C162.232 177.369 162.241 177.188 162.34 177.052C164.11 174.656 165.668 172.132 166.97 169.551C167.047 169.402 167.203 169.313 167.373 169.322L180.92 170.248L184.369 158.662L172.51 151.998C172.363 151.916 172.281 151.753 172.299 151.588C172.623 148.675 172.705 145.713 172.543 142.782C172.534 142.614 172.625 142.458 172.776 142.383L184.984 136.401L182.18 124.638L168.603 124.796C168.45 124.796 168.282 124.699 168.215 124.547C167.056 121.895 165.64 119.287 164.006 116.796C163.915 116.656 163.915 116.473 164.008 116.334L171.586 105.046L163.279 96.2592L151.589 103.196C151.446 103.282 151.263 103.272 151.127 103.174C148.733 101.404 146.208 99.844 143.626 98.5379C143.477 98.4615 143.386 98.3032 143.397 98.1373L144.314 84.5842L132.732 81.1261L126.078 92.9855C125.996 93.1327 125.832 93.2165 125.668 93.196C122.754 92.87 119.793 92.7861 116.866 92.9482C116.702 92.9576 116.542 92.8663 116.468 92.7153L110.479 80.4982L98.7241 83.2967L98.8899 96.8796C98.8918 97.0473 98.7931 97.2001 98.6403 97.2672C95.9889 98.4261 93.3822 99.8403 90.8948 101.472C90.7551 101.564 90.5725 101.564 90.4328 101.471L79.1453 93.8836L70.3677 102.188L77.3082 113.887C77.3939 114.032 77.3846 114.213 77.2858 114.349C75.5195 116.742 73.9618 119.266 72.6557 121.851C72.5793 122 72.4228 122.089 72.2533 122.08L58.7058 121.154L55.2569 132.739L67.1164 139.404C67.2635 139.486 67.3455 139.648 67.3269 139.814C67.0027 142.73 66.9207 145.692 67.0828 148.62C67.0921 148.787 67.0008 148.944 66.8499 149.018L54.6421 155.001L57.4462 166.764L71.0235 166.605C71.2043 166.602 71.344 166.702 71.4111 166.855C72.57 169.506 73.9861 172.115 75.6201 174.606C75.7114 174.746 75.7114 174.928 75.6182 175.068L68.0405 186.355L76.3468 195.142L88.0367 188.206C88.182 188.12 88.3627 188.129 88.4987 188.228C90.8948 190 93.4195 191.559 96.0001 192.864C96.1491 192.94 96.2404 193.098 96.2293 193.264L95.3125 206.817L106.894 210.276L113.548 198.416C113.63 198.269 113.79 198.185 113.96 198.206C116.872 198.532 119.833 198.615 122.762 198.455C122.771 198.45 122.778 198.45 122.786 198.45ZM119.861 178.96C119.54 178.96 119.218 178.957 118.897 178.947C110.019 178.696 101.769 175.003 95.6666 168.545C83.0674 155.215 83.6506 134.122 96.9671 121.525C103.418 115.422 111.862 112.195 120.738 112.451C129.616 112.702 137.867 116.395 143.971 122.853C156.57 136.183 155.987 157.276 142.67 169.873C136.451 175.754 128.385 178.96 119.861 178.96ZM119.775 113.272C111.465 113.272 103.602 116.397 97.541 122.13C84.558 134.411 83.9897 154.973 96.2721 167.969C102.223 174.265 110.265 177.867 118.92 178.111C127.574 178.355 135.804 175.213 142.093 169.266C155.076 156.985 155.644 136.423 143.361 123.427C137.41 117.131 129.369 113.529 120.714 113.285C120.401 113.278 120.086 113.272 119.775 113.272Z" fill="#2458A4"/>
<path d="M247.361 37.9028L240.067 32.9205L233.013 39.4921C231.118 38.6406 229.178 37.9549 227.211 37.4444L225.802 27.914L216.998 27.2451L214.176 36.4681C212.135 36.6786 210.116 37.0587 208.139 37.6047L202.147 30.0418L194.191 33.8652L196.356 43.254C194.709 44.4446 193.153 45.7879 191.699 47.2711L182.732 43.716L177.755 51.0068L184.33 58.0666C183.481 59.9615 182.797 61.9011 182.286 63.8687L172.758 65.2717L172.096 74.0773L181.319 76.9075C181.532 78.9478 181.914 80.9675 182.46 82.9462L174.902 88.9347L178.731 96.8943L188.116 94.7367C189.309 96.3838 190.652 97.9415 192.135 99.3967L188.586 108.363L195.881 113.345L202.935 106.773C204.83 107.625 206.769 108.31 208.737 108.821L210.145 118.351L218.949 119.02L221.772 109.797C223.812 109.587 225.832 109.207 227.809 108.661L233.801 116.223L241.757 112.4L239.592 103.011C241.239 101.821 242.795 100.477 244.248 98.9942L253.216 102.549L258.192 95.2584L251.617 88.1987C252.467 86.3038 253.15 84.3642 253.661 82.3966L263.19 80.9936L263.851 72.188L254.628 69.3596C254.416 67.3194 254.034 65.2996 253.488 63.3209L261.047 57.3325L257.218 49.3728L247.833 51.5304C246.64 49.8833 245.297 48.3256 243.814 46.8705L247.361 37.9028ZM236.75 85.9535C229.676 96.3205 215.534 98.9812 205.165 91.899C194.794 84.8169 192.124 70.6713 199.197 60.3062C206.272 49.9392 220.414 47.2785 230.782 54.3606C241.153 61.4428 243.825 75.5884 236.75 85.9535Z" fill="white"/>
<path d="M218.951 119.433C218.94 119.433 218.931 119.433 218.919 119.432L210.116 118.763C209.922 118.748 209.762 118.601 209.734 118.407L208.366 109.15C206.566 108.668 204.77 108.034 203.019 107.263L196.166 113.646C196.022 113.779 195.806 113.795 195.646 113.685L188.351 108.703C188.189 108.593 188.126 108.386 188.198 108.204L191.645 99.4951C190.289 98.1442 189.046 96.7021 187.941 95.2003L178.825 97.2965C178.635 97.3393 178.439 97.2461 178.355 97.071L174.524 89.1113C174.44 88.9343 174.489 88.7238 174.642 88.6026L181.983 82.7857C181.495 80.9653 181.141 79.0965 180.932 77.2221L171.972 74.4738C171.785 74.416 171.662 74.2372 171.677 74.0434L172.339 65.2378C172.354 65.0422 172.501 64.8838 172.695 64.8558L181.949 63.4938C182.43 61.6939 183.063 59.8978 183.833 58.1482L177.446 51.2897C177.314 51.1462 177.297 50.9301 177.407 50.7698L182.383 43.479C182.493 43.3169 182.7 43.2536 182.883 43.3263L191.593 46.7788C192.942 45.4243 194.383 44.1815 195.884 43.0766L193.781 33.958C193.736 33.7679 193.831 33.5723 194.006 33.4866L201.962 29.6632C202.139 29.5794 202.35 29.6278 202.471 29.7806L208.293 37.1273C210.114 36.6391 211.983 36.2889 213.855 36.0802L216.596 27.1218C216.654 26.9355 216.833 26.8125 217.026 26.8274L225.83 27.4963C226.024 27.5112 226.184 27.6584 226.212 27.8522L227.58 37.1105C229.379 37.5931 231.176 38.2266 232.927 38.998L239.78 32.6146C239.923 32.4804 240.14 32.4655 240.3 32.5754L247.594 37.5577C247.756 37.6676 247.82 37.8745 247.747 38.0571L244.3 46.7658C245.657 48.1166 246.899 49.5587 248.004 51.0605L257.121 48.9644C257.309 48.9215 257.507 49.0147 257.591 49.1898L261.42 57.1495C261.503 57.3265 261.455 57.5371 261.302 57.6582L253.959 63.4752C254.447 65.2974 254.801 67.1662 255.01 69.0388L263.97 71.787C264.157 71.8448 264.28 72.0237 264.265 72.2174L263.603 81.023C263.588 81.2187 263.441 81.377 263.247 81.405L253.993 82.767C253.512 84.5669 252.878 86.3612 252.109 88.1126L258.496 94.9711C258.628 95.1146 258.645 95.3308 258.535 95.491L253.559 102.782C253.449 102.944 253.242 103.007 253.059 102.935L244.349 99.482C243 100.837 241.558 102.079 240.058 103.182L242.161 112.301C242.206 112.491 242.111 112.687 241.936 112.772L233.98 116.596C233.803 116.68 233.592 116.631 233.471 116.478L227.649 109.132C225.828 109.62 223.959 109.97 222.087 110.179L219.344 119.137C219.296 119.314 219.134 119.433 218.951 119.433ZM210.511 117.954L218.649 118.573L221.373 109.67C221.422 109.51 221.563 109.394 221.729 109.378C223.741 109.169 225.748 108.793 227.697 108.254C227.859 108.209 228.032 108.265 228.135 108.398L233.92 115.7L241.274 112.165L239.186 103.102C239.148 102.938 239.212 102.769 239.348 102.67C240.963 101.502 242.512 100.166 243.952 98.6995C244.069 98.5802 244.248 98.5411 244.405 98.6044L253.061 102.037L257.66 95.2972L251.312 88.4815C251.198 88.3586 251.168 88.1797 251.235 88.025C252.075 86.1506 252.756 84.2203 253.255 82.29C253.298 82.1279 253.432 82.005 253.6 81.9807L262.796 80.628L263.408 72.4895L254.503 69.758C254.343 69.7095 254.227 69.5679 254.211 69.4021C254.002 67.3917 253.622 65.3831 253.083 63.4323C253.039 63.2702 253.095 63.097 253.227 62.9926L260.523 57.211L256.985 49.8531L247.924 51.9362C247.76 51.9735 247.591 51.9101 247.492 51.7741C246.322 50.1568 244.986 48.6066 243.518 47.1664C243.398 47.049 243.359 46.8701 243.423 46.7136L246.849 38.0589L240.106 33.4549L233.296 39.7992C233.173 39.9147 232.992 39.9426 232.839 39.8737C230.965 39.0315 229.035 38.3496 227.103 37.8484C226.941 37.8055 226.819 37.6714 226.793 37.5055L225.433 28.3049L217.295 27.6882L214.571 36.5907C214.522 36.7509 214.381 36.8665 214.215 36.8832C212.202 37.0919 210.196 37.4701 208.245 38.0067C208.083 38.0515 207.91 37.9956 207.807 37.8633L202.022 30.5613L194.671 34.0958L196.76 43.1586C196.797 43.3225 196.734 43.4921 196.598 43.5908C194.981 44.7609 193.432 46.0969 191.994 47.5614C191.876 47.6825 191.698 47.7179 191.541 47.6564L182.885 44.2243L178.286 50.9636L184.634 57.7793C184.748 57.9023 184.778 58.0811 184.711 58.2358C183.87 60.1083 183.19 62.0386 182.691 63.9708C182.648 64.1329 182.514 64.2559 182.346 64.2801L173.149 65.6328L172.538 73.7714L181.442 76.5029C181.603 76.5513 181.718 76.6929 181.735 76.8587C181.945 78.8729 182.324 80.8814 182.862 82.8285C182.907 82.9906 182.851 83.1639 182.719 83.2682L175.422 89.0498L178.961 96.4077L188.021 94.3246C188.185 94.2873 188.355 94.3507 188.454 94.4867C189.624 96.104 190.96 97.6542 192.428 99.0945C192.547 99.2118 192.586 99.3907 192.523 99.5472L189.097 108.202L195.84 112.806L202.65 106.462C202.773 106.348 202.953 106.318 203.106 106.387C204.982 107.229 206.911 107.911 208.843 108.412C209.005 108.455 209.126 108.589 209.152 108.755L210.511 117.954ZM217.941 96.2866C213.328 96.2866 208.823 94.9041 204.928 92.2453C194.384 85.0439 191.658 70.6113 198.852 60.0711C202.337 54.9658 207.602 51.5245 213.678 50.3804C219.752 49.2364 225.912 50.5276 231.019 54.0156C241.563 61.2169 244.289 75.6495 237.097 86.1898C233.613 91.295 228.347 94.7364 222.271 95.8804C220.827 96.1524 219.38 96.2866 217.941 96.2866ZM218.004 50.809C216.618 50.809 215.223 50.9394 213.831 51.2002C207.975 52.3033 202.901 55.6198 199.542 60.5406C192.609 70.7008 195.236 84.6116 205.4 91.554C210.322 94.9171 216.259 96.1618 222.115 95.0587C227.971 93.9557 233.046 90.6391 236.404 85.7184C243.337 75.5582 240.71 61.6474 230.546 54.705C226.793 52.143 222.452 50.809 218.004 50.809Z" fill="#2458A4"/>
<path d="M146.7 288.9L121.034 305.542C121.014 305.555 120.986 305.563 120.958 305.563L57.3997 305.406C57.3028 305.406 57.2562 305.33 57.3233 305.287L82.7992 288.768C82.8197 288.755 82.8476 288.747 82.8756 288.747L146.624 288.781C146.721 288.779 146.769 288.855 146.7 288.9Z" fill="white"/>
<path d="M120.958 305.979L57.398 305.823C57.1576 305.823 56.9545 305.679 56.893 305.465C56.8334 305.264 56.9154 305.051 57.0961 304.934L82.572 288.415C82.6596 288.357 82.7639 288.327 82.8757 288.327L146.624 288.361C146.864 288.361 147.068 288.504 147.131 288.717C147.191 288.918 147.109 289.13 146.928 289.248L121.262 305.89C121.174 305.948 121.068 305.979 120.958 305.979ZM58.5476 304.988L120.88 305.143L145.475 289.195L82.9558 289.162L58.5476 304.988ZM83.0285 289.115L83.0248 289.117C83.0266 289.115 83.0285 289.115 83.0285 289.115Z" fill="#2458A4"/>
<path d="M146.76 288.794V322.979L121.268 339.518C121.171 339.582 121.005 339.537 121.005 339.448V305.561C121.003 305.561 146.391 288.807 146.76 288.794Z" fill="#2458A4"/>
<path d="M121.003 339.549L57.2485 339.394L57.3026 305.442L121.003 305.563C121.003 305.562 121.003 339.607 121.003 339.549Z" fill="white"/>
<path d="M121.003 339.965L57.247 339.811C57.0159 339.811 56.8296 339.623 56.8296 339.392L56.8836 305.44C56.8836 305.328 56.9283 305.222 57.0066 305.144C57.0849 305.065 57.1966 305.021 57.3028 305.023L121.003 305.144C121.234 305.144 121.42 305.332 121.42 305.561V339.546C121.42 339.658 121.375 339.764 121.297 339.842C121.219 339.923 121.113 339.965 121.003 339.965ZM57.6662 338.976L120.585 339.129V305.978L57.7202 305.857L57.6662 338.976Z" fill="#2458A4"/>
<path d="M240.758 225.868L215.116 242.426L144.094 242.27C144.019 242.27 143.982 242.212 144.036 242.179L169.586 225.68L240.661 225.713C240.784 225.713 240.845 225.812 240.758 225.868Z" fill="white"/>
<path d="M215.114 242.845L144.092 242.688C143.865 242.688 143.671 242.549 143.609 242.344C143.552 242.148 143.632 241.941 143.807 241.828L169.357 225.329C169.424 225.286 169.504 225.262 169.585 225.262L240.659 225.295C240.916 225.295 241.132 225.446 241.198 225.67C241.259 225.877 241.173 226.098 240.985 226.219L215.342 242.778C215.275 242.821 215.195 242.845 215.114 242.845ZM145.305 241.856L214.991 242.01L239.58 226.132L169.708 226.098L145.305 241.856Z" fill="#2458A4"/>
<path d="M240.872 225.729V322.957L215.31 339.473C215.237 339.519 215.115 339.486 215.115 339.421V242.427C215.115 242.429 240.505 225.742 240.872 225.729Z" fill="#2458A4"/>
<path d="M215.115 339.58L144.001 339.425C144.154 339.524 144.055 242.305 144.055 242.305L215.115 242.426C215.115 242.428 215.115 339.638 215.115 339.58Z" fill="white"/>
<path d="M215.115 340L143.999 339.845C143.805 339.845 143.636 339.711 143.593 339.521C143.58 339.465 143.58 339.407 143.589 339.353C143.731 337.248 143.638 243.261 143.636 242.309C143.636 242.197 143.68 242.091 143.759 242.013C143.837 241.934 143.943 241.89 144.055 241.89L215.115 242.011C215.346 242.011 215.532 242.199 215.532 242.428V339.582C215.532 339.694 215.487 339.8 215.409 339.879C215.333 339.955 215.226 340 215.115 340ZM144.424 339.01L214.697 339.163V242.845L144.474 242.726C144.478 246.035 144.498 268.431 144.504 290.837C144.506 302.972 144.504 315.109 144.493 324.218C144.487 328.774 144.478 332.571 144.467 335.232C144.456 337.307 144.452 338.41 144.424 339.01Z" fill="#2458A4"/>
<path d="M193.026 330.696C192.888 330.696 192.754 330.629 192.673 330.504C192.549 330.31 192.605 330.051 192.798 329.926L199.271 325.745C199.465 325.62 199.724 325.676 199.849 325.87C199.974 326.064 199.918 326.323 199.724 326.448L193.251 330.629C193.182 330.675 193.102 330.696 193.026 330.696Z" fill="#2458A4"/>
<path d="M333.331 156.414L307.449 176.401L237.367 176.215C237.263 176.215 237.213 176.118 237.285 176.062L262.778 156.375L333.331 156.414Z" fill="white"/>
<path d="M307.449 176.818L237.367 176.631C237.135 176.631 236.932 176.49 236.861 176.281C236.792 176.08 236.859 175.864 237.032 175.729L262.525 156.043C262.597 155.987 262.689 155.955 262.78 155.955L333.331 155.996C333.51 155.996 333.668 156.11 333.726 156.279C333.784 156.449 333.728 156.635 333.586 156.745L307.704 176.732C307.632 176.786 307.542 176.818 307.449 176.818ZM238.31 175.797L307.309 175.981L332.111 156.829L262.925 156.79L238.31 175.797Z" fill="#2458A4"/>
<path d="M333.331 156.43V319.814L307.84 339.51C307.741 339.587 307.573 339.533 307.573 339.425V176.398C307.575 176.4 332.964 156.445 333.331 156.43Z" fill="#2458A4"/>
<path d="M307.576 339.549L237.198 339.365C237.351 339.482 237.252 176.256 237.252 176.256L307.576 176.401C307.576 176.401 307.576 339.616 307.576 339.549Z" fill="white"/>
<path d="M307.575 339.966L237.196 339.781C236.998 339.781 236.829 339.643 236.788 339.45C236.777 339.399 236.777 339.349 236.784 339.299C236.927 336.752 236.834 177.863 236.832 176.255C236.832 176.143 236.877 176.037 236.955 175.959C237.034 175.881 237.14 175.836 237.25 175.836L307.574 175.981C307.805 175.981 307.991 176.169 307.991 176.399V339.546C307.991 339.658 307.946 339.764 307.868 339.843C307.792 339.923 307.685 339.966 307.575 339.966ZM237.624 338.946L307.158 339.129V176.816L237.671 176.673C237.673 181.075 237.695 219.422 237.701 257.779C237.703 278.162 237.701 298.55 237.69 313.845C237.684 321.494 237.675 327.868 237.663 332.332C237.658 334.566 237.65 336.321 237.643 337.519C237.635 338.181 237.634 338.632 237.624 338.946Z" fill="#2458A4"/>
<path d="M267.14 319.872C267.015 319.872 266.892 319.816 266.808 319.71C266.667 319.528 266.7 319.265 266.883 319.123L287.261 303.386C287.443 303.245 287.706 303.278 287.848 303.461C287.989 303.644 287.956 303.906 287.773 304.048L267.395 319.785C267.321 319.844 267.229 319.872 267.14 319.872Z" fill="#2458A4"/>
<path d="M266.42 308.024C266.295 308.024 266.173 307.968 266.089 307.862C265.947 307.68 265.981 307.417 266.163 307.275L272.636 302.276C272.819 302.135 273.081 302.168 273.223 302.351C273.365 302.533 273.331 302.796 273.148 302.938L266.676 307.937C266.601 307.996 266.51 308.024 266.42 308.024Z" fill="#2458A4"/>
<path d="M29.0441 315.255L27.3113 330.634L33.8512 333.358L36.2604 316.591L29.0441 315.255Z" fill="white"/>
<path d="M33.8513 333.776C33.7973 333.776 33.7432 333.765 33.6911 333.744L27.1511 331.022C26.9797 330.951 26.8754 330.774 26.8959 330.59L28.6305 315.211C28.6436 315.095 28.7032 314.991 28.7964 314.922C28.8895 314.853 29.0069 314.825 29.1206 314.847L36.3368 316.183C36.5567 316.224 36.7057 316.431 36.6741 316.653L34.2649 333.418C34.2463 333.547 34.1699 333.659 34.0581 333.722C33.9948 333.757 33.9221 333.776 33.8513 333.776ZM27.7604 330.37L33.514 332.766L35.789 316.93L29.4094 315.749L27.7604 330.37Z" fill="#2E3543"/>
<path d="M25.7884 329.182C25.5816 330.641 25.2499 333.345 25.222 335.769C25.2052 337.291 26.3474 338.576 27.8584 338.77C32.129 339.318 41.8159 339.918 50.0662 339.169C50.6308 339.117 51.6295 338.707 51.909 337.296C52.8424 332.56 44.6033 331.399 35.5722 327.965C35.2182 327.831 34.8176 327.911 34.5456 328.174L33.5711 329.117C32.5966 330.061 31.1508 330.328 29.9024 329.797L26.9399 328.534C26.4349 328.316 25.8648 328.638 25.7884 329.182Z" fill="white"/>
<path d="M41.4677 339.94C35.9153 339.94 30.7374 339.56 27.8047 339.184C26.0738 338.962 24.7844 337.492 24.8031 335.763C24.831 333.298 25.172 330.544 25.3732 329.122C25.4291 328.733 25.6564 328.399 25.9974 328.207C26.3384 328.015 26.7408 327.993 27.1023 328.146L30.0648 329.409C31.1604 329.877 32.4218 329.644 33.2789 328.815L34.2533 327.872C34.639 327.497 35.2148 327.382 35.7197 327.574C37.827 328.375 39.8523 329.04 41.8106 329.683C48.1213 331.753 53.1055 333.389 52.3192 337.378C52.0211 338.887 50.9404 339.511 50.1057 339.586C47.2978 339.839 44.3334 339.94 41.4677 339.94ZM26.6122 328.882C26.5414 328.882 26.4725 328.9 26.4092 328.936C26.2955 328.999 26.2191 329.111 26.2023 329.24C26.0048 330.643 25.6676 333.355 25.6396 335.774C25.6247 337.078 26.6011 338.187 27.9109 338.356C32.3212 338.923 41.8497 339.495 50.0274 338.753C50.2249 338.735 51.2292 338.576 51.4975 337.216C52.1403 333.952 47.6984 332.495 41.5497 330.477C39.5822 329.83 37.5475 329.163 35.4216 328.354C35.2185 328.278 34.9893 328.325 34.8347 328.474L33.8602 329.417C32.7628 330.48 31.1436 330.78 29.7369 330.18L26.7743 328.917C26.7222 328.893 26.6681 328.882 26.6122 328.882Z" fill="#2E3543"/>
<path d="M25.2282 335.404C25.2282 335.404 25.2226 335.65 25.2226 335.77C25.2058 337.292 26.348 338.577 27.8591 338.771C32.1296 339.319 41.8165 339.919 50.0669 339.17C50.6314 339.118 51.6301 338.708 51.9096 337.297C51.9953 336.865 51.9431 336.086 51.9431 336.086L51.3581 336.116C43.0201 336.528 34.6636 336.327 26.3554 335.518L25.2282 335.404Z" fill="white"/>
<path d="M41.4679 339.941C35.9155 339.941 30.7375 339.561 27.8048 339.185C26.0739 338.963 24.7845 337.493 24.8032 335.764L24.8088 335.395C24.8106 335.279 24.8628 335.168 24.9485 335.091C25.0361 335.013 25.1497 334.974 25.2671 334.987L26.3925 335.097C34.6522 335.902 43.0423 336.103 51.3337 335.693L51.9187 335.665C52.1441 335.654 52.3417 335.827 52.3566 336.054C52.3622 336.14 52.4106 336.902 52.3174 337.376C52.0193 338.885 50.9386 339.507 50.1039 339.583C47.2979 339.841 44.3335 339.941 41.4679 339.941ZM25.6398 335.864C25.6696 337.128 26.631 338.192 27.911 338.356C32.3213 338.922 41.8498 339.494 50.0275 338.752C50.225 338.734 51.2293 338.575 51.4976 337.215C51.533 337.036 51.5405 336.761 51.5386 336.522L51.3765 336.53C43.046 336.941 34.6131 336.738 26.3143 335.93L25.6398 335.864Z" fill="#2E3543"/>
<path d="M37.6427 333.496C37.5365 333.496 37.4285 333.455 37.3465 333.373C37.1825 333.209 37.1825 332.945 37.3465 332.782L40.5158 329.611C40.6779 329.447 40.9444 329.447 41.1065 329.611C41.2704 329.775 41.2704 330.04 41.1065 330.202L37.9371 333.373C37.8551 333.455 37.7489 333.496 37.6427 333.496Z" fill="#2E3543"/>
<path d="M40.7541 333.825C40.6497 333.825 40.5454 333.786 40.4634 333.708C40.2976 333.548 40.292 333.283 40.4522 333.117L42.9843 330.486C43.1446 330.321 43.4092 330.315 43.575 330.475C43.7408 330.635 43.7464 330.9 43.5862 331.066L41.054 333.697C40.9739 333.782 40.864 333.825 40.7541 333.825Z" fill="#2E3543"/>
<path d="M52.7996 213.904C52.7996 213.904 48.8179 216.214 47.264 229.764C45.71 243.313 46.228 259.286 35.4064 275.128C26.7629 287.779 27.5231 309.13 26.2673 323.124C26.2058 323.801 26.7256 324.386 27.4038 324.41L35.6896 324.693C36.2169 324.712 36.692 324.38 36.8541 323.877C38.3354 319.292 45.6989 297.168 53.9716 284.339C62.7138 270.782 73.3454 235.592 73.3454 235.592C73.3454 235.592 71.3722 226.697 71.0983 218.172C70.8244 209.646 52.7996 213.904 52.7996 213.904Z" fill="#2E3543"/>
<path d="M98.2788 276.774L94.7834 291.852L100.967 295.31L105.292 278.934L98.2788 276.774Z" fill="white"/>
<path d="M100.968 295.729C100.897 295.729 100.826 295.71 100.763 295.675L94.5787 292.217C94.4166 292.125 94.3328 291.939 94.3756 291.758L97.8692 276.681C97.8953 276.568 97.9679 276.471 98.0685 276.413C98.1691 276.355 98.2884 276.342 98.4002 276.376L105.415 278.535C105.63 278.6 105.754 278.824 105.697 279.042L101.372 295.42C101.338 295.544 101.251 295.647 101.132 295.697C101.079 295.718 101.024 295.729 100.968 295.729ZM95.2625 291.641L100.701 294.684L104.785 279.215L98.5828 277.307L95.2625 291.641Z" fill="#2E3543"/>
<path d="M94.0424 290.962C93.8355 292.421 92.5257 295.184 92.4977 297.608C92.481 299.131 93.6231 300.416 95.1342 300.61C99.4047 301.158 110.068 301.698 118.32 300.949C118.885 300.897 119.883 300.487 120.163 299.077C121.096 294.34 112.857 293.18 103.826 289.746C103.472 289.611 103.072 289.692 102.8 289.954L101.825 290.897C100.851 291.842 99.4047 292.108 98.1564 291.577L95.1938 290.314C94.6889 290.096 94.1187 290.42 94.0424 290.962Z" fill="white"/>
<path d="M109.07 301.73C103.491 301.73 98.0691 301.407 95.0805 301.023C93.3495 300.802 92.0602 299.332 92.0788 297.603C92.0974 296.013 92.6415 294.292 93.0812 292.907C93.3365 292.102 93.5564 291.407 93.6272 290.902C93.6812 290.513 93.9104 290.179 94.2513 289.988C94.5923 289.796 94.9948 289.773 95.3562 289.926L98.3188 291.189C99.4143 291.657 100.676 291.424 101.533 290.595L102.507 289.652C102.893 289.278 103.467 289.162 103.972 289.354C106.079 290.155 108.104 290.82 110.063 291.463C116.373 293.533 121.358 295.169 120.571 299.158C120.273 300.668 119.192 301.292 118.358 301.366C115.494 301.625 112.256 301.73 109.07 301.73ZM94.8662 290.662C94.7954 290.662 94.7265 290.681 94.6631 290.716C94.5494 290.779 94.4731 290.891 94.4563 291.02C94.3743 291.594 94.1451 292.32 93.8787 293.161C93.4576 294.491 92.9322 296.147 92.9154 297.614C92.9005 298.918 93.8768 300.029 95.1867 300.196C99.0603 300.694 109.811 301.303 118.281 300.533C118.479 300.515 119.483 300.356 119.751 298.996C120.396 295.732 115.952 294.275 109.804 292.257C107.836 291.612 105.801 290.943 103.676 290.135C103.472 290.058 103.243 290.105 103.089 290.252L102.114 291.195C101.015 292.259 99.3976 292.559 97.9908 291.959L95.0283 290.696C94.978 290.673 94.9221 290.662 94.8662 290.662Z" fill="#2E3543"/>
<path d="M92.7304 297.143C92.7304 297.143 92.7248 297.389 92.7248 297.508C92.708 299.03 93.8502 300.316 95.3613 300.509C99.6318 301.057 110.07 301.698 118.32 300.951C118.884 300.899 119.883 300.489 120.163 299.078C120.248 298.646 120.196 297.867 120.196 297.867L119.611 297.897C111.273 298.309 102.917 298.108 94.6085 297.299L92.7304 297.143Z" fill="white"/>
<path d="M109.863 301.709C103.683 301.709 97.8918 301.254 95.3075 300.922C93.5766 300.701 92.2872 299.231 92.3059 297.501L92.3115 297.133C92.3133 297.017 92.3636 296.909 92.4493 296.831C92.535 296.752 92.6468 296.713 92.7642 296.725L94.6405 296.875C102.909 297.68 111.301 297.882 119.589 297.474L120.174 297.446C120.409 297.44 120.597 297.608 120.612 297.835C120.618 297.921 120.666 298.683 120.573 299.156C120.275 300.665 119.194 301.289 118.359 301.364C115.626 301.612 112.703 301.709 109.863 301.709ZM93.1424 297.595C93.1685 298.862 94.1318 299.929 95.4137 300.093C99.1588 300.574 109.675 301.314 118.283 300.533C118.48 300.514 119.485 300.356 119.753 298.996C119.788 298.815 119.796 298.541 119.794 298.303L119.632 298.31C111.303 298.72 102.87 298.519 94.5678 297.71L93.1424 297.595Z" fill="#2E3543"/>
<path d="M105.897 295.274C105.791 295.274 105.682 295.233 105.601 295.151C105.437 294.987 105.437 294.723 105.601 294.561L108.77 291.39C108.932 291.226 109.198 291.226 109.361 291.39C109.524 291.554 109.524 291.818 109.361 291.98L106.191 295.151C106.111 295.235 106.003 295.274 105.897 295.274Z" fill="#2E3543"/>
<path d="M109.01 295.605C108.906 295.605 108.801 295.565 108.721 295.487C108.555 295.327 108.55 295.062 108.71 294.897L111.242 292.266C111.402 292.1 111.667 292.094 111.833 292.254C111.999 292.415 112.004 292.679 111.844 292.845L109.312 295.476C109.228 295.562 109.118 295.605 109.01 295.605Z" fill="#2E3543"/>
<path d="M66.7068 236.576C66.7068 236.576 86.2408 242.387 107.018 231.23C107.631 230.9 108.283 231.605 107.912 232.193C106.867 233.848 103.876 237.912 102.317 242.145C100.396 247.358 96.3414 274.328 95.0055 282.72C94.8843 283.479 95.4564 284.17 96.224 284.194L104.212 284.453C104.717 284.47 105.182 284.189 105.402 283.732C108.285 277.727 128.801 230.615 128.083 221.813C127.306 212.296 114.746 212.782 110.215 212.492C105.527 212.192 68.1433 213.062 68.1433 213.062L66.7068 236.576Z" fill="#2E3543"/>
<path d="M12.137 224.083C12.7798 223.316 13.6145 222.416 14.33 221.708C15.256 220.793 18.3453 214.78 18.3453 214.78L23.7486 216.312C23.7486 216.312 21.2221 220.73 21.8295 222.93C22.3941 224.98 22.8394 229.306 19.8396 232.457C19.4949 232.818 18.7421 232.913 18.4794 232.852C17.6969 232.669 17.6801 231.581 18.0639 230.875L19.1464 228.879C19.2415 228.704 19.098 228.495 18.9005 228.523C18.09 228.637 16.3069 229.157 14.4418 231.458C13.0071 233.228 10.162 237.18 9.20427 236.526C7.49756 235.36 8.61363 228.283 12.137 224.083Z" fill="white"/>
<path d="M9.44259 237.02C9.27304 237.02 9.11466 236.974 8.96933 236.873C8.49421 236.547 8.18864 235.919 8.06381 235.008C7.68371 232.23 9.01032 227.162 11.8163 223.817C12.461 223.048 13.292 222.15 14.0373 221.414C14.7565 220.702 17.1228 216.249 17.9743 214.593C18.0656 214.416 18.2687 214.328 18.4606 214.382L23.8621 215.914C23.9851 215.949 24.0857 216.038 24.136 216.158C24.1844 216.277 24.1751 216.411 24.1118 216.523C23.4336 217.71 21.7734 221.157 22.2336 222.822C22.5094 223.823 23.7074 229.008 20.145 232.748C19.6717 233.245 18.7494 233.348 18.3879 233.262C18.0097 233.173 17.7116 232.925 17.5476 232.562C17.3129 232.036 17.3725 231.28 17.7004 230.678L18.6059 229.008C17.7954 229.204 16.316 229.817 14.7696 231.723C14.5553 231.986 14.3112 232.299 14.0466 232.636C12.0548 235.168 10.5065 237.02 9.44259 237.02ZM18.5594 215.276C17.8718 216.601 15.4776 221.162 14.6242 222.006C13.9069 222.714 13.0777 223.614 12.4573 224.352C9.88045 227.421 8.53333 232.28 8.89294 234.892C8.98237 235.543 9.17801 236.001 9.44259 236.182C10.0519 236.357 12.4778 233.277 13.387 232.118C13.6553 231.777 13.9032 231.462 14.1174 231.196C16.0459 228.818 17.9054 228.243 18.8426 228.11C19.0904 228.075 19.3345 228.181 19.4761 228.386C19.6195 228.593 19.6344 228.857 19.5133 229.079L18.4308 231.075C18.2314 231.442 18.1793 231.932 18.306 232.217C18.3619 232.344 18.4476 232.416 18.5743 232.446C18.7364 232.483 19.3196 232.396 19.5357 232.168C22.787 228.753 21.6803 223.966 21.425 223.04C20.894 221.118 22.487 217.797 23.1298 216.571L18.5594 215.276Z" fill="#2E3543"/>
<path d="M141.64 156.175L138.148 150.289C137.575 149.32 135.767 149.027 134.865 149.7C115.136 164.406 94.1483 158.409 90.9045 157.635C82.8609 155.72 78.8065 155.427 72.4567 155.042C63.1629 154.475 49.7943 159.851 40.7986 168.846C33.642 176.003 21.436 199.215 15.9003 215.341C15.6674 216.019 15.9674 216.763 16.6028 217.095L22.157 219.977C22.8613 220.342 23.7259 220.076 24.0985 219.375C26.925 214.05 39.1701 191.967 51.9836 184.676C52.9245 184.142 54.3424 184.708 54.2884 185.789C54.1169 189.183 52.0115 201.766 51.3687 213.424C51.2848 214.963 52.345 216.327 53.8598 216.608L59.4663 217.648C69.2445 219.925 78.4115 217.389 82.451 215.947C83.6882 215.505 84.2863 214.313 84.4745 213.014C84.7856 210.858 89.127 193.575 97.0401 182.142C98.0369 180.704 99.5461 179.707 101.294 179.605C108.35 179.193 128.437 176.37 141.553 157.993C141.938 157.451 141.977 156.741 141.64 156.175Z" fill="white"/>
<path d="M22.8204 220.554C22.5316 220.554 22.239 220.487 21.967 220.345L16.4127 217.463C15.5855 217.034 15.2054 216.084 15.5072 215.205C21.218 198.564 33.5991 175.455 40.5042 168.55C49.1738 159.88 62.6245 154.022 72.4828 154.624C78.9873 155.021 83.0547 155.336 91.0014 157.229C91.1281 157.258 91.2827 157.298 91.4635 157.342C107.392 161.292 122.315 158.535 134.616 149.364C135.156 148.962 135.967 148.82 136.788 148.984C137.562 149.139 138.188 149.537 138.508 150.076L142 155.962C142.417 156.666 142.376 157.555 141.895 158.229C128.845 176.515 109.173 179.556 101.32 180.016C99.7958 180.105 98.3611 180.964 97.3867 182.375C89.8518 193.26 85.298 210.249 84.8919 213.068C84.6515 214.732 83.8354 215.892 82.5964 216.336C78.0874 217.946 69.0731 220.308 59.3769 218.05L53.789 217.014C52.0786 216.697 50.86 215.141 50.9569 213.396C51.3706 205.892 52.3748 198.115 53.109 192.438C53.504 189.379 53.817 186.962 53.8766 185.764C53.8952 185.389 53.6344 185.17 53.476 185.073C53.0941 184.838 52.5686 184.823 52.1941 185.035C39.7068 192.14 27.8175 213.263 24.4712 219.568C24.1377 220.194 23.4893 220.554 22.8204 220.554ZM71.0537 155.418C61.5643 155.418 49.2111 161.024 41.0967 169.14C34.2606 175.976 21.9782 198.928 16.2991 215.475C16.1332 215.959 16.3419 216.485 16.7984 216.721L22.3527 219.602C22.8502 219.861 23.4706 219.669 23.7333 219.175C27.1058 212.82 39.0975 191.525 51.7805 184.309C52.4177 183.947 53.2748 183.968 53.9139 184.361C54.4486 184.691 54.7393 185.216 54.7095 185.805C54.648 187.035 54.3331 189.466 53.9362 192.544C53.204 198.21 52.2016 205.969 51.7898 213.442C51.7171 214.769 52.6413 215.95 53.94 216.192L59.5464 217.232C69.0544 219.445 77.8917 217.128 82.315 215.548C83.5131 215.121 83.9267 213.899 84.0646 212.948C84.3422 211.027 88.5736 193.638 96.701 181.898C97.8245 180.275 99.4902 179.286 101.273 179.181C109.006 178.728 128.376 175.736 141.217 157.743C141.506 157.339 141.532 156.808 141.282 156.388L137.791 150.502C137.595 150.171 137.159 149.91 136.626 149.804C136.045 149.688 135.465 149.776 135.117 150.035C122.788 159.226 107.213 162.108 91.2641 158.153C91.0871 158.108 90.9343 158.071 90.8095 158.041C82.9299 156.165 78.8923 155.85 72.4325 155.457C71.9816 155.431 71.5195 155.418 71.0537 155.418Z" fill="#2E3543"/>
<path d="M136.835 152.058C136.761 151.621 136.917 151.177 137.255 150.888C137.702 150.508 138.456 149.86 139.55 148.902C141.48 147.214 143.895 143.843 145.999 142.834C148.102 141.822 155.736 138.841 156.956 139.474C158.177 140.108 157.571 141.54 155.838 142.373C154.106 143.206 151.849 144.061 151.849 144.061C151.849 144.061 153.111 143.989 154.042 145.446C154.974 146.903 153.683 147.492 154.227 148.213C154.924 149.137 154.719 150.21 154.165 150.681C152.906 151.755 151.378 149.634 150.239 151.827C149.448 153.351 147.579 154.345 143.785 155.069C142.768 155.263 141.797 155.654 140.92 156.204C140.556 156.431 140.096 156.448 139.722 156.238C138.822 155.725 137.249 154.507 136.835 152.058Z" fill="white"/>
<path d="M140.292 156.802C140.025 156.802 139.759 156.735 139.52 156.601C138.553 156.055 136.865 154.749 136.424 152.129C136.325 151.546 136.541 150.95 136.985 150.572C137.432 150.192 138.183 149.545 139.276 148.589C139.96 147.991 140.707 147.175 141.499 146.31C142.928 144.749 144.408 143.135 145.82 142.457C146.72 142.025 155.542 138.267 157.152 139.103C157.719 139.398 158.026 139.866 158.019 140.423C158.005 141.274 157.242 142.165 156.023 142.75C155.073 143.206 153.96 143.672 153.146 144.002C153.558 144.231 154.007 144.607 154.398 145.22C155.043 146.228 154.786 146.95 154.614 147.425C154.49 147.775 154.482 147.849 154.564 147.959C155.397 149.062 155.147 150.395 154.439 150.998C153.748 151.587 152.99 151.429 152.38 151.302C151.596 151.138 151.123 151.039 150.614 152.019C149.736 153.709 147.719 154.743 143.867 155.479C142.913 155.662 141.998 156.023 141.145 156.558C140.882 156.718 140.586 156.802 140.292 156.802ZM137.247 151.99C137.631 154.268 139.094 155.399 139.93 155.873C140.167 156.007 140.463 155.997 140.702 155.848C141.643 155.26 142.654 154.859 143.711 154.658C147.283 153.976 149.125 153.07 149.872 151.634C150.674 150.093 151.76 150.318 152.552 150.484C153.152 150.609 153.537 150.67 153.899 150.361C154.251 150.061 154.493 149.251 153.897 148.462C153.528 147.974 153.694 147.514 153.826 147.143C153.975 146.726 154.117 146.333 153.692 145.67C152.915 144.455 151.916 144.475 151.872 144.477C151.671 144.484 151.486 144.343 151.445 144.142C151.404 143.94 151.512 143.741 151.704 143.668C151.726 143.659 153.964 142.809 155.66 141.995C156.701 141.494 157.174 140.838 157.18 140.408C157.182 140.322 157.186 140.061 156.765 139.843C155.878 139.383 148.948 141.88 146.18 143.21C144.913 143.819 143.489 145.373 142.112 146.875C141.305 147.756 140.541 148.589 139.824 149.217C138.727 150.177 137.972 150.825 137.523 151.207C137.301 151.399 137.197 151.69 137.247 151.99Z" fill="#2E3543"/>
<path d="M85.8305 139.087L75.3928 156.387C75.2512 156.584 73.7177 156.53 71.9905 156.706C71.1837 156.788 70.3397 156.911 69.641 157.024C69.0652 157.117 68.9031 157.866 69.3894 158.189L71.2583 159.426C75.1748 162.02 79.8254 163.361 84.5132 163.044C85.8156 162.957 87.064 162.746 88.1745 162.4L92.1711 161.142C92.7711 160.954 92.7655 160.102 92.1655 159.92L87.0752 158.377L91.3736 149.255L85.8305 139.087Z" fill="white"/>
<path d="M83.1738 163.506C78.961 163.506 74.6961 162.203 71.0274 159.774L69.1586 158.537C68.7934 158.294 68.6164 157.862 68.7096 157.434C68.8009 157.005 69.1418 156.683 69.5741 156.612C70.4554 156.468 71.2529 156.36 71.9479 156.289C72.6615 156.217 73.3472 156.183 73.8987 156.155C74.3682 156.131 74.8955 156.105 75.1023 156.064L85.473 138.87C85.5494 138.742 85.6854 138.667 85.8401 138.669C85.9891 138.673 86.127 138.755 86.1978 138.887L91.7409 149.055C91.8043 149.172 91.808 149.312 91.7521 149.433L87.6605 158.117L92.2887 159.52C92.7415 159.658 93.0359 160.053 93.0396 160.526C93.0414 161 92.7508 161.398 92.2999 161.54L88.3033 162.798C87.1946 163.142 85.9295 163.366 84.5451 163.459C84.0868 163.489 83.6303 163.506 83.1738 163.506ZM85.8121 139.925L75.7507 156.601C75.529 156.91 75.1284 156.929 73.9397 156.988C73.3975 157.016 72.723 157.05 72.0317 157.119C71.3535 157.188 70.5709 157.294 69.7083 157.434C69.5723 157.456 69.535 157.562 69.5257 157.607C69.5164 157.652 69.507 157.761 69.6207 157.838L71.4895 159.075C75.4023 161.667 80.0175 162.926 84.4855 162.624C85.8065 162.535 87.0046 162.324 88.0517 161.998L92.0483 160.741C92.19 160.696 92.203 160.577 92.203 160.528C92.203 160.48 92.1862 160.361 92.0465 160.318L86.9562 158.775C86.8406 158.74 86.7456 158.656 86.6953 158.544C86.6469 158.432 86.6469 158.306 86.699 158.196L90.9062 149.265L85.8121 139.925Z" fill="#2E3543"/>
<path d="M90.4909 149.61C91.0386 149.681 91.6013 149.703 92.1808 149.673L93.2112 149.619C93.2112 149.619 99.1213 148.835 100.07 147.37C101.018 145.904 99.0132 140.585 99.0132 140.585C99.9281 139.875 100.131 138.977 99.9355 138.675C99.7399 138.373 98.4226 137.913 97.8879 137.52C97.4519 137.199 96.4755 134.652 96.0582 133.558C96.0582 133.558 95.2849 129.239 88.3575 129.8C72.4865 131.086 83.8969 145.774 83.8969 145.774C84.1428 146.059 84.3962 146.333 84.6571 146.594L90.4909 149.61Z" fill="white"/>
<path d="M91.6831 150.104C90.8018 150.104 89.9372 149.987 89.1025 149.754C88.8808 149.692 88.7504 149.461 88.8119 149.24C88.8733 149.018 89.1044 148.888 89.3261 148.949C90.2372 149.204 91.1893 149.305 92.1582 149.256L93.1886 149.202C95.3667 148.912 99.1043 148.092 99.7173 147.144C100.325 146.204 99.367 142.713 98.6217 140.732C98.5565 140.561 98.6124 140.367 98.7559 140.255C99.4695 139.7 99.6353 139.044 99.5776 138.889C99.503 138.817 99.0372 138.595 98.7279 138.448C98.3255 138.256 97.9118 138.057 97.6398 137.857C97.2504 137.57 96.7157 136.447 95.6667 133.71C95.6574 133.685 95.6499 133.659 95.6462 133.633C95.6164 133.475 94.8245 129.698 88.3908 130.218C84.4761 130.535 81.9794 131.66 80.9695 133.562C79.2628 136.78 81.9794 141.591 83.6023 144.464L83.7457 144.719C83.8594 144.921 83.7886 145.176 83.5874 145.29C83.3861 145.403 83.1309 145.333 83.0172 145.131L82.8738 144.876C81.1652 141.854 78.307 136.795 80.2298 133.171C81.3813 131.001 84.1035 129.726 88.3218 129.385C95.1412 128.832 96.3374 132.938 96.4567 133.438C97.5429 136.273 97.9715 137.041 98.1392 137.186C98.3441 137.336 98.7391 137.526 99.0894 137.693C99.7453 138.006 100.123 138.196 100.286 138.448C100.606 138.944 100.356 139.929 99.5049 140.715C99.9409 141.928 101.353 146.154 100.42 147.598C99.3968 149.18 93.891 149.953 93.2668 150.035L92.2029 150.093C92.0296 150.101 91.8564 150.104 91.6831 150.104Z" fill="#2E3543"/>
<path d="M85.1191 127.922C86.8501 127.581 88.8214 127.85 89.6654 127.563C91.0256 127.099 90.9939 125.535 92.9111 125.381C94.5974 125.245 96.1643 125.56 97.0158 126.851C97.1574 127.067 97.2804 127.307 97.381 127.579C98.7095 131.229 96.8742 132.988 96.0619 133.56C96.0619 133.56 90.9212 136.029 90.0343 136.739C89.2052 137.402 88.227 138.982 88.7599 141.268C88.8288 141.563 88.6872 141.868 88.4226 142.016C88.1133 142.189 87.7202 142.103 87.5171 141.811C86.8799 140.89 85.4806 139.109 84.4446 139.519C83.2354 139.998 82.8255 143.037 85.0465 143.788C85.7303 144.019 85.9557 144.915 85.4638 145.442C85.0558 145.88 84.4298 146.187 83.487 145.947C83.487 145.947 77.9569 142.004 77.3029 136.81C76.6489 131.615 82.8162 128.375 85.1191 127.922Z" fill="#2E3543"/>
<path d="M291.697 123.389H277.173V162.112H291.697V123.389Z" fill="white"/>
<path d="M291.695 162.531H277.171C276.94 162.531 276.753 162.344 276.753 162.113V123.388C276.753 123.157 276.94 122.971 277.171 122.971H291.695C291.926 122.971 292.112 123.157 292.112 123.388V162.111C292.114 162.344 291.926 162.531 291.695 162.531ZM277.59 161.696H291.277V123.807H277.59V161.696Z" fill="#2458A4"/>
<path d="M294.76 162.7H273.957C272.41 162.7 271.156 161.446 271.156 159.899V154.645C271.156 153.099 272.41 151.845 273.957 151.845H294.76C296.306 151.845 297.56 153.099 297.56 154.645V159.899C297.56 161.446 296.306 162.7 294.76 162.7Z" fill="white"/>
<path d="M294.759 163.118H273.957C272.183 163.118 270.739 161.674 270.739 159.9V154.646C270.739 152.872 272.183 151.428 273.957 151.428H294.759C296.533 151.428 297.977 152.872 297.977 154.646V159.9C297.977 161.674 296.535 163.118 294.759 163.118ZM273.957 152.262C272.643 152.262 271.575 153.33 271.575 154.644V159.898C271.575 161.212 272.643 162.279 273.957 162.279H294.759C296.073 162.279 297.141 161.212 297.141 159.898V154.644C297.141 153.33 296.073 152.262 294.759 152.262H273.957Z" fill="#2458A4"/>
<path d="M311.935 169.448H256.782V165.533C256.782 162.997 258.839 160.94 261.375 160.94H307.341C309.876 160.94 311.933 162.997 311.933 165.533V169.448H311.935Z" fill="white"/>
<path d="M311.935 169.865H256.782C256.551 169.865 256.365 169.678 256.365 169.447V165.533C256.365 162.77 258.612 160.522 261.375 160.522H307.34C310.104 160.522 312.351 162.77 312.351 165.533V169.447C312.353 169.678 312.164 169.865 311.935 169.865ZM257.199 169.03H311.516V165.533C311.516 163.23 309.643 161.357 307.34 161.357H261.375C259.072 161.357 257.199 163.23 257.199 165.533V169.03Z" fill="#2458A4"/>
<path d="M273.219 121.497C257.983 112.941 242.749 100.028 231.427 86.071C224.473 77.5002 213.383 61.4634 217.229 50.3511C218.339 47.1427 221.164 43.1125 228.315 42.1306C233.506 41.4188 240.525 42.4026 249.178 45.054L247.29 52.6914C239.537 50.3157 233.445 49.4084 229.185 49.9934C226.252 50.3959 224.464 51.4747 223.866 53.2C222.448 57.2954 225.869 67.4053 236.705 80.7627C247.463 94.0233 261.941 106.293 276.422 114.426L273.219 121.497Z" fill="white"/>
<path d="M273.219 121.916C273.148 121.916 273.077 121.898 273.014 121.862C257.733 113.282 242.457 100.333 231.102 86.3362C224.095 77.6983 212.921 61.5199 216.834 50.2157C217.982 46.8973 220.897 42.7293 228.257 41.7175C233.51 40.9965 240.588 41.9858 249.299 44.6558C249.511 44.721 249.636 44.9409 249.582 45.1552L247.694 52.7925C247.666 52.9043 247.594 52.9994 247.495 53.0552C247.394 53.1111 247.275 53.1242 247.167 53.0906C239.472 50.7337 233.439 49.83 229.241 50.4076C226.478 50.7858 224.803 51.7715 224.261 53.3366C222.882 57.322 226.293 67.2679 237.029 80.4987C247.756 93.7201 262.19 105.952 276.628 114.061C276.817 114.167 276.893 114.4 276.805 114.598L273.603 121.67C273.554 121.777 273.463 121.859 273.353 121.896C273.308 121.909 273.263 121.916 273.219 121.916ZM231.835 42.3249C230.601 42.3249 229.446 42.3995 228.371 42.5466C221.43 43.4988 218.695 47.391 217.622 50.4896C213.841 61.4118 224.851 77.307 231.749 85.8089C242.943 99.6061 257.966 112.377 273.025 120.908L275.881 114.599C261.467 106.44 247.085 94.2214 236.377 81.0241C225.44 67.5437 222.014 57.268 223.469 53.0627C224.123 51.1752 226.025 50.0033 229.125 49.5785C233.368 48.9953 239.375 49.8654 246.988 52.1628L248.674 45.3378C242.047 43.3348 236.403 42.3249 231.835 42.3249Z" fill="#2458A4"/>
<path d="M295.954 121.057C310.944 112.501 325.93 99.589 337.07 85.6316C343.91 77.0608 354.821 61.024 351.039 49.9117C349.947 46.7032 347.167 42.6731 340.131 41.6911C335.024 40.9794 328.119 41.9632 319.606 44.6145L321.462 52.2519C329.09 49.8763 335.084 48.9689 339.274 49.554C342.158 49.9564 343.919 51.0352 344.506 52.7606C345.9 56.8559 342.535 66.9658 331.875 80.3233C321.29 93.5838 307.05 105.853 292.802 113.986L295.954 121.057Z" fill="white"/>
<path d="M295.954 121.475C295.911 121.475 295.866 121.468 295.823 121.455C295.712 121.417 295.62 121.335 295.572 121.227L292.421 114.154C292.334 113.959 292.41 113.728 292.596 113.622C306.8 105.515 320.997 93.2826 331.551 80.0611C342.112 66.8285 345.469 56.8826 344.113 52.8953C343.58 51.332 341.933 50.3464 339.218 49.9682C335.087 49.3906 329.157 50.2942 321.588 52.6512C321.478 52.6847 321.359 52.6736 321.258 52.6158C321.158 52.558 321.085 52.463 321.059 52.3512L319.201 44.7139C319.149 44.4996 319.272 44.2816 319.483 44.2164C328.055 41.5464 335.022 40.557 340.189 41.2781C347.435 42.2879 350.302 46.4578 351.433 49.7781C355.281 61.0804 344.29 77.257 337.396 85.893C326.224 99.8896 311.195 112.839 296.161 121.421C296.097 121.456 296.027 121.475 295.954 121.475ZM293.338 114.16L296.148 120.465C310.958 111.933 325.734 99.1648 336.742 85.3713C343.529 76.8675 354.36 60.9724 350.641 50.0464C349.587 46.9497 346.898 43.0575 340.073 42.1053C335.102 41.4141 328.387 42.3513 320.105 44.8983L321.763 51.7215C329.248 49.426 335.158 48.5558 339.332 49.139C342.385 49.5638 344.26 50.7377 344.903 52.6251C346.334 56.8286 342.961 67.1024 332.203 80.5828C321.668 93.7819 307.521 106.003 293.338 114.16Z" fill="#2458A4"/>
<path d="M284.468 128.373C323.234 128.806 323.653 73.7325 331.993 29.8629L236.648 29.5107C244.356 74.6474 245.761 129.106 284.468 128.373Z" fill="white"/>
<path d="M283.707 128.799C269.062 128.799 258.515 120.755 251.475 104.232C245.135 89.3487 242.176 69.1066 239.314 49.5297C238.349 42.9264 237.35 36.0996 236.238 29.582C236.217 29.4609 236.251 29.336 236.331 29.241C236.411 29.1479 236.527 29.0789 236.651 29.0938L331.996 29.446C332.121 29.446 332.239 29.5019 332.317 29.5988C332.395 29.6938 332.429 29.8205 332.405 29.9435C330.983 37.4187 329.772 45.3523 328.602 53.0251C325.753 71.6928 322.805 90.9958 316.597 105.201C309.66 121.074 299.291 128.795 284.915 128.797C284.766 128.797 284.62 128.797 284.469 128.795C284.214 128.797 283.961 128.799 283.707 128.799ZM237.143 29.9304C238.224 36.3101 239.198 42.9655 240.139 49.4086C242.994 68.9315 245.945 89.1214 252.243 103.904C259.226 120.299 269.228 127.962 283.672 127.964C283.933 127.964 284.194 127.962 284.458 127.957C284.462 127.957 284.466 127.957 284.471 127.957C284.626 127.958 284.78 127.958 284.933 127.958C299.122 127.958 308.946 120.608 315.829 104.864C321.995 90.7591 324.933 71.512 327.774 52.8965C328.92 45.3859 330.105 37.6237 331.49 30.2788L237.143 29.9304Z" fill="#2458A4"/>
<path d="M320.288 80.7175C320.26 80.7175 320.232 80.7157 320.204 80.7082C319.978 80.6616 319.831 80.4418 319.878 80.2145C321.648 71.6045 322.846 62.2082 324.005 53.1232C324.433 49.7619 324.877 46.2851 325.343 42.8959C325.374 42.6667 325.583 42.5065 325.814 42.5382C326.043 42.5698 326.203 42.7804 326.172 43.0096C325.706 46.3951 325.262 49.8681 324.834 53.2275C323.673 62.3294 322.473 71.7405 320.698 80.3821C320.657 80.5815 320.481 80.7175 320.288 80.7175Z" fill="#2458A4"/>
<path d="M285.298 125.803C285.084 125.803 284.901 125.639 284.883 125.421C284.862 125.192 285.033 124.989 285.263 124.969C299.429 123.743 308.914 113.709 315.113 93.3944C315.18 93.1745 315.413 93.0497 315.635 93.1168C315.855 93.1838 315.98 93.4186 315.913 93.6385C311.942 106.653 304.45 124.147 285.335 125.801C285.322 125.803 285.309 125.803 285.298 125.803Z" fill="#2458A4"/>
<path d="M334.199 34.7523H235.362C233.493 34.7523 231.977 33.2375 231.977 31.3668V25.5964C231.977 23.7276 233.491 22.2109 235.362 22.2109H334.199C336.068 22.2109 337.584 23.7257 337.584 25.5964V31.3668C337.584 33.2356 336.069 34.7523 334.199 34.7523Z" fill="white"/>
<path d="M334.199 35.1691H235.362C233.264 35.1691 231.559 33.4624 231.559 31.3662V25.5958C231.559 23.4978 233.266 21.793 235.362 21.793H334.199C336.297 21.793 338.001 23.4997 338.001 25.5958V31.3662C338.001 33.4624 336.297 35.1691 334.199 35.1691ZM235.362 22.6277C233.726 22.6277 232.394 23.958 232.394 25.5958V31.3662C232.394 33.0021 233.724 34.3343 235.362 34.3343H334.199C335.835 34.3343 337.167 33.004 337.167 31.3662V25.5958C337.167 23.9599 335.836 22.6277 334.199 22.6277H235.362Z" fill="#2458A4"/>
<path d="M305.065 27.8015C304.836 27.8015 304.649 27.617 304.647 27.3878C304.646 27.1568 304.83 26.9686 305.061 26.9649L324.837 26.7432C324.839 26.7432 324.841 26.7432 324.843 26.7432C325.072 26.7432 325.258 26.9276 325.26 27.1568C325.262 27.3878 325.078 27.576 324.847 27.5798L305.07 27.8015C305.067 27.8015 305.065 27.8015 305.065 27.8015Z" fill="#2458A4"/>
<path d="M288.868 27.982C288.639 27.982 288.453 27.7976 288.451 27.5684C288.449 27.3373 288.633 27.1492 288.864 27.1454L299.88 27.0225C299.882 27.0225 299.883 27.0225 299.885 27.0225C300.114 27.0225 300.301 27.2069 300.303 27.4361C300.305 27.6671 300.12 27.8553 299.889 27.859L288.874 27.982C288.872 27.982 288.87 27.982 288.868 27.982Z" fill="#2458A4"/>
<path d="M55.6524 66.0803C55.55 66.0803 55.4475 66.0431 55.3674 65.9686C55.1978 65.812 55.1885 65.5475 55.3469 65.3779C80.7743 38.0966 105.466 26.6359 121.702 21.8269C139.319 16.608 151.094 17.8731 151.212 17.8861C151.441 17.9122 151.605 18.1191 151.579 18.3482C151.553 18.5774 151.344 18.7414 151.117 18.7153C151.001 18.7022 139.358 17.4576 121.89 22.6411C105.766 27.4259 81.2383 38.8232 55.958 65.9481C55.876 66.0356 55.7642 66.0803 55.6524 66.0803Z" fill="#2458A4"/>
<path d="M61.7469 49.0244C61.6314 49.0244 61.5178 48.9778 61.4339 48.8846C61.2811 48.7113 61.296 48.4486 61.4693 48.294C89.2873 23.5746 114.579 14.4522 130.897 11.1524C148.609 7.56946 159.902 9.88358 160.013 9.90781C160.239 9.95625 160.384 10.178 160.336 10.4034C160.287 10.6289 160.067 10.7723 159.84 10.7258C159.73 10.7015 148.566 8.42282 131.011 11.9834C114.804 15.2702 89.6804 24.3441 62.0227 48.92C61.9444 48.989 61.8457 49.0244 61.7469 49.0244Z" fill="#2458A4"/>
<path d="M173.078 5.03246C173.032 5.03246 172.985 5.0306 172.939 5.02873C171.763 4.96166 171.086 4.06731 170.433 3.20091C169.816 2.38482 169.233 1.61531 168.256 1.45693C167.086 1.26875 166.14 2.11465 165.139 3.009C164.04 3.99092 162.907 5.00824 161.347 4.77534C159.969 4.57038 159.212 3.49903 158.543 2.55623C157.902 1.65257 157.351 0.870014 156.384 0.838339C155.564 0.810391 154.914 1.33955 154.232 1.89852C153.432 2.55437 152.523 3.29593 151.269 3.03881C150.613 2.90466 150.205 2.56928 149.846 2.27303C149.492 1.98236 149.212 1.75132 148.73 1.7271C147.96 1.68797 147.129 2.19663 146.268 3.23817C146.121 3.41518 145.858 3.44126 145.68 3.29407C145.503 3.14687 145.476 2.88416 145.624 2.70529C146.663 1.44948 147.718 0.836478 148.773 0.892375C149.529 0.931502 149.98 1.30042 150.377 1.62649C150.703 1.89479 150.984 2.12583 151.437 2.21899C152.301 2.396 152.95 1.86498 153.703 1.25011C154.44 0.646425 155.279 -0.0392381 156.412 0.00175283C157.792 0.0483335 158.521 1.07683 159.225 2.07179C159.853 2.95869 160.446 3.79528 161.47 3.94806C162.639 4.12134 163.583 3.27916 164.582 2.38668C165.685 1.40103 166.827 0.381848 168.389 0.633383C169.697 0.843928 170.442 1.82958 171.098 2.69784C171.686 3.47667 172.195 4.14929 172.985 4.19587C174.097 4.26295 175.389 3.05185 176.717 0.702322C176.831 0.501093 177.086 0.430295 177.287 0.543952C177.489 0.657609 177.559 0.91287 177.446 1.1141C175.957 3.74684 174.526 5.03246 173.078 5.03246Z" fill="#2458A4"/>
<path d="M333.649 126.67C333.629 126.67 333.608 126.668 333.588 126.666C333.359 126.632 333.202 126.418 333.236 126.191L333.715 122.984C333.748 122.755 333.964 122.6 334.19 122.632C334.419 122.666 334.575 122.88 334.542 123.107L334.063 126.314C334.031 126.521 333.854 126.67 333.649 126.67Z" fill="#2458A4"/>
<path d="M332.535 134.138C332.514 134.138 332.494 134.136 332.473 134.134C332.244 134.101 332.088 133.886 332.121 133.659L332.6 130.452C332.634 130.223 332.848 130.067 333.075 130.1C333.304 130.134 333.461 130.348 333.427 130.575L332.948 133.782C332.917 133.989 332.738 134.138 332.535 134.138Z" fill="#2458A4"/>
<path d="M331.201 128.483C331.18 128.483 331.16 128.481 331.139 128.48L327.933 128.001C327.704 127.967 327.547 127.755 327.581 127.526C327.614 127.296 327.829 127.14 328.056 127.173L331.262 127.652C331.492 127.686 331.648 127.898 331.615 128.127C331.583 128.334 331.404 128.483 331.201 128.483Z" fill="#2458A4"/>
<path d="M338.671 129.598C338.65 129.598 338.63 129.596 338.609 129.594L335.403 129.115C335.174 129.081 335.017 128.869 335.051 128.64C335.084 128.411 335.298 128.254 335.526 128.288L338.732 128.767C338.962 128.8 339.118 129.014 339.085 129.242C339.051 129.449 338.874 129.598 338.671 129.598Z" fill="#2458A4"/>
<path d="M193.879 13.512C192.937 13.512 192.02 13.199 191.252 12.6046C189.37 11.1457 188.985 8.4291 190.395 6.54911C191.073 5.64358 192.065 5.06225 193.184 4.91133C194.327 4.75855 195.463 5.06598 196.385 5.78146C198.269 7.24037 198.653 9.95695 197.243 11.8369C196.564 12.7425 195.573 13.3238 194.453 13.4747C194.261 13.4989 194.069 13.512 193.879 13.512ZM191.064 7.05032C189.926 8.56884 190.241 10.7637 191.765 11.9431C192.508 12.5189 193.423 12.7704 194.342 12.6456C195.238 12.5245 196.031 12.0587 196.574 11.3339C197.712 9.81534 197.397 7.62046 195.873 6.43918C195.13 5.86344 194.213 5.61377 193.296 5.73674C192.4 5.85972 191.606 6.32552 191.064 7.05032Z" fill="#2458A4"/>
</svg>
