<svg width="49" height="58" viewBox="0 0 49 58" fill="none" xmlns="http://www.w3.org/2000/svg">
<g id="Icon">
<path id="Fill 1" fill-rule="evenodd" clip-rule="evenodd" d="M34.7957 20.5965C34.5709 20.4743 34.4549 20.268 34.3908 20.0714C34.3692 20.0093 34.4375 19.9549 34.5011 19.9852C34.6238 20.0468 34.7454 20.1043 34.8712 20.1582C34.9307 20.2239 36.1133 20.7535 36.5388 20.8044C36.9427 20.889 37.3436 20.9373 37.7172 20.9332C37.8512 20.9347 37.978 20.9147 38.0976 20.889C38.1551 20.8716 38.2197 20.8665 38.2711 20.8413C38.3542 20.8218 38.5277 20.7222 38.6693 20.6283C38.9681 20.4451 39.1739 20.4584 39.3119 20.5138C39.3443 20.5251 39.3946 20.5565 39.4346 20.5862L39.5198 20.6699L39.5917 20.7977C39.6107 20.8475 39.6158 20.9178 39.6286 20.9773C39.6302 21.2314 39.6184 21.4983 39.5942 21.7713L39.546 22.2215C39.5214 22.4258 39.4854 22.628 39.4392 22.8271C39.2735 23.5642 39.1292 24.2052 38.9763 24.8843C38.9491 25.0008 38.9065 25.1163 38.8962 25.2369C38.8916 25.2739 38.8695 25.3657 38.8238 25.5002C38.7997 25.5685 38.7705 25.6465 38.7273 25.7399C38.6991 25.7928 38.6837 25.8338 38.6344 25.9067C38.6139 25.9375 38.5918 25.9719 38.541 26.0248C38.5118 26.0525 38.5123 26.0607 38.4553 26.1023C38.404 26.1387 38.3455 26.17 38.287 26.1916L38.4676 26.0858C38.4117 26.1351 38.3398 26.1782 38.2654 26.2054C38.2187 26.2183 38.2166 26.2301 38.1176 26.2347C38.035 26.2383 37.9364 26.2188 37.8558 26.1782C37.8153 26.1582 37.7793 26.1346 37.7496 26.11C37.7188 26.0843 37.7213 26.0828 37.7054 26.0668C37.6834 26.0417 37.6623 26.014 37.6433 25.9847C37.6048 25.9262 37.5761 25.8518 37.5761 25.8441C37.5422 25.7317 37.5397 25.6737 37.532 25.6147C37.5232 25.5069 37.5217 25.4155 37.5212 25.3277C37.5232 25.1609 37.5253 24.9952 37.5273 24.8443C37.5309 24.5614 37.534 24.3356 37.535 24.255C37.5504 23.9774 37.5386 23.6966 37.4837 23.4908C37.4442 23.3753 37.458 23.3886 37.4262 23.3507C37.3913 23.3286 37.3775 23.3127 37.2923 23.3363C37.244 23.3558 37.1834 23.3907 37.1147 23.4051C36.9489 23.4282 36.818 23.5513 36.6892 23.6679C36.5023 23.8388 36.2981 24.0138 36.1025 24.1657C35.9947 24.233 35.8864 24.2945 35.7663 24.3464C35.6632 24.3993 35.6539 24.3176 35.6698 24.2761C35.7258 24.1698 35.6313 24.2109 35.6 24.1996C35.5887 24.1945 35.5749 24.1883 35.5708 24.177C35.5543 24.1534 35.7627 23.8064 36.0322 23.5211C36.2606 23.2429 36.5922 22.8846 36.6825 22.8456C36.7 22.8405 36.7995 22.7347 37.1034 22.6193C37.2517 22.5613 37.5053 22.5269 37.7203 22.6167C37.9385 22.6927 38.134 22.9323 38.2146 23.1217C38.3768 23.4841 38.4004 23.7998 38.4368 24.0564C38.464 24.311 38.4723 24.4978 38.4779 24.5614C38.4882 24.6939 38.4723 24.8263 38.4625 24.9551C38.463 24.97 38.4656 25.0691 38.4692 25.2225C38.4728 25.2959 38.4764 25.3842 38.4846 25.4643C38.4876 25.5074 38.4938 25.5402 38.4979 25.5582C38.5359 25.5433 38.4137 25.5628 38.3296 25.5921C38.2895 25.6029 38.2346 25.6311 38.2084 25.6352C38.1853 25.6378 38.1622 25.6455 38.1422 25.6588C38.0909 25.7065 38.0971 25.6958 38.0914 25.7024C38.0929 25.6742 38.0652 25.6172 38.0257 25.6039L38.1094 25.6521C38.1022 25.6147 38.0832 25.5905 38.0545 25.5659C38.0185 25.5171 37.9759 25.4761 37.9282 25.4427C37.9071 25.4309 37.8753 25.4058 37.8414 25.3775C37.805 25.3498 37.8317 25.3678 37.8235 25.3611L37.8271 25.3529L37.8676 25.2513C37.8974 25.1656 37.9261 25.0752 37.9487 24.9905C37.9934 24.8176 38.0257 24.6923 38.0303 24.6754C38.1314 24.35 38.1853 24.0046 38.3219 23.6781C38.3486 23.6134 38.3593 23.5431 38.3722 23.4744C38.4789 22.8949 38.6108 22.2605 38.6837 21.7287C38.6894 21.7087 38.6914 21.6861 38.6909 21.6672C38.6883 21.6482 38.6996 21.5963 38.6647 21.621C38.6575 21.6246 38.6565 21.6153 38.6498 21.6153C38.6421 21.6143 38.6324 21.6122 38.6196 21.6204C38.5882 21.6307 38.6247 21.623 38.5149 21.663C38.4086 21.6964 38.3003 21.7149 38.193 21.7395C37.9785 21.7708 37.767 21.7785 37.5592 21.7708C37.1439 21.7529 36.7528 21.6543 36.372 21.5455C36.1862 21.508 35.425 21.0985 35.252 20.9886C35.1484 20.9327 34.8815 20.6483 34.7957 20.5965Z" fill="#2458A4"/>
<path id="Fill 3" fill-rule="evenodd" clip-rule="evenodd" d="M38.6283 17.5281C38.0771 18.0244 37.1758 17.9428 36.6517 17.3916C35.4913 16.1721 37.0464 14.059 38.5472 15.6927C39.0353 16.2244 39.1365 17.0703 38.6283 17.5281Z" fill="#2458A4"/>
<path id="Fill 5" fill-rule="evenodd" clip-rule="evenodd" d="M5.2079 39.9621C6.21697 36.0725 7.00381 32.1204 7.54017 28.1339C7.73675 26.6788 7.8589 25.2165 7.99646 23.7578C8.2341 21.1838 8.36755 18.599 8.35574 16.0158C8.33675 13.4346 8.18585 10.8467 7.74393 8.31526C7.54325 7.19481 7.2784 6.08103 6.88627 5.02884C6.6902 4.50428 6.4618 3.99461 6.18002 3.53319C5.89978 3.07536 5.56 2.65397 5.1576 2.41325C4.65306 2.08681 4.05152 2.17612 3.53876 2.55234C3.02755 2.90752 2.6462 3.50958 2.33362 4.12447C2.0231 4.75014 1.78546 5.42508 1.59144 6.11285C1.4041 6.80216 1.22343 7.50277 1.12797 8.20953C1.02942 9.07746 0.8313 8.9938 0.644472 8.18643C0.4869 7.38677 0.394513 5.8439 1.08383 4.1491C1.39486 3.40641 1.77417 2.65961 2.4101 2.00623C2.73807 1.69109 3.13893 1.38877 3.60754 1.21837C4.07718 1.03822 4.67308 0.998694 5.18788 1.17115C5.70628 1.33693 6.11124 1.649 6.42792 1.97441C6.74512 2.30444 6.99713 2.6591 7.20757 3.01941C7.62742 3.74209 7.91742 4.48786 8.16276 5.23722C8.64266 6.73801 8.91623 8.25983 9.11435 9.78474C9.30785 11.3102 9.40742 12.8407 9.44438 14.3718C9.52804 18.0324 9.44899 21.8362 9.08355 25.5527C8.66883 29.6362 7.97952 33.6874 7.0731 37.6847C6.51056 40.1438 5.86128 42.5833 5.12988 44.9946C4.57504 46.8203 3.96734 48.6393 3.30831 50.4265C2.99111 51.3119 2.69445 52.2008 2.57999 53.0872C2.45424 53.9593 2.61232 54.8462 3.07375 55.5401C3.42739 56.0796 3.97812 56.4465 4.59198 56.6036C5.20841 56.7504 5.88541 56.7134 6.50902 56.5107C7.77627 56.1627 8.71297 55.1069 9.41615 53.948C9.71692 53.4208 9.97406 52.8804 10.2158 52.306C10.668 51.2436 10.9123 50.506 11.1443 50.0077C11.3722 49.5067 11.5652 49.2337 11.8018 49.0391C11.9096 48.9503 12.0276 48.8256 12.1205 48.7835C12.4254 48.6429 12.3772 49.6289 11.8752 51.3416C11.481 52.6058 11.0011 53.8951 10.2132 55.1054C9.80879 55.7008 9.35045 56.2936 8.74018 56.7776C8.13709 57.2621 7.4139 57.644 6.62964 57.8452C5.86795 58.0294 5.02004 58.0726 4.1824 57.8467C3.7646 57.7312 3.3622 57.5372 2.99419 57.2893C2.6308 57.0317 2.31617 56.7109 2.05595 56.3557C1.54936 55.6269 1.30042 54.7995 1.2491 53.9623C1.21009 53.116 1.36407 52.362 1.54987 51.6506C1.83165 50.5948 2.2243 49.6268 2.54765 48.6886C2.87922 47.7329 3.20463 46.7736 3.50848 45.8071C4.12491 43.8767 4.67872 41.9243 5.17556 39.9595L5.2079 39.9621Z" fill="#2458A4"/>
<path id="Fill 8" fill-rule="evenodd" clip-rule="evenodd" d="M38.1595 0.0669252C39.1973 -0.00595819 40.2695 -0.0526652 41.3689 0.109013C42.4637 0.249134 43.577 0.627922 44.5358 1.24846C45.0049 1.56873 45.452 1.92289 45.8313 2.33093C45.9267 2.43256 46.0248 2.52956 46.1182 2.63581L46.3815 2.98791L46.6397 3.34257C46.7156 3.46422 46.7752 3.59202 46.8429 3.71674C47.3859 4.71812 47.6646 5.77595 47.835 6.81634C48.0927 8.33868 48.1815 9.85127 48.1594 11.352C48.0999 13.9969 47.8099 16.6032 47.4445 19.1886C47.08 21.7749 46.6366 24.3417 46.1828 26.9034C45.7805 29.1756 45.4011 31.4632 45.0532 33.7206C44.8319 35.1706 44.6348 36.6257 44.4721 38.0777C44.389 38.8034 44.3228 39.5297 44.2679 40.2513C44.1965 40.975 44.1801 41.6916 44.2011 42.4019C44.2863 43.2565 44.0882 43.2288 43.7413 42.4717C43.441 41.7152 43.1146 40.2082 43.2793 38.4955C43.5359 35.458 44.0092 32.4867 44.5209 29.52C45.028 26.5549 45.57 23.597 46.0504 20.6216C46.614 17.0672 46.9841 13.3127 46.8367 9.68702C46.732 7.71866 46.479 5.68254 45.5392 4.08834L45.1368 3.54993C44.9823 3.37901 44.8155 3.20656 44.6467 3.04591C44.2966 2.73692 43.9306 2.44487 43.5216 2.22622C42.7152 1.76685 41.7903 1.52767 40.8311 1.44555C39.6485 1.33879 38.4182 1.44606 37.1802 1.56976L33.4447 1.97421C29.6691 2.3915 25.8551 2.74462 22.0667 2.86421C19.1231 2.94685 16.2144 2.93863 13.2924 2.54547C12.6467 2.48132 12.0221 2.34889 11.3764 2.2329C8.99486 1.70834 8.29939 1.2772 7.94165 0.76753C7.86055 0.648453 7.74558 0.518084 7.71324 0.415431C7.65832 0.241948 7.88262 0.178817 8.31992 0.216798C8.76235 0.243488 9.39829 0.423643 10.2385 0.581215C15.1781 1.67241 20.5843 1.65548 25.9906 1.26334C30.0217 0.965136 34.0354 0.447767 38.1513 0.0320233L38.1595 0.0669252Z" fill="#2458A4"/>
<path id="Fill 11" fill-rule="evenodd" clip-rule="evenodd" d="M34.8062 46.8659L29.2445 47.3694C28.568 47.4351 27.8946 47.5346 27.2171 47.5952C24.8268 47.8087 22.4268 47.9817 20.0237 48.0833C18.9556 48.1049 17.8839 48.1547 16.8246 48.1665C16.1445 48.1829 15.4618 48.1855 14.7792 48.1731C14.0971 48.1326 13.418 48.033 12.7431 47.9334C12.3227 47.8667 12.3833 47.8128 12.7451 47.7148C13.107 47.625 13.7686 47.4351 14.5431 47.3191C17.288 47.2251 20.0104 46.9654 22.7892 46.8864C24.4506 46.8186 26.166 46.5692 27.8597 46.3849L33.461 45.8003C34.6102 45.6833 35.7599 45.5668 36.9086 45.4498C38.6475 45.267 40.3967 45.0936 42.1197 44.8821C43.4604 44.7266 44.821 44.4946 46.2576 44.7137C46.5718 44.7615 46.8818 44.8195 47.1938 44.918C48.3441 45.325 48.5925 45.7151 48.5858 46.1216C48.5838 46.2181 48.594 46.3223 48.5704 46.4024C48.4806 46.679 48.0161 46.5697 47.353 46.3228C45.3676 45.5719 42.9594 46.0811 40.4177 46.328C38.5536 46.5163 36.6807 46.7062 34.8119 46.8956L34.8062 46.8659Z" fill="#2458A4"/>
<path id="Fill 14" fill-rule="evenodd" clip-rule="evenodd" d="M37.2743 56.7284C35.2182 56.7916 33.1872 56.7654 31.1583 56.8059L28.9338 56.8686C26.3213 56.8999 23.7139 56.9327 21.1173 57.1226L19.3722 57.2653C18.7861 57.3023 18.2051 57.3315 17.6307 57.3546C16.1551 57.4239 14.6908 57.5122 13.288 57.7796C12.8564 57.871 12.8379 57.6703 13.1648 57.3664C13.4892 57.0662 14.1965 56.6966 15.0706 56.5863C16.6134 56.3897 18.1368 56.3671 19.6063 56.2757C21.085 56.1418 22.6386 56.036 24.1594 56.0099C25.9882 55.9719 27.8832 55.8451 29.7458 55.7876L35.887 55.6295C37.1424 55.591 38.3943 55.531 39.6364 55.4109C40.5767 55.317 41.5144 55.1953 42.4362 55.0131L43.123 54.8643C43.3375 54.7981 43.5516 54.7524 43.7548 54.6631C44.1695 54.5075 44.5499 54.2735 44.9055 54.0128C46.0096 53.17 46.6619 51.8904 46.9622 50.5888C47.0392 50.3014 47.0597 50.0098 47.11 49.7157C47.2435 48.6179 47.283 48.2565 47.5668 47.9778C47.6305 47.9142 47.6905 47.8305 47.7531 47.7884C47.8583 47.7181 47.9656 47.7987 48.077 48.0168C48.1324 48.1256 48.1879 48.2693 48.2402 48.4449C48.2797 48.6209 48.3152 48.8293 48.3434 49.0664C48.4019 49.7701 48.3208 50.4949 48.1571 51.2139C47.9759 51.9299 47.6654 52.6249 47.2547 53.2685C46.4392 54.5517 45.1247 55.6239 43.5433 56.0176C41.4415 56.5242 39.3536 56.6612 37.2784 56.7572L37.2743 56.7284Z" fill="#2458A4"/>
<path id="Fill 16" fill-rule="evenodd" clip-rule="evenodd" d="M22.4828 11.054C21.773 11.0396 21.0621 11.0222 20.3528 11.0294C20.0936 11.0402 19.837 11.0504 19.5778 11.0607C18.6657 11.0679 17.7531 11.0828 16.8462 11.1495C16.4448 11.1787 16.0404 11.2244 15.6508 11.2973C15.4019 11.3461 15.1473 11.3892 14.9066 11.4544C14.7839 11.4831 14.6612 11.5103 14.537 11.5329C14.4215 11.5678 14.3045 11.5991 14.1834 11.6258C14.0335 11.6576 13.9883 11.5406 14.0648 11.3697C14.1377 11.2034 14.3553 10.9473 14.6535 10.8615C15.7134 10.5243 16.7738 10.3508 17.8558 10.3447C18.5009 10.3365 19.1625 10.24 19.8175 10.201C20.5371 10.162 21.2577 10.1404 21.9773 10.1235L23.3061 10.1091C23.9764 10.0999 24.6503 10.1096 25.315 10.0814C25.8314 10.0583 26.3369 9.97873 26.8487 9.95307C26.9616 9.9464 27.0719 9.93151 27.1859 9.92997C27.6073 9.91355 27.7428 10.0126 27.8321 10.2323C27.8521 10.2821 27.8793 10.3298 27.8911 10.377C27.9106 10.4561 27.8777 10.5284 27.8013 10.5993C27.7253 10.6691 27.6062 10.7461 27.4538 10.7712C27.0006 10.8641 26.5356 10.9493 26.0634 10.9904C25.5906 11.0253 25.1113 11.0376 24.6314 11.0504C23.9174 11.0592 23.2004 11.0684 22.4849 11.0776L22.4828 11.054Z" fill="#2458A4"/>
<path id="Fill 18" fill-rule="evenodd" clip-rule="evenodd" d="M21.8174 21.5208C21.1912 21.4736 20.565 21.4207 19.9383 21.3889C19.7099 21.3776 19.4815 21.3925 19.2531 21.3786C18.4483 21.3386 17.641 21.2949 16.8362 21.3037C16.4779 21.2944 16.1217 21.3278 15.7691 21.3524C15.3174 21.3991 14.8709 21.47 14.4146 21.4725C14.2719 21.4705 14.2663 21.3437 14.3638 21.1949C14.4608 21.0475 14.663 20.8669 14.9284 20.8053C15.8661 20.6144 16.811 20.4999 17.7647 20.5656C18.3344 20.5949 18.9226 20.5363 19.5026 20.5343C20.1395 20.5327 20.777 20.5481 21.4124 20.5682L22.5857 20.6164C23.1775 20.6385 23.7719 20.678 24.3591 20.6759C24.8154 20.6739 25.2639 20.6118 25.7146 20.601C25.8137 20.5969 25.9107 20.5846 26.0102 20.5861C26.3803 20.5795 26.4932 20.6759 26.5723 20.8982C26.5897 20.9475 26.6133 20.9962 26.6236 21.0429C26.641 21.1225 26.6118 21.1943 26.5435 21.2641C26.4753 21.3334 26.368 21.4089 26.2299 21.4325C25.8229 21.5172 25.4066 21.5885 24.9858 21.6127C24.5659 21.6296 24.1404 21.6255 23.7154 21.6157C23.0851 21.5921 22.4508 21.568 21.8179 21.5444L21.8174 21.5208Z" fill="#2458A4"/>
<path id="Fill 20" fill-rule="evenodd" clip-rule="evenodd" d="M21.6769 15.8004C21.1765 15.7834 20.675 15.7583 20.1751 15.7557C19.9919 15.7537 19.8112 15.7778 19.629 15.7757C18.9849 15.7645 18.3402 15.7578 17.6971 15.7819C17.4107 15.785 17.1263 15.8168 16.8461 15.8486C16.4858 15.8953 16.1296 15.9641 15.7606 15.9497C15.6456 15.9441 15.6384 15.8173 15.7123 15.6716C15.7862 15.5278 15.9407 15.3544 16.1486 15.3C16.8861 15.1229 17.6304 14.9822 18.3941 15.0187C18.8499 15.031 19.3149 14.9484 19.7768 14.9212C20.2845 14.8929 20.7926 14.8791 21.3002 14.8678L22.2379 14.8601C22.7107 14.8529 23.1864 14.8647 23.6545 14.8354C24.0184 14.8124 24.3741 14.7313 24.735 14.7035C24.8145 14.6964 24.892 14.6799 24.9721 14.6784C25.2693 14.6604 25.3652 14.7564 25.4309 14.9761C25.4463 15.0254 25.4658 15.0731 25.4746 15.1193C25.49 15.1988 25.4679 15.2712 25.415 15.3426C25.3622 15.4134 25.2795 15.4914 25.1718 15.5181C24.8535 15.6136 24.5271 15.7018 24.1955 15.7439C23.8634 15.7783 23.5267 15.7932 23.189 15.8035C22.687 15.8106 22.182 15.8173 21.6785 15.824L21.6769 15.8004Z" fill="#2458A4"/>
<path id="Fill 22" fill-rule="evenodd" clip-rule="evenodd" d="M20.1081 25.9468C19.7956 25.9252 19.482 25.9037 19.1709 25.8821C19.0575 25.877 18.9451 25.8929 18.8311 25.8857C18.4303 25.8611 18.0294 25.8354 17.6291 25.8328C17.4515 25.8267 17.2744 25.841 17.1004 25.8595C16.8771 25.8847 16.6575 25.9298 16.4275 25.9026C16.3552 25.8934 16.3454 25.7856 16.387 25.6645C16.428 25.5449 16.5204 25.4017 16.6513 25.3647C17.1132 25.2421 17.5793 25.1487 18.0561 25.2036C18.341 25.2292 18.6305 25.1702 18.9174 25.1584C19.233 25.1466 19.5492 25.1451 19.8643 25.143C20.0589 25.1445 20.2539 25.1461 20.4469 25.1476C20.74 25.1461 21.0351 25.1569 21.3251 25.1307C21.5504 25.1102 21.768 25.0378 21.9898 25.0085C22.0385 25.0013 22.0857 24.987 22.135 24.9839C22.3172 24.9623 22.3798 25.0424 22.4296 25.2287C22.4409 25.2708 22.4553 25.3108 22.4625 25.3509C22.4871 25.4725 22.4209 25.6321 22.289 25.6984C22.0929 25.7877 21.8902 25.8667 21.6833 25.9057C21.476 25.9386 21.2645 25.9524 21.0536 25.9606C20.7395 25.9735 20.4238 25.9653 20.1092 25.9673L20.1081 25.9468Z" fill="#2458A4"/>
<path id="Fill 24" fill-rule="evenodd" clip-rule="evenodd" d="M38.3235 15.2125C38.0612 14.9748 37.6757 14.8829 37.2918 14.9959C37.1548 15.0364 37.0393 15.1221 36.9228 15.2032C36.505 15.4829 36.2617 16.0747 36.4203 16.6044C36.4855 16.8359 36.6564 17.0284 36.8622 17.1567C37.1363 17.3256 37.455 17.3512 37.7702 17.4467C37.8677 17.4759 37.8815 17.7018 37.7722 17.922C37.6685 18.1452 37.4006 18.3459 37.1106 18.2741C36.6128 18.1509 36.1272 17.8506 35.8239 17.382C35.5123 16.9129 35.4579 16.3319 35.5888 15.8474C35.7423 15.2658 36.0646 14.6961 36.5948 14.3825C37.1661 14.0427 37.8969 13.996 38.4898 14.2927C38.8465 14.4769 39.138 14.7603 39.3295 15.0918C39.6251 15.5943 39.6939 16.2056 39.5491 16.7584C39.4455 17.1906 39.1873 17.6274 38.7808 17.8881C38.6925 17.9446 38.6052 18.0015 38.5072 18.0405C38.1387 18.173 37.9975 18.1026 37.9118 17.8794C37.8923 17.8275 37.8687 17.7762 37.8574 17.7233C37.8235 17.5422 37.9354 17.3949 38.0915 17.3066C38.5698 17.0284 38.7572 16.6932 38.7572 16.181C38.75 15.8268 38.5909 15.4486 38.3106 15.2304L38.3235 15.2125Z" fill="#2458A4"/>
<path id="Fill 26" fill-rule="evenodd" clip-rule="evenodd" d="M38.9111 12.4397C37.7429 11.9788 36.3622 12.1831 35.3311 12.9627C34.9374 13.2291 34.6597 13.6248 34.3723 13.9964C33.8976 14.6842 33.6255 15.5157 33.6183 16.3584C33.6194 16.4637 33.6117 16.5699 33.6188 16.6751L33.6625 16.9892C33.6774 17.2028 33.7467 17.405 33.8067 17.6098C33.9206 18.0219 34.1188 18.4012 34.3821 18.7354C34.8337 19.3431 35.5277 19.7609 36.2534 19.9795C37.2025 20.2675 38.2059 20.1905 39.1693 20.0226C39.468 19.9703 39.546 20.2413 39.3484 20.5898C39.1595 20.945 38.6268 21.3448 37.9169 21.3705C36.6805 21.4105 35.4071 21.0646 34.3882 20.2839C33.8801 19.8979 33.4536 19.3934 33.1543 18.8293C33.0096 18.547 32.8751 18.2529 32.8038 17.9506L32.6837 17.4999C32.659 17.3465 32.6452 17.1904 32.6272 17.037C32.4594 15.5649 32.9095 14.0036 33.8745 12.8693C34.9333 11.6251 36.6338 10.943 38.2475 11.1673C39.236 11.2879 40.165 11.7576 40.8959 12.3976C41.9984 13.3877 42.6702 14.8181 42.7175 16.2892C42.7508 17.424 42.4131 18.6035 41.6376 19.4904C41.4697 19.6854 41.2957 19.8712 41.0925 20.035C40.3205 20.6201 39.9612 20.6155 39.6882 20.4261C39.6235 20.3794 39.5476 20.3368 39.5024 20.2829C39.3505 20.0904 39.621 19.8281 40.068 19.4914C41.4276 18.4982 42.0102 16.7265 41.421 15.1122C41.0186 13.9251 40.0721 12.8775 38.9034 12.4659L38.9111 12.4397Z" fill="#2458A4"/>
<path id="Fill 28" fill-rule="evenodd" clip-rule="evenodd" d="M36.771 23.0445C36.9193 22.9875 37.0718 22.987 37.2422 23.0625C37.3423 23.1497 37.4306 23.2011 37.505 23.3304C37.5804 23.4495 37.6266 23.6353 37.6543 23.8267L37.7549 24.706C37.8006 25.1155 37.8453 25.5272 37.9156 25.9049C37.9279 25.9932 37.9541 26.0605 38.0018 26.1436C38.0182 26.1703 38.0619 26.2114 38.0845 26.1867C38.1301 26.141 38.1599 26.0789 38.1943 26.0009C38.2148 25.9737 38.3139 25.6298 38.3786 25.3855C38.5176 24.862 38.6378 24.3277 38.7502 23.7913C38.86 23.2591 38.9544 22.7201 39.0366 22.1858C39.1413 21.4975 39.2162 20.8041 39.4605 20.1266C39.5416 19.911 39.6766 19.987 39.788 20.1964C39.8999 20.4063 40.0148 20.7615 39.9779 21.1583C39.8003 22.5585 39.6001 23.9725 39.1813 25.3706C39.0863 25.7027 38.9919 26.0338 38.8964 26.3679C38.8626 26.4849 38.8148 26.604 38.7753 26.7221C38.7265 26.8257 38.6793 26.9397 38.6254 27.029C38.5207 27.2292 38.3986 27.3154 38.2656 27.4514C38.2056 27.4678 38.1199 27.4632 38.0352 27.4432C37.9525 27.4298 37.8827 27.3996 37.8181 27.3616C37.6913 27.2815 37.5866 27.1712 37.4952 27.0192C37.409 26.8832 37.3418 26.7046 37.2853 26.5209C37.2612 26.4249 37.2319 26.3325 37.2129 26.2339C37.1909 26.1354 37.1698 26.0322 37.1631 25.9845C37.1211 25.7371 37.0903 25.4928 37.0625 25.25L36.9881 24.5294C36.9732 24.3728 36.9696 24.3056 36.9476 24.1804C36.9399 24.1424 36.9317 24.1018 36.9111 24.0675C36.8665 24.0053 36.8033 24.0705 36.7649 24.0988C36.7212 24.1357 36.6802 24.1788 36.6386 24.224L36.5765 24.2938L36.4908 24.398L36.2583 24.6962L35.6116 25.5338C35.3267 25.9024 35.0228 26.2226 34.7647 26.3576C34.6553 26.411 34.5553 26.4752 34.4136 26.4557C34.254 26.409 34.2319 26.2694 34.1939 26.1667C34.102 25.8824 34.12 25.4291 34.1965 24.9179L34.2781 24.3036L34.3381 23.7995L34.3782 23.3633C34.4429 22.8264 34.4937 22.7037 34.6969 22.5672C34.7405 22.5374 34.7801 22.4943 34.8201 22.4692C34.9417 22.3655 35.1814 22.6354 35.2015 23.0928C35.2266 23.4125 35.1989 23.72 35.1748 24.0264L35.126 24.4822L35.0983 24.708L35.0916 24.7614L35.0937 24.766L35.0973 24.7727C35.1178 24.803 35.1337 24.7701 35.1337 24.7701L35.1342 24.7691L35.1352 24.7717L35.1373 24.7727H35.1383L35.1861 24.7121L35.4083 24.4298L35.8661 23.855L36.0714 23.6101C36.1464 23.5188 36.2249 23.4402 36.3019 23.3556C36.4584 23.2 36.6196 23.0753 36.77 23.0214L36.771 23.0445Z" fill="#2458A4"/>
<path id="Fill 30" fill-rule="evenodd" clip-rule="evenodd" d="M32.1207 46.3776L27.7637 46.8056L26.1746 46.9806C24.3027 47.1526 22.4257 47.2927 20.5472 47.3918C19.7121 47.4272 18.8744 47.4631 18.0466 47.499C17.5143 47.5124 16.9815 47.5401 16.4483 47.5386C15.9145 47.5298 15.3812 47.479 14.8505 47.4349C14.5194 47.4031 14.5646 47.3687 14.8448 47.3004C15.1256 47.2347 15.6399 47.1079 16.2465 47.0186C18.4033 46.9067 20.5467 46.703 22.726 46.6126C24.0281 46.5454 25.3754 46.3663 26.7027 46.2226L31.0875 45.7468C31.9929 45.6539 32.8794 45.561 33.7699 45.4157C35.1213 45.1878 36.4784 44.9584 37.82 44.732C38.8655 44.5534 39.8905 44.3527 40.9407 44.2244C41.1721 44.1972 41.3995 44.171 41.6325 44.1438C42.5036 44.0766 42.7859 44.1464 42.9727 44.3563C43.0153 44.4046 43.0707 44.4523 43.0948 44.5C43.1764 44.6627 42.829 44.807 42.213 44.8768C40.3828 45.0877 38.4657 45.3936 36.5215 45.7298C35.0777 45.9757 33.6179 46.2349 32.1249 46.396L32.1207 46.3776Z" fill="#2458A4"/>
<path id="Fill 32" fill-rule="evenodd" clip-rule="evenodd" d="M7.37767 19.546C7.37151 17.2943 7.29657 15.0411 7.1041 12.8012C7.03275 11.9841 6.91419 11.1737 6.81051 10.3643C6.62214 8.93944 6.39015 7.51309 5.98416 6.16423C5.77988 5.49647 5.52581 4.83026 5.15883 4.31699C4.97457 4.06498 4.75438 3.88431 4.55369 3.83453C4.36994 3.79193 4.07225 3.8761 3.85309 4.03727C3.44402 4.33085 3.16531 4.89339 2.98003 5.46824C2.79114 6.05028 2.67463 6.66979 2.592 7.29136C2.56839 7.49256 2.54119 7.6917 2.52373 7.89444L2.50782 8.16544L2.50526 8.22806C2.50628 8.25065 2.54375 8.24141 2.56172 8.24551L2.69414 8.24757L2.82143 8.24808L3.10064 8.25578C3.93264 8.28657 4.7708 8.32917 5.62333 8.5509C6.17252 8.72131 5.97646 8.96305 5.51452 9.13551C5.05002 9.31772 4.28064 9.50557 3.3465 9.47016L2.64743 9.44347C2.43751 9.43423 2.22502 9.42807 2.02382 9.40446C1.92219 9.39368 1.83186 9.3711 1.74871 9.3403C1.71945 9.31413 1.68609 9.29052 1.6594 9.26229L1.60448 9.16323L1.55264 9.0693L1.53827 9.04364L1.53673 9.04004C1.35452 9.1894 1.48592 9.07905 1.44485 9.11139L1.44332 9.1042L1.44024 9.08829L1.42843 9.0267L1.38018 8.77879C1.3576 8.60685 1.29498 8.46622 1.30473 8.26707L1.36787 7.70248L1.41098 7.37912C1.53622 6.51581 1.69841 5.64173 2.0541 4.7584C2.23631 4.32007 2.46779 3.86892 2.85633 3.46344C3.05291 3.26583 3.28388 3.07387 3.56515 2.95017C3.70065 2.87832 3.8459 2.83315 3.99526 2.79927C4.13025 2.75616 4.32221 2.74179 4.49467 2.74384C4.86011 2.75616 5.18757 2.91168 5.43137 3.08875C5.68544 3.2684 5.84865 3.47832 6.00828 3.68363C6.30033 4.09988 6.49075 4.52487 6.65345 4.94882C7.02967 5.96406 7.2745 6.99264 7.4952 8.03097C7.70975 9.0693 7.88015 10.1164 8.00128 11.1578C8.26715 13.4485 8.38726 15.7443 8.43807 18.0381C8.46784 19.4501 8.46373 20.8626 8.44012 22.2725C8.40111 24.4092 8.28204 26.5526 8.12446 28.6688C8.00077 30.3138 7.89504 31.9321 7.65945 33.5607C7.60658 33.9189 7.56039 34.2716 7.49058 34.6319C7.22163 35.9669 6.99888 36.3708 6.63651 36.5587C6.55337 36.6018 6.46406 36.6639 6.38912 36.6783C6.13146 36.7234 6.13968 36.1665 6.30341 35.2262C6.76842 32.4202 7.02659 29.3971 7.197 26.3576C7.31607 24.0982 7.37767 21.8208 7.35046 19.5491L7.37767 19.546Z" fill="#2458A4"/>
<path id="Fill 34" fill-rule="evenodd" clip-rule="evenodd" d="M3.88213 54.5724C4.32456 55.0092 4.95126 55.2915 5.6185 55.2535C5.74014 55.2504 5.86076 55.235 5.9783 55.1996C6.09892 55.1765 6.21543 55.1395 6.33296 55.0985C7.1778 54.8531 7.91535 54.2059 8.50509 53.3919C8.76789 53.0336 8.99064 52.6394 9.20057 52.2432C9.45925 51.7284 9.72256 51.2028 10.1039 50.7383C10.223 50.5941 10.3374 50.6921 10.4011 50.9051C10.4617 51.1171 10.494 51.4481 10.3718 51.7602C10.1568 52.313 9.86627 52.8422 9.5578 53.3765C9.24111 53.9046 8.87208 54.4261 8.39012 54.8732C7.83734 55.4131 7.13365 55.9546 6.31192 56.1353C5.42038 56.3524 4.42054 56.203 3.66553 55.6774C3.19436 55.3664 2.83045 54.9199 2.58101 54.4338C2.19093 53.6926 2.13601 52.8396 2.21403 52.0733C2.27254 51.4712 2.36339 50.8851 2.54149 50.3272C2.57998 50.2045 2.61232 50.0824 2.658 49.9617C2.83661 49.5172 2.96647 49.4059 3.11532 49.3504C3.15124 49.3386 3.18769 49.3191 3.21746 49.3155C3.316 49.3022 3.33397 49.5142 3.30522 49.8668C3.17537 50.8933 2.96647 51.9147 3.09273 52.8422C3.14868 53.1737 3.21386 53.4961 3.34885 53.7897C3.48795 54.0776 3.67067 54.3388 3.89856 54.5534L3.88213 54.5724Z" fill="#2458A4"/>
<path id="Fill 36" fill-rule="evenodd" clip-rule="evenodd" d="M23.0087 57.1415C22.2388 57.1677 21.4684 57.2005 20.6985 57.2483C20.4178 57.2734 20.1391 57.2986 19.8583 57.3232C18.8688 57.3874 17.8756 57.4325 16.887 57.5213C16.4477 57.5573 16.0109 57.626 15.5792 57.6928C15.3026 57.7369 15.0285 57.8021 14.7493 57.8334C14.4696 57.8601 14.1893 57.8781 13.9045 57.8739C13.7269 57.8698 13.7274 57.739 13.8495 57.5701C13.9722 57.4048 14.2135 57.178 14.5291 57.0784C15.6624 56.8315 16.8136 56.7268 17.9777 56.678C18.6742 56.6529 19.3892 56.541 20.0975 56.4825C20.8766 56.4199 21.6568 56.3716 22.4375 56.3285L23.8792 56.2561C24.6081 56.2259 25.3395 56.1956 26.0626 56.1653C26.6257 56.1422 27.1785 56.0508 27.7451 56.0503C27.8683 56.0483 27.9941 56.0524 28.1203 56.0621C28.2384 56.0729 28.3354 56.0852 28.4165 56.1011C28.4981 56.1227 28.5653 56.1632 28.6172 56.194C28.7219 56.2608 28.7747 56.3306 28.8086 56.4194C28.824 56.4599 28.8466 56.4999 28.8522 56.5354C28.8712 56.6503 28.6654 56.7412 28.3528 56.8156C27.3946 57.0004 26.3711 57.004 25.3333 57.0568C24.5614 57.0917 23.7853 57.1271 23.0113 57.1626L23.0087 57.1415Z" fill="#2458A4"/>
<path id="Fill 38" fill-rule="evenodd" clip-rule="evenodd" d="M4.43601 35.0217C4.81685 32.9527 5.13302 30.8688 5.34705 28.7722C5.41737 28.0064 5.48563 27.2406 5.53747 26.4738C5.78179 23.774 5.91524 21.0599 5.93166 18.3432C5.9409 17.1375 5.88957 15.9257 5.82849 14.7308C5.73919 13.1962 5.63499 11.6579 5.59393 10.1181C5.58572 9.63822 5.75972 9.68544 5.97375 10.075C6.18624 10.4641 6.45776 11.196 6.55374 12.0844C6.64458 12.8713 6.70977 13.6601 6.77136 14.4501C6.80831 15.241 6.83192 16.0335 6.85297 16.826C6.85707 17.6195 6.86221 18.4135 6.85143 19.208C6.82217 20.002 6.79343 20.7976 6.76417 21.5962C6.69437 22.5488 6.66871 23.521 6.62303 24.4987C6.56143 25.4755 6.52756 26.4599 6.42337 27.431C6.20728 29.5662 5.93423 31.6973 5.55082 33.8088L5.19513 35.7572L4.76193 37.6891C4.56433 38.6689 4.28254 39.6318 4.02129 40.5967C3.88374 41.0771 3.77339 41.5647 3.61633 42.038C3.46389 42.5127 3.31196 42.9865 3.16004 43.4587C2.9301 44.1947 2.71452 44.9282 2.43788 45.6385C2.17611 46.354 1.92718 47.0731 1.65207 47.786C1.51195 48.0914 1.37388 48.3911 1.23273 48.6991C0.668657 49.8247 0.444874 50.1604 0.2098 50.3431C0.15642 50.3847 0.095342 50.4442 0.0542809 50.4632C-0.0827604 50.5279 0.0476085 50.0243 0.35608 49.1646C1.32512 46.643 2.23976 43.9622 3.01119 41.2224C3.2591 40.1943 3.55576 39.1765 3.78211 38.1402C3.98896 37.0999 4.24508 36.0687 4.41394 35.0206L4.43601 35.0217Z" fill="#2458A4"/>
</g>
</svg>
