<svg width="56" height="60" viewBox="0 0 56 60" fill="none" xmlns="http://www.w3.org/2000/svg">
<g id="Icon">
<path id="Fill 1" fill-rule="evenodd" clip-rule="evenodd" d="M29.4834 44.0672C29.2907 44.011 29.0965 43.9538 28.9064 43.8981C28.8381 43.8787 28.7662 43.8997 28.6995 43.874C28.4616 43.7868 28.2332 43.6708 28.0038 43.5831C27.9019 43.5442 27.7948 43.5437 27.6877 43.5521C27.5496 43.5626 27.3994 43.6424 27.287 43.4718C27.2193 43.3652 27.5533 42.0498 27.6887 42.0567C27.9434 42.0719 28.187 42.1638 28.4228 42.3848C28.5651 42.5172 28.7326 42.472 28.8875 42.514C29.056 42.5613 29.2283 42.6101 29.3989 42.6574C29.505 42.6868 29.6074 42.7104 29.7134 42.7272C29.8699 42.7471 30.0311 42.7839 30.1755 42.7466C30.2795 42.7167 30.3861 42.6033 30.4176 42.5208C30.4275 42.503 30.4312 42.4746 30.4422 42.4657C30.4386 42.4337 30.4706 42.5313 30.7127 42.8217L30.8791 43.0181C31.0713 43.2355 31.1679 43.4623 31.0603 43.6209C30.7625 44.0441 30.4081 44.1108 30.1151 44.1407C29.8956 44.1554 29.684 44.1244 29.4834 44.1018V44.0672Z" fill="#2458A4"/>
<path id="Fill 3" fill-rule="evenodd" clip-rule="evenodd" d="M12.7949 18.9721C13.4418 21.65 14.22 24.2959 15.1893 26.863C15.6697 28.1484 16.219 29.4033 16.8039 30.6383C17.4114 31.8601 18.0657 33.0573 18.806 34.1941C19.8851 35.8528 21.1831 37.354 22.6675 38.5943C23.9733 39.6896 25.4719 40.5418 27.0965 40.9965C28.7122 41.4607 30.4182 41.4932 31.9939 40.9288C33.5665 40.3612 34.938 39.2601 36.0916 37.9747C37.2505 36.6825 38.194 35.1834 39.0111 33.6223C40.465 30.8446 41.4716 27.8139 42.2723 24.7936C43.2674 20.9044 43.8964 16.8718 44.2283 12.9237C44.2939 12.3146 44.3049 12.0841 44.391 12.071C44.4687 12.0642 44.6294 12.343 44.7943 12.8912C44.9497 13.4315 45.1015 14.218 45.124 15.1574C45.1482 16.0952 45.092 17.191 44.9177 18.3609C44.2718 22.5006 43.2731 26.5852 41.7499 30.5217C40.9822 32.485 40.0749 34.412 38.915 36.2152C37.7477 37.9999 36.3726 39.7363 34.5227 40.9839C33.4332 41.7421 32.1399 42.2688 30.7925 42.4977C30.1183 42.6411 29.4284 42.6159 28.7437 42.6111C28.0663 42.5245 27.3811 42.452 26.7384 42.2473C26.0747 42.1039 25.4588 41.8156 24.8282 41.5741C24.2317 41.2612 23.6168 40.975 23.0697 40.5843C22.491 40.2373 21.988 39.7962 21.4624 39.3851C20.9825 38.9272 20.4721 38.4961 20.0442 37.9952C19.0497 36.9387 18.2032 35.7667 17.4366 34.558C16.6595 33.3529 15.9984 32.0859 15.3851 30.8021C14.167 28.2287 13.2166 25.5519 12.4137 22.8424C11.4313 19.5029 10.6999 16.1004 10.1328 12.6801L10.0062 11.9003L9.95898 11.5984C9.94166 11.5359 9.95216 11.4498 9.907 11.4078L9.69277 11.3175L9.30159 11.15C9.03537 11.0376 8.76811 10.9316 8.49979 10.8323C7.96158 10.6407 7.4197 10.4627 6.87047 10.3529C6.32491 10.25 5.76833 10.1691 5.23852 10.2248C4.7103 10.2668 4.19309 10.3965 3.78878 10.6963C2.9287 11.2298 2.54119 12.364 2.36057 13.432C2.19412 14.5262 2.28286 15.6688 2.51074 16.7778C2.92135 18.6969 3.67589 20.5321 4.61841 22.2449C5.5541 23.963 6.67829 25.5755 7.94793 27.052C8.51397 27.6952 9.0947 28.3006 9.729 28.8714C10.9041 29.9315 11.7747 30.4582 12.3791 30.7732C12.9913 31.0794 13.3373 31.2022 13.675 31.3666C13.8267 31.439 14.043 31.4558 14.1628 31.5167C14.2625 31.564 14.2641 31.6291 14.1502 31.7168C14.0373 31.8003 13.8057 31.9352 13.4576 31.9678C12.7603 32.076 11.6681 31.8239 10.5891 31.1382C8.96711 30.1384 7.64339 28.7947 6.4273 27.3607C5.2296 25.9094 4.16474 24.3305 3.26423 22.6356C2.37107 20.939 1.61496 19.1301 1.19542 17.1747C0.993262 16.196 0.870919 15.181 0.91345 14.1345C0.959657 13.0902 1.17021 12.008 1.7142 11.0009C2.11378 10.2069 2.87777 9.50229 3.73995 9.15994C4.60686 8.80814 5.49844 8.77296 6.30654 8.85067C7.11516 8.94308 7.87337 9.13946 8.5964 9.38888C8.95923 9.51069 9.31104 9.65194 9.65444 9.79634L10.1617 10.0158L11.0816 10.3928C11.1677 10.7037 11.2633 11.0192 11.3179 11.3553L11.4093 11.9219L11.5773 12.9342C11.6944 13.6079 11.8141 14.281 11.9464 14.9521C12.2079 16.2942 12.5009 17.6305 12.827 18.9574L12.7949 18.9721Z" fill="#2458A4"/>
<path id="Fill 5" fill-rule="evenodd" clip-rule="evenodd" d="M50.9343 23.628C51.8096 22.1799 52.5484 20.644 53.0782 19.053C53.263 18.4697 53.3906 17.8737 53.5135 17.2846C53.7345 16.2454 53.8311 15.1869 53.7162 14.1624C53.6673 13.6463 53.5187 13.158 53.3344 12.6833C53.2142 12.4748 53.1128 12.2459 52.9632 12.0605C52.7999 11.8904 52.6565 11.6925 52.4465 11.5759C52.1162 11.3086 51.6788 11.201 51.2478 11.1159C50.7999 11.0766 50.3409 11.0776 49.8815 11.159C49.2918 11.2441 48.7085 11.4331 48.1309 11.6347C47.841 11.7324 47.5533 11.8442 47.2614 11.9492C46.9684 12.0563 46.6848 12.1734 46.3451 12.2102C45.8662 12.2149 45.9376 12.0873 46.1198 11.6914C46.29 11.2635 46.7484 10.73 47.4782 10.4643C48.1193 10.2275 48.793 10.0385 49.4992 9.92348C50.2002 9.80376 50.9605 9.78591 51.7282 9.95656C52.112 10.0238 52.4917 10.1976 52.8513 10.3808C53.0225 10.4953 53.1916 10.614 53.357 10.7347C53.5182 10.8602 53.6432 11.0246 53.7834 11.1711C53.8495 11.2472 53.922 11.3202 53.9803 11.4005L54.1315 11.6536C54.2302 11.8216 54.3405 11.9891 54.4219 12.1598C54.5537 12.5037 54.707 12.8434 54.7737 13.2005C54.9816 14.0427 55.0756 14.9086 55.0404 15.7608C55.0168 16.6135 54.9091 17.4594 54.7075 18.267C54.2764 20.0491 53.5387 21.7083 52.6986 23.2899C52.1798 24.2639 51.5885 25.1949 50.9689 26.1022C50.0406 27.4858 48.9563 28.7654 47.8053 29.9615C46.9022 30.8825 45.9739 31.7746 44.8014 32.4557C44.5257 32.5833 44.281 32.7487 43.9702 32.8363C43.6976 32.9387 43.4467 32.9807 43.233 32.9981C43.0261 33.0311 42.8397 32.9939 42.6974 32.9624C42.4107 32.9093 42.2616 32.7298 42.188 32.5418C42.1539 32.4525 42.1103 32.3611 42.1082 32.2792C42.1046 32.1411 42.2259 32.0403 42.3913 31.9721C42.5551 31.9154 42.7798 31.8513 43.0676 31.7689C43.496 31.6565 43.9355 31.4113 44.3608 31.1325C44.7914 30.8631 45.2036 30.5129 45.6142 30.1637C46.4275 29.4459 47.2104 28.6299 47.9471 27.7667C48.4953 27.124 49.0041 26.444 49.5223 25.7667C50.0065 25.0657 50.4848 24.3563 50.9033 23.6128L50.9343 23.628Z" fill="#2458A4"/>
<path id="Fill 8" fill-rule="evenodd" clip-rule="evenodd" d="M30.7345 43.1067L30.755 43.0348C30.755 43.0175 30.786 42.945 30.755 42.9734C30.7403 42.9776 30.723 42.9823 30.702 42.9833L30.6694 42.986C30.6458 42.9875 30.6857 42.9802 30.5639 42.998C30.2179 43.0443 29.8865 43.0584 29.5578 43.0642C28.9031 43.0716 28.2646 43.0337 27.6292 42.9776L27.3625 42.9529L27.3746 43.1619L27.4539 43.8933L27.5615 44.6877C27.6424 45.2181 27.7216 45.7489 27.8151 46.2798C27.9947 47.342 28.1974 48.4037 28.4111 49.4639C28.6006 50.4048 28.8301 51.3442 29.0606 52.2699C29.3504 53.4681 29.7274 54.6238 29.801 55.9229C29.7941 56.4101 29.4964 56.2568 29.1966 55.9943C28.8784 55.7228 28.5119 55.2224 28.3549 54.5372C27.8067 52.1176 27.2559 49.6623 26.8936 47.1488C26.7854 46.3964 26.6479 45.6339 26.5145 44.8631C26.4557 44.474 26.3801 44.0913 26.3323 43.6964L26.2929 43.4018L26.2682 43.2139L26.2425 42.9755L26.1616 42.0161C26.1559 41.918 26.1396 41.8077 26.1427 41.72L27.133 41.8408L27.9191 41.9138C28.2998 41.9421 28.6815 41.9673 29.0601 41.9726C29.4371 41.9778 29.8162 41.9773 30.179 41.9405C30.2714 41.9353 30.3607 41.9237 30.4473 41.9096C30.5781 41.8865 30.7372 41.8765 30.9052 41.783C31.0753 41.7011 31.2281 41.6433 31.4103 41.5441C31.5805 41.4506 31.7915 41.3446 31.9249 41.2632L31.9575 41.3351C31.9659 41.364 31.9874 41.365 31.9753 41.4386C31.8734 42.6867 31.7716 43.9358 31.6692 45.1829C31.5442 46.7597 31.4025 48.3433 31.3121 49.9107C31.2413 51.1294 31.2381 52.3287 31.2066 53.5359C31.1992 53.8021 31.2029 54.0625 31.1903 54.3303C31.142 55.3227 31.0454 55.633 30.7324 55.8257C30.661 55.8693 30.5891 55.9286 30.5187 55.9523C30.2819 56.0316 30.1186 55.6146 30.1003 54.8848C30.0446 52.7188 30.169 50.4468 30.3218 48.168C30.45 46.4846 30.5786 44.7933 30.7067 43.1062L30.7345 43.1067Z" fill="#2458A4"/>
<path id="Fill 13" fill-rule="evenodd" clip-rule="evenodd" d="M25.0169 59.8086C25.5236 60.0847 18.874 59.8584 19.8884 58.9968C21.9305 57.2635 24.9591 57.9046 25.0169 57.6074C25.0169 57.6074 24.6635 59.1512 25.0169 59.8086Z" fill="#2458A4"/>
<path id="Fill 15" fill-rule="evenodd" clip-rule="evenodd" d="M27.9369 17.6326C27.9648 17.3386 28.2315 17.1328 28.6421 17.1265C28.7723 17.1328 28.9519 17.3979 28.985 17.4268C29.0065 17.5418 29.016 17.7041 29.0113 17.8568C28.9981 17.9241 28.6138 19.3896 28.43 19.9467C28.3917 20.0653 28.3486 20.185 28.2956 20.309L28.2509 20.4093C28.2252 20.4618 28.1995 20.5116 28.1722 20.5594C28.117 20.656 28.0619 20.7532 27.9958 20.8403C27.8682 21.0204 27.7117 21.1696 27.5242 21.2725C27.3336 21.3796 27.1273 21.3917 26.9067 21.3975L26.6211 21.377C26.379 21.3649 26.1879 21.3628 25.9679 21.3639L25.6481 21.3707L25.5137 21.3759C25.5106 21.3765 25.51 21.3775 25.51 21.3775C25.5053 21.3817 25.5074 21.3859 25.5106 21.388L25.5132 21.3891C25.5132 21.3891 25.4848 21.3828 25.4486 21.3912C25.4181 21.3985 25.4076 21.4153 25.4097 21.4347C25.4108 21.4442 25.4145 21.4547 25.4208 21.4652L25.4313 21.4809C25.4381 21.4878 25.4271 21.482 25.4775 21.5198C25.771 21.7435 26.0876 21.9498 26.4037 22.1273C26.5014 22.1856 26.6148 22.2481 26.7245 22.3032C26.8474 22.3489 26.9766 22.3883 27.0842 22.4471C27.1283 22.4686 27.2087 22.5348 27.279 22.6267C27.3352 22.6886 27.4245 22.8614 27.4449 23.0478C27.4738 23.2421 27.4292 23.4936 27.3646 23.7577C27.3336 23.8884 27.2916 24.0297 27.2591 24.1468L27.194 24.3673C27.0149 24.9512 26.8127 25.5114 26.7529 25.6354C26.6799 25.7892 26.608 25.9404 26.5366 26.0906L26.442 26.3033C26.4279 26.3342 26.4153 26.3679 26.41 26.3705C26.4016 26.3673 26.4289 26.3721 26.3906 26.3631L26.2614 26.3374C26.1748 26.3211 26.0876 26.3075 26.0005 26.2964C25.8939 26.2875 25.887 26.2665 25.8235 26.2634C25.7741 26.2576 25.7174 26.2628 25.6744 26.2691C25.6476 26.2487 25.6486 26.297 25.6387 26.2408C25.6313 26.2256 25.6182 26.2135 25.603 26.2056C25.5951 26.2019 25.5867 26.1988 25.5778 26.1972C25.3562 26.0076 26.0698 26.6199 25.08 25.7724L25.081 25.7719L25.0821 25.7714L25.0842 25.7687L25.1215 25.7341C25.3289 25.5409 25.4617 25.4652 25.6203 25.3534L26.0724 25.0662C26.158 25.0147 26.2315 24.9354 26.3381 24.9265C26.5833 24.9055 26.7408 24.7627 26.9193 24.6456C27.1667 24.4833 27.4187 24.329 27.6833 24.1951C27.8146 24.1289 27.9742 24.1069 28.1254 24.0738C28.263 24.0428 28.315 24.2429 28.2898 24.2859C28.2168 24.4114 28.3565 24.4256 28.4127 24.4844C28.4316 24.5043 28.4562 24.5306 28.4636 24.5521C28.4751 24.5968 27.3126 25.8412 27.1766 25.9504C27.1682 25.9572 27.0464 26.0581 26.8647 26.2077C26.6946 26.3521 26.4326 26.5742 26.2787 26.7422L26.2635 26.7617L26.2551 26.7711L26.253 26.7737L26.2215 26.748L26.2021 26.7328L26.1926 26.7249C26.1312 26.674 26.2672 26.7832 26.2451 26.7827C26.1464 26.8998 25.9768 27.0053 25.8167 27.0394C25.761 27.0478 25.7804 27.0557 25.6408 27.0583C25.5284 27.0578 25.3562 27.0258 25.2008 26.9155C24.8684 26.705 24.8589 26.2529 24.8689 26.35C24.8652 26.3075 24.8642 26.2634 24.8658 26.2203C24.8736 26.1064 24.8768 26.1195 24.8805 26.0875L24.902 25.9767C24.9251 25.8832 24.9477 25.7903 24.9697 25.6994C25.0123 25.5419 25.0532 25.3907 25.0894 25.2557C25.1593 24.9948 25.2128 24.7958 25.2312 24.7265C25.2638 24.5842 25.3383 24.456 25.4003 24.3248C25.4076 24.309 25.4444 24.1798 25.4927 23.9961C25.5158 23.9047 25.5426 23.7997 25.5709 23.6873C25.5909 23.6101 25.5814 23.6301 25.5825 23.6154C25.5804 23.6091 25.5778 23.6054 25.5751 23.6017C25.5531 23.5687 25.5064 23.608 25.5169 23.6033C25.5358 23.6133 25.4738 23.5744 25.4281 23.5461L25.289 23.4605L25.0159 23.2851C24.8385 23.1638 24.6704 23.0289 24.5302 22.8572C24.5166 22.8404 24.5014 22.8246 24.4856 22.8099C24.4541 22.7852 24.4252 22.7627 24.3958 22.7396L24.2089 22.602C23.708 22.2334 23.227 21.8018 23.0317 21.4043C22.935 21.2053 22.8972 21.0268 22.9014 20.8419C22.8988 20.749 22.9287 20.6429 22.9681 20.5316C23.0154 20.4345 23.0721 20.3594 23.1314 20.2927L23.248 20.2045C23.5426 19.9351 24.127 19.7755 24.7833 19.7219C24.8994 19.7093 25.0259 19.723 25.1435 19.7219C25.2753 19.724 25.4082 19.7256 25.5316 19.7277C25.7484 19.7162 25.9642 19.7162 26.1811 19.7198L26.5066 19.7324L26.6657 19.7414L26.6978 19.7461C26.7445 19.7634 26.7928 19.7456 26.8127 19.6988C26.8269 19.6741 26.8285 19.6684 26.8458 19.6258C26.8842 19.5434 26.9204 19.4547 26.954 19.3617C27.0181 19.21 27.4791 18.414 27.5416 18.1892C27.5752 18.0674 27.9238 17.7534 27.9369 17.6326Z" fill="#2458A4"/>
<path id="Fill 17" fill-rule="evenodd" clip-rule="evenodd" d="M26.3025 27.3095C26.1786 27.4172 25.7359 27.769 25.3889 27.9065C25.0313 28.0473 24.6905 27.9984 24.4112 27.7569C24.1822 27.5227 24.1218 27.163 24.1833 26.7304C24.2552 26.2268 24.3098 26.0982 24.3734 25.8398C24.5025 25.3741 24.6511 24.9262 24.8081 24.482L25.0507 23.8198C25.1636 23.5206 25.1405 23.593 25.1725 23.5174C25.1625 23.4896 25.1211 23.4738 25.0932 23.4528L24.7157 23.2412C24.0042 22.8401 23.2602 22.3633 22.7157 21.6502C22.6416 21.5499 22.5687 21.4575 22.5035 21.3436C22.3922 21.174 22.3145 21.0112 22.2326 20.8416C22.2111 20.713 22.1638 20.5822 22.1638 20.4583C22.1712 20.3307 22.2421 20.1968 22.3329 20.1086C22.5104 19.9201 22.8044 19.8219 23.1016 19.7615C23.2749 19.7253 23.3326 19.7227 23.4377 19.7085L23.7217 19.6812C23.9097 19.6665 24.0951 19.6581 24.2794 19.6539C24.649 19.6455 25.0145 19.6518 25.3799 19.6686L25.9292 19.7032L26.0631 19.7148L26.1129 19.7211L26.2153 19.7368L26.2978 19.5898L26.4994 19.2044L26.91 18.4367C27.1883 17.9258 27.4692 17.4181 27.7785 16.9145C27.8641 16.7743 27.9376 16.6578 28.0505 16.4976C28.1733 16.3154 28.3209 16.1505 28.511 16.0335C28.8397 15.9153 29.1804 16.0865 29.4304 16.3249C29.5622 16.4624 29.621 16.5365 29.7019 16.6473C29.7817 16.7491 29.8431 16.8515 29.914 16.9539C30.1755 17.3645 30.4002 17.7762 30.6276 18.181L31.17 19.1277L31.4493 19.5919L31.4997 19.6738L31.5307 19.72C31.5512 19.7494 31.5696 19.7841 31.5916 19.8082L31.715 19.7694L31.9576 19.7069C32.1723 19.6544 32.3897 19.6092 32.6108 19.5746C33.0529 19.5079 33.506 19.4601 34.0064 19.5599C34.3089 19.6339 34.4176 19.8014 34.3551 19.8597C34.2958 19.9348 34.1267 19.9626 33.9293 20.0414C33.5276 20.1931 32.8791 20.4809 32.0369 20.7035C31.7869 20.766 31.4399 20.8778 31.1442 20.9692L30.5688 20.0241L30.2521 19.4711L29.6535 18.3685C29.4582 18.0072 29.2634 17.646 29.0602 17.333C29.0103 17.2506 28.9589 17.1839 28.9079 17.1146C28.8827 17.0763 28.858 17.0516 28.8344 17.0243C28.8297 17.0169 28.8318 17.0175 28.8297 17.0154C28.826 17.007 28.8166 16.9964 28.8045 16.9975C28.7971 16.9975 28.7929 16.9975 28.7446 17.0631C28.6533 17.1986 28.5619 17.3388 28.4721 17.4858C28.2925 17.7783 28.1151 18.0797 27.9413 18.3853L27.423 19.3078L27.1668 19.7731L27.0266 20.0319L26.8102 20.4494C26.7777 20.5113 26.7451 20.5738 26.711 20.6384L26.2479 20.5764L25.883 20.5381C25.7128 20.5224 25.5406 20.5103 25.3678 20.5019C25.0223 20.4856 24.6737 20.4819 24.3271 20.493C24.1544 20.4982 23.9822 20.5082 23.812 20.5234L23.5605 20.5507L23.3584 20.5817C23.3022 20.5932 23.2439 20.6053 23.1951 20.6363C23.1268 20.6678 23.1667 20.7403 23.1935 20.7854C23.2024 20.8043 23.2124 20.8227 23.224 20.8406L23.2723 20.9167C23.3358 21.0138 23.4114 21.1036 23.4807 21.1971C23.6361 21.3735 23.7984 21.5457 23.9837 21.6996C24.2699 21.9458 24.5902 22.1622 24.9294 22.3628L25.4545 22.6594C25.559 22.713 25.7317 22.818 25.8604 22.8999C25.9838 22.9923 26.1282 23.0847 26.229 23.1903L25.9318 23.9516L25.7533 24.4305C25.6367 24.7503 25.5248 25.0716 25.4209 25.394C25.3174 25.7159 25.2203 26.0399 25.1436 26.3602L25.1011 26.5461L25.0806 26.6584C25.0712 26.7335 25.0596 26.8144 25.0854 26.89C25.1232 26.963 25.2172 26.9708 25.2854 26.9409C25.3568 26.9157 25.4225 26.8748 25.4876 26.8291C25.5269 26.8049 25.6734 26.6842 25.7953 26.5802C25.9181 26.4731 26.04 26.3628 26.1602 26.2483C26.6433 25.7926 27.1111 25.3058 27.5784 24.8201L28.2385 24.1328L28.6317 24.4541L28.9772 24.7261L29.516 25.1352C29.8783 25.403 30.2464 25.6624 30.6223 25.906C30.9977 26.1496 31.3816 26.3786 31.7743 26.5707C31.9707 26.6679 32.1702 26.7524 32.3682 26.8181C32.4674 26.8522 32.5667 26.879 32.6622 26.8958C32.7452 26.9131 32.7951 26.9157 32.8628 26.912C32.918 26.9084 32.9731 26.8937 33.0198 26.8653C33.0639 26.8286 33.0713 26.7676 33.0834 26.7162C33.0891 26.66 33.0918 26.6085 33.0881 26.5534C33.086 26.4678 33.075 26.3786 33.0639 26.2903C33.0098 25.9343 32.8991 25.5778 32.7583 25.2355C32.6192 24.8921 32.4407 24.5634 32.2453 24.2462C32.1487 24.0866 32.0442 23.9322 31.9345 23.7805L31.4477 23.0889C31.5244 22.8737 31.7339 22.6552 31.9088 22.462C32.0132 22.3496 32.0616 22.3097 32.1351 22.2388C32.2065 22.1779 32.2763 22.1144 32.3519 22.0577C32.9106 21.6266 33.3653 21.4675 33.6814 21.4008C34.0022 21.3383 34.2007 21.3751 34.3625 21.4685C34.436 21.5116 34.5268 21.551 34.5693 21.5988C34.7148 21.7825 34.2118 21.9275 33.4798 22.3418C33.2083 22.4982 32.9552 22.6888 32.7263 22.9031L32.6428 22.986L32.6034 23.0254L32.5919 23.0406C32.5751 23.0622 32.5693 23.0737 32.562 23.0868C32.5357 23.1126 32.562 23.1367 32.5877 23.1551C32.5693 23.1126 32.7237 23.3368 32.825 23.4812C32.9321 23.6392 33.033 23.8036 33.1317 23.9695C33.3244 24.3045 33.4945 24.6579 33.6378 25.0286C33.7786 25.4019 33.8894 25.792 33.9461 26.2189C33.9545 26.3308 33.9702 26.4347 33.9692 26.555C33.9812 26.7535 33.9408 26.9168 33.9093 27.0921C33.8311 27.4324 33.5512 27.6703 33.2236 27.7558C32.8933 27.8441 32.4575 27.7606 32.2942 27.7123C32.0736 27.655 31.8783 27.5799 31.6893 27.4996C31.3138 27.3379 30.9694 27.1525 30.6365 26.9561C30.145 26.6647 29.6777 26.3513 29.2225 26.0252C28.8108 25.7343 28.1366 25.2092 28.3225 25.3468L28.3156 25.3505L28.3135 25.3515L28.2757 25.3904L28.1319 25.54L27.5517 26.1396C27.1589 26.5387 26.7667 26.9378 26.3193 27.3248L26.3025 27.3095Z" fill="#2458A4"/>
<path id="Fill 19" fill-rule="evenodd" clip-rule="evenodd" d="M44.0356 40.1347C44.0225 40.1126 44.0346 40.0906 44.0624 40.0669C44.0708 40.0591 44.1018 40.0538 44.1076 40.0596C44.1186 40.0711 44.1291 40.0827 44.1375 40.0948C44.1427 40.1021 44.1826 40.2276 44.1973 40.2701C44.2115 40.3111 44.2215 40.3536 44.2299 40.3956C44.2472 40.4817 44.2656 40.5673 44.2835 40.6529C44.2871 40.6723 44.2898 40.6918 44.2908 40.7112C44.295 40.7789 44.3076 40.844 44.3228 40.9092C44.3255 40.9202 44.327 40.9312 44.3339 40.9412C44.3449 40.9569 44.3806 41.1344 44.3816 41.1586C44.3843 41.2174 44.39 41.2757 44.3948 41.3345C44.3953 41.3423 44.3984 41.3507 44.3948 41.3597C44.3853 41.3796 44.3911 41.3964 44.3937 41.4148C44.3969 41.439 44.4 41.4642 44.4005 41.4899C44.4011 41.502 44.3963 41.5156 44.3932 41.5287C44.39 41.5403 44.3696 41.5382 44.3669 41.535C44.3585 41.5251 44.3517 41.5361 44.3438 41.5387C44.3412 41.5392 44.3375 41.5408 44.3354 41.5403C44.3307 41.5403 44.2688 41.4059 44.2656 41.3907C44.2651 41.387 44.2126 41.1832 44.2052 41.1607C44.2015 41.1486 44.2021 41.1355 44.2015 41.1229C44.201 41.1171 44.1564 40.9548 44.1553 40.948C44.1496 40.9139 44.1375 40.8808 44.1422 40.8446C44.1433 40.8372 44.1412 40.8309 44.1391 40.8236C44.1254 40.7658 44.1175 40.7059 44.1086 40.6471C44.1039 40.6167 44.096 40.5873 44.0897 40.5574C44.0886 40.5521 44.0897 40.5463 44.0892 40.5405C44.0886 40.5337 44.0886 40.5269 44.0871 40.5195C44.0713 40.4492 44.0629 40.3767 44.043 40.3074C44.0382 40.2911 44.0361 40.2108 44.0309 40.1919C44.0272 40.1819 44.0409 40.1431 44.0356 40.1347Z" fill="#2458A4"/>
<path id="Fill 21" fill-rule="evenodd" clip-rule="evenodd" d="M43.5555 40.9836C43.533 40.9972 43.5099 40.9852 43.4852 40.9573C43.4778 40.9489 43.4726 40.918 43.4789 40.9122C43.4904 40.9012 43.502 40.8907 43.5151 40.8823C43.523 40.877 43.6532 40.836 43.6973 40.8208C43.7404 40.8061 43.784 40.7961 43.8281 40.7872C43.9168 40.7694 44.0061 40.7499 44.0953 40.7316C44.1148 40.7274 44.1352 40.7247 44.1557 40.7237C44.2255 40.7195 44.2933 40.7064 44.361 40.6901C44.3726 40.6874 44.3841 40.6859 44.3941 40.679C44.4104 40.6675 44.5952 40.6307 44.6199 40.6297C44.6813 40.6265 44.7417 40.6202 44.8026 40.6155C44.811 40.6145 44.8199 40.6113 44.8283 40.615C44.8488 40.6239 44.8672 40.6181 44.8856 40.6155C44.9113 40.6118 44.937 40.6087 44.9633 40.6082C44.9764 40.6076 44.9901 40.6118 45.0037 40.6155C45.0163 40.6187 45.0137 40.6386 45.0105 40.6418C45 40.6496 45.0111 40.657 45.0137 40.6649C45.0147 40.667 45.0158 40.6706 45.0158 40.6727C45.0158 40.6775 44.8761 40.7405 44.8598 40.7436C44.8562 40.7442 44.6446 40.7982 44.6209 40.8061C44.6083 40.8098 44.5947 40.8093 44.5821 40.8103C44.5758 40.8103 44.4072 40.8565 44.4004 40.8576C44.3647 40.8633 44.33 40.876 44.2928 40.8718C44.2854 40.8712 44.2781 40.8733 44.2712 40.8744C44.2108 40.8891 44.1489 40.8975 44.088 40.9069C44.0565 40.9122 44.0255 40.9201 43.9945 40.9264C43.9887 40.9274 43.983 40.9269 43.9772 40.9274C43.9698 40.9279 43.9625 40.9274 43.9557 40.929C43.8821 40.9458 43.8071 40.9542 43.7346 40.9752C43.7183 40.9799 43.6343 40.9825 43.6154 40.9883C43.6044 40.9915 43.565 40.9783 43.5555 40.9836Z" fill="#2458A4"/>
<path id="Fill 23" fill-rule="evenodd" clip-rule="evenodd" d="M43.6844 40.4539C43.6613 40.4492 43.655 40.425 43.6592 40.3893C43.6602 40.3783 43.6781 40.3531 43.686 40.3525C43.7007 40.3525 43.7159 40.3525 43.729 40.3546C43.7379 40.3557 43.8466 40.4108 43.8844 40.4287C43.9207 40.4455 43.9548 40.467 43.9879 40.4891C44.0556 40.5337 44.1239 40.5773 44.1916 40.6219C44.2063 40.6319 44.2205 40.6429 44.2341 40.6555C44.2803 40.6975 44.3313 40.7322 44.3843 40.7642C44.3932 40.77 44.4011 40.7763 44.4121 40.7779C44.43 40.7805 44.5697 40.8734 44.5859 40.8886C44.6253 40.9259 44.6673 40.9606 44.7083 40.9968C44.7141 41.0015 44.7219 41.0047 44.7246 41.0131C44.7309 41.033 44.7461 41.0404 44.7592 41.0504C44.7781 41.0645 44.796 41.0792 44.8128 41.0955C44.8212 41.1034 44.8264 41.116 44.8327 41.127C44.838 41.137 44.8227 41.1501 44.8185 41.1501C44.8065 41.1496 44.8086 41.1617 44.8049 41.169C44.8038 41.1717 44.8023 41.1748 44.8002 41.1759C44.797 41.1795 44.6673 41.1344 44.6552 41.126C44.6526 41.1239 44.4846 41.0257 44.4646 41.0162C44.4541 41.011 44.4463 41.0015 44.4379 40.9937C44.4337 40.99 44.2977 40.9138 44.2929 40.9107C44.2667 40.8913 44.2373 40.8781 44.2168 40.8508C44.2126 40.8456 44.2068 40.8424 44.2016 40.8388C44.1543 40.8104 44.1107 40.7763 44.0661 40.7432C44.043 40.7269 44.0183 40.7127 43.9952 40.697C43.9905 40.6944 43.9873 40.6896 43.9837 40.6865C43.9789 40.6818 43.9742 40.677 43.969 40.6734C43.9123 40.6382 43.8598 40.5962 43.8009 40.5636C43.7873 40.5563 43.7343 40.5038 43.718 40.4959C43.7091 40.4912 43.6938 40.4555 43.6844 40.4539Z" fill="#2458A4"/>
<path id="Fill 25" fill-rule="evenodd" clip-rule="evenodd" d="M43.9285 41.3313C43.9233 41.3534 43.8997 41.357 43.8645 41.3502C43.8535 41.3476 43.8298 41.3287 43.8298 41.3208C43.8298 41.3066 43.8304 41.2925 43.8325 41.2793C43.834 41.2715 43.8918 41.1717 43.9107 41.137C43.9285 41.1034 43.9506 41.073 43.9732 41.043C44.0194 40.9821 44.0645 40.9202 44.1102 40.8593C44.1202 40.8456 44.1318 40.833 44.1444 40.8209C44.1874 40.7805 44.2231 40.7343 44.2562 40.6865C44.2614 40.6786 44.2683 40.6713 44.2704 40.6608C44.2735 40.644 44.3691 40.518 44.3843 40.5038C44.4221 40.4691 44.4578 40.4319 44.4946 40.3956C44.4993 40.3904 44.503 40.3835 44.5114 40.3814C44.5308 40.3772 44.5387 40.3631 44.5492 40.3515C44.5634 40.3347 44.5781 40.3184 44.5949 40.3037C44.6028 40.2964 44.6154 40.2927 44.6264 40.288C44.6364 40.2833 44.649 40.299 44.6484 40.3032C44.6474 40.3148 44.6595 40.3137 44.6663 40.3179C44.6689 40.3195 44.6721 40.3211 44.6731 40.3232C44.6763 40.3263 44.628 40.4471 44.619 40.4576C44.6175 40.4602 44.5156 40.613 44.5051 40.6314C44.4998 40.6408 44.4904 40.6477 44.4825 40.655C44.4788 40.6587 44.3995 40.7826 44.3964 40.7868C44.377 40.8104 44.3623 40.8377 44.335 40.8551C44.3297 40.8582 44.3266 40.8635 44.3229 40.8687C44.2935 40.9118 44.2583 40.9506 44.2247 40.9905C44.2074 41.011 44.1932 41.0331 44.1769 41.0546C44.1743 41.0583 44.1696 41.0609 44.1664 41.0646C44.1617 41.0688 44.157 41.0725 44.1533 41.0772C44.1165 41.1286 44.0735 41.1754 44.0399 41.2289C44.0325 41.2415 43.9795 41.2877 43.9706 41.3024C43.9658 41.3108 43.9306 41.3224 43.9285 41.3313Z" fill="#2458A4"/>
<path id="Fill 10" fill-rule="evenodd" clip-rule="evenodd" d="M29.2558 56.4164C28.3076 56.4873 27.3524 56.774 26.5186 57.2518C26.2146 57.4266 25.9468 57.6524 25.7032 57.8787C25.5141 58.0546 25.3346 58.2458 25.2227 58.4442C25.1665 58.5414 25.1156 58.6422 25.0967 58.7314C25.071 58.7997 25.072 58.8354 25.0773 58.8937C25.0279 59.1667 25.9725 59.0549 26.6735 58.974C27.2647 58.8995 27.8618 58.7819 28.4698 58.7083C28.8599 58.6621 29.2627 58.617 29.6822 58.6663C30.0876 58.7094 30.5801 58.859 30.8663 59.2744C31.0164 59.5521 30.8216 59.5495 30.588 59.5091C30.3291 59.4708 30.0655 59.5406 29.7142 59.5285C29.0742 59.5086 28.317 59.6314 27.5635 59.7659C27.1828 59.8315 26.7948 59.8992 26.3915 59.9502C26.1873 59.9748 25.983 59.9948 25.7641 59.9979C25.6559 60.0016 25.543 59.9995 25.427 59.9937L25.249 59.979C25.1975 59.9696 25.0731 59.9596 25.0017 59.9386C24.6488 59.8604 24.3149 59.6446 24.2114 59.2901L24.1642 59.0638L24.1584 58.8328C24.1416 58.6716 24.1878 58.5361 24.2119 58.4169C24.2455 58.2977 24.2928 58.1906 24.3369 58.0793C24.3905 57.9806 24.4435 57.8782 24.5013 57.7826C24.7386 57.4067 25.0353 57.1069 25.3519 56.8501C26.2566 56.1292 27.3173 55.6918 28.4126 55.4733C29.0883 55.3415 29.7809 55.3043 30.4651 55.3599C31.5058 55.4345 32.5134 55.7894 33.4113 56.282C34.1039 56.6716 34.7813 57.1016 35.3252 57.6813C35.4549 57.7994 35.5647 57.9286 35.6781 58.0625C35.8844 58.3156 35.9748 58.5141 36.0105 58.6711C36.0493 58.826 36.032 58.941 35.9816 59.0565C35.959 59.109 35.9433 59.1673 35.9175 59.2056C35.8361 59.33 35.5489 59.2192 35.2024 58.9399C34.1937 58.1071 33.2244 57.2754 32.0382 56.8233C31.1692 56.4862 30.2136 56.346 29.26 56.4426L29.2558 56.4164Z" fill="#2458A4"/>
<path id="Fill 27" fill-rule="evenodd" clip-rule="evenodd" d="M40.644 0.0775348C40.6309 0.0554815 40.643 0.0334282 40.6708 0.00979964C40.6792 0.00192346 40.7102 -0.00332733 40.716 0.00244854C40.727 0.0140003 40.7375 0.0250269 40.7459 0.0376288C40.7511 0.0449799 40.791 0.170474 40.8057 0.213005C40.8199 0.253961 40.8299 0.296493 40.8383 0.338499C40.8556 0.424612 40.874 0.5102 40.8924 0.595788C40.8961 0.615216 40.8982 0.634643 40.8992 0.654071C40.9034 0.721807 40.916 0.786916 40.9312 0.852026C40.9344 0.863053 40.9354 0.874079 40.9423 0.884056C40.9533 0.899283 40.989 1.07729 40.99 1.10091C40.9927 1.16025 40.9984 1.21853 41.0032 1.27734C41.0037 1.28522 41.0068 1.29362 41.0032 1.30254C40.9937 1.3225 40.9995 1.3393 41.0021 1.35768C41.0053 1.38183 41.0084 1.40703 41.0089 1.43224C41.0095 1.44484 41.0047 1.45849 41.0016 1.47162C40.9984 1.48317 40.978 1.48107 40.9753 1.47792C40.9669 1.46794 40.9601 1.47897 40.9522 1.4816C40.9496 1.48212 40.9465 1.4837 40.9438 1.4837C40.9391 1.48317 40.8772 1.34875 40.874 1.33352C40.8735 1.32985 40.821 1.12612 40.8136 1.10354C40.8099 1.09146 40.8105 1.07834 40.8099 1.06573C40.8094 1.05996 40.7648 0.897708 40.7637 0.890882C40.758 0.856752 40.7459 0.823672 40.7506 0.787441C40.7517 0.78009 40.7496 0.773264 40.7475 0.766438C40.7338 0.70868 40.7259 0.648821 40.717 0.590012C40.7123 0.559557 40.7044 0.530153 40.6981 0.500223C40.697 0.494973 40.6981 0.489197 40.6976 0.483421C40.697 0.476595 40.6976 0.469244 40.696 0.462418C40.6797 0.392057 40.6713 0.319596 40.6514 0.250286C40.6466 0.234008 40.6451 0.153671 40.6393 0.134768C40.6356 0.124792 40.6493 0.0859361 40.644 0.0775348Z" fill="#2458A4"/>
<path id="Fill 30" fill-rule="evenodd" clip-rule="evenodd" d="M40.1642 0.926704C40.1416 0.940356 40.1185 0.928279 40.0943 0.90045C40.0865 0.892049 40.0812 0.861069 40.0875 0.855293C40.0991 0.844267 40.1106 0.833765 40.1237 0.825364C40.1316 0.820113 40.2624 0.779157 40.3059 0.763929C40.349 0.749227 40.3926 0.739776 40.4367 0.730324C40.5254 0.712472 40.6147 0.693044 40.704 0.674666C40.7234 0.670465 40.7439 0.66784 40.7643 0.66679C40.8342 0.662589 40.9019 0.649462 40.9696 0.633185C40.9812 0.630559 40.9927 0.628984 41.0027 0.622158C41.019 0.610606 41.2038 0.573851 41.2285 0.572801C41.2899 0.56965 41.3503 0.563349 41.4112 0.558624C41.4196 0.557573 41.4286 0.554423 41.437 0.558099C41.4574 0.567025 41.4758 0.561249 41.4942 0.558624C41.5199 0.554948 41.5457 0.551798 41.5719 0.550747C41.585 0.550747 41.5987 0.554948 41.6123 0.558624C41.6249 0.561774 41.6223 0.581727 41.6192 0.584878C41.6087 0.592754 41.6197 0.600105 41.6223 0.607981C41.6234 0.610081 41.6244 0.613757 41.6244 0.615857C41.6244 0.620583 41.4847 0.683592 41.4685 0.686743C41.4648 0.687268 41.2532 0.741351 41.2296 0.749227C41.217 0.752903 41.2033 0.752378 41.1907 0.753428C41.1844 0.753428 41.0159 0.799635 41.009 0.800685C40.9733 0.806461 40.9392 0.819063 40.9014 0.814862C40.894 0.813812 40.8867 0.816437 40.8799 0.817488C40.8195 0.83219 40.7575 0.840591 40.6966 0.850042C40.6651 0.854768 40.6341 0.863169 40.6031 0.86947C40.5974 0.87052 40.5916 0.869995 40.5858 0.870521C40.5785 0.871046 40.5711 0.870521 40.5643 0.872096C40.4908 0.888898 40.4157 0.897299 40.3438 0.917778C40.3269 0.923028 40.2429 0.925654 40.224 0.93143C40.213 0.93458 40.1736 0.921453 40.1642 0.926704Z" fill="#2458A4"/>
<path id="Fill 32" fill-rule="evenodd" clip-rule="evenodd" d="M40.2928 0.39675C40.2697 0.392025 40.2634 0.367871 40.2676 0.332166C40.2686 0.321139 40.2865 0.295935 40.2944 0.29541C40.3091 0.29541 40.3243 0.29541 40.3374 0.29751C40.3463 0.298561 40.455 0.353694 40.4928 0.371547C40.5291 0.388349 40.5632 0.409877 40.5963 0.431931C40.664 0.476562 40.7323 0.520144 40.8 0.564776C40.8152 0.574752 40.8289 0.585779 40.8425 0.598381C40.8887 0.640387 40.9397 0.675042 40.9927 0.707072C41.0016 0.712848 41.0095 0.719149 41.0205 0.720724C41.0384 0.723349 41.1781 0.816288 41.1943 0.831516C41.2337 0.868796 41.2757 0.903452 41.3167 0.939157C41.3225 0.944408 41.3303 0.947558 41.333 0.955959C41.3393 0.975912 41.3545 0.983263 41.3676 0.99324C41.3865 1.00742 41.4044 1.02159 41.4212 1.0384C41.4296 1.04627 41.4348 1.05887 41.4411 1.0699C41.4464 1.07988 41.4311 1.09301 41.4269 1.09301C41.4149 1.09248 41.417 1.10456 41.4133 1.11191C41.4122 1.11401 41.4107 1.11768 41.4086 1.11873C41.4054 1.12241 41.2757 1.07725 41.2636 1.06885C41.261 1.06675 41.093 0.968561 41.073 0.958585C41.0631 0.953859 41.0547 0.944408 41.0463 0.936531C41.0421 0.932856 40.9061 0.856719 40.9013 0.853569C40.8751 0.834141 40.8457 0.821014 40.8252 0.79371C40.821 0.788459 40.8152 0.785309 40.81 0.781633C40.7627 0.753279 40.7191 0.719149 40.6745 0.686069C40.6514 0.669791 40.6273 0.655089 40.6036 0.639862C40.5989 0.637237 40.5957 0.632511 40.5921 0.628835C40.5873 0.62516 40.5826 0.619909 40.5774 0.616233C40.5207 0.581053 40.4682 0.539047 40.4093 0.506492C40.3957 0.499141 40.3427 0.446633 40.3264 0.438757C40.3175 0.434031 40.3022 0.398326 40.2928 0.39675Z" fill="#2458A4"/>
<path id="Fill 34" fill-rule="evenodd" clip-rule="evenodd" d="M40.5379 1.27419C40.5327 1.29624 40.509 1.29992 40.4744 1.29309C40.4628 1.29046 40.4392 1.27104 40.4392 1.26369C40.4392 1.24951 40.4397 1.23533 40.4418 1.2222C40.4434 1.21433 40.5012 1.11456 40.5201 1.07991C40.5379 1.0463 40.56 1.01585 40.5826 0.985919C40.6288 0.92501 40.6739 0.863051 40.7196 0.802142C40.7296 0.78849 40.7411 0.775888 40.7537 0.763811C40.7968 0.72338 40.8325 0.677173 40.8656 0.629391C40.8708 0.621514 40.8776 0.614163 40.8798 0.603662C40.8829 0.586334 40.9785 0.46084 40.9937 0.446663C41.0315 0.412008 41.0672 0.374727 41.104 0.338497C41.1087 0.333246 41.1124 0.32642 41.1208 0.32432C41.1402 0.320119 41.1481 0.305942 41.1586 0.29439C41.1727 0.277588 41.1874 0.26131 41.2042 0.246608C41.2121 0.239257 41.2247 0.235581 41.2358 0.230856C41.2457 0.22613 41.2583 0.241882 41.2578 0.246083C41.2568 0.25711 41.2688 0.256585 41.2757 0.260785C41.2783 0.262361 41.2814 0.263936 41.2825 0.266036C41.2862 0.269187 41.2373 0.389955 41.2284 0.400456C41.2268 0.403082 41.125 0.55588 41.1145 0.574257C41.1092 0.583709 41.1003 0.590535 41.0919 0.597886C41.0882 0.601561 41.0089 0.72548 41.0058 0.729681C40.9863 0.753309 40.9722 0.780613 40.9443 0.797941C40.9391 0.801091 40.9359 0.806342 40.9323 0.811593C40.9029 0.854649 40.8677 0.89298 40.8341 0.933411C40.8167 0.953889 40.8026 0.975943 40.7863 0.997471C40.7837 1.00115 40.7789 1.00377 40.7758 1.00692C40.7711 1.01165 40.7663 1.01532 40.7627 1.02005C40.7259 1.07151 40.6828 1.11824 40.6492 1.1718C40.6419 1.1844 40.5889 1.23061 40.5805 1.24531C40.5752 1.25371 40.54 1.26526 40.5379 1.27419Z" fill="#2458A4"/>
<path id="Fill 36" fill-rule="evenodd" clip-rule="evenodd" d="M40.6017 7.51932C41.2528 7.67054 41.9023 7.82964 42.5587 8.02917C42.9141 8.14049 43.6424 8.36417 44.0551 8.63511C44.2841 8.77163 44.4227 8.93231 44.524 9.10086C44.6185 9.25786 44.6842 9.50254 44.6054 9.73043C44.5167 10.0323 44.3681 10.2807 44.0929 10.506C43.8377 10.7381 43.4466 10.9077 43.0722 11.0631L42.7771 11.167L42.5996 11.2222L42.2478 11.3214C42.0136 11.3844 41.781 11.4385 41.5489 11.4884C40.6211 11.6874 39.7007 11.8187 38.7791 11.9274C37.6245 12.0618 36.474 12.1878 35.3204 12.2471C31.2537 12.4451 27.1906 12.329 23.1502 11.9547C21.3581 11.7851 19.5565 11.585 17.787 11.3004C15.5187 10.9423 13.2178 10.4514 11.1133 9.42168C10.4622 9.08458 10.6753 8.89398 11.3243 8.89083C11.9786 8.88453 13.0729 8.99584 14.3147 9.30091C18.7295 10.4015 23.3492 10.8572 27.9998 11.1287C30.7874 11.2826 33.6995 11.1571 36.5365 10.9302C37.7857 10.8284 39.0333 10.695 40.2572 10.4876C40.8679 10.3821 41.4749 10.2592 42.0556 10.0959L42.4227 9.98299C42.4836 9.96251 42.5461 9.94151 42.6064 9.91473C42.7251 9.86117 42.859 9.80131 42.9325 9.68265C42.942 9.65114 42.9677 9.61964 42.9593 9.58656C42.9488 9.55505 42.9231 9.53195 42.8973 9.51252C42.8443 9.47314 42.7839 9.44426 42.723 9.41643C42.5902 9.35867 42.4993 9.32454 42.2867 9.25838C40.4657 8.72333 38.5471 8.3647 36.6426 8.04545C33.7494 7.57498 30.8174 7.20847 27.9121 7.0184C25.6532 6.87137 23.43 6.9013 21.2189 7.02207C20.7317 7.04832 20.2575 7.09191 19.7718 7.13706C17.9703 7.31611 17.4384 7.44108 16.9852 7.31506C16.8844 7.29091 16.7531 7.27883 16.6828 7.24523C16.4376 7.15177 17.1097 6.64244 18.4822 6.31846C20.5048 5.84274 22.6114 5.68049 24.7307 5.69415C26.8514 5.69625 28.9911 5.82437 31.1272 6.02127C34.2986 6.34157 37.458 6.80994 40.6043 7.48729L40.6017 7.51932Z" fill="#2458A4"/>
</g>
</svg>
