<svg width="60" height="60" viewBox="0 0 60 60" fill="none" xmlns="http://www.w3.org/2000/svg">
<g id="Group 25">
<path id="Fill 1" fill-rule="evenodd" clip-rule="evenodd" d="M9.12597 55.2841C9.21964 55.3173 9.15046 55.4492 8.9827 55.6156C8.92943 55.6693 8.73779 55.7831 8.69983 55.785C8.62636 55.7881 8.55411 55.7925 8.49778 55.7894C8.48064 55.785 8.39615 55.7394 8.30921 55.7081C8.27002 55.705 8.2241 55.69 8.20512 55.71C8.20512 55.71 8.18982 55.73 8.20145 55.7137C8.22533 55.6812 8.24614 55.6468 8.26451 55.6137C8.30064 55.5499 8.31839 55.5374 8.3337 55.4999C8.34717 55.4724 8.35758 55.4323 8.3637 55.408C8.36982 55.3973 8.37411 55.3829 8.37533 55.3679C8.37411 55.3148 8.37594 55.3604 8.37901 55.3504C8.38696 55.3823 8.40656 55.4117 8.44329 55.4536C8.49227 55.5249 8.53207 55.5418 8.61473 55.6149C8.65575 55.65 8.69861 55.6812 8.74269 55.7087C8.78922 55.74 8.84433 55.7613 8.82412 55.7569L8.81555 55.7763C8.80637 55.8075 8.79473 55.8313 8.78371 55.8776C8.75983 55.9564 8.73963 56.0645 8.71698 56.1696C8.70779 56.2184 8.68575 56.2653 8.65024 56.3109C8.53207 56.4704 8.50085 56.6586 8.50146 56.8499C8.50146 56.8825 8.49044 56.9137 8.53023 56.9487C8.5933 57.005 8.54493 57.5253 8.50819 57.5934C8.41146 57.7579 8.349 57.9286 8.27308 58.1C8.26206 58.1243 8.27676 58.1519 8.22533 58.1719C8.10471 58.2188 8.12124 58.2738 8.109 58.3288C8.09247 58.4045 8.0692 58.4801 8.0245 58.5577C8.00246 58.5958 7.93266 58.6315 7.87511 58.6684C7.82368 58.7009 7.65225 58.6565 7.63449 58.6434C7.58306 58.6046 7.49857 58.6227 7.42632 58.6158C7.40244 58.6127 7.36999 58.6096 7.35101 58.6071C7.3106 58.6146 7.02835 58.1725 7.03141 58.1218C7.0308 58.1168 7.01365 57.9549 6.99529 57.7792C6.97631 57.6053 6.9561 57.4215 6.94692 57.3833C6.93712 57.3439 6.96712 57.3058 6.9861 57.2689C6.99345 57.2526 6.931 56.713 6.93835 56.6892C6.96161 56.5798 6.92671 56.4604 7.04672 56.3622C7.06998 56.3428 7.06692 56.319 7.06753 56.2959C7.07427 56.0977 7.14346 55.907 7.21509 55.7056C7.25244 55.6024 7.26162 55.4917 7.30019 55.3742C7.30632 55.3529 7.32836 55.3385 7.34183 55.3204C7.35775 55.2973 7.38469 55.2729 7.39326 55.2454C7.4404 55.1084 7.50959 54.934 7.70368 54.7614C7.79674 54.6751 7.9443 54.5656 8.14083 54.515C8.34349 54.4575 8.56146 54.4994 8.69555 54.5519C8.72616 54.5638 8.78371 54.5975 8.84555 54.6476C8.88841 54.6926 8.93372 54.7489 8.97535 54.8045C9.04086 54.9108 9.0874 55.0096 9.11372 55.0359C9.14372 55.0672 9.08923 55.2741 9.12597 55.2841Z" fill="#2458A4"/>
<path id="Fill 3" fill-rule="evenodd" clip-rule="evenodd" d="M19.5404 12.8971C19.642 13.3248 19.672 13.7706 19.7804 14.2009C19.814 14.3591 19.8863 14.5035 19.9236 14.6598C20.062 15.2089 20.2347 15.7504 20.4784 16.2457C20.591 16.4608 20.7416 16.654 20.9082 16.8022C21.1347 16.9973 21.3539 17.0767 21.5529 17.2349C21.6141 17.2874 21.6061 17.5213 21.4714 17.7352C21.3465 17.954 21.0269 18.1341 20.7728 18.0147C20.3332 17.8064 20.0357 17.4775 19.8042 17.1524C19.5777 16.8184 19.4118 16.4683 19.3169 16.0974C19.2018 15.6585 18.9954 15.2558 18.8773 14.8255C18.7505 14.3541 18.655 13.8776 18.592 13.3986C18.562 13.1009 18.5448 12.8039 18.5258 12.5087C18.4995 12.0604 18.502 11.6102 18.5026 11.1662C18.502 10.8216 18.4818 10.4789 18.5271 10.1269C18.5375 10.05 18.5454 9.97244 18.5669 9.89615C18.6538 9.61163 18.7426 9.53597 18.8791 9.52659C18.911 9.52408 18.9428 9.51908 18.971 9.52283C19.0671 9.53722 19.1008 9.66666 19.1112 9.8555C19.1418 10.4164 19.2048 10.9973 19.304 11.5858C19.3775 12.0222 19.4571 12.4606 19.5649 12.8914L19.5404 12.8971Z" fill="#2458A4"/>
<path id="Fill 5" fill-rule="evenodd" clip-rule="evenodd" d="M5.59025 5.25691C5.63617 5.10058 5.82965 5.18875 6.07027 5.43138C6.14741 5.50892 6.30966 5.79469 6.31273 5.84847C6.31701 5.95477 6.32497 6.05482 6.32007 6.13174C6.31762 6.15487 6.25027 6.26681 6.20619 6.38312C6.15537 6.49818 6.15048 6.61761 6.15109 6.67389C6.15905 6.78645 6.13823 6.87087 6.10149 7.00969L5.97108 7.59811C5.90924 7.84824 5.78495 8.18779 5.58046 8.45855C5.49658 8.57737 5.3931 8.66929 5.28596 8.73682C4.91921 8.95631 4.66328 9.12515 4.45573 9.3265C4.42266 9.35902 4.37797 9.38153 4.37552 9.45031C4.3743 9.50659 4.23409 9.64729 4.11225 9.77798C3.99163 9.90867 3.8802 10.0337 3.83918 10.05C3.64754 10.1382 3.47916 10.2632 3.31875 10.4139C3.29426 10.4352 3.29855 10.4733 3.22875 10.4677C3.06466 10.4558 3.06589 10.5377 3.02548 10.5946C2.95874 10.6703 2.89261 10.751 2.80812 10.8285C2.76526 10.8667 2.66975 10.8873 2.59138 10.9173C2.51975 10.9436 2.33729 10.861 2.32137 10.8373C2.27606 10.7691 2.17137 10.7791 2.08932 10.7591C2.06177 10.7522 2.02565 10.7428 2.00422 10.7341C1.98095 10.7235 1.92891 10.5227 1.8787 10.2939C1.82972 10.0638 1.84074 9.8255 1.86217 9.78798C1.87319 9.78111 1.9681 9.50284 2.12483 9.2302C2.27117 8.95193 2.46648 8.68742 2.5026 8.63114C2.53873 8.57049 2.61097 8.54235 2.67465 8.51296C2.68934 8.50608 2.83812 8.31911 2.99548 8.15527C3.15099 7.98706 3.29916 7.83323 3.3114 7.82698C3.45222 7.73631 3.54223 7.60124 3.72346 7.61875C3.75958 7.62188 3.77856 7.59811 3.79754 7.57998C3.96285 7.41865 4.09204 7.34799 4.16 7.28483C4.1998 7.25044 4.20776 7.17165 4.23592 7.08222C4.24021 7.06409 4.26348 7.05096 4.27633 7.0347C4.29286 7.01594 4.31613 6.99468 4.32164 6.96466C4.37185 6.6864 4.5194 6.26118 4.70614 5.82345C4.7441 5.70527 5.17146 5.39824 5.2431 5.32758C5.28351 5.26504 5.57617 5.31757 5.59025 5.25691Z" fill="#2458A4"/>
<path id="Fill 7" fill-rule="evenodd" clip-rule="evenodd" d="M18.5901 42.3666C18.6807 42.3822 18.775 42.3991 18.8601 42.4141C18.8895 42.4185 18.9158 42.3991 18.9428 42.4053C19.0444 42.431 19.1381 42.461 19.214 42.4697C19.2348 42.4741 19.2605 42.456 19.2458 42.4554C19.2354 42.4497 19.2042 42.3909 19.2691 42.3966C19.2942 42.3978 19.4534 42.4372 19.6334 42.5154C19.8061 42.5885 19.9708 42.7117 19.9499 42.7786C19.9169 42.8387 19.9138 42.8743 19.8465 42.9525C19.7908 43.0213 19.7338 43.0957 19.6805 43.1144C19.5612 43.1845 19.4687 43.187 19.3738 43.1707C19.2654 43.1457 19.1969 43.2076 19.1148 43.217C19.0279 43.2264 18.944 43.2245 18.8644 43.2251C18.8185 43.2264 18.7664 43.2239 18.726 43.2301C18.6605 43.232 18.5877 43.2276 18.5577 43.2595C18.543 43.2701 18.5387 43.2939 18.554 43.312L18.5625 43.3245L18.5289 43.2945C18.5111 43.2789 18.5123 43.2745 18.4989 43.2651C18.4897 43.2583 18.4787 43.2526 18.4652 43.2483C18.475 43.2533 18.4836 43.2533 18.4866 43.2533C18.4866 43.2533 18.5001 43.2533 18.4811 43.2514C18.4493 43.2501 18.4101 43.2489 18.3611 43.247L18.2356 43.2501C18.1015 43.2583 17.9754 43.2314 17.9129 43.1082C17.8131 42.9312 17.9203 42.7155 17.998 42.6204C18.0495 42.5567 18.0911 42.5216 18.1334 42.491C18.1787 42.4579 18.227 42.4297 18.2625 42.4147C18.3832 42.3566 18.4885 42.344 18.5846 42.3453L18.5901 42.3666Z" fill="#2458A4"/>
<path id="Fill 9" fill-rule="evenodd" clip-rule="evenodd" d="M12.2179 42.3484C12.8725 42.4841 13.5502 42.5404 14.2305 42.5667C14.479 42.5685 14.7252 42.5285 14.9744 42.5304C15.8493 42.5041 16.7426 42.4491 17.5973 42.2527C17.9432 42.1665 18.4171 42.0039 18.4453 41.8663C18.5273 41.7025 18.5573 41.4911 18.5739 41.2516C18.5837 41.1316 18.591 41.0071 18.6088 40.867C18.6363 40.7251 18.6351 40.5725 18.7826 40.3449C18.978 40.1673 19.082 40.4118 19.1806 40.5906C19.3386 40.7338 19.5608 40.8764 19.5547 41.231C19.5449 41.5236 19.5247 41.8776 19.3521 42.2527C19.3123 42.3453 19.2572 42.4366 19.1972 42.5248C19.1329 42.6186 18.9902 42.7386 18.872 42.8224C18.6914 42.9268 18.5573 42.9856 18.4079 43.0457C17.8502 43.262 17.3126 43.3502 16.7591 43.4171C16.1015 43.4715 15.4372 43.626 14.7668 43.6503C14.0327 43.6947 13.2949 43.6497 12.5633 43.5797C12.1145 43.5128 11.6638 43.4609 11.2224 43.3527C10.8875 43.2733 10.5495 43.2089 10.2244 43.0876C9.89624 42.9794 9.56561 42.8874 9.25091 42.7436C8.7464 42.5673 8.25598 42.3666 7.76188 42.1346C7.65412 42.082 7.55249 42.0226 7.45514 41.9495C7.09696 41.6756 7.03451 41.5199 7.14901 41.2372C7.17472 41.1722 7.19554 41.1053 7.22921 41.0471C7.34187 40.852 7.59718 40.8064 7.87393 40.9077C8.08577 40.9771 8.26884 41.0796 8.47395 41.1522C8.67722 41.226 8.87559 41.3073 9.06968 41.3954C9.26254 41.4861 9.47867 41.5374 9.67827 41.6187C9.87971 41.6975 10.083 41.7738 10.2948 41.835C10.6046 41.9382 10.9138 42.0476 11.2402 42.1164C11.5591 42.2077 11.8873 42.2728 12.2204 42.319L12.2179 42.3484Z" fill="#2458A4"/>
<path id="Fill 11" fill-rule="evenodd" clip-rule="evenodd" d="M43.794 48.0893C43.7389 48.694 43.6611 49.2962 43.5448 49.8921C43.4977 50.1085 43.4823 50.3298 43.4279 50.545C43.2246 51.3022 42.9368 52.0332 42.5762 52.7186C42.3852 53.0062 42.2505 53.3258 42.0466 53.5996C41.9186 53.7766 41.809 53.9686 41.667 54.1349C41.5188 54.2956 41.3608 54.4488 41.1906 54.5827C41.0829 54.6664 41.0045 54.5495 40.98 54.3669C40.9574 54.1837 40.9763 53.9361 41.1135 53.7579C41.5813 53.1013 41.9107 52.3828 42.2658 51.6361C42.4697 51.1815 42.548 50.6619 42.6295 50.1573C42.7201 49.6001 42.7911 49.0348 42.8119 48.462C42.8352 48.1106 42.8346 47.7554 42.8401 47.4008C42.8284 46.8637 42.8199 46.3203 42.7446 45.7875C42.6937 45.3729 42.5529 44.979 42.4746 44.5713C42.4556 44.4812 42.4286 44.3956 42.4158 44.3043C42.3662 43.9641 42.4195 43.8447 42.6515 43.7377C42.7048 43.7133 42.7562 43.6833 42.8101 43.6664C42.9907 43.6077 43.1658 43.724 43.2687 43.961C43.5968 44.6638 43.7168 45.4592 43.7817 46.2678C43.8344 46.8674 43.8332 47.479 43.8185 48.0887L43.794 48.0893Z" fill="#2458A4"/>
<path id="Fill 13" fill-rule="evenodd" clip-rule="evenodd" d="M57.0893 51.533C57.1058 51.4217 57.2429 51.3967 57.4199 51.4061C57.4762 51.4092 57.6072 51.4861 57.6158 51.5249C57.633 51.6006 57.6525 51.6781 57.663 51.7519C57.663 51.7932 57.5913 52.4035 57.6005 52.6236C57.6109 52.8387 57.5172 52.9994 57.4536 53.1758L57.2393 53.7023L57.134 53.9655C57.1064 54.0475 57.1235 54.0312 57.1229 54.0631C57.126 54.08 57.107 54.0912 57.0844 54.1106C56.9888 54.1781 57.0397 54.3076 57.1242 54.3464C57.1352 54.3557 57.1468 54.367 57.1835 54.3395C57.2172 54.3145 57.2638 54.3245 57.3054 54.3207C57.3397 54.3226 57.374 54.3245 57.4027 54.3257C57.4934 54.3282 57.5717 54.3338 57.5993 54.3439C57.8797 54.4364 58.2066 54.5139 58.5128 54.6709C58.5556 54.694 58.6107 54.6897 58.6346 54.7578C58.6879 54.9191 58.7858 54.9254 58.8661 54.9911C58.9769 55.0774 59.0785 55.173 59.1538 55.2912C59.1936 55.3481 59.1985 55.4463 59.2114 55.5251C59.2224 55.5976 59.0975 55.7108 59.073 55.7158C59.002 55.7302 58.9848 55.819 58.945 55.8765C58.9322 55.8972 58.9144 55.9228 58.901 55.9365C58.8869 55.9522 58.7154 55.944 58.5538 55.9853C58.473 56.0035 58.3958 56.0322 58.3377 56.0591C58.2844 56.0716 58.2464 56.0829 58.2366 56.0785C58.2366 56.0785 58.0879 56.0535 57.9103 56.0629C57.7358 56.071 57.5044 56.1054 57.4536 56.1179C57.4278 56.1248 57.4015 56.1204 57.3752 56.1116C57.3342 56.1004 57.2809 56.086 57.2374 56.0741C57.2184 56.071 56.8884 56.0766 56.5688 55.9572C56.2468 55.8496 55.9774 55.6233 55.9609 55.6051C55.779 55.4081 55.5776 55.193 55.5757 54.8973C55.5764 54.8404 55.55 54.7941 55.5304 54.7453C55.3682 54.3182 55.4147 53.808 55.6223 53.4221C55.6762 53.3039 55.7055 53.2664 55.7386 53.202L55.8366 53.0213C55.8488 52.9994 55.8764 52.985 55.8947 52.9669C55.918 52.9438 55.9474 52.9238 55.9615 52.8956C56.117 52.6111 56.3074 52.3447 56.4537 52.0564C56.4972 51.9939 56.815 51.7613 56.8523 51.685C56.8786 51.645 57.0856 51.5787 57.0893 51.533Z" fill="#2458A4"/>
<path id="Fill 15" fill-rule="evenodd" clip-rule="evenodd" d="M49.8265 19.6051C49.3428 19.4481 48.8517 19.298 48.3454 19.1974C48.1605 19.1567 47.9719 19.1498 47.7864 19.1154C47.1331 18.9798 46.4651 18.8716 45.7904 18.8122C45.491 18.7828 45.1879 18.7947 44.8904 18.8072C44.5065 18.8303 44.1232 18.9028 43.7356 18.8097C43.4932 18.7515 43.7699 17.821 44.2224 17.7916C45.0214 17.7485 45.8327 17.7804 46.6396 17.9561C47.1215 18.0593 47.6303 18.0593 48.1256 18.1368C48.668 18.2375 49.2081 18.3588 49.7371 18.522C50.0646 18.6127 50.3842 18.734 50.7057 18.8428C51.1887 19.0242 51.6577 19.2424 52.1231 19.4544C52.4855 19.6188 52.8468 19.7733 53.1957 19.9646C53.2753 20.0034 53.3464 20.0516 53.4168 20.1053C53.6739 20.3104 53.7217 20.4249 53.666 20.6212C53.6537 20.6662 53.6451 20.7125 53.6274 20.7532C53.5692 20.8864 53.3904 20.9176 53.1645 20.8551C52.8314 20.7594 52.5027 20.6619 52.1898 20.5362C51.8592 20.4461 51.5634 20.2867 51.2469 20.1616C50.7859 19.9596 50.3077 19.7833 49.8209 19.6301L49.8265 19.6051Z" fill="#2458A4"/>
<path id="Fill 17" fill-rule="evenodd" clip-rule="evenodd" d="M51.2036 5.68788C51.0787 5.63848 51.056 5.49153 51.0591 5.29205C51.0603 5.2289 51.1448 5.09633 51.1926 5.0957C51.2838 5.09633 51.3824 5.09508 51.473 5.10696C51.5256 5.11509 52.2897 5.41274 52.561 5.51217C52.8151 5.61472 53.022 5.7748 53.2296 5.93426C53.6551 6.2538 54.0408 6.62023 54.4027 7.02857C54.4841 7.11674 54.5515 7.22179 54.6059 7.3356C54.7896 7.73893 55.0443 8.04596 55.3015 8.5481C55.3388 8.62438 55.3572 8.7013 55.4337 8.75445C55.4986 8.79572 55.6235 9.11776 55.7037 9.34538C55.7907 9.5905 55.8397 9.6818 55.8274 9.69869C55.8507 9.91755 56.0264 10.1983 56.2156 10.531C56.2425 10.5804 56.2976 10.6129 56.2829 10.6967C56.2456 10.8862 56.338 10.9718 56.3987 11.0888C56.4832 11.2489 56.5413 11.4233 56.5597 11.5984C56.5768 11.6835 56.4948 11.8016 56.4078 11.9098C56.3356 12.0061 56.2303 12.0011 56.1923 11.9911C56.1146 11.9505 56.0521 12.028 56.0007 12.0505C55.9805 12.0593 55.9554 12.0705 55.9339 12.0749C55.9229 12.0774 55.8182 12.0605 55.7227 12.0255C55.6529 11.9805 55.5745 11.9217 55.4907 11.8748C55.3266 11.7798 55.1588 11.7241 55.1374 11.6953C55.1943 11.7197 54.26 10.9818 54.058 10.5729C53.9931 10.4822 53.9839 10.3728 53.968 10.2784C53.9576 10.2552 53.8431 10.002 53.7218 9.73495C53.6698 9.62052 53.6208 9.52047 53.5847 9.45168C53.5498 9.3879 53.5259 9.34538 53.5222 9.33913C53.5033 9.27034 53.4751 9.22469 53.4586 9.17717C53.4249 9.11088 53.4133 9.03897 53.4218 8.93142C53.4255 8.88952 53.4016 8.86451 53.382 8.83699C53.2075 8.60375 53.0575 8.3186 52.88 8.04659C52.7881 7.90902 52.6694 7.79333 52.561 7.66764C52.542 7.64513 52.5359 7.60887 52.5218 7.58073C52.5034 7.54633 52.493 7.50256 52.4679 7.47442C52.2157 7.17052 51.9946 6.82346 51.6977 6.56333C51.6407 6.49267 51.4369 6.05745 51.3518 5.99491C51.312 5.95364 51.2575 5.70226 51.2036 5.68788Z" fill="#2458A4"/>
<path id="Fill 19" fill-rule="evenodd" clip-rule="evenodd" d="M22.3918 28.0591C21.875 28.59 21.2964 29.0853 20.7344 29.5155L20.6321 29.5943C20.6058 29.6162 20.6058 29.6168 20.5893 29.6281C20.5636 29.6399 20.5317 29.6994 20.4999 29.7306C20.4368 29.8075 20.3731 29.9176 20.3162 30.0364C20.1962 30.2715 20.1105 30.5736 20.0321 30.8743C19.9299 31.3264 19.8937 31.8092 19.8319 32.2938C19.6341 34.0197 19.6286 35.8319 19.7303 37.6272C19.7762 38.4251 19.8827 39.2236 20.0113 40.0059C20.1037 40.5074 20.1797 41.0126 20.2489 41.5167C20.2838 41.7693 20.3138 42.0219 20.337 42.2752L20.3682 42.6541C20.3738 42.7811 20.3474 42.913 20.3401 43.0399C20.3162 43.21 20.2825 43.2157 20.1484 43.2894C20.1203 43.3101 19.9495 43.2944 19.786 43.1813C19.4076 42.9843 18.9594 42.5422 18.8131 41.9538C18.518 40.917 18.3998 39.8539 18.3165 38.7865C18.2357 37.7185 18.2033 36.6423 18.2541 35.5567C18.3147 34.2617 18.2327 32.9135 18.4145 31.5553C18.5247 30.8093 18.6906 30.0539 19.0733 29.2948C19.1823 29.1053 19.2937 28.9171 19.4541 28.7382C19.5178 28.6488 19.6299 28.5575 19.7211 28.4812L19.9305 28.3161C20.1999 28.1023 20.4601 27.8878 20.7123 27.6602C21.3283 27.0993 21.9142 26.4946 22.4095 25.8174C23.173 24.8062 23.8116 23.6688 24.1692 22.4494C24.4355 21.4989 24.5414 20.5284 24.5194 19.5629C24.5182 19.3497 24.5023 19.1421 24.5096 18.9295C24.4955 18.5343 24.4894 18.2748 24.5763 18.0878C24.6896 17.8996 24.8347 17.7833 25.0147 17.6838C25.0962 17.6388 25.1696 17.58 25.2376 17.5513C25.3545 17.5025 25.4617 17.5594 25.608 17.7063C25.755 17.8539 25.9246 18.0965 25.9533 18.4192C26.2423 20.3264 25.8866 22.4625 24.9902 24.3254C24.351 25.7217 23.4651 26.9967 22.4193 28.0829L22.3918 28.0591Z" fill="#2458A4"/>
<g id="Group 23">
<mask id="mask0_573_8612" style="mask-type:luminance" maskUnits="userSpaceOnUse" x="0" y="8" width="6" height="33">
<path id="Clip 22" fill-rule="evenodd" clip-rule="evenodd" d="M0.000244141 8.67676H5.86198V40.1165H0.000244141V8.67676Z" fill="white"/>
</mask>
<g mask="url(#mask0_573_8612)">
<path id="Fill 21" fill-rule="evenodd" clip-rule="evenodd" d="M1.55112 19.9789C1.79542 21.6117 2.21421 23.25 2.68994 24.8808C2.86872 25.4761 3.08423 26.0571 3.26975 26.6536C3.9212 28.7534 4.5353 30.8933 5.05511 33.0694C5.28043 34.0355 5.51431 35.0104 5.67166 35.9953C5.83759 37.2559 6.01576 38.5866 5.63738 39.8679C5.54309 40.2662 5.30737 40.1474 5.09124 39.7828C4.87205 39.412 4.69204 38.8405 4.62041 38.1701C4.55183 36.9808 4.29529 35.7877 4.03875 34.5777C3.78711 33.3677 3.44669 32.1508 3.14668 30.9114C2.75851 29.4338 2.1891 27.9393 1.72256 26.4304C1.21499 24.7683 0.745382 23.078 0.408637 21.3459L0.25802 20.5449L0.152098 19.7319C0.0669929 19.1935 0.0431146 18.6426 0.0167872 18.0936C-0.0432147 17.2569 0.0688297 16.3965 0.210875 15.5886C0.356594 14.7719 0.561091 13.9727 0.813344 13.1905C1.20642 11.9786 1.63684 10.7661 2.52462 9.71369C2.70402 9.47482 2.9526 9.27847 3.18954 9.07399C3.45282 8.92516 3.66344 8.78446 3.87161 8.72881C4.08406 8.68129 4.26101 8.67566 4.40122 8.67691C4.68776 8.71318 4.84878 8.84387 4.95715 8.98957C5.00736 9.05773 5.06797 9.12214 5.09001 9.18342C5.12736 9.28785 5.03736 9.3879 4.88552 9.50233C4.80898 9.56174 4.71776 9.61239 4.61551 9.65804C4.51693 9.73432 4.41346 9.82375 4.29346 9.88253C3.59058 10.2996 3.04076 11.145 2.61463 12.0868C2.19278 13.0385 1.87195 14.0922 1.64725 15.1634C1.48561 15.955 1.36683 16.7767 1.35826 17.5333C1.36255 17.9235 1.40418 18.3406 1.42377 18.7433C1.45316 19.151 1.53275 19.5619 1.5848 19.9708L1.55112 19.9789Z" fill="#2458A4"/>
</g>
</g>
<path id="Fill 24" fill-rule="evenodd" clip-rule="evenodd" d="M6.40563 8.12555C6.06215 8.80089 5.77622 9.5469 5.54601 10.3042C5.4658 10.5837 5.42662 10.872 5.35498 11.154C5.08497 12.1451 4.86701 13.1706 4.73721 14.2149C4.67904 14.6783 4.66741 15.1491 4.67047 15.6144C4.69129 16.2122 4.70966 16.8119 4.55843 17.4122C4.51006 17.5985 4.25352 17.5741 3.98412 17.4147C3.7184 17.2558 3.41839 16.9594 3.37614 16.6068C3.28124 15.3605 3.39451 14.0942 3.68044 12.8423C3.86228 12.0982 3.90024 11.2997 4.0931 10.5362C4.29638 9.69698 4.58475 8.87843 4.91048 8.0774C5.12783 7.58715 5.35927 7.10315 5.6403 6.63666C6.06643 5.93443 6.62727 5.27409 7.35831 4.80447C7.92282 4.44116 8.59019 4.20667 9.22694 4.14101C9.37083 4.12788 9.49512 4.116 9.63226 4.11787C10.1196 4.14038 10.1796 4.2198 10.3296 4.54684C10.3621 4.62 10.4056 4.68879 10.4331 4.75695C10.4803 4.87451 10.4668 4.98832 10.3762 5.109C10.2794 5.23719 10.1221 5.31849 9.92615 5.37664C9.65308 5.45293 9.38981 5.51484 9.17184 5.58737C8.94408 5.63365 8.74877 5.69555 8.56264 5.75746C8.20018 5.89065 7.89343 6.08263 7.59465 6.38466C7.14708 6.81238 6.75095 7.4477 6.43808 8.13868L6.40563 8.12555Z" fill="#2458A4"/>
<path id="Fill 26" fill-rule="evenodd" clip-rule="evenodd" d="M11.1833 5.52192L11.0045 5.78456L10.8527 6.07595C10.7541 6.27168 10.6408 6.45803 10.552 6.66376C10.3837 7.08084 10.1988 7.49168 10.05 7.9319C9.92998 8.24582 9.87304 8.58099 9.77997 8.90991C9.42425 10.0611 9.17689 11.2717 8.9877 12.4986C8.90933 13.0445 8.88423 13.5992 8.87137 14.1463C8.87749 14.8536 8.87015 15.5539 8.69749 16.2824C8.64116 16.5107 8.43421 16.46 8.20706 16.2662C7.98665 16.0754 7.70256 15.7353 7.63888 15.3232C7.52072 14.5934 7.55561 13.8506 7.56541 13.1089C7.60398 12.3667 7.66337 11.6188 7.84338 10.8815C8.04175 10.0023 8.12196 9.06311 8.33993 8.15577C8.6032 7.16401 8.9375 6.17976 9.46894 5.27054C9.60303 4.98102 9.80814 4.71964 9.98324 4.4495C10.1492 4.17311 10.3739 3.93173 10.5875 3.68598C10.7443 3.49526 10.9114 3.31454 11.1135 3.16384C11.3119 3.00563 11.4808 2.84743 11.7025 2.69235C12.196 2.38907 12.6686 2.28089 13.1584 2.18709C13.9085 2.0589 14.7075 2.0145 15.5083 2.31653C15.6755 2.39782 15.8628 2.44472 16.0006 2.58792C16.2767 2.81491 16.3973 3.03127 16.4463 3.19698C16.4659 3.38958 16.4286 3.52715 16.3545 3.66222C16.3208 3.72475 16.2945 3.78916 16.2583 3.83418C16.1965 3.91047 16.0973 3.92235 15.9565 3.91547C15.8175 3.90484 15.6326 3.88921 15.4771 3.82918C14.9757 3.71037 14.596 3.60094 14.113 3.61344C13.6532 3.62157 13.1217 3.71912 12.7335 3.90234C12.5866 3.97613 12.5597 3.98926 12.3839 4.1556C12.2437 4.29067 12.0864 4.40072 11.9511 4.54642L11.5623 5.01416C11.4294 5.16862 11.3351 5.36809 11.2182 5.54193L11.1833 5.52192Z" fill="#2458A4"/>
<path id="Fill 28" fill-rule="evenodd" clip-rule="evenodd" d="M18.9194 6.39111C19.1588 5.94401 19.3969 5.49878 19.7006 5.07919C19.8347 4.86408 20.0086 4.66336 20.1776 4.46325L20.4255 4.1731L20.5841 4.03428C20.6202 4.01615 20.6515 3.98613 20.638 3.94361C20.6368 3.92423 20.6337 3.90422 20.6294 3.88358C20.6245 3.86232 20.6264 3.85544 20.5853 3.76665C20.4641 3.4865 20.2866 3.23825 20.0594 3.05128C19.7061 2.77426 19.2353 2.65608 18.7112 2.63357C18.5024 2.58542 18.0561 2.82116 17.6912 3.13882C17.3122 3.45711 16.9601 3.86295 16.6344 4.28941C15.9848 5.15048 15.4399 6.12473 14.988 7.14087C14.5888 8.04509 14.2925 9.0037 14.0825 9.96357C13.8112 11.2017 13.7145 12.4598 13.5614 13.713C13.5125 14.1026 13.2149 14.06 12.9265 13.7092C12.6326 13.3609 12.3712 12.6831 12.4471 11.9008C12.5855 10.5214 12.888 9.16629 13.3429 7.86437C13.7953 6.56245 14.3886 5.30493 15.1778 4.15309C15.6554 3.46712 16.1532 2.77301 16.8083 2.14332C17.1407 1.83441 17.5124 1.5305 18.0267 1.32852C18.1596 1.28287 18.2973 1.2391 18.4516 1.21972C18.5281 1.21159 18.612 1.20221 18.683 1.19971L18.8588 1.20659L19.2102 1.22409L19.5659 1.28663C20.2951 1.42295 21.0182 1.85692 21.4915 2.47098C21.6115 2.62356 21.7137 2.78614 21.808 2.95373L21.9336 3.21261L22.0652 3.56029C22.1283 3.79854 22.2078 4.04679 22.1717 4.27753C22.168 4.33569 22.1393 4.38696 22.1209 4.44199L22.1031 4.48201L22.1025 4.48326C22.0927 4.48014 22.1821 4.51015 22.1442 4.49827L22.1423 4.50077L22.1393 4.50452L22.1325 4.51328L22.1191 4.53079L22.0658 4.6002L21.8533 4.87596C21.7376 4.99165 21.5986 5.11921 21.5025 5.22427L21.276 5.50566C21.1156 5.6845 20.9858 5.89649 20.8529 6.10534C20.3104 6.97016 19.91 7.95692 19.6314 8.97556C19.231 10.5245 19.0498 12.1666 19.2084 13.7618C19.3382 15.0043 19.7331 16.1667 20.1898 17.2792C20.2933 17.5243 20.4249 17.7488 20.5284 17.9952C20.9429 18.8894 20.979 19.2371 20.8058 19.6123C20.7666 19.6973 20.7378 19.7961 20.6925 19.8624C20.5468 20.0819 20.139 19.8386 19.5831 19.2208C18.1032 17.2792 17.4726 14.5972 17.5326 12.0077C17.535 11.5244 17.5914 11.041 17.641 10.5595C17.7334 10.083 17.7885 9.60088 17.9202 9.13252C18.1332 8.18578 18.4804 7.26844 18.8826 6.37673L18.9194 6.39111Z" fill="#2458A4"/>
<path id="Fill 30" fill-rule="evenodd" clip-rule="evenodd" d="M33.1457 20.3636C32.6963 19.8158 32.2328 19.198 31.9536 18.462C31.9512 18.4357 31.9451 18.4082 31.95 18.3757C31.9665 18.3269 31.9126 18.3469 31.8924 18.3294L31.8428 18.3175C31.8208 18.3138 31.8336 18.3113 31.7246 18.3031L31.2312 18.2706C30.7714 18.2431 30.3054 18.2744 29.8419 18.2543C28.2011 18.1874 26.5473 18.1599 24.9028 18.2312C24.1724 18.2606 23.4444 18.3538 22.7323 18.4663C22.2774 18.5445 21.8249 18.6477 21.378 18.7352C20.9286 18.8121 20.4798 18.8784 20.042 18.9428C19.7665 18.9741 19.6857 18.6939 19.8314 18.325C19.9759 17.9504 20.3726 17.4858 20.9249 17.3182C21.9045 17.0469 22.8835 16.9562 23.8595 16.8693C24.8367 16.7917 25.8132 16.7773 26.7935 16.8161C27.9653 16.8643 29.1746 16.753 30.3734 16.7742C30.6918 16.7811 31.0107 16.7911 31.3316 16.8086L31.8147 16.8367C32.0106 16.8486 32.3069 16.868 32.5426 16.8949L32.7808 17.0981L32.8984 17.1988L32.9535 17.317C33.0116 17.4596 33.1457 17.6597 33.2553 17.8416C33.3551 18.0224 33.3937 18.1343 33.4745 18.2862C33.5645 18.4282 33.6447 18.5745 33.7421 18.7152C34.1657 19.3343 34.7015 19.9089 35.2837 20.4198C36.1648 21.1971 37.1548 21.8812 38.2232 22.3558C38.631 22.5578 39.0712 22.6666 39.4955 22.7992C39.9339 22.8861 40.3606 23.0018 40.8009 23.0506C40.9937 23.0762 41.1847 23.0868 41.3758 23.1206C42.0903 23.2119 42.304 23.3232 42.427 23.7628C42.4546 23.861 42.4956 23.961 42.5097 24.0579C42.5593 24.3862 42.2225 24.6101 41.6225 24.6276C39.8457 24.6658 38.004 24.0436 36.3815 23.0912C35.1705 22.3808 34.0708 21.4791 33.1194 20.3904L33.1457 20.3636Z" fill="#2458A4"/>
<path id="Fill 32" fill-rule="evenodd" clip-rule="evenodd" d="M33.3445 1.38791L35.8065 0.834499L37.0377 0.545601C37.4639 0.459933 37.898 0.34675 38.3321 0.287969C38.9639 0.179789 39.5952 0.0684821 40.235 0.0315882C41.3609 -0.0415743 42.4948 0.0147046 43.6135 0.176037C44.7327 0.332367 45.8427 0.615637 46.8909 1.074C47.3666 1.24533 47.8062 1.51672 48.2648 1.73684C48.6873 2.02636 49.1483 2.2596 49.5292 2.60728C50.0557 3.00311 50.5216 3.48586 50.9459 4.00112C51.1363 4.27564 51.3029 4.56891 51.4676 4.85656C51.6053 5.15984 51.7137 5.47875 51.7853 5.8058C51.876 6.21538 51.658 6.23289 51.2453 6.07093C50.8076 5.91585 50.262 5.58756 49.8286 5.1317C48.5085 3.32515 46.4378 2.19207 44.0971 1.63741C42.6944 1.28723 41.1528 1.36477 39.676 1.52048C38.8543 1.59551 38.0596 1.75497 37.2441 1.94194L34.7509 2.52411L31.6712 3.20134C30.1149 3.53588 28.5395 3.82103 26.9856 4.1118C25.7751 4.32629 24.5947 4.58579 23.3891 4.76651C23.1246 4.80966 22.8656 4.85468 22.5969 4.88595C22.0991 4.94911 21.7672 4.95161 21.5291 4.89971C21.2927 4.86344 21.1501 4.76214 21.0313 4.6352C20.9774 4.57954 20.9082 4.53202 20.8764 4.48762C20.7699 4.36381 21.1488 4.04427 21.856 3.86793C22.914 3.62593 23.9867 3.38143 25.0735 3.1338C26.1621 2.87867 27.2635 2.63167 28.3772 2.42281C30.0261 2.08889 31.6847 1.74497 33.3341 1.35352L33.3445 1.38791Z" fill="#2458A4"/>
<path id="Fill 34" fill-rule="evenodd" clip-rule="evenodd" d="M50.9983 7.10321C50.4142 6.75991 49.794 6.446 49.1346 6.2065C48.8921 6.10958 48.6601 6.06205 48.4176 5.99202C47.5684 5.73939 46.6598 5.56055 45.7482 5.44049C45.3441 5.37983 44.9332 5.35169 44.5279 5.33793C44.005 5.35044 43.4852 5.28103 42.9624 5.14033C42.7995 5.09468 42.8209 4.98713 42.9605 4.84205C43.0995 4.70073 43.3591 4.47999 43.6689 4.40558C43.9432 4.32491 44.2163 4.32116 44.4893 4.32616C44.7624 4.32554 45.0361 4.33242 45.3098 4.3493C45.8578 4.36869 46.4021 4.48687 46.9445 4.61506C47.5923 4.78265 48.2817 4.83518 48.9583 5.03715C49.6893 5.2704 50.3818 5.54679 51.0596 5.9026C51.4753 6.11583 51.8788 6.36158 52.2633 6.6386C52.8455 7.05756 53.3788 7.56282 53.8313 8.14562C54.1821 8.59523 54.5238 9.07985 54.7448 9.64952C54.7919 9.77395 54.8525 9.89527 54.8801 10.0278C54.9946 10.5193 54.896 10.69 54.5189 10.7913C54.4325 10.8151 54.3462 10.8439 54.2586 10.8564C53.9543 10.8945 53.7254 10.7263 53.6298 10.4687C53.3543 9.70079 53.0647 9.01732 52.5192 8.35135C52.1163 7.86485 51.5671 7.47528 50.9867 7.12822L50.9983 7.10321Z" fill="#2458A4"/>
<path id="Fill 36" fill-rule="evenodd" clip-rule="evenodd" d="M55.2427 12.1755C54.7309 11.7102 54.099 11.3207 53.4268 11.0036C53.1806 10.8861 52.9253 10.7973 52.6731 10.6935C51.7798 10.3226 50.8436 9.99185 49.8928 9.72546C49.4709 9.60728 49.0374 9.52661 48.6088 9.45782C48.0566 9.37528 47.5055 9.29462 46.9674 9.12203C46.7996 9.06637 46.8406 8.88816 47.0102 8.71557C47.1798 8.54361 47.4847 8.36289 47.8178 8.37727C48.4086 8.39165 48.9854 8.49671 49.5572 8.62677C50.1285 8.75559 50.6948 8.91817 51.2514 9.12515C51.9169 9.37028 52.6363 9.52786 53.3239 9.79487C54.069 10.1125 54.8105 10.4521 55.4901 10.938C55.7013 11.0799 55.896 11.255 56.0981 11.4126C56.2848 11.5952 56.4777 11.7709 56.6479 11.9716C57.1781 12.5713 57.5253 13.3536 57.6624 14.1452C57.7714 14.7599 57.8179 15.3784 57.772 15.9862C57.761 16.1194 57.7683 16.2557 57.7261 16.382C57.614 16.8629 57.4334 16.966 57.1438 16.9873C57.0777 16.9917 57.0122 17.0036 56.9528 16.9998C56.8524 16.9923 56.7758 16.931 56.7097 16.826C56.6436 16.7209 56.5793 16.5683 56.5793 16.4008C56.5254 15.8905 56.5867 15.4315 56.5622 14.9857C56.5481 14.5423 56.4924 14.129 56.3589 13.7419C56.1489 13.176 55.7613 12.6438 55.2262 12.1986L55.2427 12.1755Z" fill="#2458A4"/>
<path id="Fill 41" fill-rule="evenodd" clip-rule="evenodd" d="M57.7878 44.0931C57.8362 42.3641 57.677 40.615 57.4217 38.8766C57.3311 38.2419 57.1829 37.616 57.0702 36.9825C56.87 35.8638 56.6276 34.7539 56.3998 33.6152C56.169 32.4696 56.0122 31.3178 55.8904 30.1622C55.7851 29.1367 55.6853 28.103 55.6541 27.0693C55.6271 26.4065 55.6522 25.7337 55.733 25.0583C55.801 24.3836 56.0318 23.6951 56.4476 23.1136C56.7194 22.7521 56.8015 22.9291 56.829 23.3205C56.8315 23.5075 56.87 23.7714 56.8982 24.0541C56.9037 24.1904 56.949 24.358 56.9478 24.5112C56.9398 24.6619 56.9355 24.8263 56.9202 24.9989C56.7323 27.4395 57.001 30.0871 57.3586 32.6747C57.5974 34.2155 58.0921 35.842 58.3842 37.464C58.716 39.2518 58.9376 41.0696 59.0032 42.8987C59.0289 44.0262 59.0038 45.1561 58.8856 46.2804C58.7393 47.9876 58.2831 49.6765 57.6237 51.2467C57.4884 51.55 57.3715 51.8614 57.23 52.1591L56.7482 53.0245C56.4616 53.6286 56.0135 54.1182 55.6247 54.6604C55.4606 54.8936 55.2512 55.1387 55.0014 55.3432C54.5434 55.7265 54.094 55.896 53.7358 55.8766C53.3697 55.8403 53.1695 55.6427 53.123 55.4357C53.0972 55.3426 53.0807 55.2363 53.0985 55.1675C53.1309 55.0424 53.2687 55.018 53.3911 54.9492C53.5142 54.8798 53.6067 54.786 53.8375 54.6522C54.1865 54.4177 54.5042 54.07 54.8165 53.5979C55.1343 53.1571 55.4857 52.7425 55.7306 52.2435L56.1463 51.5306L56.48 50.7646C56.5823 50.5045 56.7255 50.2631 56.7996 49.9892L57.0525 49.1794C57.5202 47.5611 57.7401 45.8365 57.7572 44.0956L57.7878 44.0931Z" fill="#2458A4"/>
<path id="Fill 43" fill-rule="evenodd" clip-rule="evenodd" d="M52.8139 53.5503C53.2437 52.94 53.608 52.2865 53.8805 51.5818C53.9735 51.3223 54.0403 51.054 54.1156 50.787C54.3991 49.8503 54.5656 48.856 54.6556 47.8467C54.6972 47.399 54.6979 46.9444 54.6905 46.4948C54.6966 45.9176 54.6881 45.3354 54.8277 44.7552C54.8699 44.5744 54.9985 44.6001 55.1552 44.7539C55.3015 44.9084 55.5379 45.1898 55.5746 45.5249C55.6077 45.8213 55.6487 46.1196 55.664 46.4185C55.6585 46.718 55.6493 47.0176 55.6303 47.319C55.5918 47.9224 55.5244 48.5302 55.3995 49.1349C55.2507 49.8565 55.1717 50.6238 54.9556 51.356C54.7205 52.1589 54.3783 52.9356 53.9582 53.6497C53.7005 54.0887 53.4127 54.5152 53.0827 54.9135C52.5788 55.5157 51.9457 56.0222 51.2465 56.3755C50.7083 56.655 50.1506 56.892 49.5646 57.0321C49.4354 57.0683 49.3099 57.1021 49.1789 57.1196C48.6903 57.2003 48.5305 57.059 48.4283 56.7769C48.405 56.7094 48.375 56.6425 48.3621 56.5756C48.3193 56.3511 48.5023 56.1466 48.8134 56.0441C49.7355 55.7889 50.6122 55.5644 51.3475 55.0485C51.8955 54.6765 52.3804 54.1556 52.7913 53.5371L52.8139 53.5503Z" fill="#2458A4"/>
<path id="Fill 45" fill-rule="evenodd" clip-rule="evenodd" d="M48.6685 55.3595C48.9183 55.07 49.1448 54.7373 49.3512 54.3878C49.5446 54.0395 49.7901 53.6455 49.885 53.3454C49.9787 53.0715 50.0375 52.7707 50.1195 52.4781C50.411 51.4394 50.6755 50.3776 50.8879 49.3083C50.9853 48.8337 51.0324 48.3491 51.0839 47.8726C51.1439 47.2591 51.1684 46.6463 51.352 46.041C51.4065 45.8509 51.5302 45.8791 51.6833 46.0491C51.8229 46.2186 52.069 46.5419 52.091 46.9121C52.1192 48.2215 51.8786 49.4984 51.5376 50.7522C51.3196 51.5001 51.2033 52.2961 50.9859 53.0696C50.9259 53.2828 50.8634 53.493 50.7857 53.7137C50.752 53.8162 50.6981 53.9494 50.6424 54.0676L50.49 54.3571C50.2855 54.7448 50.0626 55.1269 49.8189 55.5027C49.5214 55.9648 49.1736 56.4101 48.7542 56.789C48.1346 57.3868 47.3141 57.747 46.5066 57.9359C45.8759 58.0884 45.241 58.191 44.6024 58.1947C44.4622 58.1954 44.3232 58.2022 44.1818 58.1935C43.9234 58.1616 43.7569 58.1184 43.651 58.0303C43.5469 57.9302 43.5046 57.7883 43.4801 57.6357C43.4685 57.5682 43.4483 57.5094 43.4434 57.4625C43.4355 57.3806 43.4881 57.3193 43.5995 57.2024C43.7128 57.0779 43.8616 57.0041 44.0355 57.0041C44.5473 56.9766 45.0463 56.9497 45.5508 56.9228C46.0376 56.8666 46.5102 56.7903 46.948 56.6296C47.5878 56.3776 48.1732 55.9605 48.6477 55.3445L48.6685 55.3595Z" fill="#2458A4"/>
<path id="Fill 47" fill-rule="evenodd" clip-rule="evenodd" d="M43.4585 58.3761C42.7709 58.6481 41.9872 58.8532 41.1257 58.6131C40.7008 58.5099 40.2906 58.2385 39.9943 57.9083C39.8473 57.7376 39.7157 57.5607 39.6294 57.3706C39.5277 57.2149 39.4347 56.911 39.3471 56.6446C39.3116 56.4238 39.3134 56.1812 39.4255 55.9755C39.483 55.8742 39.5418 55.7716 39.6189 55.6797C39.6863 55.5947 39.7861 55.4702 39.821 55.4352C40.2135 55.0044 40.5306 54.5954 40.8618 54.1758C42.0294 52.7163 42.7844 50.9116 43.1052 48.9982C43.2515 48.1496 43.2797 47.2754 43.2582 46.4162C43.2497 45.8634 43.2031 45.31 43.1584 44.7566C43.1248 44.202 43.1187 43.6404 43.0966 43.0764C43.0929 42.7237 43.2368 42.7412 43.4627 43.0051C43.685 43.2684 44.034 43.778 44.2066 44.4346C44.6358 46.7689 44.4742 49.2852 43.5968 51.5764C43.0703 52.9333 42.3956 54.3253 41.4447 55.464C41.239 55.711 41.0229 55.9492 40.819 56.1743L40.639 56.3763C40.5961 56.4182 40.5802 56.4789 40.609 56.5326C40.6261 56.5802 40.62 56.6058 40.6573 56.6727L40.7774 56.9041L40.9298 57.0986L41.1123 57.2499C41.3755 57.425 41.738 57.4844 42.1219 57.4394C42.908 57.3393 43.7413 56.896 44.2758 56.2537C45.1557 55.2126 45.7704 53.89 46.2057 52.5469C46.5394 51.4944 46.7218 50.417 46.8792 49.334C46.9141 49.0951 46.9337 48.8587 46.9833 48.6205C47.1235 47.7325 47.3782 47.4805 47.6347 47.3198C47.6966 47.2835 47.7566 47.2329 47.808 47.2135C47.8962 47.1822 47.9598 47.2629 48.0278 47.4424C48.0921 47.6206 48.1821 47.9013 48.1882 48.2478C48.2004 49.2746 48.026 50.3095 47.8013 51.3537C47.5661 52.3961 47.2465 53.4436 46.8075 54.4653C46.4812 55.2238 46.082 55.968 45.5732 56.6652L45.1679 57.1755C45.0044 57.3556 44.8299 57.5313 44.6481 57.6776C44.2838 57.974 43.8932 58.2154 43.4732 58.4049L43.4585 58.3761Z" fill="#2458A4"/>
<path id="Fill 49" fill-rule="evenodd" clip-rule="evenodd" d="M40.7889 33.2522C41.2316 32.8058 41.7036 32.3943 42.1457 32.0179C42.3649 31.8296 42.5798 31.6445 42.7451 31.4751C42.9178 31.2969 42.9882 31.1806 42.9931 31.1418C43.0231 30.9411 43.0445 30.6966 43.0629 30.4614C43.1057 29.9518 43.0941 29.4315 43.1302 28.9144C43.2453 27.0885 43.331 25.2506 43.3231 23.4166C43.3243 22.603 43.2625 21.7883 43.211 20.986C43.1327 19.9542 42.9716 18.9374 42.908 17.925C42.8877 17.608 43.0653 17.5917 43.3292 17.8118C43.5998 18.0301 43.9696 18.5022 44.0786 19.115C44.5035 21.2692 44.5611 23.4216 44.4521 25.5846C44.3847 26.8777 44.4515 28.219 44.4068 29.5441C44.3811 30.1225 44.3566 30.669 44.2978 31.2875C44.2562 31.6527 44.07 31.9666 43.9084 32.1661C43.7412 32.3774 43.5704 32.5494 43.4039 32.7051L42.4365 33.5837C41.8077 34.1615 41.2438 34.7868 40.7638 35.4821C40.0413 36.5339 39.4958 37.7333 39.1952 38.9921C38.9619 39.9713 38.9105 40.9687 38.8897 41.9636C38.8817 42.1818 38.8952 42.3982 38.8927 42.6189C38.8676 43.4368 38.7862 43.6963 38.3692 43.8733C38.2768 43.914 38.1837 43.9684 38.0907 43.9921C37.7766 44.0753 37.5231 43.7257 37.441 43.0848C37.3394 42.1337 37.3437 41.1407 37.468 40.1351C37.5984 39.1309 37.8629 38.1204 38.2413 37.143C38.8039 35.6891 39.6942 34.3372 40.7626 33.2297L40.7889 33.2522Z" fill="#2458A4"/>
<path id="Fill 51" fill-rule="evenodd" clip-rule="evenodd" d="M28.8058 41.2652C29.0281 41.5448 29.246 41.8274 29.4493 42.1163L29.7481 42.5465C29.8087 42.6347 29.7934 42.6134 29.8032 42.6347C29.8093 42.6478 29.8167 42.6603 29.8301 42.6647C29.8448 42.6722 29.8473 42.6785 29.8767 42.6841L30.0652 42.7229L30.5349 42.7954C30.8514 42.8429 31.1826 42.8754 31.5065 42.9148C31.9859 42.9611 32.4666 42.9711 32.9478 43.0118C34.6425 43.1637 36.3477 43.2907 38.0522 43.3369C38.8078 43.3494 39.5676 43.3407 40.3139 43.3007C40.7921 43.2694 41.2715 43.2306 41.7442 43.1831L42.4526 43.1425C42.6926 43.1368 42.9216 43.1212 43.1469 43.0981C43.4322 43.0799 43.4683 43.2713 43.2669 43.5452C43.0649 43.8272 42.6069 44.1799 42.0344 44.3093C41.0181 44.4775 40.0188 44.53 39.0141 44.5676C38.0106 44.5788 37.0083 44.5275 36.0054 44.4344C34.8066 44.3212 33.5576 44.3474 32.3294 44.2649C31.6529 44.2142 30.9806 44.1623 30.2948 44.0748C30.1222 44.0523 29.955 44.0354 29.7701 43.9991C29.6942 43.9798 29.5546 43.9741 29.4316 43.9272C29.3116 43.8778 29.1811 43.8459 29.0715 43.7803C28.9797 43.6871 28.8824 43.5983 28.8058 43.4889L28.6374 43.2606L28.3387 42.8623C27.8452 42.217 27.3058 41.6135 26.7107 41.0733C25.8155 40.2535 24.8047 39.5369 23.6903 39.0998C23.2673 38.904 22.8069 38.8334 22.3691 38.7233C21.9136 38.6839 21.4733 38.5851 21.019 38.6033C20.8201 38.6001 20.626 38.6108 20.4282 38.5995C19.6923 38.6276 19.4559 38.5076 19.2655 38.1455C19.2227 38.0623 19.1657 37.9804 19.1369 37.8979C19.0377 37.6234 19.3463 37.3701 19.9598 37.2394C20.866 37.0894 21.8291 37.1531 22.7836 37.3357C23.7259 37.5677 24.6681 37.9066 25.5198 38.4119C26.8056 39.1291 27.9003 40.1372 28.8303 41.2402L28.8058 41.2652Z" fill="#2458A4"/>
<path id="Fill 53" fill-rule="evenodd" clip-rule="evenodd" d="M1.10936 41.226C1.07814 40.6175 1.10753 39.9691 1.34753 39.3025C1.60285 38.6359 2.02102 38.0074 2.96452 37.6154L3.19657 37.5578C3.27433 37.5616 3.35454 37.5391 3.43352 37.5391C3.59393 37.5584 3.74945 37.5978 3.89027 37.6791C4.03538 37.7467 4.1615 37.8636 4.28946 37.9705C4.39722 38.08 4.56131 38.2425 4.60294 38.297C4.86683 38.6027 5.09521 38.8779 5.34256 39.1424C5.76564 39.6014 6.24443 39.9841 6.73485 40.353C8.46695 41.6687 10.6362 42.4097 12.8538 42.7867C13.8396 42.9612 14.851 43.0388 15.8509 43.0481C17.1354 43.0575 18.4242 43.015 19.7222 43.0381C20.1269 43.0538 20.0945 43.2751 19.7694 43.5346C19.4442 43.7879 18.8246 44.1206 18.0611 44.195C16.7129 44.35 15.3457 44.3594 13.9773 44.2419C12.6077 44.1349 11.2362 43.8542 9.91557 43.3783C8.34756 42.8118 6.69383 42.1252 5.3444 40.9815C4.87234 40.5856 4.43273 40.1429 4.03538 39.6908L3.53638 39.1205C3.46964 39.0355 3.35025 38.941 3.24249 39.0192C3.18188 39.0423 3.12494 39.0748 3.07045 39.1205C2.9884 39.1824 2.90575 39.2731 2.83901 39.3662C2.70186 39.5557 2.60451 39.7958 2.54757 40.0641C2.44594 40.5237 2.46308 41.0509 2.53471 41.5686C2.60329 42.0595 2.78084 42.5141 3.05943 42.9443C3.48189 43.5903 4.06415 44.1637 4.71376 44.6533C5.3597 45.1486 6.06932 45.5738 6.80465 45.934C7.9502 46.4949 9.15819 46.8626 10.3699 47.1821C10.6374 47.2534 10.9031 47.3034 11.1713 47.3703C12.1693 47.6198 12.4338 47.7537 12.6016 48.1482C12.6475 48.2352 12.694 48.3252 12.7375 48.4084C12.7681 48.4809 12.7681 48.5491 12.7204 48.6129C12.6689 48.6791 12.5759 48.7348 12.4644 48.7754C12.236 48.8574 11.903 48.8836 11.4989 48.8386C9.12697 48.5209 6.75016 47.678 4.53621 46.2867C3.7219 45.7533 2.93697 45.1198 2.26899 44.29C1.93898 43.8711 1.64203 43.4014 1.42407 42.8687C1.31998 42.5979 1.23304 42.3203 1.17855 42.0264C1.12222 41.7468 1.09589 41.5036 1.07446 41.2316L1.10936 41.226Z" fill="#2458A4"/>
<path id="Fill 55" fill-rule="evenodd" clip-rule="evenodd" d="M4.38264 48.4941C4.87245 48.9537 5.53431 49.3364 6.25188 49.6641C6.51883 49.7848 6.79496 49.8654 7.04599 49.9692C7.965 50.3463 8.96911 50.6346 9.96772 50.9166C10.4134 51.0367 10.8708 51.1123 11.3233 51.1792C11.9061 51.2599 12.4988 51.2855 13.059 51.5319C13.2342 51.6069 13.1766 51.8452 12.9868 52.0797C12.7976 52.3079 12.4682 52.5718 12.1235 52.5531C10.9106 52.4349 9.69649 52.2548 8.51604 51.8208C7.81316 51.5538 7.0466 51.4306 6.30025 51.138C5.52574 50.8222 4.73898 50.4664 3.99875 49.9523C3.55118 49.6303 3.11648 49.2514 2.78769 48.7742C2.26114 48.0651 2.04746 47.1934 1.92991 46.3849C1.84725 45.7508 1.75419 45.1236 1.75908 44.4964C1.7597 44.3589 1.73827 44.2182 1.75419 44.0818C1.81113 43.5741 1.9397 43.4278 2.30645 43.3877C2.39094 43.3784 2.47543 43.3621 2.55748 43.3633C2.83422 43.369 3.03198 43.6053 3.07545 43.9555C3.18811 44.9892 3.16974 46.0147 3.41465 46.872C3.60016 47.5017 3.88793 48.032 4.40346 48.466L4.38264 48.4941Z" fill="#2458A4"/>
<path id="Fill 57" fill-rule="evenodd" clip-rule="evenodd" d="M6.91393 53.001C7.49681 53.3386 8.15744 53.605 8.83951 53.8483C9.08441 53.9308 9.36728 53.9821 9.59014 54.0471C10.432 54.291 11.4006 54.3873 12.3539 54.488C12.7807 54.5267 13.2123 54.528 13.6403 54.5286C14.1876 54.5361 14.7564 54.4705 15.305 54.7062C15.4758 54.7737 15.425 54.967 15.2616 55.1771C15.0975 55.3709 14.8268 55.6717 14.5256 55.6723C13.448 55.7086 12.327 55.798 11.1771 55.5998C10.4957 55.4797 9.75423 55.5029 9.01706 55.3184C8.26214 55.1277 7.50844 54.8794 6.7823 54.5343C6.3329 54.3304 5.90002 54.0715 5.48307 53.7857C4.85428 53.3443 4.2965 52.739 3.93343 52.0136C3.63587 51.4602 3.4375 50.8349 3.40749 50.2002C3.40505 50.062 3.38974 49.9238 3.39647 49.7824C3.46505 49.2747 3.61015 49.1377 3.97996 49.1334C4.06507 49.1327 4.15078 49.1265 4.23344 49.1365C4.51141 49.1746 4.70427 49.4098 4.73795 49.7049C4.86101 50.6066 5.02326 51.2463 5.47817 51.831C5.82288 52.26 6.32983 52.6583 6.92802 52.9678L6.91393 53.001Z" fill="#2458A4"/>
<path id="Fill 59" fill-rule="evenodd" clip-rule="evenodd" d="M19.8071 57.3108C20.5823 57.1582 21.3427 56.9512 22.1331 56.7448C22.9419 56.531 23.7403 56.354 24.5442 56.1858C25.1296 56.0607 25.71 55.915 26.2978 55.8075C28.374 55.4504 30.4661 55.1947 32.5704 55.0634C33.5053 55.0183 34.4452 54.9558 35.3813 54.9602C35.6832 54.9664 35.9844 54.9596 36.2869 54.9739L37.1967 55.0621C37.8034 55.1478 38.4084 55.3072 38.968 55.603C39.3206 55.7743 39.1829 55.9369 38.8167 56.0614C38.6337 56.1239 38.3961 56.1802 38.1359 56.2146C37.8585 56.284 37.5591 56.3134 37.2493 56.264C36.1197 56.1771 34.9582 56.1664 33.7845 56.1939C32.609 56.2346 31.423 56.3215 30.2248 56.4103C28.7915 56.5266 27.3251 56.8612 25.8839 57.1626C25.0904 57.3251 24.2999 57.5059 23.5144 57.6972C22.7319 57.8823 21.9648 58.1243 21.1529 58.335C20.1653 58.5908 19.1637 58.8159 18.143 58.9522C16.6007 59.1692 15.0003 59.1561 13.4543 58.834C12.2573 58.5739 11.083 58.1318 10.0605 57.3971C9.82172 57.2514 9.616 57.0769 9.40844 56.8887C9.00496 56.5566 8.83781 56.2446 8.74107 56.017C8.69454 55.9013 8.67066 55.8 8.66821 55.7037C8.67434 55.5999 8.70128 55.5017 8.73066 55.4117C8.75822 55.3285 8.77046 55.2397 8.79863 55.1847C8.86475 55.0227 9.40354 55.0971 9.8805 55.5411C10.6562 56.1414 11.4405 56.6917 12.3332 57.0619C13.2173 57.4414 14.1866 57.6584 15.1937 57.7197C16.6895 57.8166 18.2514 57.6309 19.798 57.2789L19.8071 57.3108Z" fill="#2458A4"/>
<path id="Fill 61" fill-rule="evenodd" clip-rule="evenodd" d="M57.0795 12.5928C57.1627 12.691 57.0978 12.818 56.9564 12.9668C56.9111 13.0137 56.7452 13.07 56.7097 13.045C56.6405 12.9968 56.5719 12.9462 56.515 12.8911C56.4782 12.8592 56.1562 12.2345 56.0472 12.0176C55.937 11.8093 55.8611 11.5911 55.7968 11.3703C55.6737 10.9201 55.5194 10.4743 55.4465 10.0209C55.4276 9.92023 55.4202 9.81768 55.4251 9.71387C55.4392 9.35869 55.3884 9.01727 55.3112 8.68397C55.299 8.62832 55.2959 8.56954 55.2494 8.52139C55.1747 8.4401 55.0125 7.53901 55.0137 7.42083C55.0247 7.12067 55.0241 6.82177 55.0259 6.51974C55.0259 6.47722 55.0033 6.43657 55.0382 6.38842C55.1184 6.27711 55.0829 6.1927 55.0718 6.1014C55.051 5.97634 55.051 5.84564 55.0602 5.7112C55.0657 5.64492 55.1031 5.5705 55.1545 5.49046C55.1955 5.41918 55.2702 5.42981 55.2941 5.44294C55.3449 5.48921 55.3835 5.42856 55.4184 5.41355C55.4312 5.40729 55.4478 5.40042 55.4612 5.39917C55.558 5.37353 56.0172 6.03324 56.0343 6.11703C56.0551 6.13267 56.3943 7.19321 56.4194 7.31702C56.4409 7.37955 56.428 7.44959 56.4243 7.51712C56.4341 7.55715 56.6454 8.40133 56.6533 8.43384C56.6699 8.61456 56.736 8.7859 56.6723 8.976C56.6594 9.01352 56.6705 9.04853 56.6772 9.08418C56.7397 9.38433 56.7525 9.68949 56.7807 9.99214C56.8039 10.1528 56.8254 10.2967 56.8474 10.4493C56.8511 10.4768 56.8413 10.5068 56.8395 10.5355C56.8376 10.5718 56.8315 10.6081 56.8376 10.6425C56.9025 10.9989 56.9203 11.3678 57.0342 11.7111C57.0537 11.7912 57.0617 12.2026 57.0984 12.2933C57.1156 12.344 57.0446 12.5535 57.0795 12.5928Z" fill="#2458A4"/>
<path id="Fill 63" fill-rule="evenodd" clip-rule="evenodd" d="M50.1476 56.666C50.0276 56.7804 49.8733 56.7498 49.6798 56.6447C49.6186 56.611 49.5409 56.4546 49.5733 56.4115C49.6345 56.3264 49.7007 56.2414 49.7747 56.167C49.8096 56.1057 50.6613 55.6523 50.9717 55.5523C51.2625 55.4185 51.5687 55.3603 51.873 55.2878C52.4938 55.1796 53.1165 55.0877 53.7343 55.0552C53.872 55.0433 54.0104 55.0458 54.1469 55.0614C54.6178 55.1046 55.0831 55.1064 55.5478 55.0946C55.6255 55.0933 55.7045 55.1002 55.7804 55.0695C55.9072 55.0126 57.1605 55.0527 57.3185 55.0983C57.7146 55.1859 58.1119 55.2478 58.5062 55.3172C58.5632 55.3266 58.6244 55.3184 58.674 55.3578C58.7903 55.4491 58.9134 55.4391 59.0359 55.4504C59.2061 55.4673 59.3751 55.4841 59.544 55.5148C59.6273 55.5304 59.7106 55.5804 59.7932 55.6198C59.8685 55.6561 59.8281 55.7818 59.8018 55.7949C59.724 55.8343 59.7871 55.8956 59.7945 55.9481C59.7969 55.9656 59.8 55.9888 59.7963 56.0025C59.7896 56.0382 58.7861 56.2477 58.6765 56.2395C58.6514 56.2401 57.2211 56.2652 57.038 56.2683C56.9523 56.2745 56.8678 56.2514 56.7827 56.2339C56.7411 56.2226 55.5992 56.242 55.5557 56.242C55.32 56.2208 55.0861 56.252 54.8541 56.1707C54.8076 56.1551 54.7598 56.1582 54.7133 56.1589C54.3116 56.1714 53.9106 56.1457 53.5114 56.1495C53.3063 56.1445 53.1061 56.1789 52.9034 56.1939C52.8673 56.197 52.8293 56.1889 52.7926 56.187C52.7461 56.1851 52.6989 56.1776 52.653 56.1845C52.1809 56.2545 51.6991 56.2883 51.2521 56.4459C51.2013 56.4646 51.0452 56.4871 50.886 56.5115C50.7317 56.5466 50.575 56.5872 50.518 56.6135C50.4544 56.6397 50.1941 56.6128 50.1476 56.666Z" fill="#2458A4"/>
<path id="Fill 38" fill-rule="evenodd" clip-rule="evenodd" d="M54.0578 19.6837C54.8758 20.0795 55.6846 20.4803 56.4897 20.8305C56.8914 21.0056 57.2942 21.1663 57.683 21.282C58.0626 21.4002 58.471 21.4639 58.6633 21.4027C58.7373 21.3845 58.7526 21.3639 58.7827 21.3333C58.8169 21.3089 58.8163 21.2763 58.8341 21.1657C58.8622 21.0831 58.8329 20.9368 58.842 20.8249C58.8145 20.6936 58.8041 20.5635 58.7741 20.429C58.5279 19.4667 57.8783 18.5293 57.0744 17.7689C56.2662 17.0004 55.3234 16.357 54.3333 15.791C53.8888 15.5503 53.4235 15.3408 52.9661 15.1213C52.4959 14.9287 52.0171 14.7555 51.5463 14.5767C50.9353 14.3578 50.2997 14.2065 49.685 13.9964C49.0648 13.7975 48.4323 13.6418 47.8268 13.3723C47.4484 13.2078 47.5366 13.0509 47.9229 12.9202C48.3117 12.7764 49.0029 12.6782 49.7603 12.8308C50.4283 12.984 51.0761 13.2172 51.7318 13.4173C52.3735 13.6756 53.0261 13.8951 53.6537 14.199C54.918 14.7699 56.1352 15.5084 57.222 16.4414L57.7063 16.8703C57.8649 17.0185 58.0118 17.1855 58.1667 17.3412C58.4845 17.6439 58.7533 18.0128 59.0312 18.368C59.5517 19.1096 60.0041 19.9782 60.0004 21.0437C59.9992 21.3257 59.9404 21.6728 59.7255 22.0105C59.4972 22.3225 59.1347 22.5107 58.8237 22.5651C58.2004 22.6646 57.7142 22.5339 57.2434 22.4126C56.3158 22.1424 55.4703 21.7766 54.6278 21.4152C53.5913 20.9724 52.5767 20.5016 51.5487 20.0757C49.993 19.4329 48.406 18.8439 46.7872 18.5018C45.5296 18.2329 44.2671 18.1785 43.0285 18.2373C42.7548 18.2404 42.4903 18.2942 42.2172 18.3092C41.2088 18.4043 40.8904 18.3967 40.5978 18.0428C40.5323 17.9653 40.4484 17.8915 40.4025 17.8115C40.2439 17.5544 40.6296 17.1924 41.4396 17.0167C43.8458 16.4895 46.4749 16.8691 48.878 17.6107C50.6775 18.1566 52.3992 18.8951 54.0688 19.6505L54.0578 19.6837Z" fill="#2458A4"/>
<path id="Fill 65" fill-rule="evenodd" clip-rule="evenodd" d="M6.21644 53.3209C6.12704 53.2503 6.17541 53.1333 6.29113 52.9676C6.32848 52.9151 6.47665 52.8275 6.51338 52.8451C6.58502 52.8801 6.65665 52.9188 6.71788 52.967C6.76747 52.9882 7.11524 53.5873 7.19422 53.8024C7.29402 54.0056 7.35096 54.2189 7.39382 54.4315C7.4875 54.8661 7.5524 55.2944 7.60383 55.724C7.61301 55.8184 7.6124 55.9135 7.60321 56.0098C7.57138 56.3387 7.58607 56.6595 7.62036 56.979C7.62464 57.0322 7.61975 57.0866 7.65281 57.1379C7.70852 57.2242 7.71587 58.0809 7.69444 58.1897C7.63383 58.4642 7.62036 58.7331 7.57199 59.0013C7.56525 59.0401 7.57505 59.0795 7.5426 59.1158C7.46668 59.2021 7.48566 59.2815 7.48444 59.3628C7.48505 59.4541 7.48627 59.5447 7.48872 59.6867C7.49178 59.733 7.46974 59.7924 7.45933 59.8549C7.44954 59.9118 7.35647 59.9387 7.33933 59.9262C7.29096 59.8905 7.26463 59.9518 7.23157 59.9781C7.21994 59.9862 7.20463 59.9975 7.19361 60C7.18871 60.0081 7.03258 59.833 6.94074 59.6517C6.82748 59.4616 6.75155 59.2746 6.73747 59.2321C6.69706 59.2083 6.55257 58.1815 6.54094 58.0759C6.52869 58.0164 6.54645 57.9552 6.55563 57.8945C6.56053 57.8651 6.44787 57.0735 6.44603 57.0441C6.45093 56.8796 6.41726 56.7202 6.49012 56.5551C6.50481 56.5226 6.49991 56.4894 6.49746 56.4575C6.47542 56.1805 6.49563 55.9022 6.49318 55.6271C6.49073 55.4877 6.47359 55.347 6.45828 55.2094C6.45583 55.1844 6.46379 55.1581 6.46563 55.1325C6.46808 55.1012 6.47481 55.0681 6.46991 55.0368C6.42461 54.7129 6.4142 54.3796 6.30215 54.0819C6.28685 54.0094 6.26358 53.6542 6.22072 53.5804C6.20419 53.5379 6.25746 53.3478 6.21644 53.3209Z" fill="#2458A4"/>
<path id="Fill 68" fill-rule="evenodd" clip-rule="evenodd" d="M8.2508 4.99067C8.32978 4.92627 8.4155 5.01569 8.50734 5.19328C8.53673 5.25018 8.56061 5.43152 8.53918 5.46154C8.49754 5.51907 8.45469 5.57535 8.40877 5.61787C8.38183 5.64476 7.90426 5.81172 7.74017 5.873C7.58221 5.93428 7.41996 5.9618 7.25648 5.98368C6.92525 6.02495 6.59401 6.07185 6.26217 6.10312C6.18808 6.11062 6.114 6.10562 6.03991 6.09249C5.78521 6.04559 5.53418 6.05559 5.28316 6.08811C5.24152 6.09311 5.19866 6.08936 5.15887 6.12563C5.09335 6.18441 4.41313 6.22255 4.32619 6.18754C4.10761 6.12125 3.89025 6.07936 3.6729 6.02683C3.64229 6.01995 3.60922 6.03308 3.58106 5.99181C3.51493 5.89364 3.4482 5.91052 3.38085 5.90364C3.2884 5.89301 3.19533 5.87863 3.10227 5.84611C3.05635 5.83048 3.01104 5.77482 2.96573 5.73043C2.9241 5.68978 2.94614 5.54283 2.96022 5.52657C3.00186 5.4803 2.96818 5.41151 2.9639 5.35023C2.96267 5.3296 2.96084 5.30271 2.96267 5.28645C2.96696 5.24956 3.49963 4.9938 3.55779 4.99505C3.56392 4.99443 3.76045 4.97316 3.96985 4.95128C4.1774 4.92752 4.39231 4.9 4.43639 4.89062C4.4817 4.87937 4.52823 4.9025 4.57476 4.91751C4.59681 4.92439 5.21274 4.84935 5.23662 4.8506C5.36397 4.86123 5.49071 4.82684 5.61929 4.90751C5.64439 4.92439 5.67011 4.91876 5.69582 4.91689C5.91379 4.90063 6.13237 4.92752 6.35094 4.94002C6.46299 4.9469 6.5732 4.92939 6.68402 4.92564C6.70422 4.92439 6.72504 4.93502 6.74586 4.9394C6.77096 4.94502 6.79729 4.9544 6.82239 4.9519C7.08383 4.92689 7.35077 4.95128 7.60976 4.89125C7.66854 4.87937 7.96794 4.93752 8.0359 4.91626C8.07386 4.90625 8.21896 5.01694 8.2508 4.99067Z" fill="#2458A4"/>
</g>
</svg>
