<svg width="66" height="60" viewBox="0 0 66 60" fill="none" xmlns="http://www.w3.org/2000/svg">
<g id="Group 27">
<path id="Fill 1" fill-rule="evenodd" clip-rule="evenodd" d="M28.2263 19.3967C27.111 18.3706 25.946 17.3745 24.7474 16.5567C24.5969 16.4427 24.4517 16.3727 24.3047 16.2876C24.1131 16.1887 24.1878 16.1933 24.0975 16.195L23.0494 16.2593C22.8665 16.272 22.683 16.2778 22.5001 16.2952L21.9561 16.3953L20.8663 16.5938C19.8199 16.871 18.7857 17.2044 17.7827 17.6361L17.1108 17.8989L16.4597 18.2149C16.0274 18.4302 15.5852 18.6269 15.1598 18.8579C14.3218 19.3452 13.4652 19.8053 12.6671 20.3655C11.0322 21.4246 9.50253 22.6539 8.04987 23.9642L7.09551 24.8543C6.78472 25.1587 6.48897 25.4794 6.18744 25.7919C5.57397 26.41 5.02589 27.0848 4.46219 27.7365C3.05929 29.4531 1.82829 31.2975 0.637799 33.1403C0.261611 33.7109 -0.00229989 33.4823 1.51105e-05 32.804C0.00406637 32.4666 0.0636778 32.0059 0.229779 31.4972C0.409771 31.0001 0.663264 30.4323 1.03714 29.886C2.36364 27.9489 3.88459 26.1687 5.53924 24.5204C7.19794 22.8767 8.98397 21.3529 10.9263 20.0293C13.2459 18.4562 15.7548 16.8994 18.5027 15.9392C20.0237 15.4623 21.5799 15.0381 23.1923 14.9582L23.7948 14.92L24.1229 14.8992C24.2532 14.9044 24.4285 14.8355 24.5541 14.9496L25.1734 15.2916C25.3586 15.394 25.5114 15.5162 25.6815 15.6284C26.0195 15.8513 26.3361 16.0909 26.6446 16.3362C26.96 16.5764 27.2679 16.823 27.5636 17.0799C29.0418 18.3254 30.4435 19.6398 31.8036 20.9917C33.8697 23.0336 35.8403 25.183 37.7514 27.3371C39.2295 29.0184 40.7053 30.6488 42.0961 32.3821C42.4074 32.7595 42.7026 33.1374 43.0018 33.5298C44.1055 34.9906 44.3283 35.5519 44.2646 36.0624C44.2484 36.1805 44.2473 36.3217 44.2091 36.4085C44.0783 36.7019 43.4723 36.2192 42.6638 35.1821C40.2041 32.1414 37.5552 28.9849 34.7361 25.9487C32.6439 23.6985 30.4921 21.4698 28.2072 19.4239L28.2263 19.3967Z" fill="#2458A4"/>
<path id="Fill 3" fill-rule="evenodd" clip-rule="evenodd" d="M41.7867 3.24564C41.0124 3.45862 40.2606 3.73642 39.507 4.01306C38.7425 4.26598 38.022 4.62017 37.28 4.93038C36.7337 5.14915 36.2504 5.48656 35.722 5.73832C33.892 6.68053 32.1048 7.75122 30.5514 9.10723L30.0282 9.55229C29.8564 9.70392 29.7111 9.88044 29.5531 10.0454C29.2475 10.3834 28.9431 10.7208 28.6398 11.0559L27.6478 12.4761C27.3405 12.9617 27.0737 13.4641 26.7143 13.9248C26.4967 14.2124 26.1917 14.026 26.0378 13.5914C25.8821 13.1602 25.8896 12.457 26.2513 11.814C27.6588 9.63505 29.5942 7.89822 31.7344 6.56825C32.3612 6.14576 33.021 5.76031 33.6726 5.35171C34.3127 4.92228 35.0009 4.57156 35.6769 4.21447C36.413 3.80471 37.203 3.51128 37.9652 3.1623C38.7356 2.83009 39.5337 2.56966 40.315 2.26986L41.7902 1.81091C42.2793 1.65002 42.7758 1.51691 43.2764 1.39595L44.4091 1.10889C44.7887 1.01918 45.1747 0.956676 45.5561 0.877966C45.9387 0.806201 46.3184 0.719967 46.7015 0.655725C47.0858 0.597271 47.4695 0.538817 47.852 0.480942C48.4435 0.369243 49.0368 0.300372 49.63 0.221083C49.9263 0.182885 50.2215 0.132534 50.5201 0.103018L51.4212 0.0486151C51.6869 0.0341463 51.9479 0.00694502 52.2164 0C53.2188 0.0590326 53.5325 0.184043 53.6928 0.568913C53.7298 0.656883 53.7808 0.74601 53.7958 0.832244C53.8462 1.12336 53.4277 1.32592 52.7489 1.35138C50.7255 1.45672 48.6062 1.69516 46.4827 2.09045C45.6997 2.26408 44.9045 2.3914 44.1278 2.61364L42.9552 2.91459L41.7995 3.27805L41.7867 3.24564Z" fill="#2458A4"/>
<path id="Fill 5" fill-rule="evenodd" clip-rule="evenodd" d="M60.0076 16.8498L58.1857 13.6464C57.9646 13.2564 57.7204 12.8796 57.5057 12.4849C56.7574 11.0889 56.0351 9.67562 55.388 8.22064C55.1027 7.57475 54.8064 6.92829 54.5494 6.26851C54.2195 5.42932 53.8798 4.53573 53.984 3.55532C54.0176 3.2509 54.2056 3.32209 54.4082 3.5478C54.5951 3.77525 54.8724 4.12597 55.013 4.57335C55.5136 6.19732 56.3372 7.80336 57.0635 9.46495C57.5092 10.4592 58.1226 11.4171 58.6811 12.3836L60.5482 15.5679L61.7196 17.52C62.3151 18.5033 62.8997 19.5017 63.5085 20.4699C63.9808 21.2246 64.5016 21.9301 64.9722 22.6836C65.0723 22.852 65.1788 23.0124 65.2731 23.186C65.6337 23.8284 65.5833 24.1207 65.4386 24.3597C65.4016 24.4158 65.3715 24.4812 65.331 24.5223C65.1973 24.6578 64.9201 24.4662 64.5682 24.068C63.6312 22.8306 62.7868 21.4318 61.9048 20.0318C61.2566 18.9895 60.6182 17.9292 59.9845 16.866L60.0076 16.8498Z" fill="#2458A4"/>
<path id="Fill 7" fill-rule="evenodd" clip-rule="evenodd" d="M56.2779 26.9527C55.0718 27.3549 53.8975 27.8798 52.7753 28.5026C52.3621 28.7254 51.9882 29.0101 51.5877 29.252C50.197 30.1399 48.8653 31.1509 47.7066 32.3472C47.184 32.8698 46.7337 33.4636 46.3165 34.0632C45.7939 34.8474 45.3702 35.682 44.8123 36.4442C44.6323 36.6786 44.3279 36.4876 44.1409 36.0998C43.9575 35.7161 43.8788 35.1096 44.1878 34.613C45.2359 32.8345 46.6388 31.273 48.2825 30.0374C49.2629 29.3001 50.23 28.4759 51.2926 27.8173C52.4582 27.095 53.6869 26.4775 54.9607 25.9786C55.7437 25.6702 56.5471 25.4143 57.3561 25.1881C58.5871 24.8576 59.8569 24.6579 61.1267 24.5665C62.1135 24.5034 63.1049 24.46 64.1177 24.64C64.3411 24.6747 64.5616 24.7123 64.7827 24.7847C65.6045 25.0497 65.8053 25.3223 65.7637 25.7188C65.7544 25.8102 65.7538 25.9069 65.7272 25.989C65.6242 26.2738 65.2596 26.2946 64.7694 26.1748C63.3034 25.8137 61.6464 25.8177 59.9779 26.0597C58.7399 26.2385 57.4962 26.5545 56.2912 26.9845L56.2779 26.9527Z" fill="#2458A4"/>
<path id="Fill 10" fill-rule="evenodd" clip-rule="evenodd" d="M56.6372 27.8894C55.5751 28.3281 54.5456 28.8692 53.5599 29.4844C53.2005 29.7101 52.8591 29.963 52.5107 30.205C51.2716 31.0459 50.0892 31.9852 49.0023 33.0269C48.5161 33.4853 48.0809 33.9981 47.6486 34.4964C47.1121 35.151 46.5993 35.835 46.1757 36.5429C46.0466 36.7628 45.9418 36.6962 45.9164 36.4306C45.8851 36.162 45.969 35.7008 46.2301 35.2534C47.1578 33.6786 48.4461 32.4036 49.8426 31.2745C50.6835 30.6055 51.5279 29.8733 52.4377 29.2529C53.4367 28.5735 54.4859 27.9646 55.5809 27.4466C56.2523 27.1243 56.9474 26.8488 57.6546 26.6109C58.7264 26.2515 59.8481 26.0171 60.9732 25.9245C61.8453 25.8539 62.7227 25.8238 63.5966 25.9778C63.7917 25.9969 63.9775 26.0437 64.169 26.0906C64.5244 26.1797 64.7437 26.2851 64.8844 26.3887C65.0256 26.49 65.0881 26.5907 65.1147 26.7197C65.1269 26.7787 65.1489 26.8407 65.1465 26.8939C65.1379 27.0716 64.8201 27.1017 64.3508 26.9854C63.6366 26.8557 62.9189 26.7423 62.177 26.7249C61.4356 26.718 60.6821 26.777 59.9303 26.9032C58.8167 27.1052 57.7102 27.4501 56.647 27.9079L56.6372 27.8894Z" fill="#2458A4"/>
<path id="Fill 12" fill-rule="evenodd" clip-rule="evenodd" d="M55.8478 30.1548C55.397 30.3412 54.9386 30.5125 54.5011 30.7342C54.0554 30.939 53.6156 31.1567 53.1896 31.4015C52.8748 31.5734 52.5715 31.7649 52.2706 31.9582C51.1744 32.592 50.15 33.3449 49.1627 34.1436C48.7477 34.5227 48.3119 34.8896 47.9479 35.3138C47.7089 35.5812 47.4577 35.8388 47.2239 36.1108C46.9935 36.3851 46.7533 36.6513 46.4894 36.8996C46.1613 37.2133 45.9987 36.366 46.5236 35.6732C47.4779 34.4874 48.6372 33.4832 49.8861 32.614C50.271 32.3686 50.6472 32.0983 51.0216 31.8216C51.4106 31.5653 51.8012 31.3071 52.189 31.0507C52.634 30.8001 53.075 30.542 53.5276 30.3059C53.9906 30.0883 54.4368 29.84 54.9108 29.6484L55.779 29.2821L56.6662 28.9626C57.1095 28.7901 57.5795 28.6865 58.0332 28.5448C58.4985 28.4383 58.9604 28.3214 59.428 28.2374C60.1538 28.1095 60.8749 27.9718 61.6278 27.9712C61.7934 27.9729 61.9571 27.9654 62.1238 27.9793C62.7471 28.0511 62.9213 28.2276 62.9931 28.4406C63.0099 28.4904 63.0354 28.5395 63.04 28.583C63.0481 28.6565 62.985 28.7085 62.8664 28.7548C62.7483 28.7988 62.5758 28.8492 62.3767 28.8301C61.1776 28.8173 59.9095 28.9586 58.6426 29.2728C58.1698 29.3689 57.7079 29.5367 57.2368 29.6617C56.7785 29.8348 56.3074 29.9748 55.8571 30.1734L55.8478 30.1548Z" fill="#2458A4"/>
<path id="Fill 14" fill-rule="evenodd" clip-rule="evenodd" d="M13.4808 43.6868C14.9659 44.8339 16.422 46.0198 17.848 47.2409C18.3666 47.6889 18.9124 48.1044 19.4159 48.5703C20.3124 49.3806 21.1782 50.2273 22.0255 51.0931C22.4514 51.5225 22.8554 51.9774 23.2715 52.4167L23.8705 53.1031L24.1564 53.4318C24.1935 53.477 24.2427 53.5377 24.2838 53.5945L24.381 53.7206L24.6027 53.9955C24.6217 54.0141 24.6397 54.0476 24.6588 54.0546C24.6681 54.0268 24.6733 53.9978 24.6796 53.9701L24.7196 53.7982C24.7473 53.6842 24.7797 53.5713 24.8151 53.4631L24.8712 53.3039C24.914 53.1997 24.9655 53.0771 25.0194 52.963C25.3244 52.3004 25.7341 51.6574 26.2903 51.1342C26.8418 50.6093 27.5456 50.2331 28.2771 50.0785C28.7442 49.9923 28.7361 50.3679 28.5121 50.7956C28.2806 51.2355 27.9276 51.739 27.468 52.1308C26.9478 52.5724 26.5368 53.15 26.2301 53.8341C26.2179 53.8543 26.1716 53.9747 26.1334 54.0725C26.0941 54.1715 26.0542 54.2704 26.0223 54.3764C25.9511 54.5789 25.8944 54.8017 25.836 55.0234L25.7451 55.3527C25.6814 55.3892 25.6178 55.4308 25.5547 55.4638L25.2242 55.5009L25.0078 55.5286L24.9563 55.5362C24.9372 55.447 25.1137 56.3169 25.0385 55.9482H25.0367L25.0344 55.9471L25.0292 55.9448L25.0188 55.9401L24.9974 55.932L24.9557 55.9147L24.7879 55.8452L24.1229 55.5599C23.7895 55.1542 23.4862 54.756 23.1425 54.3578L22.6355 53.7507C22.312 53.345 21.9554 52.9613 21.6169 52.5608C20.5306 51.3217 19.2127 50.2099 17.9418 49.0958C16.5395 47.8723 15.1007 46.6824 13.6295 45.533C12.7226 44.827 11.8094 44.1272 10.8764 43.4571C9.47409 42.4344 8.01043 41.4592 6.5786 40.4568C5.46508 39.6836 4.33999 38.9659 3.25425 38.1574C3.01465 37.9803 2.77389 37.8125 2.54123 37.6215C1.67774 36.9096 1.48848 36.5763 1.57298 36.1486C1.59266 36.0508 1.60018 35.9414 1.63722 35.8592C1.76686 35.5808 2.2397 35.7255 2.87749 36.1868C4.78274 37.548 6.80547 38.9758 8.87393 40.3804C10.4192 41.406 11.994 42.5253 13.4993 43.6573L13.4808 43.6868Z" fill="#2458A4"/>
<path id="Fill 16" fill-rule="evenodd" clip-rule="evenodd" d="M25.9586 53.4192C26.1692 53.1391 26.3892 52.8659 26.6155 52.5974C26.7 52.5013 26.7694 52.3925 26.8556 52.2976C27.1705 51.9689 27.5091 51.6598 27.8852 51.389C28.0531 51.2686 28.2227 51.1465 28.4067 51.0365C28.6486 50.9213 28.942 50.768 29.254 50.8878C29.3483 50.9167 29.2957 51.055 29.2193 51.1968C29.1371 51.3409 29.0757 51.474 28.9895 51.5163C28.6799 51.6315 28.2898 51.8913 27.898 52.1685C27.659 52.3375 27.4807 52.5887 27.2897 52.8214C27.0738 53.0731 26.8678 53.3382 26.6704 53.6108C26.546 53.7763 26.4308 53.9499 26.3163 54.1224C26.1473 54.3881 25.9754 54.6554 25.8365 54.9361C25.7236 55.152 25.6692 55.3916 25.5807 55.615C25.5616 55.6648 25.5494 55.7157 25.5268 55.7643C25.4441 55.9432 25.3735 55.9796 25.1993 55.9466C25.1593 55.9391 25.1182 55.9351 25.0806 55.9241C24.9533 55.887 24.8873 55.7666 24.907 55.6115C24.9504 55.1439 25.1559 54.7185 25.3758 54.3007C25.5488 53.9962 25.7462 53.7022 25.9435 53.4105L25.9586 53.4192Z" fill="#2458A4"/>
<path id="Fill 18" fill-rule="evenodd" clip-rule="evenodd" d="M15.8471 50.321L12.5158 47.7068C12.1089 47.3972 11.683 47.113 11.2686 46.8127C10.5371 46.2837 9.79336 45.7692 9.04156 45.2628C8.2915 44.7546 7.5397 44.2447 6.75897 43.7858C6.07141 43.3691 5.36881 42.9674 4.67373 42.575C3.7784 42.0738 2.89002 41.5553 2.03867 40.9748C1.77418 40.7919 1.8691 40.7057 2.16716 40.7248C2.46405 40.7456 2.97336 40.8585 3.50407 41.1276C4.44975 41.5952 5.3636 42.1219 6.27455 42.6549C7.18551 43.1885 8.09762 43.7233 8.96517 44.3379C10.0092 45.0619 11.1343 45.7593 12.1934 46.5204C13.3614 47.3625 14.461 48.2607 15.5942 49.123L17.6679 50.7493C18.7084 51.5793 19.7276 52.4485 20.7184 53.3271C21.4865 54.0123 22.2631 54.6646 22.9785 55.3967C23.1411 55.553 23.2939 55.7115 23.449 55.8776C24.0017 56.5137 24.1128 56.7718 24.0943 57.0212C24.0885 57.0791 24.092 57.1463 24.0758 57.1902C24.0231 57.3372 23.7106 57.1567 23.2638 56.7469C21.9315 55.5385 20.5836 54.2392 19.1379 53.0105C18.0655 52.099 16.9612 51.2077 15.8361 50.3378L15.8471 50.321Z" fill="#2458A4"/>
<path id="Fill 20" fill-rule="evenodd" clip-rule="evenodd" d="M15.7176 51.388C14.6619 50.6501 13.5976 49.922 12.5153 49.2188C12.1241 48.9572 11.7114 48.728 11.3167 48.4717C9.92772 47.563 8.52194 46.6764 7.10226 45.8117C6.46968 45.4326 5.82611 45.0645 5.18949 44.7028C4.37055 44.2375 3.53715 43.804 2.75005 43.2623C2.5035 43.0898 2.61346 43.0036 2.89532 43.014C3.17138 43.0268 3.64133 43.1228 4.11995 43.3746C4.97014 43.8237 5.82148 44.2722 6.65604 44.7555C7.48829 45.2428 8.30953 45.7527 9.12499 46.2799C10.0961 46.9177 11.1535 47.5046 12.1559 48.1423C13.2579 48.8444 14.3505 49.562 15.4276 50.304C16.0972 50.749 16.7443 51.2306 17.4029 51.6918C18.3896 52.4077 19.3625 53.1532 20.3076 53.9142C20.685 54.1961 21.0345 54.5092 21.398 54.8038L21.9397 55.2506L22.4455 55.7471C22.5931 55.8941 22.739 56.0394 22.8877 56.187C23.3779 56.8097 23.4705 57.0626 23.4161 57.2895C23.4051 57.341 23.4034 57.3995 23.3866 57.4348C23.3397 57.5459 23.0237 57.3809 22.6684 56.9862C21.5404 55.8571 20.2185 54.7569 18.8515 53.6908L17.2981 52.5293L15.7083 51.4042L15.7176 51.388Z" fill="#2458A4"/>
<path id="Fill 22" fill-rule="evenodd" clip-rule="evenodd" d="M41.9047 10.903C42.5199 10.6449 43.1565 10.4446 43.792 10.2594C44.0218 10.1859 44.2515 10.1124 44.4854 10.054C45.3147 9.86183 46.1516 9.72178 46.9913 9.6367C47.3646 9.59272 47.7339 9.54815 48.1037 9.50417C48.341 9.48275 48.5783 9.45034 48.8173 9.43472C49.0563 9.43009 49.2959 9.43935 49.5344 9.4706C49.829 9.50532 49.4557 10.058 48.9365 10.1269C48.0036 10.2172 47.0799 10.3266 46.1365 10.4429C45.5699 10.5054 45.008 10.7016 44.4535 10.8683C43.8424 11.0506 43.2399 11.2647 42.6478 11.5061C42.2844 11.6571 41.9215 11.8116 41.5719 11.9922C41.0377 12.2573 40.5151 12.5542 40.0301 12.8939C39.6615 13.1706 39.3368 13.4877 39.0144 13.8049L38.8066 14.0167C38.541 14.2742 38.4137 14.3072 38.1909 14.1903C38.1405 14.1637 38.0849 14.1417 38.0398 14.1099C37.887 14.0034 37.8992 13.7887 38.0757 13.5537C38.5977 12.8575 39.3125 12.2723 40.0938 11.8076C40.6702 11.4563 41.2773 11.153 41.8949 10.8839L41.9047 10.903Z" fill="#2458A4"/>
<path id="Fill 24" fill-rule="evenodd" clip-rule="evenodd" d="M43.686 16.0163C44.1432 15.7825 44.6149 15.5811 45.0877 15.3895C45.2585 15.3166 45.424 15.2327 45.5988 15.169C46.2163 14.9497 46.8431 14.765 47.4716 14.6041C47.7488 14.5278 48.0255 14.4467 48.2975 14.3605C48.6459 14.2494 48.9989 14.1348 49.3734 14.1354C49.6031 14.1261 49.4347 14.7216 49.0551 14.8646C48.3646 15.0799 47.6776 15.2784 46.9669 15.4567C46.5392 15.5585 46.1353 15.7755 45.7284 15.955C45.2799 16.1529 44.836 16.3636 44.4013 16.5939C44.1322 16.7322 43.866 16.8775 43.6079 17.0361C43.216 17.2734 42.8254 17.5222 42.4706 17.8093C42.1992 18.0379 41.97 18.3053 41.7321 18.5611C41.6818 18.6184 41.6297 18.6774 41.5799 18.7335C41.3785 18.9367 41.2703 18.9535 41.0619 18.8244C41.0145 18.7955 40.9635 18.7694 40.9207 18.7359C40.7737 18.6236 40.7581 18.4326 40.8825 18.2422C41.2477 17.6744 41.7726 17.2051 42.3473 16.8103C42.7704 16.5106 43.2213 16.2484 43.6744 15.9984L43.686 16.0163Z" fill="#2458A4"/>
<path id="Fill 26" fill-rule="evenodd" clip-rule="evenodd" d="M14.8293 27.7534C15.4839 27.2511 16.1518 26.7643 16.8503 26.3227C17.105 26.1619 17.3457 25.9801 17.6085 25.8314C18.0697 25.5605 18.5414 25.3244 18.9928 25.0773C19.4518 24.8284 19.9165 24.5767 20.3934 24.3428C20.8165 24.1362 21.243 23.9244 21.6875 23.7508C22.2506 23.5343 22.8873 23.3237 23.5401 23.4776C23.7421 23.5239 23.6692 23.6894 23.5019 23.8457C23.3312 23.9956 23.0991 24.164 22.8132 24.2201C21.7726 24.4383 20.7436 25.0344 19.6746 25.5744C19.027 25.9124 18.3962 26.3262 17.7937 26.7267C17.1246 27.17 16.4631 27.6307 15.8213 28.1209C15.4254 28.4213 15.0377 28.7338 14.658 29.0562C14.0862 29.5481 13.5161 30.0516 12.9947 30.5916C12.5872 31.0089 12.2284 31.4586 11.8557 31.8984C11.7741 31.9962 11.6977 32.0946 11.6109 32.189C11.2891 32.5374 11.1444 32.6097 10.9175 32.5432C10.8654 32.5281 10.8093 32.5189 10.7647 32.4974C10.6143 32.4234 10.6438 32.1878 10.8342 31.8851C11.4019 30.9904 12.1213 30.1396 12.9345 29.3762C13.5323 28.8027 14.1672 28.2616 14.8143 27.7366L14.8293 27.7534Z" fill="#2458A4"/>
<path id="Fill 28" fill-rule="evenodd" clip-rule="evenodd" d="M36.3091 41.2044C36.2993 41.845 36.3427 42.4817 36.4747 43.0697C36.5013 43.2207 36.5464 43.3596 36.5933 43.4968C36.6321 43.6409 36.6917 43.7671 36.7525 43.8915C36.8034 44.0258 36.8838 44.1276 36.955 44.2388L36.9984 44.3088L37.0401 44.347C37.08 44.3829 37.1229 44.4361 37.1553 44.4477C37.2351 44.5038 37.2513 44.5189 37.2838 44.5114C37.3127 44.5299 37.3364 44.5056 37.407 44.472C37.5529 44.3771 37.7439 44.1496 37.9019 43.9002C38.2236 43.3834 38.4945 42.7751 38.7497 42.1593C39.1288 41.2565 39.4303 40.3114 39.8812 39.3715C40.0392 39.0474 40.2088 38.7221 40.4657 38.3887C40.7441 37.9778 41.3975 37.5918 41.9224 37.8708C42.9636 38.376 43.2327 39.3101 43.2889 40.0833C43.3444 40.8727 43.2287 41.6078 43.0817 42.319C42.9324 43.0286 42.7292 43.7202 42.5434 44.3875C42.4954 44.5559 42.4572 44.7151 42.4196 44.8737C42.371 45.0565 42.331 45.2516 42.2714 45.4217C42.1632 45.7753 42.037 46.1064 41.9201 46.4369C41.3859 47.8739 41.0173 49.3567 41.2413 50.8006C41.3703 51.7238 41.7326 52.5982 42.2124 53.4068L42.5978 54.0364C42.746 54.2865 42.8421 54.5278 42.9364 54.7639C43.121 55.2327 43.268 55.6957 43.4828 56.0725C43.6153 56.2994 43.6541 56.4024 43.5898 56.4718C43.5302 56.5332 43.3352 56.5297 43.0776 56.3613C42.8207 56.1992 42.5336 55.8832 42.268 55.5007C42.1337 55.3109 42.0029 55.1031 41.8738 54.9046C41.8102 54.8044 41.7453 54.713 41.684 54.6273C41.6348 54.5724 41.5434 54.441 41.4566 54.3113C40.824 53.4316 40.3656 52.387 40.1619 51.2833C39.9559 50.1779 40.0299 49.0372 40.2695 47.9821C40.5057 46.9294 40.9403 45.9443 41.2337 45.0548C41.2737 44.9414 41.2933 44.8412 41.3258 44.7342L41.4247 44.3464L41.6429 43.6027C41.7882 43.1195 41.9248 42.6443 42.0405 42.168C42.1962 41.5163 42.3015 40.8438 42.2599 40.2193C42.2477 39.9033 42.1678 39.6215 42.0608 39.3784C41.9878 39.2754 41.9381 39.1504 41.8385 39.0804C41.7911 39.0439 41.7639 38.9831 41.7037 38.96C41.6308 38.9224 41.6383 38.9218 41.618 38.9085C41.5422 38.8564 41.445 38.894 41.39 38.9588C41.39 38.9588 41.2893 39.0775 41.2378 39.1573C41.177 39.2534 41.1145 39.3501 41.0578 39.4589C40.8263 39.8889 40.6255 40.3698 40.4275 40.8519C39.898 42.1049 39.4957 43.4187 38.6681 44.6757C38.4389 44.9796 38.1918 45.3164 37.6929 45.5213C37.436 45.5994 37.1431 45.6197 36.8954 45.5138C36.6413 45.4252 36.4637 45.2799 36.3138 45.137C35.7107 44.4836 35.5157 43.7688 35.3687 43.0494C35.0695 41.2802 35.2946 39.5509 35.6314 37.8731C35.7952 37.097 36.003 36.3324 36.2692 35.5766C36.3375 35.3885 36.4093 35.2021 36.4839 35.0198L36.6587 34.6002C36.7004 34.5007 36.7426 34.3994 36.7791 34.2958C36.8011 34.2026 36.8827 34.0603 36.7773 33.9943C36.5262 33.8131 36.2142 33.9989 36.0227 34.1835C35.9665 34.2408 35.9335 34.2651 35.8606 34.3537C35.7842 34.4399 35.709 34.5279 35.6407 34.6234C35.4977 34.8086 35.3664 35.0071 35.2454 35.212C34.2852 36.8562 33.7997 38.7522 33.6764 40.6135C33.6544 41.025 33.6486 41.426 33.666 41.8364C33.7638 43.3504 33.861 43.8151 33.7684 44.2127C33.7487 44.303 33.7412 44.4176 33.714 44.4801C33.6683 44.5849 33.5543 44.5004 33.3714 44.2434C33.1978 43.9858 32.9674 43.5437 32.8164 42.936C32.402 41.1176 32.6208 39.1921 33.1636 37.3777C33.4408 36.4661 33.8026 35.572 34.3061 34.716C34.4305 34.5013 34.5694 34.2906 34.7187 34.0823C34.7986 33.9792 34.8698 33.8745 34.9572 33.7738L35.088 33.6216C35.1343 33.5602 35.2275 33.4717 35.3096 33.4005C35.4769 33.2489 35.6407 33.0856 35.8224 32.9896C36.0001 32.8588 36.1778 32.7945 36.3554 32.7332C36.7038 32.6377 37.047 32.6319 37.3578 32.7696C37.4834 32.831 37.6079 32.8987 37.7323 32.9786C37.8857 33.2008 38.0147 33.2917 38.0379 33.5128C38.0813 33.713 38.0367 33.9943 37.9291 34.297C37.8353 34.5846 37.6854 34.9324 37.5853 35.1842L37.4065 35.6304C37.1831 36.204 37.0054 36.8197 36.852 37.4373C36.5476 38.6746 36.356 39.9514 36.3363 41.2015L36.3091 41.2044Z" fill="#2458A4"/>
<path id="Fill 30" fill-rule="evenodd" clip-rule="evenodd" d="M30.6085 38.6139C30.5905 37.6451 30.6189 36.6717 30.7427 35.693C30.7861 35.3365 30.8191 34.9736 30.9031 34.6159C30.9962 34.2195 31.1259 33.8219 31.3059 33.4335C31.3938 33.2397 31.5009 33.0475 31.6317 32.8646C31.755 32.6823 31.8985 32.5139 32.1555 32.298C32.2243 32.2431 32.3036 32.2106 32.3835 32.1777C32.4593 32.1325 32.5444 32.1186 32.6324 32.1151C32.8037 32.1076 32.9761 32.1481 33.1312 32.2257C33.2794 32.2928 33.4461 32.4225 33.5364 32.5162C33.6353 32.614 33.7227 32.7159 33.7957 32.823C34.1649 33.3276 34.364 33.8884 34.4931 34.4504C34.6568 35.1686 34.7112 35.9343 34.4595 36.6259C34.3883 36.843 34.1962 36.77 34.0069 36.5617C33.912 36.4575 33.8159 36.3209 33.7401 36.1681C33.6602 36.0154 33.5746 35.8475 33.5809 35.6716C33.5595 35.0616 33.4357 34.4707 33.2291 33.9486C33.1284 33.6911 32.9935 33.448 32.8517 33.2796C32.8043 33.2206 32.8158 33.2275 32.806 33.2119C32.7996 33.1997 32.7898 33.187 32.7776 33.176C32.7522 33.15 32.7117 33.1419 32.6752 33.1557L32.6526 33.1638C32.6399 33.1557 32.5739 33.2304 32.5149 33.286C32.4639 33.3554 32.4084 33.4214 32.3609 33.4978C32.2666 33.6529 32.1856 33.8248 32.119 34.0088C31.9859 34.3769 31.8985 34.7786 31.8267 35.1843C31.6682 36.0784 31.6091 37.0137 31.6097 37.9501C31.6097 38.5266 31.6282 39.1065 31.6711 39.6841C31.7399 40.5591 31.8256 41.4417 31.9905 42.3C32.1173 42.9673 32.3187 43.6057 32.5143 44.2452C32.5565 44.3864 32.6127 44.5201 32.6445 44.6654C32.773 45.1972 32.7533 45.3824 32.5479 45.5659C32.501 45.607 32.457 45.6573 32.4084 45.6886C32.2452 45.7928 32.0247 45.618 31.8418 45.236C31.3053 44.1011 31.0518 42.8163 30.8487 41.5274C30.7045 40.5672 30.6247 39.5938 30.583 38.6163L30.6085 38.6139Z" fill="#2458A4"/>
<path id="Fill 32" fill-rule="evenodd" clip-rule="evenodd" d="M28.3989 41.9956C28.2125 41.3712 28.0441 40.7403 27.8948 40.1008C27.8387 39.8681 27.7617 39.6395 27.7165 39.4023C27.6413 38.9815 27.584 38.5544 27.5632 38.1093C27.558 37.8842 27.5638 37.651 27.5996 37.4032C27.6645 37.1104 27.7507 36.9171 27.8821 36.6995C27.9828 36.5189 28.1975 36.2567 28.4452 36.1659C28.7027 36.0629 28.9944 36.1184 29.2392 36.2475C29.5385 36.4124 29.7028 36.5751 29.8863 36.7597C30.0628 36.9391 30.1919 37.1457 30.2926 37.3668C30.3545 37.5063 30.1994 37.6023 29.9696 37.6307C29.7462 37.6515 29.4129 37.64 29.2427 37.4733C29.0911 37.3309 28.9221 37.1937 28.8144 37.1364C28.8144 37.1364 28.815 37.1214 28.8005 37.1139C28.7919 37.1145 28.7872 37.1017 28.7647 37.1254C28.7247 37.1833 28.6773 37.2424 28.635 37.3321C28.5771 37.4264 28.576 37.4634 28.5407 37.5225C28.5285 37.6133 28.4961 37.6915 28.4892 37.7991C28.4319 38.3015 28.5997 38.8762 28.7224 39.4271C28.8602 40.0395 29.0222 40.6564 29.2051 41.2681C29.3185 41.6443 29.436 42.0199 29.5651 42.3921C29.7636 42.9546 29.9592 43.523 30.2058 44.0624C30.3041 44.2794 30.4077 44.4542 30.531 44.688C30.6537 44.9369 30.7255 45.195 30.7764 45.4271L30.8435 45.713C30.8933 46.04 30.8285 46.0944 30.6595 46.2767L30.5472 46.3999C30.4326 46.533 30.167 46.4509 29.9847 46.1239C29.7572 45.6499 29.7167 45.2569 29.5795 45.0335C29.3984 44.6868 29.2045 44.2568 29.0425 43.8575C28.7936 43.2521 28.5835 42.6282 28.3757 42.0049L28.3989 41.9956Z" fill="#2458A4"/>
<path id="Fill 34" fill-rule="evenodd" clip-rule="evenodd" d="M28.448 47.5668C29.3508 48.5038 30.3776 49.3546 31.4158 50.2233C31.7938 50.5416 32.1931 50.8385 32.5658 51.1718C33.8755 52.3519 35.1175 53.6165 36.1876 55.0298C36.6622 55.6554 37.1304 56.2932 37.5396 56.9623C38.0697 57.813 38.553 58.735 38.7214 59.7437C38.7793 60.0568 38.5785 60.0603 38.3059 59.8757C38.0414 59.6847 37.6716 59.3357 37.4302 58.86C36.6234 57.1336 35.4104 55.6149 34.1302 54.1055C33.3552 53.2038 32.3962 52.4081 31.4569 51.6273C30.4215 50.7644 29.3532 49.9021 28.3444 48.9523C27.7251 48.3678 27.1389 47.7318 26.6035 47.0697C26.2013 46.5615 25.8176 46.032 25.4958 45.4509C25.332 45.1627 25.1943 44.853 25.0872 44.5226C24.9957 44.2274 24.8985 43.6984 25.0993 43.3188C25.2539 43.0167 25.5942 42.8581 25.9275 42.8685C26.0971 42.8546 26.258 42.9229 26.4102 43.0039L26.6307 43.1475L26.7986 43.2742C27.2048 43.596 27.5561 43.9213 27.9173 44.2425C28.0741 44.3837 28.2362 44.5104 28.3855 44.6563C28.9596 45.1656 29.0291 45.3959 29.0597 45.6691C29.0644 45.7327 29.0852 45.8022 29.0835 45.8566C29.08 45.9486 28.9949 45.9857 28.8115 45.9712C28.6344 45.9527 28.3704 45.8815 28.1042 45.7154C27.7182 45.4578 27.3652 45.1737 27.037 44.871C26.7129 44.5816 26.3709 44.2494 26.0913 44.0266C26.0068 43.9571 26.0196 43.9728 26.0138 43.9728C26.0091 43.9733 26.0051 43.9745 26.0022 43.978C25.9964 43.9832 25.9958 43.9895 25.997 43.9942C26.001 44.0081 25.9958 43.9797 26.0074 44.0208C26.0421 44.1643 26.1035 44.3339 26.1839 44.5075C26.6845 45.5568 27.5694 46.6252 28.4654 47.5466L28.448 47.5668Z" fill="#2458A4"/>
<path id="Fill 36" fill-rule="evenodd" clip-rule="evenodd" d="M22.4922 27.8309C22.7213 27.6601 22.9546 27.4935 23.1936 27.3355C23.2827 27.2793 23.3562 27.2047 23.4494 27.1537C23.7689 26.9656 24.108 26.8088 24.4437 26.6566C24.5965 26.5952 24.7394 26.5154 24.8911 26.4552C25.0803 26.3672 25.2754 26.2775 25.493 26.274C25.6244 26.2659 25.5902 26.7382 25.4085 26.8447C25.2401 26.9367 25.0751 27.0264 24.9015 27.1207C24.7232 27.1942 24.5456 27.2764 24.3552 27.3441C24.1289 27.431 23.9402 27.5994 23.7394 27.7394C23.5194 27.8968 23.2908 28.0473 23.0744 28.2163C22.9395 28.3176 22.8058 28.4229 22.6762 28.5323C22.48 28.699 22.2821 28.8668 22.1027 29.0509C21.9597 29.1909 21.8619 29.3715 21.7201 29.5127C21.6894 29.5446 21.6628 29.5799 21.6298 29.6094C21.5037 29.7188 21.4325 29.7228 21.3121 29.6435C21.2849 29.6256 21.2559 29.6094 21.2311 29.5891C21.1489 29.522 21.1356 29.4091 21.1865 29.2945C21.3242 28.9403 21.5638 28.6515 21.8364 28.3842C22.039 28.1868 22.2607 28.0028 22.4806 27.8187L22.4922 27.8309Z" fill="#2458A4"/>
<path id="Fill 38" fill-rule="evenodd" clip-rule="evenodd" d="M36.637 27.8819C35.6346 26.7718 34.6091 25.6809 33.5604 24.6125L32.389 23.4666C31.0301 22.1025 29.6399 20.7679 28.215 19.472C27.5801 18.9002 26.9204 18.3498 26.2565 17.8255C25.8283 17.491 25.3925 17.164 24.9543 16.8474C24.5156 16.5418 24.0891 16.1795 23.6643 15.9318C23.5416 15.8612 23.5277 15.8248 23.5208 15.7559C23.519 15.7021 23.6116 15.6228 23.7905 15.6141C24.1389 15.5921 24.7263 15.7281 25.2611 16.0858C27.1119 17.4053 28.8036 18.8736 30.412 20.464C31.3698 21.4178 32.4202 22.3502 33.4024 23.3207C34.4817 24.388 35.5368 25.4806 36.5722 26.5907C37.2077 27.2754 37.8379 27.9658 38.4578 28.6638C39.4006 29.7188 40.3156 30.8069 41.2184 31.8834C41.9164 32.7226 42.6294 33.5259 43.2984 34.3789C43.4466 34.5665 43.593 34.7493 43.736 34.9432C44.2603 35.6661 44.3246 35.9682 44.2777 36.2275C44.2644 36.2882 44.2598 36.36 44.2383 36.4046C44.1666 36.5533 43.8523 36.3293 43.4194 35.8484C42.1786 34.3923 40.9314 32.8221 39.6158 31.2849C38.6418 30.1425 37.6469 29.0052 36.6231 27.8975L36.637 27.8819Z" fill="#2458A4"/>
<path id="Fill 40" fill-rule="evenodd" clip-rule="evenodd" d="M11.281 43.116C12.5288 44.0304 13.7592 44.9668 14.9706 45.9258C15.4127 46.2765 15.8653 46.6128 16.3023 46.9687C17.836 48.2333 19.3268 49.5499 20.7662 50.921C21.3988 51.5362 22.0551 52.1335 22.6674 52.7614C23.469 53.5508 24.2561 54.3727 24.9124 55.2952C25.119 55.5811 24.9552 55.6477 24.6357 55.5279C24.311 55.411 23.8498 55.1007 23.4134 54.6395C21.8664 52.9976 20.2303 51.4309 18.5565 49.8613C17.5564 48.9203 16.4221 48.0475 15.3207 47.1759C14.1117 46.2146 12.8836 45.2735 11.6347 44.3609C10.8649 43.8012 10.0917 43.2444 9.30576 42.7097C8.10716 41.9023 6.91899 41.0562 5.75338 40.2129C4.8459 39.5578 3.94189 38.9322 3.06508 38.2458C2.87409 38.0924 2.67732 37.9535 2.49559 37.7851C1.8063 37.178 1.65814 36.9042 1.64483 36.638C1.64309 36.5761 1.63036 36.5049 1.64078 36.4574C1.67897 36.296 2.02391 36.4684 2.56215 36.8498C4.12825 38.0137 5.76554 39.254 7.46764 40.4392C8.7218 41.3218 10.0165 42.1853 11.2915 43.0986L11.281 43.116Z" fill="#2458A4"/>
<path id="Fill 42" fill-rule="evenodd" clip-rule="evenodd" d="M16.0269 51.4291C15.0181 50.6877 13.9995 49.9573 12.963 49.2501C12.5885 48.9879 12.1927 48.7558 11.8147 48.4989C10.4842 47.5844 9.13742 46.692 7.77562 45.8221C7.16909 45.4402 6.55041 45.0692 5.93924 44.7057C5.15214 44.2381 4.34941 43.8011 3.5953 43.2635C3.35917 43.0933 3.46798 43.0036 3.74462 43.0123C4.01779 43.0221 4.47558 43.1182 4.938 43.3711C5.75752 43.822 6.57761 44.2734 7.37918 44.7601C8.17785 45.2503 8.96611 45.7637 9.74685 46.2944C10.6769 46.9368 11.6932 47.5277 12.6545 48.1695C13.7101 48.8756 14.7565 49.5973 15.7873 50.3416C16.4291 50.7884 17.0466 51.2722 17.6781 51.7335C18.6214 52.4511 19.5503 53.1977 20.4549 53.9553C20.8166 54.236 21.1477 54.5514 21.4984 54.8414C21.8514 55.1273 22.1871 55.4375 22.5014 55.7749C22.6432 55.9196 22.7832 56.0626 22.9256 56.2078C23.3921 56.8213 23.4818 57.0644 23.4198 57.2912C23.4077 57.3422 23.4042 57.4001 23.3863 57.4354C23.3365 57.5465 23.0246 57.3879 22.6796 57.0019C21.5869 55.8959 20.3328 54.7951 19.0219 53.7354L17.5374 52.5733L16.017 51.4453L16.0269 51.4291Z" fill="#2458A4"/>
<path id="Fill 44" fill-rule="evenodd" clip-rule="evenodd" d="M40.5788 56.8399C40.2043 57.0274 39.8217 57.1877 39.4334 57.3307C39.291 57.3822 39.1602 57.4592 39.0138 57.5008C38.4999 57.653 37.9616 57.7456 37.3956 57.7283C37.145 57.7161 36.88 57.7069 36.6027 57.5975C36.4274 57.5338 36.2404 57.4024 36.1305 57.2219C36.013 57.0419 35.991 56.8347 36.0257 56.6628C36.0454 56.5488 36.2323 56.5823 36.4239 56.6391C36.6103 56.7039 36.8146 56.7502 36.8458 56.7618C36.8666 56.7901 36.8915 56.7797 36.9297 56.8005C36.9778 56.8121 37.0466 56.8353 37.1473 56.8393C37.3389 56.8578 37.5883 56.8468 37.8505 56.8353C38.1706 56.8254 38.4825 56.6726 38.7945 56.5528C39.1406 56.422 39.4867 56.2739 39.8217 56.102C40.026 55.9943 40.2321 55.8849 40.4242 55.7559C40.7159 55.5643 41.0099 55.3635 41.2374 55.11C41.4122 54.9138 41.5215 54.6667 41.5893 54.4543C41.6026 54.4074 41.602 54.3594 41.6188 54.3177C41.6604 54.169 41.7235 54.1724 42.0198 54.1661L42.2213 54.1585C42.4423 54.1452 42.6258 54.2951 42.6131 54.5503C42.5535 55.2911 42.0974 55.7692 41.6599 56.1483C41.3253 56.4296 40.9596 56.653 40.5926 56.8613L40.5788 56.8399Z" fill="#2458A4"/>
<path id="Fill 46" fill-rule="evenodd" clip-rule="evenodd" d="M41.1685 57.5126C41.1644 57.5207 41.1609 57.5317 41.1586 57.545C41.1586 57.5589 41.1534 57.5444 41.1592 57.5913L41.1858 57.7748C41.2038 57.905 41.2246 58.0167 41.2379 58.2007C41.2379 58.2545 41.2489 58.2881 41.2286 58.4287C41.2165 58.4779 41.2211 58.4832 41.1893 58.5653C41.1343 58.6793 41.073 58.7691 40.9387 58.8443C40.794 58.9433 40.5093 58.9039 40.511 58.8871C40.4508 58.8674 40.3918 58.8391 40.3403 58.8044C40.158 58.6568 40.1747 58.6383 40.0885 58.5358C39.8946 58.2256 39.8946 58.0225 39.8489 57.8494C39.8136 57.6717 39.7829 57.5097 39.7441 57.3731C39.7279 57.3129 39.7077 57.2591 39.688 57.2232C39.6828 57.1723 39.622 57.1862 39.6828 57.1433C39.7852 57.0241 39.7551 57.0189 39.7604 57.0565C39.7563 57.086 39.7604 57.1717 39.7806 57.2035L39.7546 57.097L39.7453 57.071C39.7331 57.0473 39.7308 57.0426 39.7308 57.0426C39.7117 57.0189 39.7546 57.0774 39.8628 57.119C39.8697 57.1179 39.8524 57.141 39.8489 57.1769C39.8356 57.2487 39.8367 57.3598 39.8472 57.4744C39.853 57.5346 39.8582 57.5855 39.8697 57.659L39.9334 57.9901C39.9803 58.21 40.0306 58.4293 40.059 58.6273C40.1157 59.0382 40.059 59.2587 39.9629 59.4618C39.9357 59.5122 39.8964 59.5712 39.8194 59.6088C39.7441 59.6441 39.6718 59.6453 39.6076 59.6372C39.4785 59.6204 39.368 59.5695 39.2476 59.4989C39.2314 59.4925 39.2146 59.4798 39.1978 59.4699C38.9842 59.3513 38.7209 59.0804 38.4807 58.7714C38.369 58.6302 38.2215 58.4478 38.1479 58.379C38.1121 58.3437 38.0721 58.3066 38.0484 58.291C38.0409 58.2852 38.0409 58.2875 38.0374 58.2841C38.0374 58.2742 38.0843 58.2071 38.0907 58.1619C38.1242 58.0861 38.0883 58.0514 38.1132 58.0815C38.1381 58.111 38.1734 58.1214 38.2463 58.1515C38.3395 58.1724 38.2984 58.1666 38.3071 58.1758C38.3065 58.1903 38.3042 58.2158 38.3065 58.2464C38.3094 58.3049 38.3158 58.3657 38.3297 58.4276C38.3551 58.5514 38.3985 58.6788 38.4518 58.8055C38.5658 59.0561 38.674 59.3293 38.8106 59.599C38.8916 59.768 38.7689 59.8392 38.5409 59.7992C38.3233 59.7547 37.9546 59.6106 37.7486 59.2419C37.6369 59.0208 37.542 58.776 37.4951 58.4924C37.4783 58.3373 37.4546 58.2308 37.4945 57.9848C37.5154 57.9113 37.5269 57.8245 37.6404 57.6798C37.6907 57.615 37.8123 57.523 37.9153 57.4941C37.9709 57.4767 38.0305 57.4663 38.0878 57.464C38.1393 57.4622 38.1694 57.4669 38.2116 57.4732C38.4923 57.5415 38.5241 57.6168 38.6069 57.6683C38.6711 57.7215 38.7215 57.7707 38.7661 57.8159C38.8153 57.865 38.8008 57.854 38.8054 57.861L38.8089 57.8784C38.8135 57.8963 38.8199 57.9125 38.8425 57.9594C38.8587 57.9802 38.8905 58.0468 38.9443 58.0728C38.9877 58.0832 39.0005 58.0728 39.0195 58.052C39.0352 58.0311 39.0346 57.9854 39.0294 57.9316L38.9796 57.6092C38.9565 57.3864 38.9102 57.1595 39.0149 56.8192C39.0641 56.6526 39.232 56.4332 39.4455 56.3545C39.5491 56.3076 39.6469 56.3018 39.7488 56.2926C39.8547 56.2978 39.9843 56.3123 40.0792 56.369C40.3692 56.5258 40.456 56.7423 40.5289 56.8985C40.5961 57.0635 40.6296 57.2105 40.6644 57.3546L40.7471 57.7562C40.7604 57.8187 40.7743 57.8749 40.7882 57.9241C40.8027 57.971 40.8062 57.9802 40.8218 58.0092L40.8611 58.0612C40.8611 58.0612 40.871 58.074 40.8658 58.0682L40.8635 58.0665L40.8299 58.1023C40.8073 58.1272 40.7865 58.1538 40.7668 58.1816C40.7246 58.2511 40.6991 58.2615 40.6852 58.2991C40.673 58.3489 40.6684 58.3477 40.6725 58.357C40.6875 58.3049 40.2048 58.2991 40.3368 58.2875L40.3304 58.2019L40.2644 57.7476C40.2025 57.3691 40.1562 56.9419 40.1979 56.6202C40.2396 56.2914 40.3241 56.0356 40.533 55.8313C40.5758 55.7943 40.6238 55.7613 40.6759 55.7318C40.7309 55.7017 40.7899 55.6681 40.8189 55.6947C40.8918 55.7179 40.9595 55.748 41.0324 55.7758C41.1517 55.9181 41.272 56.0582 41.3965 56.2185L41.7698 56.7463C41.83 56.8297 41.9012 56.9309 41.9544 56.9946C41.9978 57.0513 42.0418 57.0988 42.0852 57.1468C42.1269 57.1885 42.1761 57.2377 42.2073 57.255C42.22 57.2626 42.2484 57.284 42.2351 57.2712C42.2287 57.2759 42.2131 57.3419 42.2171 57.3795C42.2154 57.3939 42.2102 57.387 42.2108 57.3986C42.2108 57.402 42.2125 57.4084 42.2148 57.4119C42.2073 57.3939 42.1981 57.3783 42.1871 57.365C42.1674 57.339 42.1309 57.3164 42.1124 57.3152C42.1118 57.3123 42.117 57.2857 42.1222 57.2741C42.1263 57.2383 42.1344 57.196 42.1257 57.148C42.1182 57.0548 42.0655 56.9367 42.0076 56.8227C41.8832 56.5872 41.698 56.3505 41.5296 56.0622C41.4549 55.9361 41.3733 55.8006 41.3207 55.6206C41.2703 55.4551 41.2622 55.2746 41.3004 55.1183C41.3438 54.9707 41.4167 54.8388 41.4954 54.7855C41.6517 54.6495 41.7831 54.679 41.904 54.745C41.9579 54.7751 42.0134 54.8023 42.0499 54.8399C42.1714 54.9539 42.0684 55.2693 42.1465 55.289C42.1743 55.3249 42.2588 55.5171 42.4105 55.7277C42.5534 55.9442 42.7282 56.1791 42.8798 56.5108C42.9539 56.6728 43.0251 56.8771 43.039 57.1347C43.0436 57.2626 43.0291 57.4073 42.9869 57.5537C42.9603 57.6312 42.9279 57.7076 42.892 57.7811C42.8138 57.8975 42.7074 58.0207 42.558 58.0977C42.3763 58.1863 42.1298 58.1955 42.036 58.1567C41.9712 58.1411 41.9075 58.1203 41.8479 58.0948C41.8045 58.074 41.7785 58.056 41.7437 58.0352C41.595 57.9449 41.5417 57.8801 41.4555 57.8037C41.3953 57.7377 41.3247 57.666 41.2755 57.6029L41.2356 57.5543C41.2263 57.5433 41.235 57.5531 41.2321 57.5496V57.5502C41.2321 57.5502 41.2333 57.5479 41.2304 57.5369C41.2252 57.5045 41.1962 57.5027 41.1939 57.5276L41.1685 57.5126Z" fill="#2458A4"/>
</g>
</svg>
