<svg width="65" height="65" viewBox="0 0 65 65" fill="none" xmlns="http://www.w3.org/2000/svg">
<g id="Black">
<path id="Vector" d="M26.7074 0.910942C23.2902 1.02409 20.0767 1.18251 19.5789 1.2504C18.4474 1.40881 17.3611 2.04246 16.8406 2.83452C16.207 3.80762 15.8449 8.78629 15.6865 18.5626L15.5507 27.5242L14.3286 28.2936C12.8124 29.2667 10.9341 31.2356 10.0062 32.8649C8.76158 35.0375 8.28634 36.9384 8.28634 39.6088C8.28634 42.166 8.64843 43.7954 9.64416 45.7642L10.2099 46.8505L9.57627 47.3936C9.01051 47.8689 8.94262 48.0952 8.94262 49.2946V50.6297L4.95969 55.3595C-0.313178 61.6733 0.00364631 61.2207 0.00364631 62.4428C0.0262766 64.0722 0.614665 64.57 2.76454 64.8416L4.0771 65L5.68386 63.4611C6.56644 62.6012 8.67106 60.3834 10.391 58.5051C12.0882 56.6494 13.9213 54.6353 14.487 54.0469L15.5054 52.9833L17.4743 53.6622C20.0767 54.5448 22.385 54.7258 24.7838 54.228C29.6494 53.2322 33.5418 49.9056 35.1938 45.3795L35.8274 43.6822H40.8966C46.2826 43.6822 52.5512 43.4107 58.4804 42.8902C62.3728 42.5734 62.7801 42.4149 63.7306 41.0119C64.4548 39.9482 64.6132 36.2821 64.5906 21.844C64.5453 7.67741 64.3643 3.7171 63.6627 2.76663C62.8028 1.61248 61.9428 1.31829 59.114 1.11462C54.9501 0.820419 33.5644 0.707268 26.7074 0.910942ZM55.9684 2.49506C61.3092 2.72137 62.237 2.90241 62.5538 3.78499C62.6444 4.0113 62.7801 5.57279 62.848 7.24743L62.9838 10.3025L40.263 10.2346C27.771 10.1894 17.5195 10.1215 17.4516 10.0536C17.2479 9.87255 17.9042 4.03392 18.1758 3.62658C18.3116 3.37765 18.6963 3.08345 19.0357 2.94767C20.4162 2.35928 45.9206 2.06509 55.9684 2.49506ZM41.7792 11.7735H63.0743L63.2328 18.6078C63.3912 25.4196 63.097 36.7121 62.7123 39.1335C62.3728 41.2155 62.6217 41.1476 53.6375 41.7587C50.9671 41.9171 45.8979 42.1434 42.4129 42.2339L36.0311 42.3923L36.1443 40.944C36.5969 34.9243 31.5729 28.2257 25.2365 26.4606C23.6976 26.0306 19.4657 26.0759 18.0174 26.5511L16.9085 26.9132L17.0443 19.4452C17.1348 15.3491 17.2479 11.864 17.3385 11.7282C17.429 11.5698 18.0174 11.5472 18.9905 11.6377C19.8052 11.7056 30.0793 11.7735 41.7792 11.7735ZM24.8744 27.9542C28.9026 29.0178 32.365 32.4576 33.5191 36.5537C34.0396 38.4094 33.9039 41.6908 33.225 43.6143C30.2378 52.0328 19.6468 54.4769 13.3555 48.2083C10.9341 45.8095 9.73468 42.9581 9.73468 39.6088C9.75731 37.4363 10.0289 36.2821 11.002 34.2454C12.4051 31.3261 15.4149 28.8141 18.5831 27.9768C20.1673 27.5468 23.3129 27.5242 24.8744 27.9542ZM12.4277 49.4077C13.1292 50.064 13.9439 50.7655 14.2381 50.9918C14.6907 51.286 14.736 51.4218 14.5097 51.6934C14.0118 52.2818 13.4008 52.327 12.3598 51.8518C11.183 51.3539 10.4136 50.2903 10.4136 49.204C10.4136 47.8462 10.8209 47.8689 12.4277 49.4077ZM11.2962 53.1191C11.3414 53.1417 9.46312 55.45 7.1322 58.2562C4.5976 61.3565 2.76454 63.3706 2.51561 63.3706C2.31194 63.3706 1.92722 63.2348 1.70092 63.0538C1.33884 62.8049 1.29357 62.6238 1.47462 62.1486C1.6104 61.8318 3.53398 59.3877 5.77438 56.6947L9.8252 51.8518L10.5267 52.4628C10.8888 52.8023 11.2509 53.0965 11.2962 53.1191Z" fill="#2458A4"/>
<path id="Vector_2" d="M20.7103 5.55018C20.3935 5.84438 20.1445 6.29698 20.1445 6.56855C20.1445 7.79059 22.2492 8.44686 22.9507 7.4285C23.4486 6.72696 23.4033 5.98016 22.8602 5.43703C22.2492 4.82601 21.3666 4.87127 20.7103 5.55018Z" fill="#2458A4"/>
<path id="Vector_3" d="M26.0284 5.43697C25.1005 6.36482 25.8021 7.92631 27.1373 7.92631C28.4951 7.92631 29.174 6.07062 28.133 5.25593C27.5672 4.84858 26.5489 4.91648 26.0284 5.43697Z" fill="#2458A4"/>
<path id="Vector_4" d="M31.0523 5.50486C30.0792 6.54586 30.6676 7.92631 32.0933 7.92631C33.3606 7.92631 34.0621 6.68164 33.3379 5.68591C32.7269 4.87121 31.7086 4.80332 31.0523 5.50486Z" fill="#2458A4"/>
<path id="Vector_5" d="M39.6973 6.22909C39.6068 6.41014 39.6068 6.72696 39.6973 6.908C39.8104 7.2022 40.8288 7.24746 47.5726 7.2022L55.3348 7.13431V6.56855V6.00279L47.5726 5.9349C40.8288 5.88964 39.8104 5.9349 39.6973 6.22909Z" fill="#2458A4"/>
<path id="Vector_6" d="M51.3971 14.6702C50.3108 15.2133 49.7224 16.0733 49.7224 17.1822C49.7224 19.3999 52.0081 20.7351 54.2032 19.8299C55.7421 19.1736 56.3531 17.1822 55.4479 15.7338C54.6106 14.376 52.868 13.9008 51.3971 14.6702Z" fill="#2458A4"/>
<path id="Vector_7" d="M23.177 18.4494C23.0865 18.6305 23.0865 18.9473 23.177 19.1283C23.2902 19.4225 24.648 19.4678 34.2206 19.4225L45.1511 19.3547V18.7889V18.2231L34.2206 18.1552C24.648 18.11 23.2902 18.1552 23.177 18.4494Z" fill="#2458A4"/>
<path id="Vector_8" d="M50.9896 21.3687C48.6813 22.1155 46.2599 24.3559 45.6941 26.2569C45.1962 27.8862 45.0831 27.8636 52.8227 27.7957L59.6344 27.7278L59.7023 27.1168C59.7928 26.3926 58.8876 24.4238 57.9597 23.3149C56.9414 22.0476 55.1988 21.2329 53.4337 21.1424C52.5511 21.0972 51.5554 21.1877 50.9896 21.3687ZM54.7462 22.9076C55.1536 23.0434 55.9004 23.496 56.3982 23.9486C57.2582 24.718 58.0729 25.9627 57.8692 26.1663C57.824 26.2116 55.4025 26.2342 52.4832 26.2116L47.1877 26.1437L48.3192 24.9443C50.3559 22.7265 52.2343 22.1381 54.7462 22.9076Z" fill="#2458A4"/>
<path id="Vector_9" d="M32.5687 23.677C32.365 23.9259 32.3424 24.1296 32.5234 24.4012C32.7271 24.7406 33.2023 24.7859 35.8727 24.7859C38.6336 24.7859 39.0183 24.7406 39.2446 24.3785C39.7425 23.5639 38.9051 23.3149 35.7369 23.3149C33.406 23.3149 32.8176 23.3828 32.5687 23.677Z" fill="#2458A4"/>
<path id="Vector_10" d="M34.5375 29.1083C34.266 29.3799 34.2433 29.5609 34.4244 29.9004C34.628 30.3077 34.877 30.3303 37.4116 30.2851C39.9235 30.2172 40.1725 30.1719 40.2404 29.7872C40.3988 28.9952 39.6746 28.7462 37.2079 28.7462C35.3975 28.7462 34.8091 28.8141 34.5375 29.1083Z" fill="#2458A4"/>
<path id="Vector_11" d="M18.9681 29.6288C15.0757 30.8735 12.3148 34.0643 11.7037 38.0247C11.0248 42.4376 13.4915 47.0315 17.5424 48.9098C23.7431 51.8065 30.9169 48.0273 32.1389 41.2155C33.0441 36.1237 29.627 30.8735 24.5578 29.5383C22.7926 29.0857 20.5748 29.1309 18.9681 29.6288ZM25.6214 31.5071C29.0159 33.0912 30.9621 36.4405 30.7358 40.2198C30.6679 41.125 30.5548 41.9397 30.4869 42.0076C30.3285 42.166 21.0048 41.4871 19.4886 41.1929C17.6781 40.8534 17.5876 40.6271 17.3613 36.0784C17.2482 33.8833 17.2255 32.0502 17.2708 31.9824C17.3387 31.9371 17.9723 31.6429 18.7191 31.3261C19.8507 30.8508 20.3259 30.7829 22.1816 30.8282C23.9467 30.8961 24.5578 31.0093 25.6214 31.5071ZM16.4108 40.8308C17.0445 42.1207 18.0176 42.5733 21.0727 42.8902C22.5663 43.0712 25.1235 43.2749 26.7303 43.3654C28.337 43.4559 29.6496 43.6143 29.6496 43.7275C29.6496 44.2706 28.0655 46.0584 26.9113 46.8278C23.2905 49.2493 18.7191 48.8193 15.6867 45.7642C15.053 45.1306 14.2383 44.0217 13.8989 43.2975C13.3105 42.1207 13.2652 41.736 13.2426 39.6088C13.2426 37.5268 13.3105 37.0742 13.831 35.9879C14.1478 35.309 14.7136 34.3812 15.0757 33.9738L15.7319 33.1818L15.913 36.6442C16.0261 38.9299 16.1845 40.3556 16.4108 40.8308Z" fill="#2458A4"/>
</g>
</svg>
