<svg width="71" height="60" viewBox="0 0 71 60" fill="none" xmlns="http://www.w3.org/2000/svg">
<g id="Icon">
<path id="Fill 1" fill-rule="evenodd" clip-rule="evenodd" d="M11.2974 41.8636C11.2667 41.8787 11.2318 41.9088 11.224 41.9178L11.2589 41.8787C11.3184 41.8137 11.3203 41.783 11.4069 41.6543C11.4388 41.5971 11.4641 41.5345 11.4821 41.4677C11.5158 41.4082 11.5375 41.3396 11.5411 41.2662L11.5405 41.2102C11.4622 42.7655 11.5176 41.641 11.4995 41.9882H11.4977H11.4935L11.4851 41.9876L11.4526 41.987L11.387 41.9846L11.2565 41.9797L10.9875 41.987C10.6241 42.0056 10.2439 42.064 9.85341 42.147C9.06885 42.3113 8.24999 42.5784 7.35292 42.7962C6.99072 42.872 6.60506 43.0272 6.075 43.1464C5.81328 43.2017 5.51786 43.2505 5.15928 43.2258C4.80911 43.2059 4.35245 43.0688 4.02094 42.7643C3.94453 42.6903 3.87053 42.6127 3.80073 42.5321C3.7153 42.4129 3.63829 42.2884 3.57812 42.1458C3.52517 41.9689 3.47584 41.7758 3.4999 41.5953C3.51675 41.4046 3.56909 41.2229 3.63588 41.1092C3.91745 40.6068 4.19422 40.4726 4.42646 40.3041C4.89515 40.0165 5.31872 39.8439 5.74409 39.6694L6.8385 39.2368C6.98651 39.17 7.17603 39.1032 7.28614 38.948C7.33307 38.8698 7.32043 38.7717 7.27049 38.726C7.22176 38.6772 7.15498 38.6676 7.0912 38.6658C6.83068 38.6688 6.52985 38.7783 6.15201 38.8596C6.04612 38.8818 5.98716 38.8938 5.81388 38.9221C5.55697 38.9624 5.21343 39.0064 4.89034 39.0052C4.55762 39.0015 4.19181 38.9618 3.81938 38.7982C3.44275 38.6339 3.10883 38.3289 2.92051 37.939C2.81762 37.7399 2.74843 37.4541 2.79837 37.1611C2.85733 36.8735 3.01316 36.6322 3.16358 36.4926C3.47283 36.1906 3.77366 36.0546 4.06366 35.9217C4.64486 35.6888 5.20741 35.5504 5.76575 35.4229C6.73562 35.2201 7.7085 35.0156 8.67898 34.8122L9.02854 34.7298C9.15308 34.6973 9.16391 34.6919 9.2337 34.669C9.34561 34.6311 9.45572 34.589 9.55439 34.5282C9.65065 34.4759 9.75294 34.3658 9.68856 34.2496C9.65607 34.1353 9.55679 34.0565 9.45933 34.0018C9.32937 33.9296 9.18256 33.9067 9.04238 33.8881C8.81375 33.8568 8.47742 33.8471 8.19043 33.8507C7.58697 33.861 6.97989 33.9284 6.34815 34.0006C5.07384 34.1113 3.87113 34.2515 2.67744 34.5132C1.93319 34.6407 1.92236 34.4001 2.47709 33.8838C3.02881 33.376 4.26762 32.8129 5.76394 32.6853C6.37342 32.633 7.04728 32.5415 7.73377 32.5163C8.08153 32.5078 8.42808 32.4994 8.7951 32.5295C8.88595 32.5349 8.9768 32.5409 9.07186 32.5548L9.22829 32.5752C9.3047 32.5843 9.38231 32.5939 9.46053 32.6125C9.75594 32.701 10.0869 32.7509 10.3317 32.8959C10.8762 33.1324 11.1993 33.5301 11.3365 33.9921L11.4171 34.3519C11.3925 34.4741 11.4135 34.601 11.3792 34.7195C11.301 34.9464 11.1969 35.1425 11.0218 35.3158C10.6801 35.6696 10.0688 35.888 9.49603 36.1118C9.1597 36.2231 8.83601 36.3145 8.51352 36.3988C7.23199 36.687 5.93782 36.8891 4.86627 37.2561C4.60876 37.344 4.36569 37.4517 4.2622 37.5221C4.25137 37.5293 4.25198 37.5323 4.24355 37.5359L4.23333 37.5395C4.23754 37.5437 4.2231 37.5383 4.20866 37.5233L4.17857 37.4944C4.13646 37.4571 4.08592 37.4252 4.02756 37.4011C3.97461 37.3795 3.98965 37.3777 3.95897 37.3692C3.94814 37.3662 3.93611 37.3638 3.92227 37.3632C3.93129 37.365 3.94393 37.3662 3.95355 37.3662C3.98003 37.3662 3.97221 37.362 4.01432 37.3566C4.13104 37.362 4.27123 37.2483 4.24235 37.2952C4.26822 37.3704 4.31756 37.4396 4.45594 37.4998C4.60455 37.557 4.84762 37.5834 5.11295 37.572C5.19477 37.5648 5.27359 37.5654 5.35903 37.5534C5.45589 37.5395 5.4938 37.5437 5.67008 37.5064C5.94865 37.4583 6.30122 37.3692 6.63153 37.2772C7.29637 37.0919 7.99489 36.8675 8.56647 36.7417C9.14346 36.6118 9.54296 36.5895 9.87327 36.5865C10.2018 36.5883 10.4635 36.6148 10.727 36.6876C10.9905 36.7604 11.2962 36.8969 11.5212 37.3319C11.6048 37.5437 11.6488 37.7778 11.603 37.9601C11.5736 38.1418 11.5056 38.2868 11.4225 38.4149C11.1013 38.9107 10.6175 39.3216 9.64945 39.8282C9.0875 40.0948 8.44192 40.3637 7.76927 40.6248L6.75427 41.0111L6.12193 41.2638C5.75372 41.4202 5.35361 41.6091 5.15386 41.774C5.13521 41.7908 5.09851 41.8143 5.10031 41.8203C5.0937 41.8239 5.10212 41.8618 5.00224 41.7746C4.96314 41.7475 4.91741 41.7259 4.86747 41.7108C4.8031 41.6952 4.83017 41.6928 4.80069 41.6867C4.79287 41.6819 4.74353 41.6825 4.76038 41.6837C4.77963 41.6837 4.79467 41.6795 4.8061 41.6735C5.19297 41.4352 5.0582 41.573 5.14002 41.5754C5.22787 41.6392 5.59849 41.6139 5.97392 41.5014L6.59965 41.3185L7.25184 41.1543C8.07551 40.9449 8.92806 40.6717 9.84379 40.5051C10.419 40.4034 10.9695 40.3402 11.6319 40.3872C12.0338 40.46 12.1481 40.5995 12.322 40.7427C12.479 40.8853 12.6 41.0688 12.692 41.2812C12.7769 41.4996 12.8142 41.7692 12.7528 42.0183C12.6987 42.2722 12.5639 42.4779 12.4273 42.6277C11.8467 43.1981 11.2625 43.3401 10.7011 43.4995C10.4172 43.582 10.1392 43.6211 9.85883 43.6758C9.58868 43.7246 9.3787 43.7631 9.13202 43.8353C8.41725 44.0446 7.69286 44.3376 7.11406 44.7582C6.82767 44.9664 6.58039 45.2076 6.43118 45.4591C6.3644 45.5861 6.31446 45.7058 6.2916 45.8352C6.27776 45.9038 6.27656 45.9615 6.27836 45.9898C6.28017 45.9952 6.28017 46 6.27896 46.006C6.27836 46.0109 6.27956 46.0072 6.27956 46.0072C6.26994 46.0085 6.24888 46.0139 6.23444 46.0193C6.15141 46.056 6.1466 46.056 6.12073 46.077C6.13396 46.0644 6.12012 46.0819 6.16284 46.0181C6.18029 45.9886 6.17608 45.9808 6.19714 45.9338C6.20556 45.9182 6.20375 45.929 6.20676 45.9278C6.22481 45.9332 6.27896 45.9381 6.34394 45.9344C6.47811 45.926 6.64898 45.8911 6.82226 45.84C7.17122 45.7395 7.53583 45.5933 7.89802 45.4357C8.63626 45.1216 9.32516 44.745 10.1693 44.4333C10.8058 44.2251 11.4111 44.0483 12.0687 43.9141C12.3978 43.8503 12.7317 43.795 13.1024 43.7817C13.2895 43.7781 13.4856 43.7823 13.7112 43.8268C13.9351 43.8834 14.2202 43.9496 14.4868 44.2582C14.5915 44.3822 14.6216 44.4508 14.6901 44.5518C14.7461 44.6547 14.7978 44.7739 14.8406 44.8954C14.9194 45.1583 14.935 45.4916 14.8273 45.7834C14.6005 46.3562 14.2208 46.6017 13.9206 46.8165C13.2925 47.219 12.6981 47.4506 12.112 47.6961C11.6133 47.9055 11.1247 48.1106 10.6217 48.3218C8.82518 49.11 8.48584 49.323 7.84989 49.3278C7.7091 49.3296 7.55327 49.3771 7.42993 49.3693C7.22958 49.3657 7.1622 49.1287 7.34871 48.6997C7.53282 48.2737 8.00813 47.7256 8.70786 47.2743C9.75294 46.63 10.8558 46.2052 11.8539 45.7582C12.334 45.5446 12.8473 45.2895 13.0518 45.0957C13.0855 45.0717 13.0819 45.0596 13.0976 45.0464C13.109 45.0392 13.1 45.035 13.1012 45.041C13.1547 45.0891 13.2155 45.133 13.2805 45.1715C13.4291 45.2979 13.6096 45.3063 13.5055 45.2967C13.5187 45.2997 13.3779 45.2991 13.322 45.3292C13.3015 45.3424 13.1938 45.3617 13.1403 45.3869C13.0795 45.4092 12.9899 45.4573 13.0205 45.4477C13.0097 45.4399 12.9959 45.4254 12.9899 45.4116L12.9881 45.4092V45.4086C14.2918 44.4772 13.3472 45.1511 13.6378 44.9441L13.6318 44.9471L13.6108 44.9622C13.5969 44.973 13.5861 44.9844 13.5771 44.9959C13.559 45.0193 13.5578 45.0326 13.5013 45.1048C13.461 45.1637 13.4321 45.2257 13.4134 45.2895C13.4056 45.3406 13.3346 45.473 13.3141 45.5632C13.2726 45.707 13.2913 45.6655 13.2925 45.6703L13.2588 45.6709C13.2257 45.6655 13.1258 45.6691 13.035 45.6751C12.8424 45.686 12.5988 45.7263 12.3545 45.7762C11.8617 45.8761 11.3353 46.0295 10.8191 46.198C10.4509 46.3261 9.88831 46.6065 9.35765 46.8417C8.80954 47.0872 8.2512 47.3423 7.58516 47.5595C7.33608 47.6395 7.06894 47.7148 6.73382 47.7647C6.56655 47.7894 6.36921 47.805 6.13517 47.7924C5.88247 47.7665 5.57262 47.7286 5.19477 47.4879C4.80971 47.2406 4.55281 46.7984 4.47639 46.4525C4.4066 46.1324 4.41683 45.8749 4.4415 45.6757C4.48482 45.2919 4.63042 44.899 4.8037 44.5837C5.1671 43.952 5.63338 43.5609 6.08463 43.2372C6.54129 42.9189 7.00577 42.6831 7.47807 42.4869C7.95037 42.2878 8.4335 42.1458 8.94431 42.0489C9.51949 41.9418 9.86725 41.934 10.2379 41.8588C10.6103 41.8023 10.9436 41.6837 11.1265 41.5935L11.1861 41.5598C11.1915 41.5514 11.1897 41.5484 11.1957 41.546C11.2902 41.6061 11.4135 41.7301 11.5056 41.7463C11.5176 41.7559 11.5561 41.765 11.5711 41.765C11.5519 41.7626 11.5459 41.765 11.5356 41.768C11.4911 41.7704 11.458 41.7818 11.4273 41.798C11.3762 41.8131 11.3335 41.8372 11.3004 41.8624L11.2974 41.8636Z" fill="#2458A4"/>
<path id="Fill 3" fill-rule="evenodd" clip-rule="evenodd" d="M66.2668 7.46073C66.3239 7.40658 66.3408 7.39575 66.3733 7.3434C66.4082 7.29407 66.3745 7.2345 66.3245 7.22247C66.2776 7.20201 66.2187 7.20322 66.1597 7.22247L66.0785 7.25616C66.0436 7.27241 65.9425 7.33799 65.8769 7.37589C65.7295 7.47216 65.5809 7.57805 65.4347 7.69658C64.8481 8.17189 64.2958 8.77054 63.7862 9.40288C63.2838 10.0509 62.7351 10.7933 62.0251 11.4461C61.7465 11.685 61.4884 11.9329 61.0167 12.1362C60.9072 12.1874 60.7382 12.2241 60.5986 12.2541C60.4415 12.2794 60.2225 12.2626 60.0438 12.2283C59.8615 12.1621 59.6395 12.0628 59.5204 11.9449C59.4019 11.8227 59.2761 11.7024 59.1973 11.5496C59.0216 11.2385 58.9795 10.889 59.0096 10.6188C59.0367 10.3385 59.1143 10.1291 59.1919 9.92392C59.3592 9.54066 59.5625 9.24344 59.7707 8.95765C60.2117 8.38487 60.6876 7.89452 61.1545 7.42884C61.394 7.18517 61.6082 6.99565 61.8085 6.76942C62.0251 6.53297 62.2357 6.29652 62.4396 6.05706C62.8464 5.57934 63.235 5.08719 63.5407 4.58721C63.6905 4.34053 63.8277 4.08302 63.892 3.86462C63.9257 3.75873 63.9438 3.65765 63.942 3.6053C63.9468 3.54273 63.9312 3.55296 63.9462 3.53852L64.1899 3.54393C64.1784 3.568 64.1881 3.55236 64.1802 3.58725C64.1712 3.62095 64.1682 3.65404 64.1688 3.68532C64.1688 3.70277 64.1796 3.67991 64.1682 3.68954C64.1532 3.69555 64.1429 3.69134 64.1213 3.69495C64.0942 3.70578 64.0659 3.71481 64.037 3.72263C63.9065 3.78219 63.747 3.86702 63.5906 3.99157C63.2759 4.22682 62.9625 4.52464 62.6592 4.83208C62.0516 5.453 61.4656 6.12625 60.8783 6.80492L59.9139 7.9216C59.5685 8.30606 59.3213 8.61591 58.737 9.1568C58.4675 9.40047 58.1823 9.60744 57.8989 9.70612C57.7575 9.76327 57.6156 9.78493 57.4645 9.79095C57.3093 9.78192 57.1571 9.72236 57.0061 9.67302C56.7107 9.55751 56.4489 9.34031 56.3106 9.06174C56.174 8.78438 56.1355 8.47693 56.1818 8.14902C56.2293 7.74411 56.4092 7.24413 56.5981 6.87953C56.769 6.52395 56.9116 6.27847 57.0813 5.98967C57.414 5.43795 57.7672 4.91571 58.1167 4.40009C58.4663 3.88568 58.8153 3.38028 59.1335 2.8779C59.2882 2.6246 59.4488 2.38033 59.583 2.13966C59.7208 1.90321 59.8218 1.64931 59.8639 1.47724C59.9428 1.29795 59.894 1.19145 59.9951 1.10481C60.0685 1.03923 60.3663 1.02419 60.5745 1.44896C60.7773 1.86531 60.743 2.47238 60.61 3.09871C60.4572 3.72263 60.1491 4.35437 59.7502 4.96625L58.7082 6.54019L58.2329 7.29708C58.0505 7.60874 58.0469 7.62859 58.0487 7.61836C58.0457 7.61957 58.0343 7.6316 58.0409 7.64484C58.0439 7.65266 58.0499 7.65386 58.0566 7.65386C58.0704 7.64604 58.0469 7.67793 58.142 7.58587C58.9711 6.72129 59.7887 5.72495 60.6642 4.76711C61.104 4.28518 61.5612 3.80746 62.0768 3.34719C62.3392 3.11796 62.6135 2.89114 62.945 2.67815C63.1135 2.57105 63.2928 2.46456 63.5292 2.37491C63.7464 2.28827 64.078 2.20645 64.4666 2.28527C64.5852 2.31956 64.7037 2.36529 64.8186 2.42184L64.9383 2.48201L65.0256 2.59031C65.2849 2.91099 65.404 3.34178 65.3757 3.64261C65.3685 3.96449 65.2915 4.21117 65.2133 4.44281C65.046 4.89406 64.8306 5.25926 64.608 5.61364C64.158 6.31216 63.6574 6.93428 63.1466 7.54195C62.9077 7.83315 62.5913 8.18212 62.3283 8.44023C62.0552 8.71338 61.7935 8.98112 61.5468 9.25427C61.3025 9.52622 61.0649 9.80298 60.8771 10.0785C60.6888 10.3433 60.545 10.6471 60.5348 10.7741C60.5306 10.8011 60.5498 10.8059 60.5065 10.8126C60.4542 10.8451 60.598 10.7241 60.4752 10.8348C60.4512 10.8565 60.406 10.9329 60.409 10.9227C60.4048 10.9233 60.4006 10.9269 60.3952 10.9329C60.3838 10.9401 60.3742 10.9979 60.3958 10.9064C60.4078 10.8475 60.3892 10.8084 60.385 10.7548C60.3946 10.7476 60.4042 10.7446 60.4157 10.7452C60.5757 10.7085 60.9174 10.4395 61.1786 10.1766C61.7507 9.61707 62.2158 8.95886 62.7922 8.24349C63.3674 7.55519 63.9889 6.89397 64.7536 6.33262C64.951 6.19003 65.1381 6.06849 65.3787 5.93613C65.6489 5.7809 65.9611 5.65335 66.2824 5.57273C66.919 5.40246 67.5555 5.53903 68.0278 5.83505C68.304 6.03059 68.5224 6.38075 68.5038 6.73032C68.508 7.07085 68.3967 7.4156 68.1939 7.75133C68.0934 7.91739 67.9857 8.08525 67.8594 8.24228L67.6705 8.47813L67.5128 8.65682C67.3059 8.88726 67.1229 9.06776 66.9226 9.2657C66.1344 10.0286 65.312 10.7139 64.5081 11.4028C63.9173 11.9292 63.2537 12.4334 62.8789 12.9713C62.7814 13.1127 62.6863 13.2637 62.6286 13.3985C62.6009 13.4635 62.5792 13.5266 62.572 13.5609C62.5371 13.5922 62.6466 13.5579 62.4565 13.585C62.4041 13.5916 62.3891 13.585 62.3512 13.5982C62.3145 13.6103 62.2826 13.6355 62.2964 13.6229C62.2964 13.6229 62.2934 13.6199 62.2886 13.6241C62.3163 13.5964 62.335 13.5645 62.3446 13.5333C62.353 13.5026 62.3494 13.4803 62.3789 13.3967C62.3945 13.3341 62.3873 13.3774 62.3927 13.3654C62.4047 13.3702 62.483 13.3624 62.5455 13.3516C62.6238 13.3287 62.6923 13.3251 62.7796 13.2902C62.8638 13.2601 62.9535 13.2354 62.9938 13.215C63.0702 13.1813 63.2374 13.0483 63.3824 12.9328L63.8337 12.5538L64.7428 11.7656C65.3541 11.2379 65.9696 10.7115 66.6344 10.2199C66.8937 10.0292 67.1578 9.84209 67.4478 9.67062C67.7421 9.50215 68.0369 9.33068 68.4695 9.24043C68.6824 9.20734 68.9857 9.17545 69.2991 9.38002C69.5885 9.57315 69.7305 9.89504 69.7636 10.0972C69.7973 10.2175 69.8015 10.3138 69.81 10.4143C69.8124 10.4702 69.8214 10.5021 69.8172 10.5785C69.8118 10.6591 69.8009 10.7506 69.7835 10.821C69.7101 11.0809 69.6096 11.244 69.5145 11.4022C69.1247 12.0014 68.7017 12.4491 68.2781 12.9148C67.8534 13.372 67.4226 13.813 66.9942 14.2504C66.6248 14.6373 66.2626 15.0163 65.8902 15.4062C65.2031 16.1204 64.7705 16.571 64.4347 16.8466C64.1153 17.1342 63.883 17.2341 63.6159 17.3321C63.4974 17.3773 63.3842 17.4759 63.2994 17.5361C63.2206 17.5836 63.158 17.5758 63.0985 17.4711C63.0389 17.3664 63.0094 17.1649 63.0383 16.932C63.084 16.4423 63.4017 15.8659 63.8626 15.239C64.5803 14.3371 65.3613 13.5266 66.1356 12.7162C66.5141 12.3167 66.8943 11.9154 67.2764 11.5123C67.4599 11.3125 67.6374 11.1128 67.7968 10.9179C67.9532 10.7289 68.1097 10.5184 68.1692 10.398L68.1825 10.3673C68.1843 10.3637 68.1885 10.3559 68.1885 10.3559C68.1927 10.3595 68.1722 10.3541 68.1969 10.3661L68.289 10.4058C68.3979 10.4576 68.5826 10.4859 68.6488 10.5147C68.6903 10.5286 68.7336 10.537 68.7781 10.5418L68.8467 10.5442L68.881 10.5424L68.89 10.5418C69.0543 10.5424 67.4978 10.5358 68.156 10.5376V10.5352C68.15 10.5081 68.1476 10.4811 68.1476 10.454C68.1476 10.4383 68.1428 10.4516 68.1428 10.4516C68.1927 10.4437 68.3251 10.4064 68.4099 10.3697C68.6861 10.3234 68.8178 10.0978 68.7474 10.2115C68.7534 10.2037 68.7131 10.2897 68.7137 10.3228C68.7095 10.3637 68.7113 10.4046 68.6999 10.5033C68.6957 10.5851 68.7023 10.6658 68.7191 10.7422C68.7258 10.759 68.7342 10.8896 68.7312 10.8661L68.7252 10.8697C68.6776 10.8781 68.4665 10.972 68.2775 11.0875C68.0808 11.2024 67.8678 11.3541 67.6578 11.5069C66.8053 12.1398 65.9624 12.9045 65.0881 13.6765L64.5846 14.1145L64.3078 14.3425L64.1514 14.4634L64.0665 14.5266L63.9372 14.6114C63.7681 14.727 63.522 14.8238 63.4113 14.8563C63.288 14.902 63.1496 14.9466 62.9829 14.9833C62.8488 15.0242 62.6165 15.0518 62.4053 15.0621C62.2417 15.0549 62.0895 15.0392 61.918 14.9959C61.7983 14.9586 61.6779 14.9056 61.5666 14.8419C61.4607 14.7877 61.3446 14.6951 61.2351 14.5699C61.0041 14.3124 60.9337 14.0772 60.8826 13.8245C60.8645 13.7095 60.8681 13.6446 60.8663 13.5513C60.8675 13.4689 60.8723 13.3648 60.8838 13.3167C60.9253 13.0586 60.9915 12.8787 61.0564 12.7204C61.1894 12.4076 61.332 12.1753 61.489 11.9449C61.6412 11.7211 61.8368 11.484 62.0197 11.2963C62.1996 11.1098 62.3656 10.9521 62.5365 10.7963C63.2128 10.1904 63.8716 9.64836 64.5093 9.08761C64.827 8.80904 65.1387 8.52987 65.4371 8.2477L65.8691 7.82353L66.0731 7.61054L66.2301 7.43606L66.2668 7.46073Z" fill="#2458A4"/>
<path id="Fill 5" fill-rule="evenodd" clip-rule="evenodd" d="M29.9651 25.9532C30.7099 24.3997 31.5023 22.8613 32.3723 21.3607C32.6027 20.9757 32.7856 20.6376 33.0678 20.22C33.3638 19.7796 33.7122 19.4481 34.0636 19.14C34.7741 18.5366 35.5244 18.0594 36.2831 17.616C37.3901 16.9704 38.5068 16.3832 39.6445 15.849C41.6511 14.9116 43.6817 14.0693 45.6858 13.1932C46.6869 12.7534 47.6809 12.3034 48.6508 11.8178C49.6176 11.3329 50.5713 10.8131 51.4088 10.188C52.8744 9.0075 54.1878 7.54066 55.4002 6.066C56.1829 5.11357 56.9278 4.12204 57.6943 3.14014C58.0805 2.65219 58.4578 2.15402 58.8753 1.68713C59.2971 1.22325 59.7273 0.766594 60.1737 0.324977C60.7387 -0.218922 60.7687 -0.0432374 60.489 0.578275C60.3488 0.889333 60.1442 1.32072 59.8879 1.83033C59.7568 2.08242 59.622 2.36219 59.4547 2.64076C59.2808 2.91331 59.0895 3.1985 58.8765 3.48428C57.3748 5.51428 55.8604 7.60444 54.0163 9.45393C53.5585 9.91841 53.0808 10.3654 52.5886 10.7986C52.0646 11.2583 51.4918 11.6374 50.9268 11.9773C49.7891 12.6596 48.6195 13.2083 47.4426 13.7401C44.6311 15.0006 41.7197 16.2846 38.9472 17.6605C37.4449 18.4283 35.9064 19.2279 34.7272 20.297C34.4203 20.569 34.2134 20.8343 34.001 21.17L33.3518 22.2686C32.9276 23.0069 32.5227 23.7584 32.1316 24.517C31.166 26.3834 30.2912 28.3093 29.4272 30.2358C28.7846 31.6936 28.1757 33.1647 27.7829 34.6851C27.5945 35.4407 27.3635 36.259 27.7371 36.6489C28.13 37.1109 28.8442 37.0712 29.4982 36.7379C30.5234 36.2355 31.409 35.3764 32.202 34.4992C32.9986 33.6159 33.6689 32.634 34.2627 31.6034C34.5232 31.1497 34.7428 30.6882 34.9642 30.2135C35.3746 29.3327 35.5803 28.7311 35.7765 28.3225C35.978 27.9158 36.1381 27.6872 36.3318 27.5115C36.4191 27.4315 36.5117 27.3184 36.5881 27.2744C36.7175 27.2004 36.7843 27.3719 36.8005 27.7624C36.8053 28.148 36.7548 28.7581 36.5117 29.4885C35.8054 31.6629 34.6129 33.7062 32.9944 35.4829C32.1756 36.3517 31.3128 37.2 30.1041 37.8263C29.802 37.9803 29.4633 38.1151 29.074 38.1897C28.8743 38.2222 28.6841 38.2643 28.4525 38.2421L28.121 38.2192C28.0091 38.1993 27.8942 38.159 27.7823 38.1241C27.5482 38.0634 27.3515 37.9424 27.1625 37.8041C26.9694 37.6807 26.7925 37.508 26.6457 37.2975C26.3419 36.8709 26.2577 36.3505 26.2685 35.957C26.2883 35.3469 26.4165 34.9366 26.5122 34.4925C26.6192 34.0533 26.7438 33.6207 26.878 33.1936C27.1505 32.341 27.467 31.5113 27.8057 30.7015C28.4928 29.0818 29.1992 27.5277 29.9338 25.943L29.9651 25.9532Z" fill="#2458A4"/>
<path id="Fill 7" fill-rule="evenodd" clip-rule="evenodd" d="M56.7964 25.464C57.7993 23.99 58.8553 22.5617 59.9232 21.1502C60.3131 20.6345 60.6759 20.0997 61.073 19.5925C61.7727 18.7032 62.476 17.8013 63.2203 16.9283C63.9603 16.0583 64.7286 15.2154 65.503 14.3773C66.1901 13.6336 66.8766 12.8816 67.5781 12.156C68.48 11.23 69.3969 10.2686 70.6441 9.68858C71.0352 9.50989 71.0665 9.74453 70.8992 10.1146C70.7236 10.4647 70.4179 11.0297 69.9089 11.5134C68.0739 13.245 66.3609 15.2082 64.6011 17.1425C63.5337 18.2881 62.6132 19.6376 61.6343 20.9227C60.564 22.333 59.505 23.7493 58.4979 25.1999C57.8782 26.0928 57.2735 26.9959 56.7025 27.9182C55.8361 29.3237 54.9595 30.7328 54.205 32.1804C53.6166 33.3049 53.1582 34.4624 52.6943 35.6146C52.5986 35.8697 52.5042 36.1212 52.4085 36.3793C52.0415 37.3299 51.8435 37.6007 51.4873 37.7174C51.4091 37.7451 51.3309 37.7896 51.2677 37.7998C51.0764 37.845 50.9549 37.3558 51.1354 36.5929C51.4218 35.472 51.7918 34.3355 52.293 33.2471C52.7857 32.1539 53.3561 31.0853 53.9517 30.036C54.8428 28.4832 55.7748 26.9574 56.7687 25.449L56.7964 25.464Z" fill="#2458A4"/>
<path id="Fill 10" fill-rule="evenodd" clip-rule="evenodd" d="M17.3447 31.0779C15.9146 31.3913 14.4797 31.6916 13.0411 31.9768C12.5164 32.0808 11.9966 32.2126 11.4714 32.3059C9.61946 32.6386 7.76214 32.9394 5.90362 33.2264C5.07875 33.3533 4.25267 33.5014 3.43562 33.6415C2.91157 33.7366 2.38392 33.8196 1.85386 33.887C1.33042 34.0152 0.767265 33.8148 0.240814 33.8798C-0.091903 33.887 -0.0576085 33.7739 0.207723 33.6217C0.338884 33.5387 0.532016 33.4803 0.75463 33.3281C0.87797 33.2529 0.9977 33.1807 1.11683 33.1079C1.18121 33.0664 1.24919 33.0387 1.31538 32.9875C1.38637 32.9707 1.45857 32.9538 1.53318 32.9412C3.64499 32.5549 5.77366 32.2421 7.9306 31.9298C9.22176 31.7517 10.5412 31.4244 11.842 31.1453C13.2715 30.8402 14.6999 30.5141 16.1246 30.17L18.7538 29.5178C20.0781 29.1736 21.4144 28.8445 22.729 28.4883C23.7524 28.2116 24.7367 27.871 25.7746 27.6105C26.0038 27.554 26.227 27.4884 26.4677 27.4481C27.3461 27.2826 27.7667 27.4378 27.9002 27.8301C27.9327 27.915 27.9628 27.9938 27.9592 28.0497C27.9472 28.1472 27.8503 28.1935 27.7318 28.3012C27.6114 28.4143 27.4207 28.4835 27.1403 28.5455C26.3058 28.7386 25.3913 29.025 24.4714 29.2807C23.5376 29.5388 22.5948 29.7994 21.6484 30.0611C20.2315 30.4341 18.7899 30.7632 17.3544 31.1062L17.3447 31.0779Z" fill="#2458A4"/>
<path id="Fill 12" fill-rule="evenodd" clip-rule="evenodd" d="M52.8691 43.547C52.8968 43.4766 52.9076 43.4032 52.9323 43.3316C52.9467 43.2702 52.9491 43.1511 52.9605 43.142C52.9587 43.115 52.9774 43.1342 52.916 42.9958C52.8589 42.8797 52.7854 42.7486 52.7 42.615C52.5309 42.3479 52.333 42.0735 52.126 41.804C51.7121 41.2619 51.259 40.7294 50.7988 40.2053C50.4071 39.7613 49.9787 39.3504 49.5774 38.913C48.1575 37.3673 46.6943 35.8698 45.1667 34.4108C44.4898 33.7478 43.8153 33.0992 43.115 32.5125C42.2113 31.7527 41.2601 31.1329 40.2926 30.5403C39.9936 30.3376 40.0484 30.2395 40.425 30.1348C40.8082 29.9922 41.5302 29.994 42.1776 30.367C43.3298 31.0054 44.2588 31.876 45.163 32.7033C45.6041 33.1172 46.0451 33.5318 46.4879 33.9475C46.9446 34.3717 47.3747 34.8175 47.7971 35.2724C48.8061 36.3596 49.9492 37.3896 50.9889 38.4954C51.5593 39.1049 52.12 39.724 52.6609 40.3702C52.9317 40.6933 53.1976 41.0224 53.4533 41.3684C53.7072 41.7221 53.9593 42.056 54.1717 42.5241C54.2463 42.6836 54.304 42.9038 54.3082 43.0993C54.2914 44.2328 53.6416 45.1468 52.8871 45.752C52.5562 46.0222 52.1952 46.243 51.8144 46.4223C51.4197 46.5913 51.0611 46.7616 50.5569 46.7971C50.3138 46.844 50.0912 46.7809 49.8596 46.7688C49.649 46.7093 49.4228 46.6684 49.2291 46.5829C48.8302 46.4271 48.4613 46.2322 48.1232 46.012C47.5859 45.6792 47.0986 45.3086 46.6311 44.9223C46.1618 44.5373 45.7075 44.1414 45.2894 43.7112C45.1083 43.5187 44.9266 43.3358 44.7575 43.1318C44.0987 42.4026 44.1065 41.9953 44.1432 41.6878C44.1571 41.6144 44.1571 41.5314 44.1769 41.4779C44.2112 41.3864 44.3195 41.3924 44.5072 41.4628C44.6901 41.538 44.9892 41.6439 45.2671 41.8677C45.6769 42.1962 46.089 42.5265 46.5047 42.8593C46.9006 43.2004 47.2911 43.5518 47.6942 43.87C48.0955 44.1907 48.501 44.5006 48.9017 44.7605C49.2994 45.0216 49.7164 45.2394 50.0557 45.3068C50.1249 45.3357 50.1749 45.3231 50.232 45.3327C50.2856 45.3351 50.3499 45.3598 50.389 45.3411C50.4336 45.3333 50.4781 45.3309 50.525 45.3327C50.5918 45.3152 50.6634 45.3014 50.7386 45.2743C51.0388 45.1781 51.3523 45.0318 51.6351 44.8586C52.2103 44.5186 52.6687 44.0475 52.8354 43.5385L52.8691 43.547Z" fill="#2458A4"/>
<path id="Fill 14" fill-rule="evenodd" clip-rule="evenodd" d="M43.8246 47.8036C44.3955 48.2326 45.002 48.614 45.6259 48.8643C45.8545 48.957 46.0886 48.9828 46.3064 49.0328C46.6999 49.1092 47.0314 49.1122 47.3388 48.9492C47.7546 48.7229 48.1511 48.4684 48.5253 48.1899C48.858 47.9426 49.1486 47.6442 49.3869 47.3259C49.6823 46.9023 49.9037 46.4775 50.1594 46.0209C50.24 45.8789 50.435 45.9348 50.6076 46.137C50.7785 46.3331 50.9313 46.7134 50.8092 47.0768C50.5992 47.7176 50.1726 48.2338 49.7413 48.6808C49.302 49.1315 48.7936 49.4768 48.2612 49.7584C47.994 49.9034 47.5199 50.2006 47.0741 50.2656C46.6277 50.3486 46.1993 50.3257 45.8082 50.2445C44.949 50.0544 44.2241 49.6699 43.5358 49.2596C43.1146 49.0027 42.7145 48.7205 42.324 48.4323C41.7314 47.9937 41.1821 47.5058 40.6243 47.0401C40.1905 46.6773 39.7212 46.3626 39.2868 45.9848C39.1918 45.9012 39.0871 45.829 38.9987 45.7351C38.6701 45.3897 38.6587 45.1936 38.9228 44.8747C38.9824 44.8019 39.0384 44.7243 39.1051 44.6599C39.3356 44.4433 39.6406 44.4331 39.9035 44.6094C40.6827 45.1401 41.4161 45.7658 42.1453 46.4168C42.6928 46.8909 43.2494 47.3674 43.842 47.7735L43.8246 47.8036Z" fill="#2458A4"/>
<path id="Fill 16" fill-rule="evenodd" clip-rule="evenodd" d="M38.8443 51.3512C39.4441 51.7977 40.0716 52.2098 40.7178 52.5076C40.9519 52.6147 41.1979 52.6773 41.4224 52.7441C41.6191 52.8006 41.8116 52.8391 41.9777 52.8434C42.0559 52.8404 42.1317 52.8361 42.1949 52.8205C42.2827 52.797 42.4097 52.7417 42.5156 52.7038C42.9554 52.5287 43.3868 52.3229 43.7694 52.0516C44.1094 51.8127 44.4018 51.5095 44.6262 51.178C44.906 50.7436 45.0937 50.2833 45.2694 49.8339C45.3169 49.7069 45.5564 49.6883 45.7946 49.8724C46.0275 50.0493 46.2308 50.462 46.1129 50.8561C45.9192 51.551 45.4727 52.1148 44.9872 52.5708C44.4938 53.0269 43.9241 53.3656 43.3308 53.5996C43.1527 53.6724 42.9777 53.744 42.8014 53.8162L42.6654 53.8752L42.4771 53.939C42.3501 53.9835 42.2304 53.9931 42.1059 54.0172C41.6245 54.0647 41.1986 53.9919 40.8117 53.8758C39.9633 53.6105 39.2588 53.1683 38.5777 52.7176C38.1608 52.4354 37.7625 52.134 37.3702 51.8284C36.7764 51.3645 36.2192 50.8567 35.6567 50.3675C35.2229 49.9843 34.7446 49.6552 34.3282 49.2364C34.235 49.1468 34.1393 49.0583 34.0527 48.9591C33.738 48.5794 33.7205 48.3742 33.9287 48.1215C33.9762 48.0632 34.0202 48 34.0737 47.9519C34.2602 47.7912 34.5171 47.8334 34.768 48.0265C35.5472 48.5878 36.2902 49.2647 37.0706 49.9235C37.6512 50.4103 38.2408 50.8958 38.8611 51.3242L38.8443 51.3512Z" fill="#2458A4"/>
<path id="Fill 18" fill-rule="evenodd" clip-rule="evenodd" d="M28.9798 49.9608C29.7403 50.6515 30.5074 51.3434 31.3209 51.9685C31.6115 52.2073 31.9376 52.3884 32.2336 52.6165C32.7625 53.0051 33.304 53.3673 33.8575 53.6958C34.4254 54.0039 34.9471 54.2277 35.6083 54.3673C36.1648 54.4948 36.7382 54.5376 37.2574 54.4473C37.9313 54.3198 38.4493 53.984 38.8795 53.4486C39.0173 53.2885 39.1918 53.3794 39.273 53.6646C39.3681 53.9425 39.3121 54.4762 38.8813 54.8667C38.5065 55.2066 38.0222 55.3901 37.5661 55.4924C37.104 55.5911 36.651 55.6013 36.219 55.5688C35.7864 55.5351 35.3725 55.4563 34.9766 55.3582C34.7882 55.3149 34.571 55.2445 34.3575 55.1573C34.1379 55.0797 33.9459 54.9816 33.7666 54.8739C32.8888 54.3781 32.0218 53.8986 31.2294 53.3222C30.3582 52.6953 29.5322 52.019 28.732 51.3169C28.235 50.8903 27.7591 50.4409 27.2771 49.9993C26.5576 49.3188 25.859 48.6112 25.1719 47.9049C24.6317 47.3622 24.0763 46.8472 23.5529 46.2762C23.4416 46.1456 23.3261 46.0211 23.219 45.8833C22.8207 45.3767 22.8044 45.1084 23.0048 44.8539C23.0523 44.7931 23.095 44.7251 23.1504 44.677C23.3369 44.5163 23.6419 44.6289 23.9121 44.9393C24.7929 45.8556 25.7556 46.8339 26.7417 47.8056C27.4757 48.5264 28.2278 49.2436 28.9979 49.9373L28.9798 49.9608Z" fill="#2458A4"/>
<path id="Fill 20" fill-rule="evenodd" clip-rule="evenodd" d="M13.3054 46.9474L16.0478 45.995C16.3829 45.8795 16.7036 45.7284 17.0417 45.6201C18.2306 45.2297 19.4471 44.903 20.6781 44.6172C21.228 44.4987 21.7701 44.3452 22.3297 44.2387C22.6864 44.1708 23.0523 44.0865 23.4331 44.0847C23.8152 44.1052 24.2098 44.1593 24.5805 44.3519C24.8121 44.4704 24.6846 44.6358 24.4547 44.8085C24.2243 44.9655 23.9247 45.2212 23.5895 45.3067C22.3579 45.4643 20.9832 45.8109 19.5981 46.1147C18.763 46.3 17.9406 46.6484 17.1133 46.9414L14.3721 47.9125L12.6827 48.5244C11.8265 48.8348 10.9668 49.1465 10.1166 49.4545C9.45478 49.7 8.82846 50.0116 8.13354 50.2301C7.97651 50.2692 7.83151 50.3269 7.66485 50.3522C7.05898 50.4581 6.79666 50.3414 6.68776 50.0345C6.66189 49.9641 6.6306 49.8943 6.62158 49.8251C6.60654 49.7084 6.66249 49.6037 6.75214 49.5153C6.83817 49.4329 6.96873 49.3504 7.14201 49.2854C8.17085 48.8174 9.37476 48.3974 10.5751 47.9341C11.4788 47.5966 12.3867 47.2573 13.2928 46.9179L13.3054 46.9474Z" fill="#2458A4"/>
<path id="Fill 22" fill-rule="evenodd" clip-rule="evenodd" d="M12.1345 41.7813C11.7326 40.9438 11.3896 40.0781 11.1111 39.1906C11.0028 38.8699 10.8855 38.5492 10.8024 38.2195C10.5425 37.0469 10.4077 35.8346 10.5184 34.6312C10.5515 34.0982 10.6177 33.5645 10.705 33.038C10.7717 32.7035 10.8271 32.3588 10.9426 32.0327C11.0563 31.7054 11.2356 31.4039 11.4528 31.132C11.5882 30.9605 11.7934 31.1097 11.9612 31.3799C12.1297 31.6536 12.2693 32.0291 12.2211 32.3624C11.8589 33.4887 11.7512 34.6716 11.7115 35.9314C11.6881 36.6907 11.9173 37.4608 12.1261 38.2117C12.3571 39.0414 12.6549 39.8627 13.0159 40.6593C13.2367 41.1508 13.4804 41.6339 13.7506 42.1026C14.1591 42.8114 14.6025 43.5123 15.1235 44.1362C15.5278 44.6212 16.005 45.0279 16.4761 45.4015L16.7925 45.6259C17.1638 45.9129 17.1824 46.0399 17.1553 46.3533C17.1517 46.4261 17.1626 46.5026 17.1607 46.5723C17.1944 46.8082 16.7883 46.9376 16.3551 46.7504C15.7324 46.4761 15.2613 46.0652 14.7986 45.6338C14.3444 45.1964 13.9353 44.7126 13.5646 44.2012C13.0117 43.4437 12.5382 42.6297 12.1068 41.7976L12.1345 41.7813Z" fill="#2458A4"/>
<path id="Fill 24" fill-rule="evenodd" clip-rule="evenodd" d="M60.6426 14.1563C60.4789 13.8296 60.3369 13.4843 60.1233 13.1786L59.8261 12.7033L59.4742 12.2635C59.3057 12.0439 59.0999 11.8616 58.899 11.6709L58.3876 11.1402L57.822 10.6577C57.464 10.3045 57.0284 10.0476 56.6175 9.75098C56.2463 9.49587 55.8167 9.33583 55.4136 9.14691C54.8865 8.91888 54.3282 8.76666 53.827 8.43996C53.67 8.33949 53.7512 8.14876 53.9654 7.98932C54.1784 7.83229 54.5376 7.68789 54.8859 7.76189C55.1879 7.84492 55.5122 7.86899 55.7962 8.01098C56.0874 8.13131 56.3774 8.25706 56.665 8.38942C56.9568 8.51096 57.2264 8.68303 57.4953 8.85571C57.7612 9.0332 58.0338 9.19685 58.2787 9.40683C58.5705 9.66013 58.8779 9.89778 59.1962 10.1258C59.494 10.3821 59.7972 10.6384 60.083 10.9068C60.3748 11.2262 60.6582 11.5559 60.926 11.8935C61.1606 12.2593 61.4368 12.5938 61.6305 12.9825C61.755 13.2183 61.8862 13.4488 62.0011 13.6876L62.308 14.4216C62.5805 15.1767 62.7761 15.9583 62.8862 16.7471C63.0011 17.3547 63.0763 17.9678 63.0859 18.6038C63.0763 18.7434 63.0805 18.8829 63.0618 19.0243C63.0366 19.1549 63.0173 19.2602 62.9728 19.3468C62.9265 19.4323 62.8633 19.4942 62.8079 19.5424C62.6924 19.638 62.5691 19.6729 62.4102 19.6789C62.3374 19.6819 62.2658 19.6916 62.2015 19.685C61.9933 19.6633 61.8345 19.4094 61.7322 19.0779C61.607 18.1212 61.4831 17.1899 61.3002 16.2381C61.1666 15.5317 60.9254 14.838 60.6113 14.1744L60.6426 14.1563Z" fill="#2458A4"/>
<path id="Fill 26" fill-rule="evenodd" clip-rule="evenodd" d="M60.0891 49.2243C60 49.2393 60.0049 49.1136 60.0692 48.909C60.0897 48.8434 60.1968 48.6701 60.2275 48.6545C60.2876 48.6238 60.3466 48.5943 60.3977 48.5781C60.4284 48.5709 60.7834 48.6431 60.9103 48.6479C61.0313 48.6587 61.1396 48.6942 61.2443 48.7369C61.4603 48.8206 61.6823 48.8903 61.9061 48.9601C61.9554 48.9758 62.0012 49.0023 62.0439 49.0371C62.1895 49.1599 62.3609 49.2182 62.542 49.2495C62.5715 49.2549 62.5992 49.27 62.6389 49.2423C62.7039 49.1966 63.1798 49.3259 63.2309 49.3831C63.3615 49.5022 63.5029 49.5943 63.6419 49.6966C63.6611 49.711 63.6894 49.7044 63.6972 49.7531C63.7159 49.8656 63.7688 49.8632 63.8146 49.8855C63.8783 49.9156 63.9391 49.9589 63.9963 50.013C64.0245 50.0407 64.0414 50.1051 64.0618 50.158C64.0799 50.2056 64.0251 50.3379 64.0101 50.3506C63.9674 50.3855 63.9734 50.4577 63.9602 50.5154C63.9553 50.5353 63.9499 50.5611 63.9439 50.5762C63.9319 50.6063 63.4632 50.7783 63.4223 50.7591C63.4175 50.7585 63.2676 50.7398 63.1058 50.72C62.9458 50.7007 62.7773 50.6815 62.7412 50.6821C62.7039 50.6827 62.6762 50.6496 62.6461 50.6255C62.6323 50.6195 62.1498 50.5389 62.1317 50.5281C62.0409 50.4835 61.9332 50.4829 61.8688 50.3626C61.8562 50.3391 61.8351 50.3367 61.8158 50.3313C61.6486 50.2826 61.4982 50.1851 61.3453 50.0973C61.2671 50.0533 61.1811 50.0269 61.0993 49.9908C61.0848 49.9842 61.0746 49.9655 61.0626 49.9535C61.0463 49.939 61.0325 49.9192 61.0138 49.912C60.8165 49.8319 60.645 49.6996 60.4399 49.6334C60.3905 49.619 60.2305 49.4186 60.1763 49.4018C60.1444 49.3933 60.124 49.2182 60.0891 49.2243Z" fill="#2458A4"/>
<path id="Fill 28" fill-rule="evenodd" clip-rule="evenodd" d="M52.5195 56.2262C52.4485 56.1672 52.5784 56.1154 52.8281 56.0607C52.9075 56.0432 53.1512 56.0372 53.1861 56.0541C53.2541 56.0878 53.3203 56.1221 53.3672 56.1582C53.3967 56.1786 53.5212 56.5366 53.5687 56.6599C53.6175 56.7791 53.6235 56.8976 53.6223 57.0161C53.6187 57.2556 53.6241 57.4956 53.6145 57.7321C53.6121 57.785 53.5976 57.8368 53.5712 57.8873C53.4803 58.06 53.4629 58.2369 53.4701 58.4168C53.4719 58.4463 53.4617 58.4758 53.4996 58.5082C53.5621 58.563 53.5236 59.0419 53.4815 59.0991C53.3852 59.2429 53.3203 59.3897 53.2414 59.5347C53.23 59.5551 53.2433 59.5798 53.1933 59.5942C53.0772 59.6279 53.0904 59.6767 53.0772 59.723C53.0579 59.7862 53.0339 59.8493 52.99 59.9101C52.9683 59.9402 52.9015 59.9649 52.848 59.9913C52.7992 60.0154 52.635 59.9829 52.6181 59.9709C52.5694 59.9366 52.4888 59.9522 52.419 59.948C52.3961 59.9456 52.366 59.9426 52.3468 59.9408C52.3059 59.9342 52.0562 59.5268 52.0622 59.4859C52.0616 59.4817 52.0532 59.3415 52.0435 59.1905C52.0327 59.0425 52.0195 58.8873 52.0117 58.856C52.0026 58.8223 52.0327 58.7928 52.0526 58.7621C52.0622 58.7471 52.0159 58.3067 52.0195 58.2904C52.0423 58.2026 52.008 58.1105 52.1151 58.0311C52.1356 58.0155 52.132 57.9968 52.132 57.9788C52.1296 57.8254 52.1807 57.6767 52.2162 57.5269C52.2349 57.4505 52.2252 57.3723 52.2319 57.2947C52.2325 57.2809 52.2487 57.2682 52.2559 57.2544C52.265 57.2375 52.2794 57.2207 52.2794 57.2032C52.2776 57.0203 52.3396 56.8392 52.298 56.6569C52.2902 56.6148 52.4069 56.4163 52.3901 56.3681C52.3823 56.3411 52.5483 56.2502 52.5195 56.2262Z" fill="#2458A4"/>
<path id="Fill 30" fill-rule="evenodd" clip-rule="evenodd" d="M16.097 12.6791C16.0176 12.6917 16.0285 12.5786 16.091 12.3909C16.1109 12.3308 16.2102 12.1731 16.239 12.1599C16.2944 12.1334 16.3497 12.1087 16.3979 12.0961C16.4268 12.0895 16.7619 12.1803 16.8816 12.2026C16.9959 12.2249 17.0952 12.273 17.1909 12.3271C17.387 12.4318 17.5855 12.5383 17.7817 12.6436C17.825 12.6671 17.8635 12.7002 17.896 12.7411C18.0091 12.8813 18.1541 12.9703 18.3111 13.0389C18.337 13.0503 18.3593 13.0696 18.4002 13.0552C18.4676 13.0305 18.8587 13.2742 18.8954 13.3289C18.9868 13.4643 19.0915 13.578 19.1908 13.7019C19.2046 13.7194 19.2305 13.72 19.2257 13.7651C19.2154 13.8698 19.2624 13.8806 19.2973 13.9107C19.346 13.9534 19.3929 13.9998 19.4302 14.0605C19.4489 14.0906 19.4477 14.1532 19.4519 14.2067C19.4555 14.2549 19.3695 14.368 19.3538 14.3758C19.3063 14.3987 19.2918 14.4684 19.2636 14.5202C19.2539 14.5376 19.2407 14.5599 19.2323 14.5737C19.2118 14.6026 18.7744 14.6189 18.7413 14.596C18.7377 14.5948 18.6138 14.54 18.479 14.4811C18.3466 14.4239 18.2083 14.3656 18.1776 14.3577C18.1451 14.3493 18.1294 14.3132 18.1096 14.2849C18.1006 14.2711 17.6926 14.1177 17.6818 14.1032C17.6138 14.0443 17.5212 14.025 17.4905 13.9053C17.4845 13.8818 17.467 13.8752 17.4514 13.8668C17.3172 13.794 17.2071 13.6821 17.0904 13.5804C17.0308 13.5287 16.9604 13.4944 16.8954 13.451C16.884 13.4432 16.8786 13.4252 16.8696 13.4125C16.8581 13.3975 16.8491 13.3782 16.8341 13.3692C16.6752 13.2748 16.5435 13.1364 16.3714 13.0648C16.3323 13.0473 16.2096 12.859 16.1626 12.8428C16.1361 12.8331 16.1289 12.6737 16.097 12.6791Z" fill="#2458A4"/>
<path id="Fill 32" fill-rule="evenodd" clip-rule="evenodd" d="M27.0578 3.57376C27.0024 3.46185 27.157 3.4083 27.4374 3.38423C27.527 3.37701 27.7858 3.42815 27.817 3.46305C27.8784 3.53104 27.9374 3.59963 27.9759 3.66521C27.9993 3.70492 28.0234 4.27529 28.0421 4.46902C28.0601 4.65855 28.0354 4.83784 28.0036 5.01593L27.8285 6.09771C27.8152 6.17713 27.7888 6.25474 27.7509 6.32875C27.6197 6.58445 27.5698 6.8552 27.5535 7.12955C27.5505 7.17468 27.5367 7.22041 27.5728 7.27034C27.6275 7.35397 27.5276 8.07837 27.4831 8.16802C27.3622 8.38943 27.2804 8.61866 27.1901 8.84849C27.1769 8.88098 27.1901 8.91768 27.1378 8.94476C27.0162 9.00793 27.0301 9.08314 27.015 9.15534C26.9928 9.25642 26.9711 9.35749 26.9278 9.45797C26.9061 9.50791 26.84 9.55604 26.787 9.60478C26.7389 9.6499 26.5734 9.62162 26.556 9.60478C26.5054 9.55604 26.4248 9.59274 26.3556 9.59575C26.3322 9.59635 26.3015 9.59756 26.2828 9.59515C26.2413 9.59274 25.9591 8.95739 25.9645 8.88579C25.9639 8.87075 25.9194 7.97188 25.9128 7.84132C25.9068 7.78596 25.9417 7.73542 25.9651 7.68428C25.9724 7.65901 25.9706 6.92559 25.982 6.89792C26.0199 6.75232 26.0018 6.59709 26.133 6.46893C26.1589 6.44427 26.1583 6.41358 26.1613 6.3835C26.1902 6.129 26.2786 5.88653 26.3544 5.64346C26.3923 5.51892 26.4037 5.39016 26.4302 5.26321C26.4344 5.24095 26.4555 5.2211 26.4663 5.19944C26.4814 5.17236 26.5012 5.14709 26.506 5.11821C26.5542 4.81738 26.6727 4.5316 26.6853 4.22595C26.6889 4.15616 26.8767 3.85533 26.8748 3.77351C26.8748 3.72778 27.0806 3.61828 27.0578 3.57376Z" fill="#2458A4"/>
<path id="Fill 34" fill-rule="evenodd" clip-rule="evenodd" d="M35.3558 32.8887C35.064 33.3219 34.7584 33.7448 34.4268 34.1455C34.3095 34.2947 34.191 34.4434 34.0646 34.5847C33.6134 35.0781 33.1345 35.5444 32.6261 35.9722C32.4005 36.1653 32.1791 36.3542 31.9552 36.5455C31.6634 36.7814 31.3548 36.9992 31.0251 37.1797C30.9228 37.2363 30.9084 37.1875 30.9553 37.0834C31.0028 36.9805 31.1033 36.8139 31.2609 36.6719C31.5305 36.4066 31.8138 36.1647 32.0984 35.9222C32.3806 35.6774 32.6622 35.4295 32.9377 35.172C33.2753 34.8705 33.5635 34.4963 33.8541 34.1389C34.1717 33.743 34.4798 33.3387 34.7596 32.9133C34.9346 32.6534 35.0995 32.3869 35.2553 32.1143C35.4906 31.7016 35.7144 31.2786 35.8985 30.8436C36.0369 30.5031 36.1458 30.1596 36.2631 29.8166C36.2872 29.7414 36.3118 29.6632 36.3359 29.5892C36.4394 29.31 36.5158 29.236 36.6391 29.2089C36.668 29.2035 36.6975 29.1927 36.7234 29.1921C36.81 29.1909 36.8383 29.3299 36.81 29.5561C36.7613 29.89 36.6638 30.2191 36.5651 30.5536C36.4484 30.8815 36.3046 31.2034 36.1476 31.5211C35.9172 31.9934 35.6482 32.4495 35.3666 32.8947L35.3558 32.8887Z" fill="#2458A4"/>
</g>
</svg>
