<svg width="80" height="80" viewBox="0 0 80 80" fill="none" xmlns="http://www.w3.org/2000/svg">
<g clip-path="url(#clip0_469_3219)">
<path d="M37.0046 17.2703C35.3007 17.7602 33.895 18.7613 33.2773 19.9327C33.0431 20.4013 32.7449 20.529 31.3179 20.7633C27.5267 21.381 26.5896 22.4033 26.121 26.4288C25.9293 28.0049 25.9293 29.0485 26.121 30.7524C26.5683 34.6074 27.0368 35.0334 31.8503 36.0344C32.255 36.1196 32.3189 36.2687 32.3189 37.0781C32.3189 37.8448 32.255 38.0365 31.9568 38.0365C31.7438 38.0365 30.4872 38.143 29.1454 38.2495C26.2701 38.5051 25.6737 38.782 24.9709 40.2729C24.5449 41.1674 24.268 41.4443 23.2244 41.9555C21.7122 42.7222 18.6878 45.7253 17.6654 47.4505C15.0244 51.9232 13.7678 57.2266 14.4067 61.0816L14.6836 62.6364L13.8104 63.5736C12.4899 65.0006 12 66.4702 12 68.9621C12 71.3263 12.3408 72.1143 13.3205 72.1143C13.64 72.1143 15.9615 71.8161 18.4748 71.4541C22.0104 70.9429 23.1392 70.7086 23.4587 70.3891C23.7994 70.091 23.8846 69.6224 23.9698 68.1528C24.1402 64.7876 23.267 62.7216 21.3714 61.9975C20.8389 61.7845 20.3917 61.5715 20.3917 61.4863C20.3704 61.4224 20.2852 60.6344 20.1787 59.7611C19.8166 56.545 20.9667 52.9882 23.1605 50.5814L24.2041 49.4313L24.2254 52.7752C24.2254 55.8635 24.268 56.183 24.6514 56.5663C24.8857 56.8006 25.3755 57.0562 25.7376 57.1414C26.0784 57.2053 26.3979 57.3331 26.4618 57.4183C26.5044 57.5035 26.4405 61.7419 26.3127 66.8323L26.0571 76.1185L25.0987 76.8213C23.6291 77.9076 22.9049 79.505 22.9049 81.5709C22.9262 83.6369 23.0327 83.9564 23.8633 84.2545C24.7792 84.574 33.0218 84.9574 35.3646 84.7657C36.9194 84.6592 37.3454 84.5527 37.8778 84.1055C38.2186 83.8073 38.4955 83.4452 38.4955 83.2748C38.4955 83.1044 38.602 82.9766 38.7085 82.9766C38.8363 82.9766 38.9215 83.1257 38.9215 83.2961C38.9215 83.4665 39.1984 83.9138 39.5391 84.2971L40.1568 85L45.5666 84.9574C54.5547 84.9148 54.576 84.8935 54.576 82.0821C54.5547 79.5263 53.8305 77.9928 52.1053 76.9065L51.3386 76.4167L51.2108 68.6639C51.1256 64.4255 50.9978 60.251 50.9339 59.4203C50.7848 57.9081 50.7848 57.8868 51.4025 57.61C52.4461 57.0988 52.5526 56.6089 52.5526 52.2427C52.5526 48.3664 52.5739 48.2599 52.9573 48.4728C53.9583 49.0053 55.4066 50.7944 56.2799 52.6261C57.5152 55.1393 57.9837 56.9071 57.9625 59.0157C57.9412 61.2733 57.4513 62.466 56.1734 63.4245C54.9593 64.3403 53.9583 66.0016 53.6388 67.599C53.3619 69.0899 53.4471 69.452 54.2139 69.7289C55.9604 70.4104 62.563 71.731 64.352 71.7523C65.2253 71.7735 65.4596 71.6884 65.8855 71.1985C66.8014 70.1336 66.844 67.812 65.9494 66.0442C65.4383 65.0219 63.99 63.531 63.138 63.1476L62.6269 62.9133L63.138 61.6567C64.5437 58.185 63.8196 52.1362 61.5619 48.2812C59.8154 45.3206 56.5141 42.5731 53.2555 41.4017C52.1266 40.997 51.871 40.8053 51.7007 40.2516C51.4025 39.3357 50.4014 38.4625 49.443 38.2282C48.9744 38.143 47.9095 38.0365 47.0363 38.0365H45.4815L45.6092 37.3763C45.6731 37.0142 45.737 36.6308 45.737 36.5456C45.737 36.4604 46.4399 36.2687 47.3131 36.1409C50.8274 35.5659 52.1266 33.5851 52.1266 28.7929C52.1266 22.9145 50.2523 20.3587 45.9287 20.3587C44.8851 20.3587 44.4591 20.2735 44.4591 20.0818C44.4591 19.4854 43.3729 18.2927 42.3506 17.7176C40.9661 16.9722 38.7511 16.7805 37.0046 17.2703ZM41.5412 18.8251C42.0737 19.0594 42.6061 19.4641 42.7339 19.6984C42.9895 20.1457 42.9469 20.1457 40.5828 20.1457C39.2623 20.1457 37.3667 20.2096 36.3656 20.2735L34.5553 20.38L35.3646 19.6558C36.8768 18.2714 39.4965 17.9093 41.5412 18.8251ZM47.6539 21.8922C48.804 22.2329 49.5921 22.8932 49.9968 23.8516C50.87 25.8111 51.0617 30.0921 50.3801 32.3285C50.0394 33.4573 49.1874 34.3306 48.1651 34.6074C45.3324 35.3529 35.0877 35.289 31.1475 34.5009C27.8462 33.8407 27.4628 33.2656 27.4415 28.729C27.3989 24.3202 27.9527 22.9784 30.0399 22.382C31.1475 22.0838 34.2997 21.6792 36.6851 21.5727C39.1345 21.4449 46.9085 21.6792 47.6539 21.8922ZM44.2461 37.2272V38.0365H38.9215H33.5968V37.1846V36.3539L38.9215 36.3965L44.2461 36.4391V37.2272ZM49.7625 39.783C50.0181 39.9321 50.2949 40.3368 50.4227 40.6988C50.7848 41.849 51.083 45.5123 51.2108 50.7092C51.3173 55.3736 51.296 55.8635 50.9765 56.2043C50.6357 56.545 49.8264 56.5663 41.7116 56.5663C33.1282 56.5663 27.974 56.3533 26.3127 55.9061L25.5033 55.6931V52.3492C25.5033 48.1747 25.8441 42.0833 26.1423 40.997C26.2701 40.5285 26.5683 40.0599 26.8238 39.9321C27.6119 39.5061 32.0207 39.3357 40.7745 39.4209C47.3344 39.4848 49.4217 39.57 49.7625 39.783ZM53.7027 43.0204C55.0658 43.6381 57.1318 45.0012 57.8773 45.8105C58.3245 46.2791 58.3458 46.4069 58.0902 46.556C57.9199 46.6625 57.1957 47.1736 56.4928 47.6848L55.2362 48.6432L54.4269 47.9404C54.0009 47.5357 53.3406 47.0671 52.9999 46.8755C52.3822 46.556 52.3396 46.4708 52.3396 45.3206C52.3396 44.6604 52.2757 43.7445 52.2118 43.2973C52.0414 42.3601 52.1479 42.3388 53.7027 43.0204ZM24.3745 44.6817C24.2893 45.6614 24.2254 46.7264 24.2254 47.0884C24.2254 47.5996 23.9911 47.9191 23.1392 48.6645L22.053 49.6017L20.8176 48.3664C19.9444 47.4931 19.6036 47.0245 19.7314 46.8329C20.3278 45.7679 23.6504 42.9352 24.2893 42.9352C24.4171 42.9352 24.4384 43.6168 24.3745 44.6817ZM60.1562 48.5367C60.4757 49.0266 60.923 49.9637 61.1998 50.6027L61.6684 51.7741L59.8367 52.2427C58.4736 52.5835 57.9412 52.6261 57.8134 52.4557C57.5152 51.9871 56.1734 49.7082 56.1734 49.623C56.1734 49.4313 59.2404 47.4505 59.4108 47.5357C59.5173 47.5996 59.858 48.0469 60.1562 48.5367ZM20.5621 51.8593C20.2 52.5196 19.8805 53.0734 19.8379 53.1159C19.8166 53.1585 19.1137 53.1159 18.2831 53.0308C17.1969 52.9243 16.7709 52.7965 16.7709 52.6048C16.7709 52.4344 17.1969 51.3695 17.7293 50.2406L18.6878 48.1747L19.9657 49.4313L21.2223 50.6879L20.5621 51.8593ZM62.3287 54.3726C62.4565 55.0328 62.563 55.9913 62.563 56.5024V57.4183L61.3915 57.4609C60.7526 57.4822 60.0071 57.5035 59.7728 57.5035C59.3682 57.5248 59.2617 57.3118 58.8996 55.8422C58.6866 54.905 58.5801 54.0744 58.6866 53.9679C58.8357 53.8188 61.1785 53.2224 61.8388 53.1798C61.9666 53.1585 62.1796 53.7123 62.3287 54.3726ZM19.2841 54.543C19.3267 54.5856 19.2628 54.9689 19.1563 55.4162C19.0285 55.8848 18.8795 56.6941 18.7943 57.2479L18.6665 58.2702H17.0904H15.5143L15.6208 57.4609C15.6847 57.0349 15.8338 56.1191 15.9615 55.4375L16.1958 54.1809L17.708 54.33C18.5387 54.4152 19.2415 54.5217 19.2841 54.543ZM35.6841 57.972C35.8758 58.0359 35.9397 58.3767 35.8971 59.0583L35.8332 60.0806L34.6617 60.251C34.0228 60.3362 32.2124 60.3575 30.6789 60.2723L27.8462 60.1445V58.8879V57.6313L31.6373 57.7591C33.7033 57.8229 35.535 57.9294 35.6841 57.972ZM49.5708 59.1009V60.3362L48.2716 60.4853C46.6103 60.6557 43.5433 60.6557 42.4996 60.4853L41.6903 60.3362V59.2074V58.0785L42.6061 57.9933C43.096 57.9507 44.8638 57.9081 46.5464 57.8868L49.5708 57.8442V59.1009ZM40.1994 58.2063C40.1994 58.3128 40.3059 60.9538 40.4124 64.1273C40.5189 67.2795 40.7106 71.4328 40.8596 73.3284L41.1152 76.7574L40.2633 77.5881C39.7308 78.0779 39.2836 78.7595 39.1345 79.292C38.8576 80.1865 38.4955 80.3356 38.4955 79.5476C38.4955 78.8234 37.6436 77.4177 36.962 77.0556C36.3443 76.6935 36.323 76.6722 36.4508 75.3091C36.6851 72.732 36.9833 66.9175 37.1324 62.466L37.2602 58.0572H38.7298C39.5391 58.0572 40.1994 58.1211 40.1994 58.2063ZM62.3074 59.8037C62.2009 60.3149 61.9453 61.1029 61.7323 61.5715L61.3489 62.4235L60.071 62.3596L58.7931 62.2744L59.0913 61.1881C59.2404 60.5918 59.3682 59.825 59.3682 59.5055V58.9092H60.9443H62.5204L62.3074 59.8037ZM18.773 59.8889C18.8369 60.0806 18.9008 60.5066 18.9008 60.8474C18.9008 61.3372 18.7943 61.4863 18.3257 61.5715C17.9849 61.6567 17.346 61.7845 16.8774 61.891C16.4301 61.9975 16.0254 62.0614 15.9828 62.0401C15.9615 61.9975 15.8551 61.4437 15.7486 60.7622L15.5569 59.5481H17.0904C18.3044 59.5481 18.6665 59.612 18.773 59.8889ZM35.7267 63.4032C35.7267 64.8941 35.6628 65.2775 35.3859 65.384C34.9386 65.5543 29.1454 65.5543 28.2935 65.384C27.6758 65.2562 27.6332 65.1923 27.6332 64.3403C27.6332 63.8505 27.6971 63.0198 27.761 62.5086L27.8888 61.5715H31.8077H35.7267V63.4032ZM49.7838 63.7014V65.7247H45.737H41.6903V63.8079V61.891L45.4815 61.8271C47.5474 61.8058 49.3791 61.7419 49.5282 61.7206C49.7199 61.6993 49.7838 62.1892 49.7838 63.7014ZM21.3714 63.5097C22.2872 64.1699 22.7984 65.8951 22.6919 67.812C22.628 68.6639 22.5428 69.3881 22.5002 69.4307C22.2872 69.6437 13.6613 70.7725 13.4909 70.6234C13.3844 70.5169 13.3631 69.5585 13.4057 68.451C13.5335 65.5331 14.3216 64.2338 16.4727 63.3819C17.8997 62.8068 20.5195 62.8707 21.3714 63.5097ZM61.4341 63.9144C62.8611 64.3403 64.2881 65.6182 64.9058 67.0453C65.3105 67.9824 65.3531 68.3232 65.204 69.2177C65.0336 70.24 64.9697 70.3039 64.352 70.3678C63.5427 70.453 60.7952 69.9845 57.4087 69.1964C55.0019 68.6427 54.8954 68.6001 54.8954 68.0676C54.8954 67.3008 55.79 65.5118 56.5354 64.8302C57.7495 63.6801 59.5173 63.3393 61.4341 63.9144ZM35.535 68.7491C35.4924 69.9206 35.3646 70.7938 35.2155 70.9003C34.896 71.1346 27.8888 70.9642 27.6758 70.7086C27.5906 70.6021 27.548 69.6863 27.5906 68.6427L27.6545 66.7897H31.6373H35.6202L35.535 68.7491ZM49.869 68.3658C50.1246 70.9429 50.1246 70.9642 49.017 71.1346C48.4633 71.1985 46.6955 71.2624 45.0981 71.2624H42.1802L42.0311 70.6021C41.9672 70.24 41.9033 69.3029 41.9033 68.5149V67.1091H45.8222H49.7412L49.869 68.3658ZM35.2581 72.4338C35.3007 72.4764 35.2794 73.3284 35.1942 74.3507C35.0664 75.9268 34.9812 76.1611 34.683 76.0333C34.4914 75.9694 32.7875 75.8416 30.8919 75.7777L27.4202 75.6712V73.946V72.2208L31.3179 72.2847C33.4477 72.3273 35.2368 72.4125 35.2581 72.4338ZM49.9968 74.3081V76.0546L47.9734 75.9907C46.8446 75.9481 45.162 76.012 44.1822 76.1398C43.2238 76.2463 42.4357 76.3315 42.4144 76.3102C42.3932 76.2889 42.3293 75.4582 42.2654 74.4572L42.1376 72.6255L46.0778 72.6042L49.9968 72.5616V74.3081ZM33.469 77.226C35.535 77.5242 36.5786 78.1418 37.0472 79.3559C37.5158 80.5699 37.5371 82.2951 37.0898 82.934C36.7703 83.4026 36.6851 83.4026 32.5745 83.3813C30.2742 83.36 27.4628 83.2961 26.3553 83.2109L24.3319 83.0831L24.268 81.8052C24.1402 79.5476 25.1413 77.9076 27.0155 77.3325C28.1231 76.9917 31.4031 76.9278 33.469 77.226ZM49.7625 77.4603C52.0201 77.9289 53.2342 79.505 53.2342 81.933C53.2342 82.6359 53.1916 83.2535 53.149 83.3174C53.0851 83.36 50.9978 83.5091 48.4846 83.6369C43.9267 83.8499 40.9661 83.7647 40.4763 83.36C39.7947 82.8062 39.9225 80.2504 40.6893 79.1003C40.9448 78.7382 41.5199 78.2483 41.9672 78.014C43.2664 77.3538 47.7604 77.013 49.7625 77.4603Z" fill="#2458A4"/>
<path d="M32.4252 24.0007C30.6361 24.4054 29.3369 26.0667 29.3369 27.9196C29.3369 29.8578 30.3592 31.0505 32.4039 31.4765C33.4688 31.7108 33.6179 31.6895 34.7468 31.1357C39.0278 29.0485 37.047 22.9571 32.4252 24.0007ZM35.1088 25.9176C36.5997 27.515 35.3431 30.156 33.1068 30.156C31.6585 30.156 30.6361 29.304 30.6148 28.0687C30.6148 26.4926 31.8928 25.2573 33.554 25.2573C34.3208 25.2573 34.5977 25.3851 35.1088 25.9176Z" fill="#2458A4"/>
<path d="M43.8631 24.0221C41.9888 24.4268 40.3701 26.727 40.7109 28.4948C41.2647 31.4553 44.8003 32.5842 47.1431 30.5395C48.1441 29.6449 48.5062 28.8995 48.5062 27.6003C48.5062 26.365 48.1867 25.6195 47.2922 24.7889C46.8023 24.3416 45.3114 23.7026 44.8855 23.7878C44.8216 23.8091 44.3743 23.8943 43.8631 24.0221ZM46.1634 25.5343C46.8236 26.0455 47.2283 26.8548 47.2283 27.6642C47.2283 28.3457 47.0792 28.6439 46.3977 29.3255C45.6522 30.0709 45.4605 30.1561 44.4595 30.1561C43.5223 30.1561 43.2668 30.0709 42.7343 29.5384C42.2444 29.0273 42.1166 28.7291 42.1166 27.9836C42.1166 26.9187 42.5213 26.2585 43.4797 25.6621C44.2252 25.2148 45.6735 25.1296 46.1634 25.5343Z" fill="#2458A4"/>
<path d="M35.1517 32.0089C34.7258 32.158 34.8323 32.8821 35.2795 33.1377C35.5138 33.2655 37.1964 33.3507 39.2198 33.3507C42.6063 33.3507 42.734 33.3294 42.8618 32.9034C42.947 32.6479 42.9257 32.371 42.8192 32.2858C42.6488 32.1154 35.599 31.8598 35.1517 32.0089Z" fill="#2458A4"/>
<path d="M31.8927 42.2749C29.9545 42.5944 29.3155 43.2333 28.6766 45.491C28.3145 46.8328 28.2932 51.1564 28.6766 52.051C29.4007 53.7761 32.2121 54.4151 38.9851 54.4364C44.0542 54.4577 44.97 54.2873 46.2266 53.0094C47.3768 51.8806 47.7601 50.5175 47.7601 47.7273C47.7601 45.6188 47.6963 45.2567 47.2064 44.3196C46.823 43.5528 46.4183 43.1055 45.7794 42.7435C44.8848 42.2749 44.6931 42.2536 38.8573 42.1897C35.556 42.1471 32.4251 42.1897 31.8927 42.2749ZM44.7996 43.8297C45.9924 44.2344 46.4396 45.2567 46.4609 47.6208C46.4609 50.8369 45.6516 52.4556 43.756 52.9668C43.1596 53.1159 41.328 53.1798 38.2823 53.1159C33.4262 53.0094 30.9342 52.626 30.2101 51.9019C29.4433 51.1351 29.5072 46.8754 30.3166 44.8307C30.6786 43.9788 31.1259 43.7232 32.8511 43.4889C34.2568 43.2759 43.9903 43.5741 44.7996 43.8297Z" fill="#2458A4"/>
<path d="M32.6171 46.2365C32.3189 47.0033 32.9153 47.1949 35.6202 47.1949C38.3251 47.1949 38.9215 47.0033 38.6233 46.2365C38.5381 45.9809 38.0056 45.917 35.6202 45.917C33.2347 45.917 32.7023 45.9809 32.6171 46.2365Z" fill="#2458A4"/>
<path d="M32.191 48.7923C31.8715 49.5804 32.2123 49.6869 35.0237 49.7934C36.5146 49.8573 37.8564 49.8573 38.0055 49.8147C38.4102 49.6656 38.4954 49.1331 38.1546 48.7923C37.686 48.3238 32.3614 48.3238 32.191 48.7923Z" fill="#2458A4"/>
</g>
<path d="M60.5061 60.9325C49.1809 72.2577 30.8191 72.2577 19.4939 60.9325C8.1687 49.6073 8.1687 31.2455 19.4939 19.9203C30.8191 8.59508 49.1809 8.59508 60.5061 19.9203C71.8313 31.2455 71.8313 49.6073 60.5061 60.9325Z" stroke="#2458A4" stroke-width="2"/>
<defs>
<clipPath id="clip0_469_3219">
<rect x="11" y="11" width="58" height="58" rx="29" fill="white"/>
</clipPath>
</defs>
</svg>
