<svg width="55" height="60" viewBox="0 0 55 60" fill="none" xmlns="http://www.w3.org/2000/svg">
<g id="Black">
<path id="Vector" d="M35.0904 0.292122C24.331 0.947212 21.4526 1.4832 20.7181 3.05144C20.063 4.42118 20.4005 5.43359 22.1672 7.53782C23.6362 9.28473 23.7156 9.90012 22.7627 11.4287C21.393 13.5726 21.0357 15.1011 21.7106 16.054C22.6238 17.3443 24.6288 17.3642 37.0755 16.1731C38.7628 16.0143 40.6686 15.8555 41.284 15.8356L42.3956 15.7761L42.5147 16.7686C42.7132 18.5354 43.4477 27.6273 43.3882 27.667C43.3485 27.6868 42.7529 27.8258 42.0582 27.9647C40.4899 28.2625 38.9812 29.0169 38.5445 29.6719C38.207 30.1881 38.1276 32.7687 38.3857 35.131L38.5048 36.2229H34.7529C29.7702 36.2427 26.9514 36.7588 25.9389 37.8308C25.5022 38.3072 25.4625 38.466 25.5022 40.2527C25.5419 41.3246 25.6213 42.6944 25.6809 43.3097L25.8 44.4611H23.2392C17.7602 44.4611 13.929 45.0368 13.1151 45.95C12.6783 46.4264 12.6783 46.5654 12.7974 48.9078L12.9165 51.3694L10.3557 51.4885C3.60631 51.8061 0.58892 52.1833 0.132342 52.7192C-0.145576 53.0567 0.0529366 58.5952 0.370556 59.1907C0.489664 59.4091 0.807284 59.6672 1.10505 59.8061C2.17702 60.2627 12.0232 59.8458 13.9687 59.2503C14.584 59.0716 15.0605 59.0518 15.8545 59.2106C17.9985 59.6275 26.6139 58.8533 27.4476 58.1585C27.5866 58.0394 28.0432 58.0989 28.6586 58.2776C29.4526 58.5356 30.2864 58.5753 33.2045 58.4761C36.9961 58.357 39.0805 58.0195 40.1723 57.3843C40.7678 57.027 40.8869 57.0071 41.4229 57.285C42.4949 57.821 44.1425 57.96 47.279 57.7614C51.5073 57.4835 53.3734 56.8681 54.088 55.5183C54.4255 54.8632 54.3858 52.8979 53.949 45.4537C53.8498 43.7663 53.6116 39.5579 53.4329 36.1236C53.2344 32.1931 53.016 29.6322 52.8572 29.2352C52.6786 28.8382 52.3014 28.461 51.7853 28.203C50.7331 27.6471 48.2517 27.3295 46.5644 27.4883L45.2145 27.6273V27.0714C45.2145 26.7538 44.9564 23.4188 44.619 19.6471C44.3013 15.8753 43.8051 10.0391 43.5271 6.64452C43.2294 3.26981 42.9118 0.371525 42.7926 0.252419C42.5346 -0.0652008 40.9862 -0.0453491 35.0904 0.292122ZM41.3237 2.91248C41.5817 5.39389 42.2567 13.7314 42.1971 13.791C42.1376 13.8307 35.7852 14.4262 28.2218 15.0813C25.5221 15.3195 23.7553 15.3195 23.398 15.1011C23.001 14.8431 23.2392 14.0887 24.1722 12.6396C25.1449 11.0713 25.4427 9.97952 25.1647 8.96711C24.9662 8.17306 24.1325 6.88273 23.1598 5.85047C22.4054 5.05642 22.1474 4.30207 22.4451 3.8852C22.9811 3.17055 27.13 2.61472 35.0904 2.17799C39.1202 1.95963 40.5296 1.88022 40.9862 1.82067C41.1053 1.80082 41.2443 2.23754 41.3237 2.91248ZM50.4751 29.6521C50.9118 29.8308 51.1897 30.1087 51.2493 30.4064C51.3088 30.6645 51.4875 33.6819 51.6463 37.1162C51.825 40.5504 52.1029 45.8507 52.2617 48.9078C52.4999 53.1957 52.5198 54.5058 52.3411 54.7242C51.686 55.4984 48.9465 55.955 45.016 55.9748C42.8919 55.9748 41.8993 55.6374 41.5023 54.7838C41.3832 54.5058 41.1847 52.5803 41.0656 50.5157C40.5098 40.9077 40.2517 35.4288 40.1921 33.0467L40.1524 30.4859L41.1053 30.1285C42.3956 29.6521 44.2021 29.4337 47.2592 29.394C49.0656 29.3742 49.9986 29.4536 50.4751 29.6521ZM38.3857 38.3866C38.5048 38.5653 38.6636 39.9946 38.743 41.8209C38.8224 43.548 38.9614 46.2874 39.0606 47.9351C39.1599 49.5629 39.2988 52.0046 39.3782 53.3346L39.4973 55.7565L38.4452 56.0741C37.2145 56.4314 31.2988 56.8284 29.8893 56.6498C28.4005 56.4513 28.2218 56.1535 28.0829 53.6522C27.3682 41.404 27.2888 39.0616 27.5667 38.8829C28.9166 38.0492 37.8298 37.6323 38.3857 38.3866ZM25.6213 46.5256C25.8198 46.7242 25.9389 47.6572 26.0382 49.9202C26.0978 51.6274 26.2169 53.8309 26.2963 54.7838C26.4154 56.5505 26.4154 56.5505 25.9191 56.749C24.47 57.3049 16.0133 57.5828 15.3979 57.1064C14.9414 56.7689 14.4252 47.2998 14.8421 47.0418C15.3979 46.7043 19.4476 46.3271 23.1201 46.2676C24.7876 46.2477 25.403 46.3073 25.6213 46.5256ZM13.1349 55.3992C13.2143 56.5108 13.2342 57.4438 13.1945 57.4835C12.9959 57.682 9.79989 57.96 6.04801 58.0791L1.9388 58.218V57.027C1.9388 56.3719 1.87925 55.419 1.8197 54.9227L1.70059 54.0294L2.55419 53.8905C3.94378 53.6522 7.15968 53.4537 10.1969 53.414L12.9959 53.3942L13.1349 55.3992Z" fill="#2458A4"/>
<path id="Vector_2" d="M18.602 30.5579C17.8278 31.0939 17.5101 31.4314 17.1131 32.0666C16.7558 32.7018 17.2521 32.4636 18.5027 31.4115C20.1106 30.0616 20.1702 29.4859 18.602 30.5579Z" fill="#2458A4"/>
<path id="Vector_3" d="M21.3807 30.7963C20.3683 31.5308 18.9787 33.099 18.4824 34.0717C17.8472 35.3224 18.1847 35.3224 19.1177 34.0916C19.5941 33.4365 20.6065 32.3248 21.3609 31.5705C22.7505 30.2007 22.7703 29.8037 21.3807 30.7963Z" fill="#2458A4"/>
</g>
</svg>
