<svg width="65" height="60" viewBox="0 0 65 60" fill="none" xmlns="http://www.w3.org/2000/svg">
<g id="Icon">
<path id="Fill 1" fill-rule="evenodd" clip-rule="evenodd" d="M21.3645 32.399C21.0441 34.1105 21.6283 35.9927 22.9429 37.1451C23.4106 37.5877 24.0107 37.8635 24.6086 38.1062C25.6794 38.5065 26.8934 38.6395 28.0401 38.3866C29.1851 38.1421 30.2621 37.5568 31.053 36.6757C31.7463 35.8779 32.2077 34.8711 32.3413 33.8335C32.5218 32.4921 32.1946 31.153 31.5978 29.9806C31.4122 29.6197 31.7057 29.4233 32.2174 29.5677C32.7211 29.7014 33.4377 30.2953 33.6713 31.2575C34.0922 32.9313 33.8409 34.7387 33.0197 36.236C32.6177 36.992 32.0575 37.6408 31.4151 38.2095C30.7389 38.7321 29.9977 39.1672 29.1919 39.4065C27.2983 39.9855 25.1209 39.977 23.3112 39.0079C22.3273 38.4876 21.4713 37.7024 20.8934 36.7465C20.3223 35.7883 19.9802 34.7135 19.9425 33.6154C19.8752 32.2648 20.2389 30.9269 20.8819 29.7745C21.8641 28.0316 23.5476 26.6719 25.5155 26.2242C27.0322 25.8633 28.6957 26.1094 30.0434 26.9243C30.3289 27.1116 30.6333 27.275 30.8891 27.5062C31.8616 28.344 31.9901 28.7711 31.8702 29.1868C31.8411 29.2834 31.8222 29.393 31.776 29.4689C31.6977 29.5969 31.5361 29.6014 31.3254 29.5055C31.1153 29.409 30.8623 29.2057 30.5499 28.9521C30.3323 28.7471 30.0788 28.5924 29.8487 28.4108C29.5968 28.2629 29.3593 28.0921 29.0966 27.9756C28.5843 27.7204 28.0487 27.5279 27.4965 27.4577C26.3972 27.3018 25.2488 27.565 24.2569 28.1744C22.7796 29.0669 21.6597 30.6716 21.3987 32.4019L21.3645 32.399Z" fill="#2458A4"/>
<path id="Fill 3" fill-rule="evenodd" clip-rule="evenodd" d="M14.8454 32.2052C14.6267 33.9498 14.8351 35.7338 15.3947 37.4064C15.9281 39.087 16.9046 40.5998 18.1752 41.8184C19.114 42.6984 20.2162 43.4019 21.3983 43.9256C25.5453 45.8289 30.8333 45.3926 34.5034 42.5197C36.1298 41.2633 37.3816 39.5102 38.1371 37.6171C39.1159 35.1667 39.2352 32.4531 38.7435 29.8879C38.5779 29.0947 38.9371 29.0673 39.4613 29.6909C39.965 30.3053 40.5983 31.6747 40.5212 33.3776C40.4321 36.3688 39.3026 39.3166 37.3918 41.6111C35.4925 43.9461 32.724 45.5046 29.8219 46.0596C26.3647 46.7489 22.5072 46.2841 19.3921 44.4013C17.6944 43.3734 16.2205 41.94 15.216 40.2217C14.714 39.3663 14.2949 38.456 14.0214 37.5098C13.8483 37.0472 13.7758 36.555 13.6542 36.0787C13.5736 35.5933 13.4948 35.1051 13.4566 34.6151C13.3447 33.4067 13.444 32.1887 13.6593 31.0043C13.8746 29.8171 14.2532 28.6641 14.7677 27.5797C15.5227 25.9236 16.6088 24.428 17.9028 23.1574C19.1888 21.8765 20.7273 20.8589 22.3919 20.1565C24.9719 19.0612 27.9317 18.8328 30.6282 19.7299C31.2296 19.9024 31.7818 20.1611 32.354 20.4221C34.3949 21.5493 34.8158 22.2306 34.95 22.7925C34.9768 22.9261 35.0294 23.0809 35.0197 23.1831C35.0031 23.355 34.7838 23.3362 34.4189 23.1603C34.2367 23.0718 34.018 22.9438 33.7691 22.7788C33.5098 22.628 33.2083 22.4573 32.8845 22.2472C31.8971 21.6692 30.851 21.1861 29.746 20.8892C28.6393 20.6054 27.4897 20.4917 26.343 20.5728C24.0491 20.7299 21.786 21.6704 19.9352 23.1597C17.1936 25.3634 15.2297 28.6744 14.8802 32.2047L14.8454 32.2052Z" fill="#2458A4"/>
<path id="Fill 5" fill-rule="evenodd" clip-rule="evenodd" d="M8.19962 30.8426C7.79588 33.5951 7.91923 36.4453 8.73013 39.1235C9.13501 40.4643 9.65753 41.7612 10.3485 42.9724C11.0303 44.1882 11.8926 45.2972 12.86 46.3C14.2694 47.7767 15.9911 48.9285 17.8173 49.8371C21.0478 51.4503 24.7511 52.0945 28.3716 51.8335C31.9967 51.572 35.5595 50.3014 38.489 48.1365C41.0873 46.2137 43.1151 43.5195 44.3812 40.5757C46.0281 36.7776 46.3296 32.4861 45.5444 28.455C45.2754 27.2067 45.6506 27.245 46.2628 28.2603C46.8487 29.2659 47.5905 31.3714 47.4318 33.9395C47.329 36.202 46.8019 38.4331 45.9761 40.538C45.1241 42.6338 43.93 44.5902 42.463 46.3091C40.9708 48.0194 39.188 49.479 37.207 50.576C35.218 51.6548 33.0668 52.4371 30.8431 52.8077C29.5183 53.0527 28.1597 53.1641 26.7949 53.1658C25.4312 53.1681 24.0561 53.0664 22.7022 52.8123C21.347 52.565 20.0096 52.1996 18.7173 51.7067C17.4319 51.1985 16.1955 50.5663 15.042 49.8137C12.4945 48.1696 10.3885 45.8534 8.95113 43.1917C7.50636 40.5243 6.7657 37.5325 6.64121 34.5288C6.58867 32.682 6.73143 30.8192 7.17914 29.0261C7.61314 27.2324 8.26243 25.497 9.09789 23.8575C10.3988 21.3922 12.1371 19.1577 14.2054 17.2926C16.3001 15.4612 18.7173 13.9885 21.3385 13.0805C23.376 12.3827 25.5198 12.0195 27.6635 12.0749C29.8061 12.1268 31.935 12.5985 33.9149 13.4345C34.1336 13.5259 34.3586 13.6007 34.5693 13.7035L35.1963 14.0227C35.6075 14.2472 36.0489 14.4276 36.4401 14.7006C37.9499 15.6285 38.802 16.4303 39.3987 16.9808C39.9412 17.5901 40.197 17.9967 40.3358 18.3827C40.3986 18.5586 40.4991 18.7705 40.5088 18.8956C40.5254 19.1074 40.2387 19.0109 39.7248 18.662C39.4672 18.4872 39.1532 18.2491 38.79 17.9533C38.4205 17.6644 37.9642 17.3646 37.4811 16.9934C36.0043 15.9598 34.4277 15.0164 32.6991 14.4316C30.9853 13.8223 29.1728 13.4717 27.3369 13.4465C23.6535 13.3654 19.9657 14.7006 16.9099 16.8843C14.6154 18.4907 12.6893 20.6167 11.1777 22.99C9.69236 25.3805 8.6616 28.0656 8.23445 30.8409L8.19962 30.8426Z" fill="#2458A4"/>
<path id="Fill 7" fill-rule="evenodd" clip-rule="evenodd" d="M2.46038 30.51C1.99497 34.026 2.18742 37.6556 3.23816 41.0637C3.75839 42.77 4.43052 44.4203 5.30424 45.9691C6.18253 47.5143 7.26468 48.9385 8.48731 50.2286C9.36445 51.1879 10.3821 52.0063 11.4134 52.7932C12.4778 53.5378 13.5743 54.2419 14.7415 54.8187C22.9088 59.0354 33.4305 58.5911 41.1466 53.4156C44.5712 51.14 47.3071 47.8621 49.1437 44.2279C51.4913 39.5304 52.2856 34.1333 51.6397 28.947C51.4085 27.3389 51.7876 27.4548 52.3696 28.8025C52.6477 29.4787 52.9366 30.4752 53.1205 31.7138C53.2775 32.9501 53.3518 34.4309 53.149 36.015C52.4661 41.6302 49.938 47.0004 46.0223 51.0931C44.0744 53.1581 41.7273 54.8244 39.2096 56.107C36.6844 57.3913 33.9393 58.1982 31.1542 58.6305C29.4828 58.8635 27.781 58.9771 26.0696 58.9474C24.3581 58.8943 22.6427 58.7065 20.9478 58.3735C17.57 57.6746 14.267 56.384 11.4157 54.4275C9.84756 53.3614 8.38737 52.125 7.11278 50.7151C5.84275 49.3023 4.74632 47.737 3.84691 46.0678C2.04008 42.7232 1.09213 38.9765 0.901397 35.2086C0.649561 30.5568 1.76426 25.9056 3.77324 21.7517C5.34022 18.6177 7.45998 15.7625 9.98804 13.3423C12.5315 10.9382 15.5193 9.01371 18.7446 7.70885C21.2613 6.71635 23.9218 6.13159 26.6069 6.04136C29.2909 5.94771 31.9897 6.35944 34.5378 7.24172C34.8199 7.33652 35.0997 7.43074 35.3795 7.52497C35.6582 7.62148 35.9197 7.75796 36.191 7.87217C36.7249 8.11944 37.276 8.33872 37.8042 8.62025C41.6857 10.7966 42.5451 12.0277 43.0351 12.8655C43.1407 13.0665 43.2966 13.3103 43.3332 13.4514C43.3937 13.6895 43.0488 13.5639 42.3926 13.1373C42.0648 12.9243 41.6588 12.6354 41.1854 12.2779C40.6903 11.9501 40.1158 11.5692 39.47 11.1415C37.5249 9.93483 35.4474 8.87323 33.2078 8.2445C30.9761 7.6112 28.6347 7.31996 26.2894 7.43074C23.9447 7.53867 21.6028 8.04177 19.3791 8.89665C17.1599 9.76579 15.0613 10.973 13.1551 12.4361L12.6195 12.8375C12.4447 12.9763 12.2808 13.1293 12.1112 13.2744L11.0993 14.1555L10.1508 15.1063C9.83043 15.4193 9.51864 15.7408 9.23539 16.0891L8.35825 17.1084C8.08186 17.4613 7.82146 17.8274 7.55135 18.1854C6.99 18.8878 6.55428 19.6765 6.05746 20.424C5.17918 21.9864 4.34886 23.5905 3.7818 25.2951C3.44659 26.13 3.24558 27.0054 2.99774 27.8671C2.87097 28.2977 2.81729 28.7449 2.7225 29.1823C2.64883 29.6237 2.52548 30.0583 2.49522 30.506L2.46038 30.51Z" fill="#2458A4"/>
<path id="Fill 9" fill-rule="evenodd" clip-rule="evenodd" d="M41.4173 24.382C40.2106 25.1249 39.0063 25.8753 37.8128 26.6422C37.3776 26.9226 36.9739 27.2464 36.537 27.5228L31.9075 30.4512C31.2262 30.8897 30.5735 31.3751 29.9339 31.8605C29.1162 32.4858 28.3298 33.1757 27.4058 33.6388C27.1277 33.777 26.9107 33.4544 26.8987 32.9804C26.8902 32.5064 27.0604 31.8919 27.5263 31.5185C29.183 30.2028 30.8847 28.955 32.7446 27.8957C33.8599 27.267 34.8873 26.4269 35.966 25.6966C37.1526 24.8942 38.3536 24.1124 39.5528 23.3272L41.7708 21.8848C42.8849 21.1487 44.0276 20.4428 45.112 19.6788C45.9606 19.09 46.7321 18.4224 47.5567 17.8057C47.7383 17.6698 47.9022 17.5179 48.0946 17.3923C48.8147 16.9388 49.1185 16.9177 49.5303 17.2626C49.6245 17.3409 49.7284 17.4122 49.8072 17.4996C50.0716 17.7949 49.9471 18.2528 49.5029 18.6788C48.1746 19.9323 46.6327 21.0345 45.0349 22.0892C43.842 22.8641 42.6428 23.6436 41.4464 24.4202L41.4173 24.382Z" fill="#2458A4"/>
<path id="Fill 11" fill-rule="evenodd" clip-rule="evenodd" d="M51.3688 22.5146C49.008 23.1941 44.5858 21.035 44.5858 21.035C44.5858 21.035 43.7715 15.6088 45.95 13.7843C46.2573 13.5273 48.4867 11.7627 49.9457 11.2505C50.5082 11.0535 49.0743 16.8902 49.7767 17.4242C49.7767 17.4242 54.9562 18.1106 55.8476 19.0585L51.3688 22.5146Z" fill="#2458A4"/>
<path id="Fill 13" fill-rule="evenodd" clip-rule="evenodd" d="M48.8635 14.6897C48.996 13.8069 49.2147 12.4335 49.2039 12.6174C49.209 12.5751 49.2313 12.5157 49.2067 12.4763C49.1702 12.478 49.1308 12.4906 49.0891 12.5043C49.0468 12.5186 49.0017 12.5369 48.9543 12.5586C48.9338 12.5694 48.9509 12.5574 48.9006 12.5854L48.7522 12.6711L48.4558 12.8492C47.8807 13.2044 47.3382 13.6253 46.7877 14.0262L46.4337 14.2906C46.3337 14.374 46.2641 14.4539 46.1739 14.5333C46.0796 14.6012 46.0231 14.724 45.9437 14.8177C45.8638 14.9107 45.7998 15.0238 45.7416 15.1437C45.4852 15.6012 45.3133 16.1482 45.2008 16.7147C44.9632 17.8483 44.9352 19.0663 45.0026 20.2621L45.0203 20.5288L45.038 20.7053L45.1768 20.7721L45.3624 20.8532C45.5537 20.9371 45.7473 21.0142 45.9409 21.0901C46.3297 21.2403 46.7221 21.3768 47.115 21.4985C48.4124 21.8828 49.7755 22.138 50.9781 22.0924C51.3345 22.0678 51.4447 22.4047 51.1238 22.8222C50.8108 23.2447 49.9737 23.6234 49.0937 23.4834C48.2051 23.3527 47.3708 23.1191 46.5616 22.8387C46.1561 22.7011 45.7615 22.5423 45.3681 22.3784L44.7845 22.1192L44.3019 21.8913L43.7714 21.6298C43.7332 21.3357 43.6995 21.0433 43.6715 20.7498L43.6538 20.5505L43.6475 20.43L43.6349 20.1896C43.6229 19.8692 43.6212 19.5477 43.6252 19.2274C43.6378 18.5849 43.6926 17.9391 43.7948 17.2943C43.9473 16.3949 44.1335 15.4618 44.5846 14.5533C44.7959 14.097 45.1334 13.6687 45.5343 13.2975C45.9037 12.9943 46.2544 12.7327 46.6256 12.4706C47.031 12.1862 47.4439 11.9116 47.871 11.6512L48.1948 11.4587C48.3125 11.3925 48.5237 11.2651 48.6836 11.1892C49.0229 11.019 49.3815 10.8305 49.6818 10.7689C49.8303 10.7426 49.9834 10.7101 50.0896 10.738C50.149 10.7472 50.2061 10.7437 50.2672 10.7626C50.3346 10.7889 50.3894 10.8545 50.4197 10.9048C50.5533 11.1138 50.6121 11.3953 50.6115 11.7522C50.6098 12.1074 50.5527 12.4969 50.5047 12.8698L50.3922 13.6173C50.3014 14.2066 50.2078 14.7914 50.137 15.3716C50.101 15.6611 50.0707 15.9501 50.053 16.2322C50.045 16.3618 50.041 16.5383 50.041 16.6205C50.0422 16.6964 50.0428 16.7741 50.0576 16.8506C50.0707 16.934 50.1067 17.0482 50.2124 17.0339L51.214 17.2121L52.4281 17.4537C52.8318 17.5393 53.2344 17.6335 53.6364 17.7323C54.0544 17.85 54.3776 17.9088 54.9778 18.1372L55.3227 18.2663L55.6225 18.4262C55.8333 18.529 55.9972 18.6552 56.1856 18.7802C56.2747 18.8522 56.3792 18.9241 56.4574 18.9967L56.2479 19.2211L55.8258 19.6791L55.2319 20.1702L54.7403 20.5836L53.9545 21.2529C53.7226 21.4488 53.5039 21.6504 53.2658 21.8422C52.3835 22.5532 52.0415 22.7 51.6252 22.5589C51.5304 22.5269 51.4219 22.5058 51.3453 22.459C51.0866 22.3014 51.3094 21.8342 51.9152 21.2615C52.3641 20.8372 52.8284 20.4174 53.3041 20.0029L54.0253 19.3833L54.1092 19.3119L54.1138 19.3022L54.1207 19.2845C54.1241 19.2748 54.1258 19.2668 54.1258 19.2599C54.1384 19.2336 54.071 19.2348 54.067 19.2388L54.063 19.2405C54.063 19.2405 54.063 19.2411 54.0601 19.2411C54.0601 19.2411 54.063 19.2428 54.0133 19.2279C53.8705 19.1851 53.7244 19.144 53.5736 19.1069C53.2772 19.0281 52.9706 18.9584 52.6639 18.8899C52.1962 18.7859 51.7194 18.6946 51.2425 18.6043L50.523 18.4776L50.0839 18.4056L49.3501 18.2983C49.2815 18.2172 49.2079 18.1612 49.1468 18.0813C49.0737 18.003 49.004 17.9248 48.9372 17.8443C48.8355 17.6598 48.7493 17.4605 48.7219 17.2315C48.6751 17.0231 48.6734 16.7478 48.6677 16.5697C48.6671 16.4298 48.6734 16.3001 48.6791 16.1682C48.7093 15.6531 48.767 15.1672 48.8293 14.688L48.8635 14.6897Z" fill="#2458A4"/>
<path id="Fill 15" fill-rule="evenodd" clip-rule="evenodd" d="M4.12688 46.313C5.95026 49.8051 8.75015 52.7791 12.1308 54.8658C13.3551 55.6464 14.692 56.2249 16.026 56.7891C18.4073 57.7267 20.9279 58.3269 23.4897 58.5759C26.0537 58.8003 28.6537 58.6679 31.1881 58.1739C33.4375 57.7353 35.6275 56.9398 37.6313 55.8777C38.927 55.2055 40.1297 54.3718 41.2889 53.4941C42.4122 52.5707 43.5235 51.6273 44.524 50.5663C45.1647 49.9267 45.3657 50.2316 45.0916 51.0477C44.9471 51.4486 44.7164 52.0122 44.2915 52.5712C44.086 52.8568 43.849 53.1577 43.5829 53.4644C43.3013 53.7533 42.9855 54.0434 42.6452 54.3307C37.7398 58.3361 31.3206 60.2799 25.0492 59.9676C21.3037 59.7746 17.4148 58.9951 13.9273 57.3578C10.1058 55.563 6.73489 52.7734 4.35073 49.2911C3.95556 48.7749 3.65976 48.193 3.31027 47.6476C2.98534 47.0874 2.71123 46.4981 2.41028 45.9253C2.15959 45.3291 1.89576 44.7369 1.66391 44.1345C1.46005 43.5217 1.23791 42.9153 1.05003 42.2991C-0.0384039 38.5427 -0.283958 34.5367 0.328785 30.7141C0.529226 29.2208 0.903839 27.7748 1.30586 26.3415C1.7707 24.9293 2.27038 23.5233 2.94594 22.1888C3.22061 21.5892 3.52156 21.0198 3.85791 20.4465C5.12394 18.3301 5.74411 17.7991 6.33573 17.6038C6.47278 17.5604 6.6321 17.4878 6.73832 17.4861C6.9182 17.4827 6.90507 17.714 6.72747 18.1211C6.5533 18.5323 6.18782 19.0999 5.75782 19.8509C4.43982 22.046 3.31198 24.4273 2.55134 26.9588C1.78898 29.4874 1.35897 32.148 1.35098 34.82C1.36925 38.7728 2.2778 42.7919 4.15486 46.2925L4.12688 46.313Z" fill="#2458A4"/>
<path id="Fill 18" fill-rule="evenodd" clip-rule="evenodd" d="M26.3114 34.4386C25.8546 34.3684 25.4663 33.9019 25.4817 33.4741C25.4903 33.051 25.7529 32.7889 26.0419 32.7015C26.2246 32.6364 26.6255 32.8757 26.6723 32.9568C26.7038 33.0476 26.7786 33.1041 26.8334 33.0927C26.8105 33.0938 26.782 33.0995 26.7586 33.1075C26.754 33.1075 26.7466 33.1081 26.738 33.1121C26.7032 33.1298 26.7426 33.1087 26.7352 33.1092C26.7312 33.1121 26.7654 33.0858 26.7734 33.0647C26.8014 33.0299 26.8214 32.975 26.8277 32.9356C26.834 32.8962 26.8242 32.8979 26.8334 32.9179C26.838 32.9356 26.8368 32.9025 26.7426 32.846C26.7083 32.822 26.6741 32.8049 26.6409 32.7934C26.6289 32.7912 26.605 32.7814 26.5758 32.7672L26.5656 32.7592C26.5587 32.7552 26.5467 32.7375 26.537 32.7295C26.7403 32.7432 26.9327 32.6878 26.9693 32.6552C27.0201 32.6204 26.9847 32.6335 26.9659 32.6975C26.943 32.762 26.9407 32.8483 26.9499 32.9333C26.9596 33.0104 26.9824 33.1047 27.0213 33.192C27.0395 33.24 27.0652 33.2954 27.0892 33.3314C27.0852 33.3416 27.0772 33.3548 27.0704 33.3633C27.043 33.3605 27.1132 33.4239 26.9956 33.2817C26.9562 33.2337 26.911 33.1869 26.8659 33.1435C26.8368 33.1069 26.8043 33.0715 26.7689 33.039C26.7329 33.0059 26.6929 32.9745 26.6518 32.9465C26.6284 32.9242 26.601 32.9031 26.5713 32.8842C26.4953 32.8437 26.4702 32.8266 26.4279 32.8129C26.2606 32.7837 26.481 32.8346 26.6792 32.6541C26.8968 32.4931 27.0321 32.2521 27.0538 32.1893C27.0818 32.1127 27.039 32.2138 27.047 32.3486C27.047 32.4834 27.1006 32.6038 27.1006 32.5953C27.1006 32.5953 27.0213 32.4851 26.7757 32.3634C26.7631 32.3594 26.6838 32.3172 26.6975 32.324L26.698 32.3206C26.7003 32.3229 26.7003 32.3086 26.7026 32.2972C26.7095 32.2823 26.7112 32.2401 26.7169 32.2012C26.7277 32.1173 26.7255 31.9911 26.718 31.8609C26.69 31.7918 26.6998 31.6953 26.6689 31.6702C26.6301 31.5862 26.6284 31.5874 26.5604 31.5394C26.4942 31.5046 26.368 31.4389 26.1909 31.3726C25.8791 31.2836 25.432 31.3275 25.1265 31.5103C24.97 31.5954 24.8455 31.7044 24.7684 31.8106C24.6719 31.938 24.5754 32.1202 24.516 32.3035C24.4772 32.428 24.4218 32.5587 24.4818 32.7061C24.5235 32.8168 24.4738 33.4353 24.6674 33.9675C24.7679 34.2285 24.8604 34.4472 24.9912 34.606C25.1168 34.7927 25.2127 34.8727 25.2379 34.9235C25.3732 35.1399 25.5548 35.3044 25.8683 35.4009C26.1761 35.5014 26.6032 35.4991 27.0584 35.4192C27.188 35.406 27.3085 35.3152 27.465 35.3689C27.8327 35.494 28.1086 35.3124 28.3935 35.1707C28.803 34.976 29.2113 34.7824 29.6361 34.5808C29.8474 34.4826 30.1124 34.4506 30.3591 34.3838C30.5847 34.3256 30.72 34.6534 30.6852 34.7327C30.5841 34.9583 30.8274 34.9686 30.937 35.0617C30.9741 35.0942 31.0215 35.1365 31.0381 35.173C31.0552 35.2119 30.6189 35.8492 30.0467 36.4653C29.4939 37.0998 28.7213 37.6177 28.5477 37.6885C28.5197 37.6897 28.2502 37.8501 27.7705 38.0123C27.3062 38.1853 26.6261 38.3749 25.8318 38.3772C25.0494 38.3881 24.146 38.1671 23.5487 37.777C22.9411 37.4144 22.5762 37.0352 22.4688 36.9165C22.2141 36.6709 22.0388 36.3386 21.9006 36.0045C21.8858 35.9651 21.7053 35.6841 21.5306 35.2501C21.3564 34.8161 21.2056 34.2308 21.1582 33.6352C21.0297 32.4388 21.4472 31.2373 21.5003 31.1562C21.7076 30.7017 21.948 30.2528 22.2878 29.8485C22.671 29.4134 23.1318 29.0747 23.6303 28.9291C23.8222 28.8566 24.0032 28.7801 24.1831 28.6927C24.966 28.3575 25.8129 28.2495 26.6923 28.3986C26.9128 28.4363 27.1315 28.4808 27.3553 28.567C27.5758 28.6333 27.7956 28.7441 28.0103 28.8674C28.2256 28.9754 28.4255 29.1604 28.6196 29.3174C28.7967 29.5053 28.9806 29.7 29.1142 29.9182C29.2444 30.146 29.3883 30.3762 29.4568 30.6137C29.5453 30.8524 29.6156 31.0911 29.6401 31.3184L29.6892 31.6656C29.6984 31.7741 29.6984 31.87 29.7018 31.9734C29.7087 32.1744 29.6949 32.3943 29.6647 32.6198C29.6407 32.7849 29.5796 32.9453 29.5122 33.1189C29.434 33.3325 29.318 33.5507 29.1839 33.7791C29.0148 34.0743 28.7618 34.3735 28.4341 34.5866C28.1108 34.8024 27.7385 34.9303 27.3839 34.9737C26.6678 35.0497 26.0488 34.8727 25.4788 34.4832C25.1996 34.2765 24.9106 34.0024 24.7091 33.5467C24.4943 33.1035 24.508 32.4108 24.7553 31.9723C24.9889 31.5268 25.2767 31.303 25.5262 31.118C25.7529 30.9569 26.0676 30.7827 26.4308 30.6914C26.5924 30.6485 26.9567 30.5903 27.4347 30.7199C27.907 30.8324 28.4877 31.2773 28.6927 31.8369C28.9172 32.396 28.8441 32.8865 28.7504 33.2234C28.6488 33.5815 28.4757 33.8813 28.3558 34.0412C28.2405 34.2319 27.7973 34.5346 27.3376 34.5763C26.8785 34.6339 26.4879 34.4826 26.3114 34.4386Z" fill="#2458A4"/>
<path id="Fill 20" fill-rule="evenodd" clip-rule="evenodd" d="M51.6486 5.53537C51.7108 5.62674 51.5903 5.70269 51.3636 5.77065C51.2917 5.79178 51.0718 5.78835 51.0404 5.76208C50.9793 5.71183 50.9199 5.66043 50.8765 5.60847C50.8514 5.57649 50.732 5.07396 50.6795 4.90321C50.6293 4.73818 50.615 4.57257 50.6087 4.40697L50.5533 3.39791C50.5499 3.3231 50.5584 3.24829 50.579 3.17405C50.651 2.91822 50.6424 2.66182 50.6201 2.40541C50.6167 2.36258 50.6235 2.31918 50.583 2.27807C50.5162 2.21011 50.5133 1.51456 50.5447 1.42491C50.623 1.20163 50.6709 0.977772 50.7326 0.753347C50.7418 0.721939 50.7258 0.687675 50.7743 0.658551C50.8862 0.591167 50.8674 0.522069 50.876 0.452971C50.8874 0.357034 50.9051 0.261096 50.9428 0.165159C50.961 0.117761 51.025 0.0709343 51.0764 0.0246787C51.1232 -0.0181505 51.2917 0.00469176 51.31 0.0195392C51.3631 0.0629395 51.4424 0.0281051 51.5127 0.0241077C51.5367 0.0223945 51.5669 0.0206813 51.5863 0.0229656C51.6292 0.027534 51.9204 0.578603 51.9181 0.639135C51.9187 0.645417 51.9415 0.849284 51.9661 1.06571C51.9918 1.28043 52.0192 1.50429 52.0306 1.54997C52.0421 1.59794 52.0158 1.64591 51.9998 1.69388C51.9929 1.71672 52.0889 2.3603 52.086 2.386C52.0757 2.51962 52.1129 2.65325 52.0106 2.78631C51.9907 2.812 51.9952 2.83942 51.9969 2.86568C52.0072 3.09525 51.9632 3.32424 51.9341 3.55381C51.9187 3.67087 51.9296 3.78794 51.9256 3.90558C51.9244 3.92614 51.9101 3.94726 51.9033 3.96839C51.8947 3.99523 51.881 4.02207 51.8816 4.04834C51.8862 4.32588 51.829 4.60284 51.8645 4.88037C51.8719 4.94433 51.7582 5.24927 51.7719 5.32294C51.7788 5.36406 51.6235 5.49883 51.6486 5.53537Z" fill="#2458A4"/>
<path id="Fill 23" fill-rule="evenodd" clip-rule="evenodd" d="M57.8681 12.4168C57.8412 12.5384 57.6911 12.495 57.4524 12.3682C57.3764 12.3271 57.2039 12.1495 57.2034 12.1015C57.2022 12.009 57.2045 11.9159 57.2216 11.8348C57.2279 11.7743 57.6397 11.2741 57.7801 11.101C57.9149 10.9354 58.0754 10.8007 58.2421 10.6796C58.5813 10.4318 58.9183 10.1868 59.2666 9.95778C59.3437 9.90639 59.4288 9.86813 59.5196 9.84014C59.8308 9.74421 60.1038 9.58888 60.367 9.41128C60.4116 9.38216 60.4618 9.36217 60.4864 9.29993C60.5212 9.192 61.2893 8.78312 61.4098 8.76884C61.6947 8.71402 61.9808 8.66605 62.2761 8.63693C62.3178 8.63293 62.3532 8.60381 62.4057 8.63807C62.5256 8.71631 62.6033 8.67348 62.6901 8.65635C62.8106 8.63179 62.9351 8.62151 63.067 8.63236C63.1321 8.63693 63.2052 8.68147 63.2726 8.71288C63.3342 8.74143 63.3399 8.89219 63.3274 8.91332C63.2891 8.97328 63.3462 9.03096 63.3651 9.08978C63.3714 9.10976 63.3799 9.13603 63.3816 9.15316C63.3725 9.17715 62.8997 9.68881 62.8437 9.72022C62.8357 9.72708 62.6364 9.83729 62.432 9.97891C62.2258 10.1114 62.002 10.2382 61.9614 10.2736C61.9174 10.3073 61.8546 10.3038 61.7981 10.313C61.7695 10.3147 61.1545 10.7378 61.1288 10.7527C60.9855 10.8109 60.8741 10.9274 60.6874 10.9109C60.6514 10.9074 60.6263 10.928 60.6006 10.9446C60.3784 11.0925 60.1278 11.1907 59.8879 11.3095C59.764 11.3689 59.6566 11.4534 59.5424 11.5265C59.5219 11.539 59.4927 11.5396 59.4682 11.5476C59.4379 11.5573 59.4037 11.5619 59.3785 11.5796C59.1164 11.7646 58.82 11.9028 58.591 12.1272C58.5414 12.1786 58.189 12.2951 58.1393 12.3636C58.1108 12.399 57.8789 12.3665 57.8681 12.4168Z" fill="#2458A4"/>
<path id="Fill 25" fill-rule="evenodd" clip-rule="evenodd" d="M58.8546 20.1309C58.7329 20.1189 58.7592 19.9562 58.878 19.7163C58.9157 19.6404 59.0864 19.4565 59.1298 19.4457C59.216 19.4262 59.3005 19.4063 59.3719 19.4011C59.4136 19.4045 59.887 19.589 60.0612 19.6164C60.2251 19.6535 60.3673 19.7175 60.5078 19.786C60.7967 19.9185 61.0811 20.0567 61.3815 20.1726C61.4483 20.1989 61.506 20.2417 61.5631 20.292C61.7555 20.4701 61.9914 20.5638 62.2403 20.618C62.282 20.6266 62.3203 20.6483 62.3751 20.6146C62.4608 20.5649 63.1266 20.7534 63.2049 20.8133C63.3973 20.9595 63.5995 21.0852 63.7988 21.2308C63.8273 21.2508 63.8661 21.2434 63.8793 21.3085C63.9107 21.4592 63.9855 21.4575 64.0517 21.4878C64.1442 21.5277 64.2345 21.5791 64.3144 21.6682C64.3544 21.7093 64.3812 21.7967 64.4132 21.8658C64.4423 21.9292 64.375 22.0874 64.3544 22.1028C64.2961 22.1456 64.3099 22.2358 64.295 22.3067C64.2899 22.3312 64.283 22.3626 64.2762 22.3815C64.2682 22.4003 64.0986 22.4723 63.9204 22.5476C63.7474 22.6008 63.5669 22.6481 63.5366 22.6402C63.5292 22.639 63.3111 22.6167 63.0787 22.5933C62.8537 22.5591 62.6178 22.5242 62.5579 22.5151C62.5047 22.5128 62.4642 22.4654 62.4208 22.4311C62.4014 22.4214 61.6978 22.2947 61.671 22.277C61.5374 22.213 61.3792 22.2022 61.2844 22.0383C61.2661 22.0057 61.2359 22.0006 61.2073 21.992C60.9629 21.9109 60.7453 21.763 60.526 21.6237C60.4141 21.5517 60.2902 21.5032 60.1731 21.4415C60.1514 21.4301 60.1389 21.4038 60.1217 21.385C60.1 21.3616 60.0812 21.3324 60.0549 21.3187C59.7779 21.1685 59.5507 20.9401 59.2743 20.7882C59.2069 20.7557 59.0167 20.4342 58.9448 20.3948C58.9019 20.3731 58.9025 20.1344 58.8546 20.1309Z" fill="#2458A4"/>
</g>
</svg>
