<svg width="509" height="340" viewBox="0 0 509 340" fill="none" xmlns="http://www.w3.org/2000/svg">
<path d="M305.544 326.686H151.048C144.392 326.686 139.674 321.306 140.514 314.669L178.555 14.1406C179.395 7.5041 185.474 2.12355 192.131 2.12355L338.872 0.408691C355.716 0.408691 358.001 7.50224 357.161 14.1387L319.12 314.669C318.28 321.306 312.201 326.686 305.544 326.686Z" fill="#2458A4"/>
<path d="M305.544 327.095H151.048C147.721 327.095 144.748 325.804 142.68 323.457C140.6 321.096 139.685 317.956 140.109 314.617L178.15 14.0886C179.014 7.26634 185.286 1.71487 192.131 1.71487L338.868 0C346.916 0 352.447 1.64798 355.31 4.89563C357.33 7.18831 358.069 10.2279 357.568 14.1908L319.527 314.721C318.663 321.543 312.391 327.095 305.544 327.095ZM338.873 0.817485L192.136 2.53235C185.684 2.53235 179.776 7.76241 178.962 14.1908L140.921 314.721C140.529 317.824 141.371 320.733 143.295 322.916C145.205 325.083 147.959 326.277 151.048 326.277H305.544C311.993 326.277 317.899 321.047 318.715 314.619L356.756 14.0886C357.226 10.3728 356.553 7.54317 354.697 5.43814C351.996 2.37257 346.673 0.817485 338.873 0.817485Z" fill="#2458A4"/>
<path d="M296.247 326.686H141.751C135.094 326.686 130.377 321.289 131.217 314.632L169.26 13.145C170.1 6.48809 176.179 1.09082 182.836 1.09082H337.331C343.988 1.09082 348.706 6.48809 347.866 13.145L309.825 314.632C308.983 321.289 302.906 326.686 296.247 326.686Z" fill="white"/>
<path d="M296.247 327.095H141.751C138.431 327.095 135.462 325.804 133.396 323.459C131.306 321.088 130.388 317.935 130.812 314.58L168.853 13.093C169.717 6.24837 175.989 0.680176 182.836 0.680176H337.331C340.653 0.680176 343.62 1.97143 345.686 4.31613C347.777 6.68684 348.694 9.83974 348.271 13.1951L310.23 314.682C309.366 321.527 303.094 327.095 296.247 327.095ZM182.836 1.49952C176.387 1.49952 170.479 6.74629 169.665 13.197L131.624 314.682C131.23 317.802 132.077 320.726 134.009 322.918C135.919 325.085 138.669 326.278 141.751 326.278H296.247C302.696 326.278 308.604 321.031 309.418 314.58L347.459 13.093C347.853 9.97351 347.006 7.04728 345.073 4.85679C343.163 2.69045 340.414 1.49766 337.331 1.49766H182.836V1.49952Z" fill="#2458A4"/>
<path d="M140.022 315.046L176.344 27.1777C176.537 25.6412 177.942 24.3945 179.478 24.3945H334.806C336.343 24.3945 337.432 25.6412 337.238 27.1777L300.914 315.046C300.721 316.583 299.316 317.829 297.78 317.829H142.454C140.915 317.829 139.827 316.585 140.022 315.046Z" fill="white"/>
<path d="M297.78 318.238H142.454C141.595 318.238 140.826 317.902 140.289 317.293C139.747 316.678 139.507 315.86 139.617 314.994L175.939 27.1277C176.158 25.3961 177.745 23.9878 179.478 23.9878H334.806C335.665 23.9878 336.434 24.3241 336.971 24.9335C337.513 25.5503 337.753 26.3659 337.643 27.2317L301.321 315.1C301.102 316.83 299.513 318.238 297.78 318.238ZM140.427 315.098C140.347 315.728 140.516 316.315 140.902 316.752C141.283 317.183 141.833 317.421 142.454 317.421H297.782C299.118 317.421 300.34 316.332 300.509 314.996L336.832 27.1277C336.911 26.4979 336.742 25.9107 336.358 25.4741C335.977 25.0431 335.427 24.8053 334.806 24.8053H179.478C178.143 24.8053 176.92 25.8922 176.751 27.2299L140.427 315.098Z" fill="#2458A4"/>
<path d="M258.149 16.4243C255.655 16.4243 253.888 14.4029 254.202 11.9077C254.516 9.41439 256.794 7.39111 259.287 7.39111C261.781 7.39111 263.548 9.41253 263.234 11.9077C262.92 14.4011 260.642 16.4243 258.149 16.4243Z" fill="#2458A4"/>
<mask id="mask0_206_29565" style="mask-type:luminance" maskUnits="userSpaceOnUse" x="139" y="24" width="199" height="294">
<path d="M140.022 315.046L176.344 27.1777C176.537 25.6412 177.942 24.3945 179.478 24.3945H334.806C336.343 24.3945 337.432 25.6412 337.238 27.1777L300.914 315.046C300.721 316.583 299.316 317.829 297.78 317.829H142.454C140.915 317.829 139.827 316.585 140.022 315.046Z" fill="white"/>
</mask>
<g mask="url(#mask0_206_29565)">
<path d="M322.958 159.3H157.861L158.41 153.31H323.507L322.958 159.3Z" fill="#2458A4"/>
<path d="M304.011 303.053H140.445L140.99 297.063H304.556L304.011 303.053Z" fill="#2458A4"/>
<path d="M279.55 197.614C281.882 192.789 281.848 186.506 280.618 179.481L275.617 183.767L269.738 178.656C271.741 186.925 272.676 194.301 268.963 197.778L279.55 197.614Z" fill="#2458A4"/>
<path d="M249.585 296.935H270.868C274.543 296.935 277.8 293.974 278.166 290.299L287.204 199.615C287.576 195.894 284.843 192.86 281.122 192.86H257.192C253.44 192.86 250.141 195.94 249.877 199.691L243.488 290.375C243.229 294.02 245.94 296.935 249.585 296.935Z" fill="white"/>
<path d="M270.866 297.344H249.583C247.709 297.344 246.001 296.619 244.777 295.306C243.549 293.987 242.945 292.225 243.077 290.347L249.466 199.664C249.747 195.688 253.212 192.451 257.19 192.451H281.12C283.03 192.451 284.759 193.198 285.988 194.556C287.225 195.924 287.801 197.733 287.608 199.656L278.571 290.34C278.186 294.202 274.73 297.344 270.866 297.344ZM257.19 193.269C253.632 193.269 250.535 196.163 250.282 199.719L243.893 290.403C243.776 292.054 244.303 293.597 245.375 294.747C246.444 295.893 247.939 296.525 249.583 296.525H270.866C274.322 296.525 277.413 293.714 277.757 290.258L286.796 199.574C286.965 197.886 286.463 196.297 285.382 195.104C284.31 193.921 282.798 193.269 281.12 193.269H257.19Z" fill="#2458A4"/>
<path d="M257.296 208.167H277.904C279.437 208.167 280.791 206.924 280.93 205.394C281.07 203.861 279.94 202.62 278.407 202.62H257.799C256.266 202.62 254.912 203.863 254.773 205.394C254.633 206.924 255.763 208.167 257.296 208.167Z" fill="#2458A4"/>
<path d="M257.403 221.93H274.769C277.198 221.93 279.344 219.963 279.565 217.535L279.752 215.469C279.974 213.04 278.182 211.073 275.756 211.073H258.39C255.962 211.073 253.816 213.04 253.595 215.469L253.407 217.535C253.186 219.963 254.975 221.93 257.403 221.93Z" fill="#2458A4"/>
<path d="M146.29 296.935H165.995C169.397 296.935 172.433 293.974 172.797 290.299L181.777 199.615C182.145 195.894 179.636 192.86 176.19 192.86H154.032C150.56 192.86 147.483 195.94 147.214 199.691L140.687 290.375C140.425 294.02 142.916 296.935 146.29 296.935Z" fill="white"/>
<path d="M165.995 297.344H146.29C144.633 297.344 143.104 296.683 141.986 295.48C140.743 294.145 140.137 292.322 140.28 290.347L146.807 199.664C147.093 195.688 150.335 192.451 154.034 192.451H176.192C177.879 192.451 179.428 193.135 180.552 194.374C181.788 195.738 182.384 197.663 182.187 199.656L173.208 290.34C172.823 294.202 169.589 297.344 165.995 297.344ZM154.032 193.271C150.753 193.271 147.877 196.165 147.622 199.723L141.096 290.406C140.969 292.153 141.499 293.758 142.584 294.925C143.546 295.96 144.862 296.528 146.29 296.528H165.995C169.18 296.528 172.049 293.717 172.39 290.262L181.37 199.578C181.544 197.815 181.024 196.121 179.943 194.926C178.977 193.859 177.643 193.271 176.19 193.271H154.032Z" fill="#2458A4"/>
<path d="M142.498 295.826C142.487 295.826 142.476 295.826 142.465 295.824C142.24 295.805 142.073 295.608 142.09 295.383L145.54 253.216C145.558 252.991 145.755 252.822 145.98 252.841C146.205 252.859 146.372 253.056 146.355 253.281L142.905 295.449C142.888 295.664 142.71 295.826 142.498 295.826Z" fill="#2458A4"/>
<path d="M155.309 205.495H173.18C174.713 205.495 176.067 204.252 176.207 202.721L176.322 201.458C176.461 199.925 175.332 198.684 173.799 198.684H155.927C154.395 198.684 153.04 199.927 152.901 201.458L152.786 202.721C152.648 204.252 153.778 205.495 155.309 205.495Z" fill="#2458A4"/>
<path d="M155.162 222.391H169.789C172.218 222.391 174.364 220.424 174.585 217.995L174.997 213.458C175.218 211.03 173.427 209.062 171.001 209.062H156.371C153.943 209.062 151.797 211.03 151.576 213.458L151.164 217.995C150.944 220.424 152.734 222.391 155.162 222.391Z" fill="#2458A4"/>
<path d="M211.819 193.205L190.554 193.036C186.882 193.007 183.603 195.946 183.207 199.619L173.451 290.293C173.052 294.015 175.757 297.073 179.475 297.102L203.388 297.292C207.137 297.322 210.457 294.263 210.751 290.514L217.859 199.82C218.147 196.173 215.461 193.233 211.819 193.205Z" fill="white"/>
<path d="M203.444 297.701C203.425 297.701 203.405 297.701 203.386 297.701L179.473 297.511C177.565 297.496 175.844 296.735 174.627 295.369C173.399 293.992 172.838 292.174 173.044 290.249L182.8 199.575C183.215 195.732 186.661 192.626 190.5 192.626C190.518 192.626 190.537 192.626 190.555 192.626L211.821 192.795C213.692 192.81 215.392 193.546 216.605 194.868C217.824 196.197 218.415 197.966 218.268 199.848L211.16 290.542C210.849 294.502 207.394 297.701 203.444 297.701ZM190.5 193.445C187.068 193.445 183.984 196.225 183.614 199.664L173.858 290.338C173.676 292.029 174.167 293.623 175.239 294.827C176.3 296.018 177.806 296.681 179.478 296.694L203.392 296.883C203.408 296.883 203.427 296.883 203.444 296.883C206.978 296.883 210.067 294.022 210.344 290.483L217.453 199.788C217.583 198.135 217.068 196.585 216.003 195.426C214.944 194.272 213.458 193.629 211.816 193.616L190.55 193.447C190.533 193.445 190.516 193.445 190.5 193.445Z" fill="#2458A4"/>
<path d="M200.766 275.322L185.715 275.203C182.654 275.179 179.926 277.642 179.625 280.706L179.179 285.224C178.876 288.288 181.113 290.791 184.175 290.815L199.226 290.934C202.288 290.958 205.016 288.494 205.317 285.431L205.762 280.912C206.065 277.848 203.828 275.346 200.766 275.322Z" fill="#2458A4"/>
<path d="M205.772 265.042L183.804 264.867C182.652 264.858 181.628 265.785 181.513 266.937L181.321 268.867C181.208 270.019 182.048 270.961 183.2 270.969L205.168 271.143C206.32 271.153 207.344 270.226 207.459 269.074L207.65 267.143C207.763 265.991 206.922 265.051 205.772 265.042Z" fill="#2458A4"/>
<path d="M206.227 258.706L184.067 258.532C182.969 258.523 181.99 259.407 181.883 260.507C181.775 261.607 182.577 262.504 183.675 262.513L205.835 262.69C206.933 262.699 207.912 261.815 208.02 260.715C208.128 259.613 207.325 258.716 206.227 258.706Z" fill="#2458A4"/>
<path d="M317.686 192.743L296.42 192.573C292.749 192.544 289.469 195.483 289.074 199.156L279.318 289.83C278.918 293.552 281.623 296.61 285.341 296.639L309.254 296.829C313.004 296.859 316.324 293.801 316.617 290.051L323.726 199.357C324.014 195.71 321.329 192.77 317.686 192.743Z" fill="white"/>
<path d="M309.31 297.238C309.29 297.238 309.271 297.238 309.252 297.238L285.339 297.048C283.431 297.034 281.711 296.272 280.494 294.906C279.266 293.53 278.704 291.711 278.911 289.786L288.667 199.112C289.081 195.268 292.527 192.163 296.366 192.163C296.384 192.163 296.403 192.163 296.422 192.163L317.687 192.332C319.558 192.347 321.258 193.083 322.472 194.407C323.69 195.736 324.281 197.505 324.134 199.387L317.026 290.081C316.718 294.04 313.262 297.238 309.31 297.238ZM296.368 192.982C292.936 192.982 289.852 195.762 289.482 199.201L279.726 289.875C279.544 291.566 280.035 293.16 281.107 294.364C282.168 295.555 283.674 296.218 285.348 296.231L309.262 296.42C312.82 296.437 315.935 293.578 316.214 290.02L323.323 199.325C323.453 197.672 322.938 196.122 321.873 194.963C320.814 193.809 319.328 193.166 317.686 193.153L296.42 192.984C296.401 192.982 296.384 192.982 296.368 192.982Z" fill="#2458A4"/>
<path d="M303.185 297.474C303.168 297.474 303.151 297.472 303.132 297.47C302.908 297.443 302.75 297.238 302.778 297.013L315.943 192.682C315.971 192.459 316.175 192.299 316.4 192.327C316.625 192.355 316.783 192.559 316.755 192.784L303.59 297.116C303.564 297.322 303.387 297.474 303.185 297.474Z" fill="#2458A4"/>
<path d="M306.635 274.859L291.584 274.74C288.522 274.716 285.794 277.179 285.493 280.243L285.047 284.762C284.745 287.825 286.982 290.328 290.043 290.352L305.094 290.471C308.156 290.495 310.884 288.032 311.185 284.968L311.631 280.449C311.932 277.386 309.695 274.883 306.635 274.859Z" fill="#2458A4"/>
<path d="M311.638 264.579L289.67 264.404C288.518 264.395 287.494 265.322 287.379 266.474L287.188 268.404C287.074 269.556 287.914 270.498 289.066 270.506L311.034 270.68C312.186 270.69 313.21 269.763 313.325 268.611L313.516 266.68C313.632 265.528 312.79 264.588 311.638 264.579Z" fill="#2458A4"/>
<path d="M312.095 258.246L289.936 258.071C288.838 258.062 287.859 258.946 287.751 260.046C287.643 261.146 288.446 262.043 289.544 262.052L311.703 262.229C312.801 262.238 313.78 261.354 313.888 260.254C313.996 259.152 313.193 258.253 312.095 258.246Z" fill="#2458A4"/>
<path d="M216.969 297.727H234.183C237.156 297.727 239.841 294.765 240.201 291.09L249.086 200.407C249.45 196.685 247.293 193.651 244.283 193.651H224.927C221.893 193.651 219.171 196.732 218.892 200.483L212.15 291.166C211.879 294.812 214.021 297.727 216.969 297.727Z" fill="white"/>
<path d="M234.183 298.137H216.969C215.637 298.137 214.381 297.576 213.436 296.558C212.202 295.227 211.583 293.252 211.741 291.138L218.484 200.455C218.779 196.479 221.67 193.244 224.927 193.244H244.285C245.639 193.244 246.91 193.822 247.861 194.87C249.112 196.248 249.708 198.283 249.494 200.449L240.61 291.133C240.231 294.993 237.347 298.137 234.183 298.137ZM224.927 194.062C222.088 194.062 219.565 196.956 219.299 200.514L212.557 291.198C212.416 293.087 212.954 294.837 214.036 296C214.837 296.862 215.851 297.318 216.969 297.318H234.183C236.938 297.318 239.456 294.507 239.794 291.051L248.679 200.367C248.868 198.43 248.348 196.627 247.254 195.418C246.449 194.53 245.422 194.06 244.283 194.06H224.927V194.062Z" fill="#2458A4"/>
<path d="M224.539 210.653H242.224C243.634 210.653 244.881 209.511 245.009 208.1L245.515 202.521C245.643 201.111 244.604 199.968 243.194 199.968H225.508C224.098 199.968 222.852 201.111 222.723 202.521L222.218 208.1C222.09 209.509 223.128 210.653 224.539 210.653Z" fill="#2458A4"/>
<path d="M223.628 222.169H240.652C242.245 222.169 243.653 220.877 243.798 219.285L243.971 217.373C244.116 215.781 242.941 214.49 241.349 214.49H224.325C222.733 214.49 221.324 215.781 221.18 217.373L221.007 219.285C220.862 220.877 222.036 222.169 223.628 222.169Z" fill="#2458A4"/>
<path d="M217.677 52.9451C216.223 48.12 217.395 41.8365 219.899 34.8117L224.122 39.098L230.928 33.9868C227.424 42.2564 225.15 49.6324 228.232 53.1086L217.677 52.9451Z" fill="#2458A4"/>
<path d="M222.556 152.957H201.274C197.599 152.957 194.879 149.996 195.18 146.321L202.6 55.6373C202.905 51.9158 206.188 48.8818 209.909 48.8818H233.839C237.591 48.8818 240.331 51.9623 239.915 55.7134L229.845 146.397C229.442 150.04 226.202 152.957 222.556 152.957Z" fill="white"/>
<path d="M222.556 153.366H201.274C199.384 153.366 197.669 152.632 196.443 151.302C195.211 149.964 194.619 148.184 194.773 146.287L202.193 55.6039C202.515 51.6706 205.976 48.4731 209.909 48.4731H233.839C235.764 48.4731 237.501 49.2293 238.731 50.6042C239.971 51.9902 240.535 53.8202 240.32 55.7599L230.25 146.443C229.821 150.325 226.441 153.366 222.556 153.366ZM209.911 49.2906C206.394 49.2906 203.299 52.1518 203.011 55.6707L195.59 146.354C195.455 148.021 195.971 149.579 197.047 150.748C198.117 151.909 199.618 152.548 201.276 152.548H222.558C225.975 152.548 229.063 149.769 229.442 146.352L239.512 55.6689C239.701 53.9652 239.209 52.3599 238.126 51.1504C237.054 49.952 235.532 49.2925 233.843 49.2925H209.911V49.2906Z" fill="#2458A4"/>
<path d="M223.764 133.3H203.156C201.623 133.3 200.493 132.057 200.633 130.526C200.772 128.994 202.127 127.752 203.659 127.752H224.267C225.8 127.752 226.93 128.995 226.79 130.526C226.651 132.059 225.297 133.3 223.764 133.3Z" fill="#2458A4"/>
<path d="M221.157 147.066H203.791C201.363 147.066 199.574 145.098 199.795 142.67L199.982 140.604C200.204 138.176 202.349 136.208 204.778 136.208H222.144C224.572 136.208 226.361 138.176 226.14 140.604L225.953 142.67C225.731 145.098 223.586 147.066 221.157 147.066Z" fill="#2458A4"/>
<path d="M328.783 152.957H309.078C305.676 152.957 303.177 149.996 303.48 146.321L310.962 55.6373C311.268 51.9158 314.328 48.8818 317.775 48.8818H339.932C343.405 48.8818 345.922 51.9623 345.512 55.7134L335.577 146.397C335.178 150.042 332.159 152.957 328.783 152.957Z" fill="white"/>
<path d="M328.783 153.366H309.078C307.409 153.366 305.871 152.695 304.751 151.478C303.523 150.144 302.91 148.251 303.071 146.287L310.553 55.6039C310.878 51.6725 314.117 48.4731 317.773 48.4731H339.931C341.631 48.4731 343.186 49.1643 344.312 50.4202C345.553 51.8044 346.136 53.7496 345.917 55.7581L335.982 146.441C335.559 150.325 332.397 153.366 328.783 153.366ZM317.775 49.2906C314.533 49.2906 311.66 52.1518 311.371 55.6707L303.889 146.354C303.746 148.091 304.279 149.758 305.353 150.925C306.317 151.971 307.64 152.548 309.078 152.548H328.783C331.93 152.548 334.797 149.769 335.171 146.352L345.105 55.6689C345.3 53.8908 344.789 52.176 343.704 50.9665C342.736 49.887 341.396 49.2925 339.932 49.2925H317.775V49.2906Z" fill="#2458A4"/>
<path d="M321.53 153.715C321.513 153.715 321.496 153.713 321.479 153.711C321.255 153.684 321.095 153.479 321.123 153.254L329.877 82.2409C329.905 82.0161 330.115 81.8581 330.333 81.8841C330.557 81.912 330.717 82.1164 330.689 82.3412L321.935 153.355C321.911 153.563 321.734 153.715 321.53 153.715Z" fill="#2458A4"/>
<path d="M330.132 130.17H312.26C310.728 130.17 309.598 128.927 309.737 127.396L309.853 126.133C309.992 124.6 311.346 123.359 312.879 123.359H330.751C332.283 123.359 333.413 124.602 333.274 126.133L333.158 127.396C333.019 128.927 331.665 130.17 330.132 130.17Z" fill="#2458A4"/>
<path d="M327.215 147.066H312.586C310.157 147.066 308.368 145.099 308.589 142.67L309.002 138.133C309.223 135.705 311.369 133.737 313.797 133.737H328.424C330.853 133.737 332.642 135.705 332.421 138.133L332.008 142.67C331.789 145.099 329.641 147.066 327.215 147.066Z" fill="#2458A4"/>
<path d="M291.758 153.219H270.476C266.801 153.219 264.081 150.258 264.382 146.583L271.802 55.8995C272.107 52.178 275.39 49.144 279.111 49.144H303.041C306.793 49.144 309.533 52.2245 309.117 55.9756L299.047 146.659C298.644 150.304 295.404 153.219 291.758 153.219Z" fill="white"/>
<path d="M291.758 153.628H270.476C268.586 153.628 266.871 152.894 265.645 151.564C264.413 150.226 263.821 148.446 263.975 146.549L271.395 55.8661C271.717 51.9328 275.18 48.7354 279.111 48.7354H303.041C304.966 48.7354 306.703 49.4915 307.933 50.8664C309.174 52.2524 309.737 54.0825 309.524 56.0221L299.454 146.706C299.023 150.587 295.643 153.628 291.758 153.628ZM279.113 49.5528C275.596 49.5528 272.501 52.414 272.213 55.9329L264.792 146.616C264.657 148.283 265.173 149.844 266.249 151.01C267.319 152.172 268.82 152.811 270.479 152.811H291.762C295.179 152.811 298.267 150.031 298.646 146.614L308.716 55.9311C308.905 54.2274 308.413 52.6221 307.33 51.4126C306.258 50.2143 304.736 49.5547 303.047 49.5547H279.113V49.5528Z" fill="#2458A4"/>
<path d="M296.264 71.0769H281.202C278.138 71.0769 275.879 68.5928 276.157 65.5291L276.568 61.0106C276.847 57.9469 279.555 55.4629 282.619 55.4629H297.681C300.745 55.4629 303.004 57.9469 302.726 61.0106L302.315 65.5291C302.036 68.5928 299.327 71.0769 296.264 71.0769Z" fill="#2458A4"/>
<path d="M299.318 81.3879H277.333C276.181 81.3879 275.332 80.4534 275.436 79.3015L275.611 77.3711C275.715 76.2192 276.733 75.2847 277.885 75.2847H299.87C301.022 75.2847 301.871 76.2192 301.767 77.3711L301.592 79.3015C301.488 80.4534 300.47 81.3879 299.318 81.3879Z" fill="#2458A4"/>
<path d="M298.575 87.7219H276.399C275.299 87.7219 274.489 86.8301 274.589 85.732C274.69 84.6321 275.661 83.7422 276.761 83.7422H298.937C300.037 83.7422 300.847 84.634 300.747 85.732C300.645 86.8301 299.673 87.7219 298.575 87.7219Z" fill="#2458A4"/>
<path d="M255.711 153.749H239.242C236.398 153.749 234.343 150.788 234.636 147.113L241.884 56.4292C242.181 52.7078 244.773 49.6738 247.653 49.6738H266.173C269.075 49.6738 271.145 52.7543 270.76 56.5054L261.461 147.189C261.086 150.834 258.531 153.749 255.711 153.749Z" fill="white"/>
<path d="M255.711 154.157H239.242C237.975 154.157 236.823 153.635 235.913 152.649C234.668 151.3 234.055 149.271 234.23 147.081L241.477 56.3972C241.791 52.464 244.561 49.2646 247.653 49.2646H266.173C267.442 49.2646 268.638 49.8165 269.543 50.8179C270.806 52.2169 271.397 54.3052 271.169 56.5477L261.87 147.231C261.469 151.116 258.765 154.157 255.711 154.157ZM247.651 50.084C244.978 50.084 242.572 52.9452 242.291 56.4623L235.043 147.146C234.887 149.109 235.422 150.914 236.513 152.093C237.265 152.909 238.209 153.34 239.242 153.34H255.711C258.306 153.34 260.705 150.562 261.054 147.147L270.353 56.4641C270.556 54.4817 270.026 52.5755 268.936 51.366C268.177 50.5262 267.223 50.0821 266.173 50.0821H247.651V50.084Z" fill="#2458A4"/>
<path d="M263.821 64.0127H246.901C245.552 64.0127 244.558 62.8701 244.68 61.46L244.933 58.543C245.056 57.1329 246.248 55.9902 247.597 55.9902H264.517C265.866 55.9902 266.86 57.1329 266.738 58.543L266.485 61.46C266.362 62.8701 265.17 64.0127 263.821 64.0127Z" fill="#2458A4"/>
<path d="M262.942 72.6615H246.655C245.132 72.6615 244.01 71.3703 244.147 69.778C244.285 68.1858 245.632 66.8945 247.155 66.8945H263.442C264.965 66.8945 266.087 68.1858 265.95 69.778C265.812 71.3703 264.465 72.6615 262.942 72.6615Z" fill="#2458A4"/>
<path d="M186.163 153.288H169.507C166.631 153.288 164.552 150.326 164.849 146.651L172.179 55.9678C172.48 52.2464 175.099 49.2124 178.012 49.2124H196.74C199.676 49.2124 201.768 52.2928 201.38 56.044L191.977 146.727C191.599 150.373 189.015 153.288 186.163 153.288Z" fill="white"/>
<path d="M186.163 153.696H169.507C168.236 153.696 167.034 153.152 166.122 152.165C164.877 150.817 164.266 148.795 164.44 146.618L171.77 55.9343C172.088 52.0011 174.887 48.8018 178.011 48.8018H196.74C198.033 48.8018 199.249 49.361 200.166 50.3773C201.428 51.7763 202.019 53.8553 201.788 56.0848L192.385 146.768C191.982 150.655 189.249 153.696 186.163 153.696ZM178.012 49.623C175.305 49.623 172.872 52.4842 172.587 56.0031L165.258 146.686C165.1 148.635 165.635 150.432 166.726 151.612C167.491 152.44 168.453 152.879 169.509 152.879H186.165C188.794 152.879 191.219 150.101 191.573 146.686L200.976 56.0031C201.185 54.0058 200.668 52.1553 199.561 50.9291C198.79 50.0744 197.816 49.623 196.744 49.623H178.012Z" fill="#2458A4"/>
<path d="M194.366 63.5518H177.254C175.891 63.5518 174.886 62.4092 175.008 60.999L175.265 58.0821C175.389 56.6719 176.595 55.5293 177.959 55.5293H195.07C196.434 55.5293 197.439 56.6719 197.316 58.0821L197.06 60.999C196.935 62.4092 195.73 63.5518 194.366 63.5518Z" fill="#2458A4"/>
<path d="M193.476 72.1991H177.006C175.465 72.1991 174.33 70.9079 174.469 69.3156C174.609 67.7234 175.973 66.4321 177.513 66.4321H193.983C195.523 66.4321 196.659 67.7234 196.519 69.3156C196.378 70.9097 195.016 72.1991 193.476 72.1991Z" fill="#2458A4"/>
</g>
<path d="M370.34 141.037C370.462 141.037 370.585 140.981 370.665 140.877C370.802 140.697 370.767 140.44 370.589 140.303L369.645 139.58C368.755 138.9 367.698 137.531 367.688 137.518C367.551 137.34 367.295 137.306 367.114 137.444C366.936 137.581 366.901 137.837 367.04 138.018C367.087 138.077 368.173 139.485 369.149 140.232L370.093 140.955C370.165 141.011 370.252 141.037 370.34 141.037Z" fill="#2E3543"/>
<path d="M371.945 139.237C372.094 139.237 372.235 139.157 372.309 139.016C372.413 138.815 372.335 138.568 372.135 138.464L371.079 137.916C370.085 137.399 368.809 136.232 368.796 136.221C368.629 136.069 368.37 136.08 368.218 136.245C368.066 136.413 368.077 136.671 368.244 136.823C368.3 136.873 369.613 138.074 370.702 138.64L371.757 139.188C371.819 139.222 371.882 139.237 371.945 139.237Z" fill="#2E3543"/>
<path d="M408.187 119.855C411.08 120.228 426.809 123.411 428.145 141.132C428.177 141.539 427.963 141.929 427.61 142.131L418.516 147.367C418.174 147.564 417.968 147.93 417.981 148.324C418.081 151.564 418.601 166.292 419.976 172.479C421.048 177.302 421.793 181.235 422.15 183.201C422.276 183.894 421.708 184.514 421.005 184.451C418.78 184.247 414.363 183.754 411.452 182.861C407.795 181.737 406.181 179.591 397.343 183.256C395.487 184.027 393.384 183.922 391.607 182.981C386.767 180.419 376.692 175.877 369.745 178.171C368.957 178.431 368.19 177.74 368.37 176.93C369.385 172.382 371.507 163.611 371.733 158.975C372.016 153.184 368.686 133.895 370.236 131.881C371.711 129.964 378.208 125.553 382.598 124.345C384.205 123.903 385.896 123.86 387.252 123.526C390.652 122.692 400.083 118.807 408.187 119.855Z" fill="#2E3543"/>
<path d="M421.108 184.867C421.52 184.867 421.908 184.698 422.191 184.389C422.505 184.048 422.637 183.589 422.553 183.132C422.204 181.207 421.455 177.251 420.375 172.393C419.001 166.206 418.479 151.25 418.389 148.314C418.382 148.073 418.508 147.846 418.72 147.725L427.815 142.49C428.305 142.207 428.595 141.663 428.554 141.104C427.148 122.431 410.172 119.7 408.24 119.451C401.688 118.604 394.296 120.932 389.88 122.322C388.78 122.667 387.83 122.967 387.154 123.134C386.565 123.279 385.902 123.368 385.199 123.463C384.313 123.582 383.399 123.704 382.489 123.955C377.981 125.194 371.46 129.618 369.911 131.636C368.974 132.853 369.476 138.241 370.41 146.969C370.94 151.909 371.44 156.576 371.323 158.96C371.128 162.945 369.502 170.098 368.426 174.832C368.259 175.564 368.107 176.243 367.971 176.846C367.854 177.37 368.021 177.9 368.419 178.258C368.818 178.619 369.361 178.734 369.873 178.565C376.573 176.352 386.247 180.612 391.416 183.349C393.311 184.352 395.529 184.458 397.499 183.641C404.644 180.676 406.907 181.569 409.527 182.602C410.094 182.825 410.679 183.057 411.331 183.258C414.252 184.155 418.622 184.651 420.966 184.865C421.015 184.865 421.061 184.867 421.108 184.867ZM408.135 120.26C409.999 120.501 426.378 123.136 427.738 141.163C427.757 141.41 427.627 141.652 427.408 141.778L418.313 147.014C417.839 147.287 417.557 147.794 417.572 148.338C417.663 151.287 418.187 166.312 419.577 172.569C420.654 177.415 421.399 181.357 421.747 183.277C421.784 183.481 421.724 183.683 421.587 183.836C421.448 183.988 421.251 184.064 421.044 184.046C418.731 183.834 414.425 183.347 411.575 182.47C410.952 182.279 410.382 182.054 409.83 181.837C407.16 180.783 404.639 179.789 397.189 182.881C395.442 183.605 393.478 183.511 391.801 182.623C386.515 179.825 376.605 175.477 369.619 177.785C369.39 177.861 369.147 177.809 368.97 177.649C368.794 177.489 368.72 177.255 368.772 177.021C368.905 176.419 369.06 175.741 369.227 175.011C370.31 170.249 371.945 163.055 372.144 158.997C372.263 156.55 371.759 151.854 371.226 146.88C370.572 140.775 369.758 133.178 370.561 132.132C372.047 130.199 378.481 125.904 382.708 124.741C383.564 124.505 384.451 124.386 385.309 124.271C386.034 124.172 386.719 124.081 387.351 123.925C388.053 123.752 389.014 123.45 390.127 123.098C394.48 121.727 401.761 119.435 408.135 120.26Z" fill="white"/>
<path d="M423.74 163.024C421.035 167.063 417.904 168.35 411.084 166.591C404.264 164.831 389.8 154.477 382.648 144.615C382.648 144.615 382.156 143.71 380.759 143.876C379.362 144.039 373.61 146.26 369.336 142.479C365.063 138.698 366.083 135.987 366.297 135.474C366.657 134.605 373.034 135.716 374.76 134.947C376.486 134.177 376.465 132.985 375.17 131.22C373.625 129.113 377.071 128.633 379.691 132.37C381.283 134.642 383.964 137.629 386.388 138.858C388.895 140.127 414.373 149.295 415.686 148.887C417 148.478 425.275 143.478 425.275 143.478C425.275 143.478 426.687 158.624 423.74 163.024Z" fill="white"/>
<path d="M416.18 167.765C419.656 167.765 422.012 166.34 424.08 163.25C427.073 158.78 425.739 144.063 425.682 143.439C425.669 143.3 425.585 143.175 425.459 143.112C425.332 143.049 425.184 143.054 425.063 143.127C422.774 144.511 416.606 148.171 415.565 148.494C414.129 148.667 389.564 140.005 386.572 138.491C384.181 137.282 381.55 134.311 380.025 132.133C378.496 129.952 376.653 129.085 375.503 129.194C375.003 129.243 374.635 129.473 374.468 129.846C374.327 130.16 374.279 130.694 374.84 131.461C375.525 132.395 375.793 133.094 375.659 133.599C375.559 133.98 375.209 134.298 374.593 134.573C373.829 134.913 371.852 134.835 370.108 134.766C367.475 134.662 366.197 134.644 365.918 135.316C365.491 136.345 364.941 139.136 369.063 142.783C372.831 146.116 377.61 145.003 379.906 144.466C380.3 144.375 380.61 144.303 380.805 144.279C381.887 144.152 382.275 144.786 382.292 144.814C382.299 144.825 382.308 144.842 382.318 144.853C389.396 154.616 403.994 165.182 410.982 166.984C412.968 167.499 414.679 167.765 416.18 167.765ZM424.92 144.169C425.145 147.103 425.89 159.077 423.398 162.797C421.029 166.334 418.27 168.023 411.184 166.195C404.33 164.426 389.978 154.02 382.989 144.388C382.875 144.204 382.229 143.29 380.709 143.469C380.469 143.497 380.138 143.575 379.72 143.671C377.558 144.175 373.058 145.224 369.604 142.172C365.936 138.926 366.299 136.576 366.654 135.675C367.01 135.465 368.775 135.533 370.072 135.585C371.995 135.662 373.983 135.74 374.923 135.322C375.782 134.939 376.28 134.445 376.449 133.811C376.653 133.042 376.35 132.141 375.497 130.98C375.204 130.58 375.157 130.307 375.211 130.184C375.269 130.056 375.486 130.021 375.577 130.014C376.317 129.943 377.928 130.577 379.351 132.607C380.93 134.861 383.672 137.947 386.199 139.225C387.704 139.987 414.107 149.802 415.803 149.278C416.964 148.918 423.014 145.314 424.92 144.169Z" fill="#2E3543"/>
<path d="M370.696 143.445L370.795 144.351L371.362 149.585C371.945 154.193 371.492 157.947 371.492 157.947C371.501 159.395 370.618 161.099 369.533 162.055C368.283 163.159 367.629 163.386 366.609 163.757C362.774 165.153 361.102 164.721 359.709 160.759C358.317 156.796 358.808 154.339 362.083 142.055C362.083 142.055 362.984 139.574 360.444 137.908C358.189 136.427 358.934 132.869 361.013 130.177C364.335 125.883 371.293 142.874 370.696 143.445Z" fill="white"/>
<path d="M363.436 164.894C364.305 164.894 365.364 164.649 366.75 164.144L366.799 164.125C367.796 163.763 368.517 163.501 369.805 162.364C371.04 161.273 371.9 159.471 371.9 157.972C371.943 157.604 372.333 153.992 371.768 149.535L371.116 143.517C371.18 143.294 371.133 142.921 370.908 142.163C370.167 139.68 366.048 129.746 362.607 129.107C362.098 129.012 361.351 129.077 360.693 129.928C359.189 131.875 358.434 134.161 358.724 135.89C358.893 136.901 359.411 137.718 360.223 138.252C362.449 139.714 361.732 141.83 361.7 141.919C358.336 154.531 357.901 156.846 359.324 160.896C360.038 162.927 360.836 164.06 361.916 164.571C362.366 164.785 362.86 164.894 363.436 164.894ZM370.325 143.276C370.295 143.342 370.282 143.415 370.29 143.489L370.955 149.631C371.527 154.139 371.088 157.864 371.085 157.901C371.083 157.918 371.081 157.936 371.081 157.953C371.088 159.216 370.323 160.816 369.262 161.753C368.092 162.786 367.499 163.001 366.518 163.358L366.47 163.376C364.393 164.133 363.174 164.264 362.265 163.835C361.399 163.425 360.731 162.436 360.095 160.629C358.75 156.799 359.181 154.535 362.479 142.166C362.481 142.166 363.445 139.392 360.671 137.572C360.045 137.161 359.662 136.552 359.528 135.76C359.276 134.248 359.969 132.206 361.338 130.434C361.743 129.91 362.174 129.778 362.741 130.001C365.884 131.242 370.323 142.098 370.325 143.276Z" fill="#2E3543"/>
<path d="M368.419 135.396C368.419 135.396 374.052 136 375.798 134.621C377.091 133.601 374.678 130.547 374.496 130.307C372.967 128.291 369.4 123.596 368.866 122.929C368.385 122.328 367.467 120.891 366.267 120.997C365.067 121.103 358.425 122.196 357.94 122.409C356.927 122.855 357.355 124.263 358.096 125.038C358.835 125.815 368.419 135.396 368.419 135.396Z" fill="#2E3543"/>
<path d="M371.098 135.937C372.868 135.937 375.027 135.751 376.051 134.943C377.417 133.865 375.88 131.439 374.843 130.09C373.641 128.507 369.747 123.377 369.186 122.675C369.13 122.606 369.069 122.524 369.002 122.435C368.445 121.703 367.512 120.477 366.232 120.59C365.225 120.68 358.371 121.774 357.776 122.036C357.338 122.229 357.059 122.575 356.966 123.034C356.805 123.842 357.269 124.765 357.801 125.322C358.536 126.094 367.739 135.296 368.129 135.686C368.194 135.753 368.281 135.794 368.374 135.803C368.48 135.814 369.66 135.937 371.098 135.937ZM366.39 121.402C367.187 121.402 367.911 122.355 368.35 122.931C368.422 123.026 368.487 123.112 368.547 123.186C369.102 123.881 372.991 129.003 374.171 130.556C375.332 132.069 376.192 133.791 375.546 134.302C374.26 135.316 370.234 135.164 368.606 135.006C367.568 133.969 359.081 125.479 358.393 124.76C357.953 124.297 357.684 123.626 357.769 123.195C357.808 123 357.916 122.87 358.107 122.786C358.568 122.606 365.006 121.523 366.304 121.408C366.332 121.402 366.36 121.402 366.39 121.402Z" fill="white"/>
<path d="M415.363 182.268C415.363 182.268 420.803 227.503 421.474 236.23C422.144 244.956 423.151 275.499 421.474 290.604C420.387 300.389 419.632 306.933 419.237 310.329C419.053 311.905 417.719 313.09 416.134 313.09H405.048C404.481 313.09 404.02 312.637 404.013 312.07C403.963 307.996 403.598 292.476 401.001 279.19C397.98 263.751 394.625 239.585 392.945 229.851C392.386 226.604 391.914 222.99 391.516 219.456C391.516 219.456 391.516 219.456 390.26 223.139C389.004 226.821 384.218 251.667 382.877 261.401C381.656 270.254 379.601 305.768 379.239 312.116C379.208 312.664 378.754 313.09 378.206 313.09H364.01C363.478 313.09 363.033 312.689 362.981 312.159C362.321 305.577 358.432 265.802 359.047 247.977C359.718 228.51 368.445 205.351 370.124 198.974C371.802 192.598 374.054 176.425 374.054 176.425C374.054 176.425 408.083 176.938 415.363 182.268Z" fill="white"/>
<path d="M364.008 313.499H378.204C378.97 313.499 379.603 312.902 379.646 312.139C380.04 305.214 382.071 270.23 383.28 261.457C384.644 251.563 389.395 226.938 390.647 223.271L391.318 221.305C391.711 224.612 392.115 227.444 392.542 229.922C393.125 233.303 393.909 238.416 394.816 244.336C396.514 255.411 398.627 269.193 400.598 279.27C403.171 292.421 403.548 307.704 403.602 312.076C403.611 312.862 404.26 313.501 405.046 313.501H416.132C417.925 313.501 419.434 312.157 419.642 310.378C419.998 307.314 420.764 300.677 421.879 290.648C423.512 275.945 422.62 245.818 421.88 236.198C421.217 227.562 415.822 182.671 415.768 182.22C415.755 182.106 415.695 182.006 415.602 181.939C408.303 176.592 375.449 176.039 374.054 176.018C374.052 176.018 374.05 176.018 374.048 176.018C373.844 176.018 373.671 176.169 373.643 176.371C373.621 176.533 371.375 192.593 369.723 198.872C369.388 200.139 368.774 202.081 367.993 204.537C364.911 214.254 359.172 232.339 358.633 247.964C358.022 265.67 361.804 304.581 362.568 312.202C362.644 312.941 363.263 313.499 364.008 313.499ZM391.514 219.048C391.342 219.048 391.184 219.157 391.128 219.324L389.872 223.007C388.612 226.702 383.838 251.426 382.47 261.345C381.255 270.15 379.224 305.162 378.83 312.092C378.812 312.421 378.537 312.679 378.206 312.679H364.01C363.687 312.679 363.419 312.438 363.387 312.117C362.624 304.505 358.847 265.642 359.456 247.988C359.991 232.477 365.708 214.458 368.779 204.781C369.563 202.311 370.18 200.362 370.52 199.075C372.045 193.276 374.065 179.264 374.409 176.837C378.052 176.914 408.013 177.681 414.982 182.493C415.357 185.62 420.428 227.917 421.07 236.258C421.808 245.854 422.7 275.902 421.072 290.553C419.957 300.579 419.194 307.215 418.835 310.277C418.675 311.645 417.516 312.678 416.138 312.678H405.051C404.711 312.678 404.431 312.401 404.425 312.061C404.371 307.672 403.99 292.328 401.404 279.109C399.437 269.048 397.324 255.275 395.628 244.208C394.719 238.285 393.935 233.168 393.352 229.779C392.852 226.879 392.386 223.486 391.927 219.408C391.905 219.219 391.754 219.068 391.565 219.048C391.544 219.049 391.529 219.048 391.514 219.048Z" fill="#2E3543"/>
<path d="M391.5 219.744C391.514 219.744 391.531 219.744 391.546 219.742C391.771 219.716 391.933 219.514 391.907 219.289C391.678 217.271 391.459 215.12 391.251 212.899C390.84 208.528 387.912 204.715 383.789 203.19L381.339 202.283C381.125 202.205 380.891 202.313 380.813 202.525C380.735 202.737 380.843 202.972 381.054 203.051L383.505 203.957C387.334 205.375 390.056 208.916 390.437 212.976C390.645 215.201 390.868 217.357 391.095 219.382C391.117 219.59 391.295 219.744 391.5 219.744Z" fill="#2E3543"/>
<path d="M367.126 313.086H376.172C376.813 313.086 377.391 313.471 377.636 314.063C378.438 316.014 380.072 320.573 379.852 324.897C379.793 326.078 378.81 327.004 377.627 327.004H351.082C349.862 327.004 348.935 325.889 349.178 324.692C349.472 323.26 350.48 321.376 353.39 319.683C358.102 316.941 364.025 314.201 365.892 313.352C366.28 313.177 366.7 313.086 367.126 313.086Z" fill="white"/>
<path d="M351.082 327.414H377.627C379.033 327.414 380.189 326.318 380.261 324.919C380.488 320.462 378.765 315.734 378.015 313.909C377.708 313.16 376.986 312.677 376.174 312.677H367.127C366.641 312.677 366.169 312.779 365.727 312.98C363.989 313.77 357.949 316.56 353.187 319.33C350.066 321.148 349.067 323.204 348.78 324.613C348.641 325.298 348.814 326.004 349.26 326.549C349.706 327.098 350.371 327.414 351.082 327.414ZM376.172 313.495C376.649 313.495 377.077 313.779 377.257 314.219C377.987 315.994 379.661 320.585 379.444 324.878C379.395 325.843 378.596 326.597 377.627 326.597H351.082C350.618 326.597 350.185 326.391 349.89 326.032C349.602 325.679 349.488 325.222 349.579 324.778C349.834 323.535 350.737 321.705 353.598 320.04C358.326 317.29 364.335 314.513 366.065 313.727C366.401 313.575 366.758 313.497 367.127 313.497H376.172V313.495Z" fill="#2E3543"/>
<path d="M365.897 319.433C366.003 319.433 366.109 319.392 366.189 319.31C366.347 319.148 366.345 318.89 366.184 318.732L362.377 314.987C362.217 314.829 361.957 314.831 361.799 314.992C361.641 315.154 361.643 315.412 361.804 315.57L365.611 319.316C365.691 319.394 365.793 319.433 365.897 319.433Z" fill="#2E3543"/>
<path d="M363.441 320.967C363.547 320.967 363.653 320.926 363.733 320.845C363.891 320.683 363.889 320.425 363.727 320.267L359.921 316.521C359.761 316.363 359.501 316.365 359.343 316.527C359.185 316.689 359.187 316.947 359.348 317.105L363.155 320.85C363.235 320.928 363.339 320.967 363.441 320.967Z" fill="#2E3543"/>
<path d="M407.041 313.086H416.087C416.728 313.086 417.306 313.471 417.551 314.063C418.354 316.014 419.987 320.573 419.768 324.897C419.708 326.078 418.726 327.004 417.542 327.004H390.998C389.777 327.004 388.85 325.889 389.094 324.692C389.387 323.26 390.396 321.376 393.306 319.683C398.017 316.941 403.94 314.201 405.807 313.352C406.198 313.177 406.616 313.086 407.041 313.086Z" fill="white"/>
<path d="M390.998 327.414H417.542C418.949 327.414 420.104 326.318 420.177 324.919C420.403 320.462 418.681 315.734 417.93 313.909C417.622 313.16 416.899 312.677 416.089 312.677H407.043C406.556 312.677 406.084 312.779 405.642 312.98C403.903 313.77 397.863 316.562 393.103 319.33C389.982 321.148 388.982 323.204 388.696 324.613C388.557 325.298 388.729 326.004 389.175 326.549C389.623 327.098 390.288 327.414 390.998 327.414ZM416.087 313.495C416.565 313.495 416.992 313.779 417.172 314.219C417.903 315.994 419.577 320.585 419.359 324.876C419.311 325.841 418.512 326.595 417.542 326.595H390.998C390.534 326.595 390.101 326.389 389.807 326.03C389.519 325.677 389.406 325.22 389.497 324.776C389.751 323.533 390.654 321.703 393.515 320.038C398.24 317.289 404.252 314.511 405.982 313.725C406.318 313.573 406.675 313.495 407.045 313.495H416.087Z" fill="#2E3543"/>
<path d="M406.829 319.106C406.935 319.106 407.041 319.065 407.121 318.983C407.279 318.821 407.277 318.563 407.115 318.405L403.309 314.66C403.149 314.502 402.889 314.503 402.731 314.665C402.573 314.827 402.575 315.085 402.736 315.243L406.543 318.988C406.623 319.067 406.727 319.106 406.829 319.106Z" fill="#2E3543"/>
<path d="M404.373 320.64C404.479 320.64 404.585 320.599 404.665 320.518C404.823 320.356 404.821 320.098 404.659 319.94L400.852 316.194C400.693 316.036 400.433 316.038 400.275 316.2C400.117 316.361 400.119 316.62 400.28 316.778L404.087 320.523C404.167 320.601 404.271 320.64 404.373 320.64Z" fill="#2E3543"/>
<path d="M396.618 97.4907C396.419 97.5575 396.209 97.643 395.985 97.7526C395.985 97.7526 395.483 98.0592 395.024 98.899C394.565 99.7388 393.802 102.338 392.808 102.184C391.814 102.031 390.591 97.9812 390.591 97.9812C390.591 97.9812 390.208 95.995 387.152 96.7586C384.096 97.5222 381.727 98.8209 380.809 99.356C379.891 99.8911 379.052 100.043 378.136 99.9673C377.218 99.8911 374.238 98.1335 374.773 95.3057C375.308 92.478 377.907 90.5569 380.198 90.568C382.583 90.581 386.006 89.039 386.617 88.7343C387.228 88.4277 390.825 86.9544 392.785 88.0468C394.534 89.0223 396.003 90.568 396.802 93.2435C397.311 94.9509 396.919 96.5171 396.865 97.0318C396.849 97.2343 396.811 97.4256 396.618 97.4907Z" fill="#2E3543"/>
<path d="M380.426 99.64C380.369 99.6716 380.335 99.7329 380.339 99.798C380.371 100.264 380.475 102.195 380.183 103.936C380.021 104.896 379.405 107.232 379.665 107.713C379.925 108.194 380.887 108.231 381.331 108.194C381.775 108.157 382.517 108.343 382.702 108.712C382.888 109.082 383.444 112.527 383.665 113.342C383.888 114.158 384.627 115.12 385.998 114.972C386.173 114.953 386.686 114.838 387.083 114.745C387.371 114.678 387.659 114.869 387.706 115.163C388.363 119.345 384.137 124.059 383.12 125.133C383.016 125.244 383.054 125.426 383.193 125.487C392.566 129.579 402.209 122.517 404.843 120.322C404.96 120.224 399.92 118.86 397.51 113.065C396.451 110.516 396.806 106.552 396.767 104.976C396.759 104.658 396.938 104.365 397.226 104.233C397.859 103.941 398.781 102.971 399.047 102.016C399.429 100.641 399.277 96.2549 395.643 98.0125C395.643 98.0125 395.141 98.3191 394.682 99.1588C394.223 99.9986 393.46 102.598 392.466 102.444C391.472 102.291 390.249 98.241 390.249 98.241C390.249 98.241 389.867 96.2549 386.81 97.0185C384.053 97.7078 380.997 99.3298 380.426 99.64Z" fill="white"/>
<path d="M389.305 127.162C396.579 127.162 402.959 122.422 405.103 120.637C405.213 120.546 405.269 120.401 405.248 120.26C405.213 120.016 405.053 119.946 404.734 119.804C401.506 118.391 399.203 116.07 397.887 112.906C397.073 110.948 397.129 108.083 397.164 106.186C397.174 105.701 397.181 105.283 397.174 104.962C397.17 104.805 397.257 104.664 397.395 104.599C398.145 104.254 399.145 103.174 399.439 102.121C399.719 101.112 399.736 98.6891 398.508 97.6636C397.989 97.2307 397.042 96.8758 395.461 97.6394C395.364 97.6952 394.818 98.0482 394.32 98.9586C394.201 99.1778 394.071 99.4825 393.922 99.8373C393.636 100.515 392.966 102.104 392.525 102.035C392.137 101.963 391.24 100.105 390.643 98.1318C390.608 97.985 390.413 97.305 389.697 96.8498C388.965 96.3835 387.96 96.3054 386.71 96.6176C383.91 97.318 380.82 98.9567 380.229 99.2781C380.033 99.3859 379.915 99.5995 379.93 99.8225C379.956 100.196 380.068 102.147 379.778 103.865C379.737 104.105 379.668 104.43 379.592 104.791C379.209 106.604 379.076 107.483 379.302 107.904C379.728 108.694 381.093 108.622 381.363 108.599C381.74 108.568 382.26 108.748 382.333 108.893C382.42 109.092 382.661 110.379 382.836 111.319C383.005 112.222 383.165 113.075 383.265 113.447C383.559 114.524 384.536 115.539 386.037 115.375C386.097 115.37 386.275 115.349 387.171 115.139C387.208 115.13 387.238 115.145 387.252 115.154C387.269 115.165 387.29 115.186 387.297 115.223C387.908 119.106 384.023 123.572 382.818 124.849C382.678 124.997 382.619 125.205 382.66 125.406C382.701 125.607 382.836 125.776 383.024 125.859C385.14 126.787 387.258 127.162 389.305 127.162ZM404.083 120.41C400.929 122.918 392.209 128.793 383.598 125.217C385.036 123.652 388.746 119.163 388.107 115.098C388.066 114.848 387.923 114.621 387.711 114.478C387.5 114.335 387.234 114.286 386.987 114.344C386.201 114.528 385.995 114.558 385.952 114.563C384.848 114.682 384.244 113.92 384.057 113.233C383.964 112.893 383.8 112.018 383.642 111.171C383.332 109.513 383.184 108.765 383.067 108.529C382.775 107.945 381.842 107.741 381.296 107.786C380.722 107.834 380.125 107.708 380.023 107.518C379.915 107.221 380.237 105.695 380.393 104.962C380.471 104.588 380.543 104.25 380.584 104.003C380.857 102.381 380.796 100.621 380.755 99.9247C381.571 99.4881 384.373 98.0463 386.909 97.4128C387.918 97.1601 388.731 97.2047 389.259 97.541C389.746 97.8512 389.846 98.3101 389.846 98.3157C389.85 98.3287 389.852 98.3436 389.857 98.3566C390.247 99.6478 391.277 102.673 392.403 102.845C393.465 103.009 394.142 101.428 394.679 100.155C394.812 99.8355 394.941 99.5326 395.041 99.3506C395.394 98.704 395.769 98.4179 395.843 98.364C396.784 97.9144 397.504 97.8902 397.984 98.2916C398.874 99.0347 398.89 101.036 398.651 101.901C398.411 102.765 397.558 103.622 397.053 103.856C396.618 104.057 396.343 104.499 396.356 104.982C396.364 105.292 396.356 105.699 396.347 106.169C396.308 108.133 396.25 111.102 397.131 113.218C398.485 116.481 400.825 118.898 404.083 120.41Z" fill="#2E3543"/>
<path d="M387.34 115.087C387.377 115.087 387.418 115.082 387.455 115.07C388.713 114.699 390.736 113.831 392.168 112.891C392.358 112.767 392.41 112.514 392.286 112.324C392.161 112.135 391.907 112.083 391.719 112.207C390.355 113.105 388.425 113.931 387.223 114.286C387.005 114.349 386.883 114.578 386.946 114.795C387 114.97 387.161 115.087 387.34 115.087Z" fill="#2E3543"/>
<path d="M145.55 28.6233C143.019 28.6233 140.959 26.5647 140.959 24.0323C140.959 21.5018 143.017 19.4414 145.55 19.4414C148.08 19.4414 150.141 21.5 150.141 24.0323C150.139 26.5647 148.08 28.6233 145.55 28.6233ZM145.55 20.2607C143.471 20.2607 141.778 21.9533 141.778 24.0323C141.778 26.1114 143.471 27.8039 145.55 27.8039C147.629 27.8039 149.321 26.1114 149.321 24.0323C149.321 21.9533 147.629 20.2607 145.55 20.2607Z" fill="#2458A4"/>
<path d="M129.921 28.8739C129.694 28.8739 129.512 28.69 129.512 28.4652V25.2881C129.512 25.0615 129.696 24.8794 129.921 24.8794C130.146 24.8794 130.33 25.0633 130.33 25.2881V28.4652C130.33 28.6919 130.146 28.8739 129.921 28.8739Z" fill="#2458A4"/>
<path d="M129.921 36.2758C129.694 36.2758 129.512 36.0918 129.512 35.867V32.69C129.512 32.4633 129.696 32.2812 129.921 32.2812C130.146 32.2812 130.33 32.4652 130.33 32.69V35.867C130.33 36.0918 130.146 36.2758 129.921 36.2758Z" fill="#2458A4"/>
<path d="M127.808 30.9864H124.631C124.405 30.9864 124.223 30.8025 124.223 30.5777C124.223 30.3529 124.407 30.1689 124.631 30.1689H127.808C128.035 30.1689 128.217 30.3529 128.217 30.5777C128.217 30.8025 128.033 30.9864 127.808 30.9864Z" fill="#2458A4"/>
<path d="M135.209 30.9864H132.032C131.805 30.9864 131.623 30.8025 131.623 30.5777C131.623 30.3529 131.807 30.1689 132.032 30.1689H135.209C135.435 30.1689 135.617 30.3529 135.617 30.5777C135.617 30.8025 135.435 30.9864 135.209 30.9864Z" fill="#2458A4"/>
<path d="M59.0616 99.7318C67.1616 99.7318 73.728 93.1654 73.728 85.0654C73.728 76.9653 67.1616 70.3989 59.0616 70.3989C50.9615 70.3989 44.3951 76.9653 44.3951 85.0654C44.3951 93.1654 50.9615 99.7318 59.0616 99.7318Z" fill="white"/>
<path d="M59.0374 100.148C56.4549 100.148 53.9039 99.4771 51.5983 98.1636C48.0998 96.17 45.586 92.9335 44.5214 89.0504C43.4568 85.1674 43.9678 81.1004 45.9613 77.6019C47.9549 74.1034 51.1914 71.5897 55.0744 70.5251C58.9575 69.4605 63.0245 69.9714 66.523 71.965C70.0214 73.9585 72.5352 77.195 73.5998 81.0781C74.6644 84.9611 74.1534 89.0281 72.1599 92.5266C70.1663 96.0251 66.9298 98.5389 63.0468 99.6034C61.7221 99.9676 60.3751 100.148 59.0374 100.148ZM59.0838 70.8019C57.8186 70.8019 56.5459 70.971 55.2918 71.3147C51.6187 72.3217 48.5587 74.698 46.6729 78.0069C44.7871 81.3159 44.304 85.1618 45.311 88.8331C46.318 92.5062 48.6943 95.5662 52.0033 97.452C55.3122 99.3378 59.1563 99.8208 62.8294 98.8138C66.5025 97.8068 69.5625 95.4305 71.4483 92.1216C73.3341 88.8126 73.8172 84.9667 72.8102 81.2955C71.8032 77.6224 69.4269 74.5624 66.1179 72.6766C63.9404 71.4355 61.527 70.8019 59.0838 70.8019Z" fill="#2458A4"/>
<path d="M59.736 91.9303C59.6227 91.9303 59.513 91.8839 59.4331 91.7966L52.4362 84.1215C52.2839 83.9543 52.295 83.696 52.4622 83.5437C52.6294 83.3913 52.8877 83.4043 53.04 83.5697L59.2975 90.4328C59.1953 84.7309 59.8828 80.3127 61.3951 76.948C61.488 76.7418 61.7295 76.6508 61.9358 76.7418C62.142 76.8347 62.2349 77.0762 62.142 77.2825C60.5869 80.7438 59.9348 85.396 60.1447 91.5049C60.1503 91.6758 60.0481 91.8337 59.8902 91.8987C59.84 91.921 59.788 91.9303 59.736 91.9303Z" fill="#2458A4"/>
<path d="M87.037 316.2C87.037 316.2 85.9389 324.002 88.4657 327.299L89.2293 328.695L76.4784 327.194L77.1863 325.834C78.4459 323.413 79.0776 320.778 79.0312 318.145L87.037 316.2Z" fill="white"/>
<path d="M89.2293 329.103C89.2126 329.103 89.1977 329.103 89.181 329.101L76.4301 327.6C76.2963 327.585 76.1793 327.503 76.1161 327.385C76.0529 327.266 76.0529 327.124 76.1142 327.004L76.8221 325.644C78.0446 323.293 78.667 320.703 78.6224 318.153C78.6187 317.961 78.7488 317.792 78.9346 317.747L86.9385 315.8C87.0704 315.769 87.2098 315.804 87.3101 315.895C87.4104 315.986 87.4587 316.122 87.4401 316.256C87.429 316.332 86.3941 323.927 88.7871 327.048C88.8001 327.065 88.8113 327.082 88.8206 327.1L89.5842 328.496C89.6566 328.629 89.6492 328.795 89.5637 328.921C89.4913 329.036 89.365 329.103 89.2293 329.103ZM77.1157 326.857L88.4899 328.195L88.122 327.52C85.9296 324.62 86.357 318.649 86.5613 316.735L79.4455 318.467C79.4362 321.047 78.7841 323.652 77.5523 326.021L77.1157 326.857Z" fill="#2E3543"/>
<path d="M88.7035 322.981L89.9762 324.471C92.4956 327.422 95.693 329.714 99.2956 331.152L102.064 332.258C102.328 332.364 102.521 332.592 102.582 332.869L102.614 333.01C102.959 334.577 101.092 338.094 95.3791 339.188C91.8453 339.866 83.6091 340.171 73.7621 336.163C73.1397 335.911 72.7533 335.283 72.8127 334.614C73.0264 332.174 73.7621 326.363 76.0306 323.524C76.2833 323.208 76.7478 323.171 77.0358 323.453L79.8097 326.177C81.0545 327.399 83.0554 327.377 84.2724 326.129L87.3807 322.937C87.7467 322.559 88.3598 322.58 88.7035 322.981Z" fill="white"/>
<path d="M90.3849 340C86.4183 340 80.5157 339.354 73.6079 336.543C72.8146 336.219 72.3296 335.43 72.4058 334.579C72.6195 332.156 73.3664 326.203 75.7111 323.27C75.9062 323.026 76.196 322.874 76.5044 322.855C76.8072 322.839 77.1064 322.948 77.3237 323.162L80.0958 325.886C80.6197 326.4 81.3108 326.675 82.0466 326.672C82.7805 326.664 83.466 326.369 83.9788 325.843L87.0871 322.651C87.3417 322.389 87.6947 322.244 88.0644 322.257C88.4304 322.268 88.776 322.436 89.0138 322.714L90.2865 324.204C92.7519 327.091 95.9197 329.364 99.446 330.772L102.214 331.877C102.605 332.034 102.891 332.372 102.982 332.78L103.013 332.922C103.184 333.695 102.918 334.689 102.283 335.651C101.544 336.775 99.6727 338.78 95.4552 339.59C94.8031 339.714 93.0213 340 90.3849 340ZM76.5676 323.673C76.562 323.673 76.5564 323.673 76.5527 323.673C76.4728 323.678 76.4004 323.716 76.3502 323.781C74.1448 326.54 73.4277 332.301 73.2196 334.649C73.1769 335.142 73.4555 335.597 73.9163 335.783C85.2051 340.377 93.7125 339.09 95.301 338.785C99.2231 338.033 100.931 336.218 101.599 335.201C102.194 334.296 102.307 333.522 102.212 333.098L102.181 332.957C102.149 332.812 102.047 332.693 101.91 332.637L99.1413 331.532C95.4924 330.073 92.215 327.725 89.6622 324.736L88.3895 323.246C88.3004 323.14 88.174 323.08 88.0347 323.075C87.8953 323.069 87.7671 323.123 87.6705 323.221L84.5622 326.413C83.8971 327.097 83.0053 327.478 82.0522 327.489C81.0953 327.502 80.1998 327.138 79.5198 326.469L76.7478 323.745C76.6846 323.684 76.6122 323.673 76.5676 323.673Z" fill="#2E3543"/>
<path d="M87.6501 334.891C87.6464 334.891 87.6427 334.891 87.6389 334.891C83.4047 334.855 79.2987 333.956 75.4361 332.219L73.2735 331.245C73.0673 331.153 72.9762 330.911 73.0672 330.705C73.1601 330.499 73.4017 330.408 73.6079 330.499L75.7705 331.472C79.5291 333.163 83.5236 334.036 87.6445 334.071C87.6464 334.071 87.6482 334.071 87.6482 334.071C87.7913 334.071 87.9213 334.005 88.0068 333.889C88.0923 333.772 88.1146 333.627 88.07 333.49L87.7058 332.375C87.5628 331.937 87.6891 331.472 88.0328 331.166C88.3784 330.859 88.8522 330.788 89.2721 330.984L90.3534 331.483C93.4524 332.918 97.053 333.022 100.23 331.769L100.854 331.524C101.064 331.441 101.302 331.545 101.386 331.755C101.469 331.965 101.365 332.202 101.155 332.286L100.531 332.531C97.1478 333.867 93.3112 333.756 90.0096 332.226L88.9283 331.727C88.7481 331.643 88.6125 331.745 88.5772 331.779C88.54 331.812 88.423 331.935 88.4843 332.122L88.8484 333.237C88.9766 333.627 88.9098 334.044 88.6664 334.374C88.4267 334.703 88.057 334.891 87.6501 334.891Z" fill="#2E3543"/>
<path d="M30.8162 300.982C30.8162 300.982 25.4487 306.942 25.4245 311.171L25.1849 312.785L15.9435 302.771L17.3946 302.325C19.7504 301 22.175 300.302 23.6725 298.054L30.8162 300.982Z" fill="white"/>
<path d="M25.1867 313.194C25.0734 313.194 24.9656 313.147 24.8857 313.062L15.6444 303.048C15.5497 302.944 15.5125 302.799 15.5497 302.663C15.5868 302.528 15.6909 302.42 15.8246 302.379L17.2348 301.946C17.8163 301.621 18.3997 301.333 18.9645 301.054C20.6645 300.216 22.2698 299.425 23.3344 297.825C23.4421 297.664 23.6502 297.6 23.8304 297.673L30.9723 300.601C31.0949 300.651 31.186 300.759 31.2157 300.889C31.2454 301.019 31.2101 301.155 31.1209 301.253C31.0689 301.311 25.8574 307.148 25.8351 311.169C25.8351 311.187 25.8333 311.208 25.8314 311.226L25.5917 312.841C25.5695 312.997 25.458 313.125 25.3075 313.172C25.2666 313.188 25.2276 313.194 25.1867 313.194ZM16.6867 302.972L24.9062 311.879L25.0158 311.137C25.0567 307.433 28.8877 302.613 30.1325 301.143L23.8211 298.555C22.6451 300.151 21.0305 300.948 19.325 301.79C18.7564 302.071 18.1712 302.359 17.5971 302.682C17.5711 302.697 17.5451 302.708 17.5172 302.717L16.6867 302.972Z" fill="#2E3543"/>
<path d="M27.3326 309.227L27.0038 311.191C26.3535 315.082 26.6582 319.072 27.8937 322.818L28.8431 325.696C28.9342 325.971 28.8821 326.272 28.7056 326.5L28.6165 326.617C27.6225 327.911 23.6632 328.756 19.0742 325.021C16.2353 322.712 10.6113 316.496 7.29494 306.206C7.08499 305.556 7.32095 304.846 7.88018 304.454C9.92018 303.026 14.9273 299.798 18.6208 299.709C19.0314 299.7 19.3659 300.036 19.3343 300.447L19.0259 304.387C18.8865 306.156 20.2131 307.7 21.9818 307.832L26.5003 308.166C27.0372 308.207 27.4218 308.698 27.3326 309.227Z" fill="white"/>
<path d="M25.5769 328.124C24.0701 328.124 21.6548 327.648 18.8178 325.339C17.5079 324.274 10.7823 318.351 6.90848 306.332C6.64094 305.506 6.94006 304.616 7.64979 304.12C9.67678 302.702 14.8009 299.393 18.6153 299.302C18.9348 299.295 19.2358 299.421 19.4513 299.648C19.6631 299.871 19.769 300.173 19.7449 300.48L19.4365 304.421C19.377 305.168 19.6148 305.89 20.1016 306.459C20.5884 307.027 21.2684 307.369 22.0153 307.425L26.5337 307.759C26.9034 307.787 27.2453 307.969 27.4757 308.261C27.7042 308.553 27.8008 308.93 27.7395 309.294L27.4107 311.258C26.7734 315.068 27.0762 319.022 28.2857 322.69L29.2351 325.568C29.3689 325.971 29.2927 326.413 29.0345 326.749L28.9453 326.866C28.4567 327.502 27.5091 327.944 26.3479 328.079C26.125 328.107 25.8667 328.124 25.5769 328.124ZM18.6413 300.12C18.6394 300.12 18.6357 300.12 18.6338 300.12C15.0425 300.205 10.0837 303.414 8.11799 304.79C7.70553 305.08 7.53089 305.599 7.68695 306.082C11.4901 317.881 18.056 323.665 19.3343 324.705C22.4853 327.269 25.0195 327.412 26.2495 327.269C27.3456 327.141 28.0238 326.721 28.2932 326.37L28.3824 326.253C28.4753 326.132 28.5031 325.973 28.4548 325.826L27.5054 322.948C26.255 319.154 25.941 315.065 26.6006 311.124L26.9295 309.16C26.9536 309.019 26.9165 308.88 26.8291 308.766C26.7418 308.655 26.6136 308.586 26.4724 308.575L21.9539 308.241C20.9878 308.17 20.1109 307.726 19.4792 306.992C18.8493 306.258 18.5428 305.322 18.619 304.357L18.9274 300.417C18.9348 300.313 18.8847 300.244 18.8549 300.211C18.7992 300.151 18.723 300.12 18.6413 300.12Z" fill="#2E3543"/>
<path d="M28.427 325.055C28.3619 325.055 28.295 325.038 28.2319 325.005L27.6318 324.679C24.3804 322.916 21.9614 319.86 20.9934 316.289L20.6757 315.119C20.6218 314.922 20.4509 314.881 20.3989 314.873C20.3468 314.866 20.1722 314.855 20.0644 315.029L19.4346 316.042C19.2154 316.395 18.8512 316.614 18.435 316.64C18.0207 316.668 17.6306 316.499 17.3649 316.179C14.6244 312.858 12.6402 309.073 11.4678 304.93L10.812 302.609C10.7507 302.392 10.877 302.165 11.0944 302.104C11.3136 302.043 11.5384 302.169 11.5997 302.386L12.2556 304.707C13.3964 308.74 15.3286 312.425 17.9966 315.657C18.0913 315.773 18.2307 315.834 18.3812 315.823C18.5298 315.813 18.6617 315.734 18.7397 315.607L19.3696 314.595C19.6167 314.199 20.057 313.995 20.5178 314.063C20.9804 314.132 21.3427 314.453 21.4653 314.903L21.783 316.074C22.6934 319.427 24.9656 322.301 28.0219 323.959L28.622 324.284C28.8208 324.391 28.8952 324.64 28.7874 324.839C28.7131 324.977 28.5719 325.055 28.427 325.055Z" fill="#2E3543"/>
<path d="M99.7025 209.448C99.7025 209.448 87.8582 212.539 77.0246 210.237L77.0228 210.228L76.1403 209.987C73.8495 209.357 71.7054 208.411 69.6227 207.306C68.2329 206.566 67.1033 205.416 66.3806 204.017C66.3806 204.017 59.6326 214.306 59.5472 231.947C59.4505 251.901 32.5664 270.626 22.5355 297.054C23.195 300.767 25.6196 303.927 29.0363 305.523L29.1311 305.567C29.1311 305.567 56.1267 294.702 66.6797 277.845C71.083 270.811 76.4896 258.369 79.139 252.033C80.2593 259.361 79.4176 265.735 78.3939 269.704C76.6828 276.34 72.2888 296.274 76.6754 318.008C76.6754 318.008 81.7493 320.422 87.9009 318.408C87.9009 318.408 104.814 283.295 106.33 261.397C107.848 239.5 99.7025 209.448 99.7025 209.448Z" fill="#2E3543"/>
<path d="M82.827 319.624C79.1817 319.624 76.6475 318.448 76.4989 318.378C76.3818 318.322 76.2982 318.216 76.2741 318.09C72.0045 296.93 76.0567 277.132 77.9982 269.603C78.7488 266.69 79.8153 260.879 78.9365 253.571C76.0344 260.435 71.1146 271.532 67.0272 278.063C56.5243 294.84 29.5547 305.839 29.2835 305.948C29.1776 305.991 29.0605 305.987 28.9583 305.939L28.8636 305.894C25.3298 304.243 22.8142 300.965 22.1323 297.127C22.1193 297.054 22.1267 296.98 22.1527 296.909C26.6972 284.937 34.5061 274.768 42.0567 264.934C50.8131 253.532 59.0845 242.764 59.1366 231.943C59.222 214.384 65.97 203.894 66.0369 203.79C66.1168 203.669 66.2524 203.597 66.401 203.606C66.546 203.614 66.676 203.697 66.7429 203.827C67.4341 205.165 68.4968 206.243 69.8141 206.943C72.155 208.186 74.2006 209.028 76.2499 209.591L77.1324 209.832C77.151 209.838 77.1696 209.843 77.1863 209.851C87.782 212.075 99.4814 209.08 99.5984 209.05C99.8158 208.992 100.039 209.122 100.096 209.338C100.178 209.639 108.241 239.709 106.737 261.423C105.232 283.146 88.4379 318.231 88.2688 318.582C88.2205 318.682 88.1332 318.759 88.0273 318.794C86.1582 319.407 84.3895 319.624 82.827 319.624ZM77.0339 317.716C77.9741 318.103 82.4052 319.708 87.6074 318.071C88.8392 315.481 104.479 282.189 105.921 261.369C107.324 241.123 100.342 213.518 99.4089 209.94C97.2463 210.445 86.6338 212.697 76.9392 210.637C76.9039 210.629 76.8704 210.618 76.8389 210.601L76.0325 210.38C73.9238 209.801 71.8262 208.939 69.4313 207.666C68.1772 206.999 67.1312 206.025 66.3732 204.827C64.9965 207.238 60.0284 216.972 59.9559 231.949C59.902 243.044 51.5488 253.919 42.7069 265.434C35.2139 275.19 27.4664 285.279 22.9591 297.093C23.6186 300.597 25.9206 303.589 29.1422 305.121C31.4126 304.178 56.398 293.498 66.3342 277.628C70.678 270.688 75.9861 258.515 78.7637 251.875C78.8343 251.706 79.0071 251.604 79.191 251.626C79.3731 251.648 79.518 251.79 79.5458 251.97C80.7925 260.111 79.609 266.638 78.7934 269.806C76.8704 277.254 72.8666 296.803 77.0339 317.716Z" fill="white"/>
<path d="M132.584 154.185C133.584 154.622 134.743 154.159 135.172 153.152L141.285 138.802L137.662 137.221L131.549 151.571C131.12 152.578 131.584 153.749 132.584 154.185Z" fill="#2E3543"/>
<path d="M133.368 154.76C133.047 154.76 132.725 154.693 132.42 154.561C131.217 154.035 130.657 152.623 131.174 151.412L137.286 137.061C137.329 136.961 137.411 136.881 137.511 136.842C137.612 136.801 137.727 136.803 137.825 136.847L141.448 138.428C141.654 138.518 141.749 138.757 141.66 138.964L135.547 153.314C135.297 153.903 134.832 154.356 134.239 154.592C133.959 154.704 133.663 154.76 133.368 154.76ZM137.877 137.76L131.926 151.731C131.586 152.53 131.954 153.463 132.747 153.81C133.13 153.977 133.552 153.985 133.938 153.831C134.327 153.676 134.631 153.379 134.795 152.993L140.75 139.014L137.877 137.76Z" fill="white"/>
<path d="M115.764 112.469C120.188 131.786 139.287 143.894 158.424 139.511C177.561 135.129 189.487 115.916 185.061 96.599C180.635 77.2821 161.538 65.174 142.401 69.5569C123.266 73.9397 111.34 93.1525 115.764 112.469ZM120.331 111.423C116.491 94.6519 126.845 77.9714 143.458 74.1664C160.072 70.3614 176.654 80.8735 180.496 97.6431C184.338 114.413 173.982 131.095 157.369 134.9C140.753 138.707 124.171 128.195 120.331 111.423Z" fill="#2E3543"/>
<path d="M150.556 140.814C134.133 140.814 119.218 129.377 115.367 112.561C110.898 93.0543 122.986 73.5833 142.312 69.1577C161.638 64.7321 180.994 77 185.462 96.5063C187.627 105.956 186.016 115.673 180.927 123.87C175.838 132.069 167.879 137.765 158.517 139.909C155.849 140.521 153.183 140.814 150.556 140.814ZM150.271 69.0741C147.704 69.0741 145.099 69.3602 142.494 69.9566C123.608 74.2819 111.798 93.3126 116.164 112.379C119.928 128.816 134.507 139.995 150.556 139.995C153.123 139.995 155.728 139.709 158.333 139.112C167.481 137.017 175.257 131.452 180.23 123.439C185.204 115.426 186.778 105.926 184.663 96.6884C180.899 80.2532 166.32 69.0741 150.271 69.0741ZM150.537 136.086C136.255 136.086 123.283 126.138 119.933 111.515C116.048 94.55 126.561 77.6168 143.367 73.7672C160.174 69.9176 177.009 80.5877 180.894 97.5524C184.779 114.517 174.267 131.45 157.46 135.3C155.141 135.831 152.822 136.086 150.537 136.086ZM120.73 111.333C124.515 127.857 140.911 138.25 157.278 134.503C173.644 130.753 183.881 114.261 180.097 97.7363C176.312 81.2119 159.918 70.8168 143.549 74.5661C127.183 78.3136 116.946 94.8082 120.73 111.333Z" fill="white"/>
<path d="M133.093 160.575C133.545 160.731 134.981 158.854 135.317 158.523C136.64 157.223 139.713 155.69 140.335 152.972C141.142 149.446 139.607 145.661 138.708 145.778C137.809 145.895 136.67 152.587 133.151 152.831C133.151 152.831 132.359 152.738 132.445 149.433C132.458 148.97 131.96 148.649 131.551 148.862C130.986 149.156 130.267 149.786 129.676 151.129C128.922 152.844 129.067 154.822 129.186 156.008C129.266 156.792 128.98 159.146 129.58 159.354L133.093 160.575Z" fill="white"/>
<path d="M133.151 160.994C133.084 160.994 133.021 160.983 132.958 160.961L129.444 159.74C128.783 159.51 128.753 158.49 128.783 156.959C128.79 156.593 128.798 156.246 128.777 156.049C128.629 154.572 128.554 152.66 129.299 150.964C129.955 149.472 130.782 148.799 131.36 148.498C131.679 148.333 132.055 148.348 132.365 148.543C132.681 148.74 132.863 149.076 132.852 149.444C132.794 151.631 133.134 152.258 133.251 152.409C135.271 152.154 136.473 149.325 137.273 147.437C137.82 146.15 138.121 145.44 138.652 145.371C138.949 145.332 139.245 145.471 139.527 145.784C140.464 146.813 141.43 149.997 140.731 153.061C140.241 155.203 138.392 156.613 136.906 157.745C136.406 158.126 135.934 158.486 135.601 158.813C135.529 158.886 135.401 159.034 135.243 159.22C134.225 160.409 133.634 160.994 133.151 160.994ZM129.747 158.979L133.158 160.164C133.483 160.017 134.306 159.058 134.624 158.687C134.802 158.479 134.947 158.312 135.031 158.23C135.401 157.866 135.893 157.49 136.413 157.095C137.794 156.043 139.512 154.733 139.936 152.879C140.679 149.63 139.328 146.493 138.784 146.202C138.6 146.41 138.286 147.151 138.028 147.757C137.13 149.867 135.776 153.057 133.179 153.238C133.153 153.239 133.127 153.239 133.102 153.236C132.668 153.186 131.952 152.621 132.036 149.421C132.04 149.314 131.965 149.256 131.934 149.236C131.897 149.213 131.822 149.18 131.741 149.225C131.28 149.464 130.611 150.018 130.052 151.294C129.297 153.011 129.505 155.083 129.595 155.967C129.619 156.214 129.613 156.567 129.604 156.976C129.593 157.55 129.569 158.728 129.747 158.979Z" fill="#2E3543"/>
<path d="M135.375 159.861L128.3 157.262C125.52 162.228 122.536 166.494 119.213 169.167C117.258 170.737 115.14 172.017 112.918 173.013C111.918 173.461 110.748 172.998 110.347 171.978C109.243 169.171 107.409 164.747 104.16 159.532C101.718 155.614 97.6644 152.4 94.2978 150.731C89.0696 148.138 82.9887 146.885 77.1975 148.041C66.0202 150.27 58.3749 156.786 58.3749 156.786C52.292 161.641 41.059 178.572 45.0647 186.725C49.9771 196.722 63.2185 190.873 63.2185 190.873C63.2185 190.873 63.4897 195.49 60.727 201.872C57.3716 209.625 60.6694 211.632 60.6694 211.632C74.2936 226.022 104.494 212.435 101.939 206.264C99.2065 199.66 99.16 191.286 99.16 191.286C102.937 195.022 108.093 194.435 108.093 194.435C108.093 194.435 111.075 194.21 113.132 193.365C131.02 187.425 135.375 159.861 135.375 159.861Z" fill="white"/>
<path d="M77.3127 218.419C71.1128 218.419 64.9277 216.699 60.4018 211.944C59.9504 211.628 57.0817 209.252 60.3498 201.707C62.4827 196.778 62.78 192.887 62.8097 191.47C60.1733 192.456 49.1298 195.925 44.695 186.901C40.5091 178.381 52.2381 161.156 58.1166 156.463C58.1835 156.405 65.9607 149.862 77.1139 147.636C82.5724 146.547 88.7389 147.515 94.4762 150.361C97.5882 151.905 101.856 155.068 104.503 159.313C107.623 164.318 109.466 168.63 110.724 171.826C110.874 172.209 111.166 172.504 111.547 172.66C111.935 172.818 112.361 172.811 112.747 172.638C114.976 171.64 117.065 170.366 118.952 168.848C121.879 166.497 124.818 162.642 127.939 157.063C128.038 156.886 128.249 156.81 128.437 156.879L135.512 159.478C135.696 159.545 135.806 159.733 135.776 159.926C135.765 159.995 134.641 166.956 131.334 174.55C126.936 184.646 120.686 191.286 113.26 193.749C111.194 194.6 108.247 194.831 108.123 194.84C107.931 194.862 103.359 195.338 99.5966 192.232C99.7025 194.599 100.178 200.941 102.315 206.107C103.071 207.935 101.462 210.309 97.8985 212.619C93.4097 215.528 85.35 218.419 77.3127 218.419ZM63.2166 190.459C63.2909 190.459 63.3652 190.48 63.4303 190.519C63.5454 190.589 63.6179 190.71 63.6253 190.844C63.6365 191.037 63.8706 195.632 61.1023 202.03C57.955 209.3 60.857 211.262 60.8868 211.281C60.9146 211.299 60.9443 211.322 60.9666 211.346C71.0162 221.96 89.692 216.962 97.4581 211.929C100.611 209.886 102.146 207.825 101.562 206.417C98.8293 199.814 98.7531 191.368 98.7512 191.282C98.7494 191.117 98.8497 190.966 99.0021 190.903C99.1544 190.84 99.3309 190.873 99.448 190.989C103.045 194.547 107.998 194.028 108.048 194.023C108.093 194.019 111.006 193.79 112.977 192.98C129.396 187.531 134.342 163.252 134.914 160.125L128.485 157.763C125.375 163.272 122.423 167.109 119.469 169.483C117.527 171.044 115.378 172.355 113.083 173.383C112.491 173.649 111.837 173.66 111.24 173.416C110.651 173.177 110.198 172.718 109.966 172.125C108.721 168.961 106.898 164.695 103.812 159.746C101.256 155.645 97.1274 152.589 94.1157 151.095C88.5382 148.329 82.5594 147.385 77.2774 148.438C66.3305 150.623 58.7148 157.029 58.6405 157.095C52.7045 161.834 41.5792 178.697 45.4325 186.541C50.1182 196.076 62.9249 190.552 63.0531 190.496C63.1033 190.472 63.1609 190.459 63.2166 190.459Z" fill="#2E3543"/>
<path d="M63.3857 186.121C63.2166 186.121 63.0568 186.015 62.9992 185.846C59.2462 174.987 60.9908 166.204 61.0094 166.117C61.0558 165.896 61.2732 165.753 61.4925 165.799C61.7135 165.846 61.8566 166.061 61.8102 166.282C61.7934 166.368 60.0972 174.942 63.7721 185.579C63.8464 185.792 63.7331 186.025 63.5195 186.099C63.4749 186.114 63.4303 186.121 63.3857 186.121Z" fill="#2E3543"/>
<path d="M98.9389 191.751C98.8367 191.751 98.7327 191.712 98.6528 191.634C92.7799 185.898 88.698 172.597 88.5271 172.034C88.4621 171.819 88.5828 171.59 88.8002 171.523C89.0176 171.458 89.2443 171.579 89.3111 171.797C89.352 171.932 93.5026 185.46 99.225 191.048C99.3867 191.206 99.3904 191.465 99.2325 191.626C99.1507 191.708 99.0448 191.751 98.9389 191.751Z" fill="#2E3543"/>
<path d="M83.5794 123.069C85.8386 123.08 87.9195 124.301 89.0547 126.255C89.5805 127.16 90.058 128.004 90.1546 128.241C90.3738 128.784 90.8587 130.607 92.6349 132.364C92.8096 132.537 92.8356 132.812 92.6832 133.007L91.5462 134.462C91.4681 134.562 91.4347 134.69 91.457 134.815C91.5926 135.591 92.2708 138.406 92.0701 138.915C91.6446 139.993 89.0696 140.284 88.3078 140.348C88.1648 140.359 88.0366 140.441 87.9678 140.565C87.7207 141.011 87.0686 142.291 86.5316 145.481C85.716 150.343 90.3497 151.099 89.4058 151.577C82.8214 154.901 70.6947 154.145 71.397 152.762C71.9748 151.625 78.6299 148.682 79.2486 140.684C79.635 135.697 72.6511 135.287 77.6823 125.793C78.851 123.587 81.3833 123.06 83.5794 123.069Z" fill="white"/>
<path d="M77.0283 154.347C74.104 154.347 71.7815 153.981 71.1759 153.373C70.9473 153.143 70.8916 152.846 71.0291 152.576C71.2037 152.232 71.6682 151.868 72.3724 151.317C74.47 149.674 78.3753 146.616 78.8361 140.652C78.9661 138.976 78.2063 137.884 77.3256 136.618C75.7705 134.382 74.0055 131.847 77.3163 125.603C78.3437 123.663 80.5138 122.641 83.5794 122.66C85.9668 122.671 88.2 123.97 89.4058 126.049C90.3942 127.752 90.4964 128.005 90.5299 128.087C90.5596 128.161 90.5949 128.258 90.6358 128.375C90.8959 129.099 91.4365 130.608 92.9173 132.074C93.2424 132.395 93.2777 132.905 92.999 133.259L91.862 134.714C91.8843 134.918 91.9419 135.197 92.0106 135.528C92.4398 137.583 92.6126 138.636 92.4435 139.067C91.9642 140.28 89.6641 140.646 88.3338 140.758C87.6222 142.023 87.1782 144.063 86.9273 145.551C86.409 148.634 88.2335 149.908 89.2144 150.594C89.6641 150.908 89.9595 151.114 89.9335 151.471C89.9242 151.61 89.8536 151.805 89.5823 151.943C86.1953 153.656 81.0452 154.347 77.0283 154.347ZM71.8224 152.859C72.9743 153.715 82.9588 154.17 88.8986 151.369C88.8484 151.333 88.7983 151.298 88.75 151.265C87.7021 150.532 85.5228 149.007 86.1247 145.416C86.5037 143.157 87.0017 141.458 87.6055 140.368C87.7411 140.124 87.9901 139.965 88.2706 139.94C90.097 139.788 91.47 139.316 91.6873 138.766C91.784 138.419 91.3845 136.511 91.2154 135.695C91.1448 135.353 91.0835 135.067 91.0538 134.887C91.0129 134.649 91.0742 134.402 91.2247 134.211L92.3618 132.756C92.3859 132.724 92.3729 132.682 92.3488 132.657C90.7361 131.061 90.1527 129.436 89.8721 128.654C89.835 128.55 89.8034 128.464 89.7774 128.397C89.7347 128.291 89.5396 127.901 88.7035 126.463C87.6408 124.633 85.6788 123.49 83.5794 123.481C80.8073 123.464 78.9327 124.312 78.0446 125.989C74.9679 131.793 76.51 134.012 78.0019 136.156C78.89 137.432 79.8096 138.753 79.6573 140.721C79.1687 147.043 75.0775 150.246 72.8814 151.967C72.4262 152.316 71.9952 152.654 71.8224 152.859Z" fill="#2E3543"/>
<path d="M87.4197 130.757L90.0543 127.459C91.4068 125.766 90.9331 123.275 89.0621 122.184C88.5438 121.881 87.9344 121.566 87.2544 121.274C80.4878 118.361 72.7366 123.169 72.7291 130.534C72.7254 133.549 74.7413 137.044 79.0256 140.15C79.0256 140.15 82.0355 137.776 81.9983 135.208C81.9983 135.208 79.8134 132.617 82.892 131.305C83.4809 131.054 84.1535 131.074 84.7276 131.357C85.6547 131.814 86.775 131.563 87.4197 130.757Z" fill="#2E3543"/>
<path d="M83.3992 136.799C82.4869 136.799 81.3276 136.411 80.4674 134.785C80.3615 134.584 80.4376 134.337 80.6383 134.231C80.839 134.125 81.0861 134.202 81.192 134.402C82.4201 136.725 84.2687 135.857 84.4768 135.751C84.6774 135.649 84.9245 135.725 85.0286 135.926C85.1326 136.126 85.0564 136.372 84.8576 136.476C84.8428 136.483 84.2222 136.799 83.3992 136.799Z" fill="#2E3543"/>
<path d="M76.2555 123.542C76.2555 123.542 73.9702 115.639 65.6356 117.127C60.4316 118.056 55.8871 121.553 53.39 127.26C48.5594 138.305 52.933 148.814 45.061 158.401C43.2829 160.565 44.7321 163.857 47.532 163.954C52.8215 164.136 59.9615 162.858 64.9184 156.047C68.9799 150.466 66.4271 124.808 75.3637 125.194L76.2555 123.542Z" fill="#2E3543"/>
<path d="M14.9489 256.001C12.4184 256.001 10.358 253.943 10.358 251.41C10.358 248.878 12.4165 246.819 14.9489 246.819C17.4794 246.819 19.5398 248.878 19.5398 251.41C19.5398 253.943 17.4794 256.001 14.9489 256.001ZM14.9489 247.639C12.8699 247.639 11.1773 249.331 11.1773 251.41C11.1773 253.489 12.8699 255.182 14.9489 255.182C17.0279 255.182 18.7205 253.489 18.7205 251.41C18.7205 249.331 17.0279 247.639 14.9489 247.639Z" fill="#2458A4"/>
<path d="M19.9635 264.961C18.2616 264.961 16.8774 263.576 16.8774 261.875C16.8774 260.173 18.2616 258.789 19.9635 258.789C21.6653 258.789 23.0495 260.173 23.0495 261.875C23.0495 263.576 21.6653 264.961 19.9635 264.961ZM19.9635 259.61C18.7131 259.61 17.6968 260.626 17.6968 261.876C17.6968 263.127 18.7131 264.143 19.9635 264.143C21.2138 264.143 22.2301 263.127 22.2301 261.876C22.2301 260.626 21.2138 259.61 19.9635 259.61Z" fill="#2458A4"/>
<path d="M8.05419 233.771C7.82753 233.771 7.64545 233.587 7.64545 233.363V230.186C7.64545 229.959 7.82938 229.777 8.05419 229.777C8.28086 229.777 8.46294 229.961 8.46294 230.186V233.363C8.46294 233.589 8.28086 233.771 8.05419 233.771Z" fill="#2458A4"/>
<path d="M8.05419 241.174C7.82753 241.174 7.64545 240.99 7.64545 240.765V237.588C7.64545 237.361 7.82938 237.179 8.05419 237.179C8.28086 237.179 8.46294 237.363 8.46294 237.588V240.765C8.46294 240.99 8.28086 241.174 8.05419 241.174Z" fill="#2458A4"/>
<path d="M5.94169 235.884H2.76464C2.53797 235.884 2.3559 235.7 2.3559 235.475C2.3559 235.248 2.53983 235.066 2.76464 235.066H5.94169C6.16836 235.066 6.35043 235.25 6.35043 235.475C6.35229 235.7 6.16836 235.884 5.94169 235.884Z" fill="#2458A4"/>
<path d="M13.3437 235.884H10.1666C9.93995 235.884 9.75787 235.7 9.75787 235.475C9.75787 235.248 9.94181 235.066 10.1666 235.066H13.3437C13.5703 235.066 13.7524 235.25 13.7524 235.475C13.7524 235.7 13.5685 235.884 13.3437 235.884Z" fill="#2458A4"/>
<path d="M18.1074 198.995C17.9383 198.995 17.7785 198.889 17.7209 198.72C5.77261 164.211 7.1772 137.594 10.4583 121.341C14.0199 103.704 20.5115 94.0962 20.5765 94.0015C20.7047 93.8157 20.9593 93.7674 21.1451 93.8956C21.3309 94.0238 21.3792 94.2783 21.251 94.4641C21.1859 94.5588 14.7724 104.06 11.2498 121.551C7.9984 137.696 6.61425 164.142 18.4938 198.45C18.5681 198.664 18.4548 198.896 18.2411 198.97C18.1965 198.987 18.1501 198.995 18.1074 198.995Z" fill="#2458A4"/>
<path d="M6.14235 185.904C5.95842 185.904 5.79121 185.779 5.74476 185.591C-2.88901 150.191 0.811968 124.126 5.4382 108.493C10.4583 91.5266 17.6373 82.8148 17.7098 82.7294C17.8547 82.5566 18.113 82.5324 18.2857 82.6774C18.4585 82.8223 18.4827 83.0805 18.3378 83.2533C18.2672 83.3388 11.1773 91.9521 6.20924 108.774C1.62203 124.302 -2.04366 150.202 6.5418 185.396C6.59568 185.616 6.46006 185.837 6.24082 185.891C6.20552 185.9 6.17394 185.904 6.14235 185.904Z" fill="#2458A4"/>
<path d="M415.644 100.552C417.346 100.552 418.73 99.1677 418.73 97.4659C418.73 95.764 417.346 94.3799 415.644 94.3799C413.942 94.3799 412.558 95.764 412.558 97.4659C412.56 99.1677 413.944 100.552 415.644 100.552ZM415.644 95.1992C416.894 95.1992 417.91 96.2155 417.91 97.4659C417.91 98.7163 416.894 99.7326 415.644 99.7326C414.393 99.7326 413.377 98.7163 413.377 97.4659C413.377 96.2174 414.395 95.1992 415.644 95.1992Z" fill="#2458A4"/>
<path d="M419.616 90.8425C421.676 90.8425 423.354 89.1666 423.354 87.1044C423.354 85.0439 421.678 83.3662 419.616 83.3662C417.556 83.3662 415.878 85.0421 415.878 87.1044C415.88 89.1648 417.556 90.8425 419.616 90.8425ZM419.616 84.1856C421.225 84.1856 422.535 85.4954 422.535 87.1044C422.535 88.7133 421.225 90.0232 419.616 90.0232C418.005 90.0232 416.697 88.7133 416.697 87.1044C416.697 85.4954 418.007 84.1856 419.616 84.1856Z" fill="#2458A4"/>
<path d="M470.375 81.1513H433.348C432.144 81.1513 431.05 80.1759 430.905 78.9719L424.751 28.0184C424.606 26.8144 425.264 25.2705 427.198 25.2705L463.695 25.839L470.375 81.1513Z" fill="#2458A4"/>
<path d="M433.348 81.5601H470.375C470.492 81.5601 470.603 81.5099 470.681 81.4226C470.759 81.3353 470.796 81.2182 470.781 81.103L464.102 25.7908C464.078 25.5883 463.907 25.4341 463.703 25.4303L427.206 24.8618C426.056 24.8618 425.387 25.3467 425.024 25.7555C424.497 26.35 424.244 27.2158 424.346 28.0686L430.5 79.0221C430.667 80.4212 431.945 81.5601 433.348 81.5601ZM469.912 80.7407H433.346C432.345 80.7407 431.431 79.9251 431.31 78.9218L425.156 27.9683C425.08 27.344 425.259 26.7179 425.634 26.2961C425.998 25.8855 426.522 25.6793 427.196 25.6793L463.331 26.2423L469.912 80.7407Z" fill="#2458A4"/>
<path d="M505.281 81.1516H470.408L463.729 25.8394H498.602C499.806 25.8394 500.9 26.8148 501.045 28.0187L507.199 78.9723C507.343 80.1743 506.485 81.1516 505.281 81.1516Z" fill="#2458A4"/>
<path d="M470.408 81.5603H505.281C505.98 81.5603 506.606 81.2872 507.046 80.7893C507.49 80.2876 507.689 79.6243 507.604 78.922L501.45 27.9685C501.281 26.5676 500.003 25.4287 498.602 25.4287H463.729C463.612 25.4287 463.5 25.4789 463.422 25.5662C463.344 25.6535 463.307 25.7706 463.322 25.8858L470.001 81.198C470.027 81.4061 470.2 81.5603 470.408 81.5603ZM498.602 26.2481C499.603 26.2481 500.518 27.0637 500.638 28.067L506.792 79.0205C506.849 79.4869 506.721 79.9235 506.435 80.2467C506.153 80.5663 505.742 80.7428 505.281 80.7428H470.77L464.19 26.2481H498.602Z" fill="#2458A4"/>
<path d="M470.904 80.5827H433.877C432.674 80.5827 431.579 79.6073 431.434 78.4034L425.281 27.4499C425.136 26.2459 425.994 25.2705 427.198 25.2705H464.225L470.904 80.5827Z" fill="white"/>
<path d="M433.877 80.9915H470.904C471.021 80.9915 471.133 80.9414 471.211 80.8541C471.289 80.7667 471.326 80.6497 471.311 80.5345L464.632 25.2223C464.608 25.016 464.433 24.8618 464.225 24.8618H427.198C426.5 24.8618 425.874 25.1349 425.433 25.6329C424.989 26.1345 424.79 26.7978 424.876 27.5001L431.029 78.4536C431.197 79.8526 432.475 80.9915 433.877 80.9915ZM470.441 80.1741H433.876C432.874 80.1741 431.96 79.3584 431.839 78.3552L425.686 27.4016C425.628 26.9334 425.757 26.4986 426.043 26.1754C426.325 25.8558 426.736 25.6812 427.196 25.6812H463.861L470.441 80.1741Z" fill="#2458A4"/>
<path d="M506.621 80.5827H471.068L464.258 25.2705H499.811C501.04 25.2705 502.154 26.2459 502.303 27.4499L508.577 78.4034C508.724 79.6073 507.849 80.5827 506.621 80.5827Z" fill="white"/>
<path d="M471.068 80.9914H506.621C507.338 80.9914 507.979 80.7128 508.429 80.2056C508.871 79.7058 509.066 79.0481 508.98 78.3532L502.706 27.3996C502.533 25.9988 501.235 24.8599 499.81 24.8599H464.256C464.139 24.8599 464.028 24.91 463.95 24.9973C463.872 25.0847 463.837 25.2017 463.85 25.3188L470.659 80.631C470.687 80.8372 470.861 80.9914 471.068 80.9914ZM499.811 25.6792C500.837 25.6792 501.772 26.4967 501.896 27.5L508.17 78.4535C508.226 78.9124 508.102 79.3435 507.817 79.6649C507.526 79.9937 507.102 80.174 506.623 80.174H471.432L464.723 25.6792H499.811Z" fill="#2458A4"/>
<path d="M433.705 79.4233H470.748C470.904 79.4233 471.045 79.336 471.114 79.1967C471.183 79.0573 471.168 78.892 471.073 78.7675L465.78 71.765C465.706 71.6665 465.59 71.607 465.468 71.6033L437.651 70.5963C437.59 70.5926 437.526 70.6056 437.471 70.6316L433.415 72.4338C433.264 72.5007 433.17 72.6512 433.172 72.8165L433.292 79.022C433.3 79.245 433.482 79.4233 433.705 79.4233ZM469.925 78.604H434.106L433.998 73.0711L437.72 71.4175L465.247 72.4134L469.925 78.604Z" fill="#2458A4"/>
<path d="M427.763 19.4126L427.046 23.8735L433.705 79.0148L434.442 74.7248L427.763 19.4126Z" fill="white"/>
<path d="M427.763 19.4126L427.046 23.8735L433.705 79.0148L434.442 74.7248L427.763 19.4126Z" fill="#2458A4"/>
<path d="M470.731 79.0148C468.063 76.2911 464.463 74.7248 460.871 74.7248H434.442L427.763 19.4126H454.192C457.782 19.4126 461.382 20.9788 464.052 23.7025L470.731 79.0148Z" fill="white"/>
<path d="M470.731 79.4235C470.791 79.4235 470.852 79.4105 470.908 79.3826C471.066 79.3064 471.159 79.1392 471.136 78.9646L464.457 23.6523C464.446 23.5632 464.405 23.4795 464.342 23.4145C461.594 20.6109 457.893 19.002 454.19 19.002H427.761C427.644 19.002 427.533 19.0521 427.455 19.1394C427.377 19.2268 427.339 19.3438 427.354 19.459L434.034 74.7712C434.058 74.9775 434.232 75.1317 434.44 75.1317H460.869C464.355 75.1317 467.842 76.6496 470.438 79.299C470.518 79.3808 470.623 79.4235 470.731 79.4235ZM463.662 23.8901L470.189 77.939C467.55 75.624 464.212 74.3161 460.871 74.3161H434.806L428.226 19.8213H454.192C457.633 19.8213 461.077 21.3021 463.662 23.8901Z" fill="#2458A4"/>
<path d="M466.806 73.2345C466.893 73.2345 466.98 73.2066 467.053 73.1508C467.168 73.0635 467.229 72.9205 467.211 72.7755L461.432 24.9303C461.419 24.8263 461.367 24.7296 461.286 24.6628C459.34 23.0612 456.955 22.1787 454.573 22.1787H431.321C431.204 22.1787 431.092 22.2289 431.014 22.3162C430.936 22.4035 430.899 22.5206 430.914 22.6358L436.83 71.5958C436.854 71.802 437.029 71.9562 437.237 71.9562H460.489C462.571 71.9562 464.645 72.3761 466.651 73.2029C466.701 73.2233 466.753 73.2345 466.806 73.2345ZM460.643 25.1941L466.319 72.1959C464.414 71.4936 462.454 71.1387 460.489 71.1387H437.599L431.785 22.9981H454.575C456.719 22.9981 458.867 23.7765 460.643 25.1941Z" fill="#2458A4"/>
<path d="M470.575 78.1433C470.592 78.1433 470.609 78.1433 470.625 78.1396C470.85 78.1117 471.01 77.9092 470.982 77.6844L464.457 23.6504C464.446 23.5612 464.405 23.4776 464.342 23.4126C461.594 20.609 457.893 19 454.19 19H427.761C427.644 19 427.533 19.0502 427.455 19.1375C427.377 19.2248 427.339 19.3419 427.354 19.457L434.034 74.7693C434.058 74.9755 434.232 75.1297 434.44 75.1297H438.21C438.437 75.1297 438.619 74.9458 438.619 74.721C438.619 74.4943 438.437 74.3122 438.21 74.3122H434.803L428.222 19.8175H454.188C457.629 19.8175 461.074 21.2982 463.658 23.8863L470.166 77.781C470.194 77.9909 470.373 78.1433 470.575 78.1433Z" fill="#2458A4"/>
<path d="M470.748 79.4235H505.263C505.461 79.4235 505.632 79.2805 505.666 79.0835L506.403 74.7936C506.416 74.7193 506.409 74.6431 506.381 74.5744L489.487 31.7919C489.426 31.6359 489.275 31.5337 489.106 31.5337C488.937 31.5337 488.787 31.6377 488.725 31.7938L470.367 78.8643C470.319 78.9906 470.334 79.1318 470.41 79.2433C470.486 79.3566 470.612 79.4235 470.748 79.4235ZM504.917 78.6042H471.346L489.108 33.0628L505.577 74.7676L504.917 78.6042Z" fill="#2458A4"/>
<path d="M470.748 79.0148C472.758 76.2911 475.982 74.7248 479.571 74.7248H506L499.321 19.4126H472.892C469.303 19.4126 466.079 20.9788 464.069 23.7025L470.748 79.0148Z" fill="white"/>
<path d="M470.748 79.4232C470.876 79.4232 470.999 79.3637 471.077 79.2578C473.013 76.6382 476.108 75.1351 479.571 75.1351H506C506.117 75.1351 506.229 75.0849 506.307 74.9976C506.385 74.9103 506.422 74.7932 506.407 74.6781L499.728 19.3658C499.704 19.1596 499.529 19.0054 499.321 19.0054H472.892C469.167 19.0054 465.83 20.6292 463.74 23.4607C463.679 23.5443 463.651 23.6483 463.662 23.7524L470.341 79.0646C470.362 79.2318 470.48 79.3693 470.644 79.412C470.677 79.4195 470.713 79.4232 470.748 79.4232ZM505.538 74.3158H479.571C476.195 74.3158 473.139 75.6497 471.038 78.0075L464.494 23.8155C466.436 21.2758 469.486 19.821 472.892 19.821H498.959L505.538 74.3158Z" fill="#2458A4"/>
<path d="M473.178 73.2346C473.236 73.2346 473.293 73.2215 473.349 73.1974C475.148 72.3743 477.113 71.9563 479.189 71.9563H502.44C502.557 71.9563 502.669 71.9061 502.747 71.8188C502.825 71.7315 502.862 71.6144 502.847 71.4992L496.935 22.5411C496.909 22.3349 496.737 22.1807 496.529 22.1807H473.277C470.876 22.1807 468.686 23.0743 467.108 24.6963C467.023 24.7855 466.98 24.9081 466.995 25.0307L472.773 72.876C472.79 73.006 472.866 73.1194 472.979 73.1844C473.039 73.216 473.108 73.2346 473.178 73.2346ZM501.978 71.1388H479.189C477.189 71.1388 475.285 71.5067 473.518 72.2313L467.829 25.1292C469.241 23.7543 471.168 22.9981 473.275 22.9981H496.164L501.978 71.1388Z" fill="#2458A4"/>
<path d="M470.142 74.4089C470.159 74.4089 470.176 74.4089 470.192 74.4052C470.417 74.3774 470.577 74.1748 470.549 73.95L464.494 23.814C466.436 21.2723 469.486 19.8194 472.892 19.8194H498.957L505.411 73.8423C505.437 74.0671 505.64 74.2269 505.866 74.2009C506.091 74.1748 506.251 73.9705 506.225 73.7457L499.726 19.3624C499.702 19.1562 499.527 19.002 499.319 19.002H472.89C469.165 19.002 465.828 20.6258 463.738 23.4572C463.677 23.5409 463.649 23.6449 463.66 23.7489L469.734 74.0485C469.761 74.2566 469.938 74.4089 470.142 74.4089Z" fill="#2458A4"/>
<path d="M456.793 40.7453H437.333C436.943 40.7453 436.623 40.4257 436.623 40.0355V39.8665C436.623 39.4763 436.943 39.1567 437.333 39.1567H456.793C457.183 39.1567 457.503 39.4763 457.503 39.8665V40.0355C457.505 40.4257 457.185 40.7453 456.793 40.7453Z" fill="#2458A4"/>
<path d="M460.765 37.1149H441.305C440.915 37.1149 440.596 36.7953 440.596 36.4052V36.2361C440.596 35.8459 440.915 35.5264 441.305 35.5264H460.765C461.156 35.5264 461.475 35.8459 461.475 36.2361V36.4052C461.475 36.7953 461.156 37.1149 460.765 37.1149Z" fill="#2458A4"/>
<path d="M461.447 44.2624H441.987C441.597 44.2624 441.278 43.9428 441.278 43.5526V43.3836C441.278 42.9934 441.597 42.6738 441.987 42.6738H461.447C461.837 42.6738 462.157 42.9934 462.157 43.3836V43.5526C462.157 43.9428 461.837 44.2624 461.447 44.2624Z" fill="#2458A4"/>
<path d="M457.588 47.6676H438.128C437.738 47.6676 437.419 47.3481 437.419 46.9579V46.7888C437.419 46.3987 437.738 46.0791 438.128 46.0791H457.588C457.978 46.0791 458.298 46.3987 458.298 46.7888V46.9579C458.298 47.3481 457.978 47.6676 457.588 47.6676Z" fill="#2458A4"/>
<path d="M491.516 31.5543H473.685C473.295 31.5543 472.976 31.2348 472.976 30.8446V30.6755C472.976 30.2854 473.295 29.9658 473.685 29.9658H491.516C491.906 29.9658 492.226 30.2854 492.226 30.6755V30.8446C492.226 31.2348 491.906 31.5543 491.516 31.5543Z" fill="#2458A4"/>
<path d="M494.202 35.0709H476.708C476.318 35.0709 475.998 34.7514 475.998 34.3612V34.1921C475.998 33.802 476.318 33.4824 476.708 33.4824H494.202C494.593 33.4824 494.912 33.802 494.912 34.1921V34.3612C494.912 34.7532 494.593 35.0709 494.202 35.0709Z" fill="#2458A4"/>
<path d="M496.018 38.4767H474.516C474.126 38.4767 473.806 38.1571 473.806 37.767V37.5979C473.806 37.2077 474.126 36.8882 474.516 36.8882H496.018C496.408 36.8882 496.727 37.2077 496.727 37.5979V37.767C496.727 38.1571 496.408 38.4767 496.018 38.4767Z" fill="#2458A4"/>
</svg>
