<svg width="55" height="60" viewBox="0 0 55 60" fill="none" xmlns="http://www.w3.org/2000/svg">
<g id="Icon">
<path id="Fill 1" fill-rule="evenodd" clip-rule="evenodd" d="M25.1324 58.7643C22.983 59.1309 20.7934 59.5464 18.5596 59.759C16.3318 59.9689 14.0218 60.0048 11.7494 59.4267C10.1089 59.001 8.46461 58.1942 7.28138 56.878C6.24807 55.7228 5.55437 54.3164 5.19005 52.8789C4.8268 51.4456 4.60811 50.0601 4.40392 48.6408C4.01434 45.8168 3.81768 42.9916 3.57104 40.1847C3.35825 37.6923 3.05358 35.2064 2.6006 32.7769C2.31097 31.2175 1.9891 29.6608 1.58771 28.1304C1.48669 27.7476 1.38567 27.3654 1.27336 26.987C1.18578 26.601 1.07347 26.2237 0.973526 25.8404C0.747842 25.0851 0.508725 24.3341 0.234681 23.5912C-0.140921 22.6824 -0.0673054 22.7742 0.46735 23.4522C0.988034 24.1301 1.94504 25.4727 2.55224 27.2581C3.04122 28.8464 3.44369 30.452 3.76394 32.0704C4.06808 33.6921 4.30988 35.3234 4.49956 36.9612C4.88054 40.2351 5.05356 43.501 5.40445 46.7422C5.61938 48.6682 5.92782 50.664 6.43937 52.5358C6.71072 53.4511 7.08794 54.3277 7.60701 55.1007C8.12447 55.8736 8.78648 56.5339 9.55488 57.0466C11.2593 58.176 13.427 58.5571 15.5683 58.5807C17.7252 58.607 19.9035 58.3188 22.0744 57.9586L26.0943 57.2661C27.4231 57.0197 28.7487 56.7288 30.0668 56.4131C32.062 55.9273 34.0475 55.3755 36.0034 54.755C37.9555 54.1285 39.8867 53.4307 41.6976 52.5493C42.3967 52.2025 43.0764 51.8251 43.6933 51.3925C44.2935 50.9646 44.8975 50.4515 45.1334 49.9114C45.3864 49.2979 45.546 48.5287 45.6288 47.8045C45.711 47.0664 45.7341 46.3149 45.6954 45.5612C45.66 44.8978 45.5863 44.2509 45.4955 43.5864C45.1452 41.1203 44.8797 40.3881 45.229 39.6973C45.287 39.5464 45.322 39.3575 45.3789 39.2582C45.5068 38.9296 46.409 39.7751 46.8674 41.7162C47.0463 42.4269 47.1844 43.1537 47.2876 43.8929C47.38 44.6331 47.4219 45.3868 47.4208 46.1501C47.409 46.9145 47.3477 47.6886 47.2107 48.4691L47.0909 49.0553L46.9302 49.642C46.797 50.0376 46.7051 50.3892 46.4031 50.9056C45.8314 51.7451 45.15 52.2336 44.4837 52.6878C43.8104 53.1306 43.1221 53.4951 42.4262 53.8317C41.0329 54.4909 39.6106 55.0293 38.1769 55.5151C36.0469 56.2338 33.8879 56.8334 31.7143 57.3676C29.5435 57.906 27.3597 58.4208 25.1437 58.796L25.1324 58.7643Z" fill="#2458A4"/>
<path id="Fill 12" fill-rule="evenodd" clip-rule="evenodd" d="M19.2951 4.67327C18.1758 5.1172 17.0479 5.53536 15.9243 5.95997C15.5143 6.11564 15.1156 6.29762 14.7051 6.44953C13.2564 6.98418 11.8029 7.50273 10.3661 8.0567C9.72824 8.30148 9.09633 8.57042 8.48215 8.8517C7.70515 9.21726 6.89591 9.61073 6.19307 9.96985C6.04853 10.0573 5.85455 9.96448 5.92547 9.63059C6.00285 9.31871 6.30806 8.90752 6.76373 8.66489C8.38113 7.81729 10.0254 7.14468 11.7363 6.56924C12.7572 6.22515 13.7728 5.75491 14.7927 5.34749L18.1586 4.0114C18.848 3.73548 19.539 3.46118 20.222 3.17238C21.2575 2.7365 22.2999 2.3017 23.2993 1.80999C24.079 1.43262 24.8071 0.994059 25.5513 0.582336C25.7147 0.492154 25.8759 0.402509 26.0398 0.31179C26.6577 -0.013509 26.8899 -0.0510848 27.1274 0.0487595C27.1806 0.0707681 27.2434 0.0852617 27.2827 0.111565C27.41 0.188864 27.2477 0.479808 26.8345 0.816916C25.6051 1.8116 24.1521 2.58835 22.6604 3.25934C21.5557 3.76662 20.4283 4.23148 19.3064 4.69635L19.2951 4.67327Z" fill="#2458A4"/>
<path id="Fill 35" fill-rule="evenodd" clip-rule="evenodd" d="M46.4267 44.2487C46.4267 44.2487 52.9672 43.7774 54.4508 46.8087C56.5679 51.1336 40.6288 55.0652 36.2123 55.9267C31.1431 56.9155 32.221 56.7781 32.221 56.7781C32.221 56.7781 43.2381 53.8815 44.8098 51.7257C46.3815 49.5705 46.8103 45.3937 46.4267 44.2487Z" fill="#2458A4"/>
<path id="Fill 40" fill-rule="evenodd" clip-rule="evenodd" d="M8.85936 57.2807C9.37252 57.7391 9.96199 58.1294 10.6036 58.4177C10.8325 58.5374 11.0877 58.5857 11.3241 58.6893C12.1828 59.0092 13.085 59.1767 14.0248 59.1488C14.4429 59.1434 14.8647 59.0817 15.287 59.0355C15.8271 58.9706 16.3848 58.8798 16.9485 58.9609C17.1242 58.9861 17.0968 59.1482 16.9571 59.3168C16.8169 59.4827 16.5734 59.6738 16.2747 59.7205C15.2199 59.8987 14.0732 60.1096 12.8701 59.9341C12.1619 59.8171 11.4359 59.7333 10.7492 59.4896C9.99745 59.2304 9.28601 58.8594 8.64281 58.3978C8.4483 58.2507 8.25861 58.0972 8.06947 57.9447C7.89322 57.7762 7.70891 57.6173 7.53965 57.4428C7.01789 56.9205 6.59876 56.3 6.25755 55.6537C5.98136 55.1571 5.73741 54.6407 5.5977 54.0809C5.57083 53.9574 5.53698 53.8366 5.51602 53.7105C5.4639 53.2376 5.55686 53.0781 5.76535 52.9799C5.81478 52.9573 5.86368 52.9289 5.91258 52.916C6.07647 52.8752 6.23337 53.0508 6.32956 53.3395C6.39404 53.5553 6.49345 53.7636 6.56169 53.973L6.84379 54.5812C7.03938 54.98 7.25217 55.3745 7.52246 55.7374C7.89483 56.2925 8.34244 56.8185 8.87441 57.2598L8.85936 57.2807Z" fill="#2458A4"/>
<path id="Fill 4" fill-rule="evenodd" clip-rule="evenodd" d="M39.9654 12.3021C39.1647 12.0798 38.2572 12.1029 37.355 12.2312C36.4576 12.3874 35.521 12.6408 34.5968 12.9156C32.7451 13.4712 30.902 14.1121 29.0616 14.7638L25.0429 16.232C22.671 17.0726 20.2901 17.9003 17.8849 18.6647C15.4798 19.4286 13.0505 20.1377 10.5658 20.6584C9.46532 20.894 8.34711 21.0825 7.21761 21.207C6.08866 21.3229 4.93767 21.3804 3.78346 21.1855L3.22839 21.0733C3.04462 21.0213 2.86246 20.9536 2.67976 20.8935C2.49438 20.8436 2.32243 20.7357 2.14726 20.6455C2.06021 20.5977 1.97369 20.5542 1.88664 20.5016C1.80013 20.4329 1.70771 20.3776 1.62818 20.2944C1.45946 20.1447 1.32512 19.9439 1.22625 19.7303C1.14028 19.5113 1.0946 19.2794 1.09675 19.0577C1.09998 18.6127 1.237 18.2224 1.39981 17.8692C1.73888 17.1649 2.21657 16.5873 2.73188 16.0613C3.25311 15.54 3.82108 15.0735 4.4632 14.6951C4.86674 14.4605 5.10049 14.446 5.10962 14.5164C5.1252 14.5931 4.95272 14.7547 4.69909 15.0354C4.19829 15.584 3.26439 16.6163 2.51856 17.8917C2.19347 18.4414 2.04677 19.0802 2.22356 19.333C2.30094 19.471 2.43527 19.5859 2.74102 19.7142L2.93339 19.8178C3.00378 19.8457 3.07901 19.8671 3.15155 19.8924C3.302 19.9348 3.43365 20.0073 3.59808 20.0287C4.85331 20.3138 6.27673 20.2397 7.67006 20.0561C10.4761 19.6771 13.2767 18.9031 16.0752 18.1086C19.4244 17.1418 22.8263 15.8363 26.1949 14.6194C28.0482 13.9516 29.902 13.279 31.7774 12.6483C32.7134 12.3294 33.6581 12.0288 34.6118 11.7459C35.5597 11.4625 36.5366 11.2049 37.5608 11.0744C38.802 10.9214 40.1744 10.9858 41.3544 11.6477C41.939 11.98 42.4194 12.4583 42.8133 12.9822C43.1733 13.526 43.4667 14.1052 43.6612 14.7069C44.2582 16.5331 44.3496 18.4194 44.3845 20.2628C44.4124 22.1104 44.3361 23.9447 44.37 25.7515C44.3791 26.4542 44.4221 27.1483 44.4984 27.8289C44.5376 28.1698 44.593 28.5037 44.6644 28.8301C44.6961 28.9949 44.7504 29.1484 44.7918 29.3078L44.8251 29.4259L44.8837 29.5945C44.9218 29.7099 44.9562 29.8269 44.9852 29.9434C45.1002 30.1672 44.9439 30.4415 44.781 30.6074C44.594 30.7765 44.3667 30.8989 44.1002 30.9896C43.7257 31.1173 43.3689 31.1855 43.0126 31.2478C42.3017 31.3686 41.6016 31.4405 40.9036 31.5146C40.2937 31.5827 39.6967 31.6498 39.082 31.7186C36.816 31.9585 36.1884 32.1056 35.6731 32.1485C35.5511 32.1539 35.4098 32.207 35.3244 32.2129C35.2524 32.2172 35.2389 32.1802 35.2846 32.0932C35.3297 32.0036 35.4426 31.8732 35.6285 31.7331C36.0003 31.4507 36.6548 31.164 37.5011 30.9504C38.7574 30.6278 40.0401 30.5231 41.3018 30.3497C41.9299 30.2665 42.565 30.186 43.1491 30.0593C43.2964 30.0287 43.4366 29.9928 43.5672 29.9536C43.6236 29.9364 43.716 29.909 43.7359 29.8983C43.7284 29.9015 43.7386 29.894 43.7418 29.8918C43.7612 29.8763 43.7719 29.8709 43.7359 29.8033L43.7268 29.7839C43.7246 29.7807 43.7225 29.778 43.7064 29.719L43.6343 29.4554C43.5838 29.2783 43.5392 29.1017 43.5113 28.9288C43.4371 28.5788 43.3952 28.2358 43.3533 27.8912C43.2856 27.2079 43.2459 26.5283 43.2362 25.8583C43.2072 24.5153 43.241 23.1905 43.2464 21.8758C43.2528 19.9294 43.2356 17.9792 42.8595 16.1611C42.6682 15.2598 42.3732 14.3956 41.9025 13.702C41.4372 13.0042 40.7623 12.5463 39.9622 12.3305L39.9654 12.3021Z" fill="#2458A4"/>
<path id="Fill 6" fill-rule="evenodd" clip-rule="evenodd" d="M42.1966 37.7505C42.865 37.6147 43.5308 37.4537 44.195 37.2862L45.1842 37.0146L46.0606 36.751C46.0907 36.7435 46.1203 36.7328 46.1493 36.722C46.1665 36.6995 46.16 36.663 46.1606 36.6335L46.1498 36.481L46.1332 36.0913C46.1289 35.8556 46.1326 35.6103 46.153 35.3623L46.2224 34.686L46.3513 33.359C46.4292 32.4754 46.4883 31.5908 46.5071 30.7083C46.5297 29.9262 46.5034 29.1382 46.4061 28.3813C46.3406 27.8982 46.2374 27.4172 46.0735 27.0006C45.9902 26.7956 45.8817 26.6141 45.7656 26.5116C45.6544 26.4086 45.5254 26.3758 45.3234 26.4182C45.0891 26.4901 44.9843 26.3409 45.1821 26.0473C45.2874 25.927 45.5098 25.7209 45.9042 25.7708C46.296 25.8197 46.6313 26.1278 46.8054 26.4402C47.116 27.006 47.2385 27.5503 47.3454 28.0887C47.4459 28.6277 47.5028 29.1607 47.5372 29.6916C47.6184 30.7529 47.5394 31.8055 47.4464 32.8517C47.3846 33.4776 47.347 34.1148 47.3132 34.7547C47.2997 35.0794 47.2712 35.3972 47.2798 35.6753C47.2831 35.8213 47.2911 35.97 47.3019 36.123L47.3395 36.6764C47.3615 36.9749 47.3137 37.239 47.232 37.4982C46.9988 37.6308 46.7285 37.7301 46.4814 37.8461C46.1084 37.9787 45.7962 38.0801 45.4497 38.188C44.7715 38.399 44.0918 38.5938 43.4061 38.7705C42.5631 38.99 41.713 39.1843 40.8532 39.3475C40.1998 39.4651 39.5448 39.5783 38.8688 39.6293C38.5298 39.6519 38.1939 39.6803 37.8361 39.6578C37.4943 39.6519 37.0967 39.602 36.6937 39.3829C36.1751 39.0297 35.8404 38.5858 35.5464 38.1381C35.2552 37.6867 35.0139 37.2164 34.8151 36.7253C34.7265 36.5089 34.6373 36.2969 34.5712 36.0688C34.4497 35.6468 34.4186 35.3462 34.4621 35.1315C34.526 34.9114 34.6362 34.7826 34.8103 34.6822C34.8882 34.6371 34.964 34.5824 35.0387 34.5598C35.166 34.5206 35.2864 34.5861 35.403 34.7112C35.5185 34.8373 35.6604 35.0274 35.7356 35.2872C36.0059 36.0521 36.3492 36.8509 36.7694 37.5208C36.9742 37.8493 37.2289 38.144 37.4105 38.2632L37.4271 38.2766L37.4314 38.2798L37.4336 38.2814C37.3863 38.356 37.5394 38.1156 37.3283 38.4489L37.331 38.4457L37.3358 38.4392L37.3756 38.3866L37.447 38.2777L37.454 38.2771C37.4626 38.2766 37.4691 38.2804 37.475 38.2879C37.5174 38.2997 37.6082 38.3061 37.6716 38.3206C37.734 38.3399 37.8511 38.3297 37.9376 38.3373C38.0306 38.3421 38.1235 38.348 38.2315 38.3394C38.8414 38.3249 39.5136 38.2353 40.1783 38.1236C40.8452 38.0163 41.5174 37.8735 42.1869 37.7194L42.1966 37.7505Z" fill="#2458A4"/>
<path id="Fill 8" fill-rule="evenodd" clip-rule="evenodd" d="M34.3286 5.92499C34.1303 5.5444 33.903 5.17616 33.6123 4.88521C33.5033 4.78537 33.3711 4.7172 33.2593 4.62648C32.8595 4.31513 32.3689 4.11706 31.8192 4.13155C31.586 4.12511 31.3131 4.22442 31.0562 4.31943C30.7241 4.44182 30.4157 4.6254 30.0363 4.58783C29.7951 4.56636 29.6709 3.30864 30.1008 3.1739C30.4721 3.05796 30.8493 2.9608 31.2308 2.88886C31.4517 2.86525 31.6951 2.85022 31.924 2.86095C32.1604 2.8996 32.3942 2.91141 32.615 3.00535C33.1449 3.16907 33.6774 3.35803 34.1094 3.67742C34.5844 4.02956 34.9385 4.47886 35.2233 4.94104C35.4081 5.22232 35.5484 5.52293 35.6865 5.81763C35.9003 6.26586 36.032 6.73877 36.2002 7.19022C36.3222 7.54343 36.5022 7.87678 36.6301 8.23429C36.6591 8.31266 36.7015 8.38674 36.7182 8.46887C36.7875 8.77109 36.716 8.88274 36.384 8.98957C36.3087 9.01426 36.234 9.04271 36.1572 9.06096C35.8971 9.12054 35.6612 9.03305 35.5532 8.84678C35.2324 8.29495 35.0556 7.71843 34.8434 7.1505C34.6763 6.73716 34.5215 6.31632 34.3018 5.9427L34.3286 5.92499Z" fill="#2458A4"/>
<path id="Fill 10" fill-rule="evenodd" clip-rule="evenodd" d="M7.58325 14.0922C7.73586 14.5184 7.8933 14.9457 8.06256 15.3703C8.12328 15.5249 8.20872 15.6693 8.26836 15.8255C8.47578 16.3784 8.68427 16.9362 8.89114 17.4875C8.98303 17.7339 9.09211 17.9749 9.20495 18.21C9.34842 18.5138 9.52037 18.8096 9.56389 19.1542C9.59452 19.3663 8.84171 19.3732 8.67674 19.0399C8.3898 18.4371 8.10447 17.8321 7.92393 17.1632C7.81162 16.7655 7.59185 16.3978 7.42581 16.0118C7.24312 15.5877 7.06848 15.1578 6.89707 14.7262C6.79282 14.4589 6.68858 14.1921 6.58541 13.9258C6.42636 13.5221 6.28933 13.1077 6.12437 12.7089C6.00078 12.3965 5.82668 12.1077 5.69665 11.7969C5.66602 11.7292 5.62948 11.6648 5.60691 11.5934C5.52093 11.3299 5.5564 11.2279 5.76919 11.1109C5.81701 11.0846 5.8643 11.054 5.91427 11.033C6.08299 10.9622 6.25924 11.0282 6.36671 11.1967C6.69449 11.6944 6.90298 12.2473 7.12006 12.813C7.28073 13.235 7.44193 13.6596 7.60313 14.0826L7.58325 14.0922Z" fill="#2458A4"/>
<path id="Fill 15" fill-rule="evenodd" clip-rule="evenodd" d="M29.3299 8.50697C29.145 7.94924 28.957 7.38936 28.7533 6.83324C28.6792 6.63033 28.5701 6.44299 28.4981 6.23847C28.2493 5.51325 27.9994 4.78482 27.7512 4.06122C27.6367 3.74021 27.49 3.42994 27.3396 3.1245C27.1472 2.73318 26.8963 2.35474 26.8732 1.89202C26.8597 1.60805 28.1526 1.51197 28.3315 1.94516C28.6652 2.73264 28.965 3.55233 29.1622 4.43483C29.2804 4.96196 29.5566 5.44508 29.7538 5.9545C29.9693 6.51545 30.1735 7.08177 30.375 7.65078L30.7431 8.7029C30.9333 9.23272 31.094 9.7765 31.2971 10.2993C31.4492 10.7084 31.6689 11.0884 31.8403 11.4964C31.878 11.5866 31.9322 11.6687 31.9591 11.7637C32.0671 12.1132 32.0096 12.2474 31.6915 12.395C31.619 12.4288 31.5475 12.4675 31.4733 12.4938C31.2208 12.5813 30.9725 12.4922 30.8393 12.2742C30.4395 11.6263 30.1757 10.9118 29.9011 10.1759C29.7017 9.62566 29.5008 9.07222 29.3003 8.51985L29.3299 8.50697Z" fill="#2458A4"/>
<path id="Fill 17" fill-rule="evenodd" clip-rule="evenodd" d="M25.1399 6.44203C25.1281 6.43988 25.1227 6.43505 25.098 6.43773L24.7799 6.52684C24.5617 6.58804 24.3441 6.66533 24.1259 6.73351C23.6901 6.88274 23.2533 7.04646 22.8164 7.22038C22.4967 7.35029 22.1931 7.51347 21.8696 7.64284C20.7315 8.09697 19.559 8.53339 18.3651 8.89841C17.8363 9.06911 17.307 9.23981 16.7826 9.40891C16.1109 9.62953 15.4231 9.86518 14.7009 9.85015C14.2571 9.83995 14.6133 8.51997 15.3388 8.36215C16.6547 8.05403 17.9524 7.69062 19.3097 7.31056C20.1243 7.08887 20.9008 6.66856 21.7073 6.3293C22.595 5.9573 23.5053 5.59496 24.4526 5.3067L24.7379 5.22189C24.8685 5.17948 25.0066 5.14459 25.142 5.11023L25.9421 4.90625L26.2801 5.8435C26.5821 6.71633 26.8846 7.59292 27.1839 8.45931C27.4204 9.11206 27.7111 9.73581 27.9534 10.3896C28.0071 10.5335 28.0689 10.6725 28.1141 10.8212C28.2785 11.373 28.228 11.5776 27.9179 11.7676C27.8475 11.8105 27.7788 11.8621 27.7046 11.8937C27.4537 11.999 27.1963 11.824 27.027 11.4573C26.523 10.3666 26.1028 9.18828 25.6724 7.98908L25.2774 6.87522L25.1786 6.59555L25.1538 6.52523C25.1506 6.51557 25.1533 6.52094 25.1528 6.51879L25.1544 6.51342C25.1565 6.50537 25.1571 6.49463 25.1565 6.48121C25.1522 6.47853 25.1453 6.47692 25.1372 6.47638L25.1399 6.44203Z" fill="#2458A4"/>
<path id="Fill 19" fill-rule="evenodd" clip-rule="evenodd" d="M10.6499 14.5977C10.7246 14.8521 10.7998 15.1081 10.874 15.3604C10.9009 15.4544 10.9519 15.5387 10.9766 15.6337C11.0653 15.9692 11.1475 16.3111 11.2448 16.6477C11.2877 16.7969 11.3511 16.9392 11.4162 17.0803C11.5005 17.2596 11.6155 17.4335 11.5999 17.6504C11.5919 17.783 10.8643 17.856 10.7767 17.6671C10.6209 17.3197 10.485 16.9574 10.421 16.5511C10.3829 16.3073 10.2442 16.0959 10.1572 15.864C10.0572 15.6117 9.98576 15.3454 9.90355 15.0835C9.85573 14.9213 9.80737 14.7582 9.75954 14.5977C9.68109 14.3545 9.62951 14.1006 9.54622 13.8617C9.47905 13.6765 9.37749 13.5053 9.30979 13.3211C9.29528 13.2803 9.27432 13.2428 9.26411 13.2004C9.23295 13.0415 9.27217 12.9776 9.42048 12.903C9.45433 12.8858 9.48711 12.8665 9.5215 12.8531C9.63542 12.8074 9.75578 12.8418 9.84444 12.9347C10.1045 13.2111 10.2652 13.5235 10.4017 13.8483C10.5156 14.0845 10.5763 14.3416 10.6698 14.5891L10.6499 14.5977Z" fill="#2458A4"/>
<path id="Fill 21" fill-rule="evenodd" clip-rule="evenodd" d="M11.0732 14.6995C11.1398 14.9136 11.207 15.1294 11.2731 15.342C11.2967 15.4209 11.3397 15.4918 11.3612 15.5717C11.4364 15.8546 11.5138 16.1456 11.588 16.4253C11.624 16.5509 11.6761 16.6706 11.7303 16.7892C11.7997 16.94 11.8948 17.0861 11.8824 17.2675C11.8765 17.3781 11.2774 17.4355 11.2038 17.275C11.0737 16.9808 10.9619 16.6759 10.9082 16.3361C10.8765 16.1327 10.761 15.955 10.6868 15.7623C10.603 15.5513 10.5401 15.3302 10.4687 15.1128C10.4251 14.978 10.3816 14.8422 10.3392 14.7096C10.2682 14.5078 10.2183 14.2974 10.1414 14.1004C10.0796 13.9474 9.98882 13.8078 9.92595 13.657C9.91198 13.6237 9.89371 13.5926 9.8835 13.5577C9.85072 13.4262 9.87974 13.372 9.99849 13.3032C10.0254 13.2882 10.0517 13.2705 10.0786 13.2576C10.1704 13.2152 10.2709 13.2394 10.3483 13.3145C10.5761 13.5373 10.7212 13.7982 10.8459 14.0698C10.9474 14.2679 11.0065 14.4842 11.0893 14.6925L11.0732 14.6995Z" fill="#2458A4"/>
<path id="Fill 23" fill-rule="evenodd" clip-rule="evenodd" d="M38.8165 35.1956C38.947 35.1618 39.0583 35.1253 39.0964 34.9557C39.1034 34.8923 39.0792 34.8322 39.0502 34.7463L39.018 34.5482C38.9959 34.4924 38.9589 34.4291 38.9051 34.3657C38.802 34.2326 38.6413 34.107 38.4677 34.0394C38.313 33.976 38.1459 33.9932 38.0529 34.0458C37.9406 34.1247 37.9347 34.1988 37.824 34.4157C37.7874 34.4763 37.5827 34.5021 37.3732 34.4242C37.2689 34.3856 37.1625 34.3169 37.0814 34.2208C37.0142 34.1183 36.9707 33.9792 37.0126 33.8386C37.0894 33.5842 37.2743 33.327 37.5118 33.1756C37.7428 33.0286 37.9954 32.9577 38.2136 32.947C38.6585 32.9089 39.0486 33.0221 39.3753 33.2476C39.5714 33.3796 39.7584 33.538 39.9465 33.7275C40.1496 33.9524 40.2302 34.1478 40.335 34.3679C40.5252 34.8805 40.4403 35.5676 40.0781 36.0024C39.8659 36.2735 39.587 36.4592 39.2936 36.573C38.8498 36.7604 38.2673 36.7593 37.8288 36.5285C37.4951 36.3503 37.1528 36.077 37.0169 35.6476C36.9868 35.5596 36.9261 35.4586 36.9256 35.3728C36.9341 35.0609 37.0427 34.9551 37.4183 34.9433C37.5037 34.9401 37.5886 34.9358 37.6735 34.9406C37.9594 34.9626 38.1948 35.0689 38.2861 35.1591C38.3194 35.1929 38.35 35.2332 38.3785 35.2531C38.4065 35.2627 38.4306 35.2681 38.4516 35.2708C38.4919 35.2767 38.5258 35.2692 38.5456 35.2616C38.5886 35.2429 38.5897 35.2262 38.5897 35.2262C38.5908 35.223 38.5833 35.2412 38.623 35.2332C38.6805 35.2203 38.7477 35.2004 38.7907 35.1688L38.8165 35.1956Z" fill="#2458A4"/>
<path id="Fill 25" fill-rule="evenodd" clip-rule="evenodd" d="M38.5639 35.2981C38.6273 35.274 38.6424 35.1489 38.6107 35.034C38.5978 34.9911 38.5559 34.9744 38.5414 34.9293C38.4946 34.7667 38.4344 34.5434 38.3162 34.4167C38.2662 34.3571 38.1985 34.3362 38.1647 34.3378C38.1367 34.3389 38.1034 34.4253 38.0314 34.3925C38.0035 34.3764 37.874 34.2369 37.7536 34.0039C37.637 33.7865 37.6118 33.5079 37.7456 33.4295C37.7988 33.3877 37.8648 33.3801 37.9277 33.364C37.9949 33.3501 38.0852 33.3286 38.1572 33.32C38.3006 33.3136 38.4296 33.3211 38.5376 33.349C38.7552 33.4022 38.9207 33.5047 39.0411 33.6443C39.1797 33.8107 39.3936 33.8724 39.5268 34.0431C39.6741 34.2229 39.7923 34.4328 39.8767 34.6819C39.9277 34.8349 39.9621 35.0077 39.9562 35.2079C39.9664 35.5171 39.7488 35.8338 39.551 36.0029C39.4033 36.1409 39.2781 36.3197 39.1303 36.4335C39.0975 36.4576 39.0674 36.4968 39.0309 36.5124C38.9669 36.5397 38.9175 36.5338 38.8622 36.4227C38.831 36.3497 38.8063 36.2864 38.7816 36.2128C38.7617 36.1591 38.7418 36.0942 38.7224 36.0249L38.6735 35.8473C38.651 35.7523 38.6429 35.6642 38.6375 35.5526C38.6311 35.4688 38.6257 35.3947 38.6209 35.3314C38.6101 35.2305 38.6166 35.2079 38.6193 35.165C38.6596 35.0093 38.673 34.9089 38.6612 34.8708C38.6709 34.8918 38.7676 35.0571 38.8133 35.1054C38.8347 35.136 38.8665 35.1677 38.8955 35.1924C38.9089 35.2085 38.9272 35.224 38.9497 35.2369C39.0422 35.2793 38.8724 35.1881 38.5543 35.3013C38.5543 35.3013 38.5467 35.3035 38.5639 35.2981Z" fill="#2458A4"/>
<path id="Fill 27" fill-rule="evenodd" clip-rule="evenodd" d="M40.2469 39.1491C40.6934 39.1201 41.1507 39.06 41.6047 38.9773C41.7713 38.951 41.9298 38.8855 42.0964 38.8549C42.6843 38.7411 43.2764 38.6091 43.8626 38.4518C44.1227 38.3815 44.378 38.2881 44.6284 38.1925C44.9486 38.0642 45.2726 37.9274 45.6337 37.9075C45.8535 37.8914 45.7686 38.586 45.4236 38.7465C44.788 39.0149 44.1147 39.2291 43.4054 39.3633C42.9809 39.4401 42.5693 39.6156 42.1415 39.7262C41.6724 39.8486 41.1931 39.943 40.7095 40.0198C40.4092 40.0584 40.1099 40.0976 39.8052 40.1143C39.5736 40.1239 39.3441 40.1449 39.1082 40.1261C38.875 40.1234 38.6418 40.11 38.4054 40.0767C38.2222 40.0654 38.04 40.0332 37.8536 39.9919C37.7606 39.9715 37.6655 39.9602 37.5725 39.9318C37.4828 39.8947 37.3936 39.8523 37.3044 39.8088C37.227 39.7691 37.1443 39.7412 37.0712 39.6913C36.8224 39.4674 36.7885 39.3461 36.8939 39.1636C36.918 39.1223 36.939 39.0788 36.968 39.0428C37.0669 38.9242 37.2496 38.9027 37.414 38.9559C37.918 39.0965 38.3823 39.1094 38.9411 39.1674C39.1491 39.1754 39.3581 39.1888 39.5795 39.1738C39.796 39.1738 40.019 39.1529 40.2426 39.1266L40.2469 39.1491Z" fill="#2458A4"/>
<path id="Fill 29" fill-rule="evenodd" clip-rule="evenodd" d="M7.19927 23.951C6.99615 23.9714 6.79142 23.9923 6.59046 24.0122C6.5163 24.0181 6.4443 24.0395 6.36907 24.0406C6.10363 24.0476 5.83764 24.0417 5.57434 24.0304C5.45183 24.0288 5.34382 24.0272 5.22346 24.025C5.07462 24.0229 4.92147 24.0224 4.77747 23.9671C4.68934 23.9365 4.84571 23.7046 4.99939 23.7019C5.28149 23.7003 5.56145 23.6793 5.85376 23.6863C6.02894 23.6895 6.20626 23.6402 6.38304 23.6101C6.5781 23.5816 6.77692 23.5521 6.97358 23.5237C7.09556 23.5022 7.21861 23.4813 7.3379 23.4603C7.52167 23.4244 7.70759 23.3943 7.88706 23.3433C8.02731 23.3047 8.16057 23.2504 8.29813 23.2064C8.32876 23.1973 8.35724 23.1844 8.3884 23.1774C8.50447 23.1522 8.54799 23.1748 8.59636 23.2773C8.6071 23.3009 8.62 23.3234 8.62806 23.3471C8.65654 23.427 8.62483 23.507 8.54799 23.5564C8.31909 23.6971 8.07352 23.8227 7.80378 23.8613C7.60657 23.9016 7.40399 23.93 7.20195 23.9622L7.19927 23.951Z" fill="#2458A4"/>
<path id="Fill 31" fill-rule="evenodd" clip-rule="evenodd" d="M34.0379 16.8927C33.8273 16.9201 33.6156 16.948 33.4076 16.9749C33.3308 16.9845 33.2572 17.0087 33.1798 17.0178C32.9074 17.0505 32.6344 17.0849 32.3646 17.1321C32.2453 17.1536 32.1277 17.1847 32.0116 17.217C31.8633 17.2594 31.7166 17.3109 31.5586 17.3179C31.4608 17.3243 31.5135 17.0559 31.6785 16.9856C31.974 16.8734 32.2728 16.7736 32.5892 16.7231C32.7784 16.6936 32.9627 16.6152 33.1508 16.5637C33.3571 16.5057 33.5683 16.4622 33.7795 16.4209C33.91 16.3951 34.0411 16.3688 34.1696 16.3441C34.3673 16.3039 34.5634 16.2647 34.759 16.2255C34.9111 16.1938 35.054 16.1342 35.2029 16.094C35.2357 16.0843 35.2668 16.0714 35.3007 16.0655C35.4253 16.043 35.471 16.0709 35.5172 16.1879C35.528 16.2142 35.5403 16.2405 35.5484 16.2674C35.5753 16.3581 35.5382 16.4456 35.4554 16.495C35.2066 16.6335 34.946 16.7558 34.6677 16.8052C34.4608 16.838 34.2507 16.8718 34.0411 16.9051L34.0379 16.8927Z" fill="#2458A4"/>
<path id="Fill 33" fill-rule="evenodd" clip-rule="evenodd" d="M16.9135 21.9597C16.7749 21.9731 16.6341 21.9876 16.4992 22.001C16.445 22.0096 16.4052 22.016 16.3493 22.0251C16.1704 22.0412 15.9909 22.0579 15.8136 22.0853C15.7351 22.0971 15.6583 22.1169 15.582 22.1368C15.4847 22.1631 15.3891 22.1969 15.2848 22.1996C15.2209 22.2028 15.2531 22.0171 15.3611 21.9704C15.5557 21.8968 15.7534 21.8335 15.9619 21.8056C16.0866 21.7895 16.208 21.7396 16.3321 21.7084C16.4681 21.6735 16.6072 21.6488 16.7459 21.6247C16.8324 21.6102 16.9194 21.5952 17.0027 21.5807C17.1338 21.5571 17.2606 21.534 17.3896 21.5104C17.489 21.491 17.5831 21.4518 17.6798 21.425C17.7013 21.4191 17.7217 21.4105 17.7437 21.4068C17.8254 21.3923 17.8549 21.4116 17.8867 21.4937L17.9076 21.5495C17.9259 21.6129 17.9017 21.6735 17.8474 21.7074C17.6846 21.8018 17.5121 21.8834 17.3284 21.9124C17.1935 21.9307 17.0538 21.9495 16.9157 21.9682L16.9135 21.9597Z" fill="#2458A4"/>
<path id="Fill 38" fill-rule="evenodd" clip-rule="evenodd" d="M22.3193 17.2896C20.2312 17.9778 18.1291 18.6359 16.0023 19.2248C15.2253 19.4379 14.4532 19.6714 13.6681 19.8571C12.2807 20.177 10.8771 20.4481 9.44835 20.6097C8.02386 20.7632 6.55745 20.8432 5.09212 20.4948C4.76649 20.4395 4.45053 20.2941 4.13135 20.1867C3.82775 20.0122 3.5161 19.9011 3.22271 19.6156C2.93684 19.3461 2.73803 18.936 2.72191 18.5441C2.69504 18.1517 2.78209 17.7915 2.90191 17.4684C3.22056 16.6374 3.75253 15.9755 4.32748 15.3808C4.91372 14.7957 5.55853 14.2739 6.3221 13.9035C6.83257 13.6952 6.79925 13.9094 6.53166 14.2599C6.26729 14.6233 5.81592 15.231 5.24204 15.8735C4.72458 16.4329 4.29739 17.0781 4.00239 17.6809C3.86322 17.9826 3.79283 18.2848 3.81486 18.4877C3.84495 18.6821 3.91051 18.7991 4.13296 18.9521C4.66332 19.3069 5.39088 19.4814 6.1351 19.5672C6.88308 19.6564 7.67136 19.6649 8.46609 19.6263C10.3753 19.542 12.3495 19.0331 14.2726 18.5436C16.3919 17.9982 18.495 17.3508 20.5874 16.6696C21.8744 16.2466 23.1602 15.814 24.4386 15.362C26.3762 14.6797 28.3241 13.9899 30.237 13.2738C31.7233 12.714 33.1639 12.1138 34.6529 11.5904C34.9791 11.4723 35.2983 11.3532 35.6336 11.2469C36.8834 10.8765 37.3316 10.92 37.6534 11.0542C37.7276 11.088 37.8205 11.1148 37.8678 11.1524C38.0258 11.2802 37.5546 11.547 36.6991 11.9474C35.4159 12.4923 34.0796 13.0017 32.7298 13.5471C31.3633 14.0581 29.9786 14.5756 28.5912 15.0941C26.5219 15.8553 24.43 16.5961 22.3311 17.3154L22.3193 17.2896Z" fill="#2458A4"/>
</g>
</svg>
