<svg width="40" height="40" viewBox="0 0 40 40" fill="none" xmlns="http://www.w3.org/2000/svg">
<g id="chatbubbles">
<path id="Vector" d="M4.72183 30.4039C4.72183 30.4094 4.72183 30.4195 4.71558 30.4336C4.71792 30.4242 4.71948 30.4141 4.72183 30.4039ZM34.3671 31.6875C34.1099 31.682 33.8559 31.629 33.6179 31.5313L29.182 29.9586L29.1492 29.9453C29.0524 29.905 28.9485 29.8848 28.8437 29.8859C28.7471 29.8861 28.6513 29.9035 28.5609 29.9375C28.4531 29.9781 27.482 30.343 26.4632 30.6227C25.9109 30.7742 23.9882 31.2688 22.4453 31.2688C18.5015 31.2688 14.814 29.7531 12.0632 27.0008C10.7194 25.6652 9.65385 24.0764 8.92822 22.3262C8.20259 20.576 7.83132 18.6993 7.83589 16.8047C7.83586 15.8175 7.9422 14.8332 8.15308 13.8688C8.8398 10.6953 10.6585 7.8086 13.2742 5.74376C15.9573 3.6391 19.2696 2.49675 22.6796 2.50001C26.7585 2.50001 30.5593 4.06251 33.3828 6.88907C36.0515 9.56641 37.514 13.0867 37.5023 16.8008C37.5 19.5606 36.6759 22.2572 35.1351 24.5469L35.1203 24.5688L35.0625 24.6469C35.0492 24.6649 35.0359 24.682 35.0234 24.7L35.0117 24.7211C34.9806 24.774 34.9524 24.8285 34.9273 24.8844L36.157 29.2547C36.2114 29.435 36.2408 29.6219 36.2445 29.8102C36.2448 30.0568 36.1964 30.301 36.1022 30.529C36.008 30.7569 35.8697 30.9639 35.6953 31.1383C35.5209 31.3127 35.3138 31.451 35.0859 31.5452C34.858 31.6395 34.6138 31.6878 34.3671 31.6875Z" fill="white"/>
<path id="Vector_2" d="M23.4274 33.2336C23.3467 33.0766 23.2331 32.9388 23.0944 32.8296C22.9556 32.7204 22.795 32.6424 22.6235 32.6008C22.1719 32.4812 21.6454 32.5016 21.243 32.4719C17.4441 32.2077 13.8691 30.5773 11.1789 27.882C8.78734 25.5038 7.23303 22.413 6.75004 19.075C6.64066 18.3141 6.64066 18.125 6.64066 18.125C6.64062 17.8711 6.56326 17.6233 6.41889 17.4144C6.27453 17.2056 6.06999 17.0457 5.8325 16.9559C5.595 16.8662 5.33581 16.8509 5.08942 16.9121C4.84302 16.9733 4.62109 17.108 4.45316 17.2984C4.45316 17.2984 3.83754 17.9687 3.54691 18.6414C2.73182 20.5194 2.38422 22.5671 2.53389 24.6089C2.68356 26.6507 3.32605 28.6257 4.40629 30.3648C4.60941 30.7031 4.60941 30.8594 4.5641 31.2109C4.35082 32.3133 3.97738 34.2578 3.78285 35.2664C3.71844 35.5935 3.7424 35.9318 3.85226 36.2466C3.96211 36.5613 4.1539 36.8411 4.40785 37.057L4.44379 37.0875C4.77973 37.3543 5.19603 37.4997 5.62504 37.5C5.86634 37.5002 6.1053 37.4527 6.32816 37.3602L10.5086 35.7469C10.6526 35.6922 10.8116 35.6922 10.9555 35.7469C12.6016 36.3594 14.3149 36.6844 15.9383 36.6844C17.9611 36.6863 19.9594 36.2418 21.7907 35.3828C22.2172 35.1828 22.8844 34.9656 23.275 34.5141C23.4229 34.3389 23.5161 34.1243 23.5432 33.8967C23.5702 33.6691 23.53 33.4385 23.4274 33.2336Z" fill="white"/>
</g>
</svg>
