<svg width="61" height="71" viewBox="0 0 61 71" fill="none" xmlns="http://www.w3.org/2000/svg">
<g id="Icon">
<path id="Stroke 1" fill-rule="evenodd" clip-rule="evenodd" d="M58.563 15.6809C58.6207 15.2158 59.0443 14.8852 59.5095 14.9429C61.8143 15.2276 58.2634 18.1017 58.563 15.6809Z" fill="#2458A4" stroke="#2458A4" stroke-width="1.08361"/>
<path id="Fill 3" fill-rule="evenodd" clip-rule="evenodd" d="M43.397 13.3362C43.4547 12.871 43.8783 12.5404 44.3429 12.5981C46.6482 12.8828 43.0974 15.7569 43.397 13.3362Z" fill="#2458A4"/>
<path id="Stroke 5" fill-rule="evenodd" clip-rule="evenodd" d="M37.5669 1.74461C37.6246 1.27944 38.0476 0.948854 38.5128 1.00653C40.8182 1.29122 37.2674 4.16537 37.5669 1.74461Z" fill="#2458A4" stroke="#2458A4" stroke-width="1.08361"/>
<path id="Fill 7" fill-rule="evenodd" clip-rule="evenodd" d="M33.2488 70.1357C30.6377 70.2976 28.0222 70.4235 25.3955 70.4421C24.4378 70.4489 23.4746 70.4532 22.517 70.4179C19.1851 70.2858 15.8123 70.2138 12.4593 69.9701C10.9714 69.8566 9.47294 69.753 7.99741 69.5669C7.0497 69.451 6.10075 69.3064 5.15738 69.1067C4.69096 68.9839 4.21587 68.8841 3.76186 68.7104C3.31095 68.5194 2.85881 68.3438 2.44325 68.074C1.91792 67.7596 2.05809 67.7162 2.5704 67.798C3.06472 67.932 3.99631 67.9314 5.01969 68.1863C6.85805 68.6 8.77208 68.7923 10.6861 68.9473C12.6039 69.0974 14.5359 69.1917 16.4803 69.2847C18.8006 69.3964 21.2474 69.3393 23.6247 69.3821C26.2278 69.3933 28.8477 69.2916 31.4626 69.1266C33.0721 69.0242 34.6834 68.9095 36.2904 68.7699C38.7261 68.5615 41.1741 68.3395 43.5868 68.0592C45.4624 67.8421 47.2927 67.5518 49.1435 67.2919C49.5509 67.233 49.9498 67.176 50.3603 67.117C51.8867 66.9272 52.3854 66.9632 52.7458 67.2541C52.8276 67.3205 52.9343 67.3844 52.9852 67.4551C53.157 67.6932 52.5547 67.9649 51.4458 68.1516C48.1536 68.7154 44.658 69.134 41.1363 69.49C38.5208 69.7549 35.8873 69.9738 33.2544 70.1636L33.2488 70.1357Z" fill="#2458A4"/>
<path id="Fill 9" fill-rule="evenodd" clip-rule="evenodd" d="M34.2007 49.2097C32.812 48.2849 31.3229 47.4371 29.7952 46.9229C28.3135 46.4081 26.6866 46.5204 25.1727 47.0916C24.0618 47.501 23.0242 48.1417 22.0089 48.8233C21.1108 49.4268 20.2412 50.0935 19.3654 50.7696C18.4853 51.4531 17.5966 52.1105 16.7524 52.8033C15.0499 54.1914 13.4274 55.6874 11.8421 57.228C10.4391 58.5969 9.05971 60.024 7.72312 61.4363C6.01314 63.2641 4.38504 65.1651 2.69801 66.9973C2.18198 67.5753 2.05235 67.3533 2.25579 66.6679C2.46853 65.9931 2.99634 64.824 3.94095 63.7076C5.63666 61.7563 7.44029 59.9049 9.25198 58.0914C11.0674 56.271 12.9355 54.4711 14.9413 52.8002C16.1341 51.7961 17.4037 50.8118 18.6336 49.833C19.8747 48.8438 21.1554 47.8421 22.5596 47.0129C23.338 46.565 24.1573 46.1718 25.0207 45.8667C25.8934 45.5832 26.8119 45.4096 27.7448 45.3897C28.6801 45.3941 29.6042 45.5752 30.4756 45.8859C31.3185 46.1997 32.1192 46.5874 32.8995 47.0097C34.8185 48.0536 36.5663 49.3499 38.2223 50.7299C40.7119 52.8455 43.0223 55.1422 45.3438 57.3701C47.1449 59.1055 48.9479 60.7671 50.7547 62.4479C51.1541 62.8157 51.5454 63.1767 51.9474 63.5476C53.421 64.9406 53.8378 65.4318 53.9302 65.9758C53.9513 66.0992 53.996 66.2443 53.9867 66.3405C53.96 66.6623 53.1928 66.2654 52.054 65.2916C48.6788 62.407 45.3971 59.098 42.0262 55.884C39.5155 53.5048 37.0191 51.1051 34.1877 49.2376L34.2007 49.2097Z" fill="#2458A4"/>
<path id="Fill 11" fill-rule="evenodd" clip-rule="evenodd" d="M0.0285306 55.4313C0.016126 53.9055 0.0229485 52.3959 0.0583016 50.8639C0.0762883 50.3057 0.0632634 49.7469 0.099857 49.1911C0.217701 47.2293 0.476337 45.2924 0.659925 43.3604C0.744276 42.5026 0.785211 41.6398 0.807539 40.7883C0.819324 39.6936 0.829868 38.6007 0.924142 37.5072C0.958875 37.1661 1.1772 37.204 1.40854 37.4905C1.63865 37.7758 1.901 38.3148 1.93264 38.958C2.02753 41.2404 1.76517 43.4999 1.47925 45.7414C1.30062 47.0842 1.26775 48.4866 1.20697 49.8585C1.14432 51.3626 1.14246 52.8852 1.14867 54.4054C1.15735 55.3407 1.16789 56.2766 1.20511 57.2101C1.25783 58.6242 1.32419 60.0464 1.47863 61.4419C1.59647 62.5273 1.80239 63.5798 2.00644 64.6367C2.0542 64.8687 2.10072 65.0975 2.14848 65.3308C2.30726 66.2009 2.275 66.4912 2.01016 66.7325C1.95124 66.7871 1.89542 66.8553 1.83402 66.8925C1.63493 67.0159 1.36513 66.6934 1.18216 66.0552C0.664266 64.1585 0.388264 62.1043 0.222042 60.0433C0.0973761 58.5113 0.0396947 56.9694 0 55.4344L0.0285306 55.4313Z" fill="#2458A4"/>
<path id="Fill 13" fill-rule="evenodd" clip-rule="evenodd" d="M54.1173 54.8691C54.09 53.4512 54.0286 52.0284 53.943 50.6038C53.912 50.0834 53.8407 49.5661 53.8115 49.0451C53.6961 47.2043 53.6614 45.3299 53.6924 43.4841C53.7092 42.663 53.703 41.8387 53.7005 41.0256C53.7023 40.5033 53.6794 39.9798 53.7054 39.457C53.7383 38.9348 53.7948 38.4131 53.8822 37.8946C53.9393 37.5709 54.1247 37.6205 54.33 37.9008C54.531 38.1812 54.7865 38.6916 54.8454 39.2895C54.9223 41.4076 54.9304 43.5065 54.8665 45.6326C54.8268 46.906 55.0148 48.2122 55.1177 49.5239C55.2294 50.9623 55.3224 52.408 55.3881 53.8556C55.4309 54.7463 55.4526 55.64 55.4694 56.5325C55.4923 57.8853 55.4564 59.246 55.4092 60.5932C55.3658 61.6414 55.3633 62.6784 55.2455 63.7309C55.2244 63.9623 55.1921 64.1911 55.1524 64.4237C55.1059 64.6383 55.0687 64.8157 55.0123 64.9596C54.9515 65.1029 54.8795 65.2114 54.815 65.2989C54.6823 65.4719 54.5452 65.5513 54.3697 65.591C54.2897 65.609 54.2085 65.6394 54.1371 65.6412C53.9027 65.6462 53.7904 65.2499 53.8059 64.6513C53.9579 62.8936 54.0987 61.041 54.1291 59.1387C54.1564 57.729 54.1402 56.3012 54.0844 54.8728L54.1173 54.8691Z" fill="#2458A4"/>
<path id="Fill 15" fill-rule="evenodd" clip-rule="evenodd" d="M44.5127 39.4825C45.7196 38.719 46.9204 37.9455 48.0939 37.1399C48.5224 36.8459 48.9237 36.5172 49.3461 36.2188C50.0898 35.6916 50.8272 35.1558 51.5213 34.587C51.8655 34.3011 52.2035 34.0096 52.5056 33.7088C52.6445 33.5711 52.8107 33.3714 52.8715 33.2833C52.9267 33.2027 52.9906 33.0842 52.9261 32.9893C52.8988 32.9508 52.874 32.9087 52.8436 32.8714L52.6662 32.6333C52.5397 32.4739 52.428 32.3021 52.304 32.1402C52.0565 31.8158 51.8103 31.4921 51.5647 31.1702C50.9221 30.3558 50.2895 29.5545 49.632 28.7209C49.2276 28.2123 50.2237 28.407 51.0989 29.2636C51.8766 30.011 52.6308 30.7745 53.3547 31.5739C53.4446 31.675 53.5382 31.7724 53.6183 31.8816L53.9284 32.2847C54.0859 32.4888 54.1957 32.7046 54.2217 32.9496C54.2329 33.1946 54.1771 33.4359 54.0692 33.661C54.0195 33.7751 53.9482 33.8768 53.8881 33.9829C53.8335 34.0642 53.7876 34.1237 53.7355 34.1901C53.635 34.3147 53.5327 34.4295 53.4291 34.5374C53.2219 34.752 53.0123 34.9443 52.7933 35.1235C51.7476 35.9658 50.7205 36.8304 49.6438 37.6088C48.4598 38.4579 47.2504 39.2611 46.0372 40.0537L43.7888 41.5026C42.6544 42.2338 41.4996 42.9421 40.3863 43.6845C39.521 44.262 38.7129 44.8903 37.8774 45.4925C37.6932 45.6252 37.5202 45.7654 37.3304 45.8932C36.6333 46.3745 36.343 46.4185 36.0025 46.2194C35.9256 46.1741 35.8381 46.1375 35.7761 46.0848C35.5739 45.9161 35.729 45.5155 36.2059 45.1142C37.6281 43.9308 39.2382 42.8646 40.8614 41.8059C42.069 41.0244 43.2821 40.2392 44.4922 39.4564L44.5127 39.4825Z" fill="#2458A4"/>
<path id="Fill 17" fill-rule="evenodd" clip-rule="evenodd" d="M9.85624 41.6584C8.46631 40.813 7.08629 39.9471 5.72303 39.0472C5.2256 38.7178 4.71019 38.4164 4.22269 38.0672C3.3643 37.4439 2.51644 36.8212 1.72193 36.0248C1.62331 35.9231 1.52531 35.8164 1.42918 35.6992C1.31692 35.5671 1.17923 35.3723 1.09363 35.1974C1.00866 35.0145 0.955943 34.8197 0.971448 34.6212C0.987574 34.4215 1.10356 34.2572 1.21892 34.0965C1.52407 33.7405 1.67789 33.6072 1.8776 33.4155L2.45628 32.8784C3.13977 32.2538 3.82513 31.6274 4.50304 31.0078C5.35833 30.2046 6.23286 29.4051 7.04784 28.592C7.29469 28.3402 7.39393 28.4611 7.3195 28.8091C7.24507 29.1576 6.97403 29.7109 6.52747 30.2319C5.74784 31.1672 4.94278 32.0702 4.1247 32.9522C3.71597 33.3926 3.2632 33.7876 2.84268 34.2013C2.31487 34.7595 2.27145 34.6243 2.31239 34.8166C2.32603 34.8458 2.31114 34.8383 2.36324 34.9059C2.40604 34.9648 2.46062 35.0256 2.5121 35.0852C2.6225 35.2055 2.74096 35.3252 2.86997 35.4412C3.12551 35.675 3.40647 35.8983 3.6955 36.1147C4.27541 36.5483 4.89192 36.9545 5.49851 37.3651C6.83634 38.2663 8.21077 39.134 9.60009 39.9769C10.4554 40.4954 11.3156 41.009 12.1833 41.507C13.4995 42.2606 14.8212 43.0222 16.1603 43.7113C17.2016 44.2466 18.2622 44.695 19.3178 45.1713C19.5504 45.2755 19.7836 45.3667 20.015 45.4777C20.8783 45.8796 21.0954 46.1184 21.1215 46.5234C21.1277 46.6152 21.1481 46.7126 21.1376 46.7939C21.1078 47.0587 20.6439 47.1151 19.9803 46.8732C18.0178 46.147 16.0598 45.1583 14.1216 44.1145C12.6826 43.3386 11.2592 42.5161 9.84198 41.6881L9.85624 41.6584Z" fill="#2458A4"/>
<path id="Fill 19" fill-rule="evenodd" clip-rule="evenodd" d="M12.2943 20.249C15.1722 19.8582 18.0445 19.5909 20.9205 19.3527C21.9693 19.2665 23.015 19.1487 24.0638 19.0792C27.7635 18.8286 31.47 18.7077 35.1765 18.6444C36.8213 18.6196 38.4748 18.5787 40.111 18.5787C41.1617 18.5836 42.2185 18.5688 43.276 18.6661C43.8051 18.7108 44.3335 18.7666 44.8632 18.859C45.3935 18.957 45.9213 19.0594 46.4566 19.3056C46.7971 19.465 46.9044 19.687 46.8306 19.7218C46.7568 19.7701 46.5664 19.7261 46.291 19.7379C45.739 19.736 44.7534 19.8526 43.5744 19.8291C39.3841 19.7143 35.1157 19.8545 30.8274 19.9506C28.259 20.0164 25.5933 20.2558 22.9734 20.4629C20.0931 20.6893 17.2115 20.9449 14.3467 21.2934C12.5889 21.5155 10.8151 21.7431 9.12061 22.14C8.96369 22.1816 8.80305 22.2188 8.65171 22.2666C8.57605 22.2895 8.49666 22.3106 8.42595 22.3366C8.3478 22.3646 8.27958 22.385 8.24918 22.3999C8.16856 22.4328 8.07986 22.4681 8.0228 22.5376C7.98497 22.617 7.99117 22.7094 7.98621 22.8037C7.9707 23.427 7.98993 24.1297 8.00295 24.794C8.03769 26.1411 8.08606 27.4883 8.14437 28.8267C8.23802 30.9082 8.40672 32.9457 8.51774 35.0079C8.54317 35.462 8.56798 35.9079 8.59341 36.3656C8.65171 38.0675 8.55558 38.6276 8.19771 38.9849C8.1177 39.0649 8.03583 39.1697 7.95644 39.2125C7.68354 39.3458 7.51669 38.6803 7.42862 37.4523C7.15944 33.7997 6.87972 29.9264 6.729 26.0252L6.66574 23.8388L6.66016 23.2831V22.9997L6.66636 22.635C6.66574 22.4582 6.71288 22.287 6.75443 22.1264C6.77986 21.9571 6.86979 21.8138 6.97771 21.6823C7.16936 21.4069 7.5415 21.2674 7.84355 21.1371C8.65606 20.8531 9.3625 20.7247 10.1024 20.5771C10.8337 20.4406 11.56 20.3252 12.2856 20.2167L12.2943 20.249Z" fill="#2458A4"/>
<path id="Fill 21" fill-rule="evenodd" clip-rule="evenodd" d="M47.7298 26.6914L47.7689 28.8851C47.7751 29.1525 47.8197 29.4161 47.8253 29.6834C47.8408 30.6268 47.8551 31.5732 47.9078 32.516C47.9308 32.934 47.9891 33.3508 48.0517 33.7608C48.1429 34.2867 48.2601 34.8108 48.19 35.3585C48.1702 35.5284 47.9494 35.5359 47.7013 35.4273C47.455 35.3182 47.1617 35.0949 47.0798 34.7947C46.8795 33.718 46.7554 32.6301 46.7622 31.518C46.7691 30.8531 46.6295 30.1783 46.5712 29.5048C46.5086 28.7648 46.4633 28.0224 46.4397 27.2781L46.3938 25.9049C46.3721 25.2109 46.3504 24.515 46.3293 23.8266C46.3082 23.2919 46.191 22.7684 46.1947 22.2344C46.1929 22.1172 46.1786 22.0025 46.1854 21.884C46.2133 21.4442 46.2996 21.3053 46.5563 21.2191C46.6152 21.1993 46.6729 21.1732 46.73 21.162C46.9216 21.1267 47.086 21.3072 47.1759 21.6198C47.2907 22.0837 47.4606 22.5557 47.5152 23.0351C47.5785 23.514 47.6337 24.0021 47.6696 24.4908C47.7006 25.2208 47.7317 25.9552 47.7627 26.6877L47.7298 26.6914Z" fill="#2458A4"/>
<path id="Fill 23" fill-rule="evenodd" clip-rule="evenodd" d="M29.0341 11.1544C28.6042 11.1754 27.9034 11.4645 27.2987 11.8025C26.6741 12.1424 26.0557 12.5393 25.4498 12.9592C25.0057 13.2644 24.592 13.6148 24.1541 13.9336C22.601 15.0544 21.066 16.2303 19.5545 17.4391C18.8834 17.975 18.2315 18.5425 17.5821 19.1007C17.1573 19.4499 16.7349 19.8072 16.2871 20.1396C15.8318 20.4696 15.3859 20.7915 14.7837 21.0048C14.5734 21.0675 14.4444 21.0135 14.4494 20.9267C14.4456 20.8343 14.5213 20.7071 14.5877 20.5539C14.734 20.2463 14.9846 19.7675 15.4448 19.3637C17.0506 17.8901 18.7705 16.4449 20.5797 15.0879C21.6719 14.2859 22.7015 13.3165 23.8266 12.4891C25.0764 11.5922 26.3137 10.6824 27.8376 10.0621C28.0727 9.96786 28.3289 9.89281 28.5999 9.83885C28.7481 9.82458 28.8759 9.78923 29.039 9.79916C29.199 9.80722 29.3671 9.8128 29.4937 9.8587C30.0537 9.99577 30.478 10.2544 30.8991 10.5099C32.1526 11.3076 33.1921 12.3005 34.2359 13.2619C35.041 14.0149 35.8584 14.7275 36.6344 15.5003C36.8037 15.6715 36.9829 15.8278 37.1405 16.0132C37.7278 16.6967 37.824 16.9913 37.6615 17.366C37.6236 17.4516 37.5951 17.5471 37.5467 17.6178C37.3805 17.8572 36.9742 17.7214 36.4905 17.2946C35.0515 16.0349 33.6945 14.578 32.2158 13.2724C31.6694 12.7918 31.1137 12.3173 30.5418 11.9154C30.2565 11.715 29.9663 11.5439 29.6841 11.3956C29.5544 11.3497 29.4031 11.2623 29.2939 11.2412L29.1277 11.1934C29.0967 11.1984 29.0676 11.1972 29.0365 11.1891L29.0341 11.1544Z" fill="#2458A4"/>
<path id="Fill 25" fill-rule="evenodd" clip-rule="evenodd" d="M31.4193 28.1236L27.8635 28.242L26.5679 28.3177C25.0433 28.3773 23.5132 28.3723 21.9862 28.3965C21.3071 28.4132 20.6273 28.4306 19.9531 28.4473C19.0842 28.4616 18.2264 28.5267 17.3171 28.3016C17.0294 28.2185 17.136 28.1192 17.3841 28.0343C17.6155 27.9679 18.0199 27.8333 18.5018 27.829C20.2322 27.7576 21.9838 27.5908 23.7533 27.5486C24.8126 27.5127 25.9104 27.3985 26.9927 27.3241L30.5677 27.1095L32.7689 26.9811C33.8804 26.9098 34.9987 26.867 36.102 26.782C36.9604 26.7194 37.7971 26.586 38.6499 26.5048C38.8379 26.4856 39.0208 26.4564 39.2106 26.4434C39.9189 26.4093 40.1472 26.4862 40.2967 26.7963C40.3308 26.867 40.3754 26.9377 40.3953 27.009C40.4598 27.2497 40.1763 27.4531 39.6752 27.5288C38.1848 27.7645 36.5995 27.8798 35.0005 27.9797C33.814 28.0591 32.6164 28.0882 31.423 28.1503L31.4193 28.1236Z" fill="#2458A4"/>
<path id="Fill 27" fill-rule="evenodd" clip-rule="evenodd" d="M30.3573 32.9482C29.9064 32.9464 29.4549 32.9445 29.0058 32.942C28.8402 32.942 28.6771 32.9712 28.5109 32.9656C27.9254 32.9476 27.3387 32.9079 26.755 32.8781C26.4964 32.8608 26.2365 32.8732 25.9797 32.8775C25.6504 32.8899 25.3173 32.9259 24.9911 32.8304C24.7883 32.7739 25.0748 32.0749 25.442 32.0563C26.0976 32.0321 26.7476 32.029 27.4137 32.0991C27.8131 32.1413 28.2237 32.0675 28.6312 32.0446C29.0809 32.0284 29.5336 32.0117 29.9846 31.9949C30.2649 31.9856 30.5452 31.9757 30.8237 31.9664C31.2473 31.9472 31.6753 31.9509 32.0971 31.9168C32.4252 31.8914 32.7464 31.8107 33.0739 31.7599C33.1465 31.7481 33.2166 31.7289 33.2898 31.7239C33.5602 31.7071 33.6452 31.7791 33.6941 32.0669C33.7053 32.1326 33.7208 32.1977 33.7264 32.2635C33.7444 32.4862 33.6321 32.6666 33.4423 32.7256C32.8773 32.898 32.2943 32.9216 31.6989 32.9439C31.2542 32.9532 30.8064 32.9625 30.3598 32.9724L30.3573 32.9482Z" fill="#2458A4"/>
<path id="Fill 29" fill-rule="evenodd" clip-rule="evenodd" d="M34.0539 70.6241C31.9142 70.755 29.7719 70.8561 27.6265 70.9274C26.8438 70.9478 26.0617 70.9968 25.2777 70.9999C22.504 71.003 19.7601 70.8709 17.0088 70.7568C15.7876 70.7122 14.5614 70.6675 13.3501 70.6228C11.7958 70.5466 10.221 70.5726 8.68779 70.2048C8.20897 70.1037 8.2865 69.9908 8.70887 69.8513C8.92099 69.78 9.2187 69.7012 9.57596 69.6168C9.75458 69.579 9.94871 69.5288 10.1521 69.5089C10.355 69.4971 10.5696 69.4915 10.7922 69.5015C13.948 69.61 17.0969 69.7192 20.2923 69.829C22.2051 69.9145 24.1786 69.8302 26.1237 69.7434C28.2629 69.6497 30.4089 69.5561 32.5517 69.4103C33.8704 69.3216 35.1908 69.2286 36.5076 69.1151C38.5029 68.9451 40.5087 68.7708 42.4816 68.5252C44.0161 68.3361 45.5084 68.0526 47.0149 67.7965C47.3467 67.7388 47.6692 67.6693 48.0048 67.6185C49.2471 67.4287 49.6546 67.4653 49.9746 67.8095C50.0472 67.8876 50.1396 67.9627 50.1874 68.0446C50.3474 68.3224 49.871 68.6325 48.9661 68.8391C46.2805 69.4463 43.4095 69.8085 40.5217 70.1081C38.3769 70.3289 36.2161 70.4969 34.0595 70.657L34.0539 70.6241Z" fill="#2458A4"/>
<path id="Fill 32" fill-rule="evenodd" clip-rule="evenodd" d="M12.1887 42.5686L9.47274 40.8816C9.14402 40.6732 8.79669 40.4971 8.47045 40.2849C7.32303 39.532 6.18987 38.7561 5.09268 37.9219C4.59153 37.5745 4.1152 37.1794 3.63328 36.8116C3.33309 36.5567 3.01429 36.3341 2.73146 36.0506L2.30351 35.6388C2.16706 35.4912 2.04177 35.3281 1.91896 35.1699C1.76763 34.9683 1.91214 34.9044 2.17016 34.9435C2.43251 34.9838 2.77612 35.1178 3.14516 35.3491C3.77965 35.7653 4.46625 36.1356 5.13485 36.5251C5.79044 36.9382 6.41563 37.4052 7.05074 37.8747C7.79316 38.4633 8.66582 38.9217 9.48825 39.4296C10.3901 39.9922 11.2975 40.5523 12.2111 41.0999L13.9061 42.1022C14.7683 42.5947 15.6298 43.1014 16.5105 43.5467C17.1958 43.8916 17.9029 44.1614 18.6031 44.4572C18.757 44.5223 18.9133 44.5757 19.0652 44.6476C19.6352 44.9032 19.7593 45.0954 19.7239 45.4595C19.7158 45.542 19.7177 45.6276 19.6991 45.7026C19.642 45.947 19.3015 46.0524 18.8562 45.9154C17.5388 45.5004 16.2506 44.8628 14.9798 44.1818C14.0352 43.677 13.106 43.1324 12.1745 42.5971L12.1887 42.5686Z" fill="#2458A4"/>
<path id="Fill 34" fill-rule="evenodd" clip-rule="evenodd" d="M43.2595 39.7548C44.1296 39.2109 44.9973 38.6626 45.8508 38.0957C46.1628 37.8886 46.4505 37.6498 46.7613 37.4432C47.856 36.712 48.9495 35.9783 50.0057 35.2011C50.4622 34.8432 50.928 34.4897 51.3479 34.1045C51.6195 33.8589 51.8757 33.5991 52.1139 33.3367C52.3483 33.0898 52.5716 32.7574 52.5945 32.5689C52.589 32.5013 52.682 32.3046 52.9257 32.505C53.0312 32.616 53.0839 32.8399 53.0603 33.0595C53.0411 33.2827 52.953 33.5054 52.8346 33.715C52.3986 34.4451 51.8788 35.0467 51.3324 35.6198C50.7599 36.1618 50.1229 36.6177 49.4711 37.0494C48.6741 37.5437 47.936 38.1677 47.1539 38.7079C46.2955 39.3002 45.4222 39.8702 44.5483 40.4365L42.9314 41.4747C42.1182 42.0026 41.2871 42.5099 40.4945 43.0545C39.878 43.4775 39.3136 43.9538 38.7231 44.4028C38.5929 44.5015 38.4725 44.6088 38.3367 44.7024C37.8411 45.0578 37.6154 45.0652 37.3239 44.8469C37.2575 44.7979 37.1843 44.7551 37.1291 44.7006C36.9505 44.5256 37.0268 44.1833 37.3561 43.8769C38.3386 42.9745 39.4816 42.1936 40.6396 41.4239C41.5042 40.8607 42.3732 40.2944 43.2402 39.7288L43.2595 39.7548Z" fill="#2458A4"/>
<path id="Fill 36" fill-rule="evenodd" clip-rule="evenodd" d="M14.0797 53.8285L12.425 55.2035L10.8155 56.635L9.68603 57.7291C8.34695 59.0018 7.00167 60.2758 5.73579 61.6279C5.17448 62.2276 4.62992 62.8497 4.1145 63.4811C3.44776 64.2893 2.83373 65.1421 2.07643 65.8746C1.84446 66.1053 1.72166 65.9589 1.73096 65.6141C1.74523 65.2736 1.86369 64.7092 2.22839 64.2173C3.57925 62.5259 5.02934 60.9208 6.61279 59.4229C7.5574 58.5261 8.47162 57.5257 9.45034 56.622C9.98002 56.1171 10.5227 55.6265 11.0747 55.1452C11.6174 54.654 12.1787 54.1839 12.74 53.7137C13.4204 53.1239 14.1368 52.575 14.8377 52.0112C15.9144 51.1745 17.0202 50.3645 18.1311 49.5892C18.9746 48.9584 19.833 48.3804 20.6883 47.7763C20.8837 47.6541 21.0765 47.5338 21.2725 47.4109C22.0168 46.9762 22.2897 46.9011 22.5732 47.0444C22.6377 47.0766 22.7133 47.1027 22.7623 47.1442C22.9279 47.2844 22.7053 47.6032 22.1992 47.9599C20.6802 48.9851 19.1042 50.0848 17.5239 51.2006C16.9477 51.631 16.3702 52.0627 15.7922 52.495L14.0965 53.8452L14.0797 53.8285Z" fill="#2458A4"/>
<path id="Fill 38" fill-rule="evenodd" clip-rule="evenodd" d="M6.6466 35.0685C6.6559 34.599 6.6652 34.1289 6.67389 33.6606C6.67637 33.49 6.65404 33.3213 6.65838 33.1508C6.67575 32.5498 6.7204 31.9481 6.7235 31.3496C6.72723 31.0835 6.70614 30.8181 6.68443 30.5563C6.6528 30.2202 6.5945 29.8859 6.63481 29.5435C6.65652 29.3302 7.22403 29.5435 7.29536 29.9343C7.39894 30.6252 7.45848 31.3192 7.42188 32.0213C7.39956 32.4412 7.47336 32.8723 7.48515 33.2984C7.49693 33.7654 7.50872 34.2356 7.52112 34.7038C7.53104 34.9916 7.54097 35.28 7.55089 35.5666C7.57446 36.0013 7.58873 36.4386 7.64951 36.8666C7.70347 37.1978 7.79898 37.5172 7.87093 37.8397C7.88706 37.911 7.90318 37.9805 7.91249 38.0531C7.93978 38.3222 7.8852 38.4171 7.6799 38.5077C7.63276 38.5288 7.58686 38.5536 7.54035 38.5685C7.38281 38.6193 7.22775 38.5294 7.12603 38.3378C6.80413 37.7721 6.70614 37.1339 6.67203 36.4957C6.63791 36.0218 6.63481 35.5442 6.62427 35.0704L6.6466 35.0685Z" fill="#2458A4"/>
</g>
</svg>
