<svg width="72" height="60" viewBox="0 0 72 60" fill="none" xmlns="http://www.w3.org/2000/svg">
<g id="Icon">
<path id="Fill 1" fill-rule="evenodd" clip-rule="evenodd" d="M25.9976 44.2435C26.5148 45.0429 27.1298 45.8027 27.8921 46.4053C28.1656 46.6305 28.4496 46.8422 28.7571 47.0191C29.7836 47.7381 30.9684 48.2398 32.1978 48.5801L33.0306 48.7645C33.3097 48.8202 33.5967 48.8227 33.877 48.8511C34.5991 48.9613 35.3267 48.887 36.0617 49.0151C36.2913 49.0504 36.2703 49.171 36.0809 49.3189C35.8922 49.4556 35.529 49.6815 35.0873 49.7093C34.6968 49.7545 34.3052 49.7409 33.9123 49.7217C33.5206 49.6877 33.1247 49.6852 32.7398 49.5868C32.3556 49.5008 31.9701 49.4136 31.5828 49.3269C31.2072 49.1945 30.8348 49.0547 30.466 48.9099C30.0242 48.7385 29.601 48.4948 29.1543 48.3042C28.7212 48.0845 28.3085 47.8148 27.894 47.5636C27.0525 46.9077 26.2358 46.1999 25.6288 45.317L25.3343 44.9241L25.0874 44.4984C24.9328 44.2095 24.7391 43.9428 24.6277 43.6334C24.4279 43.1799 24.2305 42.7258 24.1173 42.2419C23.9589 41.7723 23.8921 41.2829 23.8122 40.7997C23.717 40.0467 23.6514 39.295 23.7194 38.5358C23.7312 38.3693 23.7188 38.2011 23.7702 38.0389C23.9211 37.4301 24.0276 37.2513 24.2478 37.1783C24.2979 37.1616 24.3493 37.1356 24.3963 37.1319C24.5516 37.1183 24.6234 37.3911 24.6011 37.8162C24.5287 39.0753 24.5739 40.3567 24.8882 41.604C25.0311 42.0582 25.1363 42.5259 25.351 42.9566C25.515 43.4082 25.773 43.8147 26.0161 44.2299L25.9976 44.2435Z" fill="#2458A4"/>
<path id="Fill 3" fill-rule="evenodd" clip-rule="evenodd" d="M29.8222 35.9186C29.8222 35.9093 29.8235 35.9 29.8247 35.8908L29.8099 35.9972C29.813 35.9774 29.8179 35.9576 29.826 35.939C29.8123 35.9706 29.7987 36.0027 29.7851 36.0349C29.7913 36.0219 29.7981 36.0089 29.8074 35.9978C29.7864 36.0244 29.7653 36.0516 29.7443 36.0788C29.7523 36.0689 29.7616 36.0597 29.7715 36.0516C29.7443 36.0727 29.7177 36.0937 29.6905 36.1147C29.7022 36.1055 29.7152 36.098 29.7294 36.0918C29.6973 36.1055 29.6651 36.1191 29.6329 36.1327C29.6515 36.1246 29.67 36.1203 29.6898 36.1172L29.5828 36.1321C29.6131 36.1277 29.6434 36.129 29.6731 36.1327L29.5661 36.1184C29.6137 36.1246 29.6589 36.1382 29.7028 36.1562C29.6707 36.1432 29.6391 36.1296 29.6069 36.116C29.6533 36.1358 29.6979 36.1611 29.7381 36.1921C29.7109 36.171 29.6836 36.15 29.6564 36.129C29.6836 36.15 29.7084 36.1735 29.7294 36.2001C29.7084 36.1729 29.6874 36.1457 29.6669 36.1184C29.6793 36.1352 29.6905 36.1531 29.6985 36.1723L29.6577 36.0758C29.6638 36.0894 29.6676 36.1036 29.67 36.1184C29.6651 36.0832 29.6601 36.0473 29.6558 36.0114C29.657 36.0232 29.657 36.0343 29.6558 36.0461C29.6608 36.0102 29.6657 35.9749 29.67 35.939C29.6682 35.9502 29.6657 35.9607 29.6614 35.9706C29.675 35.939 29.6886 35.9068 29.7022 35.8747C29.6973 35.8864 29.6905 35.8976 29.683 35.9075C29.7041 35.8802 29.7251 35.8536 29.7455 35.8264C29.7344 35.8413 29.7208 35.8536 29.7065 35.8654C29.7338 35.8437 29.761 35.8233 29.7876 35.8023C29.7616 35.8221 29.7325 35.8375 29.7022 35.8499C29.7344 35.8369 29.7666 35.8233 29.7981 35.8097C29.7734 35.8202 29.7474 35.8289 29.7208 35.8369C29.6682 35.8493 29.623 35.8734 29.584 35.9087C29.5401 35.9372 29.5061 35.9749 29.4807 36.0219C29.451 36.0677 29.4355 36.1172 29.4331 36.171C29.4207 36.2249 29.4232 36.2781 29.4399 36.3313C29.4535 36.3635 29.4671 36.3956 29.4807 36.4272C29.516 36.4878 29.5642 36.5361 29.6249 36.572C29.7195 36.6221 29.829 36.6431 29.9349 36.6122C29.998 36.5936 30.0586 36.567 30.1186 36.5398C30.1427 36.5293 30.1656 36.5169 30.1867 36.5021C30.2281 36.4724 30.277 36.4396 30.3117 36.3987C30.3791 36.3189 30.4038 36.2799 30.4391 36.1809C30.47 36.0906 30.4682 35.9687 30.4397 35.8784C30.4057 35.772 30.3581 35.6971 30.2838 35.6142C30.2708 35.5987 30.256 35.5851 30.2405 35.5721C30.1984 35.5375 30.1557 35.5028 30.1099 35.4731C30.0444 35.4304 29.9695 35.4007 29.8977 35.3735C29.8235 35.345 29.7461 35.3364 29.6676 35.3277C29.5952 35.3197 29.5178 35.3296 29.4479 35.3475C29.3959 35.3611 29.3446 35.3815 29.2988 35.41C29.2945 35.4125 29.2901 35.4156 29.2858 35.4187C29.2555 35.4409 29.2239 35.4638 29.1961 35.4886C29.1887 35.4954 29.1819 35.5028 29.1757 35.5102C29.1082 35.5913 29.0792 35.6377 29.0445 35.7398C29.0253 35.7967 29.0204 35.8592 29.0179 35.9186C29.0154 35.9737 29.0272 36.0256 29.0525 36.0733C29.0686 36.1234 29.0965 36.1667 29.1355 36.2026C29.172 36.2422 29.2153 36.27 29.2654 36.2861C29.313 36.3115 29.3644 36.3226 29.4201 36.3208C29.4553 36.3158 29.4912 36.3109 29.5265 36.3065C29.5952 36.2874 29.6546 36.2527 29.7047 36.2026C29.7251 36.176 29.7461 36.1488 29.7672 36.1215C29.8037 36.059 29.8222 35.991 29.8222 35.9186Z" fill="#2458A4"/>
<path id="Fill 5" fill-rule="evenodd" clip-rule="evenodd" d="M29.0011 40.7632C28.9987 40.7576 28.9962 40.7521 28.9937 40.7465L29.0346 40.8424C29.0203 40.8071 29.0098 40.7712 29.0042 40.7329C29.0086 40.7688 29.0135 40.804 29.0185 40.8399C29.0148 40.8121 29.0141 40.7842 29.0178 40.7564L29.003 40.8634C29.0067 40.8381 29.0135 40.8133 29.0228 40.7898C29.0092 40.822 28.9956 40.8535 28.9826 40.8857C28.9912 40.8653 29.0018 40.8467 29.0154 40.8282C28.9943 40.8554 28.9733 40.8826 28.9523 40.9098C28.9671 40.8913 28.9832 40.8746 29.0018 40.8597C28.9752 40.8808 28.9479 40.9018 28.9207 40.9228C28.9411 40.9067 28.9628 40.8937 28.9869 40.8838C28.9547 40.8975 28.9226 40.9105 28.8904 40.9241C28.917 40.9135 28.9442 40.9061 28.9721 40.9024C28.9368 40.9067 28.9009 40.9117 28.865 40.9166C28.8941 40.9129 28.9232 40.9129 28.9516 40.9166C28.9164 40.9117 28.8805 40.9067 28.8452 40.9024C28.8755 40.9061 28.9046 40.9142 28.9325 40.9259C28.9003 40.9123 28.8687 40.8987 28.8366 40.8857C28.8644 40.8975 28.8898 40.9129 28.9139 40.9309C28.8867 40.9098 28.8595 40.8888 28.8328 40.8678C28.8607 40.89 28.8854 40.9148 28.9077 40.9432C28.8867 40.916 28.8656 40.8888 28.8446 40.8616C28.8712 40.8968 28.8922 40.9346 28.9096 40.9748C28.896 40.9432 28.8823 40.9111 28.8687 40.8789C28.883 40.9142 28.8935 40.9494 28.8991 40.9866L28.8848 40.8795C28.891 40.9296 28.8898 40.9785 28.8836 41.028C28.8879 40.9921 28.8929 40.9562 28.8978 40.921C28.8879 40.9866 28.8694 41.0497 28.8434 41.1109L28.8842 41.0144C28.8539 41.0849 28.8155 41.1499 28.7697 41.2112C28.7908 41.1839 28.8118 41.1567 28.8328 41.1295C28.8007 41.1709 28.766 41.2087 28.7264 41.2427C28.6522 41.3058 28.6089 41.432 28.6089 41.5267C28.6089 41.6257 28.6528 41.7433 28.7264 41.8113C28.8031 41.8818 28.904 41.9338 29.011 41.9289L29.1175 41.9146C29.1861 41.8955 29.2449 41.8608 29.2957 41.8113C29.381 41.7377 29.4528 41.6424 29.5128 41.5471C29.537 41.5088 29.558 41.4679 29.5766 41.4258C29.6069 41.3553 29.639 41.2842 29.6582 41.2093C29.6978 41.0552 29.7003 40.9074 29.6712 40.7521C29.6576 40.6815 29.6248 40.6122 29.5945 40.5473C29.579 40.5151 29.5605 40.4848 29.5394 40.4557C29.5017 40.4056 29.4646 40.3511 29.4157 40.3109C29.3699 40.2719 29.321 40.2305 29.2672 40.2026C29.1552 40.1445 29.0438 40.1129 28.9176 40.1092C28.7945 40.1061 28.6874 40.1401 28.5779 40.1903C28.555 40.2008 28.5346 40.2131 28.5148 40.228C28.469 40.262 28.4214 40.2942 28.3855 40.3388C28.3168 40.4235 28.2853 40.4767 28.2463 40.5788C28.2234 40.6376 28.2172 40.7044 28.2123 40.7663C28.2067 40.8325 28.2197 40.9012 28.2314 40.9655C28.2444 41.0367 28.2779 41.1041 28.3069 41.1691C28.3453 41.2551 28.4598 41.3299 28.547 41.3541C28.6435 41.3807 28.7716 41.3683 28.857 41.3132C28.943 41.2582 29.0185 41.1759 29.042 41.0726C29.0463 41.0373 29.0513 41.0014 29.0562 40.9661C29.0556 40.8931 29.0376 40.8257 29.0011 40.7632Z" fill="#2458A4"/>
<path id="Fill 7" fill-rule="evenodd" clip-rule="evenodd" d="M34.3495 31.1906C34.0872 31.1683 33.7951 31.2345 33.6107 31.4356C33.4499 31.6101 33.3762 31.8495 33.3929 32.0859C33.4084 32.3037 33.4728 32.5264 33.599 32.7071C33.7246 32.889 33.904 33.056 34.1305 33.0932C34.2957 33.1204 34.4479 33.0969 34.597 33.0189C34.7467 32.9403 34.8587 32.8098 34.9565 32.6755C35.001 32.6149 35.0066 32.5072 34.988 32.4373C34.9682 32.3655 34.9125 32.2876 34.8457 32.2523C34.7739 32.2146 34.6867 32.1954 34.6075 32.2214C34.5264 32.2474 34.472 32.295 34.4225 32.3637C34.4163 32.3717 34.4101 32.3798 34.4039 32.3878C34.4646 32.3006 34.4448 32.3365 34.4281 32.3556C34.4182 32.368 34.4083 32.3798 34.3984 32.3909C34.3761 32.415 34.3532 32.4385 34.3285 32.4596L34.313 32.4726C34.2821 32.4998 34.3854 32.4206 34.3513 32.4429C34.3402 32.4503 34.3297 32.4583 34.3179 32.4658C34.2963 32.4794 34.2728 32.4911 34.2486 32.5017C34.2734 32.4911 34.2981 32.4806 34.3229 32.4701C34.292 32.4825 34.2604 32.4918 34.2276 32.4967C34.2554 32.4924 34.2827 32.4893 34.3105 32.4856C34.2777 32.4899 34.2449 32.4899 34.2128 32.4856C34.24 32.4893 34.2672 32.493 34.295 32.4967C34.2604 32.4918 34.2282 32.4819 34.1967 32.4689C34.2208 32.4794 34.2462 32.4899 34.2703 32.5004C34.2338 32.4843 34.2041 32.4596 34.1688 32.441C34.1633 32.4373 34.2443 32.5017 34.2152 32.4757C34.2109 32.4726 34.2072 32.4695 34.2035 32.4664C34.1954 32.459 34.188 32.4522 34.1806 32.4454C34.1651 32.4305 34.1509 32.415 34.1367 32.3996C34.1298 32.3909 34.123 32.3829 34.1162 32.3748C34.1026 32.3581 34.1738 32.4534 34.141 32.4058C34.1286 32.3884 34.1169 32.3711 34.1057 32.3532C34.0816 32.3129 34.0605 32.2715 34.042 32.2288C34.0525 32.2535 34.063 32.2783 34.0735 32.3024C34.0401 32.2238 34.0172 32.1422 34.0061 32.0574L34.0166 32.1397C34.008 32.071 34.0067 32.0023 34.0154 31.9337C34.0123 31.9609 34.008 31.9887 34.0042 32.016C34.0117 31.9652 34.024 31.9163 34.0432 31.8693C34.0333 31.8935 34.0228 31.9182 34.0123 31.9429C34.0228 31.9182 34.0352 31.8941 34.0494 31.8718C34.0686 31.8409 34.1082 31.8099 34.0296 31.8941C34.0395 31.8842 34.0476 31.8737 34.0568 31.8638C34.0661 31.8539 34.0766 31.8446 34.0872 31.8353C34.1249 31.8 34.0055 31.8935 34.063 31.8545C34.0884 31.8371 34.1156 31.8229 34.1441 31.8105C34.1193 31.8217 34.0946 31.8316 34.0698 31.8421C34.1199 31.8217 34.1725 31.8087 34.2264 31.8006C34.1985 31.8044 34.1713 31.8081 34.1441 31.8118C34.2121 31.8031 34.2808 31.8037 34.3495 31.8093C34.4244 31.8155 34.5172 31.7703 34.5685 31.719C34.6217 31.6651 34.6619 31.5773 34.6589 31.4999C34.6508 31.3205 34.5227 31.2054 34.3495 31.1906Z" fill="#2458A4"/>
<path id="Fill 9" fill-rule="evenodd" clip-rule="evenodd" d="M7.90997 51.8459L7.74354 53.4119L7.73549 53.4614C7.7423 53.4762 7.75467 53.4775 7.7788 53.4929L8.33999 53.7862L9.09359 54.1785C9.34665 54.3066 9.62446 54.3957 9.88865 54.5064L11.4942 55.1425L13.158 55.6597C13.7142 55.8292 14.2649 56.0155 14.8378 56.1374C15.9769 56.3997 17.1017 56.7177 18.2618 56.9052C19.1045 57.0549 19.9435 57.2232 20.7924 57.3383L23.3403 57.6792C29.3389 58.4607 35.4259 58.6438 41.4875 58.4174C44.1783 58.3116 46.8754 58.035 49.5185 57.6656C52.9079 57.1415 56.2824 56.4975 59.6217 55.7265C60.6723 55.5162 60.6011 55.7451 59.798 56.245C59.3965 56.4956 58.8124 56.8192 58.0891 57.1768C57.3671 57.5443 56.4742 57.7955 55.4985 58.0492C54.6323 58.2676 53.7642 58.4805 52.8863 58.6327C52.012 58.8047 51.1353 58.9724 50.2542 59.1066C48.4865 59.3201 46.7213 59.5855 44.9431 59.6963C41.3928 60.0131 37.8197 60.0638 34.2441 59.9326C29.9693 59.781 25.5182 59.536 21.1804 58.8901C18.7952 58.5448 16.4286 58.0542 14.0842 57.4577C11.7621 56.7777 9.42275 56.0829 7.26279 54.877L6.58776 54.5293L6.21034 54.335C6.19734 54.2069 6.22642 54.0554 6.23261 53.9174L6.2982 53.1384L6.35326 52.5846C6.42689 51.8459 6.51661 51.1102 6.61746 50.3758C6.81792 48.907 7.06541 47.4455 7.35498 45.994C8.23356 41.5961 9.54959 37.2564 11.3804 33.1815C12.8127 30.0272 14.5149 27.014 16.8524 24.4172C17.3641 23.8443 17.9011 23.3159 18.4803 22.7974C19.5723 21.8551 20.3878 21.3477 21.0059 21.0817C21.6017 20.7804 22.0113 20.729 22.3442 20.7092C22.4964 20.7018 22.682 20.6665 22.7748 20.6752C23.0904 20.7049 22.1672 21.4158 20.6637 22.7046C18.3967 24.5775 16.475 26.9392 14.8787 29.5632C13.2848 32.1921 12.0189 35.0828 10.9955 38.065C9.48586 42.5013 8.47672 47.1572 7.94771 51.844L7.90997 51.8459Z" fill="#2458A4"/>
<path id="Fill 11" fill-rule="evenodd" clip-rule="evenodd" d="M59.4998 39.3971C58.9801 37.6219 58.4121 35.853 57.6746 34.1559C57.3937 33.5427 57.1252 32.9209 56.8158 32.3238C55.8135 30.1638 54.5537 28.1363 53.109 26.2393C52.7613 25.8433 52.4055 25.451 52.0461 25.0631L51.5059 24.4846C51.316 24.3027 51.1099 24.1387 50.9138 23.9667C50.3953 23.5392 49.9078 23.0726 49.3738 22.6655C48.8318 22.2677 48.2793 21.8921 47.7923 21.4064C47.4867 21.1063 47.6407 20.9535 48.08 20.9405C48.5268 20.9127 49.255 21.063 49.9412 21.5141C50.0915 21.6149 50.2474 21.709 50.3928 21.816L50.8105 22.1619L51.6402 22.861C51.9081 23.1042 52.1902 23.3344 52.4433 23.5918L53.1709 24.3955C54.172 25.4424 54.9831 26.6464 55.7652 27.8554C56.1816 28.6115 56.6766 29.3372 57.1146 30.1007C57.5267 30.8772 57.992 31.6352 58.3577 32.4315C59.1595 34.1843 59.8667 35.9768 60.4248 37.8119C60.7961 38.9336 61.0807 40.0789 61.3783 41.218C61.5924 42.0836 61.7625 42.9615 61.9531 43.8321C62.0985 44.7119 62.2841 45.5818 62.4177 46.4561C62.6405 47.8129 62.8917 49.1413 63.0439 50.5007C63.0754 50.8001 63.1187 51.0922 63.1435 51.3954C63.2227 52.5208 63.0841 52.8877 62.7679 53.1272C62.6924 53.1822 62.6188 53.254 62.544 53.2856C62.2946 53.3907 62.0632 52.9416 61.9376 52.149C61.6097 49.7904 61.2205 47.3235 60.7565 44.8585C60.6036 43.9391 60.3704 43.0345 60.1804 42.1194C59.962 41.2118 59.7189 40.3084 59.4677 39.4094L59.4998 39.3971Z" fill="#2458A4"/>
<path id="Fill 13" fill-rule="evenodd" clip-rule="evenodd" d="M21.9378 13.5331C21.9799 13.8096 22.0652 14.0782 22.1259 14.3541C22.2082 14.6233 22.3004 14.8912 22.3919 15.1603C22.4717 15.3515 22.5837 15.526 22.6592 15.7196C22.9562 16.3848 23.3107 17.0388 23.7797 17.6055C23.9957 17.8468 24.2394 18.0665 24.5092 18.2292C24.8402 18.4717 25.2016 18.6066 25.5289 18.8597C25.6291 18.9438 25.5579 19.174 25.3692 19.3676C25.1886 19.5557 24.8415 19.7333 24.5575 19.6244C24.3236 19.5149 24.0606 19.4239 23.8515 19.2767C23.643 19.1276 23.427 18.9741 23.2588 18.7885C22.8956 18.4334 22.5992 18.0281 22.3616 17.5956C22.0869 17.0759 21.7113 16.6069 21.4645 16.0705C21.3228 15.7797 21.1965 15.4833 21.1006 15.1752C20.9868 14.8745 20.9119 14.5608 20.8315 14.2514C20.7282 13.8715 20.6774 13.478 20.6094 13.0938C20.5339 12.5023 20.5054 11.9071 20.5129 11.3168C20.5252 11.0873 20.511 10.8596 20.5122 10.63C20.5271 10.4023 20.5351 10.1709 20.5636 9.94199C20.5704 9.8399 20.589 9.74153 20.6174 9.64191C20.743 9.2781 20.894 9.19829 21.1093 9.18777C21.1607 9.18591 21.212 9.17849 21.2578 9.18344C21.41 9.19952 21.5102 9.38638 21.5684 9.65429C21.6012 10.0367 21.6433 10.4085 21.6482 10.7729C21.6946 11.1442 21.7144 11.5055 21.7429 11.8755C21.7658 12.4225 21.8468 12.9775 21.9681 13.5244L21.9378 13.5331Z" fill="#2458A4"/>
<path id="Fill 15" fill-rule="evenodd" clip-rule="evenodd" d="M45.6343 12.7635C45.5267 13.2554 45.4011 13.743 45.2124 14.2157C45.1542 14.3895 45.1127 14.5714 45.0267 14.7391C44.7409 15.3312 44.3375 15.8745 43.8555 16.3212C43.6532 16.5272 43.4317 16.7197 43.2201 16.9139C43.071 17.0235 42.9355 17.1583 42.774 17.253C42.6013 17.3254 42.4182 17.3786 42.2283 17.3953C42.107 17.404 42.0445 17.1893 42.0278 16.9337C42.0154 16.6801 42.0228 16.3719 42.1392 16.2612C42.5846 15.9104 42.9973 15.5831 43.4379 15.1462C43.712 14.8901 43.8165 14.5015 43.9681 14.152C44.1259 13.7572 44.262 13.3427 44.353 12.9102C44.4124 12.6447 44.4606 12.375 44.486 12.1003C44.5287 11.687 44.5571 11.2631 44.5169 10.8473C44.4786 10.5244 44.3851 10.215 44.3022 9.90689C44.2849 9.83821 44.2583 9.77324 44.2509 9.70333C44.2088 9.44718 44.3344 9.33952 44.5615 9.23557C44.6159 9.21144 44.6679 9.18298 44.7205 9.16504C44.8925 9.10317 45.0824 9.17927 45.2464 9.36179C45.6127 9.92359 45.7995 10.5875 45.7865 11.2613C45.7946 11.7612 45.742 12.2655 45.6653 12.7666L45.6343 12.7635Z" fill="#2458A4"/>
<path id="Fill 17" fill-rule="evenodd" clip-rule="evenodd" d="M50.5137 15.0916C50.3597 15.5656 50.1728 16.0377 49.9556 16.4992C49.8857 16.6688 49.8146 16.8451 49.7242 17.0097C49.3827 17.5795 48.9638 18.1178 48.4391 18.5367C48.3358 18.6419 48.2009 18.713 48.0865 18.8052C47.9677 18.8925 47.8582 18.9908 47.7276 19.0583C47.5655 19.1511 47.4127 19.2655 47.2419 19.3423C47.0674 19.4097 46.8861 19.4617 46.698 19.4796C46.5799 19.4901 46.5384 19.2891 46.5539 19.0601C46.5718 18.8312 46.63 18.5695 46.7779 18.486C47.0328 18.3158 47.2784 18.1525 47.4962 17.9539C47.6119 17.8641 47.7313 17.7769 47.847 17.6785C47.9708 17.5888 48.0933 17.4935 48.2084 17.3822C48.3593 17.2609 48.4732 17.1013 48.5666 16.9243C48.6724 16.7579 48.7429 16.5661 48.8351 16.3872C49.0331 15.9913 49.1983 15.565 49.3412 15.1257C49.4248 14.8534 49.5108 14.58 49.5739 14.2978C49.6753 13.8734 49.7774 13.4403 49.8276 13.0028C49.8715 12.6619 49.8201 12.3136 49.848 11.9677C49.8554 11.8916 49.8504 11.8167 49.8665 11.74C49.9266 11.4585 50.0218 11.383 50.3095 11.3799C50.3739 11.3787 50.4376 11.3731 50.4983 11.3781C50.6987 11.3923 50.8701 11.542 50.9147 11.7518C51.0997 12.3822 50.9883 13.0016 50.8862 13.65C50.799 14.1308 50.6789 14.6121 50.5409 15.0972L50.5137 15.0916Z" fill="#2458A4"/>
<path id="Fill 19" fill-rule="evenodd" clip-rule="evenodd" d="M10.9055 8.58747C10.5646 8.8232 10.2027 9.04533 9.88897 9.30086L9.40575 9.67333L8.97512 10.0613C8.839 10.1906 8.77279 10.2951 8.65833 10.4139L8.35887 10.9275C8.15036 11.2647 8.00558 11.6427 7.83728 12.0053C7.24578 13.5032 6.97849 15.154 7.00386 16.7992C7.02181 17.9983 7.21918 19.2023 7.57804 20.3055C7.72034 20.8029 7.94123 21.249 8.17511 21.6555L8.37062 21.9234C8.44363 22.0107 8.46096 22.0348 8.53954 22.0893C8.66204 22.1901 8.86003 22.2687 9.06793 22.3312C9.9459 22.5669 11.0429 22.4791 12.0669 22.2792C14.1378 21.8542 16.1777 20.9601 17.8192 19.6212C18.2436 19.2728 18.6309 18.8843 18.9731 18.466C19.1476 18.2587 19.2985 18.0366 19.4452 17.8133L19.6487 17.4699L19.8065 17.1488C19.8473 17.0553 19.848 16.9582 19.8127 16.8555C19.7818 16.7361 19.7001 16.5672 19.6203 16.4149C19.4427 16.0994 19.2107 15.7876 18.9725 15.4838C18.7101 15.1633 18.4323 14.8514 18.1409 14.5495L17.6954 14.1046L17.1169 13.5503C16.9758 13.4451 16.8836 13.3294 16.8001 13.2106C16.7531 13.1512 16.7376 13.1017 16.7048 13.0466C16.6801 12.9816 16.6869 12.9012 16.6956 12.8356C16.7314 12.5603 16.9047 12.2831 17.1101 12.0251C17.2054 11.8964 17.331 11.7659 17.4337 11.6582C17.5123 11.5759 17.5939 11.4961 17.6775 11.4194C17.8445 11.2653 18.0178 11.1193 18.2021 10.985C18.9211 10.4591 19.8411 10.0118 20.8286 10.146C21.2883 10.2116 21.4467 10.37 21.409 10.4585C21.3713 10.5606 21.1386 10.6231 20.8293 10.7691C20.1969 11.0723 19.4266 11.7368 18.5932 12.6494L18.5363 12.7131C18.5295 12.7199 18.5325 12.7181 18.5325 12.7181V12.7193L18.5338 12.7205H18.5356C18.5468 12.7323 18.5115 12.6946 18.561 12.7434C18.6427 12.8208 18.7281 12.8938 18.8042 12.9736L19.2664 13.4531C19.5664 13.781 19.8603 14.1151 20.1412 14.474C20.4197 14.8397 20.6944 15.2047 20.9394 15.6601C21.0619 15.9002 21.177 16.1211 21.2729 16.4719C21.3372 16.6476 21.3149 16.8765 21.3385 17.0757C21.3242 17.2799 21.2543 17.4779 21.2141 17.679L21.039 18.023C20.992 18.1171 20.9437 18.2105 20.8874 18.2977C20.7767 18.4741 20.6752 18.6578 20.5502 18.8212C20.3139 19.159 20.0565 19.4789 19.778 19.7709C19.2255 20.3618 18.6111 20.8704 17.9639 21.314C16.6659 22.1982 15.2428 22.8361 13.7591 23.2617C12.9752 23.487 12.1659 23.6577 11.3306 23.7573C10.4941 23.8471 9.62911 23.8879 8.70473 23.6534C8.25307 23.5284 7.73767 23.3193 7.3454 22.8676C7.03913 22.4933 6.80154 22.1004 6.61407 21.7026C6.23541 20.9056 6.01576 20.0858 5.86789 19.2642C5.70578 18.3615 5.62658 17.4507 5.64267 16.5412C5.64886 15.6329 5.73177 14.724 5.91429 13.8312C6.07763 12.9352 6.35606 12.0585 6.7143 11.2152L7.00201 10.5897C7.10905 10.3861 7.23032 10.1887 7.34354 9.98888L7.51678 9.69004L7.76242 9.38686C7.92762 9.16969 8.1021 9.03233 8.2741 8.87146C9.12856 8.12033 10.0307 7.5047 10.9662 6.93981C11.4284 6.64777 11.9011 6.37739 12.3806 6.12062C12.8527 5.85085 13.3359 5.60213 13.8234 5.36515C16.7636 3.88888 19.8752 2.76404 23.0127 1.90154C25.4474 1.20733 27.8833 0.696882 30.3694 0.330597C30.9188 0.265631 31.4571 0.202521 32.0108 0.137555C33.0392 0.00762313 33.7278 0.0719704 34.2067 0.127037C34.6868 0.192003 34.9628 0.297186 35.1836 0.458054C35.2845 0.531682 35.4169 0.602217 35.4744 0.673989C35.6687 0.911579 34.8403 1.16526 33.3751 1.34902C32.83 1.38243 32.2849 1.47091 31.7361 1.54391C31.1879 1.61631 30.6373 1.6887 30.0841 1.76171C28.9871 1.97888 27.8672 2.11067 26.7641 2.3829C24.5397 2.82591 22.3272 3.47 20.1493 4.21123C16.9282 5.33607 13.7535 6.75172 10.9284 8.61346L10.9055 8.58747Z" fill="#2458A4"/>
<path id="Fill 21" fill-rule="evenodd" clip-rule="evenodd" d="M60.9291 8.50436C61.6184 9.05255 62.2903 9.6224 62.9307 10.2789L63.404 10.8004C63.5556 11.0127 63.7369 11.254 63.8501 11.4637C64.0462 11.8739 64.2622 12.2755 64.4162 12.703C65.095 14.3847 65.4272 16.1883 65.4124 17.9913C65.3883 19.3042 65.2633 20.6394 64.7491 21.9164C64.5369 22.4789 64.2325 23.0289 63.8216 23.535C63.7035 23.6625 63.6236 23.7788 63.4721 23.9106C63.3168 24.0517 63.154 24.1556 62.9888 24.2428C62.6609 24.4068 62.333 24.5095 62.0187 24.564C60.7583 24.7811 59.6044 24.6042 58.4814 24.3592C56.2546 23.8215 54.1491 22.8464 52.3833 21.359C51.6068 20.6982 50.9033 19.913 50.386 18.9936C50.2518 18.7572 50.1485 18.5432 50.0328 18.2635C49.9894 18.1868 49.9746 18.0933 49.9622 18.003C49.9517 17.9127 49.9214 17.823 49.9263 17.732C49.9554 17.5538 49.9579 17.3564 50.0328 17.203C50.2549 16.6233 50.571 16.2211 50.8866 15.8152C51.204 15.418 51.5431 15.0548 51.8908 14.6996C52.064 14.5227 52.2404 14.3482 52.4241 14.1818L52.8269 13.818C52.8801 13.7648 52.9544 13.7264 52.9915 13.6701C52.9661 13.5958 52.9111 13.5389 52.8628 13.4808C52.804 13.4158 52.7805 13.3892 52.6877 13.2989C52.564 13.1745 52.4346 13.0551 52.3016 12.9394C51.767 12.4778 51.1793 12.0886 50.571 11.8121C50.2586 11.6871 50.1163 11.6097 50.1305 11.5021C50.1454 11.4031 50.3341 11.2713 50.7134 11.2051C51.0827 11.1476 51.66 11.1407 52.2558 11.3703C52.5559 11.4792 52.8684 11.6271 53.1759 11.8213C53.3299 11.9172 53.4821 12.0268 53.6331 12.1468C53.7067 12.2056 53.7692 12.2563 53.9202 12.4011C54.0458 12.523 54.1702 12.6492 54.284 12.7835C54.5668 13.1046 54.753 13.461 54.7511 13.7864C54.7524 13.8625 54.7394 13.972 54.7208 14.0327C54.7041 14.0989 54.6905 14.1651 54.6367 14.2436C54.5872 14.3179 54.5631 14.3971 54.4938 14.4676L54.2475 14.6718L53.6832 15.1662L53.3856 15.4502C53.1839 15.6364 52.9859 15.8263 52.7935 16.0194C52.4118 16.4042 52.043 16.8076 51.7602 17.2018C51.6303 17.3874 51.4905 17.607 51.4595 17.7141L51.4441 17.737L51.4428 17.7419L51.4806 17.8329C51.6656 18.2771 51.9211 18.7053 52.228 19.1093C53.4964 20.7192 55.4664 21.9078 57.5373 22.6707C58.2191 22.9163 58.9312 23.1038 59.6508 23.2127C60.3648 23.3191 61.1085 23.3506 61.7502 23.2195C62.0669 23.1564 62.354 23.04 62.5124 22.9021C62.5953 22.8433 62.711 22.6762 62.8125 22.5723L63.0885 22.154C63.43 21.5582 63.6571 20.8578 63.8099 20.1463C63.98 19.3617 64.0543 18.5469 64.0574 17.7302C64.045 16.9122 63.9559 16.0949 63.8006 15.2881C63.6255 14.4862 63.3879 13.6979 63.0637 12.9431C62.9882 12.7519 62.8874 12.5731 62.8001 12.3869C62.711 12.2025 62.6232 12.007 62.5168 11.882L62.3658 11.6654L62.1628 11.4433C62.0242 11.2967 61.9017 11.142 61.7427 11.004C60.2621 9.59455 58.5353 8.37443 56.754 7.29166C54.0545 5.63534 51.1415 4.28405 48.1586 3.27305C45.8452 2.46128 43.4749 2.01209 41.099 1.63034C40.5725 1.56537 40.0571 1.50164 39.5262 1.43606C37.5587 1.22384 36.9424 1.04069 36.5359 0.668222C36.4431 0.582838 36.3187 0.496835 36.2661 0.418257C36.0873 0.157775 36.9195 0.00371234 38.4236 0C38.9805 0.00556852 39.5349 0.0686784 40.0942 0.130551C40.6535 0.194279 41.2166 0.258627 41.7821 0.322974C42.342 0.425063 42.9051 0.52839 43.47 0.631717C44.0373 0.731332 44.6028 0.848271 45.1622 1.00233C45.724 1.1465 46.2876 1.2919 46.8525 1.4373C47.4081 1.61487 47.9656 1.79306 48.5243 1.97187C49.0861 2.1414 49.6337 2.35424 50.1825 2.56585C50.7294 2.78302 51.2888 2.97111 51.8233 3.22046C55.0395 4.6064 58.1312 6.31903 60.9464 8.47466L60.9291 8.50436Z" fill="#2458A4"/>
<path id="Fill 23" fill-rule="evenodd" clip-rule="evenodd" d="M26.996 15.9237C25.826 14.1374 25.3657 11.9137 25.8514 9.83421C25.8916 9.64302 25.9361 9.46112 26.0005 9.2687L26.1397 8.82631L26.175 8.71803C26.1929 8.68648 26.2331 8.67101 26.261 8.64688L26.4441 8.51571L26.9898 8.12962C27.1519 8.02259 27.3215 7.94586 27.4885 7.85677C28.6752 7.26094 29.9065 6.92373 31.1402 6.6583C32.3746 6.39658 33.6238 6.26417 34.8736 6.19178C35.9817 6.11877 37.1023 6.12063 38.2147 6.18126C38.5717 6.219 38.9318 6.22457 39.2913 6.28273C39.6489 6.35451 40.0096 6.39225 40.3629 6.50795C40.7162 6.62427 41.0732 6.70718 41.4092 6.89527L41.9104 7.15513C42.0688 7.26465 42.2055 7.415 42.3466 7.54246C42.69 7.88585 42.4715 7.99784 42.0026 8.06157C41.7631 8.09745 41.4884 8.12467 41.1698 8.14138C40.8579 8.14819 40.5436 8.11168 40.1854 8.04672C37.7024 7.50533 34.9021 7.52204 32.1741 7.85677C31.358 7.96938 30.5277 8.14942 29.7413 8.43156C28.9487 8.69576 28.1784 9.03853 27.5294 9.4605L27.3703 9.56135C27.3308 9.5793 27.3338 9.63127 27.3165 9.66159C27.2584 9.80575 27.1965 10.0588 27.1501 10.2568C27.0567 10.6794 27.0072 11.115 27.0115 11.5536C27.0072 12.4316 27.2045 13.3164 27.5622 14.1312C27.7552 14.5619 27.9798 14.9832 28.265 15.36C28.4005 15.5531 28.5558 15.7319 28.7142 15.9045L28.9611 16.1551L29.1888 16.3518C29.2476 16.4137 29.3348 16.4292 29.4171 16.431C29.5167 16.4366 29.7753 16.4007 29.9678 16.3661C30.1763 16.3308 30.3934 16.2838 30.6094 16.2374L31.9273 15.9546C32.8139 15.7709 33.7147 15.6236 34.6193 15.532C36.0238 15.3941 37.4413 15.3557 38.857 15.6112C39.1669 15.6694 39.4738 15.7214 39.7813 15.8111C40.0666 15.8903 40.2955 15.9831 40.4867 16.0592C40.6723 16.1514 40.8115 16.2491 40.9223 16.3351C41.1413 16.514 41.2298 16.6903 41.2681 16.8914C41.2848 16.9842 41.3176 17.0819 41.3133 17.1611C41.2941 17.4328 40.7967 17.4117 40.0288 17.2614C37.7977 16.668 35.3946 16.6587 32.9611 17.1401C32.3399 17.257 31.7187 17.3981 31.0709 17.5454C30.7449 17.6178 30.4169 17.6926 30.0451 17.7533C29.9517 17.7675 29.8582 17.7823 29.7506 17.7929C29.6516 17.804 29.5476 17.8139 29.3521 17.8145C29.1919 17.8028 29.0291 17.7929 28.8769 17.7415C28.7977 17.7248 28.7266 17.6883 28.6573 17.6475C28.5868 17.6091 28.5119 17.5825 28.4488 17.5324L28.1728 17.3016C28.1072 17.2434 28.0355 17.1902 27.9761 17.1265L27.6092 16.7553C27.3784 16.4966 27.1637 16.2275 26.9694 15.9453L26.996 15.9237Z" fill="#2458A4"/>
<path id="Fill 25" fill-rule="evenodd" clip-rule="evenodd" d="M27.7423 32.1573C25.5607 34.4615 24.7068 37.9795 25.5693 41.088C25.8744 42.2296 26.4195 43.2987 27.0772 44.2819C28.2453 46.0131 29.9221 47.3947 31.902 48.0969C33.872 48.8103 36.0845 48.8629 38.1375 48.3104C39.9602 47.821 41.6722 46.8384 42.9635 45.4878C44.6662 43.7696 45.582 41.4518 45.8895 39.0821C45.9841 38.344 46.3201 38.4232 46.6053 39.1198C46.8955 39.8017 47.065 41.1944 46.4649 42.6695C45.439 45.2687 43.401 47.4219 40.9316 48.6488C38.4765 49.9073 35.5877 50.299 32.8987 49.6778C31.3012 49.2948 29.7296 48.6061 28.4099 47.5586C27.0772 46.5297 25.9876 45.1988 25.2278 43.7194C24.3907 42.0941 23.9248 40.2632 23.9545 38.4238C23.9823 36.5886 24.4791 34.7783 25.3837 33.19C26.4937 31.228 28.2583 29.6855 30.2673 28.7469C33.3139 27.3096 36.9409 27.1989 40.0394 28.4376C41.2422 28.9189 42.364 29.5847 43.3422 30.4268C44.321 31.2713 45.1291 32.299 45.7719 33.4294C46.0503 33.9325 46.291 34.4454 46.4803 34.9967C46.8231 36.0225 46.8955 36.7427 46.885 37.2402C46.8708 37.7401 46.7588 38.0284 46.5874 38.2518C46.5063 38.3532 46.4247 38.4844 46.3436 38.5395C46.0472 38.7226 45.9291 37.8985 45.6049 36.5453C45.1105 34.5419 43.9374 32.6715 42.3337 31.3004C40.7262 29.9349 38.6529 29.0916 36.496 28.9282C34.8966 28.7933 33.2625 29.0198 31.7454 29.5568C30.2395 30.1174 28.8393 30.991 27.7689 32.1765L27.7423 32.1573Z" fill="#2458A4"/>
<path id="Fill 27" fill-rule="evenodd" clip-rule="evenodd" d="M34.832 32.3987C34.8332 32.4315 34.8338 32.4636 34.832 32.4964C34.832 32.5069 34.8307 32.5181 34.8301 32.5286C34.8252 32.5781 34.8264 32.5719 34.8332 32.5107C34.84 32.5298 34.8047 32.6536 34.7905 32.6684C34.7967 32.6548 34.8029 32.6406 34.8091 32.6264C34.7998 32.6468 34.7899 32.6672 34.7794 32.6864C34.7627 32.7167 34.7423 32.7445 34.7255 32.7736C34.6921 32.8312 34.7447 32.747 34.7515 32.7414C34.7293 32.7594 34.7119 32.7878 34.6915 32.8089C34.6661 32.8349 34.6365 32.8559 34.6111 32.8813C34.6952 32.7977 34.6637 32.8417 34.6303 32.8633C34.6129 32.8751 34.5944 32.8856 34.5764 32.8961C34.5344 32.9196 34.4378 32.9388 34.5678 32.9048C34.5251 32.9159 34.4842 32.9339 34.4409 32.9438C34.4242 32.9481 34.4069 32.9506 34.3908 32.9543C34.3104 32.971 34.5065 32.9444 34.4248 32.95C34.3908 32.9518 34.3568 32.9543 34.3228 32.9543C34.2813 32.9537 34.2405 32.9487 34.1996 32.9462C34.3537 32.9543 34.2176 32.9469 34.173 32.9357C34.1359 32.9264 34.1 32.9153 34.0641 32.9023C34.048 32.8967 34.032 32.8893 34.0159 32.8837C34.1427 32.9271 34.0753 32.9091 34.0443 32.8936C34.0134 32.8782 33.9831 32.8615 33.954 32.8435C33.9361 32.8324 33.9187 32.8213 33.902 32.8095C33.8117 32.7464 33.9614 32.8633 33.9076 32.8138C33.8822 32.7909 33.8569 32.7687 33.8327 32.7439C33.8185 32.7291 33.8049 32.7136 33.7913 32.6981C33.7387 32.6418 33.8426 32.7749 33.8142 32.7297C33.7937 32.6969 33.7709 32.6672 33.7523 32.6338C33.7418 32.6158 33.7331 32.5973 33.7232 32.5787C33.6892 32.5131 33.7591 32.6802 33.7344 32.6047C33.7214 32.5639 33.7077 32.5237 33.6985 32.4816C33.6743 32.3702 33.7034 32.5837 33.6954 32.4655C33.6917 32.4197 33.6923 32.3733 33.6954 32.3275C33.6997 32.257 33.722 32.3083 33.6904 32.3473C33.7053 32.3288 33.7071 32.2669 33.7133 32.2421C33.7195 32.2205 33.7275 32.2001 33.7337 32.1784C33.7517 32.1147 33.7678 32.1642 33.7238 32.1957C33.7535 32.1747 33.7789 32.0905 33.8006 32.0584C33.8061 32.0491 33.829 32.0225 33.8296 32.0151C33.8179 32.0305 33.8061 32.046 33.7944 32.0615C33.8049 32.0485 33.816 32.0349 33.8278 32.0219C33.8531 31.994 33.9292 31.9476 33.941 31.9142C33.9255 31.9266 33.9101 31.9383 33.8946 31.9501C33.9088 31.9402 33.9231 31.9303 33.9379 31.9204C33.9596 31.9062 33.9818 31.8926 34.0047 31.8802C34.0233 31.8697 34.0456 31.8616 34.0635 31.8505C34.1112 31.8189 33.9602 31.8845 34.0456 31.8579C34.0969 31.8424 34.1483 31.8288 34.2003 31.8158C34.2547 31.8028 34.2046 31.8375 34.1662 31.8189C34.1873 31.8288 34.2522 31.8134 34.277 31.8134C34.2832 31.8134 34.363 31.8189 34.3636 31.8171C34.3005 31.8072 34.285 31.8059 34.3184 31.8115C34.332 31.8134 34.3463 31.8165 34.3599 31.8195C34.3865 31.8257 34.4131 31.8325 34.4397 31.8412C34.457 31.8468 34.4743 31.853 34.4911 31.8598C34.4298 31.8332 34.4205 31.8294 34.4626 31.8492C34.4818 31.8604 34.5888 31.9383 34.6006 31.934C34.5863 31.9223 34.5709 31.9105 34.556 31.8994C34.5702 31.9105 34.5839 31.9223 34.5969 31.9346C34.6173 31.9532 34.6365 31.9724 34.655 31.9915C34.6606 31.9977 34.7033 32.0534 34.7088 32.0528C34.6692 32.0008 34.6631 31.9934 34.6903 32.0305C34.6977 32.0417 34.7051 32.0534 34.7126 32.0646C34.7249 32.0844 34.7367 32.1035 34.7478 32.1233C34.7571 32.1407 34.7812 32.2137 34.7967 32.2211C34.7893 32.2038 34.7812 32.1858 34.7738 32.1679C34.7806 32.1852 34.7862 32.2025 34.7924 32.2199C34.801 32.2452 34.8085 32.2718 34.8153 32.2984C34.8221 32.325 34.8264 32.3516 34.832 32.3783C34.84 32.4259 34.8388 32.4141 34.8283 32.3442C34.8301 32.3622 34.8313 32.3807 34.832 32.3987C34.8456 32.6245 35.0213 32.8429 35.2651 32.8318C35.4884 32.8219 35.713 32.6412 35.6982 32.3987C35.6598 31.7632 35.2465 31.142 34.6037 30.9874C33.9818 30.8382 33.2951 31.1402 32.9993 31.7113C32.7221 32.2458 32.7914 32.8763 33.1923 33.3261C33.4961 33.6671 34.001 33.8644 34.4552 33.8125C34.7645 33.7772 35.0417 33.6652 35.2725 33.4517C35.5602 33.1851 35.7106 32.7872 35.6982 32.3987C35.6908 32.1728 35.5045 31.955 35.2651 31.9656C35.0368 31.9761 34.8239 32.1561 34.832 32.3987Z" fill="#2458A4"/>
<path id="Fill 29" fill-rule="evenodd" clip-rule="evenodd" d="M30.3964 35.6116C30.3977 35.6444 30.3983 35.6766 30.3964 35.7094C30.3958 35.7199 30.3952 35.7304 30.3946 35.7416C30.3896 35.7911 30.3909 35.7849 30.3977 35.7236C30.4045 35.7428 30.3692 35.8665 30.355 35.8814C30.3605 35.8678 30.3673 35.8535 30.3729 35.8393C30.3642 35.8597 30.3543 35.8801 30.3438 35.8993C30.3271 35.9296 30.3067 35.9575 30.2894 35.9866C30.2566 36.0441 30.3086 35.96 30.316 35.9544C30.2937 35.9723 30.2764 36.0008 30.256 36.0218C30.2306 36.0478 30.2009 36.0689 30.1755 36.0942C30.2591 36.0107 30.2281 36.0546 30.1941 36.0763C30.1768 36.088 30.1588 36.0986 30.1409 36.1091C30.0982 36.1326 30.0023 36.1518 30.1322 36.1177C30.0889 36.1289 30.0487 36.1468 30.0048 36.1567C29.9881 36.161 29.9714 36.1635 29.9553 36.1672C29.8748 36.1839 30.071 36.1573 29.9893 36.1629C29.9553 36.1648 29.9212 36.1672 29.8866 36.1672C29.8458 36.1666 29.8049 36.1617 29.7641 36.1592C29.9181 36.1672 29.782 36.1598 29.7375 36.1487C29.7004 36.1394 29.6639 36.1283 29.6286 36.1153C29.6125 36.1097 29.5964 36.1023 29.5803 36.0967C29.7072 36.14 29.6397 36.1221 29.6082 36.1066C29.5772 36.0911 29.5469 36.0744 29.5178 36.0565C29.5005 36.0453 29.4832 36.0342 29.4665 36.0225C29.3761 35.9593 29.5259 36.0763 29.472 36.0268C29.4467 36.0039 29.4207 35.9816 29.3972 35.9569C29.383 35.942 29.3693 35.9266 29.3557 35.9111C29.3031 35.8548 29.4071 35.9878 29.3786 35.9426C29.3582 35.9098 29.3353 35.8801 29.3167 35.8467C29.3062 35.8288 29.2976 35.8102 29.2877 35.7917C29.253 35.7261 29.3236 35.8931 29.2988 35.8177C29.2852 35.7768 29.2722 35.7366 29.2629 35.6945C29.2382 35.5832 29.2679 35.7966 29.2598 35.6784C29.2561 35.6327 29.2567 35.5863 29.2598 35.5405C29.2642 35.4699 29.2864 35.5213 29.2549 35.5603C29.2697 35.5417 29.2716 35.4798 29.2778 35.4551C29.284 35.4334 29.2914 35.413 29.2982 35.3914C29.3161 35.3276 29.3322 35.3771 29.2883 35.4087C29.3174 35.3876 29.3434 35.3035 29.3644 35.2713C29.37 35.262 29.3935 35.2354 29.3941 35.228C29.3823 35.2435 29.3706 35.2589 29.3582 35.2744C29.3693 35.2614 29.3805 35.2478 29.3922 35.2348C29.4176 35.207 29.4937 35.1606 29.5055 35.1272C29.49 35.1395 29.4745 35.1513 29.4591 35.163C29.4733 35.1531 29.4875 35.1432 29.5017 35.1333C29.524 35.1191 29.5463 35.1055 29.5692 35.0931C29.5877 35.0826 29.61 35.0746 29.628 35.0634C29.6756 35.0319 29.5246 35.0975 29.61 35.0709C29.6614 35.0554 29.7121 35.0418 29.7647 35.0288C29.8192 35.0158 29.7684 35.0504 29.7307 35.0319C29.7517 35.0418 29.8167 35.0263 29.8414 35.0263C29.8476 35.0263 29.9274 35.0319 29.928 35.03C29.8643 35.0201 29.8495 35.0189 29.8829 35.0245C29.8965 35.0263 29.9101 35.0294 29.9237 35.0325C29.9509 35.0387 29.9775 35.0455 30.0041 35.0542C30.0215 35.0597 30.0388 35.0659 30.0555 35.0727C29.9943 35.0461 29.9844 35.0424 30.0264 35.0622C30.0456 35.0733 30.1533 35.1513 30.165 35.147C30.1502 35.1352 30.1353 35.1234 30.1205 35.1123C30.1347 35.1234 30.1483 35.1352 30.1613 35.1476C30.1811 35.1661 30.2009 35.1853 30.2195 35.2045C30.225 35.2107 30.2677 35.2664 30.2727 35.2658C30.2337 35.2138 30.2275 35.2064 30.2541 35.2435C30.2622 35.2546 30.2696 35.2664 30.277 35.2775C30.2894 35.2973 30.3011 35.3165 30.3123 35.3363C30.3216 35.3536 30.3451 35.4266 30.3605 35.434C30.3531 35.4167 30.3457 35.3988 30.3383 35.3808C30.3451 35.3982 30.3506 35.4155 30.3568 35.4328C30.3655 35.4582 30.3729 35.4848 30.3797 35.5114C30.3859 35.538 30.3909 35.5646 30.3964 35.5912C30.4045 35.6388 30.4026 35.6271 30.3927 35.5572C30.3946 35.5751 30.3958 35.5937 30.3964 35.6116C30.41 35.8375 30.5858 36.0559 30.8295 36.0447C31.0523 36.0348 31.2775 35.8542 31.2626 35.6116C31.2237 34.9762 30.811 34.355 30.1675 34.2003C29.5463 34.0512 28.8595 34.3531 28.5638 34.9242C28.2866 35.4588 28.3559 36.0893 28.7568 36.5391C29.06 36.88 29.5655 37.0768 30.0196 37.0254C30.329 36.9901 30.6062 36.8782 30.837 36.6647C31.1247 36.398 31.275 36.0002 31.2626 35.6116C31.2552 35.3858 31.0684 35.168 30.8295 35.1785C30.6012 35.189 30.3884 35.3691 30.3964 35.6116Z" fill="#2458A4"/>
<path id="Fill 31" fill-rule="evenodd" clip-rule="evenodd" d="M29.7676 40.8986C29.7682 40.9314 29.7688 40.9635 29.7676 40.9963C29.7669 41.0069 29.7663 41.0174 29.7657 41.0285C29.7607 41.078 29.7614 41.0718 29.7682 41.01C29.775 41.0298 29.7403 41.1535 29.7255 41.1683C29.7317 41.1541 29.7379 41.1405 29.744 41.1263C29.7348 41.1467 29.7249 41.1665 29.7143 41.1863C29.6983 41.2166 29.6772 41.2438 29.6605 41.2735C29.6277 41.3311 29.6797 41.2469 29.6865 41.2414C29.6642 41.2593 29.6469 41.2878 29.6271 41.3088C29.6011 41.3342 29.572 41.3558 29.5467 41.3812C29.6302 41.2977 29.5993 41.3416 29.5652 41.3632C29.5479 41.375 29.53 41.3855 29.5114 41.396C29.4693 41.4195 29.3728 41.4381 29.5027 41.4047C29.46 41.4158 29.4192 41.4338 29.3759 41.4437C29.3592 41.4474 29.3425 41.4505 29.3258 41.4536C29.246 41.4709 29.4421 41.4443 29.3598 41.4492C29.3258 41.4517 29.2918 41.4542 29.2577 41.4536C29.2163 41.4536 29.1761 41.4486 29.1352 41.4462C29.2887 41.4536 29.1532 41.4468 29.108 41.4356C29.0715 41.4264 29.035 41.4152 28.9997 41.4022C28.983 41.3967 28.9675 41.3892 28.9515 41.3837C29.0783 41.427 29.0109 41.409 28.9793 41.3929C28.9484 41.3781 28.918 41.3614 28.889 41.3428C28.8716 41.3323 28.8537 41.3212 28.837 41.3094C28.7473 41.2463 28.897 41.3626 28.8432 41.3137C28.8178 41.2909 28.7918 41.2686 28.7683 41.2438C28.7535 41.229 28.7405 41.2129 28.7262 41.198C28.6737 41.1411 28.7782 41.2748 28.7491 41.229C28.7293 41.1968 28.7064 41.1671 28.6873 41.1337C28.6774 41.1158 28.6687 41.0966 28.6588 41.0786C28.6242 41.013 28.6947 41.1801 28.6699 41.1046C28.6563 41.0638 28.6427 41.0236 28.6334 40.9815C28.6093 40.8701 28.639 41.0836 28.6303 40.9654C28.6272 40.9196 28.6272 40.8732 28.6303 40.8274C28.6353 40.7569 28.6576 40.8082 28.626 40.8472C28.6409 40.8287 28.6421 40.7662 28.6489 40.742C28.6551 40.7204 28.6625 40.6994 28.6687 40.6783C28.6873 40.6146 28.7033 40.6641 28.6594 40.6956C28.6885 40.6746 28.7139 40.5905 28.7355 40.5577C28.7411 40.549 28.7646 40.5224 28.7652 40.515C28.7535 40.5304 28.7411 40.5459 28.7293 40.5614C28.7405 40.5478 28.7516 40.5348 28.7634 40.5218C28.7887 40.4939 28.8648 40.4475 28.8766 40.4141C28.8611 40.4265 28.8457 40.4383 28.8302 40.45C28.8438 40.4401 28.8586 40.4302 28.8729 40.4203C28.8945 40.4061 28.9168 40.3925 28.9403 40.3801C28.9589 40.3696 28.9812 40.3615 28.9985 40.3498C29.0461 40.3188 28.8958 40.3844 28.9812 40.3578C29.0325 40.3424 29.0832 40.3281 29.1358 40.3157C29.1903 40.3021 29.1396 40.3368 29.1012 40.3188C29.1222 40.3287 29.1878 40.3127 29.2126 40.3127C29.2187 40.3127 29.2979 40.3188 29.2992 40.317C29.2355 40.3071 29.2206 40.3058 29.254 40.3108C29.2676 40.3133 29.2812 40.3164 29.2949 40.3188C29.3221 40.325 29.3487 40.3325 29.3753 40.3411C29.3926 40.3467 29.4093 40.3529 29.4266 40.3597C29.3654 40.3331 29.3555 40.3294 29.3976 40.3492C29.4167 40.3603 29.5244 40.4376 29.5362 40.4339C29.5213 40.4222 29.5065 40.4104 29.4916 40.3993C29.5052 40.4104 29.5188 40.4222 29.5324 40.4345C29.5522 40.4525 29.572 40.4717 29.59 40.4915C29.5956 40.497 29.6389 40.5533 29.6438 40.5527C29.6042 40.5007 29.598 40.4933 29.6252 40.5304C29.6333 40.5416 29.6407 40.5533 29.6481 40.5645C29.6599 40.5837 29.6717 40.6028 29.6828 40.6233C29.6927 40.6406 29.7162 40.7136 29.7317 40.721C29.7242 40.7037 29.7162 40.6857 29.7088 40.6678C29.7156 40.6851 29.7218 40.7024 29.7273 40.7192C29.736 40.7451 29.7434 40.7717 29.7508 40.7984C29.757 40.825 29.762 40.8516 29.7676 40.8782C29.775 40.9252 29.7737 40.9141 29.7632 40.8441C29.7651 40.8621 29.7669 40.8806 29.7676 40.8986C29.7812 41.1244 29.9569 41.3428 30.2007 41.3317C30.4234 41.3218 30.6486 41.1411 30.6338 40.8986C30.5948 40.2632 30.1821 39.642 29.5386 39.4873C28.9174 39.3375 28.2306 39.6401 27.9349 40.2112C27.6577 40.7451 27.727 41.3762 28.1273 41.8261C28.4311 42.167 28.9366 42.3637 29.3908 42.3124C29.7001 42.2771 29.9773 42.1651 30.2081 41.9517C30.4958 41.685 30.6461 41.2871 30.6338 40.8986C30.6263 40.6721 30.4395 40.455 30.2007 40.4655C29.9724 40.4754 29.7595 40.656 29.7676 40.8986Z" fill="#2458A4"/>
<path id="Fill 33" fill-rule="evenodd" clip-rule="evenodd" d="M36.3409 37.8177C36.8296 38.3065 36.8296 39.0978 36.3409 39.586C35.8527 40.0742 35.0613 40.0742 34.5732 39.586C34.085 39.0978 34.085 38.3065 34.5732 37.8177C35.0613 37.3295 35.8527 37.3295 36.3409 37.8177Z" fill="#2458A4"/>
<path id="Fill 35" fill-rule="evenodd" clip-rule="evenodd" d="M6.78181 49.722C6.52689 49.7734 0.227662 52.3083 1.24113 54.1725C2.96304 57.3379 21.9752 60.0516 22.5871 58.5556L6.78181 54.4769V49.722Z" fill="#2458A4"/>
<path id="Fill 37" fill-rule="evenodd" clip-rule="evenodd" d="M21.7768 58.2183C23.1454 58.3328 24.5171 58.4312 25.8907 58.5067L27.3954 58.5568C29.1625 58.6551 30.9314 58.7313 32.7022 58.8018C33.488 58.8309 34.2781 58.8265 35.0577 58.8154C36.06 58.8092 37.0655 58.756 38.069 58.9132C38.3815 58.9627 38.3413 59.0963 38.0783 59.2751C37.816 59.4527 37.3303 59.7218 36.7518 59.7472C35.7259 59.8344 34.6995 59.8313 33.6711 59.8159C32.6428 59.7967 31.6126 59.7639 30.5794 59.6705C29.3432 59.569 28.0544 59.5814 26.7897 59.5201C25.3988 59.4533 24.0073 59.3636 22.6182 59.2584L20.0543 59.0443C18.7636 58.9336 17.4531 58.777 16.1767 58.5747C15.183 58.4244 14.2061 58.2988 13.2322 58.1682C13.0175 58.1404 12.8084 58.1144 12.5943 58.0779C12.1971 58.0166 11.9397 57.9517 11.764 57.8601C11.587 57.7815 11.4911 57.6862 11.4169 57.5761C11.3828 57.5278 11.3358 57.4827 11.3166 57.4449C11.2498 57.341 11.6037 57.1795 12.2181 57.1578C14.0297 57.1974 15.8414 57.6213 17.6604 57.8236C19.0037 57.9857 20.3976 58.0933 21.7768 58.1936V58.2183Z" fill="#2458A4"/>
<path id="Fill 39" fill-rule="evenodd" clip-rule="evenodd" d="M27.0275 37.3934C26.7428 38.9607 26.8771 40.6226 27.5416 42.0865C27.7866 42.6192 28.1065 43.1123 28.4536 43.585C29.6867 45.2444 31.5695 46.4577 33.6459 46.8135C34.5629 46.975 35.5219 46.9441 36.4327 46.769C37.6101 46.5444 38.7077 46.0506 39.7627 45.4975C40.0887 45.3224 40.1859 45.5334 40.0275 45.9021C39.8709 46.2666 39.4224 46.7838 38.7189 47.0808C37.4802 47.5999 36.132 47.8616 34.7838 47.8245C33.4313 47.7874 32.0911 47.4106 30.9174 46.764C29.5153 45.9943 28.2142 44.893 27.3325 43.5101C26.8517 42.7522 26.4885 41.9182 26.2677 41.0489C26.0864 40.174 25.9496 39.2812 26.0288 38.3921C26.1 37.3037 26.3172 36.2166 26.7633 35.2211C27.382 33.6891 28.4852 32.3688 29.8105 31.4172C30.845 30.6828 32.0088 30.1457 33.2599 29.8957C33.5346 29.8469 33.8068 29.8159 34.0871 29.7837C34.6087 29.7089 34.9533 29.7726 35.1915 29.8147C35.4303 29.8673 35.5621 29.9471 35.6618 30.0696C35.7063 30.1259 35.7663 30.1822 35.7892 30.2373C35.8647 30.4229 35.4489 30.5609 34.7498 30.5875C33.7183 30.7056 32.6653 30.8684 31.7118 31.3287C30.754 31.7612 29.8705 32.3743 29.1379 33.1521C28.0842 34.3258 27.2991 35.8033 27.0497 37.3953L27.0275 37.3934Z" fill="#2458A4"/>
<path id="Fill 41" fill-rule="evenodd" clip-rule="evenodd" d="M54.0926 20.5746C54.634 20.9879 55.2292 21.3845 55.8244 21.7298C56.0447 21.8541 56.2786 21.9494 56.5032 22.0639C57.2964 22.4697 58.136 22.7915 59.0022 23.0414C59.3864 23.1534 59.7855 23.2147 60.1784 23.263C60.6857 23.3149 61.1906 23.3848 61.7029 23.4783C61.8626 23.5123 61.8428 23.6187 61.7035 23.7437C61.5649 23.8662 61.3014 24.0296 60.9889 24.0611C60.4333 24.1323 59.8795 24.0648 59.3369 23.9615C58.7937 23.8575 58.2548 23.7146 57.7443 23.4888C57.1343 23.2271 56.4803 23.0155 55.8758 22.7092C55.2088 22.372 54.5925 21.9748 53.9856 21.559C53.615 21.2966 53.2542 21.0182 52.9071 20.7206C52.3812 20.2689 51.9098 19.7443 51.5113 19.1695C51.1982 18.7277 50.9111 18.2525 50.7657 17.713C50.723 17.5973 50.702 17.4791 50.6791 17.3566C50.5993 16.9031 50.7076 16.7478 50.8765 16.6562C50.9186 16.6352 50.96 16.608 51.0015 16.5962C51.1394 16.5597 51.2731 16.728 51.3548 17.0008C51.6202 17.8126 52.0533 18.5173 52.6145 19.1967C53.0426 19.6904 53.5488 20.1477 54.1044 20.5567L54.0926 20.5746Z" fill="#2458A4"/>
<path id="Fill 43" fill-rule="evenodd" clip-rule="evenodd" d="M15.7596 20.7471C16.2849 20.4427 16.8133 20.129 17.2947 19.7547C17.4778 19.6254 17.6276 19.4602 17.7996 19.3203C18.3979 18.8216 18.9844 18.2883 19.4169 17.6541C19.519 17.5161 19.5994 17.3676 19.6601 17.2142C19.6898 17.1424 19.7349 17.0521 19.7504 16.9958C19.7677 16.9463 19.7684 16.8832 19.7696 16.8201C19.7492 16.4736 19.5648 16.0652 19.4479 15.6235C19.4113 15.4824 19.5586 15.4273 19.7628 15.4601C19.9639 15.4935 20.2442 15.6129 20.3896 15.8802C20.5046 16.1178 20.6438 16.3758 20.6599 16.7167C20.6717 16.8844 20.6643 17.075 20.5981 17.2761C20.5418 17.4314 20.4898 17.5335 20.4322 17.6634C20.2021 18.1528 19.8828 18.5599 19.5295 18.9206C19.1057 19.3476 18.7023 19.8091 18.2438 20.1989C17.7371 20.6221 17.2031 21.0057 16.645 21.3479C16.3072 21.5663 15.9502 21.7532 15.6012 21.9512C15.0599 22.2296 14.5055 22.4845 13.9449 22.7159C13.7302 22.8124 13.5186 22.9127 13.3008 23.0042C13.0868 23.1045 12.8696 23.2022 12.6388 23.2703C12.5373 23.3012 12.4402 23.3408 12.3369 23.3662C11.9421 23.4311 11.8029 23.3767 11.6965 23.1366C11.6723 23.0816 11.6426 23.0284 11.6266 22.9727C11.5746 22.7846 11.7051 22.5996 11.9427 22.4938C12.64 22.1442 13.3819 21.9047 14.1219 21.5583C14.6732 21.3182 15.2152 21.0311 15.746 20.7267L15.7596 20.7471Z" fill="#2458A4"/>
<path id="Fill 45" fill-rule="evenodd" clip-rule="evenodd" d="M0.377334 12.1862C0.342066 12.2846 0.256064 12.1441 0.120563 11.8626C0.0778713 11.7735 -0.00751265 11.4877 0.000530762 11.4419C0.0153801 11.3528 0.0333231 11.2668 0.0593095 11.2018C0.0723027 11.1591 0.443537 10.9283 0.570994 10.8535C0.694739 10.7737 0.824671 10.7471 0.954603 10.7303C1.20581 10.6988 1.4601 10.6672 1.7113 10.6363C1.76575 10.6307 1.82082 10.64 1.87465 10.6623C2.06336 10.739 2.24093 10.7279 2.40675 10.6827C2.43459 10.6753 2.46491 10.6796 2.48533 10.6307C2.52678 10.5552 2.94999 10.4822 3.00629 10.5002C3.15602 10.5491 3.30328 10.5769 3.46353 10.619C3.4858 10.6233 3.50003 10.6023 3.5353 10.6456C3.61821 10.7446 3.6541 10.713 3.7005 10.7087C3.76547 10.705 3.82796 10.6951 3.90344 10.7068C3.93995 10.7118 3.99687 10.7557 4.04946 10.7867C4.09648 10.8145 4.15774 10.9618 4.15588 10.9828C4.15155 11.0416 4.20971 11.0979 4.24374 11.1554C4.25426 11.1752 4.26849 11.2012 4.27715 11.2173C4.30066 11.2482 4.02966 11.737 3.97336 11.7611C3.96841 11.7667 3.82177 11.8639 3.66152 11.9647C3.49756 12.0482 3.31937 12.1219 3.28657 12.141C3.25069 12.1621 3.2049 12.1417 3.16283 12.1324C3.14241 12.1349 2.64681 12.3254 2.62763 12.3211C2.52059 12.3229 2.42407 12.3836 2.31146 12.2833C2.28981 12.2635 2.27001 12.2722 2.24959 12.2772C2.07944 12.3149 1.90806 12.2889 1.74286 12.2772C1.65685 12.2716 1.57828 12.297 1.49661 12.3044C1.48176 12.3056 1.46505 12.2902 1.44958 12.2846C1.42978 12.2765 1.4106 12.2635 1.39266 12.2666C1.20642 12.3038 1.01153 12.2648 0.84447 12.352C0.806109 12.3687 0.589556 12.2753 0.546864 12.3056C0.52459 12.3205 0.392183 12.1454 0.377334 12.1862Z" fill="#2458A4"/>
<path id="Fill 47" fill-rule="evenodd" clip-rule="evenodd" d="M3.68527 3.45667C3.58752 3.42511 3.66486 3.30632 3.84367 3.12936C3.90059 3.07244 4.10415 2.95179 4.14437 2.95426C4.22356 2.95921 4.3009 2.96664 4.36278 2.98396C4.40176 2.99262 4.72844 3.32983 4.84167 3.44677C4.9549 3.55752 5.03038 3.68869 5.09906 3.82233C5.2358 4.09519 5.37872 4.36619 5.50123 4.64338C5.52845 4.70525 5.54578 4.77145 5.55011 4.84199C5.56805 5.08267 5.6491 5.29613 5.74934 5.50279C5.76604 5.53682 5.77347 5.5758 5.82297 5.59683C5.90649 5.63148 6.11624 6.21494 6.11191 6.2997C6.10077 6.51192 6.13171 6.70992 6.1181 6.9209C6.11624 6.94998 6.13666 6.97535 6.09954 7.01371C6.01291 7.10281 6.04447 7.15602 6.05128 7.21727C6.06117 7.30204 6.06551 7.38804 6.05437 7.47899C6.0488 7.52416 6.00611 7.57984 5.97517 7.6312C5.94671 7.67822 5.80502 7.69987 5.78646 7.69245C5.73201 7.66956 5.67571 7.71844 5.62002 7.73885C5.60146 7.74566 5.57671 7.75494 5.56063 7.75804C5.53093 7.76175 5.11267 7.39423 5.08792 7.34906C5.06565 7.34163 4.77485 6.71549 4.73092 6.6499C4.70802 6.61525 4.71854 6.56885 4.71978 6.52492C4.72226 6.50326 4.4562 6.02251 4.45002 6.00271C4.42341 5.8932 4.34545 5.80349 4.39371 5.66613C4.40299 5.63891 4.39 5.61911 4.3801 5.59931C4.29472 5.42668 4.25636 5.2355 4.20253 5.0505C4.1753 4.95521 4.12271 4.87231 4.08435 4.78259C4.07693 4.76589 4.08311 4.74423 4.08188 4.72567C4.0794 4.70216 4.08188 4.67679 4.07136 4.65699C3.9637 4.45219 3.90987 4.22079 3.76323 4.03765C3.7323 3.99496 3.70879 3.71962 3.66424 3.67384C3.64134 3.64785 3.72487 3.46966 3.68527 3.45667Z" fill="#2458A4"/>
<path id="Fill 49" fill-rule="evenodd" clip-rule="evenodd" d="M66.0508 5.15973C66.0719 5.2581 65.9265 5.19623 65.6827 5.03351C65.6047 4.98215 65.3975 4.79097 65.3789 4.75261C65.3424 4.67712 65.3078 4.60411 65.2898 4.54595C65.2793 4.51069 65.382 4.19452 65.4068 4.07758C65.4315 3.96621 65.4903 3.88268 65.5552 3.80287L65.9469 3.30046C65.9766 3.26334 66.0174 3.23426 66.0676 3.21384C66.2402 3.14269 66.3509 3.01956 66.4425 2.87725C66.458 2.85312 66.4827 2.83642 66.4685 2.78754C66.4406 2.70772 66.755 2.35938 66.8249 2.33835C66.987 2.28019 67.1404 2.2146 67.3106 2.16882C67.3341 2.16139 67.3421 2.1354 67.391 2.1583C67.5042 2.21151 67.5284 2.16943 67.5717 2.14654C67.6286 2.11251 67.6997 2.09333 67.7789 2.08653C67.8179 2.08281 67.881 2.11004 67.9336 2.12736C67.9819 2.14345 68.0567 2.26286 68.0605 2.28142C68.0679 2.33463 68.1273 2.37423 68.1656 2.41878C68.1786 2.43487 68.1953 2.45467 68.2052 2.46766C68.2158 2.49488 68.1978 2.95954 68.178 2.97996C68.178 2.97996 68.1161 3.09195 68.0617 3.21198C67.9986 3.32335 67.9293 3.43844 67.9206 3.46752C67.9107 3.4966 67.8711 3.49845 67.8402 3.50835C67.8247 3.51145 67.6496 3.87216 67.6379 3.88392C67.5766 3.93775 67.5599 4.03117 67.4275 4.02561C67.4009 4.02499 67.3947 4.04169 67.3861 4.05592C67.3112 4.17781 67.1899 4.26381 67.0798 4.35972C67.0229 4.40922 66.9888 4.47666 66.9418 4.5342C66.9338 4.54472 66.9127 4.54472 66.8985 4.5509C66.8812 4.55833 66.8589 4.56204 66.849 4.57627C66.7488 4.72291 66.5916 4.82376 66.5155 4.99577C66.4988 5.03598 66.2711 5.10404 66.2538 5.1523C66.2439 5.18015 66.0422 5.12075 66.0508 5.15973Z" fill="#2458A4"/>
<path id="Fill 51" fill-rule="evenodd" clip-rule="evenodd" d="M67.6687 10.8926C67.6694 10.9941 67.537 10.918 67.3099 10.7466C67.2381 10.6921 67.0574 10.4917 67.0494 10.4496C67.0315 10.3661 67.0178 10.2844 67.0197 10.2163C67.0154 10.173 67.282 9.79251 67.3841 9.66814C67.4751 9.53883 67.5964 9.4553 67.7213 9.37796C67.9762 9.22823 68.2287 9.07664 68.4879 8.95537C68.5455 8.92753 68.6086 8.91206 68.6754 8.91083C68.9068 8.9034 69.1036 8.82854 69.2923 8.73201C69.3232 8.71593 69.3591 8.71036 69.3758 8.65777C69.4018 8.56125 69.9376 8.38553 70.0211 8.41213C70.2204 8.44493 70.4066 8.44616 70.5953 8.45792C70.6225 8.45978 70.6429 8.43874 70.6801 8.4771C70.7636 8.56248 70.8125 8.53835 70.8694 8.53835C70.948 8.53712 71.0278 8.54021 71.1113 8.55568C71.1534 8.56372 71.206 8.60579 71.2542 8.63487C71.2988 8.66148 71.3235 8.78708 71.3174 8.80502C71.2988 8.85576 71.3452 8.90588 71.3656 8.95537C71.373 8.9727 71.3817 8.99497 71.3848 9.00982C71.3873 9.02343 71.086 9.49552 71.0433 9.51717C71.0389 9.51965 70.8985 9.60194 70.7475 9.6898C70.6015 9.77828 70.4511 9.87356 70.4233 9.89893C70.3936 9.92491 70.3509 9.91378 70.3113 9.91254C70.2866 9.92677 69.8683 10.1705 69.8528 10.1798C69.7545 10.2015 69.6808 10.2807 69.5509 10.2194C69.5255 10.2077 69.5088 10.2207 69.4915 10.2293C69.343 10.3104 69.1741 10.3395 69.0132 10.3865C68.9297 10.4088 68.8635 10.4626 68.788 10.4985C68.7744 10.5053 68.7534 10.4979 68.7367 10.4985C68.7156 10.4991 68.6921 10.4954 68.676 10.5059C68.5108 10.6111 68.3091 10.6593 68.1792 10.8097C68.1476 10.8406 67.9045 10.8629 67.8748 10.9105C67.8581 10.9328 67.6687 10.8499 67.6687 10.8926Z" fill="#2458A4"/>
</g>
</svg>
