<svg width="60" height="60" viewBox="0 0 60 60" fill="none" xmlns="http://www.w3.org/2000/svg">
<g id="Icon">
<path id="Fill 1" fill-rule="evenodd" clip-rule="evenodd" d="M24.6178 57.1557L23.1875 57.679C23.1588 57.6795 23.1158 57.7268 23.0988 57.6896L23.0393 57.6052L22.9203 57.4362L22.6833 57.0988L22.2397 56.4448L21.2637 54.9838C20.6065 54.0147 19.9801 53.0238 19.3404 52.0425C18.6965 51.0644 18.0823 50.0666 17.4596 49.0747C16.8311 48.0865 16.2286 47.0808 15.6251 46.0766C14.7283 44.6214 13.8617 43.146 13.0069 41.6674C10.0747 36.4018 7.41873 30.973 5.24202 25.3488C4.31491 22.8395 3.38834 20.3094 2.68915 17.7428C2.19346 16.108 1.82421 14.4317 1.4709 12.7555L1.07562 10.2138C0.968826 9.3632 0.931635 8.5041 0.871068 7.65191C0.806781 6.58613 1.06924 6.72055 1.40767 7.58869C1.57663 8.02222 1.76523 8.63852 1.93897 9.3818C2.10686 10.1261 2.36294 10.9874 2.51808 11.9384C3.16147 15.2962 4.07477 18.6045 5.19314 21.8576C6.33967 25.1017 7.65196 28.299 9.07424 31.4714C10.8004 35.2574 12.9431 39.0333 15.1145 42.6981C17.5005 46.7301 20.0369 50.6803 22.6801 54.5582L23.2911 55.4524L23.5089 55.7754C23.5584 55.8376 23.5961 55.9385 23.6577 55.9656L24.317 55.7244C24.6634 55.5985 25.0173 55.4954 25.3674 55.3801C26.7748 54.9471 28.2061 54.6113 29.6448 54.3467C34.0137 53.562 38.45 53.4276 42.7906 53.2161C46.1601 53.0429 49.4823 52.8118 52.6594 52.1111C53.009 52.0346 53.3442 51.9325 53.6848 51.8443C54.0153 51.7333 54.3532 51.6382 54.682 51.5176C55.2973 51.3067 55.7887 51.1021 56.1872 50.9125C56.3816 50.8105 56.5697 50.7366 56.7334 50.658C56.8896 50.5703 57.033 50.4949 57.1669 50.4285C57.6823 50.1458 58.0159 49.9965 58.3272 49.8903C58.4723 49.8446 58.6476 49.7601 58.7592 49.7457C58.9478 49.7218 58.9042 49.9524 58.6381 50.4364C58.3549 50.8917 57.7906 51.5867 56.8582 52.1642C55.4779 53.0302 53.9212 53.4823 52.3778 53.8282C50.8259 54.1656 49.2533 54.3404 47.6823 54.4758C44.5375 54.733 41.3811 54.7952 38.2465 54.9726C33.604 55.2308 28.9372 55.6776 24.6353 57.1881L24.6178 57.1557Z" fill="#2458A4"/>
<path id="Fill 3" fill-rule="evenodd" clip-rule="evenodd" d="M46.5655 23.7366C47.3162 25.8968 48.1684 28.0263 49.0854 30.1281C49.4138 30.8984 49.8186 31.6327 50.1602 32.3962C51.3992 35.0728 52.7248 37.7197 54.239 40.2556L54.7426 41.1014L55.2792 41.9249C55.6426 42.4695 55.9805 43.0326 56.3695 43.5512C56.8646 44.2196 57.3364 44.9129 57.8666 45.551C58.1275 45.874 58.3767 46.2071 58.6184 46.5466C58.8809 46.8638 59.1391 47.1863 59.3936 47.5152C59.7076 47.9264 59.5338 48.0156 59.0769 47.8398C58.6349 47.657 57.8167 47.2506 57.1791 46.4961C56.5931 45.84 56.0677 45.1467 55.5444 44.4501C55.0035 43.7637 54.5381 43.0332 54.045 42.3154C53.1179 40.8458 52.2519 39.337 51.4715 37.7776C50.9885 36.8526 50.4971 35.9123 50.003 34.966C49.4887 34.0294 49.019 33.0635 48.5573 32.1039C47.5521 29.9894 46.6585 27.8222 45.8217 25.6365C45.5475 24.9703 45.3313 24.2812 45.0896 23.6027C44.8595 22.9195 44.6002 22.2479 44.3909 21.5583C44.0796 20.5117 43.738 19.473 43.4558 18.4178C43.1998 17.3552 42.8895 16.3097 42.6562 15.2503C42.4814 14.4252 42.2859 13.6117 42.0936 12.7983C41.9406 11.9775 41.8083 11.1524 41.6712 10.3236C41.6399 10.1408 41.6091 9.96017 41.5777 9.779C41.5549 9.5973 41.5442 9.41294 41.5315 9.22592C41.446 7.83925 41.5432 7.3919 41.8625 7.0965C41.9369 7.02902 42.0086 6.94083 42.083 6.90205C42.3327 6.77347 42.5808 7.32336 42.7301 8.29244C43.1217 11.1678 43.738 14.159 44.5397 17.1374C44.8059 18.2494 45.156 19.3449 45.4928 20.4458C45.8057 21.5535 46.2202 22.6326 46.5968 23.7223L46.5655 23.7366Z" fill="#2458A4"/>
<path id="Fill 5" fill-rule="evenodd" clip-rule="evenodd" d="M49.1212 56.0036C47.4355 56.062 41.5275 56.1167 37.0561 56.9599C31.29 58.0469 25.1546 59.0548 22.742 60C11.1614 45.6349 2.25746 30.6588 0 15.3915L1.83774 12.3775C1.83774 12.3775 8.98417 37.4864 16.3617 46.749L23.3015 57.1299C23.3015 57.1299 29.0904 54.2599 52.4408 53.5304C52.4408 53.5304 50.3002 55.9627 49.1212 56.0036Z" fill="#2458A4"/>
<path id="Fill 7" fill-rule="evenodd" clip-rule="evenodd" d="M32.141 6.93961C30.9137 7.02409 29.6885 7.04693 28.4666 7.06925C28.0208 7.07615 27.5766 7.10697 27.1314 7.10484C25.5614 7.08094 23.9957 7.01134 22.4353 6.92314C21.743 6.88648 21.0465 6.87905 20.359 6.86204C19.4776 6.8206 18.5872 6.85939 17.7158 6.63465C17.4443 6.56718 17.4911 6.39291 17.7339 6.19155C17.9767 5.98966 18.4166 5.72136 18.9219 5.72826C20.7166 5.66823 22.4954 5.78617 24.2975 5.92219C25.3755 6.01251 26.4965 5.93706 27.5968 5.9089C28.8076 5.88765 30.0169 5.83293 31.225 5.75695C31.9657 5.69267 32.7111 5.64751 33.4474 5.54656C34.5669 5.41958 35.6863 5.24744 36.7717 4.9887C37.6122 4.77512 38.4134 4.48238 39.2045 4.17104C39.3788 4.10198 39.5488 4.03238 39.7257 3.97181C39.8899 3.91496 40.0286 3.87352 40.1481 3.84749C40.2687 3.82677 40.376 3.83367 40.4653 3.84164C40.6454 3.86077 40.7724 3.92984 40.8951 4.0345C40.9509 4.08179 41.0157 4.1211 41.055 4.16573C41.1825 4.30121 40.9934 4.61414 40.545 4.95204C39.1498 5.78192 37.4996 6.21918 35.8521 6.51989C34.6232 6.7271 33.3821 6.87639 32.1458 6.97096L32.141 6.93961Z" fill="#2458A4"/>
<path id="Fill 9" fill-rule="evenodd" clip-rule="evenodd" d="M9.4717 6.42134L7.64511 6.15516C7.42303 6.12488 7.19883 6.12541 6.97728 6.09459C6.19521 5.98408 5.41421 5.8672 4.63321 5.79813C4.28681 5.76572 3.93668 5.7705 3.59719 5.7806C3.15568 5.77794 2.73171 5.8587 2.30933 5.79707C2.17545 5.77794 2.14516 5.63715 2.22645 5.4427C2.2663 5.346 2.33696 5.22965 2.43578 5.12179C2.53141 5.02776 2.65467 4.95922 2.7944 4.93C3.76083 4.74883 4.68846 4.84871 5.60973 5.00385C6.16068 5.10426 6.73713 5.09417 7.3003 5.1473L9.15186 5.34866L10.2894 5.4767C10.8642 5.53461 11.4396 5.60899 12.0123 5.63343C12.4576 5.64884 12.8975 5.61165 13.3395 5.59783C13.4367 5.59465 13.5329 5.57977 13.6301 5.59199C13.8108 5.60315 13.9271 5.64512 14.0052 5.72641C14.0844 5.79707 14.1264 5.88951 14.1566 6.00693C14.171 6.06006 14.1906 6.11053 14.1981 6.15622C14.2231 6.29861 14.0626 6.47606 13.7879 6.59188C12.983 6.78846 12.1521 6.7348 11.3211 6.65989C10.7043 6.60357 10.0869 6.51803 9.47064 6.44737L9.4717 6.42134Z" fill="#2458A4"/>
<path id="Fill 11" fill-rule="evenodd" clip-rule="evenodd" d="M9.27494 3.54953C9.20481 3.73602 9.02577 3.79711 8.72771 3.80083C8.63367 3.8019 8.43178 3.67757 8.43762 3.60532C8.44931 3.46612 8.46366 3.32054 8.50138 3.18347C8.51838 3.14469 8.68361 2.83813 8.94501 2.52254C9.20853 2.21067 9.57619 1.90784 9.78498 1.77926C10.1792 1.5168 10.6505 1.36538 11.1222 1.31491C12.0913 1.2044 13.0269 1.46421 13.8255 1.86746C14.004 1.96203 14.1729 2.08369 14.3291 2.21227C14.8514 2.68246 15.3179 3.18825 15.7062 3.73973C15.7695 3.83218 15.8338 3.92887 15.9177 4.00326C15.9931 4.06117 16.2551 4.49205 16.4421 4.94896C16.6318 5.40481 16.7646 5.87288 16.7784 5.98285C16.8586 6.53274 16.9256 7.06138 16.9808 7.58683C16.9883 7.66121 17.0212 7.73506 16.9877 7.81263C16.9091 7.99167 16.9628 8.1415 16.9893 8.29982C17.0265 8.51872 17.0589 8.73655 17.0733 8.9581C17.0775 9.06807 17.0377 9.18815 17.0132 9.30556C16.9909 9.41288 16.8198 9.40491 16.7927 9.37569C16.7168 9.29228 16.661 9.39163 16.5967 9.41873C16.5749 9.42776 16.5468 9.43945 16.5271 9.43998C16.4665 9.44582 15.8699 8.25041 15.8486 8.11493C15.8439 8.09899 15.7137 7.64846 15.5771 7.17561C15.4348 6.71179 15.2653 6.24956 15.2196 6.16243C15.175 6.06892 15.1696 5.96054 15.1505 5.85747C15.1415 5.83728 15.0049 5.5015 14.8301 5.20398C14.6612 4.90114 14.4641 4.63337 14.4476 4.61531C14.3153 4.38419 14.1225 4.21577 14.021 3.96128C13.9992 3.91187 13.9572 3.8784 13.9195 3.84334C13.5805 3.5575 13.248 3.27007 12.8346 3.04799C12.6269 2.9412 12.4048 2.86948 12.1864 2.81475C12.1471 2.80519 12.111 2.78075 12.0727 2.76428C12.0244 2.7425 11.976 2.71753 11.925 2.71381C11.4022 2.63305 10.8582 2.64208 10.4055 2.90242C10.3572 2.93748 10.1882 2.98158 10.0288 3.06871C9.86521 3.14628 9.70901 3.25679 9.66226 3.31204C9.61231 3.37155 9.29779 3.4624 9.27494 3.54953Z" fill="#2458A4"/>
<path id="Fill 13" fill-rule="evenodd" clip-rule="evenodd" d="M28.2572 2.15051C28.1987 2.32265 28.0271 2.37099 27.7365 2.36302C27.6451 2.3609 27.4422 2.23711 27.4453 2.1691C27.4512 2.0384 27.4602 1.90133 27.4926 1.77276C27.507 1.73663 27.6568 1.45186 27.8969 1.15752C28.1387 0.866371 28.4782 0.58213 28.6716 0.460995C29.036 0.213412 29.4749 0.0715567 29.9137 0.0242716C30.8153 -0.0793305 31.684 0.159751 32.4236 0.531657C32.5888 0.61932 32.7455 0.732485 32.889 0.853089C33.3693 1.29406 33.8001 1.76213 34.1604 2.27058C34.2188 2.35612 34.2778 2.44591 34.3585 2.51232C34.4303 2.56492 34.6736 2.96232 34.8457 3.38311C35.0205 3.80336 35.1422 4.23371 35.1539 4.33465C35.2214 4.84204 35.2782 5.32711 35.3234 5.80899C35.3292 5.87753 35.3611 5.945 35.326 6.0162C35.2447 6.18249 35.2952 6.31903 35.3186 6.46408C35.3515 6.66384 35.3797 6.86308 35.3892 7.06603C35.3914 7.16698 35.3494 7.27802 35.3223 7.3864C35.2979 7.48522 35.1279 7.4815 35.1018 7.45547C35.028 7.38056 34.9701 7.473 34.9058 7.49904C34.884 7.50807 34.8553 7.51976 34.8362 7.52029C34.7767 7.52719 34.205 6.43857 34.1864 6.31478C34.1816 6.30044 34.061 5.89028 33.934 5.45834C33.8017 5.03649 33.6455 4.6173 33.603 4.53867C33.5611 4.45419 33.5589 4.35484 33.5425 4.2608C33.535 4.24274 33.4086 3.93884 33.2487 3.67107C33.0941 3.39851 32.9145 3.15943 32.8996 3.14349C32.7817 2.9347 32.6053 2.787 32.5219 2.55163C32.5043 2.50594 32.4661 2.47619 32.4321 2.44537C32.1266 2.19089 31.8317 1.92949 31.4603 1.726C31.2744 1.62878 31.0746 1.56502 30.8786 1.51561C30.8435 1.50711 30.8116 1.4832 30.7771 1.4678C30.7341 1.44761 30.691 1.4237 30.6453 1.41998C30.1773 1.34825 29.6906 1.34985 29.2879 1.58627C29.2448 1.61815 29.0929 1.65428 28.9484 1.72972C28.8001 1.7972 28.6583 1.89442 28.6158 1.9449C28.5722 1.99856 28.2758 2.06975 28.2572 2.15051Z" fill="#2458A4"/>
<path id="Fill 15" fill-rule="evenodd" clip-rule="evenodd" d="M27.9565 18.4781C26.3355 18.5621 24.7156 18.5966 23.0973 18.5966C22.5065 18.6009 21.9167 18.6173 21.327 18.6099C19.247 18.5637 17.1707 18.4579 15.0987 18.2922C14.1785 18.2167 13.2551 18.1413 12.3418 18.0664C11.1761 17.9256 9.98177 17.8199 8.8618 17.381C8.51274 17.2487 8.58819 17.1844 8.91652 17.143C9.24061 17.1244 9.82982 17.0096 10.4865 17.0952C12.8306 17.3215 15.1975 17.5144 17.5931 17.6716C19.026 17.771 20.5226 17.7322 21.9906 17.7163C23.6057 17.7003 25.2214 17.6567 26.8344 17.5712C27.8274 17.5223 28.8193 17.4469 29.8075 17.3555C31.3031 17.2067 32.8067 17.0282 34.2592 16.7105C35.3866 16.4661 36.4683 16.1048 37.4831 15.6644C37.6988 15.556 37.9166 15.4551 38.1329 15.3547C38.9335 14.97 39.1657 14.8669 39.4558 14.8701C39.5217 14.8717 39.5987 14.86 39.6508 14.8696C39.7395 14.8861 39.7374 14.9796 39.6524 15.1591C39.6088 15.2463 39.5482 15.3648 39.4574 15.4838C39.3623 15.5932 39.2475 15.7228 39.1046 15.8551C38.8857 16.0321 38.6551 16.192 38.4198 16.3498C38.1807 16.4868 37.9299 16.6218 37.6776 16.7339C37.1718 16.965 36.6495 17.1552 36.1166 17.3119C35.0519 17.6281 33.9585 17.8326 32.8635 18.0053C31.2351 18.2555 29.595 18.3963 27.9602 18.502L27.9565 18.4781Z" fill="#2458A4"/>
<path id="Fill 17" fill-rule="evenodd" clip-rule="evenodd" d="M24.8415 33.5603C25.1247 34.115 25.4196 34.666 25.7171 35.2148C26.0369 35.7519 26.3371 36.3018 26.6766 36.8278L27.4385 37.9669C28.3326 39.3073 29.2592 40.635 30.2772 41.8942C30.7298 42.4515 31.2117 42.9903 31.7058 43.503C32.3412 44.1628 33.0101 44.7887 33.6094 45.4852C33.7954 45.7036 33.6562 45.7998 33.3635 45.7562C33.0734 45.7105 32.6117 45.5378 32.2143 45.176C30.8271 43.8738 29.561 42.4478 28.4389 40.8954C27.7748 39.963 27.0209 39.0412 26.3727 38.0652C26.0183 37.5275 25.6602 36.993 25.3367 36.4362L24.8394 35.6085L24.3745 34.7621C23.9787 34.0757 23.6525 33.3505 23.2907 32.6476C23.0484 32.0982 22.7982 31.551 22.566 30.9974C22.3566 30.4348 22.1165 29.8849 21.9194 29.3217C21.769 28.8834 21.6054 28.4541 21.438 28.0253C21.2988 27.5875 21.1506 27.1519 21.0215 26.7088C20.9583 26.5149 20.9046 26.3231 20.868 26.1206C20.7458 25.3673 20.8249 25.1085 20.9896 24.9205C21.0295 24.8774 21.0661 24.8232 21.1065 24.7956C21.2399 24.7042 21.4317 24.9826 21.6527 25.4852C21.9151 26.2428 22.1919 27.0074 22.4353 27.7916C22.7232 28.5646 22.9937 29.3509 23.3156 30.1266C23.7646 31.2869 24.2959 32.4266 24.8628 33.5471L24.8415 33.5603Z" fill="#2458A4"/>
<path id="Fill 19" fill-rule="evenodd" clip-rule="evenodd" d="M35.4885 31.8534C35.7653 32.3411 36.0395 32.8315 36.3423 33.3065C36.6324 33.7889 36.939 34.2623 37.2567 34.7293C37.482 35.0741 37.7402 35.3955 37.9787 35.7313C38.8091 36.923 39.6592 38.1104 40.5735 39.2484C40.9741 39.7574 41.4103 40.242 41.8407 40.7196C42.4033 41.3253 42.9846 41.9166 43.4803 42.5839C43.6349 42.7922 43.4909 42.8809 43.2167 42.8379C42.9442 42.7938 42.5319 42.6259 42.1871 42.2912C40.9933 41.0803 39.8696 39.7973 38.8564 38.4069C38.2491 37.5786 37.5569 36.7631 36.9422 35.9087C36.2706 34.9673 35.6309 34.0009 35.0311 33.01C34.6629 32.399 34.3064 31.7816 33.9722 31.1515C33.4526 30.2042 33.0063 29.2123 32.5717 28.2294C32.2562 27.4559 31.8965 26.711 31.6462 25.9114C31.5904 25.7361 31.5139 25.5708 31.4799 25.3865C31.3545 24.7054 31.4326 24.4668 31.5963 24.2915C31.6361 24.2511 31.6723 24.2012 31.7126 24.1751C31.8455 24.088 32.0373 24.3329 32.2583 24.7734C32.8108 26.0963 33.2996 27.484 33.9536 28.8447C34.1932 29.3494 34.4387 29.8541 34.6916 30.3567C34.9663 30.8492 35.2107 31.3582 35.5093 31.8396L35.4885 31.8534Z" fill="#2458A4"/>
<path id="Fill 21" fill-rule="evenodd" clip-rule="evenodd" d="M31.8894 30.5666C30.7115 30.6755 29.5331 30.7441 28.3552 30.7877C27.9259 30.8031 27.4972 30.8429 27.0679 30.8456C25.5527 30.8615 24.039 30.8094 22.5301 30.7101C21.8602 30.666 21.1886 30.6219 20.524 30.5783C19.6712 30.5241 18.8132 30.4439 17.9796 30.2309C17.7193 30.1666 17.7756 30.0364 18.0179 29.919C18.2601 29.8021 18.6862 29.6873 19.1718 29.699C20.8868 29.7984 22.5965 29.8563 24.3312 29.978C25.3699 30.046 26.4516 29.9753 27.5126 29.9291C28.6804 29.8807 29.8482 29.8079 31.0128 29.6958C31.7284 29.622 32.4451 29.5476 33.156 29.4398C34.2335 29.2841 35.3162 29.1077 36.356 28.8261C37.1625 28.6067 37.9297 28.3023 38.6506 27.9553C38.8031 27.8735 38.9535 27.7933 39.1065 27.7109C39.6649 27.4145 39.8051 27.3507 40.0665 27.4012C40.1271 27.4123 40.1972 27.4113 40.2519 27.4262C40.4427 27.4495 40.3725 27.8581 39.9294 28.2438C39.2946 28.8171 38.5353 29.1141 37.7814 29.4047C37.0185 29.6746 36.2327 29.8749 35.4427 30.0444C34.2691 30.293 33.0811 30.4641 31.8942 30.5905L31.8894 30.5666Z" fill="#2458A4"/>
<path id="Fill 23" fill-rule="evenodd" clip-rule="evenodd" d="M36.0701 39.367C35.0441 39.4695 34.0187 39.5418 32.9939 39.5986C32.6198 39.6204 32.2479 39.664 31.8739 39.6751C30.5547 39.716 29.2355 39.7081 27.9179 39.6634C27.3319 39.6448 26.7459 39.6263 26.1646 39.6077C25.4187 39.5923 24.6637 39.5354 23.9327 39.3399C23.7047 39.2793 23.7589 39.1492 23.9725 39.028C24.1856 38.9127 24.5548 38.7799 24.9729 38.781C26.4584 38.8134 27.9476 38.8028 29.4618 38.8723C30.3687 38.9095 31.3086 38.8134 32.232 38.7517C33.2484 38.6859 34.2658 38.6051 35.279 38.4946C35.9027 38.4282 36.5248 38.3496 37.1438 38.2555C38.081 38.1126 39.0235 37.9548 39.9241 37.7003C40.62 37.5006 41.2863 37.22 41.8734 36.888C42.0094 36.82 42.1045 36.7227 42.2341 36.6595C42.4376 36.5187 42.5465 36.438 42.6257 36.3976C42.6607 36.3774 42.7064 36.3641 42.7596 36.3514C42.8015 36.3391 42.8499 36.3259 42.9078 36.3094C42.9636 36.2929 43.021 36.2573 43.0746 36.2366C43.1639 36.2015 43.2436 36.2387 43.2893 36.4156C43.3419 36.5889 43.2574 36.8678 43.0821 37.0957C42.8201 37.423 42.5109 37.669 42.1916 37.839C41.8723 38.0255 41.545 38.1716 41.2114 38.3028C40.543 38.5562 39.8566 38.7369 39.167 38.8915C38.1426 39.1173 37.1077 39.2692 36.0748 39.3904L36.0701 39.367Z" fill="#2458A4"/>
</g>
</svg>
