<svg width="14" height="14" viewBox="0 0 14 14" fill="none" xmlns="http://www.w3.org/2000/svg">
<g id="Icon/degree">
<path id="Vector" d="M5.82747 1.84067C6.17606 1.61838 6.58351 1.5 6.99998 1.5C7.41646 1.5 7.8239 1.61838 8.17249 1.84067L12.806 4.79515C12.8651 4.83288 12.9138 4.88429 12.9476 4.94481C12.9815 5.00532 12.9995 5.07307 13 5.14201C13.0005 5.21095 12.9835 5.27894 12.9506 5.33992C12.9176 5.40091 12.8697 5.453 12.8111 5.49155L8.20163 8.53465C7.84703 8.76881 7.42863 8.89396 7.00041 8.89396C6.57219 8.89396 6.15379 8.76881 5.79919 8.53465L1.85739 5.93381V8.57311C1.85739 8.68397 1.81224 8.79029 1.73187 8.86868C1.65151 8.94708 1.5425 8.99112 1.42884 8.99112C1.31519 8.99112 1.20618 8.94708 1.12581 8.86868C1.04545 8.79029 1.0003 8.68397 1.0003 8.57311V5.22904C1.0003 5.21567 1.0003 5.20146 1.00201 5.18724C0.994444 5.11116 1.00833 5.0345 1.04216 4.96555C1.076 4.89659 1.1285 4.83797 1.194 4.79599L5.82747 1.84067ZM2.71449 9.40829V7.50802L5.31836 9.22771C5.81478 9.55549 6.40051 9.73068 6.99998 9.73068C7.59946 9.73068 8.18518 9.55549 8.68161 9.22771L11.2855 7.50802V9.40912C11.2855 9.50836 11.2494 9.60437 11.1835 9.67999L11.1826 9.68167L11.1809 9.68334L11.1758 9.68919L11.1586 9.70758C11.0703 9.80161 10.9779 9.89198 10.8818 9.97845C10.6932 10.1482 10.4172 10.3722 10.0607 10.5971C9.34929 11.0452 8.30449 11.5 7.00084 11.5C5.69548 11.5 4.65153 11.0452 3.93928 10.5971C3.64771 10.4141 3.37272 10.2072 3.11733 9.97845C3.02147 9.89198 2.92939 9.80162 2.84134 9.70758L2.8242 9.68919L2.81906 9.68334L2.81734 9.68167L3.14304 9.40996C2.81649 9.67999 2.81734 9.68083 2.81734 9.68083C2.75116 9.605 2.71471 9.50871 2.71449 9.40912V9.40829Z" fill="#5D6675"/>
</g>
</svg>
