<svg width="10" height="9" viewBox="0 0 10 9" fill="none" xmlns="http://www.w3.org/2000/svg">
<g id="Icon/e-mail" clip-path="url(#clip0_469_7445)">
<path id="Vector" d="M8.28076 1.03125H1.71826C1.42828 1.03157 1.15026 1.14967 0.945206 1.35964C0.740156 1.56961 0.624822 1.85431 0.624512 2.15125V6.95125C0.624822 7.2482 0.740156 7.53289 0.945206 7.74286C1.15026 7.95283 1.42828 8.07093 1.71826 8.07125H8.28076C8.57075 8.07093 8.84877 7.95283 9.05382 7.74286C9.25887 7.53289 9.3742 7.2482 9.37451 6.95125V2.15125C9.3742 1.85431 9.25887 1.56961 9.05382 1.35964C8.84877 1.14967 8.57075 1.03157 8.28076 1.03125ZM8.00381 2.88385L5.19131 5.12385C5.13647 5.16751 5.06898 5.19121 4.99951 5.19121C4.93005 5.19121 4.86256 5.16751 4.80771 5.12385L1.99521 2.88385C1.96217 2.8583 1.93442 2.82627 1.91356 2.78964C1.89271 2.75301 1.87917 2.7125 1.87374 2.67046C1.86831 2.62843 1.87109 2.5857 1.88192 2.54478C1.89275 2.50385 1.91142 2.46554 1.93684 2.43207C1.96225 2.39859 1.99391 2.37062 2.02998 2.34979C2.06604 2.32895 2.10579 2.31566 2.14691 2.31069C2.18803 2.30572 2.22971 2.30917 2.26952 2.32084C2.30933 2.3325 2.34648 2.35215 2.37881 2.37865L4.99951 4.46585L7.62021 2.37865C7.68575 2.32797 7.76812 2.30575 7.84953 2.31678C7.93094 2.32781 8.00484 2.37121 8.05524 2.43759C8.10565 2.50398 8.12851 2.58801 8.11889 2.67152C8.10926 2.75503 8.06792 2.83131 8.00381 2.88385Z" fill="white"/>
</g>
<defs>
<clipPath id="clip0_469_7445">
<rect width="10" height="8" fill="white" transform="translate(0 0.5)"/>
</clipPath>
</defs>
</svg>
