<svg width="540" height="550" viewBox="0 0 540 550" fill="none" xmlns="http://www.w3.org/2000/svg">
<path d="M432.963 222.671L423.839 191.929L340.903 184.491L335.46 225.989C335.463 225.989 420.461 243.943 432.963 222.671Z" fill="white"/>
<path d="M396.839 233.788C369.601 233.788 337.477 227.107 335.322 226.653C334.976 226.581 334.745 226.254 334.79 225.902L340.233 184.404C340.281 184.043 340.611 183.788 340.963 183.818L423.899 191.256C424.176 191.28 424.41 191.472 424.488 191.737L433.613 222.479C433.667 222.659 433.643 222.852 433.547 223.014C428.726 231.219 413.72 233.788 396.839 233.788ZM336.217 225.451C343.872 227.002 420.167 241.879 432.233 222.575L423.325 192.56L341.495 185.221L336.217 225.451Z" fill="#2E3543"/>
<path d="M273.579 108.936L285.399 117.826C283.968 123.524 283.021 129.264 282.577 134.995L268.581 139.672C261.656 141.986 257.259 148.79 257.993 156.054C258.726 163.318 264.394 169.106 271.643 169.987L286.333 171.775C287.935 177.353 289.994 182.787 292.494 188.025L282.685 199.103C277.843 204.57 277.437 212.66 281.705 218.584C285.973 224.508 293.775 226.687 300.495 223.825L314.073 218.046C318.208 222.043 322.723 225.71 327.57 229.028L324.616 243.52C323.158 250.672 326.852 257.885 333.509 260.882C340.166 263.878 348.013 261.862 352.401 256.028L361.291 244.208C366.989 245.638 372.729 246.585 378.46 247.03L383.137 261.026C385.451 267.95 392.255 272.347 399.519 271.614C406.783 270.881 412.571 265.212 413.452 257.964L415.24 243.276C420.818 241.674 426.255 239.613 431.49 237.112L442.568 246.922C448.035 251.76 456.125 252.169 462.049 247.902C467.973 243.634 470.151 235.832 467.29 229.112L461.511 215.534C465.508 211.401 469.175 206.884 472.493 202.036L486.985 204.991C494.14 206.448 501.35 202.755 504.347 196.098C507.343 189.441 505.326 181.594 499.493 177.206L487.673 168.316C489.103 162.618 490.05 156.878 490.495 151.146L504.491 146.47C511.415 144.156 515.812 137.352 515.079 130.088C514.345 122.824 508.677 117.035 501.428 116.155L486.741 114.367C485.139 108.789 483.078 103.355 480.577 98.1164L490.387 87.0386C495.225 81.5718 495.634 73.4813 491.366 67.5577C487.099 61.6341 479.297 59.4552 472.577 62.3163L458.998 68.0957C454.863 64.1015 450.349 60.432 445.501 57.114L448.456 42.6221C449.913 35.4693 446.22 28.2594 439.563 25.26C432.906 22.2637 425.059 24.2803 420.671 30.1137L411.781 41.9339C406.083 40.5033 400.342 39.5566 394.611 39.1118L389.935 25.1158C387.621 18.1914 380.817 13.7945 373.553 14.5278C366.289 15.2611 360.5 20.9293 359.62 28.1782L357.831 42.8685C352.253 44.4704 346.82 46.5291 341.581 49.0296L330.503 39.22C325.037 34.3813 316.946 33.9726 311.023 38.2403C305.099 42.5079 302.92 50.3099 305.781 57.0299L311.561 70.6082C307.563 74.7436 303.897 79.2577 300.579 84.1053L286.087 81.1511C278.931 79.6934 271.721 83.387 268.725 90.044C265.729 96.7009 267.742 104.548 273.579 108.936ZM310.947 109.05C329.737 67.3023 378.815 48.69 420.563 67.4826C462.31 86.2722 480.923 135.35 462.13 177.098C443.34 218.846 394.263 237.455 352.515 218.665C310.767 199.873 292.158 150.798 310.947 109.05Z" fill="white"/>
<path d="M397.912 272.377C390.945 272.377 384.751 267.983 382.5 261.245L377.965 247.673C372.528 247.225 367.016 246.321 361.568 244.977L352.945 256.44C348.335 262.571 340.229 264.653 333.233 261.504C326.236 258.354 322.422 250.907 323.955 243.39L326.819 229.337C322.203 226.149 317.869 222.623 313.929 218.848L300.763 224.454C293.706 227.456 285.646 225.208 281.162 218.984C276.678 212.76 277.098 204.402 282.183 198.658L291.695 187.914C289.336 182.919 287.359 177.702 285.811 172.394L271.565 170.66C263.95 169.732 258.095 163.754 257.323 156.123C256.554 148.49 261.095 141.46 268.371 139.032L281.943 134.497C282.388 129.06 283.295 123.545 284.639 118.096L273.176 109.477C267.045 104.866 264.963 96.761 268.109 89.7644C271.259 82.7679 278.703 78.9541 286.223 80.4868L300.276 83.351C303.461 78.7347 306.987 74.4009 310.765 70.4609L305.16 57.2943C302.154 50.2377 304.405 42.1743 310.629 37.6902C316.85 33.2062 325.211 33.627 330.955 38.7121L341.699 48.2241C346.697 45.8649 351.911 43.8873 357.216 42.3396L358.95 28.0941C359.878 20.4784 365.856 14.6239 373.487 13.8516C381.117 13.0792 388.147 17.6233 390.578 24.8993L395.114 38.4716C400.556 38.9194 406.071 39.8271 411.514 41.1675L420.133 29.7049C424.744 23.574 432.852 21.4912 439.846 24.6409C446.842 27.7905 450.656 35.2378 449.123 42.7543L446.259 56.8075C450.872 59.9932 455.203 63.5185 459.149 67.2962L472.316 61.6912C479.372 58.6888 487.436 60.9369 491.92 67.161C496.404 73.3851 495.983 81.7431 490.898 87.4864L481.386 98.2306C483.745 103.229 485.723 108.446 487.27 113.747L501.513 115.481C509.126 116.41 514.983 122.388 515.755 130.018C516.525 137.652 511.984 144.679 504.708 147.11L491.135 151.645C490.688 157.085 489.783 162.597 488.44 168.046L499.902 176.665C506.033 181.275 508.116 189.381 504.969 196.377C501.819 203.371 494.372 207.188 486.856 205.655L472.803 202.791C469.614 207.41 466.086 211.744 462.314 215.681L467.919 228.847C470.924 235.904 468.673 243.967 462.449 248.448C456.225 252.932 447.864 252.512 442.124 247.427L431.379 237.915C426.384 240.274 421.167 242.251 415.863 243.799L414.126 258.045C413.197 265.66 407.219 271.515 399.589 272.287C399.03 272.35 398.468 272.377 397.912 272.377ZM361.294 243.535C361.348 243.535 361.402 243.541 361.459 243.556C367.124 244.977 372.865 245.921 378.518 246.357C378.788 246.378 379.023 246.558 379.107 246.817L383.783 260.813C386.013 267.485 392.451 271.65 399.456 270.944C406.456 270.237 411.938 264.867 412.788 257.885L414.576 243.198C414.609 242.928 414.799 242.705 415.06 242.63C420.587 241.043 426.021 238.984 431.205 236.508C431.449 236.391 431.743 236.433 431.944 236.613L443.022 246.423C448.288 251.087 455.954 251.469 461.659 247.361C467.366 243.249 469.428 235.859 466.675 229.385L460.895 215.807C460.79 215.558 460.841 215.266 461.031 215.071C464.971 210.995 468.64 206.484 471.94 201.661C472.093 201.435 472.367 201.324 472.634 201.381L487.126 204.336C494.018 205.742 500.846 202.241 503.734 195.827C506.622 189.414 504.711 181.981 499.091 177.753L487.27 168.863C487.051 168.701 486.955 168.421 487.021 168.157C488.443 162.495 489.383 156.754 489.822 151.098C489.843 150.828 490.023 150.596 490.282 150.509L504.278 145.833C510.95 143.603 515.115 137.159 514.409 130.16C513.703 123.16 508.332 117.678 501.351 116.828L486.663 115.04C486.393 115.007 486.171 114.817 486.095 114.556C484.509 109.032 482.45 103.601 479.973 98.4109C479.856 98.1645 479.898 97.8729 480.079 97.6716L489.888 86.5908C494.549 81.3253 494.934 73.6616 490.826 67.9544C486.714 62.2472 479.321 60.1855 472.851 62.9384L459.272 68.7178C459.023 68.823 458.731 68.7719 458.536 68.5825C454.455 64.6395 449.944 60.9669 445.129 57.673C444.904 57.5197 444.792 57.2462 444.85 56.9788L447.804 42.4868C449.207 35.5955 445.709 28.7643 439.296 25.8791C432.879 22.9909 425.45 24.9023 421.221 30.5224L412.331 42.3426C412.169 42.559 411.893 42.6581 411.625 42.592C405.966 41.1705 400.226 40.2298 394.567 39.788C394.296 39.767 394.062 39.5866 393.978 39.3282L389.301 25.3321C387.071 18.6602 380.625 14.4977 373.628 15.201C366.632 15.9072 361.15 21.2779 360.299 28.2594L358.511 42.9496C358.478 43.2201 358.289 43.4425 358.027 43.5177C352.503 45.1045 347.07 47.1632 341.882 49.6396C341.639 49.7568 341.344 49.7148 341.143 49.5344L330.065 39.7249C324.8 35.0635 317.133 34.6758 311.429 38.7872C305.722 42.8986 303.657 50.2888 306.413 56.7624L312.192 70.3407C312.297 70.5901 312.246 70.8816 312.057 71.077C308.114 75.1553 304.444 79.6664 301.147 84.487C300.994 84.7124 300.724 84.8236 300.453 84.7665L285.961 81.8122C279.07 80.4057 272.242 83.907 269.353 90.3204C266.465 96.7339 268.377 104.166 273.997 108.395L285.817 117.285C286.036 117.447 286.132 117.726 286.066 117.991C284.645 123.656 283.701 129.396 283.265 135.049C283.244 135.32 283.064 135.554 282.806 135.639L268.797 140.315C262.125 142.545 257.96 148.988 258.666 155.988C259.373 162.988 264.743 168.469 271.725 169.32L286.415 171.108C286.685 171.141 286.908 171.33 286.983 171.592C288.57 177.119 290.629 182.553 293.105 187.737C293.222 187.983 293.18 188.275 293 188.476L283.19 199.554C278.526 204.819 278.141 212.483 282.253 218.19C286.364 223.898 293.754 225.959 300.228 223.206L313.806 217.427C314.055 217.322 314.347 217.373 314.542 217.562C318.621 221.502 323.132 225.175 327.952 228.472C328.178 228.625 328.289 228.898 328.232 229.166L325.278 243.658C323.874 250.549 327.372 257.38 333.786 260.266C340.199 263.154 347.632 261.242 351.86 255.622L360.75 243.802C360.882 243.634 361.084 243.535 361.294 243.535ZM386.416 226.641C374.962 226.641 363.341 224.279 352.239 219.281C310.218 200.368 291.419 150.792 310.332 108.77C319.495 88.415 336.034 72.8442 356.909 64.928C377.782 57.0118 400.487 57.7001 420.843 66.8605C462.864 85.7733 481.662 135.35 462.75 177.371C448.832 208.294 418.309 226.638 386.416 226.641ZM386.575 60.8106C376.733 60.8106 366.869 62.6018 357.387 66.1963C336.851 73.9832 320.58 89.3016 311.567 109.326C292.961 150.668 311.453 199.44 352.795 218.046C394.14 236.652 442.908 218.16 461.514 176.818C480.121 135.476 461.629 86.705 420.287 68.0987C409.506 63.245 398.053 60.8106 386.575 60.8106Z" fill="#2E3543"/>
<path d="M279.276 164.98C279.276 164.98 269.998 165.323 258.53 165.278C256.117 165.269 249.646 157.524 245.489 158.837C242.505 159.781 248.149 164.86 247.374 164.857C240.023 164.827 233.678 164.8 231.379 164.788C229.579 164.779 228.975 166.621 229.72 168.262C230.787 170.606 233.113 174.158 236.96 175.397C243.837 177.612 257.108 176.614 261.214 175.817C270.185 174.074 277.301 173.942 277.301 173.942L279.276 164.98Z" fill="white"/>
<path d="M248.832 177.428C244.48 177.428 239.972 177.077 236.753 176.04C232.269 174.594 229.91 170.315 229.104 168.541C228.581 167.39 228.611 166.125 229.185 165.236C229.66 164.505 230.463 164.102 231.382 164.109C233.561 164.121 239.371 164.148 246.229 164.175C246.199 164.136 246.169 164.099 246.142 164.06C245.06 162.669 243.578 160.761 244.017 159.354C244.137 158.966 244.456 158.449 245.288 158.188C248.155 157.283 251.756 160.006 254.647 162.194C256.135 163.318 257.818 164.595 258.533 164.598C269.857 164.64 279.159 164.304 279.252 164.301C279.462 164.292 279.661 164.382 279.796 164.544C279.931 164.704 279.982 164.92 279.937 165.124L277.96 174.086C277.894 174.393 277.623 174.612 277.311 174.618C277.238 174.618 270.143 174.772 261.34 176.479C259.089 176.917 254.073 177.428 248.832 177.428ZM231.364 165.464C230.892 165.464 230.541 165.635 230.321 165.972C230 166.468 230.006 167.255 230.336 167.979C231.07 169.59 233.201 173.47 237.168 174.751C243.933 176.929 257.187 175.908 261.084 175.15C268.616 173.687 274.924 173.35 276.752 173.281L278.426 165.686C275.85 165.767 267.877 165.993 258.524 165.954C257.358 165.948 255.798 164.77 253.827 163.276C251.182 161.274 247.891 158.786 245.691 159.48C245.357 159.585 245.318 159.715 245.303 159.76C245.075 160.49 246.569 162.41 247.206 163.231C247.993 164.247 248.291 164.625 248.044 165.124C247.921 165.377 247.662 165.533 247.371 165.533H247.368C240.017 165.503 233.669 165.476 231.373 165.464C231.37 165.464 231.367 165.464 231.364 165.464Z" fill="#2E3543"/>
<path d="M342.111 85.3886C354.039 83.2518 379.648 81.6138 397.563 83.1105C403.051 83.5673 408.254 85.7222 412.464 89.2745C424.804 99.6972 452.838 124.474 454.819 155.044C454.933 156.787 454.155 158.473 452.784 159.561L452.547 158.233C445.8 163.604 437.192 164.622 430.683 158.969L424.879 154.702C424.879 154.702 434.848 190.424 434.169 196.164C433.49 201.904 416.013 211.672 394.155 203.659C376.646 197.24 352.976 196.591 339.016 200.203C338.787 200.263 338.186 206.565 337.964 206.629C336.963 206.905 335.863 206.707 334.826 206.31C332.305 205.342 330.643 202.914 330.582 200.212L329.672 159.588L300.048 153.872C300.048 153.872 314.35 90.3625 342.111 85.3886Z" fill="#2E3543"/>
<path d="M470.37 96.4244C470.036 98.0954 462.252 140.363 458.718 148.874C455.105 157.578 451.784 168.415 436.048 162.422C412.546 153.472 454.126 97.317 456.572 93.5512C456.653 93.422 470.379 96.3853 470.37 96.4244Z" fill="#2E3543"/>
<path d="M260.167 176.34L260.083 166.369C260.065 164.34 261.73 162.699 263.759 162.75C271.843 162.957 290.918 162.296 298.285 152.123C304.476 143.573 306.351 133.306 306.351 133.306C306.351 133.306 337.574 128.609 342.956 153.926C350.593 189.829 279.125 182.024 263.269 179.866C261.502 179.625 260.179 178.126 260.167 176.34Z" fill="#2E3543"/>
<path d="M459.315 94.8044L458.368 82.0045C458.368 82.0045 457.77 72.21 459.691 70.3827C461.103 69.0363 463.105 72.207 463.898 76.6639C464.031 77.4033 465.076 77.4063 465.203 76.6699C465.695 73.7637 465.795 71.654 465.632 68.6726C465.461 65.4599 464.851 59.8007 467.868 59.6775C470.886 59.5513 477.87 67.4044 476.211 76.9044C474.552 86.4044 467.634 96.6136 467.634 96.6136L459.315 94.8044Z" fill="white"/>
<path d="M467.631 97.2898C467.583 97.2898 467.535 97.2838 467.487 97.2748L459.171 95.4686C458.876 95.4055 458.66 95.156 458.639 94.8585L457.692 82.0586C457.587 80.3605 457.178 71.8433 459.222 69.8958C459.709 69.43 460.313 69.2827 460.92 69.4841C462.669 70.0581 464.009 73.4452 464.562 76.5497C465.004 73.7667 465.115 71.7141 464.956 68.7117L464.908 67.8972C464.734 65.0451 464.517 61.4958 465.996 59.8578C466.48 59.3229 467.099 59.0344 467.841 59.0043C469.155 58.9472 470.964 60.0502 472.629 61.9466C475.403 65.1112 477.975 70.7343 476.879 77.0216C475.214 86.5546 468.478 96.5745 468.193 96.9953C468.064 97.1786 467.85 97.2898 467.631 97.2898ZM459.952 94.2514L467.321 95.8533C468.569 93.9268 474.108 85.0159 475.544 76.7871C476.56 70.9687 474.177 65.7664 471.61 62.8362C470.068 61.078 468.611 60.3207 467.895 60.3537C467.523 60.3687 467.237 60.498 467 60.7625C465.903 61.9766 466.116 65.4869 466.258 67.8131L466.306 68.6365C466.471 71.7501 466.357 73.8809 465.867 76.7841C465.756 77.4363 465.218 77.8961 464.559 77.8991C464.556 77.8991 464.553 77.8991 464.553 77.8991C463.889 77.8991 463.348 77.4423 463.231 76.7841C462.57 73.0755 461.211 71.0018 460.499 70.7674C460.409 70.7373 460.316 70.7223 460.157 70.8726C458.924 72.0446 458.822 78.2988 459.045 81.9624L459.952 94.2514Z" fill="#2E3543"/>
<path d="M352.406 58.9323C350.467 58.0517 349.464 59.5183 346.573 59.1216C343.504 58.7009 340.126 56.4258 338.858 53.1018C337.328 49.0866 339.534 45.2578 340.922 42.8445C342.305 40.4432 344.066 37.7714 347.119 36.6173C351.102 35.1116 352.767 37.4228 357.326 36.0042C361.031 34.8502 360.761 33.065 364.061 32.1273C366.811 31.3459 374.736 31.7907 376.512 36.0042C377.636 38.679 375.211 40.3049 376.419 44.266C377.146 46.6433 378.288 46.9348 379.121 48.7711C381.188 53.3272 378.598 61.3306 373.666 64.0114C366.973 67.6509 355.751 60.45 352.406 58.9323Z" fill="#2E3543"/>
<path d="M358.562 66.5779L357.005 79.3598C356.708 81.7942 354.956 83.7988 352.582 84.4179L346.009 86.1309L346.934 86.8372C358.364 95.5408 374.19 95.5528 385.635 86.8733L389.04 84.2916L380.874 82.4674C378.527 81.9444 376.724 80.0631 376.297 77.6978L372.904 58.8691L358.562 66.5779Z" fill="white"/>
<path d="M366.31 94.0231C359.328 94.0231 352.347 91.8051 346.526 87.3722L345.6 86.6659C345.393 86.5096 345.296 86.2481 345.347 85.9957C345.399 85.7402 345.591 85.5389 345.84 85.4728L352.413 83.7597C354.532 83.2067 356.071 81.4486 356.335 79.2757L357.892 66.4938C357.919 66.2744 358.048 66.0851 358.244 65.9799L372.585 58.2651C372.775 58.1629 373.003 58.1569 373.201 58.253C373.397 58.3462 373.535 58.5295 373.574 58.7429L376.967 77.5716C377.346 79.6754 378.939 81.3343 381.024 81.8002L389.19 83.6244C389.448 83.6815 389.647 83.8829 389.704 84.1414C389.758 84.3998 389.662 84.6643 389.451 84.8236L386.046 87.4052C380.234 91.8171 373.27 94.0231 366.31 94.0231ZM347.526 86.4315C358.658 94.7804 374.127 94.7474 385.226 86.3293L387.468 84.6282L380.727 83.1226C378.109 82.5365 376.108 80.4538 375.633 77.812L372.405 59.9L359.193 67.0047L357.679 79.438C357.345 82.1668 355.412 84.3758 352.756 85.07L347.526 86.4315Z" fill="#2E3543"/>
<path d="M371.273 61.4598C371.273 61.4598 376.316 59.5574 374.423 55.3889C372.527 51.2204 369.443 54.298 369.443 54.298C369.443 54.298 366.576 44.0286 360.553 48.0798C354.53 52.1311 348.823 53.6037 348.823 53.6037C348.823 53.6037 350.945 63.9392 354.753 70.8185C357.049 74.966 359.961 77.8571 363.393 76.4626C372.788 72.6428 371.273 61.4598 371.273 61.4598Z" fill="white"/>
<path d="M361.629 77.4995C359.012 77.4995 356.508 75.3717 354.167 71.1401C350.35 64.2518 348.252 54.1597 348.165 53.733C348.093 53.3813 348.309 53.0327 348.658 52.9425C348.715 52.9275 354.332 51.4459 360.178 47.5148C361.762 46.4479 363.309 46.1834 364.773 46.7244C367.541 47.7432 369.161 51.4248 369.792 53.18C370.417 52.7863 371.34 52.3895 372.337 52.5729C373.459 52.7772 374.366 53.6308 375.039 55.1094C375.625 56.4017 375.685 57.6369 375.211 58.782C374.51 60.477 372.824 61.4748 371.992 61.8835C372.151 64.1857 372.241 73.5985 363.655 77.0877C362.97 77.3612 362.297 77.4995 361.629 77.4995ZM349.623 54.0756C350.143 56.3867 352.159 64.7296 355.348 70.4849C357.903 75.0952 360.52 76.8924 363.141 75.8285C371.926 72.2611 370.657 61.9827 370.6 61.5469C370.558 61.2344 370.739 60.9368 371.03 60.8226C371.051 60.8136 373.26 59.9571 373.957 58.256C374.285 57.4626 374.234 56.6151 373.804 55.6654C373.326 54.6135 372.749 54.0215 372.091 53.9013C371.015 53.7089 369.93 54.7638 369.918 54.7728C369.747 54.9441 369.5 55.0102 369.269 54.9471C369.038 54.887 368.854 54.7067 368.788 54.4753C368.773 54.4212 367.243 49.0746 364.298 47.9897C363.249 47.605 362.149 47.8154 360.929 48.6358C355.973 51.9748 351.285 53.5737 349.623 54.0756Z" fill="#2E3543"/>
<path d="M329.673 160.265C329.649 160.265 329.625 160.265 329.601 160.262C329.228 160.223 328.961 159.889 329 159.516C331.389 136.928 334.764 117.838 334.8 117.648C334.866 117.282 335.218 117.035 335.585 117.101C335.951 117.167 336.198 117.519 336.132 117.886C336.099 118.075 332.73 137.123 330.346 159.661C330.31 160.006 330.016 160.265 329.673 160.265Z" fill="white"/>
<path d="M86.23 440.396L92.2047 443.576C91.9613 446.253 91.9432 448.913 92.1476 451.537L86.1519 454.644C83.1856 456.183 81.6799 459.57 82.5274 462.801C83.3749 466.032 86.3472 468.247 89.6862 468.133L96.4543 467.898C97.5723 470.305 98.8917 472.617 100.391 474.808L96.7428 480.512C94.9426 483.325 95.3333 487.012 97.6835 489.387C100.034 491.761 103.715 492.194 106.549 490.424L112.278 486.847C114.429 488.359 116.732 489.699 119.157 490.853L118.85 497.612C118.7 500.948 120.879 503.948 124.101 504.828C127.323 505.712 130.728 504.242 132.296 501.294L135.476 495.319C138.154 495.56 140.814 495.581 143.437 495.376L146.545 501.372C148.084 504.338 151.471 505.844 154.702 504.997C157.932 504.149 160.147 501.177 160.033 497.838L159.799 491.073C162.206 489.955 164.517 488.635 166.708 487.136L172.412 490.784C175.225 492.584 178.913 492.194 181.287 489.843C183.661 487.493 184.094 483.812 182.324 480.978L178.748 475.249C180.259 473.097 181.6 470.795 182.754 468.37L189.513 468.677C192.849 468.827 195.848 466.648 196.729 463.426C197.612 460.204 196.143 456.799 193.194 455.23L187.22 452.051C187.463 449.373 187.481 446.713 187.277 444.09L193.273 440.982C196.239 439.443 197.745 436.056 196.897 432.825C196.05 429.595 193.077 427.38 189.738 427.494L182.973 427.728C181.855 425.321 180.536 423.01 179.036 420.819L182.685 415.115C184.485 412.302 184.094 408.614 181.744 406.24C179.394 403.866 175.712 403.433 172.878 405.203L167.15 408.779C164.998 407.268 162.696 405.927 160.271 404.773L160.577 398.011C160.727 394.675 158.548 391.676 155.327 390.795C152.105 389.912 148.7 391.381 147.131 394.329L143.951 400.304C141.274 400.061 138.611 400.043 135.99 400.247L132.883 394.251C131.344 391.285 127.957 389.779 124.726 390.627C121.495 391.474 119.28 394.447 119.397 397.786L119.632 404.554C117.224 405.672 114.913 406.991 112.722 408.491L107.018 404.842C104.205 403.042 100.518 403.433 98.1433 405.783C95.7691 408.133 95.3363 411.815 97.1065 414.649L100.683 420.377C99.1712 422.529 97.8308 424.831 96.6767 427.256L89.9176 426.95C86.5816 426.8 83.5823 428.979 82.7017 432.2C81.8151 435.425 83.2817 438.827 86.23 440.396ZM103.132 437.796C108.665 417.591 129.529 405.699 149.731 411.229C169.933 416.759 181.828 437.625 176.295 457.827C170.762 478.032 149.899 489.925 129.697 484.392C109.492 478.865 97.5994 458.001 103.132 437.796Z" fill="white"/>
<path d="M152.863 505.913C149.998 505.913 147.321 504.338 145.944 501.685L143.041 496.086C140.688 496.248 138.277 496.23 135.861 496.035L132.892 501.616C131.161 504.867 127.473 506.457 123.921 505.484C120.368 504.51 118.003 501.261 118.171 497.582L118.46 491.268C116.284 490.207 114.201 488.996 112.257 487.656L106.907 490.995C103.782 492.945 99.7935 492.479 97.2029 489.859C94.6122 487.241 94.1915 483.244 96.175 480.142L99.5832 474.814C98.2518 472.833 97.0616 470.741 96.0338 468.586L89.7135 468.806C86.0259 468.932 82.8101 466.534 81.8754 462.972C80.9408 459.411 82.5727 455.738 85.8425 454.043L91.4416 451.14C91.2793 448.787 91.2973 446.377 91.4927 443.96L85.9147 440.991C82.6629 439.26 81.073 435.572 82.0437 432.02C83.0175 428.468 86.2573 426.102 89.9449 426.271L96.2592 426.556C97.3201 424.38 98.5343 422.298 99.8717 420.353L96.5327 415.004C94.5822 411.881 95.048 407.89 97.6687 405.299C100.286 402.709 104.284 402.288 107.385 404.271L112.714 407.679C114.694 406.348 116.786 405.155 118.941 404.13L118.721 397.81C118.595 394.128 120.993 390.906 124.558 389.972C128.119 389.04 131.792 390.669 133.487 393.939L136.39 399.538C138.746 399.376 141.157 399.394 143.57 399.589L146.539 394.008C148.27 390.756 151.958 389.166 155.51 390.137C159.063 391.111 161.425 394.36 161.26 398.038L160.974 404.353C163.15 405.413 165.233 406.625 167.177 407.965L172.527 404.626C175.652 402.675 179.64 403.141 182.231 405.762C184.822 408.38 185.245 412.377 183.259 415.478L179.851 420.807C181.182 422.791 182.375 424.879 183.4 427.034L189.72 426.815C193.402 426.688 196.624 429.087 197.559 432.651C198.493 436.213 196.861 439.885 193.591 441.58L187.992 444.483C188.155 446.84 188.137 449.25 187.941 451.663L193.522 454.632C196.774 456.364 198.364 460.051 197.39 463.604C196.416 467.156 193.177 469.515 189.489 469.353L183.175 469.067C182.114 471.243 180.9 473.329 179.562 475.27L182.901 480.62C184.852 483.743 184.386 487.734 181.765 490.324C179.148 492.915 175.153 493.339 172.049 491.352L166.72 487.944C164.74 489.276 162.648 490.469 160.493 491.493L160.713 497.814C160.839 501.495 158.44 504.717 154.879 505.652C154.203 505.829 153.527 505.913 152.863 505.913ZM143.441 494.703C143.693 494.703 143.925 494.844 144.042 495.07L147.149 501.066C148.553 503.77 151.585 505.117 154.533 504.347C157.479 503.575 159.462 500.909 159.357 497.868L159.123 491.103C159.114 490.832 159.267 490.58 159.513 490.466C161.882 489.366 164.172 488.058 166.324 486.583C166.546 486.429 166.841 486.423 167.072 486.571L172.776 490.219C175.343 491.86 178.646 491.512 180.81 489.369C182.973 487.226 183.361 483.926 181.747 481.344L178.171 475.616C178.027 475.385 178.036 475.09 178.192 474.868C179.67 472.761 181.002 470.48 182.141 468.085C182.258 467.838 182.505 467.688 182.784 467.7L189.546 468.006C192.576 468.145 195.274 466.191 196.08 463.252C196.885 460.316 195.569 457.262 192.879 455.832L186.904 452.652C186.664 452.523 186.523 452.264 186.547 451.994C186.784 449.352 186.805 446.713 186.604 444.147C186.583 443.876 186.727 443.618 186.968 443.492L192.963 440.384C195.668 438.983 197.015 435.945 196.245 433C195.473 430.054 192.789 428.062 189.766 428.173L183 428.408C182.724 428.414 182.478 428.263 182.363 428.017C181.263 425.652 179.956 423.362 178.48 421.207C178.327 420.981 178.321 420.69 178.468 420.458L182.117 414.754C183.758 412.188 183.409 408.885 181.266 406.721C179.124 404.557 175.824 404.169 173.242 405.783L167.514 409.359C167.282 409.504 166.988 409.495 166.765 409.338C164.659 407.857 162.378 406.528 159.985 405.389C159.739 405.272 159.589 405.02 159.601 404.746L159.907 397.984C160.045 394.943 158.089 392.256 155.153 391.45C152.216 390.645 149.163 391.961 147.732 394.651L144.553 400.626C144.423 400.866 144.165 401.007 143.894 400.98C141.256 400.743 138.617 400.722 136.047 400.923C135.777 400.944 135.518 400.8 135.392 400.56L132.285 394.564C130.884 391.859 127.849 390.513 124.9 391.282C121.955 392.054 119.972 394.72 120.077 397.762L120.311 404.53C120.32 404.8 120.167 405.053 119.921 405.167C117.555 406.267 115.262 407.574 113.11 409.05C112.885 409.203 112.59 409.209 112.362 409.062L106.658 405.413C104.091 403.772 100.788 404.121 98.6214 406.264C96.4576 408.407 96.0699 411.707 97.6838 414.288L101.26 420.017C101.404 420.248 101.395 420.542 101.239 420.765C99.7574 422.872 98.4291 425.153 97.29 427.548C97.1728 427.794 96.9174 427.945 96.6469 427.933L89.8878 427.626C86.8373 427.488 84.1595 429.441 83.3541 432.381C82.5487 435.317 83.865 438.37 86.5548 439.801L92.5295 442.981C92.7699 443.11 92.9112 443.368 92.8872 443.639C92.6497 446.281 92.6287 448.919 92.8301 451.486C92.8511 451.756 92.7068 452.015 92.4664 452.141L86.4707 455.249C83.7658 456.649 82.4194 459.688 83.1888 462.633C83.9612 465.578 86.6239 467.568 89.6684 467.459L96.4335 467.225C96.713 467.216 96.9564 467.369 97.0706 467.616C98.1706 469.984 99.478 472.277 100.954 474.426C101.107 474.651 101.113 474.946 100.966 475.174L97.3171 480.878C95.6761 483.445 96.0248 486.748 98.1676 488.915C100.31 491.079 103.61 491.466 106.192 489.853L111.92 486.276C112.152 486.132 112.446 486.141 112.669 486.297C114.775 487.779 117.056 489.107 119.452 490.246C119.698 490.363 119.848 490.616 119.836 490.889L119.53 497.648C119.392 500.69 121.345 503.377 124.284 504.182C127.221 504.988 130.271 503.671 131.705 500.981L134.884 495.007C135.014 494.766 135.272 494.625 135.543 494.652C138.184 494.89 140.823 494.911 143.39 494.709C143.405 494.703 143.423 494.703 143.441 494.703ZM139.702 486.423C136.336 486.423 132.916 485.979 129.517 485.05C119.572 482.327 111.28 475.893 106.174 466.934C101.068 457.974 99.7545 447.564 102.477 437.619C105.2 427.674 111.635 419.382 120.594 414.276C129.553 409.17 139.963 407.857 149.908 410.58C170.441 416.203 182.571 437.481 176.948 458.011C172.259 475.141 156.667 486.423 139.702 486.423ZM139.657 410.544C133.27 410.544 126.965 412.203 121.267 415.448C112.623 420.377 106.414 428.378 103.788 437.974C101.161 447.57 102.426 457.617 107.355 466.26C112.284 474.904 120.284 481.113 129.88 483.74C133.159 484.638 136.462 485.065 139.708 485.065C156.078 485.065 171.123 474.179 175.649 457.647C181.074 437.835 169.368 417.303 149.557 411.878C146.281 410.988 142.957 410.544 139.657 410.544Z" fill="#2458A4"/>
<path d="M172.341 447.952C172.341 429.736 157.587 414.967 139.384 414.967C121.183 414.967 106.427 429.736 106.427 447.952C106.427 466.17 121.18 480.936 139.384 480.936C157.584 480.936 172.341 466.167 172.341 447.952Z" fill="white"/>
<path d="M162.582 471.934C156.646 477.536 148.649 480.978 139.84 480.978C131.035 480.978 123.037 477.536 117.099 471.934C123.966 469.807 131.681 468.61 139.84 468.61C148 468.61 155.715 469.807 162.582 471.934Z" fill="#2458A4"/>
<path d="M129.223 428.681C130.717 427.719 132.457 427.208 134.233 427.208H144.692C147.027 427.208 149.275 428.092 150.988 429.682L151.562 430.214C154.279 432.738 155.228 436.639 153.969 440.132L150.531 449.677L128.481 449.538L125.367 439.11C124.189 435.158 125.761 430.911 129.223 428.681Z" fill="#2458A4"/>
<path d="M134.675 432.843C134.723 432.822 134.819 432.78 134.819 432.78L150.645 443.059V449.259C150.645 452.805 148.986 455.961 146.408 458.008V467.453C146.408 471.189 143.381 474.216 139.646 474.216C135.91 474.216 132.884 471.189 132.884 467.453V458.251C130.119 456.219 128.318 452.955 128.318 449.259V442.683C128.318 438.304 130.927 434.533 134.675 432.843Z" fill="white"/>
<path d="M139.48 461.1C132.952 461.1 127.639 455.79 127.639 449.259V442.683C127.639 436.36 132.784 431.215 139.104 431.215H150.642C151.015 431.215 151.318 431.518 151.318 431.891V449.256C151.318 453.887 148.595 458.119 144.379 460.039C144.036 460.192 143.636 460.045 143.483 459.703C143.327 459.363 143.477 458.96 143.82 458.807C147.555 457.106 149.966 453.358 149.966 449.256V432.567H139.104C133.526 432.567 128.991 437.105 128.991 442.68V449.256C128.991 455.038 133.695 459.742 139.477 459.742C139.85 459.742 140.153 460.045 140.153 460.418C140.159 460.797 139.856 461.1 139.48 461.1Z" fill="#2458A4"/>
<path d="M139.846 481.627C130.899 481.627 122.472 478.171 116.098 471.88C109.137 465.013 105.489 455.474 106.093 445.706C106.117 445.334 106.43 445.045 106.811 445.072C107.184 445.096 107.469 445.415 107.445 445.791C106.868 455.167 110.37 464.328 117.051 470.919C123.173 476.956 131.26 480.274 139.849 480.274C139.925 480.274 140 480.274 140.078 480.274C148.751 480.214 156.884 476.782 162.973 470.606C169.065 464.43 172.386 456.252 172.329 447.579C172.268 438.905 168.836 430.773 162.66 424.681C150.519 412.701 131.032 412.187 118.298 423.512C118.018 423.761 117.592 423.734 117.342 423.455C117.093 423.175 117.12 422.748 117.399 422.499C130.662 410.703 150.96 411.238 163.61 423.716C170.041 430.06 173.618 438.533 173.681 447.567C173.741 456.601 170.282 465.121 163.935 471.553C157.59 477.984 149.118 481.561 140.084 481.624C140.006 481.627 139.925 481.627 139.846 481.627Z" fill="#2458A4"/>
<path d="M139.645 474.892C135.543 474.892 132.207 471.556 132.207 467.453V458.485C132.207 458.113 132.511 457.809 132.883 457.809C133.256 457.809 133.559 458.113 133.559 458.485V467.453C133.559 470.807 136.288 473.539 139.645 473.539C142.999 473.539 145.731 470.81 145.731 467.453V458.007C145.731 457.635 146.035 457.331 146.407 457.331C146.78 457.331 147.084 457.635 147.084 458.007V467.453C147.084 471.553 143.748 474.892 139.645 474.892Z" fill="#2458A4"/>
<path d="M340.003 549.987C332.823 549.987 326.533 545.32 324.492 538.341L320.492 524.664C315.043 524.003 309.613 522.909 304.335 521.403L295.343 532.46C290.534 538.374 282.405 540.135 275.58 536.745C268.754 533.355 265.244 525.815 267.05 518.41L270.416 504.603C266.083 501.351 261.929 497.675 258.058 493.666L244.751 498.742C237.628 501.459 229.712 498.923 225.492 492.572C221.276 486.222 222.006 477.939 227.271 472.43L237.111 462.131C234.917 457.01 233.138 451.756 231.821 446.497L217.789 444.243C210.264 443.035 204.674 436.877 204.196 429.27C203.718 421.663 208.494 414.856 215.809 412.716L229.486 408.716C230.144 403.27 231.241 397.84 232.747 392.562L221.69 383.57C215.776 378.762 214.015 370.635 217.405 363.807C220.795 356.979 228.335 353.471 235.74 355.278L249.547 358.644C252.802 354.307 256.477 350.15 260.484 346.285L255.408 332.978C252.691 325.855 255.227 317.939 261.578 313.719C267.928 309.503 276.211 310.233 281.723 315.501L292.022 325.341C297.137 323.147 302.394 321.371 307.656 320.052L309.907 306.019C311.115 298.494 317.273 292.904 324.88 292.426C332.475 291.948 339.294 296.724 341.434 304.039L345.434 317.719C350.879 318.378 356.31 319.475 361.591 320.98L370.583 309.923C375.391 304.009 383.518 302.248 390.343 305.638C397.171 309.028 400.679 316.568 398.872 323.974L395.506 337.78C399.843 341.032 403.997 344.711 407.864 348.717L421.172 343.641C428.295 340.924 436.214 343.46 440.431 349.811L439.866 350.186L440.431 349.814C444.647 356.164 443.914 364.447 438.649 369.956L428.809 380.255C431.003 385.373 432.782 390.63 434.098 395.889L448.13 398.143C455.656 399.351 461.246 405.509 461.724 413.116C462.202 420.723 457.426 427.53 450.111 429.67L436.431 433.67C435.772 439.119 434.675 444.549 433.17 449.827L444.227 458.819C450.141 463.628 451.902 471.754 448.512 478.582C445.122 485.411 437.582 488.918 430.176 487.112L416.37 483.746C413.118 488.079 409.442 492.233 405.433 496.104L410.509 509.411C413.226 516.534 410.689 524.453 404.339 528.67C397.989 532.887 389.706 532.156 384.197 526.891L373.898 517.051C368.776 519.245 363.523 521.024 358.267 522.341L356.016 536.373C354.807 543.898 348.649 549.488 341.043 549.966C340.697 549.975 340.349 549.987 340.003 549.987ZM304.092 519.951C304.155 519.951 304.218 519.96 304.281 519.978C309.763 521.568 315.419 522.71 321.093 523.371C321.364 523.401 321.589 523.594 321.664 523.852L325.791 537.96C327.75 544.665 333.98 549.04 340.962 548.602C347.931 548.163 353.575 543.042 354.681 536.144L357.004 521.67C357.046 521.403 357.248 521.187 357.512 521.12C362.982 519.777 368.455 517.926 373.777 515.618C374.027 515.509 374.318 515.561 374.514 515.75L385.138 525.899C390.187 530.726 397.778 531.396 403.597 527.531C409.415 523.666 411.741 516.408 409.25 509.883L404.015 496.155C403.918 495.899 403.981 495.614 404.18 495.424C408.372 491.412 412.201 487.085 415.558 482.564C415.72 482.345 416 482.246 416.261 482.312L430.504 485.783C437.29 487.436 444.199 484.223 447.307 477.966C450.415 471.709 448.798 464.262 443.379 459.856L431.977 450.581C431.766 450.41 431.679 450.127 431.754 449.869C433.344 444.384 434.486 438.728 435.147 433.057C435.18 432.786 435.37 432.561 435.631 432.486L449.738 428.359C456.44 426.397 460.819 420.161 460.38 413.188C459.942 406.216 454.82 400.575 447.923 399.469L433.449 397.146C433.179 397.103 432.965 396.902 432.899 396.638C431.556 391.165 429.705 385.692 427.396 380.373C427.288 380.123 427.339 379.832 427.529 379.636L437.678 369.012C442.501 363.963 443.175 356.372 439.31 350.553C435.445 344.735 428.187 342.409 421.662 344.9L407.937 350.135C407.684 350.232 407.396 350.168 407.206 349.97C403.197 345.781 398.869 341.952 394.346 338.592C394.127 338.429 394.028 338.153 394.094 337.888L397.565 323.646C399.218 316.86 396.005 309.95 389.748 306.843C383.491 303.735 376.046 305.349 371.638 310.771L362.363 322.173C362.192 322.384 361.909 322.471 361.651 322.396C356.166 320.806 350.51 319.664 344.839 319.003C344.568 318.973 344.346 318.78 344.268 318.522L340.141 304.415C338.182 297.71 331.952 293.334 324.97 293.773C318.001 294.211 312.357 299.332 311.251 306.23L308.927 320.704C308.885 320.971 308.684 321.188 308.419 321.254C302.944 322.6 297.471 324.451 292.154 326.757C291.905 326.865 291.616 326.814 291.418 326.624L280.797 316.475C275.748 311.649 268.156 310.978 262.338 314.843C256.52 318.708 254.193 325.963 256.685 332.491L261.92 346.219C262.016 346.475 261.953 346.76 261.755 346.95C257.565 350.959 253.74 355.284 250.377 359.81C250.214 360.029 249.938 360.128 249.673 360.065L235.431 356.594C228.642 354.941 221.735 358.154 218.628 364.411C215.52 370.668 217.137 378.115 222.556 382.521L233.961 391.796C234.172 391.967 234.259 392.25 234.184 392.508C232.594 397.996 231.452 403.652 230.791 409.32C230.76 409.591 230.568 409.816 230.31 409.891L216.202 414.018C209.497 415.977 205.122 422.216 205.56 429.189C205.999 436.161 211.12 441.802 218.018 442.908L232.492 445.232C232.759 445.274 232.975 445.475 233.042 445.74C234.385 451.209 236.236 456.682 238.544 462.005C238.653 462.254 238.602 462.546 238.412 462.741L228.263 473.362C223.436 478.411 222.766 486.003 226.631 491.821C230.496 497.639 237.754 499.966 244.279 497.474L258.007 492.239C258.263 492.143 258.548 492.206 258.738 492.404C262.75 496.597 267.077 500.425 271.598 503.782C271.817 503.945 271.916 504.221 271.85 504.486L268.379 518.728C266.726 525.514 269.939 532.424 276.196 535.531C282.453 538.639 289.9 537.025 294.306 531.603L303.581 520.201C303.698 520.041 303.893 519.951 304.092 519.951ZM333.091 504.185C306.186 504.185 279.775 491.163 263.808 467.123C254.659 453.349 249.92 437.535 249.917 421.369C249.917 415.854 250.467 410.297 251.585 404.767C255.97 383.029 268.559 364.3 287.033 352.032C305.507 339.764 327.651 335.421 349.389 339.809C371.127 344.197 389.853 356.783 402.124 375.257C411.486 389.353 415.964 405.293 415.964 421.065C415.964 447.967 402.939 474.384 378.902 490.348C364.803 499.707 348.86 504.185 333.091 504.185ZM251.269 421.366C251.272 437.267 255.934 452.823 264.935 466.374C289.849 503.888 340.64 514.133 378.147 489.218C401.794 473.512 414.606 447.525 414.606 421.065C414.606 405.549 410.2 389.87 400.991 376.006C388.922 357.835 370.499 345.45 349.115 341.134C327.735 336.822 305.949 341.089 287.779 353.159C269.608 365.228 257.223 383.651 252.907 405.035C251.81 410.474 251.269 415.941 251.269 421.366Z" fill="#2E3543"/>
<mask id="mask0_328_70951" style="mask-type:luminance" maskUnits="userSpaceOnUse" x="201" y="177" width="338" height="327">
<path d="M464.42 183.746L261.016 239.772L201.239 339.785L254.08 397.569C247.318 420.194 250.284 445.544 264.37 466.75C289.531 504.633 340.641 514.947 378.524 489.783C401.383 474.6 414.197 449.974 415.243 424.503L493.747 409.915L538.999 314.131L527.416 177.074L464.42 183.746Z" fill="white"/>
</mask>
<g mask="url(#mask0_328_70951)">
<path d="M332.612 322.179C332.612 322.179 310.511 312.117 303.096 310.528C295.682 308.938 283.008 296.553 300.863 280.507C306.649 275.307 305.266 266.649 317.835 260.942C330.403 255.235 343.411 258.273 347.528 266.027C351.645 273.781 346.206 283.473 340.694 286.346C335.179 289.219 332.612 322.179 332.612 322.179Z" fill="#2E3543"/>
<path d="M322.74 338.835L316.736 357.237C316.736 357.237 357.96 354.752 356.383 348.642C355.935 346.911 354.883 345.651 353.6 344.741C347.264 340.233 349.843 321.533 349.843 321.533L360.809 312.244C362.82 310.54 363.214 307.591 361.723 305.421L356.377 297.637C355.475 296.324 355.21 294.674 355.661 293.144L356.608 289.923L346.399 283.109L337.494 272.675C323.281 276.323 318.963 281.964 322.302 292.688C324.444 299.564 320.898 300.913 320.898 300.913C320.898 300.913 313.733 296.97 313.228 304.622C312.723 312.274 325.641 313.208 325.641 313.208C328.147 315.838 329.007 319.631 327.88 323.084L322.74 338.835Z" fill="white"/>
<path d="M316.735 357.913C316.528 357.913 316.329 357.817 316.2 357.649C316.062 357.472 316.023 357.237 316.092 357.024L322.097 338.622L327.236 322.871C328.261 319.73 327.527 316.301 325.322 313.857C323.359 313.671 312.047 312.256 312.555 304.574C312.714 302.155 313.528 300.529 314.974 299.735C317.123 298.56 319.927 299.69 320.889 300.147C321.544 299.705 323.254 298.01 321.658 292.883C320.113 287.921 320.203 284.002 321.937 280.897C324.128 276.969 329.018 274.147 337.328 272.014C337.58 271.95 337.845 272.032 338.01 272.23L346.852 282.596L356.983 289.358C357.23 289.523 357.341 289.826 357.257 290.112L356.31 293.334C355.916 294.674 356.145 296.102 356.935 297.25L362.282 305.034C363.977 307.501 363.532 310.822 361.248 312.757L350.483 321.879C350.209 324.106 348.448 340.242 353.993 344.188C355.571 345.309 356.592 346.751 357.037 348.47C357.197 349.09 357.061 349.715 356.647 350.286C352.782 355.596 320.45 357.691 316.774 357.913C316.762 357.913 316.75 357.913 316.735 357.913ZM317.174 300.571C316.63 300.571 316.092 300.67 315.62 300.928C314.607 301.484 314.03 302.741 313.904 304.667C313.447 311.558 325.565 312.526 325.688 312.535C325.856 312.547 326.013 312.622 326.13 312.742C328.811 315.555 329.727 319.601 328.522 323.294L317.691 356.498C328.156 355.813 352.698 353.414 355.556 349.489C355.784 349.177 355.769 348.96 355.73 348.81C355.369 347.407 354.522 346.222 353.211 345.291C346.618 340.599 349.07 322.218 349.178 321.44C349.199 321.275 349.283 321.124 349.41 321.016L360.376 311.727C362.128 310.242 362.468 307.696 361.17 305.803L355.823 298.019C354.801 296.531 354.507 294.686 355.015 292.955L355.823 290.211L346.029 283.674C345.977 283.641 345.929 283.599 345.89 283.551L337.262 273.438C329.583 275.458 325.087 278.045 323.125 281.565C321.562 284.366 321.508 287.837 322.956 292.489C325.261 299.885 321.315 301.484 321.147 301.55C320.961 301.62 320.753 301.608 320.579 301.511C320.552 301.493 318.839 300.571 317.174 300.571Z" fill="#2E3543"/>
<path d="M318.944 291.582L332.859 301.412C338.759 305.581 346.81 304.874 351.892 299.741L356.235 295.353L371.749 309.933C373.618 312.117 373.227 315.432 370.901 317.124L358.798 327.574C355.216 330.18 350.471 330.549 346.524 328.533L326.4 318.23C326.4 318.23 330.365 311.038 320.898 300.913C311.431 290.788 318.944 291.582 318.944 291.582Z" fill="#2E3543"/>
<path d="M493.844 277.402L467.707 290.497C467.707 290.497 470.7 336.969 443.213 347.605C429.989 352.723 418.433 351.897 409.997 349.661C397.228 346.276 383.839 345.997 370.997 349.099L319.403 361.553C290.891 368.435 269.204 391.628 264.285 420.545C259.025 451.465 253.324 492.272 252.603 527.143C252.47 533.572 258.707 538.212 264.814 536.195L398.102 492.17L403.172 409.047C419.837 410.441 444.169 408.494 474.832 395.135C539.667 366.887 493.844 277.402 493.844 277.402Z" fill="white"/>
<path d="M261.862 537.352C259.776 537.352 257.733 536.685 255.983 535.393C253.336 533.436 251.857 530.425 251.926 527.128C252.665 491.397 258.694 449.385 263.617 420.431C268.588 391.222 290.422 367.852 319.247 360.895L370.84 348.44C383.574 345.366 397.176 345.561 410.171 349.005C421.021 351.882 432.054 351.196 442.969 346.974C469.672 336.641 467.06 290.999 467.03 290.539C467.012 290.268 467.159 290.013 467.403 289.89L493.541 276.795C493.874 276.63 494.277 276.762 494.445 277.093C494.698 277.586 519.507 326.754 506.359 363.527C501.129 378.152 490.613 388.995 475.103 395.751C443.759 409.404 419.136 410.952 403.803 409.774L398.775 492.209C398.757 492.485 398.574 492.723 398.312 492.81L265.024 536.836C263.981 537.181 262.917 537.352 261.862 537.352ZM389.251 347.623C383.132 347.623 377.052 348.332 371.159 349.757L319.565 362.211C291.27 369.042 269.832 391.985 264.954 420.66C260.038 449.568 254.021 491.508 253.282 527.158C253.221 530.01 254.502 532.616 256.789 534.305C259.064 535.985 261.913 536.442 264.603 535.552L397.456 491.671L402.499 409.005C402.511 408.821 402.595 408.653 402.73 408.533C402.868 408.413 403.049 408.356 403.229 408.371C418.355 409.636 443.008 408.259 474.565 394.513C489.721 387.91 499.99 377.331 505.087 363.074C517.256 329.032 496.318 284.026 493.541 278.31L468.407 290.899C468.509 293.174 468.809 303.732 466.432 315.195C462.868 332.371 454.921 343.797 443.459 348.23C432.273 352.558 420.955 353.258 409.826 350.307C403.064 348.521 396.13 347.623 389.251 347.623Z" fill="#2E3543"/>
<path d="M465.149 236.757C465.41 234.984 467.728 229.181 469.035 227.303L481.754 204.173C481.754 204.173 486.857 211.608 485.564 217.415C491.26 215.741 496.035 215.227 496.035 215.227C496.035 215.227 501.98 205.069 503.648 203.103C505.316 201.141 507.375 198.219 510.197 197.33C513.025 196.437 516.526 197.666 516.526 197.666L507.152 223.429L480.497 241.184L496.823 285.102L467.703 290.497L465.149 236.757Z" fill="white"/>
<path d="M467.706 291.173C467.556 291.173 467.406 291.122 467.285 291.026C467.132 290.905 467.039 290.722 467.03 290.527L464.472 236.791C464.469 236.745 464.472 236.703 464.478 236.661C464.749 234.831 467.084 228.946 468.458 226.948L481.158 203.849C481.272 203.644 481.483 203.509 481.717 203.5C481.943 203.491 482.177 203.599 482.309 203.794C482.511 204.089 486.98 210.683 486.397 216.477C490.781 215.269 494.502 214.743 495.62 214.599C496.624 212.892 501.586 204.492 503.131 202.67C503.362 202.4 503.596 202.111 503.843 201.811C505.415 199.896 507.371 197.516 509.989 196.69C512.997 195.74 516.595 196.981 516.745 197.035C516.916 197.095 517.055 197.222 517.133 197.384C517.211 197.546 517.22 197.736 517.157 197.904L507.783 223.666C507.735 223.801 507.642 223.919 507.521 223.997L481.312 241.455L497.453 284.871C497.523 285.057 497.508 285.267 497.408 285.442C497.309 285.616 497.138 285.736 496.942 285.772L467.823 291.167C467.79 291.167 467.748 291.173 467.706 291.173ZM465.828 236.794L468.343 289.688L495.909 284.582L479.863 241.422C479.755 241.127 479.86 240.797 480.121 240.622L506.593 222.99L515.645 198.114C514.548 197.829 512.282 197.384 510.401 197.976C508.165 198.682 506.349 200.891 504.892 202.667C504.639 202.974 504.399 203.269 504.164 203.542C502.554 205.441 496.678 215.467 496.618 215.57C496.51 215.756 496.32 215.876 496.107 215.9C496.059 215.906 491.319 216.426 485.753 218.064C485.522 218.13 485.276 218.073 485.101 217.908C484.927 217.745 484.852 217.499 484.903 217.268C485.856 212.991 483.064 207.65 481.792 205.508L469.63 227.63C469.618 227.651 469.606 227.672 469.591 227.69C468.34 229.484 466.119 235.038 465.828 236.794Z" fill="#2E3543"/>
<path d="M215.628 504.825C215.628 504.825 221.038 398.3 290.408 376.817L309.008 433.135C309.008 433.135 242.83 511.783 236.482 536.294C230.135 560.806 215.628 504.825 215.628 504.825Z" fill="white"/>
<path d="M215.627 505.501C215.615 505.501 215.603 505.501 215.591 505.501C215.219 505.483 214.93 505.165 214.951 504.792C214.966 504.525 216.424 477.729 226.363 448.661C232.208 431.566 239.8 417.032 248.927 405.464C260.363 390.969 274.25 381.115 290.209 376.171C290.57 376.06 290.945 376.261 291.056 376.616C291.168 376.973 290.966 377.352 290.612 377.463C255.058 388.475 236.752 422.478 227.658 449.066C217.773 477.96 216.322 504.594 216.307 504.858C216.286 505.222 215.985 505.501 215.627 505.501Z" fill="#2E3543"/>
<path d="M236.481 536.971C236.409 536.971 236.334 536.959 236.262 536.935C235.907 536.815 235.721 536.427 235.841 536.075C245.047 509.294 297.854 445.598 298.386 444.958C298.624 444.673 299.05 444.631 299.339 444.871C299.627 445.111 299.666 445.535 299.426 445.824C298.894 446.461 246.246 509.967 237.121 536.514C237.025 536.793 236.764 536.971 236.481 536.971Z" fill="#2E3543"/>
<path d="M368.766 352.395L367.513 344.416C367.095 341.75 364.291 338.799 361.977 340.188C342.662 351.782 311.249 341.573 305.939 343.929C290.954 350.574 265.916 388.514 271.578 385.551C295.432 373.06 335.644 381.872 353.851 375.275C367.829 370.211 368.766 352.395 368.766 352.395Z" fill="#2E3543"/>
<path d="M345.797 436.603C345.469 436.603 345.184 436.366 345.13 436.035L334.094 367.936C334.034 367.567 334.286 367.221 334.653 367.161C335.025 367.101 335.368 367.353 335.428 367.72L346.464 435.819C346.524 436.188 346.272 436.534 345.905 436.594C345.869 436.6 345.833 436.603 345.797 436.603Z" fill="#2E3543"/>
<path d="M362.293 421.69C361.995 421.69 361.722 421.492 361.641 421.192L346.905 366.779C346.806 366.419 347.019 366.046 347.38 365.95C347.741 365.854 348.113 366.064 348.209 366.425L362.945 420.837C363.044 421.198 362.831 421.57 362.47 421.666C362.41 421.684 362.35 421.69 362.293 421.69Z" fill="#2E3543"/>
<path d="M345.455 434.632C344.295 434.872 343.487 435.692 343.646 436.465L345.071 443.335C345.23 444.108 346.3 444.537 347.457 444.297C348.617 444.056 349.425 443.236 349.266 442.464L347.841 435.593C347.682 434.824 346.612 434.391 345.455 434.632Z" fill="#2E3543"/>
<path d="M361.984 419.364C360.845 419.683 360.093 420.557 360.307 421.318L362.203 428.074C362.417 428.831 363.51 429.189 364.652 428.867C365.795 428.546 366.543 427.674 366.33 426.914L364.433 420.158C364.22 419.4 363.123 419.043 361.984 419.364Z" fill="#2E3543"/>
</g>
<path d="M333.091 504.185C323.134 504.185 313.243 502.4 303.924 498.935C288.653 493.255 274.922 483.06 264.944 468.794C264.559 468.244 264.178 467.685 263.805 467.123C263.799 467.114 263.793 467.105 263.787 467.096C254.651 453.328 249.917 437.526 249.914 421.372C249.914 415.857 250.464 410.3 251.582 404.77C255.967 383.032 268.556 364.303 287.03 352.035C287.043 352.029 287.052 352.02 287.064 352.014C287.073 352.008 287.082 352.002 287.091 351.996C287.091 351.996 287.094 351.996 287.094 351.993C287.103 351.987 287.115 351.981 287.124 351.975C287.124 351.975 287.124 351.975 287.127 351.975C297.892 344.846 309.796 340.419 322.518 338.814C322.891 338.766 323.227 339.031 323.275 339.4C323.323 339.77 323.059 340.109 322.689 340.158C322.59 340.17 322.491 340.182 322.392 340.197C322.389 340.197 322.389 340.197 322.386 340.197C309.95 341.811 298.307 346.174 287.785 353.165C270.714 364.504 258.75 381.449 253.785 401.191C253.782 401.206 253.779 401.224 253.773 401.239C248.168 423.515 252.234 447.257 264.935 466.381C289.85 503.894 340.64 514.139 378.148 489.224C378.157 489.218 378.166 489.212 378.172 489.209C378.172 489.209 378.175 489.206 378.178 489.206C378.184 489.203 378.19 489.197 378.196 489.194C378.196 489.194 378.199 489.191 378.202 489.191C378.205 489.188 378.214 489.185 378.217 489.182C402.987 472.695 416.866 443.585 414.338 414.096C414.338 414.093 414.338 414.09 414.338 414.087C414.218 412.701 414.065 411.316 413.872 409.927L413.815 409.516C413.815 409.513 413.815 409.513 413.815 409.51V409.507C413.8 409.402 413.785 409.293 413.767 409.188C413.761 409.155 413.761 409.122 413.761 409.089C413.761 408.758 414.002 408.47 414.338 408.419C414.708 408.365 415.054 408.62 415.108 408.99C415.147 409.248 415.183 409.507 415.219 409.765L415.222 409.786V409.789C415.258 410.051 415.294 410.312 415.327 410.574C415.778 414.096 416.003 417.633 416.003 421.162C416.003 430.616 414.386 440.023 411.21 448.982C410.525 450.912 409.767 452.82 408.941 454.705C408.622 455.426 408.295 456.141 407.958 456.853C407.955 456.862 407.949 456.871 407.946 456.88C407.943 456.887 407.94 456.893 407.937 456.899C407.937 456.902 407.937 456.902 407.934 456.905C406.098 460.766 403.976 464.463 401.587 467.967C401.58 467.979 401.571 467.991 401.562 468.006C395.6 476.752 388.083 484.199 379.217 490.144C379.211 490.147 379.205 490.15 379.202 490.156C379.196 490.159 379.196 490.162 379.19 490.165C379.094 490.228 378.998 490.294 378.905 490.357C364.804 499.707 348.86 504.185 333.091 504.185Z" fill="#2E3543"/>
<path d="M112.086 311.153L105.514 345.086C105.514 345.086 166.312 362.608 193.541 333.248L185.565 311.156H112.086V311.153Z" fill="#2E3543"/>
<path d="M11.1658 227.991L25.5465 235.646C24.9635 242.089 24.9154 248.497 25.4083 254.808L10.9795 262.288C3.83868 265.988 0.217191 274.142 2.25484 281.919C4.29249 289.697 11.4513 295.026 19.4877 294.749L35.7738 294.187C38.4697 299.982 41.6373 305.545 45.2528 310.816L36.4711 324.545C32.1373 331.319 33.078 340.191 38.7311 345.91C44.3873 351.626 53.2471 352.663 60.0693 348.404L73.855 339.797C79.0363 343.44 84.5752 346.658 90.4146 349.441L89.6753 365.712C89.3117 373.746 94.5591 380.959 102.316 383.083C110.073 385.208 118.265 381.674 122.043 374.575L129.698 360.195C136.141 360.778 142.549 360.826 148.86 360.333L156.341 374.762C160.04 381.902 168.194 385.524 175.972 383.486C183.75 381.449 189.078 374.293 188.802 366.253L188.24 349.967C194.034 347.271 199.597 344.101 204.868 340.488L218.597 349.27C225.371 353.604 234.243 352.663 239.959 347.007C245.676 341.351 246.712 332.491 242.454 325.669L233.846 311.883C237.489 306.702 240.708 301.163 243.491 295.323L259.762 296.063C267.795 296.426 275.008 291.179 277.133 283.422C279.258 275.665 275.723 267.473 268.625 263.695L254.244 256.04C254.827 249.597 254.875 243.189 254.382 236.875L268.811 229.394C275.952 225.695 279.573 217.541 277.536 209.763C275.498 201.985 268.342 196.657 260.303 196.933L244.017 197.495C241.321 191.701 238.15 186.138 234.538 180.867L243.319 167.138C247.653 160.364 246.712 151.492 241.056 145.776C235.4 140.059 226.54 139.023 219.718 143.281L205.932 151.889C200.751 148.246 195.212 145.027 189.373 142.244L190.112 125.97C190.476 117.937 185.228 110.724 177.471 108.599C169.715 106.474 161.522 110.009 157.744 117.107L150.092 131.488C143.649 130.905 137.241 130.857 130.927 131.35L123.447 116.921C119.747 109.78 111.594 106.159 103.816 108.199C96.0377 110.237 90.7092 117.396 90.9856 125.432L91.5477 141.721C85.7503 144.414 80.1903 147.585 74.9189 151.2L61.1903 142.419C54.4162 138.085 45.5443 139.026 39.8281 144.682C34.1119 150.338 33.075 159.198 37.3336 166.02L45.941 179.806C42.2985 184.987 39.0798 190.526 36.2968 196.365L20.0256 195.626C11.9923 195.262 4.77936 200.51 2.65456 208.267C0.532761 216.02 4.06709 224.213 11.1658 227.991ZM51.8436 221.734C65.1604 173.101 115.377 144.471 164.01 157.788C212.643 171.105 241.273 221.322 227.956 269.955C214.639 318.588 164.422 347.214 115.789 333.9C67.156 320.584 38.5268 270.367 51.8436 221.734Z" fill="white"/>
<path d="M171.55 384.739C165.005 384.739 158.886 381.142 155.742 375.077L148.469 361.045C142.449 361.493 136.27 361.448 130.088 360.913L122.644 374.897C118.689 382.326 110.256 385.962 102.141 383.739C94.0235 381.515 88.6199 374.091 89.0015 365.685L89.7198 349.859C84.1268 347.169 78.7863 344.062 73.8334 340.608L60.4264 348.978C53.2886 353.435 44.1673 352.368 38.2497 346.385C32.3321 340.401 31.3644 331.271 35.8995 324.181L44.4378 310.828C40.9996 305.773 37.9462 300.414 35.3465 294.879L19.5052 295.425C11.0901 295.717 3.72994 290.232 1.59612 282.091C-0.537702 273.949 3.18896 265.558 10.6633 261.684L24.6955 254.411C24.2477 248.388 24.2927 242.209 24.8277 236.03L10.8437 228.589C3.41437 224.634 -0.222144 216.204 2.00184 208.086C4.22582 199.969 11.6461 194.565 20.0552 194.947L35.8785 195.665C38.5683 190.075 41.6758 184.734 45.129 179.778L36.7591 166.372C32.3021 159.231 33.369 150.112 39.3527 144.195C45.3364 138.277 54.4667 137.309 61.5564 141.845L74.9093 150.383C79.9644 146.945 85.326 143.888 90.8589 141.292L90.3119 125.45C90.0204 117.038 95.5052 109.675 103.647 107.541C111.785 105.407 120.179 109.134 124.05 116.608L131.323 130.641C137.349 130.193 143.528 130.238 149.704 130.773L157.146 116.789C161.101 109.359 169.531 105.723 177.648 107.947C185.766 110.171 191.169 117.594 190.788 126L190.069 141.827C195.656 144.513 200.997 147.621 205.953 151.077L219.36 142.707C226.501 138.25 235.619 139.317 241.537 145.301C247.454 151.285 248.422 160.415 243.887 167.505L235.348 180.857C238.787 185.912 241.843 191.274 244.44 196.804L260.278 196.257C268.699 195.971 276.053 201.45 278.187 209.592C280.321 217.733 276.591 226.124 269.12 229.998L255.088 237.271C255.536 243.291 255.491 249.47 254.956 255.652L268.94 263.094C276.369 267.049 280.005 275.479 277.784 283.596C275.56 291.714 268.131 297.118 259.728 296.736L243.905 296.018C241.215 301.611 238.104 306.951 234.654 311.904L243.024 325.311C247.481 332.449 246.414 341.57 240.431 347.488C234.447 353.405 225.317 354.373 218.227 349.838L204.874 341.3C199.822 344.735 194.46 347.791 188.927 350.391L189.474 366.229C189.763 374.641 184.281 382.004 176.14 384.138C174.613 384.547 173.071 384.739 171.55 384.739ZM148.863 359.659C149.115 359.659 149.347 359.798 149.464 360.026L156.944 374.455C160.524 381.361 168.28 384.808 175.803 382.834C183.328 380.862 188.395 374.055 188.128 366.28L187.566 349.994C187.557 349.724 187.71 349.471 187.957 349.357C193.703 346.685 199.263 343.515 204.486 339.932C204.709 339.779 205.006 339.773 205.235 339.92L218.963 348.702C225.518 352.891 233.957 351.999 239.487 346.529C245.017 341.059 246.003 332.629 241.885 326.029L233.278 312.244C233.134 312.012 233.143 311.718 233.299 311.495C236.893 306.383 240.118 300.844 242.886 295.032C243.003 294.785 243.253 294.632 243.529 294.647L259.8 295.386C267.56 295.738 274.433 290.746 276.489 283.245C278.542 275.74 275.182 267.947 268.314 264.293L253.937 256.638C253.696 256.509 253.555 256.25 253.579 255.98C254.159 249.569 254.204 243.159 253.717 236.929C253.696 236.658 253.841 236.4 254.081 236.274L268.51 228.793C275.416 225.214 278.863 217.457 276.889 209.934C274.917 202.409 268.092 197.345 260.335 197.609L244.049 198.171C243.767 198.177 243.526 198.027 243.412 197.781C240.743 192.037 237.572 186.477 233.987 181.251C233.834 181.026 233.828 180.731 233.975 180.503L242.757 166.774C246.946 160.222 246.054 151.78 240.584 146.25C235.111 140.721 226.684 139.735 220.084 143.852L206.296 152.46C206.064 152.604 205.77 152.595 205.547 152.439C200.429 148.841 194.89 145.616 189.087 142.851C188.84 142.734 188.69 142.482 188.702 142.208L189.441 125.934C189.793 118.162 184.801 111.301 177.3 109.248C169.795 107.193 162.002 110.556 158.348 117.423L150.696 131.804C150.567 132.044 150.308 132.185 150.038 132.158C143.633 131.578 137.223 131.533 130.987 132.02C130.716 132.041 130.458 131.9 130.335 131.656L122.854 117.228C119.275 110.321 111.518 106.874 103.995 108.849C96.4699 110.82 91.4028 117.627 91.6703 125.402L92.2323 141.688C92.2413 141.959 92.0881 142.211 91.8416 142.325C86.0984 144.994 80.5354 148.165 75.3121 151.747C75.0867 151.901 74.7921 151.907 74.5637 151.759L60.8352 142.978C54.2804 138.788 45.8413 139.681 40.3114 145.151C34.7815 150.62 33.7957 159.05 37.9131 165.65L46.5205 179.436C46.6648 179.667 46.6558 179.962 46.4995 180.184C42.905 185.299 39.6773 190.838 36.9123 196.648C36.7951 196.894 36.5397 197.044 36.2692 197.032L19.998 196.293C12.2261 195.944 5.36486 200.933 3.30918 208.435C1.2535 215.936 4.61652 223.729 11.4838 227.387L25.8646 235.041C26.105 235.171 26.2462 235.429 26.2222 235.7C25.6421 242.107 25.5971 248.518 26.0839 254.751C26.105 255.021 25.9607 255.28 25.7203 255.406L11.2915 262.886C4.3851 266.466 0.937931 274.223 2.91247 281.745C4.88399 289.27 11.7122 294.341 19.4661 294.07L35.7522 293.508C36.0348 293.499 36.2752 293.652 36.3894 293.899C39.0612 299.645 42.2318 305.205 45.8143 310.428C45.9675 310.654 45.9735 310.948 45.8263 311.177L37.0446 324.905C32.8521 331.457 33.7477 339.899 39.2174 345.429C44.6872 350.959 53.1173 351.945 59.7171 347.824L73.5028 339.217C73.7342 339.073 74.0288 339.082 74.2512 339.238C79.3633 342.832 84.9022 346.057 90.7146 348.825C90.9611 348.942 91.1113 349.195 91.0993 349.468L90.36 365.742C90.0084 373.514 95.0003 380.376 102.502 382.428C110.006 384.484 117.796 381.121 121.454 374.257L129.108 359.876C129.238 359.635 129.493 359.494 129.767 359.521C136.177 360.101 142.587 360.146 148.815 359.656C148.83 359.659 148.845 359.659 148.863 359.659ZM140.042 337.858C131.888 337.858 123.684 336.764 115.608 334.553C91.9138 328.064 72.1624 312.736 59.9966 291.395C47.8309 270.054 44.7023 245.251 51.1909 221.556C57.6795 197.862 73.0069 178.111 94.3481 165.945C115.689 153.776 140.493 150.65 164.187 157.139C187.882 163.628 207.633 178.955 219.799 200.296C231.967 221.637 235.093 246.441 228.604 270.138C222.116 293.833 206.788 313.584 185.447 325.75C171.382 333.765 155.808 337.858 140.042 337.858ZM139.756 155.185C124.222 155.185 108.879 159.219 95.0183 167.12C73.9897 179.108 58.8877 198.568 52.4952 221.914C46.1028 245.26 49.1833 269.699 61.1718 290.725C73.1602 311.754 92.62 326.856 115.966 333.248C139.312 339.641 163.751 336.56 184.777 324.572C205.806 312.583 220.908 293.123 227.3 269.778C233.693 246.432 230.612 221.992 218.624 200.966C206.635 179.938 187.175 164.836 163.829 158.443C155.874 156.261 147.787 155.185 139.756 155.185Z" fill="#2E3543"/>
<path d="M23.2152 161.091C23.2152 161.091 21.8026 143.242 21.1565 138.428C20.4202 132.952 28.3604 138.683 29.797 155.522L23.2152 161.091Z" fill="white"/>
<path d="M23.2152 161.767C23.128 161.767 23.0379 161.749 22.9537 161.716C22.7193 161.62 22.56 161.398 22.539 161.145C22.5239 160.968 21.1204 143.26 20.4833 138.518C20.318 137.292 20.5284 136.447 21.1114 136.014C21.3699 135.822 21.9259 135.558 22.7794 135.939C25.3821 137.108 29.4874 143.94 30.4672 155.465C30.4852 155.685 30.398 155.898 30.2297 156.039L23.651 161.608C23.5277 161.713 23.3715 161.767 23.2152 161.767ZM21.9499 137.096C21.9349 137.096 21.9259 137.099 21.9199 137.099C21.8718 137.135 21.7065 137.454 21.8267 138.338C22.3677 142.35 23.4436 155.501 23.7832 159.724L29.0877 155.234C28.12 144.655 24.5345 138.635 22.4789 137.316C22.1964 137.129 22.019 137.096 21.9499 137.096Z" fill="#2E3543"/>
<path d="M13.5762 243.811C13.5762 243.811 24.2333 185.348 24.3685 183.403C24.4677 181.997 24.2723 180.59 23.8035 179.259C22.4331 175.367 19.596 167.045 19.5689 164.722C19.5419 162.335 21.5945 160.514 22.5052 159.823C23.0461 159.414 23.5631 158.975 24.077 158.531L28.8616 154.395C30.0517 153.418 30.6317 151.805 32.2697 152.048C35.3952 152.511 36.3119 157.869 36.3119 157.869C36.3119 157.869 39.3383 155.48 40.9883 156.619C42.6382 157.761 45.4152 166.089 41.4962 174.642C37.5772 183.196 36.4291 179.271 36.1226 188.146C36.0023 191.692 36.5884 225.31 36.5884 225.31C36.5884 228.096 39.5547 229.884 42.0191 228.58L63.21 217.364L70.2697 253.248L32.465 261.874C21.5134 264.377 11.5686 254.868 13.5762 243.811Z" fill="white"/>
<path d="M28.967 262.95C24.8106 262.95 20.7743 261.363 17.6938 258.417C13.7147 254.613 11.9265 249.107 12.9093 243.691C16.5939 223.483 23.5874 184.864 23.6926 183.358C23.7857 182.045 23.6084 180.743 23.1636 179.487C21.5798 174.991 18.917 167.096 18.89 164.734C18.8599 162.035 21.12 160.024 22.0967 159.288C22.6377 158.879 23.1546 158.437 23.6355 158.023L28.42 153.887C28.7506 153.617 29.0361 153.283 29.3126 152.962C30.0399 152.117 30.8664 151.158 32.3721 151.381C35.0559 151.778 36.2881 155.047 36.7509 156.748C37.902 156.03 39.9336 155.068 41.3792 156.066C43.495 157.527 46.0255 166.399 42.1186 174.928C40.5588 178.333 39.4287 179.8 38.6053 180.87C37.4272 182.402 36.9854 182.973 36.808 188.173C36.6878 191.662 37.2679 224.968 37.2739 225.304C37.2739 226.386 37.8209 227.354 38.7375 227.904C39.6541 228.454 40.7661 228.487 41.7098 227.985L62.9007 216.769C63.0901 216.67 63.3155 216.664 63.5078 216.757C63.7002 216.85 63.8384 217.027 63.8805 217.238L70.9401 253.122C71.0123 253.48 70.7839 253.831 70.4262 253.912L32.6216 262.538C31.4074 262.814 30.1812 262.95 28.967 262.95ZM14.2407 243.931C13.339 248.899 14.98 253.948 18.6285 257.438C22.277 260.927 27.3952 262.339 32.318 261.215L69.4825 252.734L62.7264 218.389L42.3409 229.178C40.9735 229.902 39.3626 229.857 38.0372 229.061C36.7119 228.261 35.9185 226.861 35.9185 225.313C35.8944 223.952 35.3324 191.647 35.4526 188.125C35.6359 182.748 36.0988 181.903 37.5293 180.043C38.3137 179.024 39.3897 177.627 40.8863 174.363C44.8294 165.759 41.791 157.996 40.6098 157.178C39.6722 156.529 37.5955 157.722 36.7359 158.401C36.5496 158.549 36.2971 158.588 36.0747 158.504C35.8523 158.419 35.69 158.221 35.651 157.987C35.4166 156.631 34.3346 153.037 32.1768 152.718C31.4404 152.61 31.0407 153.028 30.3405 153.842C30.0249 154.209 29.7003 154.585 29.2946 154.921L24.5251 159.048C24.0292 159.477 23.4912 159.934 22.9202 160.367C22.1087 160.98 20.2274 162.636 20.2514 164.719C20.2694 166.278 21.8382 171.634 24.4469 179.039C24.9518 180.47 25.1532 181.955 25.048 183.454C24.9067 185.408 14.6794 241.536 14.2407 243.931Z" fill="#2E3543"/>
<path d="M29.3339 173.765C28.7027 173.765 28.1497 173.627 27.7019 173.395C26.4788 172.77 25.8777 171.43 26.1331 169.897C26.6921 166.531 28.9281 164.71 29.0243 164.635C29.3158 164.4 29.7426 164.448 29.977 164.74C30.2114 165.031 30.1634 165.458 29.8718 165.692C29.8538 165.707 27.9424 167.285 27.4705 170.122C27.3112 171.081 27.6208 171.835 28.3241 172.193C29.2948 172.692 31.2242 172.473 33.4633 170.219C37.1358 166.525 35.6061 157.74 35.5911 157.65C35.5249 157.283 35.7684 156.932 36.138 156.866C36.5077 156.8 36.8563 157.043 36.9255 157.413C36.9946 157.8 38.5904 166.985 34.428 171.174C32.5226 173.077 30.7344 173.765 29.3339 173.765Z" fill="#2E3543"/>
<path d="M257.781 345.056C252.759 342.201 250.757 339.908 248.897 335.184C248.897 335.184 238.537 302.341 230.438 281.733C227.198 273.486 219.94 258.039 212.562 242.798L186.358 257.426C186.078 257.582 185.817 257.756 185.567 257.943C198.424 279.446 222.038 318.862 224.553 322.501C224.553 322.501 237.41 341.51 236.785 351.374C236.388 357.607 238.817 369.112 248.022 375.558C249.946 376.904 252.458 374.837 251.496 372.694C251.481 372.661 251.466 372.625 251.448 372.592C250.015 369.559 247.463 365.734 247.463 365.734C247.463 365.734 252.494 365.782 257.754 369.929C263.013 374.076 274.184 381.509 276.498 379.011C280.465 374.723 278.106 356.606 257.781 345.056Z" fill="white"/>
<path d="M275.07 380.168C269.72 380.168 257.909 370.912 257.335 370.458C253.927 367.771 250.597 366.867 248.806 366.563C249.68 367.945 251.102 370.281 252.061 372.303L252.112 372.417C252.677 373.68 252.349 375.068 251.273 375.955C250.194 376.844 248.767 376.908 247.634 376.111C237.713 369.163 235.756 356.865 236.108 351.329C236.712 341.808 224.12 323.066 223.99 322.877C221.49 319.261 198.478 280.856 184.983 258.285C184.806 257.988 184.881 257.606 185.158 257.399C185.449 257.179 185.732 256.993 186.026 256.831L212.23 242.203C212.393 242.113 212.585 242.092 212.762 242.149C212.939 242.206 213.087 242.333 213.168 242.501C222.262 261.285 228.285 274.4 231.065 281.484C239.077 301.878 249.434 334.649 249.539 334.976C251.351 339.581 253.278 341.721 258.113 344.464C274.811 353.952 277.97 366.716 278.541 370.401C279.154 374.368 278.577 377.755 276.996 379.462C276.542 379.955 275.881 380.168 275.07 380.168ZM247.465 365.054C247.468 365.054 247.468 365.054 247.471 365.054C247.685 365.057 252.794 365.153 258.173 369.394C265.365 375.062 274.454 380.219 276.004 378.545C277.288 377.16 277.747 374.119 277.206 370.611C276.66 367.077 273.618 354.833 257.446 345.646C252.352 342.751 250.209 340.365 248.268 335.43C248.147 335.058 237.806 302.329 229.809 281.98C227.071 275.01 221.168 262.144 212.263 243.736L186.687 258.015C186.615 258.054 186.546 258.096 186.474 258.141C200.001 280.765 222.65 318.558 225.111 322.116C225.646 322.907 238.094 341.435 237.46 351.419C237.127 356.69 238.984 368.402 248.412 375.005C249.166 375.534 249.942 375.306 250.414 374.912C250.885 374.521 251.255 373.809 250.879 372.97L250.84 372.889C249.44 369.932 246.924 366.145 246.9 366.109C246.762 365.902 246.75 365.631 246.867 365.412C246.987 365.19 247.216 365.054 247.465 365.054Z" fill="#2E3543"/>
<path d="M52.7438 215.452L58.3278 209.183C67.7888 198.676 79.6991 190.679 93.0009 185.904L102.092 182.64C102.798 182.384 154.509 177.074 172.075 182.883C183.045 186.511 197.381 194.995 216.892 234.51C218.331 237.428 217.171 241.118 214.334 242.702L185.729 258.67C183.24 260.058 183.304 263.187 183.676 266.015L192.175 312.027C192.662 314.663 191.535 317.353 189.281 318.804C182.186 323.376 161.481 330.48 116.154 323.192C105.539 321.485 97.0191 313.494 94.6028 303.008L86.2959 266.983C85.779 263.935 81.6075 262.442 78.3767 261.738C76.5615 261.345 74.7041 261.309 72.8498 261.435C68.9488 261.702 65.2492 259.295 64.002 255.436L51.3493 223.143C50.3215 220.522 50.8625 217.544 52.7438 215.452Z" fill="white"/>
<path d="M151.353 326.985C141.787 326.985 130.141 326.126 116.046 323.859C105.112 322.101 96.4357 313.975 93.9412 303.158L85.6343 267.133C85.1535 264.308 80.7897 262.955 78.2291 262.399C76.6693 262.06 74.9743 261.97 72.8915 262.111C68.6059 262.403 64.6778 259.746 63.3524 255.646L50.7148 223.39C49.5878 220.511 50.1709 217.295 52.2386 214.999L57.8195 208.732C67.3226 198.178 79.4072 190.063 92.7691 185.266L101.857 182.003C102.191 181.882 154.379 176.319 172.282 182.24C183.838 186.06 198.243 195.223 217.492 234.209C219.094 237.452 217.823 241.527 214.655 243.291L186.05 259.259C183.925 260.446 183.991 263.295 184.337 265.925L192.833 311.901C193.374 314.837 192.124 317.771 189.641 319.369C186.245 321.563 175.369 326.985 151.353 326.985ZM74.6767 260.692C76.0832 260.692 77.3335 260.819 78.5206 261.077C82.0549 261.846 86.3887 263.475 86.9627 266.868L95.2636 302.855C97.6348 313.13 105.876 320.851 116.265 322.522C165.271 330.402 184.262 321.233 188.917 318.233C190.937 316.932 191.953 314.546 191.511 312.151L183.012 266.138C182.603 263.022 182.57 259.659 185.401 258.078L214.006 242.11C216.552 240.689 217.573 237.413 216.287 234.807C197.26 196.269 183.153 187.256 171.865 183.523C154.941 177.927 104.187 182.877 102.266 183.292L93.2319 186.538C80.0804 191.259 68.1881 199.244 58.8354 209.631L53.2544 215.897L53.2514 215.9C51.5293 217.815 51.0424 220.493 51.9801 222.891L64.6327 255.184C65.7808 258.73 69.1348 261.005 72.8044 260.753C73.4595 260.713 74.0817 260.692 74.6767 260.692Z" fill="#2E3543"/>
<path d="M148.169 256.945C148.025 256.945 147.881 256.9 147.758 256.806C135.766 247.628 132.187 237.539 132.043 237.112C131.919 236.761 132.109 236.373 132.46 236.253C132.812 236.129 133.2 236.319 133.32 236.67C133.356 236.77 136.932 246.817 148.578 255.731C148.876 255.959 148.933 256.383 148.704 256.68C148.575 256.855 148.374 256.945 148.169 256.945Z" fill="#2E3543"/>
<path d="M105.515 255.499C105.311 255.499 105.106 255.406 104.974 255.229C95.8827 243.165 95.1434 232.487 95.1163 232.036C95.0953 231.663 95.3778 231.342 95.7505 231.321C96.1292 231.3 96.4447 231.582 96.4658 231.955C96.4718 232.06 97.2261 242.699 106.056 254.414C106.281 254.712 106.221 255.135 105.924 255.361C105.797 255.454 105.656 255.499 105.515 255.499Z" fill="#2E3543"/>
<path d="M148.395 206.845C119.562 219.843 102.184 194.201 102.184 194.201C101.704 193.669 101.172 193.207 100.601 192.81L100.847 192.723C101.178 192.605 101.505 192.485 101.83 192.359C114.705 187.382 122.891 174.63 122.576 160.818L122.396 152.883L143.953 152.658C143.953 152.658 144.521 181.687 154.472 181.903L159.972 182.546C164.083 191.956 158.066 202.484 148.395 206.845Z" fill="white"/>
<path d="M132.461 211.173C113.614 211.173 102.323 195.575 101.653 194.625C101.223 194.156 100.739 193.736 100.213 193.369C100.006 193.225 99.8946 192.975 99.9276 192.723C99.9607 192.47 100.135 192.26 100.372 192.176L100.619 192.089C100.943 191.974 101.265 191.854 101.584 191.731C114.047 186.913 122.21 174.498 121.897 160.839L121.717 152.904C121.714 152.724 121.78 152.55 121.906 152.418C122.032 152.288 122.204 152.213 122.387 152.21L143.944 151.985C144.311 151.982 144.621 152.276 144.627 152.649C144.783 160.541 146.857 181.065 154.481 181.23L160.044 181.879C160.282 181.906 160.489 182.06 160.585 182.279C165.117 192.639 158.085 203.218 148.669 207.464C142.793 210.115 137.372 211.173 132.461 211.173ZM101.968 193.032C102.221 193.258 102.458 193.498 102.687 193.748C102.708 193.772 102.729 193.796 102.744 193.823C102.786 193.886 107.126 200.197 114.867 204.846C125.203 211.053 136.389 211.518 148.113 206.232C156.819 202.307 163.377 192.657 159.497 183.181L154.388 182.583C144.729 182.375 143.446 157.863 143.292 153.349L123.084 153.56L123.249 160.809C123.574 175.039 115.063 187.974 102.07 192.996C102.04 193.005 102.004 193.02 101.968 193.032Z" fill="#2E3543"/>
<path d="M122.491 154.013L121.394 139.446C120.859 132.339 126.392 126.238 133.512 126.084L152.229 125.682C152.229 125.682 153.681 134.815 158.568 139.122L156.383 143.227L154.225 150.777C153.753 152.421 152.404 153.674 150.724 153.989L139.438 153.998L122.491 154.013Z" fill="white"/>
<path d="M122.489 154.69C122.138 154.69 121.843 154.419 121.816 154.065L120.719 139.497C120.446 135.87 121.642 132.393 124.082 129.7C126.522 127.01 129.864 125.486 133.495 125.408L152.212 125.006C152.543 124.994 152.841 125.243 152.895 125.577C152.91 125.667 154.367 134.524 159.014 138.617C159.248 138.824 159.311 139.167 159.164 139.443L157.012 143.486L154.872 150.966C154.325 152.88 152.783 154.293 150.845 154.66C150.803 154.669 150.761 154.672 150.722 154.672L139.437 154.681C139.064 154.681 138.76 154.377 138.76 154.004C138.76 153.632 139.064 153.328 139.437 153.328L150.656 153.319C152.059 153.034 153.171 151.994 153.571 150.596L155.729 143.047C155.741 143.002 155.759 142.957 155.783 142.915L157.721 139.272C153.667 135.362 152.062 128.441 151.662 126.379L133.522 126.77C130.267 126.839 127.271 128.206 125.083 130.617C122.892 133.03 121.819 136.149 122.065 139.401L123.162 153.968C123.189 154.341 122.91 154.666 122.537 154.693C122.525 154.69 122.507 154.69 122.489 154.69Z" fill="#2E3543"/>
<path d="M136.01 189.146C135.4 189.146 134.73 189.071 134.005 188.888C133.642 188.795 133.422 188.428 133.516 188.064C133.609 187.701 133.975 187.481 134.339 187.575C137.462 188.365 139.232 186.736 139.25 186.718C139.523 186.463 139.95 186.475 140.206 186.745C140.461 187.016 140.449 187.445 140.178 187.701C140.1 187.776 138.613 189.146 136.01 189.146Z" fill="#2E3543"/>
<path d="M155.954 124.573L146.544 129.565C141.02 132.495 137.227 137.893 136.362 144.09C135.151 152.754 134.114 167.763 125.861 180.428C119.472 190.231 108.685 196.29 97.0125 197.026C89.3187 197.513 80.2184 200.425 75.3557 205.342C75.3557 205.342 59.878 185.089 75.4278 167.309C90.9777 149.532 111.426 150.689 115.456 131.819C119.312 113.759 141.333 100.376 156.868 120.128C158.004 121.582 157.583 123.707 155.954 124.573Z" fill="#2E3543"/>
<path d="M279.275 164.98C279.275 164.98 269.997 165.323 258.529 165.277C256.116 165.268 249.645 157.524 245.489 158.837C242.504 159.781 248.148 164.86 247.373 164.857C240.022 164.827 233.677 164.8 231.378 164.788C229.578 164.779 228.974 166.621 229.719 168.262C230.786 170.606 233.112 174.158 236.959 175.397C243.836 177.612 257.107 176.614 261.213 175.817C270.184 174.074 277.3 173.942 277.3 173.942L279.275 164.98Z" fill="white"/>
<path d="M248.831 177.428C244.479 177.428 239.971 177.077 236.752 176.04C232.268 174.594 229.909 170.315 229.103 168.541C228.58 167.39 228.61 166.125 229.184 165.235C229.659 164.505 230.462 164.102 231.381 164.108C233.56 164.12 239.37 164.147 246.228 164.175C246.198 164.135 246.168 164.099 246.141 164.06C245.059 162.669 243.577 160.76 244.016 159.354C244.136 158.966 244.455 158.449 245.287 158.188C248.154 157.283 251.755 160.006 254.646 162.194C256.134 163.318 257.817 164.595 258.532 164.598C269.856 164.64 279.158 164.304 279.251 164.301C279.461 164.292 279.66 164.382 279.795 164.544C279.93 164.703 279.981 164.92 279.936 165.124L277.959 174.086C277.893 174.393 277.622 174.612 277.31 174.618C277.237 174.618 270.142 174.772 261.339 176.479C259.088 176.917 254.072 177.428 248.831 177.428ZM231.363 165.464C230.891 165.464 230.54 165.635 230.32 165.972C229.999 166.468 230.005 167.255 230.336 167.979C231.069 169.59 233.2 173.47 237.167 174.75C243.932 176.929 257.186 175.908 261.084 175.15C268.615 173.687 274.923 173.35 276.751 173.281L278.425 165.686C275.849 165.767 267.876 165.993 258.523 165.954C257.357 165.948 255.797 164.77 253.826 163.276C251.181 161.274 247.89 158.786 245.69 159.48C245.356 159.585 245.317 159.715 245.302 159.76C245.074 160.49 246.568 162.41 247.205 163.231C247.992 164.247 248.29 164.625 248.043 165.124C247.92 165.377 247.661 165.533 247.37 165.533H247.367C240.016 165.503 233.668 165.476 231.372 165.464C231.369 165.464 231.366 165.464 231.363 165.464Z" fill="#2E3543"/>
<path d="M263.755 162.75C271.788 162.954 290.674 162.299 298.136 152.306C302.112 157.289 305.797 162.522 309.845 167.441C311.002 168.848 312.448 169.07 313.704 168.595C315.45 172.358 316.881 176.253 318.128 180.217C298.085 184.007 272.083 181.068 263.268 179.869C261.501 179.628 260.181 178.126 260.163 176.343L260.079 166.372C260.064 164.337 261.726 162.696 263.755 162.75Z" fill="#2E3543"/>
<path d="M157.301 50.6854L163.276 53.8651C163.033 56.5429 163.015 59.2027 163.219 61.8264L157.223 64.9339C154.257 66.4727 152.751 69.8597 153.599 73.0905C154.446 76.3213 157.419 78.5363 160.757 78.4221L167.526 78.1877C168.644 80.595 169.963 82.9061 171.463 85.097L167.814 90.8012C166.014 93.6143 166.405 97.3019 168.755 99.6761C171.105 102.05 174.787 102.483 177.621 100.713L183.349 97.1366C185.501 98.6483 187.803 99.9887 190.228 101.143L189.922 107.902C189.771 111.238 191.95 114.237 195.172 115.118C198.394 116.001 201.799 114.532 203.368 111.583L206.547 105.609C209.225 105.849 211.885 105.87 214.509 105.666L217.616 111.662C219.155 114.628 222.542 116.134 225.773 115.286C229.004 114.439 231.219 111.466 231.104 108.127L230.87 101.362C233.277 100.244 235.588 98.9248 237.779 97.4251L243.484 101.074C246.297 102.874 249.984 102.483 252.358 100.133C254.733 97.7827 255.165 94.1011 253.395 91.2671L249.819 85.5388C251.331 83.3869 252.671 81.0848 253.825 78.6595L260.584 78.966C263.92 79.1163 266.92 76.9374 267.8 73.7156C268.684 70.4939 267.214 67.0888 264.266 65.52L258.291 62.3403C258.535 59.6625 258.553 57.0027 258.348 54.379L264.344 51.2715C267.31 49.7327 268.816 46.3457 267.968 43.1149C267.121 39.8841 264.149 37.6691 260.81 37.7833L254.044 38.0177C252.926 35.6104 251.607 33.2993 250.107 31.1084L253.756 25.4042C255.556 22.5911 255.165 18.9035 252.815 16.5293C250.465 14.155 246.783 13.7223 243.949 15.4924L238.221 19.0688C236.069 17.5571 233.767 16.2167 231.342 15.0627L231.648 8.30055C231.799 4.96458 229.62 1.96522 226.398 1.08464C223.176 0.20106 219.771 1.67068 218.202 4.61896L215.023 10.5937C212.345 10.3502 209.682 10.3322 207.061 10.5366L203.954 4.54083C202.415 1.57452 199.028 0.0688246 195.797 0.916341C192.566 1.76386 190.351 4.73617 190.469 8.07515L190.703 14.8433C188.296 15.9613 185.985 17.2806 183.794 18.7803L178.09 15.1318C175.276 13.3316 171.589 13.7223 169.215 16.0725C166.84 18.4227 166.408 22.1043 168.178 24.9383L171.754 30.6666C170.242 32.8184 168.902 35.1206 167.748 37.5459L160.989 37.2393C157.653 37.0891 154.654 39.268 153.773 42.4897C152.883 45.7115 154.353 49.1166 157.301 50.6854ZM174.201 48.0858C179.733 27.8806 200.597 15.9883 220.799 21.5182C241.004 27.0511 252.896 47.9145 247.364 68.1166C241.831 88.3218 220.967 100.214 200.765 94.6812C180.563 89.1543 168.668 68.2909 174.201 48.0858Z" fill="white"/>
<path d="M223.933 116.203C221.069 116.203 218.391 114.628 217.014 111.974L214.111 106.375C211.758 106.537 209.348 106.519 206.934 106.324L203.965 111.905C202.234 115.157 198.543 116.747 194.994 115.773C191.442 114.799 189.076 111.55 189.245 107.872L189.53 101.557C187.354 100.497 185.269 99.2824 183.327 97.945L177.978 101.284C174.855 103.234 170.864 102.769 168.273 100.148C165.683 97.5303 165.262 93.5331 167.245 90.4316L170.653 85.103C169.322 83.1225 168.129 81.0308 167.104 78.8759L160.784 79.0953C157.096 79.2245 153.88 76.8232 152.946 73.2619C152.011 69.7005 153.643 66.0279 156.913 64.3329L162.512 61.4297C162.35 59.0735 162.368 56.6631 162.563 54.2498L156.982 51.2805C153.73 49.5494 152.14 45.8618 153.114 42.3094C154.088 38.7571 157.331 36.3949 161.015 36.5602L167.329 36.8457C168.39 34.6698 169.602 32.5871 170.942 30.6426L167.603 25.293C165.652 22.1674 166.118 18.1793 168.739 15.5886C171.357 12.998 175.354 12.5772 178.455 14.5608L183.784 17.9689C185.764 16.6375 187.856 15.4444 190.011 14.4195L189.792 8.09922C189.665 4.41763 192.064 1.19586 195.625 0.261187C199.187 -0.673486 202.859 0.958438 204.554 4.22829L207.457 9.82731C209.814 9.66502 212.224 9.68305 214.637 9.8784L217.606 4.30042C219.338 1.0486 223.025 -0.541241 226.578 0.429496C230.13 1.40324 232.495 4.65205 232.327 8.33063L232.041 14.6449C234.217 15.7058 236.3 16.917 238.244 18.2574L243.594 14.9184C246.72 12.9679 250.708 13.4338 253.298 16.0545C255.889 18.6721 256.313 22.6693 254.326 25.7708L250.918 31.0994C252.249 33.0799 253.443 35.1717 254.467 37.3265L260.788 37.1071C264.481 36.9809 267.691 39.3792 268.626 42.9406C269.56 46.502 267.929 50.1745 264.659 51.8696L259.06 54.7728C259.222 57.129 259.204 59.5393 259.009 61.9526L264.587 64.9219C267.838 66.653 269.428 70.3406 268.458 73.893C267.484 77.4453 264.229 79.8106 260.556 79.6423L254.242 79.3568C253.181 81.5326 251.967 83.6184 250.63 85.5599L253.969 90.9094C255.919 94.032 255.453 98.0232 252.836 100.614C250.218 103.204 246.221 103.628 243.119 101.642L237.791 98.2335C235.81 99.5649 233.718 100.758 231.563 101.783L231.783 108.103C231.909 111.785 229.511 115.007 225.946 115.941C225.273 116.119 224.597 116.203 223.933 116.203ZM214.508 104.993C214.76 104.993 214.992 105.131 215.109 105.359L218.217 111.355C219.617 114.06 222.656 115.409 225.601 114.637C228.546 113.865 230.53 111.199 230.427 108.157L230.193 101.392C230.184 101.122 230.337 100.869 230.584 100.755C232.952 99.6551 235.242 98.3477 237.394 96.8721C237.616 96.7188 237.914 96.7128 238.142 96.8601L243.846 100.509C246.413 102.15 249.716 101.801 251.883 99.6581C254.047 97.5153 254.434 94.2154 252.821 91.6337L249.244 85.9055C249.1 85.6741 249.109 85.3795 249.265 85.1571C250.747 83.0504 252.075 80.7693 253.214 78.374C253.331 78.1276 253.587 77.9773 253.857 77.9893L260.616 78.2959C263.652 78.4341 266.345 76.4806 267.15 73.5414C267.956 70.6051 266.639 67.5516 263.949 66.1211L257.975 62.9414C257.734 62.8121 257.593 62.5537 257.617 62.2832C257.855 59.6415 257.876 57.0027 257.674 54.4362C257.653 54.1657 257.797 53.9072 258.038 53.781L264.034 50.6734C266.738 49.2729 268.088 46.2345 267.312 43.2892C266.54 40.3439 263.886 38.3604 260.833 38.4626L254.068 38.697C253.791 38.706 253.545 38.5527 253.431 38.3063C252.331 35.938 251.023 33.6479 249.548 31.4961C249.394 31.2707 249.388 30.9792 249.536 30.7478L253.184 25.0436C254.825 22.477 254.473 19.174 252.334 17.0102C250.191 14.8463 246.891 14.4586 244.309 16.0725L238.581 19.6489C238.35 19.7931 238.055 19.7841 237.833 19.6279C235.726 18.1462 233.445 16.8178 231.053 15.6788C230.806 15.5616 230.656 15.3091 230.668 15.0356L230.974 8.27353C231.113 5.23209 229.159 2.54528 226.22 1.73984C223.284 0.934396 220.23 2.25075 218.8 4.94056L215.62 10.9153C215.491 11.1557 215.229 11.2939 214.962 11.2699C212.323 11.0325 209.684 11.0114 207.115 11.2128C206.844 11.2338 206.586 11.0926 206.463 10.8491L203.355 4.85342C201.954 2.14857 198.916 0.799154 195.971 1.57154C193.025 2.34392 191.042 5.00969 191.147 8.05113L191.382 14.8192C191.391 15.0897 191.237 15.3422 190.991 15.4564C188.626 16.5564 186.333 17.8637 184.181 19.3393C183.955 19.4926 183.661 19.4986 183.432 19.3514L177.728 15.7028C175.162 14.0619 171.859 14.4105 169.692 16.5534C167.528 18.6962 167.14 21.9961 168.754 24.5777L172.33 30.306C172.475 30.5374 172.466 30.8319 172.309 31.0543C170.828 33.1611 169.499 35.4422 168.36 37.8375C168.243 38.0839 167.988 38.2342 167.717 38.2221L160.958 37.9156C157.908 37.7773 155.23 39.7308 154.424 42.6701C153.619 45.6064 154.935 48.6598 157.625 50.0904L163.6 53.2701C163.84 53.3993 163.981 53.6578 163.957 53.9282C163.72 56.57 163.699 59.2087 163.9 61.7753C163.921 62.0458 163.777 62.3042 163.537 62.4305L157.541 65.538C154.836 66.9385 153.487 69.977 154.259 72.9222C155.031 75.8675 157.694 77.8511 160.739 77.7489L167.504 77.5145C167.783 77.5054 168.027 77.6587 168.141 77.9052C169.241 80.2734 170.548 82.5635 172.024 84.7153C172.177 84.9408 172.183 85.2353 172.036 85.4637L168.387 91.1679C166.746 93.7345 167.095 97.0374 169.238 99.2043C171.381 101.371 174.681 101.756 177.262 100.142L182.991 96.5656C183.222 96.4213 183.516 96.4303 183.739 96.5866C185.846 98.0682 188.127 99.3966 190.522 100.536C190.768 100.653 190.919 100.905 190.907 101.179L190.6 107.938C190.462 110.979 192.415 113.666 195.355 114.472C198.291 115.277 201.344 113.961 202.775 111.271L205.955 105.296C206.084 105.056 206.345 104.914 206.613 104.942C209.255 105.179 211.896 105.2 214.46 104.999C214.472 104.993 214.49 104.993 214.508 104.993ZM210.844 96.7248C207.421 96.7248 203.977 96.265 200.587 95.3364C180.054 89.7133 167.925 68.4382 173.548 47.9055C179.168 27.3727 200.446 15.243 220.979 20.8661C230.923 23.5889 239.215 30.0235 244.321 38.9825C249.427 47.9415 250.741 58.3522 248.018 68.297C245.295 78.2418 238.861 86.5336 229.901 91.6397C223.999 95.0088 217.462 96.7248 210.844 96.7248ZM174.852 48.2661C169.427 68.0776 181.133 88.6103 200.945 94.035C210.541 96.6617 220.588 95.3965 229.231 90.4676C237.875 85.5388 244.084 77.5415 246.711 67.9423C249.337 58.3462 248.072 48.2992 243.143 39.6557C238.214 31.0122 230.214 24.8031 220.618 22.1764C200.809 16.7487 180.277 28.4516 174.852 48.2661Z" fill="#2458A4"/>
<mask id="mask1_328_70951" style="mask-type:luminance" maskUnits="userSpaceOnUse" x="176" y="24" width="69" height="68">
<path d="M176.826 58.0217C176.826 39.2891 192.012 24.103 210.745 24.103C229.477 24.103 244.664 39.2891 244.664 58.0217C244.664 76.7542 229.477 91.9404 210.745 91.9404C192.012 91.9404 176.826 76.7542 176.826 58.0217Z" fill="white"/>
</mask>
<g mask="url(#mask1_328_70951)">
<path d="M237.739 82.0496C230.877 88.5923 221.612 92.6346 211.384 92.6887C201.157 92.7428 191.846 88.7937 184.919 82.3261C192.883 79.8136 201.833 78.3771 211.309 78.329C220.782 78.2809 229.75 79.6213 237.739 82.0496Z" fill="#2458A4"/>
<path d="M188.851 55.978C192.199 43.9174 199.102 28.1031 212.049 30.0476C224.47 31.9139 230.313 45.5403 233 56.0982C234.632 62.5237 229.733 68.7599 223.103 68.7959L198.792 68.9222C192.009 68.9582 187.038 62.5117 188.851 55.978Z" fill="#2458A4"/>
<path d="M199.565 41.9699C199.571 41.9399 199.583 41.8827 199.583 41.8827L221.654 41.7144C221.654 41.7144 221.663 41.7505 221.669 41.7655C221.961 42.8655 222.117 44.0256 222.123 45.2247L222.156 51.6863C222.18 56.011 220.151 59.8249 217.068 62.0548L217.155 78.921C217.173 82.2781 214.465 85.0129 211.111 85.031C207.754 85.049 205.022 82.3412 205.004 78.9872L204.917 62.3674C201.611 60.2156 199.387 56.2965 199.363 51.8065L199.324 44.5185C199.324 43.6439 199.405 42.7904 199.565 41.9699Z" fill="white"/>
<path d="M211.081 85.7102C209.29 85.7102 207.607 85.0159 206.333 83.7567C205.05 82.4884 204.34 80.7964 204.331 78.9932L204.244 62.5627C204.241 62.1901 204.545 61.8835 204.917 61.8835H204.92C205.293 61.8835 205.597 62.1841 205.597 62.5567L205.684 78.9872C205.693 80.4297 206.261 81.7822 207.286 82.798C208.304 83.8048 209.651 84.3608 211.081 84.3608C211.09 84.3608 211.099 84.3608 211.111 84.3608C212.554 84.3518 213.906 83.7837 214.922 82.7589C215.938 81.7341 216.491 80.3756 216.485 78.9331L216.401 62.5658C216.398 62.1931 216.701 61.8865 217.074 61.8865H217.077C217.45 61.8865 217.753 62.1871 217.753 62.5598L217.837 78.927C217.847 80.7303 217.152 82.4313 215.884 83.7116C214.616 84.9949 212.924 85.7042 211.12 85.7162C211.105 85.7102 211.093 85.7102 211.081 85.7102Z" fill="#2458A4"/>
<path d="M210.736 56.8645C209.323 56.8645 208.01 56.2995 207.036 55.2717C206.778 55.0012 206.79 54.5714 207.06 54.316C207.331 54.0605 207.76 54.0695 208.016 54.34C208.731 55.0944 209.696 55.5091 210.733 55.5091C210.739 55.5091 210.745 55.5091 210.751 55.5091C211.794 55.5031 212.758 55.0823 213.465 54.322C213.72 54.0485 214.147 54.0335 214.42 54.2859C214.694 54.5414 214.709 54.9681 214.456 55.2416C213.504 56.2635 212.157 56.8555 210.757 56.8615C210.751 56.8645 210.745 56.8645 210.736 56.8645Z" fill="#2458A4"/>
<path d="M210.772 64.7988C204.142 64.7988 198.73 58.9864 198.691 51.8095L198.652 44.5215C198.634 41.1555 199.827 37.9848 202.009 35.5865C204.206 33.1762 207.142 31.8388 210.276 31.8208C213.615 31.8027 216.756 33.1942 219.121 35.7398C221.474 38.2673 222.782 41.6363 222.8 45.2217L222.833 51.6833C222.86 56.7774 220.116 61.4538 215.839 63.5966C215.503 63.7649 215.097 63.6297 214.932 63.2961C214.763 62.9625 214.899 62.5568 215.235 62.3885C219.052 60.4771 221.504 56.2785 221.48 51.6923L221.447 45.2308C221.429 41.985 220.251 38.9435 218.132 36.6624C216.026 34.3994 213.228 33.1702 210.285 33.1762C207.535 33.1912 204.951 34.3693 203.012 36.5001C201.059 38.643 199.992 41.4921 200.007 44.5155L200.046 51.8035C200.079 58.235 204.888 63.4464 210.775 63.4464C210.793 63.4464 210.817 63.4464 210.832 63.4464C211.205 63.4464 211.509 63.7469 211.509 64.1196C211.512 64.4922 211.208 64.7988 210.835 64.7988C210.811 64.7988 210.79 64.7988 210.772 64.7988Z" fill="#2458A4"/>
</g>
<path d="M210.862 92.7728C207.25 92.7728 203.58 92.2018 199.968 90.9966C192.163 88.394 185.536 83.0805 181.304 76.0389C181.112 75.7173 181.217 75.3025 181.536 75.1102C181.854 74.9178 182.272 75.02 182.464 75.3416C186.528 82.1097 192.896 87.2129 200.397 89.7133C217.748 95.4987 236.567 86.0918 242.35 68.7448C248.135 51.3977 238.728 32.5781 221.378 26.7927C212.975 23.9917 203.983 24.6288 196.058 28.5899C188.133 32.551 182.227 39.3612 179.426 47.7643C177.5 53.5406 177.196 59.7136 178.545 65.6162C178.63 65.9799 178.401 66.3435 178.037 66.4277C177.677 66.5118 177.31 66.2834 177.226 65.9198C175.82 59.7738 176.138 53.3482 178.143 47.3375C181.058 38.5918 187.207 31.5052 195.454 27.3818C203.7 23.2584 213.059 22.5942 221.808 25.5124C239.864 31.5322 249.656 51.1213 243.633 69.1776C238.818 83.6154 225.315 92.7728 210.862 92.7728Z" fill="#2458A4"/>
<path d="M81.6847 26.3148C81.5164 26.3148 81.3481 26.2517 81.2159 26.1255C80.9454 25.867 80.9364 25.4372 81.1948 25.1698L83.6863 22.5701C83.9448 22.2996 84.3745 22.2906 84.642 22.5491C84.9125 22.8075 84.9215 23.2373 84.663 23.5048L82.1716 26.1044C82.0394 26.2457 81.862 26.3148 81.6847 26.3148Z" fill="#2E3543"/>
<path d="M72.9699 35.4151C72.8016 35.4151 72.6333 35.352 72.501 35.2258C72.2305 34.9673 72.2215 34.5375 72.48 34.2701L74.9714 31.6704C75.2299 31.3999 75.6597 31.3909 75.9272 31.6494C76.1976 31.9078 76.2067 32.3376 75.9482 32.6051L73.4567 35.2047C73.3245 35.346 73.1472 35.4151 72.9699 35.4151Z" fill="#2E3543"/>
<path d="M75.4133 26.4561C75.242 26.4561 75.0707 26.39 74.9384 26.2607L72.4109 23.7723C72.1434 23.5108 72.1404 23.081 72.4019 22.8166C72.6634 22.5491 73.0931 22.5461 73.3606 22.8076L75.8881 25.296C76.1556 25.5575 76.1586 25.9872 75.8971 26.2517C75.7619 26.387 75.5876 26.4561 75.4133 26.4561Z" fill="#2E3543"/>
<path d="M84.2609 35.1626C84.0896 35.1626 83.9183 35.0965 83.7861 34.9673L81.2585 32.4788C80.9911 32.2173 80.9881 31.7876 81.2495 31.5231C81.511 31.2556 81.9408 31.2526 82.2083 31.5141L84.7358 34.0025C85.0033 34.264 85.0063 34.6938 84.7448 34.9583C84.6096 35.0965 84.4352 35.1626 84.2609 35.1626Z" fill="#2E3543"/>
<path d="M473.481 30.8649C473.312 30.8649 473.144 30.8018 473.012 30.6756C472.741 30.4171 472.732 29.9874 472.991 29.7199L475.482 27.1202C475.741 26.8497 476.17 26.8407 476.438 27.0992C476.708 27.3577 476.717 27.7874 476.459 28.0549L473.967 30.6545C473.835 30.7958 473.658 30.8649 473.481 30.8649Z" fill="#2E3543"/>
<path d="M464.762 39.9652C464.594 39.9652 464.425 39.9021 464.293 39.7759C464.023 39.5174 464.014 39.0877 464.272 38.8202L466.763 36.2205C467.022 35.9501 467.452 35.941 467.719 36.1995C467.99 36.458 467.999 36.8877 467.74 37.1552L465.249 39.7549C465.12 39.8931 464.939 39.9652 464.762 39.9652Z" fill="#2E3543"/>
<path d="M467.206 31.0032C467.035 31.0032 466.864 30.9371 466.731 30.8078L464.204 28.3194C463.936 28.0579 463.933 27.6282 464.195 27.3637C464.456 27.0962 464.886 27.0932 465.151 27.3547L467.678 29.8431C467.946 30.1046 467.949 30.5344 467.687 30.7988C467.558 30.9371 467.384 31.0032 467.206 31.0032Z" fill="#2E3543"/>
<path d="M476.054 39.7128C475.883 39.7128 475.711 39.6467 475.579 39.5174L473.052 37.029C472.784 36.7675 472.781 36.3377 473.043 36.0732C473.304 35.8058 473.734 35.8028 473.998 36.0642L476.526 38.5527C476.793 38.8142 476.796 39.2439 476.535 39.5084C476.406 39.6467 476.231 39.7128 476.054 39.7128Z" fill="#2E3543"/>
<path d="M484.344 428.957C483.978 428.957 483.674 428.663 483.668 428.296L483.59 424.696C483.581 424.323 483.879 424.013 484.251 424.004C484.63 423.989 484.933 424.293 484.942 424.666L485.021 428.266C485.03 428.639 484.732 428.948 484.359 428.957C484.353 428.957 484.347 428.957 484.344 428.957Z" fill="#2E3543"/>
<path d="M484.614 441.553C484.247 441.553 483.944 441.258 483.938 440.892L483.86 437.291C483.851 436.919 484.148 436.609 484.521 436.6C484.893 436.588 485.203 436.889 485.212 437.261L485.29 440.862C485.299 441.234 485.002 441.544 484.629 441.553C484.623 441.553 484.617 441.553 484.614 441.553Z" fill="#2E3543"/>
<path d="M476.46 433.519C476.088 433.519 475.787 433.219 475.784 432.849C475.781 432.477 476.082 432.17 476.454 432.167L480.001 432.14C480.004 432.14 480.004 432.14 480.007 432.14C480.379 432.14 480.68 432.441 480.683 432.81C480.686 433.183 480.385 433.489 480.013 433.492L476.466 433.519C476.463 433.519 476.46 433.519 476.46 433.519Z" fill="#2E3543"/>
<path d="M488.873 433.42C488.5 433.42 488.199 433.12 488.196 432.75C488.193 432.378 488.494 432.071 488.867 432.068L492.413 432.041C492.758 432.035 493.092 432.338 493.095 432.711C493.098 433.084 492.798 433.39 492.425 433.393L488.879 433.42C488.876 433.42 488.876 433.42 488.873 433.42Z" fill="#2E3543"/>
<path d="M29.7798 93.3257C28.8331 93.3257 27.8864 93.1484 26.9788 92.7968C25.0012 92.0274 23.4415 90.5157 22.5879 88.5411C20.8478 84.5079 22.651 79.7805 26.6091 78.0043C28.5145 77.1477 30.6333 77.0937 32.5778 77.851C34.5554 78.6204 36.1151 80.1321 36.9687 82.1066C38.7088 86.1398 36.9056 90.8673 32.9475 92.6435C31.9317 93.0973 30.8587 93.3257 29.7798 93.3257ZM29.7768 78.6775C28.8872 78.6775 28.0006 78.8668 27.1651 79.2425C23.8772 80.7181 22.3836 84.6492 23.8322 88.0092C24.5384 89.6501 25.8307 90.9034 27.4687 91.5375C29.0705 92.1596 30.8197 92.1145 32.3915 91.4113C35.6764 89.9356 37.173 86.0046 35.7244 82.6446C35.0182 81.0067 33.7259 79.7504 32.0879 79.1163C31.3366 78.8217 30.5582 78.6775 29.7768 78.6775Z" fill="#2E3543"/>
<path d="M515.171 405.428C514.242 405.428 513.311 405.254 512.418 404.908C510.474 404.154 508.944 402.669 508.108 400.731C506.401 396.773 508.171 392.133 512.054 390.386C513.924 389.548 516.003 389.494 517.915 390.236C519.856 390.991 521.389 392.475 522.225 394.414C523.932 398.372 522.162 403.012 518.276 404.758C517.281 405.206 516.226 405.428 515.171 405.428ZM512.61 391.622C509.398 393.064 507.934 396.911 509.353 400.196C510.044 401.801 511.309 403.024 512.911 403.649C514.48 404.259 516.19 404.214 517.726 403.526C520.941 402.083 522.402 398.236 520.986 394.952C520.295 393.347 519.03 392.121 517.428 391.498C515.856 390.888 514.146 390.933 512.61 391.622Z" fill="#2E3543"/>
<path d="M57.6935 518.289C56.6567 518.289 55.6168 518.097 54.619 517.709C52.4491 516.865 50.7391 515.209 49.8044 513.042C47.896 508.618 49.8735 503.431 54.2163 501.48C56.305 500.543 58.6282 500.483 60.762 501.312C62.9319 502.157 64.6419 503.813 65.5766 505.979C67.485 510.403 65.5075 515.591 61.1647 517.541C60.0527 518.04 58.8746 518.289 57.6935 518.289ZM57.6875 502.084C56.6957 502.084 55.7039 502.295 54.7693 502.716C51.0997 504.363 49.4287 508.756 51.0456 512.504C51.836 514.334 53.2786 515.735 55.1089 516.447C56.9001 517.144 58.8536 517.093 60.6087 516.306C64.2783 514.659 65.9493 510.265 64.3324 506.517C63.542 504.687 62.0994 503.287 60.2691 502.574C59.4336 502.247 58.5591 502.084 57.6875 502.084Z" fill="#2E3543"/>
<path d="M47.0454 48.5727C46.4052 48.5727 45.7651 48.4524 45.152 48.215C43.8146 47.6951 42.7627 46.6733 42.1857 45.3419C41.0106 42.619 42.2308 39.4303 44.9026 38.2281C46.1889 37.6511 47.6224 37.612 48.9388 38.123C50.2762 38.6429 51.3311 39.6647 51.9051 40.9961C53.0802 43.719 51.86 46.9077 49.1882 48.1098C48.503 48.4164 47.7757 48.5727 47.0454 48.5727ZM47.0424 39.1177C46.5014 39.1177 45.9635 39.2319 45.4555 39.4604C43.454 40.359 42.5433 42.7542 43.4269 44.8009C43.8567 45.7987 44.6441 46.5621 45.6389 46.9498C46.6126 47.3284 47.6765 47.3014 48.6292 46.8716C50.6308 45.973 51.5414 43.5777 50.6579 41.5311C50.2281 40.5333 49.4407 39.7699 48.4429 39.3822C47.9921 39.2049 47.5172 39.1177 47.0424 39.1177Z" fill="#2E3543"/>
<path d="M382.1 74.8877C381.931 74.8877 381.763 74.8246 381.631 74.6983C381.36 74.4399 381.351 74.0101 381.61 73.7426L384.101 71.143C384.36 70.8725 384.79 70.8635 385.057 71.122C385.328 71.3804 385.337 71.8102 385.078 72.0777L382.587 74.6773C382.454 74.8156 382.277 74.8877 382.1 74.8877Z" fill="#2E3543"/>
<path d="M373.384 83.985C373.216 83.985 373.047 83.9219 372.915 83.7957C372.645 83.5372 372.636 83.1075 372.894 82.84L375.386 80.2403C375.644 79.9698 376.074 79.9608 376.341 80.2193C376.612 80.4777 376.621 80.9075 376.362 81.175L373.871 83.7746C373.739 83.9159 373.561 83.985 373.384 83.985Z" fill="#2E3543"/>
<path d="M375.827 75.026C375.656 75.026 375.485 74.9599 375.352 74.8306L372.825 72.3422C372.557 72.0807 372.554 71.651 372.816 71.3865C373.077 71.119 373.507 71.116 373.772 71.3775L376.299 73.8659C376.567 74.1274 376.57 74.5572 376.308 74.8216C376.176 74.9599 376.002 75.026 375.827 75.026Z" fill="#2E3543"/>
<path d="M384.675 83.7356C384.504 83.7356 384.332 83.6695 384.2 83.5402L381.673 81.0518C381.405 80.7903 381.402 80.3605 381.664 80.0961C381.925 79.8286 382.355 79.8256 382.619 80.087L385.147 82.5755C385.414 82.837 385.417 83.2667 385.156 83.5312C385.024 83.6664 384.849 83.7356 384.675 83.7356Z" fill="#2E3543"/>
<path d="M34.8698 486.76C31.5639 486.76 28.8711 484.07 28.8711 480.761C28.8711 477.452 31.5609 474.762 34.8698 474.762C38.1788 474.762 40.8686 477.452 40.8686 480.761C40.8686 484.07 38.1758 486.76 34.8698 486.76ZM34.8698 476.118C32.3093 476.118 30.2265 478.201 30.2265 480.764C30.2265 483.325 32.3093 485.41 34.8698 485.41C37.4304 485.41 39.5162 483.328 39.5162 480.764C39.5131 478.201 37.4304 476.118 34.8698 476.118Z" fill="#2E3543"/>
</svg>
