<svg width="52" height="241" viewBox="0 0 52 241" fill="none" xmlns="http://www.w3.org/2000/svg">
<path id="Vector 27" d="M3.91589 1.93894C3.35367 0.988151 2.12715 0.673149 1.17636 1.23536C0.225578 1.79757 -0.089424 3.0241 0.472787 3.97488L3.91589 1.93894ZM31.0176 239.688C31.436 240.711 32.6039 241.2 33.6262 240.782L50.2846 233.963C51.3068 233.544 51.7963 232.376 51.3778 231.354C50.9594 230.332 49.7915 229.842 48.7692 230.261L33.9618 236.322L27.9005 221.515C27.4821 220.492 26.3141 220.003 25.2919 220.421C24.2697 220.84 23.7802 222.008 24.1986 223.03L31.0176 239.688ZM0.472787 3.97488C13.0082 25.1741 29.6226 62.4167 38.5987 105.064C47.5773 147.723 48.8698 195.576 31.024 238.158L34.7131 239.704C52.9898 196.095 51.5831 147.334 42.513 104.24C33.4403 61.1342 16.6563 23.485 3.91589 1.93894L0.472787 3.97488Z" fill="#2458A4"/>
</svg>
