<svg width="213" height="130" viewBox="0 0 213 130" fill="none" xmlns="http://www.w3.org/2000/svg">
<path id="Vector 29" d="M210.397 0.519277C211.49 0.357848 212.507 1.1128 212.668 2.20551C212.829 3.29822 212.074 4.3149 210.982 4.47633L210.397 0.519277ZM8.57554 129.078C7.51778 129.396 6.4024 128.796 6.08428 127.739L0.900148 110.501C0.582016 109.443 1.18162 108.328 2.23938 108.01C3.29715 107.692 4.41252 108.291 4.73065 109.349L9.33878 124.671L24.6608 120.063C25.7186 119.745 26.834 120.345 27.1521 121.402C27.4702 122.46 26.8706 123.576 25.8129 123.894L8.57554 129.078ZM210.982 4.47633C186.618 8.07564 147.219 18.6013 108.427 38.4643C69.6248 58.3327 31.6221 87.4436 9.76113 128.11L6.23794 126.216C28.6267 84.5677 67.406 54.975 106.604 34.9039C145.813 14.8273 185.635 4.17746 210.397 0.519277L210.982 4.47633Z" fill="#2458A4"/>
</svg>
