<svg width="75" height="70" viewBox="0 0 75 70" fill="none" xmlns="http://www.w3.org/2000/svg">
    <path d="M31.3781 8.70208C30.9145 9.04307 30.1451 9.62416 29.6769 10.0274C28.5924 10.9731 25.3762 13.3935 22.3223 15.5693C19.9087 17.2985 18.3319 18.5517 14.1035 22.1234C12.8612 23.17 11.036 24.6488 10.0516 25.4267C9.0624 26.1854 7.45711 27.568 6.44917 28.4943C5.46036 29.4158 4.5193 30.2845 4.38553 30.3997C3.9699 30.7694 4.21578 31.5012 5.45565 33.509C6.79643 35.6745 7.74731 36.9409 8.16428 37.141C8.32724 37.222 9.39529 37.4205 10.5447 37.6189L12.6041 37.954L12.8554 38.9491C12.9715 39.4898 13.282 41.203 13.4963 42.7775C14.168 47.4531 14.8169 50.5873 15.424 52.2663L15.9879 53.8543L15.5636 54.5926C15.2108 55.211 15.1922 55.46 15.4143 56.2589C15.6654 57.1727 15.8819 59.6425 16.0929 63.8644C16.233 66.4349 16.5618 67.8177 17.0263 67.8836C17.2131 67.8975 17.39 67.7918 17.4567 67.6528C17.504 67.4372 17.5854 67.4371 17.7199 67.6474C17.84 67.8003 18.0461 67.8908 18.18 67.8569C18.3905 67.8038 18.3703 67.3203 18.0892 65.8848C17.5364 62.8892 17.693 62.3 18.3693 64.8979C18.7171 66.1945 19.0111 67.0363 19.1259 67.0073C19.2407 66.9784 19.2883 66.8442 19.2736 66.7054C19.2446 66.5906 19.3886 66.7578 19.6144 67.0876C19.8402 67.4174 20.1472 67.6656 20.3003 67.6269C20.5491 67.5641 20.5004 67.21 20.0175 65.4589L19.4476 63.3634L20.0929 64.9513C20.743 66.5583 21.1847 67.0982 21.7206 66.9629C21.9311 66.9098 21.9307 66.747 21.7092 66.1922C21.536 65.8288 21.2615 65.1448 21.0832 64.6809L20.751 63.8487L21.3707 64.7712C22.2835 66.1286 22.5949 66.2332 22.281 65.0706C22.1505 64.5539 21.8565 63.712 21.6303 63.2194C20.0081 59.4556 18.9678 56.7867 18.726 55.7485C18.4213 54.4614 18.0034 53.8544 17.5249 53.9752C17.2761 54.038 17.2135 53.8706 17.0966 53.0044C16.721 50.0658 15.9057 45.3857 15.3683 42.8545C14.72 39.9644 14.5494 38.6435 14.779 38.5855C14.8413 38.5902 16.1585 38.8887 17.6961 39.2537L20.4792 39.9556L21.8564 45.41L23.2337 50.8643L24.7487 51.7847C28.0231 53.7877 34.8849 54.4369 40.809 53.3075C44.7903 52.5465 49.6964 50.1269 52.7539 47.4005C54.2492 46.0661 54.6884 45.548 56.4352 43.2747C57.9672 41.2795 57.9218 40.2934 56.1852 34.7059C55.5003 32.558 54.7675 30.3815 54.5174 29.8746C54.2912 29.3821 54.1561 28.9276 54.2421 28.8651C54.5433 28.6873 60.4466 22.7993 62.0225 21.1392C64.7206 18.2795 64.4969 18.845 64.4351 14.9722C64.4068 13.086 64.2879 11.4059 64.187 11.2482C63.9419 10.8418 63.2328 10.6137 62.1795 10.554C61.7246 10.5263 60.2641 10.3861 58.9376 10.2121C55.0157 9.75701 50.9647 9.35485 46.2051 8.96872C43.7535 8.77343 40.7992 8.52188 39.6451 8.38577C33.9084 7.75779 32.6973 7.79895 31.3781 8.70208ZM34.8513 9.71838C35.7657 9.71144 37.0872 9.78492 37.7815 9.87424C41.081 10.283 44.8591 10.6523 46.5444 10.7153C47.5737 10.7608 49.4939 10.9477 50.8156 11.1026C52.1421 11.2766 54.2778 11.5109 55.5276 11.6229C56.7965 11.73 58.7646 11.9456 59.9235 12.1008L62.0257 12.364L61.3424 12.8826C59.8848 13.9632 59.2113 14.6015 57.4589 16.5301C56.4753 17.6335 54.2831 19.8361 52.6113 21.439C50.9395 23.0419 49.2534 24.6688 48.8617 25.0527C48.1213 25.7486 43.4253 29.9678 39.8996 33.0975C38.8677 34.0095 37.7977 35.0126 37.5447 35.3004C37.0912 35.8424 37.0529 35.8521 35.8224 35.8167C35.1283 35.8088 33.979 35.6918 33.275 35.5642C32.5661 35.4175 30.1381 35.0737 27.8826 34.7679C20.3449 33.7803 19.5643 33.672 18.003 33.3741C17.1456 33.2038 16.365 33.0955 16.2502 33.1245C16.1354 33.1535 16.1683 32.8805 16.3158 32.4972C16.5394 31.9318 16.6398 31.8454 16.9752 31.9642C17.3057 32.064 17.5066 31.9726 17.9746 31.4879C18.4235 31.0082 18.7343 30.8686 19.3326 30.8193C19.9692 30.7604 20.1652 30.6498 20.5422 30.1271C20.7999 29.777 21.1821 29.4362 21.3926 29.383C21.6031 29.3299 21.9901 29.0082 22.2287 28.663C22.5007 28.2889 22.9116 27.9815 23.2753 27.8897C23.6198 27.8027 24.0883 27.5623 24.3368 27.3367C24.59 27.1302 25.1972 26.7937 25.6946 26.5866C26.1968 26.3988 26.8278 25.9951 27.1383 25.6928C27.4248 25.3762 28.094 24.9629 28.6154 24.7701C29.2659 24.5245 29.5908 24.2795 29.6668 24.0161C29.7093 23.7814 29.9003 23.5703 30.0534 23.5316C30.2257 23.4881 30.2924 23.3491 30.2011 23.2297C30.1339 23.1245 29.8992 23.082 29.7126 23.1494C27.9334 23.843 27.0345 24.3143 26.6573 24.7556C26.39 25.0674 25.735 25.4567 25.0988 25.6785C24.5057 25.9096 23.8603 26.2559 23.6884 26.4621C23.4974 26.6732 23.0911 26.9183 22.7657 27.0005C22.4404 27.0826 22.1152 27.2462 22.0437 27.366C21.8672 27.6345 16.1261 31.2625 14.7969 31.9646L13.8454 32.4695L11.3119 32.0303C9.16631 31.6763 6.14369 30.9126 6.09537 30.7213C6.05671 30.5682 10.056 27.2985 12.0011 25.8913C13.1864 25.022 14.9115 23.7109 15.8384 22.9476C18.5524 20.7151 20.7697 19.0151 23.3362 17.1659C27.1309 14.4569 29.0424 12.9971 31.0061 11.3408C32.0142 10.4958 32.9126 9.7804 33.0083 9.75624C33.104 9.73208 33.9321 9.70619 34.8513 9.71838ZM62.6124 13.478C62.6414 13.5928 62.6818 14.4784 62.6841 15.455C62.7055 16.4268 62.7318 17.4177 62.7324 17.6619C62.7426 17.9443 62.3228 18.5389 61.4965 19.3787C60.8232 20.0984 60.0544 20.9236 59.787 21.2354C59.133 22.0316 53.177 27.8719 52.9665 27.925C52.8708 27.9492 52.0254 28.7938 51.0942 29.7822C48.4439 32.589 47.9138 33.1504 45.7929 35.1517C44.7086 36.1787 43.1803 37.7047 42.3732 38.5396C41.0694 39.9071 39.7269 41.0401 39.2867 41.1512C39.191 41.1754 38.8009 40.1949 38.4103 38.9703C38.0436 37.7599 37.634 36.6215 37.5522 36.4589C37.4128 36.2295 37.5081 36.0425 37.8522 35.7928C38.5835 35.3027 41.4073 32.9407 42.4487 31.9856C42.9407 31.5153 44.1972 30.4447 45.2197 29.5758C48.6837 26.6856 54.7739 20.893 57.9924 17.4337C59.5969 15.7256 62.0522 13.4363 62.4301 13.3205C62.5067 13.3011 62.5883 13.3823 62.6124 13.478ZM8.84231 32.3281C9.54635 32.4557 10.7197 32.6684 11.4478 32.8103L12.7888 33.0417L12.4215 33.6027C11.9492 34.3123 11.8695 35.045 12.1208 36.0402C12.2561 36.576 12.2327 36.8059 12.0603 36.768C11.9118 36.7444 11.1361 36.6553 10.3172 36.5567C8.77999 36.3544 8.04193 36.0115 7.89696 35.4373C7.84863 35.246 7.38702 34.3853 6.88713 33.5343C6.36327 32.6691 5.86338 31.8181 5.7528 31.6221C5.60377 31.3543 5.77137 31.3731 6.56684 31.7016C7.1083 31.9109 8.13827 32.2005 8.84231 32.3281ZM15.0497 33.6109C15.1313 33.692 15.4331 33.7584 15.7346 33.7433C16.0219 33.7522 16.951 33.884 17.7843 34.0401C18.6368 34.1912 20.6003 34.4691 22.1518 34.6473C25.7145 35.0506 31.332 35.8512 33.0275 36.1967C33.7364 36.3435 34.8331 36.4941 35.4507 36.5213C36.0732 36.5677 36.6573 36.6238 36.7532 36.681C36.8251 36.7239 37.2204 37.8863 37.6067 39.2546L38.2971 41.7472L37.1237 41.5345C36.4819 41.4116 34.5997 41.0522 32.9472 40.7162C31.29 40.361 28.22 39.8129 26.1224 39.4875C24.0247 39.1622 20.4997 38.505 18.2869 38.0459C13.8038 37.1421 13.9716 37.2422 14.1108 35.3748C14.2272 33.9814 14.6419 33.2049 15.0497 33.6109ZM53.9517 31.585C54.2463 32.6711 54.7972 34.8528 55.2174 36.4364C55.6524 38.1588 55.9626 39.7906 55.9786 40.4991C56.0148 41.6097 55.9481 41.7487 54.8933 43.1347C53.7765 44.5975 51.1061 47.0022 49.2563 48.2226C44.0126 51.6435 36.8299 52.9483 29.8231 51.7249C27.802 51.3801 26.561 50.8995 25.4674 50.0356C24.676 49.4008 24.6712 49.3816 24.1636 47.2907C23.8928 46.1376 23.2991 44.1092 22.8172 42.7651C22.3593 41.4353 21.9976 40.3255 22.0119 40.3015C22.0597 40.2487 29.4883 41.6914 32.9752 42.4395C36.9986 43.2966 38.2816 43.2983 39.6965 42.371C40.2366 42.0107 41.603 40.8106 42.7493 39.7069C43.8717 38.5888 45.7061 36.9041 46.7906 35.9584C49.0122 34.0334 51.5867 31.5715 52.5464 30.4537C52.8949 30.0604 53.234 29.7101 53.3248 29.6668C53.4014 29.6475 53.6811 30.5133 53.9517 31.585Z" fill="#E44B60"/>
</svg>
