<svg width="160" height="194" viewBox="0 0 160 194" fill="none" xmlns="http://www.w3.org/2000/svg">
<path id="Vector 28" d="M159.546 3.49359C159.877 2.43959 159.29 1.31732 158.236 0.986943C157.182 0.656565 156.06 1.24318 155.729 2.29718L159.546 3.49359ZM0.998534 182.719C0.518848 183.714 0.936587 184.91 1.93157 185.39L18.1457 193.206C19.1407 193.686 20.3361 193.268 20.8158 192.273C21.2955 191.278 20.8777 190.083 19.8827 189.603L5.47021 182.655L12.4185 168.242C12.8982 167.247 12.4804 166.052 11.4855 165.572C10.4905 165.093 9.29504 165.51 8.81535 166.505L0.998534 182.719ZM155.729 2.29718C148.363 25.7978 131.804 63.0649 106.117 98.272C80.4228 133.489 45.7255 166.47 2.14035 181.7L3.45985 185.476C48.0973 169.878 83.3922 136.206 109.348 100.63C135.311 65.0439 152.059 27.3787 159.546 3.49359L155.729 2.29718Z" fill="#2458A4"/>
</svg>
