<svg width="204" height="143" viewBox="0 0 204 143" fill="none" xmlns="http://www.w3.org/2000/svg">
<path id="Vector 26" d="M2.4296 0.046683C1.35081 -0.190576 0.283942 0.491617 0.046683 1.5704C-0.190576 2.64919 0.491617 3.71606 1.5704 3.95332L2.4296 0.046683ZM194.792 142.37C195.825 142.762 196.979 142.241 197.37 141.208L203.744 124.375C204.135 123.342 203.615 122.187 202.582 121.796C201.549 121.405 200.395 121.925 200.004 122.958L194.338 137.921L179.375 132.256C178.342 131.865 177.187 132.385 176.796 133.418C176.405 134.451 176.925 135.605 177.958 135.996L194.792 142.37ZM1.5704 3.95332C25.6237 9.24338 64.1921 22.4917 101.504 45.0123C138.826 67.5391 174.706 99.2299 193.677 141.322L197.323 139.678C177.894 96.5701 141.274 64.3443 103.571 41.5877C65.8579 18.825 26.8763 5.42329 2.4296 0.046683L1.5704 3.95332Z" fill="#2458A4"/>
</svg>
