<svg width="40" height="18" viewBox="0 0 40 18" fill="none" xmlns="http://www.w3.org/2000/svg">
<path d="M4.004 13.64C3.192 13.64 2.506 13.472 1.946 13.136C1.39533 12.8 0.942667 12.2867 0.588 11.596L2.324 10.728C2.44533 11.1387 2.63667 11.47 2.898 11.722C3.15933 11.974 3.542 12.1 4.046 12.1C4.39133 12.1 4.68533 12.0393 4.928 11.918C5.17067 11.7967 5.35733 11.6193 5.488 11.386C5.628 11.1527 5.698 10.868 5.698 10.532C5.698 10.196 5.63267 9.916 5.502 9.692C5.38067 9.45867 5.20333 9.286 4.97 9.174C4.73667 9.05267 4.44267 8.992 4.088 8.992C3.84533 8.992 3.61667 9.01533 3.402 9.062C3.19667 9.10867 3.01 9.18333 2.842 9.286C2.674 9.37933 2.52467 9.50533 2.394 9.664L0.882 9.384L1.456 4.26H7.042V5.814H2.912L2.632 8.068L2.59 8.25H2.618C2.814 8.026 3.08 7.85333 3.416 7.732C3.76133 7.61067 4.15333 7.55 4.592 7.55C5.19867 7.55 5.71667 7.67133 6.146 7.914C6.57533 8.15667 6.90667 8.49733 7.14 8.936C7.37333 9.36533 7.49 9.86 7.49 10.42C7.49 10.952 7.40133 11.4233 7.224 11.834C7.04667 12.2353 6.79467 12.5713 6.468 12.842C6.15067 13.1033 5.782 13.304 5.362 13.444C4.942 13.5747 4.48933 13.64 4.004 13.64ZM10.0944 11.358C10.3931 11.358 10.6404 11.4327 10.8364 11.582C11.0324 11.722 11.1818 11.9133 11.2844 12.156C11.3871 12.3893 11.4384 12.6507 11.4384 12.94C11.4384 13.3227 11.3591 13.6913 11.2004 14.046C11.0511 14.4007 10.8411 14.718 10.5704 14.998C10.2998 15.278 9.99177 15.4973 9.64644 15.656L8.82044 14.998C9.07244 14.8953 9.3011 14.7693 9.50644 14.62C9.7211 14.4707 9.9031 14.3027 10.0524 14.116C10.2018 13.9293 10.3091 13.738 10.3744 13.542L10.3044 13.5C10.2578 13.528 10.2018 13.5513 10.1364 13.57C10.0711 13.598 9.97777 13.612 9.85644 13.612C9.7071 13.612 9.55777 13.5747 9.40844 13.5C9.2591 13.416 9.1331 13.2993 9.03044 13.15C8.92777 12.9913 8.87644 12.7953 8.87644 12.562C8.87644 12.31 8.93244 12.0953 9.04444 11.918C9.15644 11.7407 9.30577 11.6053 9.49244 11.512C9.6791 11.4093 9.87977 11.358 10.0944 11.358ZM16.3192 13.64C15.1339 13.64 14.2192 13.2387 13.5752 12.436C12.9405 11.6333 12.6232 10.448 12.6232 8.88C12.6232 7.312 12.9405 6.12667 13.5752 5.324C14.2192 4.52133 15.1339 4.12 16.3192 4.12C17.5045 4.12 18.4145 4.52133 19.0492 5.324C19.6932 6.12667 20.0152 7.312 20.0152 8.88C20.0152 10.448 19.6932 11.6333 19.0492 12.436C18.4145 13.2387 17.5045 13.64 16.3192 13.64ZM16.3192 12.086C16.7205 12.086 17.0472 11.974 17.2992 11.75C17.5605 11.5167 17.7565 11.1667 17.8872 10.7C18.0179 10.224 18.0832 9.61733 18.0832 8.88C18.0832 8.14267 18.0179 7.54067 17.8872 7.074C17.7565 6.598 17.5605 6.248 17.2992 6.024C17.0472 5.79067 16.7205 5.674 16.3192 5.674C15.9179 5.674 15.5865 5.79067 15.3252 6.024C15.0639 6.248 14.8679 6.598 14.7372 7.074C14.6159 7.54067 14.5552 8.14267 14.5552 8.88C14.5552 9.61733 14.6159 10.224 14.7372 10.7C14.8679 11.1667 15.0639 11.5167 15.3252 11.75C15.5865 11.974 15.9179 12.086 16.3192 12.086Z" fill="#E44B60"/>
<path d="M32 2L33.975 6.2817L38.6574 6.83688L35.1955 10.0383L36.1145 14.6631L32 12.36L27.8855 14.6631L28.8045 10.0383L25.3426 6.83688L30.025 6.2817L32 2Z" fill="#E44B60" stroke="#E44B60" stroke-linejoin="round"/>
</svg>
