<svg width="63" height="55" viewBox="0 0 63 55" fill="none" xmlns="http://www.w3.org/2000/svg">
<g id="Black">
<path id="Vector" d="M31.8054 0.580444C31.2724 0.797569 30.3842 1.1726 29.8315 1.44895C28.5485 2.10032 24.8376 3.65968 21.3438 5.02165C18.5804 6.10728 16.7447 6.9363 11.7706 9.36416C10.3099 10.0748 8.17815 11.0617 7.0333 11.5749C5.88846 12.0684 3.99355 13.0158 2.78949 13.6672C1.60517 14.3186 0.480062 14.9305 0.322152 15.0094C-0.171315 15.266 -0.112099 16.0358 0.598494 18.286C1.3683 20.7139 1.9802 22.1746 2.3355 22.4706C2.47367 22.5891 3.4606 23.0431 4.52649 23.5168L6.44114 24.3458V25.3722C6.4214 25.9249 6.30297 27.6619 6.12532 29.241C5.63186 33.9388 5.49369 37.1365 5.67134 38.913L5.82924 40.5908L5.23708 41.2027C4.74362 41.7159 4.66466 41.9527 4.6844 42.7818C4.70414 43.7292 4.30937 46.1768 3.48034 50.3219C2.98687 52.8485 2.96714 54.2697 3.40139 54.4473C3.57903 54.5065 3.77642 54.4473 3.87511 54.3289C3.97381 54.1315 4.05276 54.1512 4.13172 54.3881C4.21067 54.5657 4.38832 54.7039 4.52649 54.7039C4.74362 54.7039 4.84231 54.2302 4.92127 52.7695C5.11865 49.7298 5.41473 49.1968 5.43447 51.8813C5.45421 53.2235 5.53316 54.1118 5.6516 54.1118C5.77003 54.1118 5.84898 53.9933 5.86872 53.8552C5.86872 53.7367 5.96742 53.9341 6.10559 54.3091C6.24376 54.6842 6.48062 55 6.63853 55C6.89513 55 6.93461 54.6447 6.89513 52.8287L6.85566 50.6575L7.09252 52.355C7.32938 54.0723 7.62546 54.7039 8.17815 54.7039C8.39527 54.7039 8.43475 54.546 8.3558 53.9538C8.27684 53.5591 8.17815 52.8287 8.11893 52.3353L8.0005 51.447L8.37553 52.4932C8.92822 54.0328 9.20456 54.2105 9.18482 53.0064C9.18482 52.4734 9.10587 51.5852 9.00717 51.0523C8.3558 47.0058 8.0005 44.1635 8.02024 43.0976C8.03998 41.7751 7.78337 41.0842 7.28991 41.0842C7.0333 41.0842 7.01357 40.9066 7.11226 40.0381C7.46756 37.097 7.82285 32.3597 7.92154 29.774C8.0005 26.8132 8.15841 25.4907 8.39527 25.4907C8.45449 25.5104 9.65855 26.1223 11.06 26.8526L13.5865 28.2146V33.8401V39.4657L14.8301 40.7289C17.5145 43.4726 24.0086 45.782 30.0289 46.1373C34.0753 46.3742 39.4245 45.2294 43.0564 43.3344C44.8329 42.4067 45.3856 42.0119 47.6358 40.2355C49.6096 38.6761 49.807 37.7089 49.4912 31.8663C49.353 29.6161 49.1754 27.3264 49.057 26.7737C48.9583 26.2407 48.9385 25.767 49.0372 25.7275C49.3728 25.6288 56.5379 21.3653 58.4723 20.1415C61.7884 18.0294 61.4331 18.5229 62.3214 14.7528C62.7556 12.9171 63.0517 11.2591 62.9925 11.0814C62.8543 10.6274 62.2227 10.2327 61.216 9.91684C60.7817 9.77867 59.4 9.28521 58.1565 8.79174C54.4654 7.39029 50.6361 6.00858 46.1159 4.46896C43.7867 3.67942 40.9838 2.71222 39.8982 2.29771C34.4898 0.284363 33.3055 0.0277596 31.8054 0.580444ZM34.9241 2.41614C35.8123 2.63327 37.0756 3.02804 37.727 3.28465C40.8259 4.4887 44.3986 5.77172 46.0172 6.24545C47.0041 6.54153 48.8201 7.19291 50.0636 7.66663C51.3072 8.1601 53.3205 8.91017 54.5048 9.32468C55.7089 9.73919 57.5643 10.43 58.65 10.8643L60.6238 11.6341L59.8343 11.9697C58.1565 12.6605 57.3472 13.1145 55.1759 14.5554C53.9521 15.3845 51.2874 16.9833 49.2741 18.1281C47.2607 19.273 45.2277 20.4376 44.7539 20.7139C43.8657 21.2074 38.2796 24.1484 34.095 26.3197C32.8712 26.9513 31.5882 27.6619 31.2724 27.879C30.7 28.2936 30.6605 28.2936 29.4762 27.958C28.8051 27.7804 27.7194 27.3856 27.0681 27.0895C26.4167 26.7737 24.1467 25.846 22.0347 24.9972C14.9683 22.1943 14.2379 21.8982 12.797 21.2271C12.0075 20.8521 11.2771 20.556 11.1587 20.556C11.0403 20.556 11.1389 20.2994 11.3758 19.9638C11.7311 19.4704 11.8495 19.4112 12.1456 19.6085C12.4417 19.7862 12.6588 19.7467 13.2312 19.3914C13.7839 19.0361 14.1195 18.9769 14.7117 19.0756C15.3433 19.1743 15.5604 19.1151 16.0539 18.7006C16.3894 18.4242 16.8434 18.1874 17.0606 18.1874C17.2777 18.1874 17.7317 17.9702 18.0475 17.6939C18.4028 17.3978 18.8765 17.2004 19.2515 17.2004C19.6068 17.2004 20.1201 17.082 20.4161 16.9241C20.7122 16.7859 21.3833 16.6083 21.9163 16.5293C22.4492 16.4701 23.1598 16.2332 23.5348 16.0161C23.8901 15.7792 24.6402 15.5424 25.1929 15.4832C25.8837 15.4042 26.2588 15.2463 26.397 15.0094C26.4956 14.7923 26.7325 14.6344 26.8904 14.6344C27.0681 14.6344 27.1668 14.516 27.1075 14.3778C27.0681 14.2594 26.8509 14.1607 26.6536 14.1804C24.7586 14.4173 23.7717 14.6541 23.298 14.9897C22.9624 15.2265 22.2321 15.4437 21.561 15.5029C20.9293 15.5818 20.2187 15.7595 20.0016 15.9174C19.7648 16.0753 19.3108 16.2135 18.9752 16.2135C18.6396 16.2135 18.2844 16.2924 18.1857 16.3911C17.9488 16.6083 11.4942 18.7203 10.0336 19.0756L8.98743 19.3322L6.63853 18.286C4.64492 17.4175 1.90125 15.9371 1.90125 15.7398C1.90125 15.5818 6.57931 13.3909 8.80979 12.5026C10.1718 11.9499 12.1654 11.1012 13.251 10.588C16.4289 9.08782 18.9949 7.98245 21.936 6.81787C26.2785 5.12034 28.4893 4.17289 30.7987 3.04778C31.983 2.47536 33.0291 2.00163 33.1278 2.00163C33.2265 2.00163 34.0358 2.17928 34.9241 2.41614ZM60.9199 12.8579C60.9199 12.9763 60.7423 13.8448 60.5054 14.7923C60.2883 15.7398 60.0711 16.707 60.0119 16.9438C59.9527 17.2202 59.4 17.6939 58.3934 18.3058C57.5643 18.8387 56.6169 19.4506 56.2813 19.6875C55.4523 20.2994 48.2477 24.5037 48.0305 24.5037C47.9319 24.5037 46.9054 25.1156 45.7606 25.846C42.5037 27.9185 41.8523 28.333 39.306 29.7542C38.0033 30.4846 36.1479 31.5899 35.1609 32.2018C33.5621 33.2085 31.983 33.9783 31.529 33.9783C31.4303 33.9783 31.2921 32.9321 31.2132 31.6491C31.154 30.3859 31.0355 29.1818 30.9961 29.0042C30.9171 28.7475 31.0553 28.5896 31.4501 28.4317C32.2791 28.1356 35.5952 26.5368 36.8387 25.8657C37.4309 25.5301 38.9113 24.7998 40.1153 24.2077C44.1815 22.2535 51.5046 18.1281 55.472 15.5621C57.4459 14.2988 60.387 12.6803 60.7817 12.6605C60.8607 12.6605 60.9199 12.7592 60.9199 12.8579ZM4.1712 17.9702C4.82257 18.2663 5.9082 18.7598 6.57931 19.0756L7.82285 19.6283L7.32938 20.0823C6.69775 20.6547 6.44114 21.3455 6.44114 22.372C6.44114 22.9246 6.36219 23.1418 6.20428 23.0628C6.06611 23.0036 5.33578 22.7272 4.56597 22.4312C3.12505 21.8587 2.49341 21.3455 2.49341 20.7534C2.49341 20.556 2.25654 19.6085 1.9802 18.6611C1.68412 17.6939 1.40778 16.7464 1.34856 16.5293C1.26961 16.2332 1.42752 16.2924 2.11837 16.8056C2.5921 17.1412 3.51982 17.6741 4.1712 17.9702ZM9.87567 20.7336C9.93489 20.8323 10.2112 20.9705 10.5073 21.0297C10.7837 21.1087 11.6522 21.464 12.422 21.8193C13.2115 22.1746 15.0472 22.9246 16.5079 23.4773C19.8634 24.7406 25.1139 26.8921 26.6733 27.6422C27.3247 27.958 28.3511 28.3725 28.9432 28.5502C29.5354 28.7475 30.0881 28.9449 30.167 29.0239C30.2263 29.0831 30.3249 30.3069 30.3644 31.7281L30.4236 34.3139L29.338 33.8204C28.7459 33.544 27.0089 32.7348 25.489 32.0044C23.9691 31.2544 21.1267 29.9713 19.1726 29.1423C17.2185 28.3133 13.9616 26.8132 11.9285 25.8262C7.80311 23.8524 7.94128 23.9905 8.53344 22.214C8.98743 20.8916 9.57959 20.2402 9.87567 20.7336ZM48.0898 28.2936C48.1095 29.4187 48.1095 31.6689 48.1292 33.3072C48.1292 35.0837 48.0305 36.7417 47.8726 37.4326C47.6358 38.5182 47.5371 38.6366 46.1751 39.7223C44.7342 40.8671 41.5563 42.5449 39.464 43.2752C33.5424 45.3083 26.2588 44.8148 19.7648 41.9133C17.8896 41.0842 16.804 40.3144 15.9552 39.2091C15.3433 38.3998 15.3433 38.38 15.363 36.2285C15.3828 35.0442 15.3038 32.9321 15.1656 31.511C15.0472 30.1095 14.9683 28.9449 14.988 28.9252C15.0472 28.8857 21.8965 32.1031 25.0942 33.6822C28.7853 35.4982 30.0289 35.814 31.6277 35.2613C32.2396 35.0442 33.8582 34.2152 35.2399 33.4256C36.6018 32.6163 38.7928 31.432 40.0759 30.7806C42.7011 29.4581 45.8001 27.7014 47.0041 26.8526C47.4384 26.5566 47.8529 26.3 47.9516 26.2802C48.0305 26.2802 48.0898 27.1882 48.0898 28.2936Z" fill="#2458A4"/>
</g>
</svg>
