<svg width="57" height="54" viewBox="0 0 57 54" fill="none" xmlns="http://www.w3.org/2000/svg">
<g id="Icon">
<path id="Fill 1" fill-rule="evenodd" clip-rule="evenodd" d="M33.0216 28.1697C32.4925 29.6893 32.0555 31.2519 31.3788 32.8347C31.1303 33.4109 30.9009 34.0208 30.4385 34.6126C30.3231 34.7431 30.2066 34.8736 30.0787 34.9984C29.9166 35.1185 29.7898 35.2484 29.5873 35.3406C29.2156 35.5539 28.717 35.6052 28.3189 35.5218C27.8736 35.4333 27.5645 35.2065 27.318 35.0108C27.0711 34.8058 26.8733 34.5924 26.6848 34.3781C25.9532 33.5171 25.4003 32.6265 24.8168 31.7531C24.3057 30.9775 23.7652 30.2252 23.1962 29.5278C22.8374 29.0763 22.4511 28.6517 22.0566 28.2712C21.6641 27.8958 21.2458 27.551 20.8585 27.4355C20.6488 27.3874 20.5266 27.1031 20.9103 26.8132C21.0972 26.69 21.4374 26.6035 21.7853 26.6594C22.1369 26.707 22.5153 26.8598 22.8136 27.1052C23.8765 27.9755 24.6231 28.9676 25.3309 29.9694C26.0361 30.9651 26.6745 31.9912 27.3429 32.9305C27.5422 33.2111 27.7612 33.4731 27.988 33.6879C28.2086 33.8987 28.4674 34.07 28.5674 34.0592C28.7336 34.0809 28.7941 34.0618 28.9692 33.8987C29.1276 33.7335 29.2995 33.4907 29.4403 33.1899C29.7675 32.5515 30.0176 31.7857 30.2578 31.0246L30.977 28.6916C31.2716 27.7244 31.5812 26.7536 31.9152 25.787C32.419 24.3223 33.0418 22.8782 33.7822 21.4953C34.3579 20.4241 34.9616 19.3461 35.833 18.4116C36.0199 18.2034 36.2193 18.0088 36.4305 17.8167C37.2636 17.1524 37.67 17.1358 38.0847 17.4832C38.181 17.5635 38.2882 17.6375 38.3633 17.7297C38.6175 18.0533 38.4259 18.5017 37.9807 18.9345C37.3154 19.59 36.736 20.3211 36.2063 21.1319C35.6673 21.9339 35.1801 22.8172 34.7457 23.7538C34.1006 25.1455 33.5523 26.6413 33.0656 28.1806L33.0216 28.1697Z" fill="#2458A4"/>
<path id="Stroke 3" fill-rule="evenodd" clip-rule="evenodd" d="M55.2949 26.5848C55.2949 30.3753 49.6622 32.8082 48.0209 35.9816C46.3362 39.2393 47.63 45.1898 44.7337 47.4048C41.8369 49.6208 36.431 46.8145 32.8481 47.5896C29.3528 48.3461 25.5333 53.1488 21.8779 52.1609C19.3125 51.4676 18.9733 45.8992 16.8402 44.4494C14.6713 42.9759 9.39073 44.7207 7.80847 42.6513C6.22621 40.5813 9.29442 35.9422 8.44013 33.4632C7.59929 31.0241 2.3125 29.2409 2.3125 26.5848C2.3125 22.7581 7.95655 20.3899 9.65012 17.2637C11.3887 14.0531 10.2419 8.09633 13.2138 5.94299C16.1479 3.81761 21.5321 6.7248 25.1263 5.94196C28.6445 5.17568 32.3645 0.276166 36.0064 1.09111C38.5802 1.66737 39.0006 7.21511 41.1156 8.67725C43.2369 10.1435 48.5175 8.48931 50.0495 10.5981C51.5634 12.6816 48.3911 17.2575 49.2066 19.7272C50.0169 22.1808 55.2949 23.9867 55.2949 26.5848Z" stroke="#2458A4" stroke-width="2"/>
<path id="Stroke 5" d="M22.039 53.0001C19.1949 52.3296 18.5415 46.6218 16.3043 45.2819C13.8584 43.8172 8.49088 45.7805 6.80869 43.6939C5.07214 41.5411 8.15123 36.6929 7.27001 34.0803C6.40588 31.5169 1 29.596 1 26.7867C1 22.8165 6.86979 20.2614 8.76166 16.8965C10.6639 13.513 9.69155 7.23158 12.883 5.01455C16.0827 2.79183 21.5476 5.91597 25.4127 5.42565C29.1441 4.95242 33.7423 0.555651 37.5162 2.21091" stroke="#2458A4" stroke-width="2"/>
<path id="Fill 7" fill-rule="evenodd" clip-rule="evenodd" d="M45.7485 6.86134C45.4586 6.88878 45.1888 6.91519 44.9098 6.96645C44.6245 7.01563 44.3149 7.07725 43.9804 7.10158C43.7365 7.11815 43.4699 7.13886 43.1939 7.06637C42.9547 7.00424 42.7129 6.88309 42.526 6.71689C42.351 6.55276 42.1998 6.36844 42.0947 6.17169C41.8762 5.78027 41.7784 5.38056 41.6919 5.00105C41.6163 4.66347 41.5469 4.33418 41.4491 4.02767C41.3243 3.629 41.1519 3.28728 40.9572 2.9642C40.8998 2.86117 41.0033 2.75348 41.1959 2.73639C41.3854 2.71258 41.6893 2.81457 41.8374 3.06827C42.3629 3.95881 42.424 4.86902 42.6674 5.57213C42.743 5.78131 42.8657 5.96097 43.0257 6.08316C43.1737 6.19655 43.3446 6.25505 43.5589 6.27524C44.0342 6.32754 44.6162 6.14943 45.2385 6.0728C45.6087 6.0231 45.9831 5.98996 46.359 5.96977C46.928 5.93508 47.5053 5.96822 48.0691 6.02051C48.5087 6.05779 48.9431 6.09817 49.3713 6.18308C49.4655 6.20276 49.5602 6.2126 49.6524 6.24004C49.9972 6.33893 50.077 6.46112 50.094 6.65217C50.0977 6.69566 50.1075 6.73915 50.1049 6.77798C50.1008 6.89707 49.9201 6.99492 49.6633 6.98768C48.9037 6.94936 48.1721 6.85513 47.4318 6.81578C46.8814 6.79403 46.3201 6.81164 45.7522 6.88257L45.7485 6.86134Z" fill="#2458A4"/>
<path id="Fill 9" fill-rule="evenodd" clip-rule="evenodd" d="M12.7273 46.0714C13.3418 46.19 13.9481 46.5115 14.3582 46.9822C14.5109 47.1458 14.6486 47.3306 14.7636 47.5093C15.1322 48.1508 15.3999 48.8244 15.6479 49.4943C15.7623 49.791 15.8757 50.084 15.9891 50.3781C16.1372 50.7514 16.2972 51.1201 16.3976 51.5089C16.4644 51.7512 16 51.5964 15.8043 51.1734C15.4719 50.4211 15.1783 49.6693 14.878 48.9191C14.6963 48.4759 14.4255 48.0348 14.1428 47.6656C13.8472 47.2592 13.4361 46.9661 12.952 46.832C12.6558 46.745 12.3358 46.7109 12.0117 46.7161C11.5199 46.7228 11.0135 46.7958 10.5237 46.9226C10.1416 47.0215 9.78071 47.1769 9.40534 47.3068C9.32198 47.3332 9.24069 47.3643 9.15527 47.386C8.83633 47.4668 8.71673 47.4363 8.61111 47.2778C8.58625 47.2416 8.55726 47.2069 8.53965 47.1691C8.48115 47.0422 8.58418 46.8993 8.79646 46.7948C9.42398 46.4587 10.1452 46.2578 10.9156 46.1056C11.4878 46.0036 12.1003 45.9508 12.7288 46.0538L12.7273 46.0714Z" fill="#2458A4"/>
</g>
</svg>
