<svg width="55" height="60" viewBox="0 0 55 60" fill="none" xmlns="http://www.w3.org/2000/svg">
<g id="Icon">
<path id="Fill 1" fill-rule="evenodd" clip-rule="evenodd" d="M27.8864 55.7279C27.6995 55.7708 27.5953 55.6507 27.3929 55.5355C27.3246 55.4981 27.2324 55.3541 27.2962 55.2977C27.3535 55.2479 27.4298 55.1841 27.4971 55.1457C27.5599 55.1103 27.6267 55.0759 27.6975 55.045C27.7962 54.9697 29.0559 54.8969 29.4617 54.9896C29.864 55.0365 30.2524 55.1487 30.6327 55.2878C31.0171 55.4388 31.401 55.5993 31.7773 55.8147C31.9668 55.9174 32.1517 56.035 32.3322 56.1776C32.4229 56.2484 32.5151 56.3062 32.6019 56.395L32.7823 56.5714C32.8526 56.6417 32.9274 56.7105 32.9798 56.7828C33.0864 56.9089 33.1393 57.053 33.2155 57.1871C33.2749 57.3242 33.3771 57.4583 33.3885 57.5929C33.414 57.8257 33.4663 58.0291 33.4852 58.2684C33.4987 58.385 33.5127 58.5007 33.5261 58.6148C33.5456 58.7425 33.5336 58.7918 33.5391 58.884C32.9778 58.9608 32.3626 59.0475 31.9508 59.2061C31.8631 59.233 31.8182 59.246 31.7768 59.2629C31.7325 59.2809 31.6896 59.3033 31.6522 59.3387C31.5914 59.395 31.1861 59.5421 30.7539 59.6712C30.5345 59.725 30.3277 59.8367 30.1467 59.89C29.9652 59.9439 29.8217 59.9628 29.7678 59.9688C29.2229 59.9917 28.6716 60.0221 28.1098 59.9758C28.029 59.9643 27.9428 59.9828 27.8695 59.9214C27.703 59.7844 27.5325 59.7878 27.3605 59.7619C27.1242 59.7345 26.8829 59.6508 26.6676 59.5316C26.5569 59.4748 26.4786 59.3322 26.3949 59.2385C26.3206 59.1487 26.4208 59.0451 26.4592 59.0331C26.5689 59.0127 26.519 58.9179 26.5325 58.8601C26.5369 58.8392 26.5429 58.8122 26.5534 58.7963C26.5589 58.7868 26.6451 58.7679 26.7668 58.727C26.8789 58.7175 27.0315 58.6777 27.18 58.6393C27.4732 58.5859 27.7678 58.4907 27.8271 58.4852C27.8341 58.4847 27.9373 58.4728 28.0913 58.4553C28.2479 58.4339 28.4542 58.4124 28.6701 58.3671C29.0993 58.2908 29.5565 58.1537 29.6477 58.1213C29.7439 58.0939 29.8551 58.1188 29.9627 58.1208C29.9747 58.1198 30.0704 58.1074 30.2045 58.0744C30.3366 58.0296 30.5096 57.9708 30.6826 57.9119C31.0326 57.7903 31.3815 57.6682 31.4079 57.6592C31.4368 57.6582 31.5037 57.6308 31.4877 57.6382C31.4902 57.6397 31.4992 57.6537 31.5734 57.6911L31.5814 57.6946C31.6044 57.7055 31.6048 57.7011 31.6073 57.7001C31.5909 57.6682 31.5924 57.6527 31.5909 57.6283L31.5844 57.5869C31.57 57.556 31.6123 57.6043 31.5201 57.4932C31.3626 57.3456 31.1801 57.2225 30.9832 57.0979C30.9488 57.0744 30.9229 57.0375 30.8915 57.0081C30.8511 56.9722 30.8092 56.9348 30.7619 56.9094C30.2708 56.6407 29.7439 56.3616 29.1746 56.2354C29.046 56.2145 28.4577 55.9074 28.3047 55.9054C28.2628 55.9009 28.1791 55.8471 28.0923 55.7977C28.0101 55.7569 27.9233 55.72 27.8864 55.7279Z" fill="#2458A4"/>
<path id="Fill 3" fill-rule="evenodd" clip-rule="evenodd" d="M17.2903 12.9517C17.0485 12.7075 16.9518 12.4238 16.9109 12.1182C16.899 12.02 17.0286 11.9243 17.1128 11.9846C17.2759 12.1028 17.4454 12.2204 17.6009 12.357C17.6468 12.3994 18.0132 12.7728 18.3846 13.2503C18.7634 13.7199 19.1248 14.3202 19.2689 14.6542C19.5645 15.2858 19.7305 16.038 19.6383 16.8077C19.5536 17.5904 19.1916 18.3357 18.7111 18.906C18.2016 19.5256 17.5839 19.906 17.0341 20.2425C16.7878 20.3941 16.5435 20.5267 16.3082 20.6528C15.9044 20.8671 15.5475 21.1129 15.3007 21.3981C15.041 21.6962 14.9503 21.9574 14.889 22.419C14.8675 22.5586 14.8466 22.7072 14.8735 22.8542C14.884 22.915 14.882 23.1065 14.8795 23.3991C14.874 23.6882 14.87 24.092 14.7823 24.5407C14.6945 24.9904 14.4907 25.442 14.2833 25.7516C14.0734 26.0657 13.8889 26.2526 13.8082 26.3324C13.4039 26.6928 13.036 26.9191 12.6337 27.1614C12.2349 27.3922 11.8246 27.5991 11.3914 27.7606C11.2698 27.8085 11.1421 27.8728 11.015 27.8753C10.7164 27.8733 10.4582 27.977 10.1765 28.0358C9.79016 28.1175 9.38487 28.1569 8.98605 28.0911C8.78864 28.0707 8.6017 27.9805 8.42423 27.9007C8.26421 27.8304 8.38584 27.7048 8.44267 27.6948C8.61267 27.6699 8.49153 27.5811 8.48904 27.5198C8.48804 27.4989 8.48654 27.471 8.49701 27.4555C8.5025 27.4455 8.63161 27.4356 8.81656 27.4211C8.90978 27.4052 9.01746 27.3862 9.13262 27.3658C9.24728 27.3424 9.36842 27.297 9.48955 27.2716C9.9776 27.1444 10.4467 26.8867 10.5444 26.8568C10.5554 26.8483 10.7264 26.784 10.9726 26.6594C11.2199 26.5407 11.537 26.3488 11.8475 26.135C12.1561 25.9206 12.4582 25.6718 12.6606 25.4694C12.8396 25.292 12.9662 25.0995 12.9956 25.0472C13.0704 24.9256 13.1626 24.8209 13.2334 24.7017C13.2623 24.6693 13.4183 24.2556 13.4174 23.6638C13.4154 23.0776 13.4517 22.3283 13.4742 22.2784C13.523 21.9888 13.5659 21.7196 13.6925 21.3766C13.7489 21.2151 13.8406 21.0695 13.9238 20.9235C14.0245 20.7939 14.1237 20.6558 14.2449 20.5541C14.3401 20.4758 14.4159 20.3671 14.5021 20.2844C15.2419 19.5356 16.0914 19.1777 16.7873 18.7385C17.1428 18.5132 17.4548 18.2814 17.6871 18.0117C17.7295 17.9588 17.7838 17.9154 17.8322 17.8661C17.8925 17.8043 17.9638 17.7464 18.0012 17.6717C18.5122 16.9483 18.5984 16.0141 18.2465 15.1188C18.2151 15.0156 18.1178 14.712 17.9962 14.3994C17.8791 14.0864 17.719 13.7763 17.6428 13.6656C17.566 13.5385 17.3895 13.0504 17.2903 12.9517Z" fill="#2458A4"/>
<path id="Fill 5" fill-rule="evenodd" clip-rule="evenodd" d="M35.6978 27.6091C35.4117 27.3304 35.0642 27.1539 34.6888 27.0029C34.5702 26.9535 34.5822 26.8264 34.7417 26.81C35.0463 26.7795 35.3833 26.792 35.7138 26.9366C35.7572 26.965 36.0119 27.0607 36.2572 27.3822C36.5009 27.6978 36.6311 28.2571 36.4975 28.7671C36.3833 29.2896 36.0812 29.7303 35.7572 30.0812C35.4232 30.4441 35.0089 30.647 34.805 30.7597C34.3683 30.997 34.3479 31.0528 34.2297 31.4167C34.135 31.7557 34.1021 32.1869 34.0787 32.6266C34.0258 33.5284 34.1156 34.5364 33.783 35.6327C33.6893 35.9044 33.5747 36.177 33.4107 36.4318C33.3274 36.5579 33.2461 36.6855 33.1415 36.7967L32.9909 36.9682L32.8463 37.1038C32.4675 37.4687 32.0522 37.7882 31.615 38.0614C31.2282 38.3087 30.8164 38.5101 30.3966 38.6741C28.9519 39.2265 27.4519 39.5445 25.9235 39.5949C25.6692 39.6123 25.4085 39.5894 25.1597 39.6213C24.9439 39.6318 23.8317 39.6342 22.6198 39.2195C22.0161 38.9951 21.4652 38.6277 21.0854 38.2628C20.703 37.8984 20.4802 37.5549 20.4044 37.4248C20.025 36.7797 19.7997 36.0235 19.8471 35.2383L19.883 34.9452C19.9049 34.847 19.9338 34.7478 19.9607 34.6501C20.0026 34.4522 20.1063 34.2687 20.1985 34.0873C20.4114 33.7403 20.6935 33.4457 20.9966 33.2453C21.1656 33.1152 21.3436 33.003 21.5196 32.9412C21.9274 32.827 22.2788 32.6476 22.6392 32.493C23.1338 32.2787 23.6143 32.0738 24.0047 31.7866C24.1004 31.7153 24.2021 31.65 24.2888 31.5718C24.389 31.5015 24.4718 31.4167 24.5456 31.32C24.6891 31.149 24.745 31.2971 24.7156 31.3818C24.6313 31.6176 24.7814 31.4756 24.8412 31.4746C24.8611 31.4761 24.8871 31.4775 24.894 31.4955C24.896 31.501 24.8756 31.5553 24.8362 31.6485C24.8048 31.7482 24.7151 31.8554 24.6223 32.0025C24.413 32.2702 24.071 32.5728 23.7026 32.8076C23.3352 33.0444 22.9578 33.2528 22.6672 33.4198C22.378 33.5858 22.1776 33.7159 22.1108 33.7543C22.0994 33.7657 21.8416 33.8983 21.5744 34.1411C21.4398 34.2613 21.3197 34.4133 21.22 34.5808C21.1881 34.6735 21.1402 34.7598 21.1163 34.861C21.1073 34.9686 21.0634 35.0609 21.0704 35.1805C21.039 35.6347 21.1951 36.1322 21.4019 36.4836C21.6073 36.8401 21.8297 37.0714 21.9084 37.1422C22.0655 37.2997 22.2275 37.4577 22.402 37.6048C22.4264 37.6158 22.5989 37.7404 22.8755 37.864C23.1512 37.9911 23.5281 38.0849 23.9723 38.1631C24.8352 38.3122 25.729 38.2808 25.7953 38.2793C26.5032 38.2878 27.2046 38.1731 27.9125 38.1128C28.0541 38.1078 28.1917 38.0619 28.3298 38.0265C29.5103 37.7219 30.6499 37.2359 31.5916 36.5091C31.7187 36.4233 31.8199 36.3111 31.9346 36.2129C32.0572 36.1092 32.1404 36.011 32.2192 35.9173C32.3718 35.7159 32.4874 35.4841 32.5732 35.2249C32.5976 35.1267 32.6444 35.0379 32.6694 34.9357C32.7033 34.8091 32.7416 34.6805 32.7566 34.5429C32.8483 33.8305 32.8229 33.0534 32.8977 32.2228C32.9361 31.8051 33.0108 31.3818 33.1823 30.9307C33.2771 30.7073 33.4012 30.4646 33.6106 30.2637C33.813 30.0623 34.0557 29.9336 34.2477 29.8469C34.4456 29.7502 34.8698 29.648 35.1889 29.3539C35.5403 29.0612 35.7497 28.6525 35.7716 28.4949C35.7926 28.4077 35.8609 28.2217 35.8469 28.0333C35.8429 27.8444 35.7552 27.6674 35.6978 27.6091Z" fill="#2458A4"/>
<path id="Fill 7" fill-rule="evenodd" clip-rule="evenodd" d="M16.8965 8.42844C14.4667 9.45638 12.2513 10.9993 10.4452 12.9255C8.63508 14.8498 7.23076 17.142 6.30203 19.6071C4.42811 24.5345 4.50239 30.1786 6.57821 35.0352C7.60116 37.4644 9.11365 39.6863 10.9886 41.5368C12.8625 43.3898 15.0928 44.8744 17.5151 45.9043C19.9374 46.9357 22.5536 47.5135 25.1893 47.5813C27.8244 47.6526 30.476 47.2009 32.9392 46.2557C35.3968 45.3071 37.681 43.8873 39.5914 42.0637C41.5047 40.2442 43.0386 38.0307 44.0805 35.607C45.1264 33.1842 45.6822 30.556 45.7281 27.9219C45.7779 25.2862 45.3178 22.6501 44.412 20.1809C43.5216 17.7312 42.2145 15.3693 40.4458 13.4091C38.69 11.437 36.519 9.84323 34.1311 8.73104C29.3489 6.49321 23.75 6.18513 18.732 7.75395C17.3277 8.18766 17.8167 9.36914 19.1049 8.95537C23.8313 7.47578 29.1156 7.76991 33.5987 9.87065C35.839 10.914 37.8675 12.4046 39.5081 14.2466C41.1642 16.0876 42.3756 18.2671 43.2305 20.6126C44.084 22.9382 44.5177 25.4223 44.4708 27.8984C44.4274 30.3741 43.905 32.8402 42.9254 35.1099C41.9488 37.3812 40.5136 39.4515 38.7239 41.1534C36.9368 42.8594 34.7996 44.1884 32.4895 45.0812C30.1799 45.9676 27.6953 46.3913 25.2207 46.324C22.746 46.2607 20.2849 45.7173 18.0067 44.7472C13.4393 42.8245 9.64208 39.118 7.73626 34.5456C5.78906 29.9957 5.71578 24.682 7.47853 20.0498C8.35192 17.7337 9.6695 15.5846 11.3625 13.786C13.0519 11.9843 15.1183 10.5461 17.391 9.585C17.8795 9.36316 18.0131 8.96385 17.9089 8.67272C17.7998 8.37062 17.4214 8.18816 16.8965 8.42844Z" fill="#2458A4"/>
<path id="Fill 9" fill-rule="evenodd" clip-rule="evenodd" d="M18.423 3.21033C14.2689 4.24076 10.4029 6.40033 7.34452 9.40039C7.23136 9.4981 8.06488 10.3336 8.15959 10.2314C11.0669 7.37841 14.75 5.31905 18.7112 4.33747C18.8178 4.30856 18.5347 3.17394 18.423 3.21033Z" fill="#2458A4"/>
<path id="Fill 11" fill-rule="evenodd" clip-rule="evenodd" d="M3.9983 13.4971C2.38162 15.9867 1.22755 18.7714 0.59145 21.6672C0.560044 21.7659 1.71361 22.0132 1.72757 21.9175C2.33476 19.1552 3.43498 16.5011 4.97439 14.1307C5.01776 14.0674 4.03968 13.4268 3.9983 13.4971Z" fill="#2458A4"/>
<path id="Fill 13" fill-rule="evenodd" clip-rule="evenodd" d="M0.0134113 26.2783C-0.0718348 28.8871 0.249707 31.5093 0.966571 34.0193C0.982524 34.109 2.11565 33.7805 2.08574 33.7002C1.40177 31.3059 1.09519 28.8048 1.17645 26.3162C1.18093 26.2489 0.0124142 26.2066 0.0134113 26.2783Z" fill="#2458A4"/>
<path id="Fill 15" fill-rule="evenodd" clip-rule="evenodd" d="M3.18786 39.3589C4.81701 42.2638 7.06132 44.8157 9.71142 46.8237C12.3605 48.8357 15.4065 50.3108 18.6149 51.1757C21.8268 52.0307 25.2013 52.2505 28.498 51.8572L29.7338 51.6937C30.1465 51.6468 30.5463 51.5252 30.9536 51.4444L32.1695 51.1722C32.5698 51.0626 32.9627 50.925 33.359 50.8023C34.9582 50.3472 36.4837 49.6593 37.9458 48.8696C38.3551 48.6518 37.7613 47.6318 37.386 47.8491C35.9921 48.6019 34.5365 49.2604 33.0065 49.6931C32.6271 49.8103 32.2523 49.9424 31.8699 50.0481L30.7074 50.3068C30.3185 50.3841 29.9367 50.5022 29.5413 50.5456L28.3609 50.7016C25.2097 51.0775 21.9839 50.8681 18.9135 50.0506C15.8476 49.224 12.9398 47.8142 10.4153 45.897C7.88935 43.9827 5.75422 41.5554 4.20383 38.7911C4.02786 38.4975 2.99543 39.0474 3.18786 39.3589Z" fill="#2458A4"/>
<path id="Fill 17" fill-rule="evenodd" clip-rule="evenodd" d="M6.30262 26.6609C6.30412 26.974 6.31957 27.2871 6.3425 27.5971L6.35995 27.8299L6.37939 28.0209C6.38188 28.0393 6.37241 28.0677 6.39634 28.0737L6.42276 28.0907L6.61669 28.1734C6.74829 28.2347 6.88838 28.2771 7.02597 28.3255C7.30364 28.4152 7.59028 28.4855 7.88341 28.5249C9.05392 28.6874 10.2907 28.5049 11.3501 27.9845C11.7304 27.8025 12.0984 27.5313 12.4722 27.2841L12.9857 26.8663C13.1582 26.7277 13.2968 26.5627 13.4573 26.4151C13.9807 25.8638 14.3806 25.2222 14.5665 24.4939C14.7654 23.7611 14.7375 22.9864 14.7709 22.0925L14.8063 21.7416C14.8342 21.615 14.8566 21.4913 14.8945 21.3642C14.9558 21.2396 14.9848 21.0915 15.1004 20.9589C15.2046 20.8148 15.3322 20.7276 15.4359 20.6523C15.8437 20.3941 16.2066 20.2331 16.5606 20.0287C17.2615 19.6358 17.8931 19.1583 18.3118 18.5207C19.0885 17.3975 18.9948 15.8382 18.5297 14.5445C18.2196 13.7015 17.7495 12.9104 17.1697 12.2125C16.5845 11.535 15.9125 10.8565 15.1503 10.4961C15.0301 10.4373 14.9563 10.4138 14.9055 10.3824C14.8546 10.35 14.8287 10.3136 14.8322 10.2787C14.8357 10.2433 14.8696 10.2074 14.9419 10.173C15.0147 10.1352 15.1288 10.1047 15.2674 10.1087C15.8372 10.0913 16.8557 10.4632 17.6593 11.3196C18.3647 12.0744 18.9724 12.9338 19.3677 13.9144C19.7575 14.8945 19.9569 15.9673 19.8448 17.064C19.7441 18.1617 19.1673 19.2684 18.3383 19.9738C17.9325 20.3378 17.4858 20.6309 17.0396 20.8786L16.3841 21.2256C16.2814 21.2799 16.1732 21.3348 16.088 21.3861C15.9913 21.4365 15.92 21.4953 15.8911 21.5098C15.8626 21.5207 15.8472 21.5816 15.8028 21.6693C15.7819 21.775 15.748 21.8712 15.742 22.0058C15.7121 22.2521 15.7161 22.5492 15.7126 22.8443C15.7121 23.4425 15.6911 24.0956 15.5321 24.7362C15.3786 25.3782 15.0884 25.9894 14.7171 26.5308C14.5186 26.79 14.3252 27.0562 14.0899 27.2751C13.9758 27.3882 13.8676 27.5099 13.7479 27.6141L13.38 27.9152C13.1168 28.147 12.8217 28.32 12.5375 28.5139C12.2634 28.7108 11.9314 28.8753 11.6128 29.0184C10.9662 29.3055 10.2778 29.4735 9.58434 29.5528C8.89041 29.6316 8.18601 29.6081 7.50005 29.4745C7.15558 29.4182 6.81809 29.3195 6.48707 29.2053C6.31907 29.1475 6.16653 29.0787 5.99354 29.0059L5.65555 28.8319L5.48705 28.7452C5.44916 28.7382 5.45265 28.7003 5.44667 28.6699L5.43122 28.5762C5.40829 28.4267 5.37987 28.2602 5.36691 28.1241L5.33451 27.814C5.31556 27.6071 5.29961 27.4007 5.29113 27.1948C5.2697 26.7826 5.26023 26.3703 5.27119 25.9585C5.28316 25.1355 5.34797 24.3139 5.4721 23.5008C5.65356 22.268 5.96662 21.0521 6.40482 19.8831L6.76026 19.0177C6.88987 18.7345 7.03494 18.4584 7.17103 18.1782C7.29965 17.8945 7.47064 17.6338 7.62568 17.3646L7.86247 16.9633C7.91532 16.8855 7.98561 16.7151 8.05789 16.5844C8.95273 14.885 9.98814 13.2952 11.3446 11.9149C11.6382 11.6068 11.9493 11.3256 12.2808 11.0469C12.5974 10.7997 12.8755 10.6107 13.1158 10.4667C13.3651 10.3346 13.5715 10.2369 13.7464 10.1686C14.1014 10.0404 14.3457 10.0539 14.554 10.1157C14.6502 10.1451 14.7659 10.1651 14.8292 10.2084C14.9369 10.2812 14.8646 10.4258 14.6587 10.6177C14.557 10.7164 14.4169 10.8161 14.2514 10.9363C14.0914 11.0684 13.902 11.2109 13.6846 11.361C13.061 11.8446 12.4613 12.3735 11.9049 12.9672C11.3541 13.5664 10.8381 14.213 10.358 14.8955C9.88046 15.5779 9.4323 16.2983 9.04246 17.0366L8.90238 17.3108L8.88792 17.3407C8.87944 17.3566 8.86449 17.3905 8.85153 17.4105L8.78173 17.5291L8.70197 17.6637L8.38143 18.2021C8.16108 18.5576 8.00106 18.9474 7.80514 19.3178C6.77571 21.585 6.27072 24.1285 6.32854 26.6569L6.30262 26.6609Z" fill="#2458A4"/>
<path id="Fill 19" fill-rule="evenodd" clip-rule="evenodd" d="M25.5063 7.97325C25.456 7.97325 25.3932 7.97525 25.3139 7.98522L25.2501 7.99419C25.2247 7.99419 25.1992 8.00566 25.2227 8.01563C25.2451 8.03009 25.2735 8.04006 25.3054 8.05202L25.8219 8.23198C26.0891 8.3277 26.3573 8.43189 26.629 8.57347C26.7656 8.64774 26.9017 8.72252 27.0412 8.8322C27.1639 8.92243 27.3728 9.12333 27.4565 9.34018C27.5512 9.55953 27.5452 9.81527 27.4411 10.0306C27.4256 10.088 27.3892 10.1383 27.3578 10.1906L27.2835 10.3088C27.2362 10.3821 27.1659 10.4539 27.1051 10.5237C26.8289 10.8208 26.3922 10.921 26.126 10.9539C25.6315 11.0107 25.4151 11.1234 25.1638 11.4708C24.9241 11.8103 24.7481 12.2171 24.7237 12.606C24.6514 13.3014 25.0766 13.9809 25.7182 14.422C26.0343 14.6464 26.3972 14.8248 26.774 14.954C27.13 15.0776 27.5323 15.117 27.9401 15.123C28.7616 15.1344 29.6086 14.9839 30.4845 14.8867C30.9247 14.8433 31.3738 14.7924 31.8704 14.8737C32.1136 14.9071 32.3938 15.0257 32.5907 15.1728C32.7886 15.3184 32.9551 15.4724 33.1161 15.6284C33.677 16.1828 34.185 16.7516 34.7433 17.2601C35.2977 17.7656 35.8944 18.2232 36.5439 18.5019C36.9682 18.6734 37.3889 18.7407 37.8386 18.7078C38.3137 18.6729 38.7873 18.6016 39.2544 18.5074C39.721 18.4127 40.1831 18.2945 40.6283 18.1445C41.061 17.9949 41.5316 17.8119 41.8152 17.5687C41.8506 17.5343 41.8765 17.5078 41.8975 17.4929C41.9 17.4864 41.9329 17.4749 41.9379 17.4754C41.9578 17.4779 42.0042 17.4505 42.0401 17.4381C42.0774 17.4271 42.1233 17.4301 42.1816 17.5059C42.1961 17.5422 42.2056 17.5941 42.2066 17.6634C42.1966 17.7212 42.1791 17.7945 42.1472 17.8703C41.8656 18.4545 40.9443 19.0522 39.7938 19.3185C39.2813 19.4366 38.7633 19.5204 38.2404 19.5722L37.8466 19.6016C37.7179 19.6126 37.5484 19.5991 37.4014 19.5961C37.2463 19.5986 37.1018 19.5637 36.9547 19.5353C36.8062 19.5094 36.6621 19.475 36.528 19.4211C35.9706 19.2397 35.4886 18.9471 35.0594 18.625C34.6271 18.3035 34.2343 17.9505 33.8704 17.5861C33.5045 17.2237 33.1585 16.8503 32.8185 16.4944C32.4855 16.1469 32.1166 15.7795 31.8704 15.7022C31.5349 15.61 31.0408 15.6324 30.5613 15.6803C30.0742 15.7281 29.5702 15.7979 29.0543 15.8418C28.4386 15.8952 27.7935 15.931 27.125 15.8239C26.438 15.7107 25.8324 15.441 25.2655 15.0581C24.7082 14.6748 24.2102 14.1155 23.9998 13.4046C23.7909 12.6902 23.9539 11.913 24.2994 11.3238C24.4779 11.0012 24.7232 10.6593 25.1055 10.4354C25.4859 10.2016 25.9321 10.1872 26.1903 10.1318C26.3269 10.1024 26.4171 10.067 26.4954 9.99673C26.5397 9.9723 26.5707 9.91397 26.6125 9.87609L26.6624 9.79582C26.6704 9.78336 26.6808 9.7714 26.6868 9.75694C26.7357 9.62134 26.6898 9.54507 26.4066 9.3676C26.1539 9.21605 25.8498 9.09292 25.5417 8.98424L25.3079 8.90448L24.959 8.7958L24.1793 8.57247C23.9176 8.49969 23.6798 8.42142 23.5023 8.34166C23.3288 8.2609 23.2306 8.18512 23.1503 8.11483C23.0661 8.04006 22.9828 7.99319 22.9006 7.87953C22.8926 7.86956 22.8762 7.83217 22.8821 7.8247L22.9041 7.80127L22.9489 7.75341C22.9794 7.7235 23.0063 7.68262 23.0357 7.64772C23.0551 7.6223 23.0761 7.59887 23.0955 7.57095C23.3522 7.50764 23.6065 7.44383 23.8901 7.39149C24.1563 7.33067 24.4525 7.2863 24.7556 7.24642L25.2027 7.1851L25.5861 7.1517C25.7905 7.13326 25.9954 7.1193 26.2008 7.11481C27.0208 7.07593 27.8444 7.10484 28.6604 7.20405C29.9406 7.3546 31.2093 7.68611 32.3868 8.226C33.5753 8.76938 34.6107 9.51815 35.6471 10.2315C37.2483 11.3676 38.7917 12.5357 40.1816 13.9255C40.4832 14.2361 40.7803 14.5397 41.0635 14.8772C42.0959 16.1444 42.244 16.7212 42.1841 17.1185C42.1682 17.2112 42.1607 17.3249 42.1303 17.3827C42.0022 17.5791 41.7355 17.0233 41.0495 16.1409C40.034 14.8228 38.7344 13.6439 37.364 12.5317C35.9871 11.4359 34.502 10.3606 32.9855 9.45235C31.8773 8.80478 30.64 8.37306 29.3583 8.14175C28.7188 8.01862 28.0642 7.96528 27.4102 7.93287C27.0816 7.93587 26.7536 7.91543 26.4251 7.93686L25.9326 7.9583L25.5113 7.99369L25.5063 7.97325Z" fill="#2458A4"/>
<path id="Fill 21" fill-rule="evenodd" clip-rule="evenodd" d="M21.6077 38.3143C22.5694 38.8542 23.8635 38.9733 25.1547 39.0675C26.4413 39.1597 27.722 39.1767 28.9444 38.9549C29.8392 38.8008 30.6717 38.4598 31.427 38.0077C31.761 37.8088 32.075 37.576 32.3682 37.3167C32.6563 37.0585 32.9529 36.7674 33.1618 36.4847C33.5995 35.8975 33.8134 35.1462 33.932 34.3461C33.9908 33.9443 34.0297 33.53 34.0706 33.1073C34.1224 32.7334 34.0606 32.2763 34.268 31.7274C34.3248 31.5918 34.4031 31.4512 34.5188 31.3281C34.6499 31.1955 34.7396 31.1426 34.8318 31.0738L35.3652 30.7144C35.7112 30.4821 36.0427 30.2448 36.3493 29.9851C36.8932 29.5309 37.3553 28.9801 37.5348 28.3669C37.6265 28.0583 37.622 27.7956 37.5009 27.5444C37.3837 27.2951 37.1579 27.0708 36.8892 26.8888C36.7142 26.7727 36.5258 26.6675 36.3239 26.5827C36.2237 26.5398 36.1215 26.5 36.0183 26.4646L35.8657 26.4152C35.8323 26.4028 35.8099 26.4043 35.7526 26.3993C35.3518 26.338 34.9415 26.3973 34.5472 26.5403C33.7565 26.8265 33.0347 27.4013 32.3991 28.0419C32.2022 28.2438 32.0745 28.2911 31.9903 28.2193C31.9036 28.153 31.8776 27.9506 31.9429 27.6645C32.0745 27.1111 32.5721 26.1306 33.7725 25.5618C34.2974 25.322 34.9016 25.1689 35.5268 25.1889L35.9949 25.2412C36.2312 25.2801 36.3448 25.3394 36.4789 25.3848C36.7431 25.486 36.9989 25.6071 37.2511 25.7522C37.5029 25.8998 37.7486 26.0802 37.9809 26.2981C38.2078 26.5304 38.4241 26.8026 38.5652 27.147C38.6953 27.488 38.7611 27.8838 38.6998 28.2338C38.6579 28.5962 38.5468 28.8639 38.4211 29.1526C37.8668 30.2533 36.969 30.9168 36.1369 31.4881C35.7406 31.7638 35.1898 32.0729 35.2446 32.1257C35.1942 32.2304 35.1608 32.4278 35.1454 32.6561C35.1324 32.8825 35.104 33.1875 35.0736 33.4144C35.0028 34.0036 34.9395 34.6198 34.791 35.2504C34.6439 35.877 34.4041 36.5256 34.0018 37.0854C33.8039 37.3751 33.5711 37.6054 33.3502 37.8362C33.1254 38.067 32.8767 38.2794 32.6239 38.4818C32.1149 38.8871 31.5406 39.2046 30.9509 39.4609C29.6398 40.0132 28.233 40.1772 26.8765 40.1917C26.1956 40.1947 25.5206 40.1623 24.8511 40.1124C24.188 40.0596 23.5061 40.0052 22.8246 39.8642C21.9956 39.6912 21.1242 39.4135 20.4258 38.7864C20.0808 38.4763 19.8036 38.0755 19.6421 37.6398C19.5529 37.4234 19.5145 37.216 19.4497 37.0037C19.4168 36.7853 19.3614 36.5705 19.3529 36.3476C19.2946 35.6781 19.4053 34.9807 19.6929 34.3635C19.9781 33.7444 20.4277 33.213 20.9582 32.8127C21.4906 32.4124 22.0943 32.1292 22.7179 31.9447C22.857 31.9054 23.0788 31.8545 23.1187 31.8331C23.2259 31.7807 23.3575 31.7025 23.4717 31.6262C23.7055 31.4672 23.9223 31.2817 24.1123 31.0748C24.4119 30.7553 24.6342 30.3764 24.7828 29.9761C24.9453 29.5269 25.1228 29.0598 25.3944 28.6152C25.6671 28.1725 26.0654 27.7622 26.546 27.5075C27.0211 27.2438 27.5366 27.1097 28.0366 27.0389C28.4788 26.981 28.9045 26.9456 29.3517 26.9576C30.1792 26.9875 30.7251 27.1396 31.0805 27.3021C31.4369 27.4681 31.6089 27.65 31.6992 27.8574C31.74 27.9531 31.7979 28.0603 31.7969 28.1401C31.7834 28.4078 31.2455 28.2064 30.2056 28.0793C29.4454 27.988 28.6134 28.0269 27.8701 28.179C27.1148 28.3465 26.5969 28.6785 26.2499 29.3046C26.0664 29.6207 25.9264 29.9786 25.7693 30.4008C25.5779 30.8969 25.2932 31.359 24.9408 31.7523C24.5839 32.1451 24.1801 32.4742 23.702 32.7359L23.6048 32.7862C23.5609 32.8082 23.5066 32.8341 23.4562 32.854L23.2219 32.9188L22.9403 32.9961C22.7598 33.0634 22.5734 33.1197 22.4039 33.206C21.8899 33.4428 21.4243 33.7663 21.0848 34.1776C20.7458 34.5889 20.5269 35.0739 20.4532 35.5964C20.3774 36.1153 20.4661 36.6876 20.6486 37.2116C20.8141 37.6667 21.1401 38.0286 21.6182 38.2893L21.6077 38.3143Z" fill="#2458A4"/>
<path id="Fill 23" fill-rule="evenodd" clip-rule="evenodd" d="M28.1802 55.1905V51.8275C28.1886 51.7891 27.0087 51.7891 27.0166 51.8275V55.1905C27.0137 55.2209 28.1827 55.2209 28.1802 55.1905Z" fill="#2458A4"/>
<path id="Fill 25" fill-rule="evenodd" clip-rule="evenodd" d="M30.2737 58.4581C30.7672 58.3992 31.2607 58.3339 31.7533 58.2592C31.9995 58.2228 32.2448 58.1789 32.4931 58.1485L32.8635 58.0966C32.8864 58.0832 32.9183 58.1011 32.9348 58.0837C32.9786 58.0817 33.0594 58.0986 33.0664 58.0403C33.0708 57.9934 33.0469 57.9491 33.022 57.9047C33.002 57.8738 32.9956 57.8643 32.9542 57.8185C32.8779 57.7297 32.7932 57.645 32.7069 57.5602C32.5319 57.3937 32.346 57.2322 32.1511 57.0792C30.7827 55.9984 28.9711 55.3413 27.2128 55.641C26.4366 55.7706 25.6948 56.1046 25.0537 56.5627C24.2302 57.1604 23.5492 57.9361 22.8732 58.7278C22.6624 58.9745 22.5417 58.8489 22.5562 58.5139C22.5686 58.1814 22.7237 57.625 23.1379 57.122C23.8678 56.2382 24.8354 55.5044 25.9486 55.0672C27.0632 54.629 28.317 54.5592 29.4611 54.8254C30.8295 55.1399 32.1635 55.7402 33.2543 56.6749C33.4123 56.8125 33.5654 56.9575 33.7114 57.1156C33.9083 57.3299 34.1292 57.6046 34.2473 57.8663C34.3635 58.133 34.4153 58.3898 34.3176 58.6465C34.2104 58.9182 33.9188 58.9516 33.6835 59.0782L32.9562 59.2367L32.4417 59.3384L31.4058 59.5054C30.501 59.642 29.5917 59.7492 28.6799 59.8335C27.989 59.8963 27.2926 59.9337 26.5936 59.9426C25.8897 59.9551 25.1744 59.9008 24.4889 59.8135C23.4191 59.6794 22.3837 59.5388 21.3657 59.4481C21.1429 59.4342 20.924 59.4212 20.6997 59.4072C19.8772 59.3474 19.6329 59.2896 19.4449 58.9491C19.4026 58.8733 19.3457 58.7971 19.3188 58.7208C19.2236 58.4685 19.5835 58.2272 20.256 58.1904C22.2521 58.0931 24.1963 58.6824 26.0034 58.7268C27.3728 58.7442 28.8404 58.6191 30.2672 58.4286L30.2737 58.4581Z" fill="#2458A4"/>
<path id="Fill 27" fill-rule="evenodd" clip-rule="evenodd" d="M34.4694 0.328546C34.3966 0.27321 34.4783 0.186469 34.6498 0.0767956C34.7047 0.0414011 34.8866 -0.010943 34.9185 0.00201839C34.9803 0.0274426 35.0412 0.0538639 35.0885 0.0852704C35.1174 0.104214 35.3268 0.483584 35.4016 0.6122C35.4764 0.736331 35.5182 0.868437 35.5551 1.00254L35.775 1.81462C35.7899 1.87494 35.7954 1.93725 35.7909 2.00106C35.775 2.22091 35.8233 2.4263 35.8787 2.63019C35.8886 2.66409 35.8896 2.69998 35.928 2.7269C35.9913 2.77177 36.1005 3.3301 36.09 3.40638C36.0641 3.59781 36.0621 3.78425 36.0511 3.97269C36.0482 3.99961 36.0646 4.02453 36.0317 4.05544C35.9559 4.12773 35.9804 4.18007 35.9838 4.2369C35.9883 4.31616 35.9893 4.39543 35.9769 4.47768C35.9704 4.51856 35.932 4.56642 35.9031 4.61228C35.8767 4.65366 35.7535 4.66213 35.7376 4.65316C35.6922 4.62724 35.6419 4.66812 35.5925 4.68257C35.5761 4.68756 35.5546 4.69404 35.5407 4.69553C35.5127 4.69902 35.1822 4.3052 35.1673 4.25684C35.1553 4.24637 34.9504 3.61126 34.916 3.54197C34.8991 3.50558 34.911 3.46271 34.9155 3.42183C34.917 3.40189 34.7311 2.90238 34.7286 2.88194C34.7146 2.77376 34.6578 2.67456 34.7166 2.55192C34.7281 2.52799 34.7196 2.50705 34.7141 2.48612C34.6653 2.30615 34.6588 2.11722 34.6408 1.93177C34.6319 1.83655 34.6005 1.74682 34.582 1.6541C34.5785 1.63715 34.5865 1.6177 34.588 1.60026C34.59 1.57732 34.5955 1.55389 34.59 1.53346C34.5332 1.3176 34.5247 1.08928 34.437 0.882395C34.418 0.834538 34.4444 0.574812 34.4165 0.520972C34.4021 0.491061 34.4993 0.35048 34.4694 0.328546Z" fill="#2458A4"/>
<path id="Fill 30" fill-rule="evenodd" clip-rule="evenodd" d="M50.1514 12.2646C50.0996 12.3568 49.9874 12.2681 49.8448 12.0697C49.799 12.0064 49.7177 11.7905 49.7262 11.7516C49.7427 11.6754 49.7596 11.6016 49.7835 11.5443C49.7995 11.5114 50.14 11.2357 50.2462 11.124C50.3508 11.0208 50.4715 10.948 50.5956 10.8817C50.8479 10.7451 51.0951 10.5926 51.3519 10.445C51.4082 10.4121 51.471 10.3907 51.5398 10.3787C51.7741 10.3388 51.9765 10.2337 52.1714 10.106C52.2043 10.0851 52.2422 10.0731 52.2577 10.0198C52.2786 9.93106 52.8519 9.63744 52.9471 9.64192C53.1709 9.63345 53.3833 9.60204 53.6007 9.58808C53.6311 9.58559 53.6565 9.56166 53.6984 9.59805C53.7961 9.6833 53.8489 9.64491 53.9122 9.63245C53.999 9.61351 54.0907 9.60703 54.1849 9.6165C54.2323 9.62148 54.2911 9.67034 54.3454 9.70673C54.3948 9.74013 54.4202 9.90663 54.4127 9.92807C54.3913 9.98939 54.4426 10.0562 54.4651 10.122C54.4726 10.1439 54.4825 10.1728 54.486 10.1913C54.488 10.2317 54.1425 10.6489 54.1017 10.6674C54.0987 10.6689 54.0603 10.6893 54.0025 10.7197C53.9456 10.7526 53.8704 10.796 53.7926 10.8404C53.6395 10.9341 53.482 11.0338 53.4526 11.0617C53.4212 11.0886 53.3728 11.0796 53.3295 11.0806C53.309 11.0776 52.8574 11.3902 52.8359 11.3987C52.7283 11.4351 52.644 11.5233 52.4974 11.4869C52.468 11.4794 52.4496 11.4949 52.4301 11.5064C52.2597 11.6096 52.0632 11.6659 51.8718 11.7357C51.7741 11.7711 51.6864 11.8294 51.5931 11.8753C51.5762 11.8832 51.5528 11.8793 51.5333 11.8817C51.5084 11.8852 51.481 11.8842 51.46 11.8957C51.2422 12.0154 50.9954 12.0777 50.7835 12.2202C50.7352 12.2541 50.4346 12.2651 50.3793 12.305C50.3478 12.3279 50.1719 12.2282 50.1514 12.2646Z" fill="#2458A4"/>
<path id="Fill 32" fill-rule="evenodd" clip-rule="evenodd" d="M38.0325 50.1406L35.1067 43.8832C35.0823 43.807 33.841 44.3877 33.8829 44.456L36.8082 50.7129C36.8316 50.7712 38.0619 50.1959 38.0325 50.1406Z" fill="#2458A4"/>
<path id="Fill 34" fill-rule="evenodd" clip-rule="evenodd" d="M18.7622 8.69743L16.0932 2.82144C16.0712 2.74965 14.8189 3.30649 14.8583 3.3708L17.5339 9.26075C17.5553 9.31609 18.7896 8.74928 18.7622 8.69743Z" fill="#2458A4"/>
<path id="Fill 36" fill-rule="evenodd" clip-rule="evenodd" d="M26.8777 10.0084C26.9789 9.80852 27.127 9.63404 27.2725 9.39625C27.3189 9.32347 27.4455 9.32596 27.4725 9.42417C27.5268 9.61111 27.5582 9.82398 27.5228 10.0568C27.5153 10.0877 27.4879 10.2657 27.3443 10.4646C27.2067 10.668 26.9809 10.8689 26.7611 11.0314C26.5412 11.1974 26.3194 11.3509 26.1594 11.4925C26.0028 11.6296 25.8872 11.7642 25.8234 11.8574C25.5621 12.2218 25.4714 12.5892 25.606 12.8933C25.6339 12.9736 25.6853 13.0509 25.7376 13.1286L25.9759 13.4018C26.0487 13.5015 26.1394 13.5718 26.2292 13.6406C26.3184 13.7089 26.3996 13.7932 26.4994 13.8375C26.8638 14.0793 27.294 14.1835 27.7885 14.175C28.0094 14.1665 28.2312 14.1715 28.47 14.1526C29.2865 14.1192 30.139 13.8624 31.1011 13.7528C31.2597 13.7313 31.4371 13.7443 31.5992 13.7044C31.662 13.6795 31.9003 13.6979 32.2193 13.7303C32.3818 13.7682 32.5678 13.8201 32.7612 13.8799C32.9432 13.9532 33.1311 14.0479 33.3076 14.1611C34.0269 14.6376 34.4103 15.2857 34.4975 15.4058C34.7124 15.7648 34.8659 16.0429 35.0853 16.3062C35.3006 16.5719 35.5529 16.8102 35.8241 17.026C35.9023 17.0868 35.9966 17.1327 36.0559 17.211C36.1905 17.4029 36.4008 17.4782 36.5988 17.5669C36.8784 17.6831 37.1621 17.8012 37.4627 17.8825C37.6112 17.9258 37.7593 17.9852 37.9133 18.031C38.0534 18.0754 37.9781 18.1691 37.9258 18.1811C37.7763 18.211 37.8954 18.2673 37.9094 18.3102C37.9138 18.3256 37.9193 18.3451 37.9118 18.3576C37.9099 18.361 37.877 18.368 37.8206 18.378C37.7643 18.3855 37.6835 18.4024 37.5858 18.4054C37.3914 18.4189 37.1257 18.4273 36.851 18.4034C36.2932 18.3805 35.7443 18.1427 35.6441 18.0928C35.6326 18.0854 35.4497 17.9971 35.1934 17.8386C34.9387 17.6786 34.6182 17.4373 34.3245 17.1516C34.0304 16.8785 33.7532 16.5106 33.5862 16.2842C33.4058 16.0454 33.2717 15.8864 33.2238 15.8351C33.1246 15.7274 33.0488 15.6067 32.9626 15.5016C32.9412 15.4771 32.6007 15.1486 32.1849 15.0529C31.8025 14.9303 31.2951 15.0025 31.2617 14.9966C30.8599 15.022 30.4421 15.1342 29.984 15.1431C29.8957 15.1441 29.802 15.1686 29.7128 15.1885C28.9396 15.35 28.0921 15.517 27.1713 15.3555C26.938 15.3111 26.7052 15.2688 26.4779 15.1735C26.2431 15.1052 26.0342 14.9781 25.8259 14.8505C25.7491 14.8066 25.6823 14.7503 25.626 14.684C25.5497 14.6062 25.4779 14.525 25.3991 14.4532C25.1743 14.2767 25.0472 14.0384 24.8747 13.8295C24.7102 13.6052 24.5691 13.2981 24.5188 12.9871C24.4061 12.3435 24.6529 11.7119 25.0083 11.2707C25.0876 11.164 25.3647 10.9008 25.6813 10.7183C25.9834 10.5408 26.269 10.4023 26.3608 10.332C26.4784 10.2637 26.8543 10.1141 26.8777 10.0084Z" fill="#2458A4"/>
</g>
</svg>
