<svg width="41" height="18" viewBox="0 0 41 18" fill="none" xmlns="http://www.w3.org/2000/svg">
<path d="M5.124 13.5V11.33H0.616V10.07C0.662667 9.97667 0.728 9.86467 0.812 9.734C0.905333 9.594 1.008 9.43533 1.12 9.258L4.564 4.26H6.874V9.93H8.372V11.33H6.874V13.5H5.124ZM2.268 9.93H5.138V6.878C5.138 6.682 5.14267 6.472 5.152 6.248C5.16133 6.024 5.17067 5.80467 5.18 5.59H5.152C5.04933 5.79533 4.92333 6.01933 4.774 6.262C4.634 6.49533 4.50333 6.70533 4.382 6.892L2.45 9.664C2.422 9.71067 2.38933 9.75733 2.352 9.804C2.324 9.84133 2.296 9.88333 2.268 9.93ZM10.7097 11.358C11.0083 11.358 11.2557 11.4327 11.4517 11.582C11.6477 11.722 11.797 11.9133 11.8997 12.156C12.0023 12.3893 12.0537 12.6507 12.0537 12.94C12.0537 13.3227 11.9743 13.6913 11.8157 14.046C11.6663 14.4007 11.4563 14.718 11.1857 14.998C10.915 15.278 10.607 15.4973 10.2617 15.656L9.43567 14.998C9.68767 14.8953 9.91634 14.7693 10.1217 14.62C10.3363 14.4707 10.5183 14.3027 10.6677 14.116C10.817 13.9293 10.9243 13.738 10.9897 13.542L10.9197 13.5C10.873 13.528 10.817 13.5513 10.7517 13.57C10.6863 13.598 10.593 13.612 10.4717 13.612C10.3223 13.612 10.173 13.5747 10.0237 13.5C9.87434 13.416 9.74834 13.2993 9.64567 13.15C9.54301 12.9913 9.49167 12.7953 9.49167 12.562C9.49167 12.31 9.54767 12.0953 9.65967 11.918C9.77167 11.7407 9.92101 11.6053 10.1077 11.512C10.2943 11.4093 10.495 11.358 10.7097 11.358ZM17.0552 4.148C17.7178 4.148 18.2918 4.25067 18.7772 4.456C19.2718 4.652 19.6498 4.93667 19.9112 5.31C20.1818 5.674 20.3172 6.11733 20.3172 6.64C20.3172 7.12533 20.1958 7.54533 19.9532 7.9C19.7198 8.25467 19.3792 8.52533 18.9312 8.712V8.726C19.4725 8.922 19.8972 9.20667 20.2052 9.58C20.5132 9.95333 20.6672 10.4247 20.6672 10.994C20.6672 11.5353 20.5178 12.002 20.2192 12.394C19.9298 12.786 19.5145 13.094 18.9732 13.318C18.4412 13.5327 17.8018 13.64 17.0552 13.64C16.3178 13.64 15.6785 13.5327 15.1372 13.318C14.6052 13.094 14.1898 12.786 13.8912 12.394C13.6018 12.002 13.4572 11.5353 13.4572 10.994C13.4572 10.434 13.6112 9.96733 13.9192 9.594C14.2272 9.21133 14.6565 8.922 15.2072 8.726V8.712C14.7592 8.53467 14.4138 8.26867 14.1712 7.914C13.9285 7.55 13.8072 7.12533 13.8072 6.64C13.8072 6.11733 13.9378 5.674 14.1992 5.31C14.4698 4.93667 14.8525 4.652 15.3472 4.456C15.8418 4.25067 16.4112 4.148 17.0552 4.148ZM17.0692 5.632C16.6305 5.632 16.2805 5.73933 16.0192 5.954C15.7578 6.16867 15.6272 6.46733 15.6272 6.85C15.6272 7.23267 15.7578 7.53133 16.0192 7.746C16.2805 7.96067 16.6305 8.068 17.0692 8.068C17.4985 8.068 17.8392 7.96067 18.0912 7.746C18.3525 7.53133 18.4832 7.23267 18.4832 6.85C18.4832 6.46733 18.3572 6.16867 18.1052 5.954C17.8532 5.73933 17.5078 5.632 17.0692 5.632ZM17.0692 12.142C17.4238 12.142 17.7272 12.0907 17.9792 11.988C18.2312 11.8853 18.4225 11.7313 18.5532 11.526C18.6932 11.3207 18.7632 11.078 18.7632 10.798C18.7632 10.518 18.6932 10.2753 18.5532 10.07C18.4225 9.86467 18.2265 9.71067 17.9652 9.608C17.7132 9.496 17.4145 9.44 17.0692 9.44C16.7238 9.44 16.4205 9.496 16.1592 9.608C15.8978 9.71067 15.6972 9.86467 15.5572 10.07C15.4172 10.2753 15.3472 10.518 15.3472 10.798C15.3472 11.078 15.4172 11.3207 15.5572 11.526C15.6972 11.7313 15.8932 11.8853 16.1452 11.988C16.4065 12.0907 16.7145 12.142 17.0692 12.142Z" fill="#E44B60"/>
<path d="M33 2L34.975 6.2817L39.6574 6.83688L36.1955 10.0383L37.1145 14.6631L33 12.36L28.8855 14.6631L29.8045 10.0383L26.3426 6.83688L31.025 6.2817L33 2Z" fill="#E44B60" stroke="#E44B60" stroke-linejoin="round"/>
</svg>
