<svg width="60" height="55" viewBox="0 0 60 55" fill="none" xmlns="http://www.w3.org/2000/svg">
<g id="Icon">
<path id="Stroke 1" fill-rule="evenodd" clip-rule="evenodd" d="M55.5247 3.14383C55.6162 2.84805 55.9301 2.68275 56.2259 2.77424C57.6908 3.22804 55.048 4.68249 55.5247 3.14383Z" stroke="#2458A4"/>
<path id="Stroke 3" fill-rule="evenodd" clip-rule="evenodd" d="M36.5891 24.2342C36.6806 23.9384 36.9946 23.7731 37.2904 23.8646C38.7552 24.3178 36.1125 25.7723 36.5891 24.2342Z" stroke="#2458A4"/>
<path id="Stroke 5" fill-rule="evenodd" clip-rule="evenodd" d="M7.2449 16.5066C7.33639 16.2108 7.65036 16.0455 7.94613 16.137C9.41098 16.5908 6.76823 18.0448 7.2449 16.5066Z" stroke="#2458A4"/>
<path id="Fill 7" fill-rule="evenodd" clip-rule="evenodd" d="M23.6791 29.2582C25.6154 28.6516 27.6458 28.6651 29.5286 28.8232L32.3335 29.0784C33.1912 29.1771 34.0998 29.0831 35.0298 29.0212C36.3798 28.9126 37.7313 28.7332 39.0844 28.5825L42.6633 28.1567C43.2674 28.0855 43.8329 27.9951 44.4775 27.9327C45.1065 27.8771 45.7396 27.8693 46.3748 27.9207C47.6271 28.0299 48.964 28.3543 49.9995 29.2686C50.2568 29.5036 50.4751 29.7328 50.681 30.0556C50.8806 30.3639 51.023 30.8484 50.8686 31.2871C50.72 31.7165 50.4242 31.9857 50.1482 32.1879C49.8654 32.3912 49.5712 32.5341 49.2801 32.6677C48.2389 33.1127 47.1733 33.3534 46.1087 33.5639C45.0457 33.7708 43.9686 33.9059 42.9186 34.0312C40.2191 34.354 37.5426 34.7886 35.2346 36.0964C34.5401 36.5315 34.5204 36.3699 34.995 35.7768C35.4462 35.1722 36.5867 34.2365 38.1757 33.7729C40.9854 32.9713 43.8126 32.9843 46.444 32.399C47.1041 32.2586 47.756 32.0918 48.3652 31.874C48.6683 31.7632 48.963 31.6437 49.213 31.4919C49.4599 31.3463 49.6772 31.1629 49.7412 31.0345C49.8051 30.9076 49.7937 30.9133 49.7251 30.7309C49.6845 30.6477 49.6169 30.5474 49.5182 30.4356C49.436 30.3213 49.3274 30.2287 49.2265 30.1279C48.8055 29.7406 48.2441 29.4719 47.6416 29.2853C46.9144 29.0706 46.1123 28.9911 45.3056 29.0118C44.9022 29.0238 44.4962 29.0576 44.0928 29.1158L42.8115 29.2993C41.1023 29.54 39.3833 29.7749 37.671 29.9642C36.7291 30.0676 35.7861 30.1643 34.8359 30.2397C34.3592 30.2745 33.8841 30.3088 33.3944 30.3213C33.1543 30.3311 32.8985 30.3285 32.634 30.3161L31.9223 30.2573C30.0343 30.0998 28.1698 29.8643 26.3535 30.0021C25.238 30.092 24.1458 30.3405 23.1161 30.7699C22.0842 31.1956 21.1205 31.796 20.2186 32.4811C18.8546 33.5462 17.5166 34.7163 16.1495 35.8267C14.7829 36.9437 13.4043 38.0452 11.9935 39.0885C9.81135 40.7239 7.60888 42.2615 5.2463 43.5948C4.72077 43.8786 4.21862 44.1801 3.67905 44.4499C2.66229 44.9157 1.9912 45.2203 1.48178 45.344C0.97288 45.4682 0.663588 45.4942 0.397441 45.4698C0.276323 45.4584 0.125056 45.463 0.0491628 45.4391C-0.0802718 45.3986 0.0507223 45.2593 0.384965 45.0238C0.717129 44.7826 1.25826 44.464 1.96469 44.0902C6.16378 41.8841 10.2771 39.0397 14.1846 35.8604C15.6411 34.6841 17.0638 33.4615 18.5303 32.2404C19.992 31.0038 21.7105 29.8264 23.665 29.2302L23.6791 29.2582Z" fill="#2458A4"/>
<path id="Fill 10" fill-rule="evenodd" clip-rule="evenodd" d="M32.3849 43.3503C34.1856 43.2708 35.968 43.2183 37.7245 43.0415C38.603 42.9521 39.4768 42.8393 40.3428 42.6849C40.7654 42.596 41.2286 42.5389 41.6096 42.4073L42.2074 42.2348C42.4075 42.1828 42.6009 42.0757 42.7984 41.9993C43.9571 41.5413 45.0352 40.8281 46.1102 40.1399C47.994 38.883 49.7754 37.4384 51.4768 35.9096C53.1776 34.3782 54.7922 32.7444 56.3002 31.0285C56.9572 30.2712 57.5976 29.4805 58.105 28.6519C58.3717 28.2439 58.5692 27.8103 58.6919 27.3721C58.7511 27.1548 58.7886 26.9365 58.786 26.7369C58.7875 26.5456 58.7272 26.3346 58.6799 26.2701L58.6695 26.2514C58.6279 26.189 58.5583 26.1495 58.4855 26.1381C58.4138 26.1272 58.3509 26.1287 58.2053 26.1578C57.9501 26.2093 57.6668 26.3221 57.3923 26.4536C56.8403 26.7218 56.2976 27.0597 55.7668 27.4158L54.1793 28.5147L53.3882 29.0776C53.1241 29.2653 52.8377 29.4259 52.571 29.6125C51.8984 30.0658 51.8802 29.888 52.2565 29.2611C52.6183 28.6181 53.3871 27.5208 54.6518 26.6184C55.2824 26.1854 55.9275 25.769 56.6521 25.4093C57.0186 25.2326 57.3991 25.0647 57.8695 24.9545C57.9963 24.9321 58.1138 24.9061 58.2609 24.8988C58.4314 24.8817 58.6279 24.8983 58.8021 24.9368C58.9798 24.9768 59.1514 25.0459 59.2995 25.1489C59.455 25.2461 59.5594 25.3989 59.6774 25.5351C59.9498 26.0008 59.9873 26.3429 59.9997 26.687C60.0039 27.0264 59.9498 27.3305 59.8755 27.6138C59.7206 28.1726 59.4908 28.6789 59.207 29.1213C58.6596 30.0315 58.0483 30.7878 57.4188 31.5572C56.1541 33.0693 54.7667 34.4557 53.3175 35.7802C50.905 37.9525 48.374 40.2106 45.4848 41.9494C44.6838 42.4146 43.8583 42.8481 42.9767 43.1938C42.5463 43.3825 42.0629 43.4808 41.6086 43.6248C41.1537 43.724 40.7067 43.8134 40.2518 43.8862C38.4387 44.2002 36.609 44.3327 34.7953 44.4242C32.5627 44.5308 30.3462 44.588 28.1526 44.8375C27.3744 44.9612 26.5775 45.1785 25.7926 45.4613C25.0045 45.7253 24.2285 46.045 23.4539 46.3626C21.9075 47.0109 20.3943 47.7391 18.9034 48.4866C16.5934 49.6661 14.3945 50.9526 12.2233 52.3036C11.7429 52.5979 11.2881 52.9066 10.8125 53.2128C9.04873 54.347 8.49824 54.674 7.96439 54.7301C7.84483 54.7468 7.70032 54.7904 7.61715 54.7899C7.34424 54.8268 7.82144 53.9743 9.09707 53.0314C10.9689 51.63 13.0071 50.4021 15.1046 49.2112C17.2073 48.0292 19.3832 46.9121 21.62 45.8865C23.2923 45.1385 24.9692 44.4133 26.8145 43.8971C27.0344 43.8223 27.298 43.788 27.5428 43.737C27.7928 43.6882 28.0439 43.6409 28.2654 43.6253C28.7238 43.5749 29.1818 43.5333 29.6403 43.4948C30.5562 43.421 31.47 43.3674 32.3787 43.3207L32.3849 43.3503Z" fill="#2458A4"/>
<path id="Fill 12" fill-rule="evenodd" clip-rule="evenodd" d="M12.7677 47.8223C12.4074 47.6642 12.0706 47.4428 11.7291 47.2448C11.4005 47.0202 11.0767 46.7863 10.7778 46.5248C10.5678 46.3242 10.3172 46.1708 10.127 45.9504C9.42055 45.2034 8.92308 44.3021 8.55037 43.3945C8.47604 43.1881 8.39495 42.9859 8.31022 42.7858C8.22497 42.5856 8.17507 42.3751 8.10333 42.1729C7.90632 41.6562 7.78 41.1156 7.76493 40.5641C7.76181 40.3915 7.96038 40.3842 8.18806 40.485C8.41418 40.5869 8.67981 40.7855 8.76714 41.0631C9.0941 42.0502 9.5006 42.9563 9.94141 43.8722C10.0818 44.142 10.2746 44.3878 10.4701 44.6296C10.6993 44.8411 10.9067 45.0761 11.1469 45.2731C11.4073 45.494 11.6636 45.7217 11.9573 45.9052C12.2338 46.1126 12.541 46.2784 12.8446 46.4526C13.2308 46.6449 13.6207 46.8424 14.0376 46.9786C14.6577 47.2125 15.3132 47.3877 15.9723 47.4943C16.4875 47.5702 17.0042 47.5613 17.5214 47.566C17.6347 47.5681 17.747 47.5598 17.8614 47.5681C18.285 47.6008 18.4118 47.7012 18.4784 48.0271C18.494 48.1014 18.5158 48.1758 18.5226 48.249C18.5449 48.496 18.3531 48.6852 18.0246 48.7444C17.0546 48.9061 16.0181 48.8572 14.9966 48.616C14.2387 48.4289 13.4824 48.1929 12.7562 47.8524L12.7677 47.8223Z" fill="#2458A4"/>
<path id="Fill 14" fill-rule="evenodd" clip-rule="evenodd" d="M4.46548 44.1058C5.33306 44.2914 6.05093 44.819 6.56555 45.3586C7.09056 45.9054 7.49186 46.4881 7.84482 47.0537C8.54605 48.1698 9.13917 49.3165 9.91317 49.9777C10.1835 50.2376 10.4813 50.3254 10.774 50.4138L9.84352 51.429C9.73956 51.0308 9.58673 50.6379 9.40843 50.2449C8.87978 49.0768 8.04599 47.9748 7.24807 46.7907C6.90343 46.2547 6.41948 45.7386 5.99635 45.0888C5.78738 44.7644 5.58725 44.4058 5.46509 43.9769C5.34086 43.5553 5.32786 43.0329 5.50824 42.5828L5.6803 42.1523L6.10083 42.2189C6.74073 42.3202 7.26834 42.6176 7.71382 42.9419C8.35684 43.4264 8.88653 43.979 9.39232 44.5347C9.89654 45.0914 10.3696 45.6575 10.8436 46.2085C11.4513 46.9139 12.0699 47.6042 12.7218 48.2145C13.3715 48.818 14.0598 49.3664 14.7948 49.5681C15.2288 49.6559 15.2751 49.9985 14.6908 50.2761C14.3966 50.4076 13.9428 50.4388 13.4433 50.3192C12.9448 50.2002 12.4223 49.9278 11.9758 49.5405C10.7371 48.4505 9.80817 47.2299 8.84391 46.104C8.3662 45.541 7.88744 44.9952 7.3905 44.5321C6.89927 44.0777 6.36074 43.7014 5.93085 43.6354L6.84729 43.0729C6.78439 43.2284 6.76983 43.4004 6.84781 43.6671C6.9315 43.9291 7.10408 44.2327 7.31149 44.5378C7.60154 44.9729 8.00024 45.4163 8.36672 45.9501C8.69212 46.4211 9.04664 46.891 9.39959 47.3791C10.1029 48.3512 10.8223 49.4116 11.2231 50.6659L11.3297 51.0392L11.641 52.1323L10.5151 51.9275C9.70733 51.7809 9.04144 51.3074 8.56009 50.8047C8.06938 50.2969 7.69615 49.7474 7.36035 49.212C6.68251 48.1484 6.10811 47.0631 5.31278 46.3202C4.92812 45.9694 4.50291 45.724 4.03611 45.618L4.69628 45.1782C4.6365 45.4054 4.74722 45.8384 4.94943 46.2314C5.14592 46.6327 5.40687 47.0314 5.68913 47.4181C6.32851 48.2909 7.06665 49.1257 7.81155 49.959C8.1853 50.3764 8.56373 50.7907 8.93696 51.2268C9.12357 51.4451 9.30759 51.6676 9.48848 51.9239C9.57789 52.0538 9.66886 52.1854 9.75307 52.3954C9.78166 52.5186 9.86743 52.6438 9.76399 52.9588C9.72552 53.0815 9.57269 53.226 9.45885 53.2837C9.3736 53.3186 9.27952 53.3445 9.18803 53.3591L9.53163 53.1694C9.43182 53.2713 9.35177 53.3799 9.21974 53.4584C9.08874 53.5421 8.95099 53.6076 8.79868 53.6289C8.39842 53.6959 8.06158 53.5816 7.81311 53.4615C7.55164 53.3388 7.33488 53.1933 7.12903 53.0425C6.72253 52.7384 6.36594 52.4125 6.02442 52.0803C5.34293 51.415 4.71759 50.7247 4.10421 50.0349C3.83338 49.7365 3.56828 49.4438 3.29537 49.1429C2.80674 48.5835 2.50161 48.2295 2.33787 47.9717C2.16789 47.7066 2.1762 47.5626 2.17724 47.3448C2.17204 47.2975 2.15801 47.2538 2.10343 47.2138C2.06132 47.193 1.99895 47.1831 1.94073 47.1759C1.84404 47.1623 1.76711 47.1301 1.79362 46.9861C1.81285 46.9175 1.84196 46.8146 1.97815 46.7413C2.12734 46.6514 2.25833 46.6373 2.42831 46.6441C2.96997 46.708 3.3879 46.9929 3.83234 47.389C4.86522 48.3434 5.7354 49.3705 6.65651 50.3379C7.11136 50.813 7.57711 51.2928 8.03091 51.652C8.2508 51.8314 8.48991 51.9826 8.59803 52.0175C8.61259 52.0242 8.61103 52.0164 8.61675 52.0195L8.62247 52.0226C8.61467 52.0564 8.60999 52.1412 8.60063 52.1552C8.584 52.2124 8.57568 52.2753 8.57724 52.3413L8.58452 52.4297C8.58296 52.4385 8.58244 52.4489 8.58348 52.4598C8.63494 52.6319 8.571 52.3751 8.348 52.256L9.09498 52.3876C9.08666 52.4421 9.08978 52.4993 9.1059 52.5555C9.11369 52.5835 9.12513 52.6111 9.13916 52.6376L9.16256 52.6761V52.6844C9.1636 52.6963 9.17295 52.7114 9.19115 52.7208C9.18127 52.7098 9.13657 52.6927 9.11317 52.6974C9.09498 52.6974 9.09602 52.7052 9.06535 52.7052C9.02844 52.7036 8.99258 52.7046 8.95723 52.7083C8.88549 52.7156 8.81792 52.7353 8.75554 52.7644C8.73319 52.7795 8.68432 52.7951 8.62403 52.8117L8.46236 52.8674L8.30642 52.9334L8.23 52.9703L8.23104 52.9734C8.22584 52.962 8.15515 52.846 8.07406 52.7416C7.90824 52.5206 7.69823 52.2737 7.48199 52.0278C6.66327 51.0984 5.76971 50.1471 4.93956 49.1002C4.5237 48.5731 4.11772 48.0289 3.74865 47.3989C3.56464 47.0844 3.39206 46.7403 3.25015 46.3426C3.11759 45.9491 2.9866 45.4532 3.11863 44.8211L3.33904 43.7664L4.31473 44.0247L4.46964 44.0658L4.46548 44.1058Z" fill="#2458A4"/>
<path id="Fill 16" fill-rule="evenodd" clip-rule="evenodd" d="M13.2743 18.5101C13.2499 18.8927 13.3554 19.2592 13.4105 19.634C13.5311 19.9916 13.6298 20.3607 13.8253 20.6903C14.1798 21.3582 14.669 21.9825 15.3031 22.4337C15.5178 22.6198 15.7845 22.7316 16.0226 22.8839C16.2809 22.9967 16.5403 23.1126 16.8044 23.2114C17.7432 23.5461 18.7797 23.6174 19.7481 23.3668C20.7196 23.1235 21.5971 22.545 22.2775 21.7704C22.8712 21.076 23.2808 20.2146 23.4643 19.3273C23.7065 18.1775 23.5433 17.0058 23.1727 15.9225C23.0557 15.5872 23.3068 15.4827 23.6904 15.6792C24.0709 15.8663 24.5715 16.4355 24.6723 17.2485C24.8553 18.6682 24.5533 20.1205 23.8567 21.3463C23.5121 21.9623 23.0619 22.5153 22.5296 22.9827C22.0135 23.4645 21.386 23.8268 20.7326 24.093C19.9326 24.3622 19.0864 24.5535 18.2276 24.5068C17.3798 24.4569 16.5221 24.29 15.7653 23.9043C14.932 23.4947 14.1886 22.9156 13.5893 22.2081C13.0081 21.4835 12.598 20.6326 12.3781 19.7379C12.1141 18.6328 12.1847 17.4637 12.5523 16.4007C13.1059 14.7841 14.3581 13.4617 15.8682 12.7469C17.0315 12.1746 18.368 11.9188 19.6764 12.1741C19.9571 12.2469 20.2492 12.277 20.5221 12.3888C21.0258 12.6008 21.3533 12.7584 21.5248 12.9548C21.7068 13.1347 21.7754 13.2854 21.7858 13.4601C21.7899 13.5391 21.8066 13.6264 21.791 13.693C21.7312 13.9217 21.3018 13.8266 20.6962 13.5485C19.772 13.1638 18.7558 13.038 17.7697 13.2085C16.7841 13.3749 15.8333 13.8292 15.0697 14.5023C14.7724 14.7404 14.5395 15.0388 14.2916 15.3257C14.0909 15.6444 13.8638 15.9511 13.7291 16.3051C13.4204 16.9897 13.2488 17.7465 13.3003 18.507L13.2743 18.5101Z" fill="#2458A4"/>
<path id="Fill 18" fill-rule="evenodd" clip-rule="evenodd" d="M44.5075 17.2857C46.9189 17.1064 49.1141 15.6494 50.3694 13.5607C50.8295 12.8013 51.1481 11.9607 51.3561 11.1004C51.7293 9.58257 51.6773 7.95086 51.1367 6.47821C50.6044 5.00089 49.5689 3.72006 48.2564 2.80518C47.0858 2.00206 45.701 1.48588 44.3 1.33565C42.4911 1.12461 40.6759 1.52746 39.0738 2.31915C38.5784 2.56762 38.449 2.2864 38.738 1.76554C39.0161 1.24988 39.8177 0.510701 40.9997 0.244554C43.0686 -0.23108 45.2653 -0.0039193 47.185 0.847543C49.1011 1.68705 50.7848 3.15346 51.7355 5.05183C52.8796 7.30368 53.059 10.0868 52.1706 12.4686C51.2375 15.09 49.0746 17.2728 46.411 18.0993C46.2078 18.1663 46.0045 18.2282 45.7956 18.2708C45.5876 18.3171 45.3813 18.3753 45.1707 18.3909L43.9154 18.5395C43.4938 18.5421 43.0707 18.5229 42.6496 18.5146C42.4381 18.5219 42.2301 18.4741 42.0217 18.4403L41.3974 18.3332C40.1571 18.0535 38.9319 17.5742 37.9193 16.7878C36.8984 16.0309 35.9949 15.0906 35.3841 13.9776C35.0987 13.5722 34.9475 13.1002 34.7333 12.6599C34.5373 12.2108 34.4412 11.7273 34.2899 11.2611C34.2151 10.7792 34.1262 10.2932 34.0908 9.80401L34.0929 9.06587C34.0955 8.81895 34.0856 8.56996 34.1386 8.32772C34.2177 7.90147 34.2364 7.46535 34.3674 7.04585C34.621 6.2708 34.8051 5.7619 35.0561 5.46873C35.2807 5.16307 35.4673 5.0222 35.683 4.95359C35.7813 4.9224 35.8894 4.87145 35.971 4.87145C36.2569 4.87925 36.1124 5.51395 35.7402 6.49485C35.2344 7.98101 35.1221 9.60752 35.4907 11.1477C35.8514 12.6864 36.6821 14.1279 37.8579 15.2122C38.2728 15.6416 38.7879 15.9503 39.2812 16.2799L40.0822 16.6776C40.3473 16.8153 40.6457 16.8725 40.9254 16.977L41.3522 17.1158L41.7966 17.1896C42.0934 17.2286 42.3856 17.3169 42.6881 17.3201L43.5941 17.3398C43.7454 17.3518 43.8967 17.3388 44.0474 17.3138L44.5007 17.2566L44.5075 17.2857Z" fill="#2458A4"/>
<path id="Fill 20" fill-rule="evenodd" clip-rule="evenodd" d="M44.6019 9.78609C43.8809 9.66601 42.9671 9.89733 41.9831 9.97011C41.6187 9.9909 41.2278 10.0236 40.8119 9.91917C40.7163 9.88954 40.6212 9.85731 40.5271 9.82144C40.4288 9.76894 40.3327 9.72891 40.2386 9.65666C40.0478 9.52514 39.8835 9.31618 39.7926 9.08694C39.632 8.61494 39.7442 8.2074 39.8711 7.88616C40.1492 7.24002 40.5749 6.76387 41.0277 6.32722C41.4352 5.94724 41.8719 5.59792 42.3574 5.31358C42.6698 5.1332 43.0087 4.97829 43.383 4.89564C43.7526 4.81247 44.1793 4.81923 44.5484 4.99805C44.7823 5.11657 44.6295 5.28291 44.4112 5.42898C44.1824 5.57505 43.9537 5.76062 43.6813 5.83028C42.6729 6.11826 41.5605 6.9744 40.8946 7.9397C40.6965 8.22092 40.6123 8.58531 40.6794 8.72722C40.709 8.79376 40.7532 8.84938 40.879 8.90032C40.9986 8.94815 41.1665 8.98401 41.3422 8.99857C42.1364 9.0677 43.0659 8.80312 44.0572 8.77349C44.657 8.75321 45.3822 8.86497 45.9015 9.32397C46.0985 9.49551 46.256 9.67173 46.3906 9.89317C46.5206 10.1131 46.6282 10.3839 46.6183 10.6812C46.6131 10.9796 46.4774 11.2515 46.3179 11.4521C46.1562 11.6569 45.9691 11.8149 45.7793 11.9537C45.1831 12.3691 44.5765 12.6929 43.9397 12.9455C43.7993 13.0012 43.6647 13.062 43.5212 13.1082C42.9879 13.2762 42.8002 13.2413 42.6168 12.9944C42.5746 12.9377 42.5242 12.8832 42.493 12.8239C42.3854 12.6227 42.5606 12.3904 42.9182 12.2246C43.4412 11.9849 43.9615 11.7463 44.4876 11.5051C44.7386 11.3851 44.9798 11.2572 45.1847 11.1205C45.3832 10.9869 45.5496 10.8288 45.5906 10.7374C45.626 10.6672 45.6364 10.6557 45.6182 10.5674C45.5979 10.4821 45.5241 10.3527 45.4051 10.2222C45.2013 9.98414 44.9565 9.85887 44.5999 9.81052L44.6019 9.78609Z" fill="#2458A4"/>
<path id="Fill 22" fill-rule="evenodd" clip-rule="evenodd" d="M42.1915 5.78994C42.2398 5.79306 42.1785 5.84504 42.0501 5.92769C42.0085 5.9542 41.876 6.01814 41.8546 6.02126C41.812 6.02697 41.7709 6.03217 41.7408 6.03165C41.7221 6.03165 41.6025 5.9438 41.5568 5.91625C41.5126 5.88974 41.4897 5.85284 41.4705 5.81385C41.432 5.73484 41.3863 5.65946 41.3468 5.58097C41.3374 5.5633 41.3353 5.5425 41.3385 5.51911C41.3509 5.43906 41.3239 5.37772 41.2839 5.32262C41.2771 5.31326 41.2756 5.30131 41.2506 5.30131C41.2095 5.30183 41.1311 5.13757 41.1368 5.10846C41.1508 5.03672 41.1492 4.97226 41.1544 4.90417C41.1555 4.89481 41.1435 4.89065 41.1643 4.87194C41.2121 4.82879 41.195 4.81736 41.1914 4.79864C41.1862 4.77317 41.1841 4.74666 41.1914 4.71495C41.195 4.69936 41.2215 4.67285 41.2413 4.64946C41.2594 4.62866 41.3447 4.59332 41.3551 4.59228C41.3863 4.58968 41.4216 4.56265 41.4549 4.54445C41.4663 4.53874 41.4814 4.53094 41.4913 4.52678C41.5126 4.51794 41.72 4.57668 41.7262 4.59124C41.7278 4.59488 41.8682 4.7607 41.89 4.77681C41.9009 4.78513 41.8936 4.8028 41.8915 4.81788C41.8905 4.82464 42.0147 4.95147 42.0168 4.95823C42.0262 4.99202 42.0641 5.01281 42.0298 5.06791C42.0231 5.07883 42.0293 5.08402 42.0335 5.08974C42.0693 5.13913 42.0776 5.2015 42.0927 5.26128C42.1 5.29143 42.1213 5.31534 42.1348 5.34289C42.1374 5.34757 42.1322 5.35641 42.1312 5.36317C42.1301 5.37096 42.1265 5.38084 42.1301 5.38708C42.1696 5.44842 42.1743 5.52691 42.231 5.57993C42.2445 5.59189 42.2196 5.69273 42.2362 5.70573C42.2461 5.71352 42.1717 5.7889 42.1915 5.78994Z" fill="#2458A4"/>
<path id="Fill 24" fill-rule="evenodd" clip-rule="evenodd" d="M45.1839 13.0658C45.2328 13.0689 45.1709 13.1209 45.0425 13.2036C45.0009 13.2301 44.8684 13.294 44.8471 13.2971C44.8044 13.3029 44.7634 13.3081 44.7332 13.3075C44.7145 13.3075 44.595 13.2197 44.5492 13.1921C44.505 13.1656 44.4822 13.1287 44.4629 13.0897C44.4245 13.0107 44.3792 12.9353 44.3392 12.8568C44.3304 12.8392 44.3278 12.8184 44.3314 12.795C44.3434 12.7149 44.3163 12.6536 44.2763 12.5985C44.2696 12.5891 44.268 12.5772 44.243 12.5772C44.202 12.5777 44.1235 12.4134 44.1292 12.3843C44.1432 12.3126 44.1417 12.2481 44.1469 12.18C44.1479 12.1707 44.136 12.1665 44.1568 12.1478C44.2046 12.1047 44.1874 12.0932 44.1838 12.0745C44.1786 12.0491 44.1765 12.0225 44.1838 11.9908C44.1874 11.9752 44.2139 11.9487 44.2337 11.9253C44.2519 11.9045 44.3371 11.8692 44.348 11.8682C44.3787 11.8656 44.4141 11.8385 44.4473 11.8203C44.4588 11.8146 44.4744 11.8068 44.4837 11.8027C44.505 11.7938 44.713 11.8526 44.7187 11.8671C44.7202 11.8708 44.8606 12.0366 44.8824 12.0527C44.8939 12.061 44.8866 12.0787 44.884 12.0938C44.8829 12.101 45.0072 12.2273 45.0093 12.2341C45.0186 12.2679 45.0566 12.2887 45.0222 12.3438C45.0155 12.3547 45.0217 12.3599 45.0259 12.3656C45.0623 12.415 45.0701 12.4774 45.0851 12.5372C45.0924 12.5678 45.1137 12.5912 45.1273 12.6188C45.1299 12.6235 45.1247 12.6323 45.1236 12.639C45.1226 12.6474 45.1189 12.6567 45.1226 12.663C45.1621 12.7243 45.1668 12.8028 45.2239 12.8558C45.2369 12.8678 45.212 12.9686 45.2291 12.9816C45.2385 12.9894 45.1642 13.0648 45.1839 13.0658Z" fill="#2458A4"/>
<path id="Fill 26" fill-rule="evenodd" clip-rule="evenodd" d="M19.8562 18.8633C19.289 18.7671 18.5608 18.9496 17.7743 19.0068C17.4827 19.0234 17.1692 19.0494 16.835 18.9652C16.5475 18.8997 16.1597 18.6814 16.0116 18.2884C15.8827 17.9053 15.9742 17.5778 16.0766 17.3205C16.3011 16.8022 16.6421 16.4233 17.0044 16.0755C17.3304 15.772 17.6792 15.4933 18.0664 15.2657C18.3165 15.1217 18.5873 14.9974 18.8867 14.9309C19.183 14.8644 19.5256 14.8706 19.8219 15.0151C20.009 15.1118 19.8832 15.2506 19.707 15.3748C19.5224 15.498 19.3441 15.6555 19.131 15.7106C18.3399 15.9399 17.4546 16.6167 16.9244 17.3777C16.7658 17.5986 16.7014 17.8866 16.7508 17.99C16.7638 18.081 16.9727 18.1735 17.2633 18.1964C17.8907 18.253 18.632 18.0436 19.4237 18.0207C19.9029 18.0041 20.4841 18.094 20.9015 18.4615C21.0637 18.5915 21.1765 18.7578 21.294 18.9189C21.3454 19.0089 21.3834 19.1154 21.4265 19.2137C21.4671 19.3135 21.464 19.4414 21.477 19.5536C21.4712 19.668 21.4348 19.7844 21.4042 19.8946C21.3506 19.9887 21.2992 20.0911 21.2363 20.1743C21.1677 20.2486 21.1006 20.3287 21.0289 20.3957L20.8053 20.5777C20.3282 20.9072 19.8458 21.1697 19.3379 21.374C19.2267 21.4193 19.1191 21.4666 19.0047 21.5056C18.579 21.6397 18.4298 21.6095 18.2806 21.4026C18.2463 21.3548 18.2057 21.3096 18.1803 21.2597C18.0924 21.0918 18.2297 20.9 18.514 20.7659C18.9335 20.5704 19.3436 20.3791 19.7579 20.1857C19.9601 20.0922 20.1421 19.9877 20.31 19.8827C20.4514 19.7766 20.6031 19.654 20.6219 19.589C20.6463 19.5604 20.6239 19.5521 20.6504 19.5349C20.6333 19.5136 20.6546 19.5037 20.6437 19.4694C20.6203 19.432 20.6213 19.3982 20.5912 19.3514C20.5517 19.3036 20.5148 19.2547 20.4794 19.2033C20.3256 19.0187 20.1332 18.9221 19.8546 18.8841L19.8562 18.8633Z" fill="#2458A4"/>
<path id="Fill 28" fill-rule="evenodd" clip-rule="evenodd" d="M17.9481 15.6532C17.9881 15.6548 17.9367 15.6974 17.8291 15.766C17.7948 15.7878 17.684 15.8409 17.6664 15.844C17.631 15.8492 17.5972 15.8539 17.5718 15.8539C17.5567 15.8544 17.4595 15.7852 17.422 15.7639C17.3857 15.7431 17.3675 15.714 17.3524 15.6828C17.3212 15.6199 17.2848 15.5596 17.2531 15.4973C17.2458 15.4832 17.2443 15.4666 17.2474 15.4479C17.2583 15.3829 17.237 15.334 17.2048 15.2904C17.1996 15.2831 17.1985 15.2737 17.1777 15.2743C17.1439 15.2748 17.081 15.1443 17.0862 15.1209C17.0987 15.0627 17.0987 15.0107 17.1039 14.9561C17.105 14.9483 17.0951 14.9452 17.1128 14.9301C17.1528 14.8948 17.1387 14.8854 17.1361 14.8709C17.132 14.8506 17.1304 14.8288 17.1372 14.8033C17.1408 14.7908 17.1627 14.769 17.1793 14.7503C17.1944 14.7326 17.2656 14.7035 17.2744 14.7025C17.2999 14.7004 17.3295 14.6775 17.3576 14.663C17.3669 14.6578 17.3799 14.6515 17.3877 14.6479C17.4054 14.6401 17.5764 14.6848 17.5811 14.6962C17.5821 14.6993 17.6955 14.8303 17.7131 14.8428C17.7225 14.8496 17.7163 14.8636 17.7142 14.8761C17.7131 14.8818 17.814 14.9816 17.8155 14.9868C17.8228 15.0144 17.854 15.0305 17.8249 15.0752C17.8192 15.084 17.8244 15.0882 17.8275 15.0923C17.8566 15.1318 17.8623 15.1817 17.8738 15.2296C17.88 15.2535 17.8966 15.2727 17.9076 15.2945C17.9096 15.2982 17.905 15.3054 17.9044 15.3106C17.9034 15.3174 17.9003 15.3252 17.9034 15.3299C17.9351 15.3787 17.9377 15.4416 17.984 15.4837C17.9944 15.4931 17.9725 15.5747 17.9866 15.5851C17.9944 15.5908 17.932 15.6527 17.9481 15.6532Z" fill="#2458A4"/>
<path id="Fill 30" fill-rule="evenodd" clip-rule="evenodd" d="M20.3323 21.4506C20.3723 21.4521 20.3209 21.4948 20.2133 21.5634C20.179 21.5852 20.0683 21.6382 20.0506 21.6413C20.0152 21.6465 19.9814 21.6512 19.9565 21.6512C19.9409 21.6517 19.8437 21.5826 19.8063 21.5613C19.7699 21.5405 19.7517 21.5114 19.7366 21.4802C19.7054 21.4173 19.669 21.357 19.6373 21.2946C19.63 21.2806 19.6285 21.264 19.6316 21.2452C19.6425 21.1803 19.6212 21.1314 19.589 21.0877C19.5838 21.0805 19.5827 21.0711 19.5625 21.0716C19.5282 21.0721 19.4658 20.9417 19.4705 20.9183C19.4829 20.8601 19.4829 20.8081 19.4881 20.7535C19.4892 20.7457 19.4798 20.7426 19.497 20.7275C19.537 20.6922 19.523 20.6828 19.5204 20.6682C19.5162 20.648 19.5152 20.6261 19.5214 20.6007C19.525 20.5882 19.5469 20.5664 19.5635 20.5476C19.5786 20.53 19.6498 20.5009 19.6586 20.4998C19.6841 20.4977 19.7137 20.4749 19.7418 20.4603C19.7517 20.4551 19.7642 20.4489 19.772 20.4452C19.7896 20.4374 19.9607 20.4822 19.9653 20.4936C19.9664 20.4967 20.0802 20.6277 20.0979 20.6402C20.1072 20.6469 20.1005 20.661 20.0984 20.6729C20.0974 20.6792 20.1982 20.779 20.1998 20.7842C20.207 20.8117 20.2382 20.8278 20.2091 20.8725C20.2034 20.8814 20.2086 20.8855 20.2117 20.8897C20.2408 20.9287 20.2466 20.9791 20.258 21.0269C20.2642 21.0508 20.2814 21.0701 20.2918 21.0919C20.2939 21.0955 20.2892 21.1028 20.2887 21.108C20.2881 21.1148 20.2845 21.1226 20.2876 21.1272C20.3193 21.1761 20.3219 21.239 20.3682 21.2811C20.3786 21.2905 20.3568 21.3721 20.3708 21.3825C20.3786 21.3882 20.3162 21.4501 20.3323 21.4506Z" fill="#2458A4"/>
</g>
</svg>
