<svg width="50" height="60" viewBox="0 0 50 60" fill="none" xmlns="http://www.w3.org/2000/svg">
<g id="Icon">
<path id="Fill 1" fill-rule="evenodd" clip-rule="evenodd" d="M12.508 14.7249L13.4926 14.3295C13.817 14.1882 14.132 14.0267 14.4533 13.8759C15.1001 13.5847 15.7167 13.2322 16.335 12.8813C16.7944 12.6378 17.2057 12.3176 17.6466 12.0444C19.1848 11.0536 20.6637 9.95153 22.0336 8.7177C22.6327 8.16192 23.2319 7.59662 23.7792 6.99585C24.1413 6.62004 24.4806 6.22199 24.8283 5.83136C25.1729 5.43808 25.5535 5.0755 25.9309 4.70922C26.1712 4.48532 26.2411 4.59806 26.1807 4.90824C26.1093 5.20836 25.9642 5.75884 25.5863 6.24264C24.2085 7.91738 22.6714 9.47938 20.9061 10.7884C20.6431 10.9842 20.3832 11.1885 20.1227 11.3955C19.8554 11.595 19.5865 11.7951 19.3171 11.9963C18.7899 12.4139 18.2257 12.7886 17.6678 13.1597C17.0596 13.5773 16.3996 13.915 15.767 14.2935C15.1096 14.628 14.4549 14.9694 13.7832 15.2727C12.9463 15.6268 12.1142 15.9889 11.2488 16.2631C10.9233 16.3726 10.602 16.4954 10.2722 16.5923L9.27659 16.858C8.94365 16.9416 8.616 17.0475 8.28148 17.1168L7.2779 17.3227C7.01907 17.3815 6.76235 17.4392 6.50511 17.4974C6.24839 17.5562 5.9885 17.5874 5.73072 17.6361C5.21411 17.7245 4.69803 17.824 4.17613 17.8933C3.94535 17.9124 3.72039 17.941 3.48696 17.9542C2.62101 18.0071 2.34206 17.9256 2.15733 17.6589C2.11551 17.5969 2.06046 17.5366 2.03612 17.4747C1.95513 17.2677 2.29971 17.0734 2.90789 16.9697C3.36046 16.9083 3.8162 16.8469 4.27511 16.785C4.73138 16.6966 5.19135 16.6172 5.65609 16.5515C6.12294 16.4986 6.5845 16.3975 7.04818 16.2991C7.51027 16.1953 7.984 16.1328 8.44239 16.0042C9.81225 15.6533 11.1837 15.2558 12.4969 14.7026L12.508 14.7249Z" fill="#2458A4"/>
<path id="Fill 3" fill-rule="evenodd" clip-rule="evenodd" d="M14.5589 50.4256C13.6193 49.2515 12.9259 48.0616 12.2156 46.8342C11.519 45.6093 10.8849 44.3549 10.2751 43.094C9.83103 42.1736 9.37265 41.2621 8.95979 40.3316L4.70676 30.4731C4.08058 29.0133 3.43799 27.5492 2.83511 26.0899C2.44765 25.1524 2.05119 24.2161 1.69179 23.2639C1.50971 22.7891 1.33874 22.309 1.17518 21.8278C1.00845 21.3472 0.902056 20.846 0.778197 20.3521C0.636341 19.7318 0.81419 19.7635 1.19371 20.1965C1.38373 20.4125 1.62721 20.7274 1.90352 21.1122C2.16023 21.5034 2.40425 21.9813 2.62021 22.5175C3.38136 24.4231 4.19968 26.3053 5.00423 28.2023C5.79608 30.1084 6.59005 32.0187 7.38879 33.9401C8.33626 36.2458 9.42452 38.6007 10.489 40.9011C11.6609 43.4296 12.91 45.92 14.3953 48.2623C15.2845 49.6946 16.4395 50.9152 17.7601 51.9876C19.7424 53.6258 22.0328 54.9136 24.3623 55.9844C26.1857 56.8011 28.0558 57.4093 29.9566 57.8936C30.3753 57.9974 30.7855 58.0995 31.2073 58.2038C32.7725 58.5706 33.2552 58.7453 33.5638 59.0708C33.6342 59.1433 33.7311 59.2169 33.7703 59.2799C33.8359 59.3863 33.6999 59.4525 33.3886 59.4959C33.08 59.5329 32.5851 59.5832 31.9812 59.4826C30.1662 59.2767 28.3554 58.7781 26.5817 58.1292C24.8058 57.4813 23.057 56.6852 21.3743 55.7494C18.8998 54.3266 16.4887 52.6831 14.5398 50.4467L14.5589 50.4256Z" fill="#2458A4"/>
<path id="Fill 5" fill-rule="evenodd" clip-rule="evenodd" d="M47.3647 35.5343C47.1815 37.722 47.036 39.917 46.9354 42.111C46.9068 42.5154 46.9349 42.8955 46.8788 43.3449C46.8168 43.7794 46.7729 44.2272 46.6385 44.6258C45.7995 47.5127 44.1184 49.9057 42.3531 52.1494C41.5639 53.1456 40.734 54.1158 39.8775 55.0416C38.7708 56.2193 37.6089 57.3796 36.2322 58.2715C35.8029 58.5494 35.7351 58.3228 35.9336 57.8867C36.1369 57.4558 36.5762 56.8011 37.2209 56.1701C39.4922 53.9152 41.6444 51.4984 43.4737 48.8322C43.7384 48.4284 44.012 48.0219 44.237 47.5878C44.3534 47.3735 44.4746 47.1591 44.5853 46.94L44.8896 46.2709C45.1072 45.8279 45.2368 45.3589 45.4094 44.9026C45.5227 44.4374 45.6772 43.97 45.7212 43.5153C45.7651 43.2618 45.8032 43.0225 45.7995 42.7404L45.8302 41.9051L45.9043 40.2362C45.9588 39.1246 46.0255 38.0131 46.097 36.9026C46.187 35.5354 46.2986 34.1692 46.4114 32.8047C46.5929 30.7372 46.8332 28.6649 47.0826 26.6165C47.3096 25.0269 47.47 23.458 47.8379 21.8886C47.9136 21.543 47.9692 21.2005 48.0909 20.8565C48.5339 19.593 48.9092 19.2516 49.2014 19.0992C49.2734 19.0647 49.3517 19.0129 49.4084 19.0033C49.6037 18.9774 49.4872 19.511 49.2803 20.3907C48.7128 23.069 48.3651 25.9876 48.0126 28.9296C47.7659 31.1161 47.5558 33.3244 47.3943 35.5338L47.3647 35.5343Z" fill="#2458A4"/>
<path id="Fill 7" fill-rule="evenodd" clip-rule="evenodd" d="M40.0512 8.96068C39.5033 8.74313 38.9613 8.5187 38.4373 8.25617C37.9027 8.01639 37.3914 7.73373 36.8779 7.45796C36.4984 7.26688 36.1258 7.06362 35.7616 6.84608C34.4929 6.05264 33.286 5.17503 32.1507 4.22068C31.6367 3.811 31.1386 3.37643 30.6321 2.96621L29.6809 2.14207C29.3781 1.85095 29.0902 1.54395 28.8303 1.21366C28.5053 0.805557 29.602 0.653644 30.2991 1.26394C31.5546 2.34903 32.8398 3.37749 34.1356 4.443C34.5204 4.76693 34.9497 5.04482 35.3906 5.30842C35.8236 5.58631 36.2862 5.8155 36.7297 6.07063C37.213 6.36017 37.7264 6.58989 38.2229 6.85507C38.7342 7.08797 39.244 7.32987 39.7659 7.53789L40.7366 7.90894C41.0632 8.02486 41.3967 8.11801 41.727 8.22176C42.2245 8.38955 42.7422 8.48324 43.2509 8.61186C43.7633 8.72514 44.2846 8.78442 44.7986 8.85535C45.2025 8.87811 45.6037 8.8744 46.0001 8.87652C46.3976 8.86858 46.7925 8.81935 47.1868 8.8003C47.361 8.79289 47.5298 8.76748 47.7035 8.74419C48.3482 8.67856 48.5599 8.75213 48.7404 9.07607C48.7811 9.14964 48.833 9.22269 48.8616 9.29732C48.9579 9.54981 48.707 9.78694 48.2047 9.9108C47.4621 10.1146 46.6766 10.1733 45.88 10.204C45.4825 10.1998 45.0823 10.1696 44.6805 10.1437C44.2825 10.0924 43.8845 10.0283 43.4859 9.96532C42.8962 9.86369 42.3172 9.70542 41.7386 9.55669C41.1728 9.36613 40.5921 9.21793 40.0422 8.99085L40.0512 8.96068Z" fill="#2458A4"/>
<path id="Fill 12" fill-rule="evenodd" clip-rule="evenodd" d="M19.0148 25.8192C18.269 28.542 18.8539 31.5612 20.3884 33.9923C20.9436 34.8863 21.6439 35.684 22.4024 36.4108C23.7543 37.6737 25.383 38.6826 27.1768 39.1568C28.9601 39.6681 30.8868 39.5919 32.6383 38.9636C34.1744 38.3703 35.5818 37.3439 36.6489 36.1C38.0182 34.4676 38.7746 32.4197 39.0737 30.3305C39.1404 29.6779 39.3791 29.7345 39.6385 30.3395C39.7586 30.6423 39.874 31.0869 39.9058 31.6348C39.9529 32.1837 39.8756 32.8289 39.6437 33.4789C39.2425 34.6344 38.6407 35.7137 37.8827 36.6749C37.5064 37.155 37.0787 37.6075 36.6203 38.0056L35.9269 38.5947L35.1763 39.1187C34.1447 39.7745 32.9956 40.2679 31.7903 40.5256C30.5861 40.7855 29.3359 40.8072 28.1344 40.6082C25.266 40.1218 22.5226 38.6074 20.6054 36.3986C18.4839 34.0077 17.2263 30.7836 17.4518 27.5622C17.5867 25.5821 18.2415 23.6808 19.3917 22.0436C20.3095 20.8368 21.5169 19.929 22.7947 19.2123C23.4341 18.8497 24.101 18.5427 24.7833 18.2828C25.464 18.0182 26.1595 17.7943 26.8693 17.6307C27.9697 17.364 29.094 17.2152 30.2315 17.2306C31.3669 17.239 32.5255 17.4444 33.6101 17.9293C33.8483 18.0357 34.0754 18.1648 34.3056 18.2876C34.5205 18.4358 34.7534 18.5644 34.954 18.7423C35.7364 19.3674 36.0423 19.9862 36.2159 20.3953C36.2937 20.6102 36.3504 20.7796 36.3599 20.9347C36.3604 21.094 36.3371 21.2279 36.3091 21.347C36.2826 21.4566 36.2731 21.5858 36.244 21.6509C36.1932 21.7631 36.0576 21.662 35.8131 21.4333C35.5702 21.2052 35.2864 20.822 34.8709 20.4022C34.2543 19.7856 33.5371 19.2917 32.7071 18.9805C31.883 18.6618 30.9651 18.5306 30.0346 18.5094C28.1667 18.4776 26.2209 18.9413 24.4546 19.7448C23.1525 20.3562 21.9123 21.1475 20.9511 22.1569C20.7139 22.4099 20.4948 22.6735 20.2968 22.9482C20.2016 23.0864 20.1179 23.2293 20.0258 23.369L19.7897 23.8406L19.5526 24.3128L19.3636 24.8103C19.225 25.1385 19.1371 25.4815 19.0466 25.8234L19.0148 25.8192Z" fill="#2458A4"/>
<path id="Fill 14" fill-rule="evenodd" clip-rule="evenodd" d="M36.0582 26.7776C35.3288 27.8458 34.6984 29.0002 34.1093 30.188C33.8939 30.622 33.7372 31.082 33.5308 31.524L32.9914 32.708C32.7119 33.3331 32.4435 34.107 32.0582 34.4431C31.9624 34.5262 31.8772 34.6173 31.7576 34.6453C31.729 34.6548 31.6972 34.6638 31.6612 34.6707L31.6337 34.6734L31.6268 34.6744H31.6252C31.6231 34.6691 31.6353 34.7236 31.6295 34.7004H31.6263L31.6136 34.6998L31.5638 34.6993C31.5008 34.6929 31.4416 34.6839 31.3839 34.6649C31.1531 34.5839 30.9101 34.4542 30.6635 34.2393C30.4163 34.026 30.1813 33.7465 29.9627 33.4819L29.6684 33.1299L29.4614 32.8726C28.9723 32.266 28.4515 31.6912 27.9179 31.1545C27.5728 30.8126 27.215 30.4876 26.8768 30.1615L26.62 29.9238L26.493 29.8095C26.4718 29.7899 26.4512 29.7714 26.429 29.755C26.42 29.7201 26.3988 29.7015 26.384 29.674C26.3247 29.5634 26.2416 29.4856 26.158 29.4205C26.0764 29.3511 25.9917 29.2855 25.9139 29.241C25.7541 29.1442 25.6773 28.96 26.0283 28.7943C26.2051 28.7191 26.4644 28.6927 26.7529 28.7181C26.8948 28.7361 27.0932 28.689 27.251 28.7297C27.3944 28.7805 27.5405 28.8488 27.6697 28.9372C28.6066 29.5491 29.3058 30.3192 30.0135 31.0619L30.5253 31.6303L30.7746 31.9162L30.8974 32.0586C30.9355 32.1035 30.917 32.0919 30.9302 32.112C30.9609 32.1962 30.989 32.3121 31.1097 32.4847C31.1547 32.5466 31.1854 32.5053 31.2087 32.4905C31.2335 32.4682 31.2563 32.437 31.2785 32.4005C31.3256 32.3174 31.3537 32.257 31.405 32.12C31.6157 31.5298 31.8216 30.9232 32.0667 30.3367C32.5986 29.0425 33.2518 27.7881 33.9886 26.5844C34.4417 25.8428 34.9377 25.1256 35.4686 24.4343C36.2668 23.381 37.2158 22.4351 38.2263 21.5882C39.0102 20.9324 39.8031 20.2761 40.7326 19.8092C40.9364 19.7081 41.1317 19.5969 41.3476 19.5144C41.743 19.3498 42.0379 19.3376 42.2454 19.3513C42.456 19.3715 42.5963 19.4583 42.7249 19.5964C42.7831 19.6599 42.8525 19.7187 42.8927 19.7838C43.0277 20.005 42.7667 20.2919 42.302 20.6228C40.8993 21.53 39.6025 22.5293 38.4544 23.7801C37.6218 24.7154 36.7871 25.6941 36.099 26.8004L36.0582 26.7776Z" fill="#2458A4"/>
<path id="Fill 9" fill-rule="evenodd" clip-rule="evenodd" d="M12.1643 13.234C13.6458 12.5072 15.0797 11.6572 16.4469 10.7007C16.944 10.3492 17.4082 9.9549 17.892 9.58438C19.6048 8.28651 21.2356 6.85577 22.732 5.29007C23.3915 4.5919 24.0198 3.85616 24.5957 3.09818C24.9641 2.61015 25.3161 2.10784 25.6601 1.60658C25.9873 1.09367 26.4139 0.646404 26.7722 0.161024C27.0009 -0.132215 27.1735 -0.00994409 27.2444 0.406096C27.2804 0.615174 27.2851 0.892534 27.2491 1.21171C27.1978 1.51977 27.1555 1.89982 26.9469 2.20576C26.2572 3.31679 25.4934 4.36589 24.6613 5.36099C23.8298 6.3561 22.8918 7.2607 21.9089 8.11448C20.7301 9.12917 19.5831 10.2683 18.326 11.2459C16.9477 12.3215 15.4841 13.2912 13.9607 14.1518C13.0191 14.6748 12.0605 15.1686 11.0744 15.6016C9.58544 16.2696 8.0282 16.792 6.47044 17.2377C5.26254 17.5961 4.06206 17.9401 2.81659 18.1571C2.54188 18.1979 2.27404 18.2545 1.9951 18.2858C1.47849 18.3551 1.13126 18.3096 0.88989 18.2312C0.647465 18.1471 0.508255 18.0026 0.398158 17.7744C0.347344 17.6702 0.282239 17.568 0.253656 17.4643C0.159438 17.116 0.563304 16.8021 1.26253 16.6491C1.7839 16.5544 2.30421 16.4136 2.82929 16.3209C3.34961 16.1791 3.87839 16.088 4.404 15.9552C5.45998 15.7196 6.51649 15.4222 7.56823 15.0919C9.12547 14.5848 10.6658 13.9623 12.142 13.198L12.1643 13.234Z" fill="#2458A4"/>
<path id="Fill 16" fill-rule="evenodd" clip-rule="evenodd" d="M31.8562 59.2449C25.2122 57.2901 17.3493 54.4165 14.3343 49.948C11.5321 45.7945 9.49534 41.0466 7.42891 36.4791C5.10416 31.3427 2.71432 26.1602 0.910948 20.8247L0 22.6461C1.8039 27.9821 4.19322 33.164 6.51796 38.3005C8.58493 42.8685 10.6207 47.6159 13.4234 51.7694C16.0271 55.6286 27.6852 60.5634 29.8792 59.9478L31.8562 59.2449Z" fill="#2458A4"/>
<path id="Fill 19" fill-rule="evenodd" clip-rule="evenodd" d="M41.1641 10.8233C40.2087 10.5814 39.2787 10.2458 38.3635 9.88962C38.03 9.75835 37.696 9.62549 37.3689 9.4794C36.2314 8.92468 35.1405 8.27892 34.1385 7.51565C33.9077 7.3595 33.7008 7.16789 33.4779 7.0001C33.2614 6.82437 33.0301 6.66716 32.829 6.47608C32.5649 6.23842 32.2875 6.01293 32.0297 5.76627C31.7852 5.50638 31.5496 5.23696 31.339 4.94954C31.0764 4.59649 31.9752 4.55891 32.5267 5.08928C33.542 6.02616 34.6355 6.85295 35.7857 7.65645C36.1324 7.89358 36.5024 8.11113 36.8968 8.28686L37.4827 8.56263L38.0824 8.8077C38.951 9.18457 39.8572 9.47622 40.7713 9.74247C41.3403 9.88115 41.9078 10.0362 42.4874 10.1326C43.3602 10.3041 44.2505 10.4216 45.1339 10.4729C45.8226 10.4973 46.498 10.4581 47.1755 10.4163L47.6206 10.3851C48.1775 10.357 48.3559 10.4205 48.4892 10.6794C48.5194 10.7376 48.5591 10.7963 48.5782 10.8556C48.6427 11.0552 48.4194 11.2304 47.9996 11.3087C47.3787 11.431 46.7324 11.4828 46.0761 11.5035C45.4197 11.5167 44.7555 11.458 44.0917 11.3923C43.1072 11.2679 42.1242 11.0943 41.1598 10.8471L41.1641 10.8233Z" fill="#2458A4"/>
</g>
</svg>
