<svg width="70" height="60" viewBox="0 0 70 60" fill="none" xmlns="http://www.w3.org/2000/svg">
<g id="Icon">
<path id="Fill 1" fill-rule="evenodd" clip-rule="evenodd" d="M3.81922 9.9694C6.22753 6.36067 9.64309 3.50392 13.5715 1.70674C15.0231 1.06571 16.5357 0.605783 18.0822 0.344197C23.5301 -0.622808 29.2586 0.472978 33.9384 3.31363C36.0322 4.54624 37.9041 6.17497 39.4466 8.03079C41.4347 10.4017 42.9283 13.2964 43.3997 16.3745C43.5728 17.3312 43.156 17.2484 42.6058 16.5602C42.3304 16.217 42.0228 15.7254 41.7394 15.1275C41.3726 14.5549 41.0472 13.8679 40.7367 13.1079C39.5455 10.4454 37.7063 8.09346 35.4389 6.23074C33.1714 4.36457 30.4866 2.97673 27.6057 2.1408C27.1831 1.9827 26.7324 1.92923 26.2909 1.82632C25.8453 1.74756 25.4032 1.61706 24.9467 1.58429C24.0366 1.50035 23.1202 1.37732 22.1952 1.42503C20.3428 1.38652 18.5054 1.73721 16.7163 2.14943C15.7406 2.41159 14.7868 2.74619 13.875 3.1653C13.4174 3.36939 12.9776 3.61201 12.5355 3.86842L11.8726 4.24499L11.2339 4.6618C9.53673 5.77943 7.97814 7.11955 6.65641 8.67125C5.84061 9.62445 5.1168 10.653 4.46139 11.7252C3.83474 12.8141 3.2834 13.9467 2.83841 15.1235C1.50576 18.6897 1.12287 22.6474 1.83691 26.3711C2.41988 29.2578 3.63754 31.9415 5.36573 34.2474C5.54453 34.5107 5.74748 34.7505 5.95099 34.9902C6.15624 35.2288 6.34596 35.4806 6.56155 35.7163C8.14372 37.4802 8.71633 37.9717 8.83994 38.6317C8.87098 38.7789 8.9325 38.9525 8.9279 39.0692C8.91985 39.2664 8.68643 39.2526 8.26905 39.0439C8.06035 38.9393 7.80624 38.7869 7.51189 38.588C7.22788 38.3788 6.91513 38.1109 6.5673 37.8038C4.54706 35.944 2.84416 33.58 1.70468 30.9124C1.14012 29.578 0.700309 28.1769 0.408253 26.7385C0.132294 25.2972 -0.00338534 23.8242 6.41411e-05 22.3507C0.0219109 20.1626 0.351336 17.9722 0.99409 15.8772C1.64604 13.7845 2.58948 11.785 3.78472 9.9533L3.81922 9.9694Z" fill="#2458A4"/>
<path id="Fill 4" fill-rule="evenodd" clip-rule="evenodd" d="M19.1136 44.8204C17.8603 45.9633 16.3983 46.7555 14.9087 47.3546C14.3625 47.5673 13.8273 47.8088 13.2656 47.964C12.8333 48.098 12.3929 48.1957 11.9554 48.3021L11.2948 48.4366L10.9642 48.4981L10.5474 48.5711C9.84544 48.6878 9.16014 48.7769 8.54498 48.8195C7.97467 48.8488 7.12437 48.9885 7.12207 48.7735C7.43712 48.4067 7.79759 47.9933 8.08218 47.638L8.48864 47.1327L8.7554 46.6751C8.84164 46.5256 8.93707 46.3657 8.98652 46.2249L9.10265 45.9392C9.24063 45.5494 9.35906 45.1504 9.44012 44.7422C9.66204 43.6924 9.67354 42.607 9.85521 41.5359C9.90925 41.2036 10.2973 41.2369 10.671 41.5428C11.0436 41.8464 11.3902 42.442 11.3241 43.1278C11.2385 44.046 11.0591 44.9664 10.763 45.8736C10.6825 46.1001 10.6032 46.3261 10.5077 46.5491L10.3761 46.8418C10.3732 46.8355 10.3646 46.8458 10.3577 46.8493C10.3278 46.8705 10.2812 46.9108 10.2025 46.9803L10.1162 47.0539C10.1053 47.0706 10.1174 47.0769 10.122 47.0884C10.1363 47.1097 10.1639 47.1298 10.2088 47.1488C10.2651 47.1706 10.3634 47.1741 10.4663 47.1637L10.5537 47.1494L10.6796 47.1269C10.7636 47.1126 10.8469 47.0942 10.9303 47.0746L11.4305 46.9585C12.0951 46.7912 12.7511 46.5819 13.395 46.3646C14.8058 45.8805 16.1712 45.2481 17.3492 44.3674C17.5401 44.2426 17.7045 44.0902 17.873 43.9408C18.0368 43.7884 18.2208 43.651 18.3708 43.4854L18.9538 42.8283L19.1286 42.6282C19.1441 42.615 19.1562 42.5891 19.174 42.5851L19.2361 42.5978L19.3603 42.6219L19.8524 42.7179L20.4618 42.8289C20.636 42.8582 20.8108 42.8921 20.9861 42.9151C21.3368 42.9697 21.6887 43.0134 22.0411 43.0502C22.7459 43.1198 23.4542 43.1537 24.1562 43.137C25.2491 43.1025 26.3087 42.9134 27.3481 42.6656C27.5758 42.6058 27.7994 42.5472 28.0282 42.4874C28.8803 42.2821 29.1671 42.2936 29.4615 42.6328C29.5282 42.7093 29.6092 42.7817 29.6598 42.8634C29.8294 43.1336 29.5408 43.4929 28.89 43.7401C26.9635 44.4783 24.7484 44.7065 22.5763 44.5818C21.768 44.5387 20.9625 44.4404 20.1663 44.3041L19.8903 44.257L19.8317 44.242C19.796 44.2328 19.7345 44.2144 19.7443 44.2225C19.7443 44.2225 19.7368 44.2265 19.7322 44.2317L19.7282 44.2345L19.7006 44.2656L19.5937 44.3875C19.4563 44.5565 19.3022 44.7054 19.1412 44.8457L19.1136 44.8204Z" fill="#2458A4"/>
<path id="Fill 6" fill-rule="evenodd" clip-rule="evenodd" d="M45.3601 20.2025C43.9556 20.6033 42.6131 21.192 41.323 21.875C40.0565 22.6022 38.8595 23.4491 37.7758 24.4287C36.7243 25.4366 35.7372 26.5249 34.9536 27.7575C34.1792 28.9838 33.5025 30.3015 33.0253 31.6933C32.3084 33.7165 32.0106 35.8643 32.0152 37.9955C32.0715 41.7549 33.3277 45.5229 35.6774 48.5015C37.9828 51.5146 41.3437 53.6821 45.0364 54.6416C46.6755 55.0699 48.3824 55.2591 50.0836 55.2326C50.509 55.228 50.9344 55.2228 51.3582 55.1751C51.7813 55.1291 52.2079 55.1228 52.6264 55.0435L53.2565 54.9463L53.7417 54.8721L53.9884 54.8348L54.112 54.8158C54.1448 54.8325 54.1695 54.8733 54.1982 54.9009L54.7927 55.5517C54.9151 55.7075 55.0911 55.8127 55.2365 55.9467C56.3133 56.8562 57.7184 57.3517 59.1385 57.6553C59.8583 57.7898 60.5884 57.8818 61.3249 57.9244L61.6761 57.9382L61.9021 57.9399L62.1297 57.9353L62.2447 57.9301C62.262 57.9284 62.2873 57.9295 62.2988 57.9244L62.2666 57.8789C62.1878 57.7686 62.1142 57.6547 62.0452 57.5334L61.9452 57.346L61.8394 57.1338C61.7963 57.0522 61.7595 56.966 61.721 56.8815C61.4117 56.2054 61.1967 55.4712 61.1029 54.725C61.0265 54.0638 61.13 53.7361 61.2472 53.6855C61.3732 53.632 61.529 53.8511 61.733 54.2409C61.9389 54.6307 62.2033 55.182 62.5954 55.7966C62.6914 55.9513 62.7966 56.1105 62.9099 56.2726C62.9668 56.3537 63.0255 56.4365 63.0841 56.5204L63.1755 56.6463C63.2135 56.7073 63.2853 56.8165 63.344 56.8964C63.7999 57.5846 64.5438 58.4579 65.2153 59.349C65.0417 59.3835 64.7922 59.4099 64.5576 59.437C64.3202 59.4628 64.0793 59.4893 63.8355 59.5157C63.5843 59.5381 63.333 59.5657 63.0663 59.5824C62.7886 59.5882 62.508 59.5945 62.2246 59.6002L61.8066 59.5991L61.418 59.5824C61.2679 59.5755 61.1173 59.5703 60.9673 59.556C60.6672 59.5307 60.3671 59.5088 60.0669 59.4651C59.4667 59.3944 58.8671 59.2823 58.2721 59.1311C57.0849 58.8316 55.9 58.3676 54.8335 57.634C54.5576 57.469 54.3155 57.2448 54.066 57.0344C53.9453 56.924 53.8096 56.832 53.7044 56.7027L53.5388 56.5193C53.525 56.5032 53.529 56.5066 53.5239 56.4991C53.5239 56.4905 53.5124 56.494 53.5233 56.4911L52.6948 56.6095C52.1073 56.6831 51.5122 56.709 50.9212 56.7584C50.3268 56.759 49.7317 56.7843 49.1367 56.7561C46.76 56.6515 44.3776 56.1755 42.1705 55.2418C39.9674 54.3064 37.9287 52.9692 36.2489 51.2657C35.2422 50.2533 34.324 49.1339 33.5456 47.9122C32.7741 46.6871 32.1307 45.3734 31.6392 43.9999C30.6337 41.2559 30.3405 38.2571 30.6705 35.3751C30.8677 33.7901 31.2678 32.2355 31.8289 30.7482C32.3866 29.2638 33.1087 27.8271 34.032 26.5237C34.4603 25.8488 34.999 25.2583 35.5015 24.6415C36.0626 24.0786 36.5898 23.4784 37.2124 22.9823C38.3979 21.9227 39.7369 21.05 41.1362 20.3147C44.5851 18.4956 48.5526 17.6942 52.4246 18.0305C53.1611 18.0685 53.8855 18.2099 54.6116 18.3364C54.9778 18.3841 55.3274 18.5135 55.6861 18.5991C56.0403 18.7026 56.4042 18.7745 56.7497 18.9038C57.4356 19.174 58.1462 19.3867 58.797 19.7374C59.1275 19.9007 59.4627 20.0554 59.7887 20.2255L60.7339 20.7976L61.2053 21.0845L61.6497 21.4116L62.5374 22.0658L63.3641 22.7931C63.6429 23.0323 63.9148 23.2778 64.1592 23.5526L64.9158 24.35C65.1572 24.6248 65.3751 24.9197 65.6057 25.2031C66.0846 25.7585 66.4525 26.3938 66.8636 26.9957C68.0513 28.9292 68.897 31.0529 69.3317 33.264C69.7749 35.4746 69.7692 37.7673 69.3748 40.0014C69.1874 40.9834 68.9402 41.9349 68.5872 42.8812C67.9243 44.6341 67.2482 45.6862 66.7244 46.3703C66.1927 47.0533 65.7839 47.3661 65.3861 47.55C65.2021 47.6317 64.9842 47.7547 64.8497 47.7743C64.6203 47.8059 64.6973 47.5012 64.9997 46.9314C65.3004 46.3594 65.8057 45.501 66.3686 44.365C67.1913 42.6753 67.765 40.8454 68.0163 38.9591C68.2319 37.0694 68.1922 35.1365 67.7915 33.2508C67.4 31.3668 66.6813 29.538 65.6787 27.8679C64.6714 26.2006 63.375 24.7001 61.8722 23.4508C60.7448 22.5413 59.538 21.7071 58.2094 21.1138C57.5684 20.766 56.8664 20.563 56.1909 20.2945C55.8436 20.1882 55.4895 20.1048 55.1394 20.0077L54.6127 19.8656C54.4351 19.826 54.2534 19.8018 54.074 19.7696C51.2047 19.2189 48.1961 19.4184 45.3773 20.2359L45.3601 20.2025Z" fill="#2458A4"/>
<path id="Fill 9" fill-rule="evenodd" clip-rule="evenodd" d="M51.3998 29.0804C50.9273 28.6907 50.2914 28.8125 49.9183 29.3029C49.8763 32.2844 52.1789 37.0304 53.3528 39.7612C53.972 39.6704 53.9392 39.2725 53.9318 38.7654C53.903 36.8815 51.9063 29.4984 51.3998 29.0804Z" fill="#2458A4"/>
<path id="Fill 11" fill-rule="evenodd" clip-rule="evenodd" d="M45.3071 30.795C44.7983 30.4989 44.1837 30.5989 43.8428 31.1123C44.2556 33.934 46.5966 38.6776 47.9442 41.3274C48.5565 41.1969 48.4978 40.8025 48.4576 40.2966C48.3076 38.4183 45.8745 31.1255 45.3071 30.795Z" fill="#2458A4"/>
<path id="Fill 13" fill-rule="evenodd" clip-rule="evenodd" d="M25.3681 19.9525C26.0947 19.2637 26.592 18.1323 26.6185 16.998C26.626 16.5846 26.5438 16.1805 26.4311 15.8027C26.1005 14.4448 24.5896 13.5261 23.0218 13.6549C22.3291 13.6917 21.6449 13.932 21.0562 14.2896C20.287 14.7524 19.719 15.4515 19.2837 16.2334C19.1423 16.4742 18.9664 16.3932 18.8784 16.0776C18.7853 15.7688 18.7968 15.1721 19.1768 14.6569C20.4686 12.8212 23.0402 11.9847 25.1904 12.8736C25.8268 13.1363 26.4247 13.5226 26.9174 14.0579C27.405 14.5937 27.7287 15.2589 27.8856 15.9321C28.2168 17.4223 27.95 18.9481 27.2055 20.2537C26.7306 21.0707 26.0028 21.6715 25.2887 22.1515C24.1929 22.8771 23.0224 23.3404 22.0686 24.0286C21.6949 24.2936 21.3626 24.5937 21.1114 24.918C20.855 25.2394 20.698 25.5924 20.5043 26.0184C20.4192 26.2047 20.3496 26.4042 20.2392 26.5944C19.8345 27.3091 19.562 27.4545 19.1067 27.3407C19.002 27.3142 18.8911 27.2976 18.7962 27.2573C18.4748 27.117 18.4317 26.7031 18.6145 26.1903C18.7531 25.8062 18.8715 25.4262 19.0664 25.0014C19.2487 24.5788 19.5476 24.0735 19.9236 23.6687C20.6739 22.8627 21.5092 22.3631 22.3187 21.898C23.5117 21.2328 24.6362 20.7004 25.3353 19.926L25.3681 19.9525Z" fill="#2458A4"/>
<path id="Fill 15" fill-rule="evenodd" clip-rule="evenodd" d="M18.529 30.7091C18.5239 30.7453 18.517 30.7821 18.5089 30.8189C18.3543 31.5024 17.7788 31.6749 17.1676 31.5318C16.3104 31.3305 16.0977 30.3313 16.6646 29.703C17.4609 28.8199 18.6728 29.6604 18.529 30.7091Z" fill="#2458A4"/>
<path id="Fill 17" fill-rule="evenodd" clip-rule="evenodd" d="M50.435 43.7513C50.477 44.3187 50.1544 44.8264 49.1995 44.6953C48.3354 44.5768 48.0278 43.6121 48.5222 42.9337C49.3645 41.7782 50.3677 42.8423 50.435 43.7513Z" fill="#2458A4"/>
<path id="Fill 19" fill-rule="evenodd" clip-rule="evenodd" d="M55.6312 42.0663C55.6036 42.6349 55.2213 43.0989 54.29 42.8522C53.4466 42.6292 53.2597 41.634 53.8329 41.0211C54.8103 39.9771 55.6761 41.1562 55.6312 42.0663Z" fill="#2458A4"/>
<path id="Fill 21" fill-rule="evenodd" clip-rule="evenodd" d="M41.213 54.595C42.9131 55.4654 44.7597 56.0541 46.658 56.3485C47.3554 56.4267 48.0511 56.5221 48.7536 56.5158L49.6815 56.5474C49.9914 56.5503 50.3001 56.5175 50.61 56.5049L51.5391 56.4537C51.8478 56.4209 52.1536 56.3675 52.4612 56.3255L53.5179 56.1703C53.6599 56.1007 53.7209 56.2709 53.8157 56.3439L54.0273 56.5658L54.3372 56.8958C54.5585 57.0999 54.8028 57.281 55.0345 57.4765C55.2852 57.6478 55.5474 57.8036 55.8032 57.9686C56.7535 58.4929 57.8223 58.8109 58.8939 58.9839C60.2766 59.2007 61.6932 59.1748 63.0879 59.1087C63.5145 59.0793 63.4996 59.2811 63.1443 59.5215C62.7901 59.7572 62.0859 60.0061 61.2338 59.9998C59.7316 59.9825 58.2086 59.7876 56.7696 59.2426C56.0447 58.9925 55.3634 58.6085 54.7206 58.1773C54.4108 57.945 54.1095 57.695 53.8249 57.4316L53.43 57.001C53.3822 56.9493 53.4133 56.978 53.4001 56.9625L53.3822 56.9372C53.369 56.924 53.3403 56.9343 53.3316 56.9297C51.6184 57.204 49.716 57.3558 47.8976 57.2431C45.8882 57.0867 43.9082 56.5974 42.0576 55.8179C41.7742 55.6954 41.4861 55.581 41.2056 55.4505L40.3898 55.009C39.8344 54.7353 39.3273 54.38 38.8151 54.0356C37.2812 52.9663 35.9141 51.6549 34.7671 50.1981C33.9139 49.0408 33.0999 47.872 32.5014 46.5704C32.3663 46.2852 32.2335 46.0058 32.0972 45.7195C31.685 44.6162 31.6315 44.2351 31.7431 43.943C31.7695 43.8758 31.7902 43.7918 31.8253 43.7475C31.942 43.6004 32.2174 44.0074 32.5255 44.7795C33.4782 47.0487 34.7849 49.3202 36.6068 51.1605C37.9251 52.5535 39.4969 53.7177 41.2194 54.5766L41.213 54.595Z" fill="#2458A4"/>
<path id="Fill 23" fill-rule="evenodd" clip-rule="evenodd" d="M20.2823 44.7332L19.9196 44.6683C19.9063 44.6614 19.8874 44.6545 19.877 44.6688L19.3671 45.1955C18.9342 45.5577 18.5064 45.9245 18.0321 46.2182C17.7021 46.458 17.3514 46.658 16.9996 46.8564C15.7371 47.5164 14.3981 47.9729 13.0482 48.3351C12.4463 48.4886 11.8449 48.6513 11.2453 48.791C10.4766 48.9732 9.70047 49.1618 8.89961 49.1716C8.40404 49.1687 8.95308 48.3845 9.8074 48.2379C11.351 47.97 12.8786 47.6228 14.3941 47.1732C15.2967 46.8938 16.193 46.4729 17.0122 45.9791C17.2468 45.8572 17.4635 45.7094 17.6797 45.5605C17.8959 45.4122 18.1218 45.2742 18.3155 45.0989C18.5122 44.9281 18.7272 44.7735 18.9117 44.5895L19.5453 43.9232L19.6114 43.8542L19.7074 43.8697L19.8989 43.9013L20.1938 43.9508L20.6853 44.033C21.013 44.0865 21.3407 44.1359 21.6684 44.179C22.6619 44.313 23.6645 44.4107 24.6482 44.3641C25.4123 44.3227 26.1441 44.1589 26.8559 43.9341L27.3204 43.7714C27.9011 43.5667 28.0989 43.5334 28.3012 43.6777C28.3466 43.7099 28.4024 43.7381 28.4369 43.7749C28.5525 43.8973 28.3616 44.1198 27.927 44.325C26.6438 44.9437 25.0708 45.1932 23.572 45.1219C22.4555 45.0759 21.3603 44.9235 20.2806 44.7522L20.2823 44.7332Z" fill="#2458A4"/>
<path id="Stroke 25" fill-rule="evenodd" clip-rule="evenodd" d="M49.3759 11.3074C49.3995 11.0573 49.6203 10.8745 49.8698 10.8975C51.107 11.013 49.254 12.6067 49.3759 11.3074Z" stroke="#2458A4" stroke-width="0.6"/>
<path id="Stroke 27" fill-rule="evenodd" clip-rule="evenodd" d="M24.3798 52.1311C24.4033 51.8816 24.6247 51.6982 24.8742 51.7218C26.1114 51.8367 24.2585 53.4304 24.3798 52.1311Z" stroke="#2458A4" stroke-width="0.6"/>
<path id="Fill 29" fill-rule="evenodd" clip-rule="evenodd" d="M61.5389 9.17416C61.7367 9.2512 61.835 9.47369 61.7579 9.67204C61.3768 10.6523 60.5092 8.77345 61.5389 9.17416Z" fill="#2458A4"/>
</g>
</svg>
