<svg width="18" height="18" viewBox="0 0 18 18" fill="none" xmlns="http://www.w3.org/2000/svg">
<g id="Icon/infobox">
<path id="Union" fill-rule="evenodd" clip-rule="evenodd" d="M8.94763 2C5.11092 2 2 5.11092 2 8.94763C2 12.7843 5.11092 15.8953 8.94763 15.8953C12.7843 15.8953 15.8953 12.7843 15.8953 8.94763C15.8953 5.11092 12.7843 2 8.94763 2ZM3.03059 8.94763C3.03059 5.6801 5.6801 3.03059 8.94763 3.03059C12.2152 3.03059 14.8647 5.6801 14.8647 8.94763C14.8647 12.2152 12.2152 14.8647 8.94763 14.8647C5.6801 14.8647 3.03059 12.2152 3.03059 8.94763ZM7.97135 7.45276C7.68676 7.45276 7.45605 7.68347 7.45605 7.96805C7.45605 8.25264 7.68676 8.48335 7.97135 8.48335H8.57472V11.6479H7.55143C7.26684 11.6479 7.03613 11.8786 7.03613 12.1632C7.03613 12.4477 7.26684 12.6784 7.55143 12.6784H10.6278C10.9124 12.6784 11.1431 12.4477 11.1431 12.1632C11.1431 11.8786 10.9124 11.6479 10.6278 11.6479H9.60531V7.96805C9.60531 7.68347 9.37461 7.45276 9.09002 7.45276H7.97135ZM8.44659 4.97557C8.59606 4.8757 8.77179 4.82239 8.95156 4.82239C9.19262 4.82239 9.4238 4.91815 9.59426 5.08861C9.76471 5.25906 9.86047 5.49025 9.86047 5.73131C9.86047 5.91108 9.80717 6.08681 9.70729 6.23628C9.60742 6.38575 9.46547 6.50225 9.29938 6.57104C9.1333 6.63984 8.95055 6.65783 8.77424 6.62276C8.59792 6.58769 8.43597 6.50113 8.30886 6.37401C8.18174 6.2469 8.09518 6.08494 8.0601 5.90863C8.02503 5.73232 8.04303 5.54957 8.11183 5.38348C8.18062 5.2174 8.29712 5.07545 8.44659 4.97557Z" fill="#5D6675"/>
</g>
</svg>
