<svg width="80" height="107" viewBox="0 0 80 107" fill="none" xmlns="http://www.w3.org/2000/svg">
    <path fill-rule="evenodd" clip-rule="evenodd" d="M42.3781 94.4218C40.6478 94.5601 38.8633 94.5777 37.0737 94.272C36.4228 94.161 35.7584 94.0542 35.1198 93.8238C33.996 93.4264 32.9251 92.802 32.0474 91.9785C31.6042 91.5607 31.2175 91.1361 30.8576 90.6229C30.4831 90.1112 30.2317 89.498 30.0915 88.8714C29.9576 88.3143 29.9571 87.7266 30.0385 87.1636C30.1316 86.5975 30.3476 86.0684 30.6128 85.5775C31.3328 84.3361 32.6853 83.4963 34.0284 83.4842C34.4483 83.4671 34.4114 83.6887 34.1782 84.0434C33.9227 84.3625 33.5992 84.9924 33.2049 85.3602C32.8224 85.6825 32.6282 86.1281 32.3959 86.4744C32.1867 86.8478 32.0686 87.2458 32.0389 87.641C31.9738 88.0335 31.9975 88.4453 32.1232 88.8631C32.2515 89.2787 32.5065 89.6792 32.8453 90.1485C33.2518 90.6661 33.7822 91.0978 34.3773 91.4333C34.9814 91.7577 35.6423 91.9895 36.3184 92.1818C37.8125 92.6005 39.4521 92.6801 41.0929 92.6129C42.1056 92.5652 43.1294 92.473 44.1292 92.3105C45.6467 92.0615 47.1666 91.7108 48.5664 91.1115C49.6669 90.6763 50.6659 90.0829 51.6096 89.4271C51.8198 89.2842 52.013 89.1293 52.2168 88.9779C52.9736 88.4154 53.2676 88.297 53.6482 88.3901C53.7334 88.4107 53.8292 88.4174 53.8988 88.4479C54.1166 88.5285 54.0118 89.0091 53.5095 89.5967C52.7587 90.4557 51.8591 91.2417 50.8596 91.9016C50.3585 92.227 49.842 92.5467 49.2971 92.8066C48.7446 93.0461 48.1781 93.2585 47.6036 93.4384C45.9015 93.9872 44.133 94.2901 42.3857 94.4689L42.3781 94.4218Z" fill="#2E3543"/>
    <path fill-rule="evenodd" clip-rule="evenodd" d="M47.1533 94.5907C46.2437 94.9367 45.3103 95.2132 44.3708 95.459C44.0244 95.5432 43.6851 95.6248 43.3378 95.709C42.1059 95.9282 40.8544 96.0313 39.6061 95.9873C39.051 95.9724 38.4951 95.9327 37.9446 95.8749C37.2439 95.7737 36.5082 95.6734 35.879 95.2852C35.68 95.1732 35.8093 94.989 36.0613 94.8574C36.3192 94.7207 36.6633 94.658 37.0216 94.7322C38.2812 95.0601 39.6314 95.1257 41.0065 95.1029C41.8326 95.0793 42.6802 94.8994 43.5009 94.6918C44.4118 94.4906 45.3064 94.2052 46.1891 93.8841C46.7337 93.6925 47.2631 93.4517 47.7948 93.2246L48.9865 92.6563C49.3737 92.4497 49.7571 92.2334 50.1344 92.0123C50.7091 91.6496 51.2353 91.2366 51.7892 90.8604L52.1448 90.5991C52.6012 90.2866 52.7907 90.2465 52.987 90.3062C53.0319 90.3209 53.0835 90.3284 53.1188 90.3487C53.2353 90.4132 53.1213 90.6373 52.8352 90.9458C51.9934 91.8697 50.9447 92.6676 49.8055 93.3245C48.9723 93.836 48.0788 94.256 47.164 94.6136L47.1533 94.5907Z" fill="#2E3543"/>
    <path fill-rule="evenodd" clip-rule="evenodd" d="M49.5931 100.286C49.8633 100.003 50.0795 99.6165 50.2728 99.2153C50.3483 99.0717 50.3633 98.8976 50.4324 98.7465C50.6649 98.1991 50.8593 97.6132 51.0498 97.0083C51.1439 96.7438 51.2034 96.4654 51.274 96.1868C51.3716 95.8324 51.417 95.4365 51.7713 95.118C51.8718 95.0208 52.0157 95.1792 52.1524 95.3753C52.2849 95.5838 52.4373 95.7524 52.4211 95.9331C52.3147 96.5218 52.32 97.2705 51.9754 97.9551C51.7935 98.369 51.7508 98.8431 51.5965 99.291C51.4348 99.784 51.1993 100.267 50.9276 100.731C50.7254 101.003 50.5531 101.288 50.2972 101.523L50.0241 101.797L49.7003 102.018C49.4959 102.182 49.2569 102.279 49.0272 102.394C48.8526 102.498 48.6752 102.575 48.49 102.647C48.308 102.716 48.1202 102.826 47.9284 102.862C47.8446 102.882 47.7608 102.892 47.6734 102.894C47.3488 102.888 47.2447 102.801 47.1873 102.481C47.1738 102.413 47.1568 102.348 47.1503 102.285C47.1308 102.09 47.2503 101.829 47.4272 101.721C47.9681 101.379 48.3827 101.241 48.7768 100.995C49.0352 100.784 49.338 100.6 49.5645 100.268L49.5931 100.286Z" fill="#2E3543"/>
    <path fill-rule="evenodd" clip-rule="evenodd" d="M33.5333 85.6761C33.3141 85.7949 33.053 85.9274 32.8374 86.1335C32.7604 86.2089 32.7201 86.3091 32.6433 86.3863C32.3617 86.6584 32.089 86.9711 31.901 87.3265C31.8341 87.4812 31.801 87.659 31.8268 87.8085C31.8437 88.0236 31.9324 88.1306 31.7909 88.3124C31.7401 88.374 31.4051 88.576 31.0161 88.6591C30.6431 88.7626 30.1276 88.6329 30.062 88.3851C29.9118 87.945 29.9591 87.5414 30.0626 87.1985C30.1607 86.8478 30.338 86.5497 30.5619 86.2901C30.8369 85.991 30.9327 85.6092 31.1677 85.2977C31.4297 84.9621 31.7261 84.6553 32.0733 84.3929C32.2754 84.2251 32.5225 84.0997 32.7539 83.9657C32.9337 83.8676 33.1421 83.8043 33.3304 83.7255C33.5428 83.6831 33.7403 83.6135 33.9524 83.5766C34.1191 83.5564 34.2856 83.4984 34.4591 83.4729C34.6307 83.4633 34.8123 83.4535 34.9943 83.464C35.077 83.4609 35.1419 83.4994 35.2119 83.5336C35.459 83.6904 35.4809 83.8478 35.3516 84.1907C35.322 84.2694 35.2951 84.347 35.2603 84.4207C35.1436 84.6636 34.9497 84.8481 34.7955 84.9527C34.318 85.2924 34.3003 85.3791 34.0911 85.4517C33.9556 85.4972 33.7604 85.5804 33.5647 85.7124L33.5333 85.6761Z" fill="#2E3543"/>
    <path fill-rule="evenodd" clip-rule="evenodd" d="M16.2747 71.9736C13.8229 69.6666 11.5655 67.1262 9.6793 64.3154C9.31959 63.8132 8.99784 63.2859 8.68037 62.7553C8.34814 62.2337 8.04216 61.6982 7.77087 61.1416C5.74033 57.2848 4.62311 52.959 4.49551 48.6294C4.44778 47.6693 4.50751 46.7044 4.52343 45.7441C4.63041 44.79 4.64494 43.8252 4.8192 42.888C5.10988 40.4689 5.78259 38.0237 6.99816 35.8909C7.381 35.2281 7.43776 35.3827 7.28433 36.016C7.12178 36.6502 6.85759 37.7951 6.48481 39.1018C6.32038 39.6827 6.18265 40.2719 6.06639 40.8635C5.94801 41.4525 5.89029 42.0657 5.78099 42.6621C5.67572 43.2617 5.58716 43.8624 5.55005 44.4697C5.50818 45.0756 5.41251 45.6789 5.41238 46.2869C5.28053 48.7162 5.50705 51.1579 5.99297 53.5568C6.57325 56.4348 7.78656 59.2873 9.33276 61.8641C11.0189 64.7115 13.0737 67.3524 15.4135 69.7274C16.8382 71.2033 18.3573 72.5937 19.9393 73.9065C22.3269 75.9083 24.8581 77.766 27.4224 79.5085C29.4177 80.8639 31.4328 82.101 33.4345 83.4124C33.8738 83.7042 34.3134 83.9738 34.7448 84.2876C36.356 85.4295 36.8075 85.8916 37.0006 86.3263C37.0458 86.424 37.1168 86.5383 37.1323 86.6069C37.1808 86.8417 36.4742 86.4542 35.2789 85.673C31.7134 83.3819 27.866 81.0251 24.1672 78.3862C21.423 76.4235 18.7411 74.3242 16.2602 71.9944L16.2747 71.9736Z" fill="#2E3543"/>
    <path fill-rule="evenodd" clip-rule="evenodd" d="M7.91409 34.0549C9.15012 31.9854 10.6658 30.1202 12.3574 28.446C14.0981 26.8266 15.9927 25.3904 18.0268 24.186C22.1155 21.8323 26.6872 20.3047 31.4158 19.9601C33.1408 19.8334 34.8774 19.8521 36.5711 20.0082C37.4244 20.0861 38.2785 20.198 39.1299 20.3554C39.9809 20.5082 40.8251 20.7734 41.6686 20.9869C44.6119 21.9231 47.3143 23.5562 49.5503 25.6357C51.7954 27.7133 53.586 30.2185 54.9157 32.913C57.6085 38.3042 58.6492 44.3532 58.4723 50.2545C58.4293 52.8803 58.1453 55.4962 57.7266 58.0763C57.3318 60.6641 56.7232 63.2022 56.0561 65.7013C55.1951 68.9135 54.0883 72.061 52.8081 75.1297C51.5415 78.2044 50.0476 81.1792 48.3879 84.0421C47.3462 85.8256 47.2458 85.4467 47.7631 83.7577C48.0307 82.9188 48.4085 81.7315 48.903 80.3263C49.3731 78.9098 49.9687 77.28 50.6612 75.5367C51.8976 72.4467 52.9018 69.2795 53.8485 66.11C54.7674 62.9305 55.4983 59.7005 55.9638 56.4373C56.911 49.9259 56.7119 43.2076 54.514 37.0073C53.8492 35.1659 52.9983 33.3717 51.9481 31.6915C50.8943 30.0126 49.5971 28.4855 48.1307 27.1578C46.6603 25.8361 45.0042 24.7064 43.186 23.9331C41.3704 23.1577 39.4714 22.6171 37.4822 22.3701C28.7628 21.1313 19.522 24.3324 13.2999 30.6311C11.3997 32.5697 9.8068 34.8177 8.72416 37.2955C8.48947 37.9281 8.23201 38.5547 8.01158 39.1913L7.51058 41.1517C7.29926 42.5024 7.07352 43.8565 7.03759 45.2258L6.99036 46.0011L7.00695 46.7781L7.04572 48.3324L7.2174 49.8784L7.30638 50.6506L7.45907 51.4142C7.79799 53.4659 8.48641 55.445 9.27958 57.3671C10.0858 59.2905 11.1484 61.0977 12.2818 62.8495C13.4568 64.5766 14.7557 66.217 16.1446 67.7742C20.5041 72.6037 25.6528 76.4566 30.9106 80.2059C32.0728 81.0321 33.2269 81.8166 34.3883 82.6806C38.6981 85.8425 39.9317 87.2997 40.2698 88.5487C40.3449 88.8342 40.4313 89.1934 40.4248 89.361C40.4161 89.5068 40.3252 89.5025 40.1584 89.3898C39.9842 89.277 39.791 89.0434 39.4159 88.756C38.7204 88.1662 37.5715 87.2547 35.9962 86.1396C31.2841 82.8795 26.2368 79.5908 21.5246 75.6682C16.8222 71.7603 12.3294 67.2262 9.10872 61.6836C7.9102 59.635 6.94322 57.4359 6.19413 55.1586C5.43462 52.8787 5.05096 50.4784 4.87513 48.0803C4.71296 45.6716 4.94316 43.2653 5.32448 40.9013C5.80412 38.4892 6.67534 36.169 7.85968 34.0376L7.91409 34.0549Z" fill="#2E3543"/>
    <path fill-rule="evenodd" clip-rule="evenodd" d="M37.969 93.3998C40.34 93.583 42.807 93.2542 45.1916 92.6055C46.0544 92.3594 46.9197 92.0218 47.7526 91.7456C49.1476 91.2243 50.5375 90.389 51.7882 89.4583C53.0349 88.5152 54.1733 87.4007 54.9135 86.1138C55.53 84.9588 55.5656 83.6477 54.8078 82.6556C54.335 82.025 53.6016 81.5407 52.8257 81.1614C52.0361 80.801 51.2013 80.485 50.3266 80.2729C49.7843 80.1514 49.8448 79.9717 50.3682 79.762C50.8761 79.589 51.9292 79.3101 53.0707 79.6826C54.0671 80.0084 55.0647 80.4873 55.9209 81.3353C56.3657 81.751 56.6643 82.3214 56.9497 82.8812C57.0471 83.1865 57.1326 83.5015 57.1917 83.8191C57.2331 84.1359 57.2111 84.4556 57.2112 84.7739C57.0991 86.033 56.5598 87.0794 55.9491 87.9634C55.3341 88.859 54.5738 89.5649 53.7835 90.2131C52.8339 90.9803 51.8402 91.6866 50.7905 92.3333C50.265 92.6558 49.7228 92.9588 49.1561 93.2311C48.8765 93.372 48.5691 93.4853 48.2778 93.6108L47.4189 93.8943C44.9156 94.7325 42.29 95.3085 39.6098 95.3625C37.962 95.3898 36.3016 95.2173 34.6921 94.7802C33.4751 94.4359 32.3044 93.8902 31.2476 93.1536C30.203 92.401 29.3068 91.3829 28.7874 90.1473C28.4048 89.188 28.2467 88.0807 28.478 87.0361C28.7197 85.9941 29.2782 85.0601 29.9827 84.3148C30.2932 83.9844 30.6109 83.6781 30.9752 83.4112C31.6466 82.9139 32.1711 82.7327 32.544 82.6457C32.926 82.5754 33.1834 82.637 33.4253 82.7972C33.5351 82.8679 33.6631 82.9274 33.7377 83.0063C33.9896 83.2798 33.5204 83.7607 32.7301 84.383C31.5507 85.2905 30.6034 86.4754 30.4338 87.652C30.3183 88.2417 30.4091 88.8024 30.6056 89.3843C30.8303 89.9633 31.2406 90.5082 31.7244 91.0057C33.2511 92.4691 35.6062 93.1974 37.9685 93.351L37.969 93.3998Z" fill="#2E3543"/>
    <path fill-rule="evenodd" clip-rule="evenodd" d="M35.081 89.3352C36.428 89.7407 37.9006 89.9439 39.3871 89.963C39.9307 89.9726 40.4728 89.9067 41.0162 89.8712C42.9361 89.7555 44.8754 89.4098 46.6975 88.7369C47.503 88.4368 48.2865 88.0588 48.9921 87.5976C49.8989 86.9954 50.6663 86.2601 51.3321 85.4625C51.5443 85.2143 51.7328 85.3238 51.8071 85.7165C51.9021 86.1134 51.8091 86.8308 51.3152 87.3844C49.5546 89.2725 47.24 90.3087 44.8786 90.7916C43.4636 91.077 42.0125 91.45 40.5377 91.5617C38.9218 91.6816 37.2798 91.6409 35.6675 91.301C34.6778 91.0926 33.6983 90.7779 32.7758 90.3114C32.0805 89.9532 31.4186 89.4992 30.8534 88.929C30.5859 88.6294 30.3176 88.3309 30.1054 87.9867C29.8716 87.6827 29.6715 87.1805 29.6346 86.7396C29.57 86.0239 29.7766 85.3611 30.0709 84.7952C30.3704 84.2269 30.7689 83.7313 31.2446 83.3126C31.4499 83.1232 31.6664 82.952 31.9089 82.8003C32.8384 82.2649 33.3013 82.3863 33.5606 82.7486C33.622 82.8326 33.6921 82.912 33.7268 82.9969C33.8262 83.2864 33.5388 83.5905 33.0966 83.8978C32.4205 84.3495 31.8113 85.0368 31.5121 85.714C31.3617 86.0489 31.3136 86.3658 31.3531 86.5674C31.3669 86.673 31.4073 86.7509 31.4574 86.8324C31.5177 86.9331 31.6776 87.1388 31.7774 87.2907C32.5238 88.2258 33.7336 88.9077 35.0912 89.2917L35.081 89.3352Z" fill="#2E3543"/>
    <path fill-rule="evenodd" clip-rule="evenodd" d="M41.2064 97.1407C42.4398 97.2978 43.754 97.2039 45.0478 96.9497C45.5235 96.8668 45.975 96.6849 46.4433 96.5566C48.1003 96.1058 49.7111 95.4069 51.2317 94.5422C51.8969 94.1442 52.5242 93.6755 53.0829 93.1586C53.8235 92.5027 54.3865 91.727 54.9757 90.9992C55.1767 90.7771 55.3875 90.8787 55.5211 91.2477C55.5844 91.4302 55.6505 91.7001 55.6245 91.9907C55.5864 92.2613 55.4899 92.5657 55.3146 92.8479C53.972 94.7006 52.2077 96.1121 50.1799 96.9707C48.9625 97.4615 47.7677 98.115 46.4682 98.4823C45.0508 98.8952 43.5728 99.1429 42.0723 99.1493C41.1513 99.1477 40.2115 99.0272 39.3207 98.8112C37.9683 98.469 36.6613 97.8638 35.541 97.0139C34.6677 96.3652 33.8488 95.6185 33.2212 94.707C33.091 94.5028 32.963 94.3022 32.8491 94.0862C32.4954 93.2531 32.6116 92.9078 32.9451 92.6036C33.0218 92.5337 33.0892 92.4547 33.1644 92.4063C33.405 92.2455 33.8188 92.4615 34.2036 92.8947C34.7703 93.5413 35.269 94.1544 35.8221 94.7065C36.3769 95.2565 37.0106 95.7144 37.7136 96.0847C38.747 96.6319 39.9948 96.9803 41.2076 97.0907L41.2064 97.1407Z" fill="#2E3543"/>
    <path fill-rule="evenodd" clip-rule="evenodd" d="M30.3262 41.6449C30.2455 41.1911 30.1938 40.7222 30.1692 40.2395L30.1457 39.4937L30.1784 38.9505C30.2094 38.7526 30.2593 38.5591 30.2988 38.3631C30.4728 37.5736 31.0142 37.0151 31.7018 36.7966C32.3972 36.5818 33.1628 36.7482 33.7865 37.2071C33.9384 37.3268 34.097 37.4496 34.227 37.5901C34.3699 37.7302 34.5059 37.8663 34.5683 37.9604C34.7371 38.1716 34.8753 38.3822 35.0081 38.5935C35.2717 39.0144 35.4845 39.435 35.6797 39.8556C36.0537 40.706 36.3854 41.594 36.5868 42.4882C37.4153 46.0637 37.252 49.7732 36.0095 53.22C35.7808 53.8482 35.5009 54.4624 35.1834 55.0621C35.0221 55.3641 34.7963 55.6755 34.601 55.9783C34.3603 56.2627 34.1157 56.553 33.8331 56.8058C32.6782 57.8418 31.0292 58.2549 29.6235 58.0733C28.364 57.9493 27.216 57.5406 26.1586 57.02C25.0987 56.4922 24.1284 55.8509 23.2305 55.0811C22.317 54.2853 21.5779 53.3845 20.9339 52.4128C20.2962 51.4397 19.7463 50.3982 19.4043 49.2446C19.0676 48.1062 18.8921 46.8061 19.3346 45.5392C19.5425 44.9242 19.8581 44.3598 20.3503 43.8599C20.8314 43.3603 21.5419 43.0259 22.2442 42.9747C23.6693 42.8737 24.8284 43.6172 25.7167 44.3132C26.6348 45.0375 27.42 45.8855 28.1222 46.7782C30.6076 49.9637 32.1971 53.6617 33.7105 57.2135C34.6965 59.5067 35.5989 61.8731 36.2712 64.3162C36.5947 65.5408 36.8747 66.7812 37.0448 68.0385C37.2151 69.2967 37.282 70.5639 37.2938 71.8249C37.2666 73.4018 37.0106 73.1767 36.6319 71.8922C36.4256 71.207 36.1555 70.3181 35.8438 69.2859C35.4893 68.2241 35.1166 66.9972 34.7432 65.6577C34.0779 63.2822 33.1415 60.9867 32.154 58.6799C31.1829 56.3437 30.2143 54.0229 29.1033 51.8324C27.9912 49.6484 26.6948 47.528 24.9816 45.9576C24.5588 45.5672 24.0889 45.203 23.6595 44.9692C23.2146 44.738 22.7524 44.6146 22.3755 44.6549C21.9966 44.6844 21.6812 44.8539 21.394 45.1957C21.107 45.5394 20.8845 46.0323 20.7946 46.4966C20.5587 47.6736 20.9853 49.1081 21.6615 50.3697C22.3361 51.6426 23.273 52.8558 24.3553 53.7743C25.4836 54.7008 26.8041 55.4615 28.1662 55.9152C29.519 56.3404 30.9761 56.4576 32.0395 55.8178C32.6294 55.4849 33.1112 54.9566 33.4882 54.3175C33.8671 53.6256 34.1879 52.8816 34.4376 52.11C34.9178 50.5596 35.174 48.9145 35.1839 47.2693C35.2102 45.6224 34.9962 43.972 34.5425 42.4112C34.2977 41.6405 34.0021 40.8862 33.6205 40.1751C33.4317 39.8248 33.2244 39.4922 33.0004 39.2111C32.8144 38.9768 32.7232 38.8894 32.5249 38.8022C32.291 38.7002 32.0274 38.8616 31.9637 39.0998C31.9265 39.2126 31.8983 39.3392 31.8925 39.4514C31.8714 39.6381 31.8544 39.9084 31.8705 40.142C31.9247 41.1199 32.142 42.1315 32.436 43.1083C32.7328 44.0858 33.1118 45.0463 33.5939 45.9334C34.0643 46.7976 34.6753 47.6915 35.377 48.0758C35.9528 48.3506 36.6379 48.4432 37.2669 48.2548C37.9052 48.0774 38.5068 47.6621 39.0183 47.1445C40.0339 46.1001 40.787 44.6808 41.0702 43.258C41.2128 42.5834 41.1408 41.8325 40.9725 41.1313C40.7972 40.442 40.4688 39.7723 40.0126 39.4592C39.5415 39.1449 39.1094 39.1947 38.6972 39.6741C38.2833 40.163 37.9778 40.8685 37.766 41.5789C37.588 42.1354 37.5086 42.6918 37.437 43.3045C37.347 43.8998 37.3084 44.5017 37.2733 45.1023C37.2226 46.3034 37.2421 47.5054 37.3411 48.7001C37.5363 51.0897 37.9659 53.4529 38.6247 55.758C38.9154 56.774 39.2474 57.7524 39.6127 58.7494C40.2823 60.6022 40.8162 61.7819 41.1276 62.6434C41.4497 63.5001 41.5436 64.0458 41.5284 64.5456C41.5209 64.7733 41.5469 65.0576 41.506 65.2141C41.4122 65.7295 40.1442 64.526 38.8334 61.7824C36.9262 57.719 35.7101 53.1802 35.4197 48.458C35.36 47.2777 35.3472 46.086 35.4215 44.8899C35.4708 44.2933 35.4743 43.6914 35.5547 43.0915L35.655 42.1796C35.7056 41.8339 35.7743 41.5204 35.8534 41.1993C36.0185 40.563 36.2266 39.9323 36.5609 39.2819C36.8982 38.6599 37.3547 37.8898 38.4709 37.3847C39.0091 37.2021 39.6212 37.1261 40.167 37.3247C40.7343 37.4471 41.16 37.7422 41.5154 38.0621C42.2227 38.7208 42.5386 39.4564 42.7759 40.1476C43.0893 41.1953 43.2172 42.1719 43.0643 43.331C42.8871 44.3903 42.5268 45.3137 42.0646 46.1878C41.5962 47.056 41.0158 47.8686 40.2666 48.5835C39.5207 49.2861 38.5648 49.9211 37.379 50.141C37.0924 50.2143 36.7785 50.1945 36.4804 50.2118C36.1799 50.2054 35.8825 50.1414 35.5863 50.0967C35.3047 50.0154 35.0311 49.913 34.7576 49.8124C34.4486 49.6721 34.1751 49.4913 33.9427 49.307C33.0519 48.5522 32.5481 47.7219 32.0895 46.8914C31.217 45.2166 30.6216 43.5009 30.2855 41.6621L30.3262 41.6449Z" fill="#2458A4"/>
    <path fill-rule="evenodd" clip-rule="evenodd" d="M66.7141 40.0715C66.7098 40.2334 66.4916 40.1852 66.1437 40.0259C66.0324 39.9758 65.7584 39.747 65.7437 39.6848C65.7144 39.5643 65.6881 39.4443 65.6845 39.3395C65.6779 39.2765 66.0231 38.5715 66.1458 38.3234C66.2589 38.0819 66.4196 37.8796 66.5977 37.6949C66.9496 37.3094 67.3314 36.9457 67.7399 36.6077C67.8308 36.5336 67.9356 36.4766 68.0493 36.4342C68.4463 36.2959 68.778 36.0795 69.1029 35.8333C69.1578 35.7934 69.2235 35.769 69.2472 35.678C69.2735 35.5147 70.2735 34.9922 70.4343 34.9948C70.8165 34.9706 71.1778 34.9134 71.5523 34.9214C71.605 34.9223 71.6494 34.8799 71.7164 34.9467C71.8699 35.1004 71.9637 35.0445 72.0723 35.0331C72.2207 35.0139 72.3741 35.0154 72.5307 35.0489C72.608 35.0648 72.6976 35.1542 72.7805 35.223C72.8552 35.2844 72.8664 35.56 72.8514 35.593C72.8061 35.689 72.8774 35.8061 72.9019 35.9171C72.9104 35.954 72.921 36.0027 72.9233 36.0339C72.9141 36.0957 72.3198 36.7308 72.261 36.7591C72.2504 36.7546 72.0168 36.8861 71.7752 37.011C71.532 37.1379 71.2881 37.2851 71.2437 37.3276C71.1962 37.3676 71.1215 37.3505 71.055 37.3501C71.0175 37.3439 70.3599 37.8499 70.3349 37.8673C70.1769 37.9355 70.0694 38.0814 69.8368 38.0356C69.7908 38.0284 69.7669 38.0558 69.7396 38.0771C69.505 38.2603 69.2273 38.3844 68.9619 38.5376C68.8293 38.6188 68.72 38.7298 68.6002 38.8282C68.5781 38.8462 68.5422 38.8471 68.5137 38.8575C68.4782 38.8704 68.4374 38.8775 68.4114 38.9023C68.1362 39.147 67.8011 39.3398 67.5805 39.6479C67.5264 39.7126 67.1116 39.8934 67.0591 39.9829C67.028 40.0295 66.7154 40.005 66.7141 40.0715Z" fill="#2E3543"/>
    <path fill-rule="evenodd" clip-rule="evenodd" d="M55.7958 20.6541C55.7911 20.8206 55.5596 20.7692 55.1977 20.6077C55.0825 20.5561 54.7978 20.3219 54.781 20.2582C54.7485 20.1324 54.7188 20.0072 54.711 19.8973C54.7042 19.8316 55.0272 19.0819 55.1336 18.8115C55.2338 18.551 55.3844 18.3323 55.5515 18.1303C55.8934 17.7209 56.2642 17.3398 56.6337 16.9728C56.7166 16.8921 56.8149 16.8265 56.9265 16.7816C57.3086 16.6236 57.6015 16.3716 57.8594 16.0854C57.9024 16.0375 57.9599 16.0047 57.9561 15.9064C57.9557 15.7441 58.7042 15.0578 58.8325 15.014C59.1664 14.9071 59.4605 14.7546 59.7729 14.6186C59.8191 14.6018 59.8366 14.5483 59.9312 14.5882C60.1513 14.6815 60.2016 14.5886 60.2883 14.5352C60.4087 14.4599 60.5333 14.3897 60.6845 14.3453C60.7597 14.3227 60.8919 14.3605 61.0074 14.3798C61.1126 14.3975 61.3046 14.6367 61.3124 14.6764C61.3344 14.7895 61.4742 14.8561 61.5681 14.9422C61.5997 14.9712 61.6415 15.0093 61.6636 15.0356C61.7125 15.0886 61.5083 16.0916 61.4398 16.1606C61.4469 16.2023 60.6101 17.121 60.5304 17.241C60.4889 17.3035 60.3995 17.3128 60.3245 17.3363C60.2891 17.3511 59.6508 18.095 59.6202 18.1111C59.4506 18.2184 59.3488 18.4006 59.0816 18.387C59.0287 18.3842 59.0044 18.4163 58.9769 18.4441C58.7393 18.6783 58.4423 18.8385 58.1642 19.0198C58.0244 19.1129 57.9171 19.2422 57.7918 19.3503C57.7691 19.3711 57.7295 19.3716 57.7003 19.3839C57.6622 19.3989 57.6178 19.4063 57.5911 19.434C57.3239 19.7203 56.9507 19.9014 56.7225 20.2251C56.6649 20.292 56.2179 20.4725 56.1629 20.565C56.1292 20.6128 55.7979 20.5856 55.7958 20.6541Z" fill="#2E3543"/>
    <path fill-rule="evenodd" clip-rule="evenodd" d="M52.1072 99.8783C51.6964 100.618 51.1959 101.373 50.4895 101.994C50.2211 102.208 49.9749 102.456 49.6547 102.605C49.1089 102.901 48.4444 103.032 47.8534 103C47.2544 102.972 46.6995 102.827 46.1942 102.618C45.745 102.434 45.3098 102.243 44.8928 102.031C44.6281 101.891 44.3577 101.757 44.1088 101.592C43.8679 101.415 43.6576 101.195 43.476 100.949C43.3647 100.793 43.524 100.639 43.795 100.532C44.0621 100.43 44.4581 100.334 44.7544 100.432C45.7016 100.959 46.6432 101.379 47.5614 101.627C48.1429 101.771 48.6534 101.561 49.1366 101.224C49.6645 100.862 50.1093 100.308 50.476 99.6667C50.7074 99.2762 50.9053 98.8478 51.0925 98.4139C51.3671 97.7486 51.6433 97.0628 51.8706 96.36C52.0423 95.8134 52.138 95.2369 52.3296 94.6771C52.373 94.5535 52.4021 94.4259 52.455 94.3051C52.6785 93.8665 52.8879 93.7948 53.2886 93.9126C53.3751 93.9368 53.4587 93.9511 53.5279 93.9771C53.7368 94.0512 53.9641 94.3993 53.9207 94.7258C53.8052 95.7039 53.4996 96.6382 53.121 97.6327C52.8455 98.3701 52.5269 99.1267 52.143 99.8939L52.1072 99.8783Z" fill="#2E3543"/>
    <path fill-rule="evenodd" clip-rule="evenodd" d="M30.5598 12.8308C30.6761 12.9635 30.4917 13.1147 30.1473 13.2716C30.0373 13.3218 29.6901 13.3636 29.6321 13.33C29.5219 13.264 29.4108 13.1982 29.3268 13.1276C29.2805 13.0817 28.9207 12.3405 28.7601 12.1017C28.6129 11.8671 28.523 11.6246 28.4439 11.3801C28.285 10.8837 28.077 10.4026 27.9358 9.908C27.9014 9.79903 27.8921 9.68375 27.8999 9.56391C27.9314 9.15004 27.8215 8.76939 27.6517 8.407C27.6232 8.34631 27.6142 8.27805 27.5181 8.24104C27.3533 8.1826 26.9904 7.17331 27.0412 7.00653C27.0969 6.62058 27.0861 6.25265 27.0947 5.87531C27.0955 5.82171 27.0515 5.78017 27.1231 5.70626C27.2895 5.53294 27.2147 5.44388 27.2154 5.32663C27.2099 5.16759 27.2006 5.00802 27.2368 4.83355C27.2802 4.73675 27.3779 4.62135 27.4375 4.52101C27.4925 4.42854 27.6768 4.40006 27.7131 4.41195C27.8031 4.45236 27.8815 4.3639 27.9573 4.32923C27.9837 4.31724 28.018 4.30166 28.0433 4.29625C28.1328 4.26937 29.1265 4.85292 29.1213 4.96142C29.126 4.97108 29.293 5.26271 29.4704 5.57449C29.6467 5.88361 29.8373 6.20692 29.8845 6.27027C29.9358 6.33688 29.9147 6.42673 29.9132 6.50992C29.9259 6.54274 30.3784 7.51776 30.3822 7.56349C30.4154 7.78331 30.5474 7.97896 30.4156 8.24462C30.3906 8.29705 30.4114 8.33732 30.426 8.38008C30.5451 8.74224 30.5583 9.13391 30.5918 9.51608C30.6085 9.71177 30.6722 9.89704 30.6934 10.0913C30.698 10.1259 30.6754 10.1661 30.6683 10.2038C30.6593 10.2508 30.6414 10.2998 30.6487 10.3433C30.7282 10.7954 30.6891 11.2682 30.8044 11.7101C30.8299 11.8126 30.6895 12.3412 30.7264 12.4554C30.7453 12.5217 30.511 12.7787 30.5598 12.8308Z" fill="#2E3543"/>
    <path fill-rule="evenodd" clip-rule="evenodd" d="M1.17746 17.5201C0.980384 17.5149 1.05269 17.2443 1.29768 16.834C1.37536 16.7032 1.69296 16.3784 1.76646 16.3578C1.90881 16.3162 2.04771 16.2768 2.16242 16.262C2.23053 16.2604 2.93087 16.5434 3.1915 16.5918C3.43594 16.653 3.64115 16.7626 3.84029 16.8848L5.09864 17.5809C5.19265 17.6329 5.27415 17.7065 5.34997 17.7964C5.6043 18.1112 5.94068 18.2929 6.30394 18.4229C6.3643 18.4442 6.41754 18.4857 6.5071 18.4422C6.64852 18.374 7.60239 18.814 7.70644 18.9268C7.95513 19.2053 8.23263 19.4328 8.50065 19.6844C8.53943 19.72 8.60077 19.7154 8.60415 19.8184C8.61151 20.0566 8.72351 20.0689 8.81545 20.1276C8.94219 20.2103 9.06551 20.3044 9.17118 20.4327C9.22387 20.4955 9.23866 20.6369 9.26311 20.7562C9.28642 20.8645 9.1178 21.1404 9.08229 21.1626C8.9782 21.226 8.96357 21.3863 8.9129 21.5106C8.89601 21.552 8.87306 21.6061 8.85521 21.6384C8.81351 21.7073 7.81278 21.8608 7.72924 21.8206C7.71963 21.817 7.41426 21.729 7.08868 21.6329C6.76347 21.5405 6.42136 21.4452 6.34634 21.4337C6.26859 21.4224 6.22085 21.3453 6.1648 21.2856C6.14133 21.2641 5.13113 20.9914 5.09421 20.9648C4.91081 20.852 4.67749 20.8266 4.5713 20.5609C4.55107 20.5085 4.50655 20.4975 4.46713 20.4822C4.11824 20.3397 3.82077 20.0977 3.51733 19.8692C3.36049 19.7546 3.18063 19.6756 3.01417 19.5749C2.9846 19.5567 2.96998 19.514 2.94666 19.485C2.9171 19.4494 2.89524 19.3991 2.85789 19.3771C2.46353 19.1351 2.14713 18.7825 1.73494 18.5552C1.63474 18.5057 1.38459 18.0013 1.27613 17.9434C1.21088 17.9106 1.25426 17.5222 1.17746 17.5201Z" fill="#2E3543"/>
</svg>
