<svg width="14" height="14" viewBox="0 0 14 14" fill="none" xmlns="http://www.w3.org/2000/svg">
<g id="Icon/location">
<path id="Vector" d="M7.25 0.5C4.90373 0.5 3 2.22795 3 4.35714C3 7.78571 7.25 12.5 7.25 12.5C7.25 12.5 11.5 7.78571 11.5 4.35714C11.5 2.22795 9.59627 0.5 7.25 0.5ZM7.25 6.5C6.91377 6.5 6.58509 6.39946 6.30553 6.21109C6.02597 6.02272 5.80807 5.75499 5.6794 5.44174C5.55074 5.1285 5.51707 4.78381 5.58266 4.45127C5.64826 4.11874 5.81017 3.81328 6.04792 3.57353C6.28567 3.33378 6.58858 3.17051 6.91835 3.10437C7.24811 3.03822 7.58993 3.07217 7.90056 3.20192C8.2112 3.33167 8.4767 3.5514 8.6635 3.83331C8.8503 4.11522 8.95 4.44666 8.95 4.78571C8.94951 5.24022 8.77024 5.67597 8.45154 5.99735C8.13283 6.31873 7.70072 6.4995 7.25 6.5Z" fill="#5D6675"/>
</g>
</svg>
