<svg width="117" height="24" viewBox="0 0 117 24" fill="none" xmlns="http://www.w3.org/2000/svg">
<path d="M13.8866 6.61262V20.4987H2.64551V18.515H9.25792L11.9029 15.87V6.61262H13.8866Z" fill="#2458A4"/>
<path d="M3.6059 3.04233C3.18854 3.16077 2.69786 3.58941 2.6189 3.89961L2.58506 4.04061H1.78419C1.34991 4.04061 0.89307 4.06881 0.78027 4.09701C0.509551 4.17597 0.250112 4.39593 0.114753 4.66665C0.00195312 4.87533 0.00195312 5.04453 0.00195312 11.429C0.00195312 17.193 0.0132331 17.9996 0.0865528 18.18C0.300872 18.6933 0.571591 18.8174 1.46271 18.8174H2.13386L2.15642 19.5054C2.17898 20.3176 2.26358 20.5488 2.6471 20.8195L2.88962 20.9887L8.2194 21.0057C11.8459 21.0169 13.6169 21 13.7691 20.9605C13.8932 20.9267 14.0793 20.8252 14.1809 20.7293C14.5813 20.3853 14.5587 20.8139 14.5418 13.5045L14.5249 6.92828L14.3557 6.68576C14.085 6.30224 13.9045 6.2402 13.1036 6.2402H12.4099V5.64236C12.4099 5.3096 12.3761 4.93736 12.3422 4.80765C12.252 4.51437 11.9361 4.19853 11.6429 4.10829C11.4737 4.05753 10.622 4.04061 8.48448 4.03497H5.55733L5.33173 3.68529C5.15125 3.40893 5.04409 3.30177 4.79593 3.17769C4.4237 2.99157 3.9725 2.94081 3.6059 3.04233ZM4.3109 3.89397C4.55342 3.99549 4.72262 4.21545 4.76774 4.49181C4.83541 4.90353 4.6775 4.88661 8.20248 4.88661C11.062 4.88661 11.3665 4.89789 11.4624 4.98248C11.5583 5.06709 11.5639 5.3096 11.5639 10.2841V15.4898H10.8928C9.78168 15.4898 9.42072 15.6082 9.19512 16.0538C9.09924 16.2455 9.08232 16.3922 9.08232 17.1254V17.9714H4.99897C1.32735 17.9714 0.91563 17.9601 0.88179 17.8811C0.86487 17.8304 0.84795 14.9145 0.84795 11.4008C0.84795 5.13476 0.84795 4.9994 0.955109 4.94301C1.01715 4.91481 1.38375 4.88661 1.77291 4.88661H2.48354V6.40376C2.48354 7.40204 2.5061 7.98295 2.55122 8.10703C2.65838 8.43415 2.91782 8.75563 3.21674 8.94739C3.45926 9.10531 3.5777 9.13915 3.92738 9.16171C4.44062 9.19555 4.76774 9.08839 5.11177 8.76691C5.50093 8.40595 5.59681 8.10139 5.63065 7.12568C5.64757 6.58988 5.63629 6.17816 5.59117 5.99204C5.42197 5.23065 4.54778 4.943 3.89918 5.43368C3.60026 5.65928 3.55514 5.8454 3.55514 6.79856C3.55514 7.53176 3.56642 7.65584 3.6623 7.76864C3.73562 7.86452 3.82586 7.89835 3.97814 7.89835C4.35038 7.89835 4.40114 7.77427 4.40114 6.8606C4.40114 6.20636 4.41242 6.07664 4.49138 6.04844C4.5365 6.03152 4.62674 6.0428 4.68878 6.071C4.78465 6.1274 4.79593 6.19508 4.79593 6.84932C4.79029 7.68404 4.74517 7.95475 4.55342 8.14651C4.3673 8.32699 3.93302 8.37775 3.67922 8.24803C3.32954 8.06755 3.3239 8.01115 3.34082 6.02024C3.35774 4.31133 3.36338 4.21545 3.47054 4.09701C3.59462 3.95601 3.86534 3.82065 4.02326 3.81501C4.07966 3.81501 4.20374 3.84885 4.3109 3.89397ZM13.6394 7.15388C13.6902 7.20464 13.7071 8.72179 13.7071 13.6399C13.7071 19.9228 13.7071 20.0581 13.5999 20.1145C13.5266 20.154 11.7782 20.1709 8.32656 20.1709C3.66794 20.1709 3.16034 20.1597 3.07574 20.0807C3.00242 20.0074 2.99114 19.8833 3.00242 19.4152L3.01934 18.8456L6.34693 18.8286L9.68016 18.8174L11.045 17.4468L12.4099 16.0763V11.5813V7.0862H12.9908C13.3687 7.0862 13.5943 7.10876 13.6394 7.15388ZM10.4359 16.8716L9.95651 17.3566L9.9396 16.9505C9.92832 16.7249 9.93396 16.5106 9.95088 16.4655C9.97343 16.4147 10.1088 16.3922 10.4472 16.3922H10.9153L10.4359 16.8716Z" fill="#2E3543"/>
<path d="M7.17432 6.4489C6.96001 6.63502 7.01077 7.05238 7.25328 7.14262C7.33224 7.17646 8.088 7.19902 8.94528 7.19902H10.4963L10.6316 7.05802C10.8065 6.88882 10.8178 6.62374 10.6598 6.46582C10.5527 6.35866 10.4737 6.35302 8.91708 6.35302C7.44504 6.35302 7.27584 6.3643 7.17432 6.4489Z" fill="#2E3543"/>
<path d="M6.80439 8.78951C6.60135 9.07715 6.75927 9.41555 7.12022 9.48323C7.22174 9.50015 8.03954 9.51143 8.93066 9.50015L10.5606 9.48323L10.6678 9.34787C10.7975 9.18995 10.8031 8.95871 10.6847 8.78951C10.6001 8.66543 10.6001 8.66543 8.74454 8.66543C6.88898 8.66543 6.88898 8.66543 6.80439 8.78951Z" fill="#2E3543"/>
<path d="M3.08151 11.0399C2.89539 11.1865 2.87847 11.4855 3.04767 11.6547C3.16047 11.7675 3.23379 11.7675 6.85465 11.7675C10.4755 11.7675 10.5488 11.7675 10.6616 11.6547C10.8196 11.4967 10.8083 11.2317 10.6334 11.0625L10.4981 10.9215H6.86593C3.27327 10.9215 3.22815 10.9215 3.08151 11.0399Z" fill="#2E3543"/>
<path d="M3.04767 13.3466C2.87847 13.5158 2.89539 13.8148 3.08151 13.9614C3.22815 14.0798 3.27327 14.0798 6.86593 14.0798H10.4981L10.6334 13.9388C10.8083 13.7696 10.8196 13.5046 10.6616 13.3466C10.5488 13.2338 10.4755 13.2338 6.85465 13.2338C3.23379 13.2338 3.16047 13.2338 3.04767 13.3466Z" fill="#2E3543"/>
<path d="M25.9869 9.79024V10.6608H23.3173V17.4509H22.3887V10.6608H19.7191V9.79024H25.9869ZM33.6187 9.79024V17.4509H32.6901V9.79024H33.6187ZM28.5348 9.79024V17.4509H27.6062V9.79024H28.5348ZM33.1196 13.1331V14.0036H28.0937V13.1331H33.1196ZM36.1301 17.4509V9.79024H41.5042V10.6608H37.0587V13.1331H40.5176V14.0036H37.0587V16.5804H41.6783V17.4509H36.1301ZM45.9926 9.67417C46.6658 9.67417 47.2461 9.81345 47.7336 10.092C48.2211 10.3629 48.6274 10.7652 48.9524 11.2992L48.1747 11.9027C47.8884 11.4075 47.5634 11.0593 47.1997 10.8581C46.8438 10.6492 46.4104 10.5447 45.8997 10.5447C45.4896 10.5447 45.1491 10.6027 44.8783 10.7188C44.6152 10.8349 44.4218 10.9896 44.298 11.1831C44.1741 11.3688 44.1122 11.5816 44.1122 11.8215C44.1122 12.0923 44.1974 12.3322 44.3676 12.5411C44.5378 12.7423 44.8783 12.9009 45.389 13.017L47.0488 13.3884C47.7839 13.5509 48.2946 13.7985 48.5809 14.1313C48.875 14.4563 49.022 14.8625 49.022 15.35C49.022 15.7833 48.8982 16.1702 48.6506 16.5107C48.4107 16.8434 48.0702 17.1027 47.6292 17.2884C47.1881 17.4741 46.6697 17.5669 46.0738 17.5669C45.5167 17.5669 45.0253 17.4934 44.5997 17.3464C44.1819 17.1917 43.8221 16.9866 43.5203 16.7312C43.2185 16.4759 42.9709 16.1896 42.7774 15.8723L43.5899 15.2107C43.7369 15.5048 43.9265 15.764 44.1587 15.9884C44.3908 16.2128 44.6694 16.3869 44.9944 16.5107C45.3271 16.6345 45.7063 16.6964 46.1319 16.6964C46.5265 16.6964 46.867 16.65 47.1533 16.5571C47.4473 16.4565 47.6717 16.3134 47.8265 16.1277C47.9813 15.9342 48.0586 15.7021 48.0586 15.4313C48.0586 15.1836 47.9774 14.9631 47.8149 14.7697C47.6524 14.5685 47.3467 14.4176 46.8979 14.317L45.0988 13.9107C44.6268 13.8024 44.2438 13.6554 43.9497 13.4697C43.6634 13.2762 43.4545 13.0518 43.323 12.7965C43.1992 12.5334 43.1373 12.2509 43.1373 11.9491C43.1373 11.539 43.2495 11.1637 43.4739 10.8233C43.706 10.4751 44.0349 10.1965 44.4605 9.98756C44.8938 9.77863 45.4045 9.67417 45.9926 9.67417ZM51.8962 9.79024V17.4509H50.9676V9.79024H51.8962ZM56.8628 9.67417C57.536 9.67417 58.1164 9.81345 58.6039 10.092C59.0914 10.3629 59.4976 10.7652 59.8226 11.2992L59.045 11.9027C58.7586 11.4075 58.4337 11.0593 58.07 10.8581C57.714 10.6492 57.2807 10.5447 56.77 10.5447C56.3599 10.5447 56.0194 10.6027 55.7486 10.7188C55.4855 10.8349 55.292 10.9896 55.1682 11.1831C55.0444 11.3688 54.9825 11.5816 54.9825 11.8215C54.9825 12.0923 55.0676 12.3322 55.2379 12.5411C55.4081 12.7423 55.7486 12.9009 56.2593 13.017L57.9191 13.3884C58.6542 13.5509 59.1649 13.7985 59.4512 14.1313C59.7452 14.4563 59.8923 14.8625 59.8923 15.35C59.8923 15.7833 59.7685 16.1702 59.5208 16.5107C59.281 16.8434 58.9405 17.1027 58.4994 17.2884C58.0584 17.4741 57.5399 17.5669 56.9441 17.5669C56.3869 17.5669 55.8956 17.4934 55.47 17.3464C55.0521 17.1917 54.6923 16.9866 54.3905 16.7312C54.0888 16.4759 53.8411 16.1896 53.6477 15.8723L54.4602 15.2107C54.6072 15.5048 54.7968 15.764 55.0289 15.9884C55.2611 16.2128 55.5396 16.3869 55.8646 16.5107C56.1974 16.6345 56.5765 16.6964 57.0021 16.6964C57.3968 16.6964 57.7372 16.65 58.0235 16.5571C58.3176 16.4565 58.542 16.3134 58.6967 16.1277C58.8515 15.9342 58.9289 15.7021 58.9289 15.4313C58.9289 15.1836 58.8476 14.9631 58.6851 14.7697C58.5226 14.5685 58.217 14.4176 57.7682 14.317L55.9691 13.9107C55.4971 13.8024 55.114 13.6554 54.82 13.4697C54.5337 13.2762 54.3248 13.0518 54.1932 12.7965C54.0694 12.5334 54.0075 12.2509 54.0075 11.9491C54.0075 11.539 54.1197 11.1637 54.3441 10.8233C54.5763 10.4751 54.9051 10.1965 55.3307 9.98756C55.764 9.77863 56.2747 9.67417 56.8628 9.67417Z" fill="#2E3543"/>
<path d="M70.1272 9.79024V17.4509H68.5255V9.79024H70.1272ZM65.1478 9.79024V17.4509H63.5461V9.79024H65.1478ZM69.3612 12.9357V14.2241H64.3469V12.9357H69.3612ZM72.1266 17.4509V9.79024H77.8721V11.0786H73.7284V12.9822H76.99V14.2125H73.7284V16.1625H78.0346V17.4509H72.1266ZM81.0735 16.1625H85.1127V17.4509H79.4717V9.79024H81.0735V16.1625ZM89.6579 9.79024C90.246 9.79024 90.7489 9.89083 91.1668 10.092C91.5846 10.2855 91.9058 10.5679 92.1302 10.9393C92.3623 11.303 92.4784 11.7441 92.4784 12.2625C92.4784 12.781 92.3623 13.2259 92.1302 13.5973C91.9058 13.961 91.5846 14.2435 91.1668 14.4447C90.7489 14.6381 90.246 14.7348 89.6579 14.7348H88.0445V17.4509H86.4427V9.79024H89.6579ZM89.4141 13.4697C89.8939 13.4697 90.2537 13.3691 90.4936 13.1679C90.7335 12.959 90.8534 12.6572 90.8534 12.2625C90.8534 11.8602 90.7335 11.5584 90.4936 11.3572C90.2537 11.156 89.8939 11.0554 89.4141 11.0554H88.0445V13.4697H89.4141ZM93.9465 17.4509V9.79024H99.692V11.0786H95.5483V12.9822H98.8098V14.2125H95.5483V16.1625H99.8545V17.4509H93.9465ZM104.669 9.79024C105.536 9.79024 106.217 9.99917 106.712 10.417C107.207 10.8349 107.455 11.3959 107.455 12.1C107.455 12.8506 107.207 13.4271 106.712 13.8295C106.217 14.2241 105.54 14.4214 104.681 14.4214L104.518 14.5143H102.87V17.4509H101.292V9.79024H104.669ZM104.483 13.2956C104.932 13.2956 105.265 13.2066 105.482 13.0286C105.706 12.8429 105.818 12.5605 105.818 12.1813C105.818 11.8021 105.706 11.5236 105.482 11.3456C105.265 11.1599 104.932 11.067 104.483 11.067H102.87V13.2956H104.483ZM105.424 13.6322L107.908 17.4509H106.108L104.054 14.0964L105.424 13.6322ZM111.978 9.67417C112.674 9.67417 113.286 9.79411 113.812 10.034C114.338 10.2739 114.787 10.6298 115.158 11.1018L114.265 12.1349C113.947 11.7325 113.599 11.4384 113.22 11.2527C112.849 11.0593 112.415 10.9626 111.92 10.9626C111.595 10.9626 111.324 11.0051 111.107 11.0902C110.899 11.1753 110.744 11.2875 110.643 11.4268C110.55 11.5661 110.504 11.7209 110.504 11.8911C110.504 12.1 110.585 12.278 110.748 12.425C110.91 12.5643 111.189 12.6804 111.583 12.7732L113.011 13.0982C113.769 13.2685 114.311 13.5238 114.636 13.8643C114.969 14.197 115.135 14.6304 115.135 15.1643C115.135 15.6673 115.004 16.1006 114.74 16.4643C114.477 16.8202 114.11 17.0949 113.638 17.2884C113.166 17.4741 112.624 17.5669 112.013 17.5669C111.479 17.5669 110.988 17.505 110.539 17.3812C110.098 17.2497 109.703 17.0717 109.355 16.8473C109.007 16.6229 108.716 16.3637 108.484 16.0696L109.39 14.9902C109.568 15.2378 109.788 15.4583 110.051 15.6518C110.314 15.8452 110.612 16 110.945 16.1161C111.285 16.2244 111.641 16.2786 112.013 16.2786C112.33 16.2786 112.597 16.2437 112.814 16.1741C113.038 16.0967 113.204 15.9923 113.313 15.8607C113.429 15.7214 113.487 15.5551 113.487 15.3616C113.487 15.1604 113.417 14.9902 113.278 14.8509C113.146 14.7039 112.899 14.5917 112.535 14.5143L110.98 14.1661C110.531 14.0578 110.144 13.9185 109.819 13.7482C109.502 13.5703 109.258 13.3459 109.088 13.075C108.925 12.7965 108.844 12.4676 108.844 12.0884C108.844 11.6319 108.968 11.2218 109.216 10.8581C109.463 10.4944 109.819 10.2081 110.283 9.99917C110.755 9.7825 111.32 9.67417 111.978 9.67417Z" fill="#2458A4"/>
</svg>
