<svg width="100" height="24" viewBox="0 0 100 24" fill="none" xmlns="http://www.w3.org/2000/svg">
<g clip-path="url(#clip0_328_74750)">
<path d="M26.414 8.50488H36.4363V10.3507H32.4956V20.727H30.3286V10.3507H26.4053V8.50488H26.414ZM36.0082 11.8774H37.8606V13.5852H37.8956C37.9567 13.3437 38.0703 13.1108 38.2363 12.8866C38.4024 12.6623 38.6033 12.4467 38.8393 12.2655C39.0752 12.0758 39.3373 11.9292 39.6257 11.8084C39.914 11.6963 40.2111 11.6359 40.5082 11.6359C40.7354 11.6359 40.9014 11.6445 40.9888 11.6531C41.0761 11.6618 41.1635 11.679 41.2596 11.6876V13.568C41.1198 13.5421 40.98 13.5248 40.8315 13.5076C40.6829 13.4903 40.5431 13.4817 40.4033 13.4817C40.0713 13.4817 39.7567 13.5507 39.4596 13.6801C39.1626 13.8095 38.9092 14.0079 38.6907 14.258C38.4723 14.5168 38.2975 14.8273 38.1664 15.2068C38.0354 15.5863 37.9742 16.0176 37.9742 16.5092V20.7184H35.9994V11.8774H36.0082ZM50.3383 20.727H48.3985V19.4936H48.3635C48.1189 19.9421 47.7606 20.2958 47.28 20.5631C46.7995 20.8305 46.3101 20.9685 45.8121 20.9685C44.6325 20.9685 43.7761 20.6839 43.2519 20.106C42.7276 19.5281 42.4655 18.6569 42.4655 17.4925V11.8774H44.4402V17.3028C44.4402 18.079 44.5888 18.6311 44.8946 18.9502C45.1917 19.2693 45.6198 19.4332 46.1616 19.4332C46.581 19.4332 46.9218 19.3728 47.2014 19.2435C47.481 19.1141 47.7082 18.9502 47.8742 18.7346C48.049 18.5276 48.1713 18.2688 48.2499 17.9755C48.3286 17.6823 48.3635 17.3631 48.3635 17.0181V11.886H50.3383V20.727ZM53.7024 17.8893C53.7635 18.4586 53.982 18.8553 54.3577 19.0882C54.7422 19.3125 55.1965 19.4332 55.7296 19.4332C55.913 19.4332 56.1228 19.416 56.3587 19.3901C56.5946 19.3642 56.8218 19.3038 57.0228 19.2262C57.2325 19.1486 57.3985 19.0278 57.5383 18.8726C57.6694 18.7173 57.7305 18.5189 57.7218 18.2688C57.713 18.0187 57.6169 17.8117 57.4422 17.6564C57.2674 17.4925 57.049 17.3718 56.7781 17.2683C56.5072 17.1734 56.2014 17.0871 55.8519 17.0181C55.5024 16.9491 55.1529 16.8715 54.7946 16.7939C54.4276 16.7162 54.0694 16.6127 53.7286 16.5006C53.3878 16.3885 53.082 16.2332 52.8111 16.0348C52.5402 15.8451 52.3218 15.5949 52.1645 15.293C51.9985 14.9912 51.9198 14.6203 51.9198 14.1717C51.9198 13.6887 52.0422 13.292 52.2781 12.9642C52.514 12.6364 52.8198 12.3777 53.1781 12.1793C53.5451 11.9809 53.947 11.8429 54.3927 11.7566C54.8383 11.679 55.2664 11.6359 55.6684 11.6359C56.1315 11.6359 56.5771 11.6876 56.9965 11.7825C57.416 11.8774 57.8004 12.0327 58.1412 12.2569C58.482 12.4726 58.7616 12.7572 58.9888 13.1022C59.216 13.4472 59.3558 13.8699 59.4169 14.3615H57.3548C57.2587 13.8957 57.049 13.5766 56.7082 13.4213C56.3674 13.2575 55.9742 13.1798 55.5373 13.1798C55.3975 13.1798 55.2315 13.1885 55.0393 13.2143C54.847 13.2402 54.6723 13.2833 54.4975 13.3437C54.3315 13.4041 54.1917 13.499 54.0694 13.6197C53.9558 13.7405 53.8946 13.8957 53.8946 14.0941C53.8946 14.3356 53.982 14.5254 54.148 14.672C54.314 14.8187 54.5325 14.9394 54.8033 15.0429C55.0742 15.1378 55.38 15.224 55.7296 15.293C56.0791 15.362 56.4373 15.4397 56.8043 15.5173C57.1626 15.5949 57.5121 15.6984 57.8616 15.8106C58.2111 15.9227 58.5169 16.078 58.7878 16.2763C59.0587 16.4747 59.2771 16.7162 59.4431 17.0095C59.6092 17.3028 59.6965 17.6736 59.6965 18.1049C59.6965 18.6311 59.5742 19.071 59.3296 19.4418C59.0849 19.8041 58.7703 20.106 58.3859 20.3303C58.0014 20.5545 57.5645 20.727 57.0927 20.8305C56.6208 20.934 56.149 20.9858 55.6859 20.9858C55.1179 20.9858 54.5936 20.9254 54.113 20.796C53.6325 20.6666 53.213 20.4769 52.8635 20.2268C52.514 19.968 52.2344 19.6489 52.0334 19.2693C51.8325 18.8898 51.7276 18.4327 51.7101 17.9065H53.7024V17.8893ZM60.2208 11.8774H61.715V9.22079H63.6897V11.8774H65.4723V13.3351H63.6897V18.0618C63.6897 18.2688 63.6985 18.4413 63.716 18.5966C63.7334 18.7432 63.7771 18.8726 63.8383 18.9761C63.8995 19.0796 63.9956 19.1572 64.1266 19.209C64.2577 19.2607 64.4237 19.2866 64.6509 19.2866C64.7907 19.2866 64.9305 19.2866 65.0703 19.278C65.2101 19.2693 65.3499 19.2521 65.4897 19.2176V20.727C65.2713 20.7529 65.0528 20.7702 64.8519 20.796C64.6422 20.8219 64.4325 20.8305 64.214 20.8305C63.6897 20.8305 63.2703 20.7788 62.9558 20.6839C62.6412 20.589 62.3878 20.4424 62.2131 20.2526C62.0296 20.0629 61.916 19.83 61.8461 19.5454C61.7849 19.2607 61.7412 18.933 61.7325 18.5707V13.3523H60.2383V11.8774H60.2208ZM66.8703 11.8774H68.7402V13.0763H68.7752C69.0548 12.5588 69.4393 12.1965 69.9373 11.9723C70.4354 11.748 70.9684 11.6359 71.5538 11.6359C72.2616 11.6359 72.8732 11.7566 73.3975 12.0068C73.9218 12.2483 74.3587 12.5847 74.7082 13.0159C75.0577 13.4472 75.3111 13.9475 75.4859 14.5168C75.6606 15.086 75.748 15.6984 75.748 16.3453C75.748 16.9405 75.6694 17.5184 75.5121 18.0704C75.3548 18.6311 75.1189 19.1227 74.8043 19.554C74.4897 19.9852 74.0878 20.3216 73.5985 20.5804C73.1092 20.8392 72.5412 20.9685 71.8771 20.9685C71.5888 20.9685 71.3004 20.9427 71.0121 20.8909C70.7237 20.8392 70.4441 20.7529 70.182 20.6408C69.9198 20.5286 69.6664 20.382 69.448 20.2009C69.2208 20.0197 69.0373 19.8127 68.88 19.5799H68.8451V23.996H66.8703V11.8774ZM73.7732 16.3108C73.7732 15.9141 73.7208 15.5259 73.616 15.1464C73.5111 14.7669 73.3538 14.4391 73.1441 14.1459C72.9344 13.8526 72.6723 13.6197 72.3664 13.4472C72.0519 13.2747 71.6936 13.1798 71.2917 13.1798C70.4616 13.1798 69.8325 13.4645 69.413 14.0337C68.9936 14.603 68.7839 15.362 68.7839 16.3108C68.7839 16.7594 68.8363 17.1734 68.9499 17.5529C69.0635 17.9324 69.2208 18.2602 69.448 18.5362C69.6664 18.8122 69.9286 19.0278 70.2344 19.1831C70.5402 19.347 70.8985 19.4246 71.3004 19.4246C71.7548 19.4246 72.1305 19.3297 72.4451 19.1486C72.7597 18.9675 73.013 18.7259 73.214 18.4413C73.415 18.148 73.5635 17.8203 73.6509 17.4494C73.7295 17.0785 73.7732 16.699 73.7732 16.3108ZM77.2597 8.50488H79.2344V10.3507H77.2597V8.50488ZM77.2597 11.8774H79.2344V20.727H77.2597V11.8774ZM80.9995 8.50488H82.9742V20.727H80.9995V8.50488ZM89.0296 20.9685C88.313 20.9685 87.6752 20.8478 87.116 20.6149C86.5567 20.382 86.0849 20.0542 85.6917 19.6489C85.3072 19.2348 85.0101 18.7432 84.8092 18.1739C84.6082 17.6046 84.5033 16.975 84.5033 16.2936C84.5033 15.6208 84.6082 14.9998 84.8092 14.4305C85.0101 13.8612 85.3072 13.3696 85.6917 12.9556C86.0762 12.5416 86.5567 12.2224 87.116 11.9895C87.6752 11.7566 88.313 11.6359 89.0296 11.6359C89.7461 11.6359 90.3839 11.7566 90.9431 11.9895C91.5024 12.2224 91.9742 12.5502 92.3674 12.9556C92.7519 13.3696 93.049 13.8612 93.2499 14.4305C93.4509 14.9998 93.5558 15.6208 93.5558 16.2936C93.5558 16.975 93.4509 17.6046 93.2499 18.1739C93.049 18.7432 92.7519 19.2348 92.3674 19.6489C91.983 20.0629 91.5024 20.382 90.9431 20.6149C90.3839 20.8478 89.7461 20.9685 89.0296 20.9685ZM89.0296 19.4246C89.4664 19.4246 89.8509 19.3297 90.1742 19.1486C90.4975 18.9675 90.7597 18.7259 90.9694 18.4327C91.1791 18.1394 91.3276 17.803 91.4325 17.4321C91.5286 17.0612 91.581 16.6817 91.581 16.2936C91.581 15.9141 91.5286 15.5432 91.4325 15.1637C91.3364 14.7841 91.1791 14.4564 90.9694 14.1631C90.7597 13.8699 90.4975 13.637 90.1742 13.4558C89.8509 13.2747 89.4664 13.1798 89.0296 13.1798C88.5927 13.1798 88.2082 13.2747 87.8849 13.4558C87.5616 13.637 87.2995 13.8785 87.0898 14.1631C86.88 14.4564 86.7315 14.7841 86.6266 15.1637C86.5305 15.5432 86.4781 15.9141 86.4781 16.2936C86.4781 16.6817 86.5305 17.0612 86.6266 17.4321C86.7228 17.803 86.88 18.1394 87.0898 18.4327C87.2995 18.7259 87.5616 18.9675 87.8849 19.1486C88.2082 19.3383 88.5927 19.4246 89.0296 19.4246ZM94.1325 11.8774H95.6267V9.22079H97.6014V11.8774H99.3839V13.3351H97.6014V18.0618C97.6014 18.2688 97.6101 18.4413 97.6276 18.5966C97.6451 18.7432 97.6888 18.8726 97.7499 18.9761C97.8111 19.0796 97.9072 19.1572 98.0383 19.209C98.1694 19.2607 98.3354 19.2866 98.5626 19.2866C98.7024 19.2866 98.8422 19.2866 98.982 19.278C99.1218 19.2693 99.2616 19.2521 99.4014 19.2176V20.727C99.183 20.7529 98.9645 20.7702 98.7635 20.796C98.5538 20.8219 98.3441 20.8305 98.1257 20.8305C97.6014 20.8305 97.182 20.7788 96.8674 20.6839C96.5529 20.589 96.2995 20.4424 96.1247 20.2526C95.9412 20.0629 95.8276 19.83 95.7577 19.5454C95.6966 19.2607 95.6529 18.933 95.6441 18.5707V13.3523H94.1499V11.8774H94.1325Z" fill="#191919"/>
<path d="M24.1062 8.50461H15.0538L12.2577 0L9.45282 8.50461L0.400391 8.49599L7.73146 13.7575L4.92661 22.2534L12.2577 17.0006L19.58 22.2534L16.7839 13.7575L24.1062 8.50461Z" fill="#00B67A"/>
<path d="M17.4132 15.681L16.784 13.7576L12.2578 17.0007L17.4132 15.681Z" fill="#005128"/>
</g>
<defs>
<clipPath id="clip0_328_74750">
<rect width="100" height="24" fill="white"/>
</clipPath>
</defs>
</svg>
