<svg width="164" height="43" viewBox="0 0 164 43" fill="none" xmlns="http://www.w3.org/2000/svg">
<path d="M19.1416 14.0735V33.2151H3.646V30.4806H12.761L16.4071 26.8346V14.0735H19.1416Z" fill="#2458A4"/>
<path d="M4.96795 9.15202C4.39263 9.31529 3.71625 9.90616 3.6074 10.3338L3.56075 10.5281H2.45676C1.85812 10.5281 1.22838 10.567 1.07289 10.6059C0.699712 10.7147 0.342081 11.0179 0.155491 11.3911C0 11.6788 0 11.912 0 20.7128C0 28.6584 0.0155491 29.7702 0.116619 30.019C0.412052 30.7265 0.785232 30.8975 2.01361 30.8975H2.93879L2.96989 31.846C3.00098 32.9655 3.1176 33.2843 3.64627 33.6575L3.98058 33.8907L11.3276 33.914C16.3266 33.9296 18.7678 33.9063 18.9777 33.8518C19.1488 33.8052 19.4053 33.6652 19.5453 33.5331C20.0973 33.0588 20.0662 33.6497 20.0428 23.5739L20.0195 14.5087L19.7863 14.1744C19.4131 13.6457 19.1643 13.5602 18.0603 13.5602H17.1041V12.7361C17.1041 12.2774 17.0574 11.7643 17.0108 11.5855C16.8864 11.1812 16.451 10.7458 16.0467 10.6214C15.8135 10.5514 14.6395 10.5281 11.693 10.5203H7.65795L7.34697 10.0383C7.09818 9.65737 6.95047 9.50965 6.60839 9.33862C6.09526 9.08205 5.4733 9.01208 4.96795 9.15202ZM5.93977 10.326C6.27408 10.4659 6.50732 10.7691 6.56951 11.1501C6.66281 11.7176 6.44512 11.6943 11.3042 11.6943C15.2459 11.6943 15.6658 11.7099 15.7979 11.8265C15.9301 11.9431 15.9379 12.2774 15.9379 19.1346V26.3105H15.0127C13.4811 26.3105 12.9835 26.4738 12.6726 27.088C12.5404 27.3523 12.5171 27.5544 12.5171 28.5651V29.7313H6.88827C1.82702 29.7313 1.25948 29.7158 1.21283 29.6069C1.18951 29.5369 1.16619 25.5175 1.16619 20.6739C1.16619 12.0364 1.16619 11.8498 1.3139 11.7721C1.39942 11.7332 1.90477 11.6943 2.44122 11.6943H3.42081V13.7857C3.42081 15.1618 3.45191 15.9625 3.51411 16.1336C3.66182 16.5845 4.01945 17.0277 4.43151 17.292C4.76581 17.5097 4.92908 17.5563 5.4111 17.5874C6.11859 17.6341 6.56951 17.4864 7.04376 17.0432C7.58021 16.5456 7.71238 16.1258 7.75902 14.7808C7.78235 14.0422 7.7668 13.4747 7.7046 13.2181C7.47136 12.1686 6.2663 11.7721 5.37223 12.4484C4.96018 12.7594 4.89798 13.016 4.89798 14.3299C4.89798 15.3406 4.91353 15.5116 5.0457 15.6671C5.14677 15.7993 5.27116 15.8459 5.48107 15.8459C5.99419 15.8459 6.06417 15.6749 6.06417 14.4154C6.06417 13.5136 6.07971 13.3347 6.18856 13.2959C6.25076 13.2725 6.37515 13.2881 6.46067 13.327C6.59284 13.4047 6.60839 13.498 6.60839 14.3999C6.60061 15.5505 6.53841 15.9237 6.27408 16.188C6.01752 16.4368 5.41888 16.5068 5.06902 16.328C4.587 16.0792 4.57922 16.0014 4.60255 13.257C4.62587 10.9013 4.63365 10.7691 4.78136 10.6059C4.9524 10.4115 5.32558 10.2249 5.54327 10.2171C5.62102 10.2171 5.79206 10.2638 5.93977 10.326ZM18.7989 14.8197C18.8689 14.8897 18.8922 16.981 18.8922 23.7604C18.8922 32.4213 18.8922 32.6079 18.7445 32.6857C18.6434 32.7401 16.2333 32.7634 11.4753 32.7634C5.05347 32.7634 4.35376 32.7478 4.23714 32.639C4.13607 32.5379 4.12052 32.3669 4.13607 31.7216L4.1594 30.9364L8.74639 30.913L13.3412 30.8975L15.2226 29.0083L17.1041 27.1191V20.9227V14.7264H17.9048C18.4257 14.7264 18.7367 14.7575 18.7989 14.8197ZM14.383 28.2153L13.7221 28.8839L13.6988 28.3241C13.6832 28.0131 13.691 27.7177 13.7143 27.6555C13.7454 27.5855 13.932 27.5544 14.3985 27.5544H15.0438L14.383 28.2153Z" fill="#2E3543"/>
<path d="M9.88897 13.8479C9.59354 14.1044 9.66351 14.6798 9.99781 14.8042C10.1067 14.8508 11.1485 14.8819 12.3302 14.8819H14.4682L14.6548 14.6875C14.8958 14.4543 14.9113 14.0889 14.6937 13.8712C14.5459 13.7235 14.4371 13.7157 12.2913 13.7157C10.2621 13.7157 10.0289 13.7313 9.88897 13.8479Z" fill="#2E3543"/>
<path d="M9.37563 17.0743C9.09574 17.4708 9.31343 17.9373 9.811 18.0306C9.95095 18.0539 11.0783 18.0695 12.3066 18.0539L14.5535 18.0306L14.7012 17.844C14.88 17.6263 14.8878 17.3076 14.7245 17.0743C14.6079 16.9033 14.6079 16.9033 12.0501 16.9033C9.49225 16.9033 9.49225 16.9033 9.37563 17.0743Z" fill="#2E3543"/>
<path d="M4.24553 20.1765C3.98897 20.3786 3.96565 20.7907 4.19888 21.0239C4.35438 21.1794 4.45545 21.1794 9.44672 21.1794C14.438 21.1794 14.5391 21.1794 14.6946 21.0239C14.9122 20.8062 14.8967 20.4408 14.6557 20.2076L14.4691 20.0132H9.46227C4.50987 20.0132 4.44767 20.0132 4.24553 20.1765Z" fill="#2E3543"/>
<path d="M4.19888 23.3562C3.96565 23.5895 3.98897 24.0015 4.24553 24.2037C4.44767 24.3669 4.50987 24.3669 9.46227 24.3669H14.4691L14.6557 24.1726C14.8967 23.9393 14.9122 23.5739 14.6946 23.3562C14.5391 23.2008 14.438 23.2008 9.44672 23.2008C4.45545 23.2008 4.35438 23.2008 4.19888 23.3562Z" fill="#2E3543"/>
<path d="M37.2051 18.44V19.64H33.5251V29H32.2451V19.64H28.5651V18.44H37.2051ZM47.7254 18.44V29H46.4454V18.44H47.7254ZM40.7174 18.44V29H39.4374V18.44H40.7174ZM47.0374 23.048V24.248H40.1094V23.048H47.0374ZM51.1874 29V18.44H58.5954V19.64H52.4674V23.048H57.2354V24.248H52.4674V27.8H58.8354V29H51.1874ZM64.7825 18.28C65.7105 18.28 66.5105 18.472 67.1825 18.856C67.8545 19.2293 68.4145 19.784 68.8625 20.52L67.7905 21.352C67.3958 20.6693 66.9478 20.1893 66.4465 19.912C65.9558 19.624 65.3585 19.48 64.6545 19.48C64.0891 19.48 63.6198 19.56 63.2465 19.72C62.8838 19.88 62.6171 20.0933 62.4465 20.36C62.2758 20.616 62.1905 20.9093 62.1905 21.24C62.1905 21.6133 62.3078 21.944 62.5425 22.232C62.7771 22.5093 63.2465 22.728 63.9505 22.888L66.2385 23.4C67.2518 23.624 67.9558 23.9653 68.3505 24.424C68.7558 24.872 68.9585 25.432 68.9585 26.104C68.9585 26.7013 68.7878 27.2347 68.4465 27.704C68.1158 28.1627 67.6465 28.52 67.0385 28.776C66.4305 29.032 65.7158 29.16 64.8945 29.16C64.1265 29.16 63.4491 29.0587 62.8625 28.856C62.2865 28.6427 61.7905 28.36 61.3745 28.008C60.9585 27.656 60.6171 27.2613 60.3505 26.824L61.4705 25.912C61.6731 26.3173 61.9345 26.6747 62.2545 26.984C62.5745 27.2933 62.9585 27.5333 63.4065 27.704C63.8651 27.8747 64.3878 27.96 64.9745 27.96C65.5185 27.96 65.9878 27.896 66.3825 27.768C66.7878 27.6293 67.0971 27.432 67.3105 27.176C67.5238 26.9093 67.6305 26.5893 67.6305 26.216C67.6305 25.8747 67.5185 25.5707 67.2945 25.304C67.0705 25.0267 66.6491 24.8187 66.0305 24.68L63.5505 24.12C62.8998 23.9707 62.3718 23.768 61.9665 23.512C61.5718 23.2453 61.2838 22.936 61.1025 22.584C60.9318 22.2213 60.8465 21.832 60.8465 21.416C60.8465 20.8507 61.0011 20.3333 61.3105 19.864C61.6305 19.384 62.0838 19 62.6705 18.712C63.2678 18.424 63.9718 18.28 64.7825 18.28ZM72.9205 18.44V29H71.6405V18.44H72.9205ZM79.7669 18.28C80.6949 18.28 81.4949 18.472 82.1669 18.856C82.8389 19.2293 83.3989 19.784 83.8469 20.52L82.7749 21.352C82.3802 20.6693 81.9322 20.1893 81.4309 19.912C80.9402 19.624 80.3429 19.48 79.6389 19.48C79.0735 19.48 78.6042 19.56 78.2309 19.72C77.8682 19.88 77.6015 20.0933 77.4309 20.36C77.2602 20.616 77.1749 20.9093 77.1749 21.24C77.1749 21.6133 77.2922 21.944 77.5269 22.232C77.7615 22.5093 78.2309 22.728 78.9349 22.888L81.2229 23.4C82.2362 23.624 82.9402 23.9653 83.3349 24.424C83.7402 24.872 83.9429 25.432 83.9429 26.104C83.9429 26.7013 83.7722 27.2347 83.4309 27.704C83.1002 28.1627 82.6309 28.52 82.0229 28.776C81.4149 29.032 80.7002 29.16 79.8789 29.16C79.1109 29.16 78.4335 29.0587 77.8469 28.856C77.2709 28.6427 76.7749 28.36 76.3589 28.008C75.9429 27.656 75.6015 27.2613 75.3349 26.824L76.4549 25.912C76.6575 26.3173 76.9189 26.6747 77.2389 26.984C77.5589 27.2933 77.9429 27.5333 78.3909 27.704C78.8495 27.8747 79.3722 27.96 79.9589 27.96C80.5029 27.96 80.9722 27.896 81.3669 27.768C81.7722 27.6293 82.0815 27.432 82.2949 27.176C82.5082 26.9093 82.6149 26.5893 82.6149 26.216C82.6149 25.8747 82.5029 25.5707 82.2789 25.304C82.0549 25.0267 81.6335 24.8187 81.0149 24.68L78.5349 24.12C77.8842 23.9707 77.3562 23.768 76.9509 23.512C76.5562 23.2453 76.2682 22.936 76.0869 22.584C75.9162 22.2213 75.8309 21.832 75.8309 21.416C75.8309 20.8507 75.9855 20.3333 76.2949 19.864C76.6149 19.384 77.0682 19 77.6549 18.712C78.2522 18.424 78.9562 18.28 79.7669 18.28Z" fill="#2E3543"/>
<path d="M99.5011 18.44V29H97.2931V18.44H99.5011ZM92.6371 18.44V29H90.4291V18.44H92.6371ZM98.4451 22.776V24.552H91.5331V22.776H98.4451ZM102.257 29V18.44H110.177V20.216H104.465V22.84H108.961V24.536H104.465V27.224H110.401V29H102.257ZM114.59 27.224H120.158V29H112.382V18.44H114.59V27.224ZM126.424 18.44C127.234 18.44 127.928 18.5787 128.504 18.856C129.08 19.1227 129.522 19.512 129.832 20.024C130.152 20.5253 130.312 21.1333 130.312 21.848C130.312 22.5627 130.152 23.176 129.832 23.688C129.522 24.1893 129.08 24.5787 128.504 24.856C127.928 25.1227 127.234 25.256 126.424 25.256H124.2V29H121.992V18.44H126.424ZM126.088 23.512C126.749 23.512 127.245 23.3733 127.576 23.096C127.906 22.808 128.072 22.392 128.072 21.848C128.072 21.2933 127.906 20.8773 127.576 20.6C127.245 20.3227 126.749 20.184 126.088 20.184H124.2V23.512H126.088ZM132.335 29V18.44H140.255V20.216H134.543V22.84H139.039V24.536H134.543V27.224H140.479V29H132.335ZM147.116 18.44C148.311 18.44 149.25 18.728 149.932 19.304C150.615 19.88 150.956 20.6533 150.956 21.624C150.956 22.6587 150.615 23.4533 149.932 24.008C149.25 24.552 148.316 24.824 147.132 24.824L146.908 24.952H144.636V29H142.46V18.44H147.116ZM146.86 23.272C147.479 23.272 147.938 23.1493 148.236 22.904C148.546 22.648 148.7 22.2587 148.7 21.736C148.7 21.2133 148.546 20.8293 148.236 20.584C147.938 20.328 147.479 20.2 146.86 20.2H144.636V23.272H146.86ZM148.156 23.736L151.58 29H149.1L146.268 24.376L148.156 23.736ZM157.191 18.28C158.151 18.28 158.994 18.4453 159.719 18.776C160.445 19.1067 161.063 19.5973 161.575 20.248L160.343 21.672C159.906 21.1173 159.426 20.712 158.903 20.456C158.391 20.1893 157.794 20.056 157.111 20.056C156.663 20.056 156.29 20.1147 155.991 20.232C155.703 20.3493 155.49 20.504 155.351 20.696C155.223 20.888 155.159 21.1013 155.159 21.336C155.159 21.624 155.271 21.8693 155.495 22.072C155.719 22.264 156.103 22.424 156.647 22.552L158.615 23C159.661 23.2347 160.407 23.5867 160.855 24.056C161.314 24.5147 161.543 25.112 161.543 25.848C161.543 26.5413 161.362 27.1387 160.999 27.64C160.637 28.1307 160.13 28.5093 159.479 28.776C158.829 29.032 158.082 29.16 157.239 29.16C156.503 29.16 155.826 29.0747 155.207 28.904C154.599 28.7227 154.055 28.4773 153.575 28.168C153.095 27.8587 152.695 27.5013 152.375 27.096L153.623 25.608C153.869 25.9493 154.173 26.2533 154.535 26.52C154.898 26.7867 155.309 27 155.767 27.16C156.237 27.3093 156.727 27.384 157.239 27.384C157.677 27.384 158.045 27.336 158.343 27.24C158.653 27.1333 158.882 26.9893 159.031 26.808C159.191 26.616 159.271 26.3867 159.271 26.12C159.271 25.8427 159.175 25.608 158.983 25.416C158.802 25.2133 158.461 25.0587 157.959 24.952L155.815 24.472C155.197 24.3227 154.663 24.1307 154.215 23.896C153.778 23.6507 153.442 23.3413 153.207 22.968C152.983 22.584 152.871 22.1307 152.871 21.608C152.871 20.9787 153.042 20.4133 153.383 19.912C153.725 19.4107 154.215 19.016 154.855 18.728C155.506 18.4293 156.285 18.28 157.191 18.28Z" fill="#2458A4"/>
</svg>
