<svg width="24" height="24" viewBox="0 0 24 24" fill="none" xmlns="http://www.w3.org/2000/svg">
<g id="Icon">
<path id="Fill 1" fill-rule="evenodd" clip-rule="evenodd" d="M2.52022 15.8127C2.53852 14.7341 2.55088 13.6666 2.53852 12.5905L2.51316 11.4153C2.49838 10.0337 2.47787 8.65181 2.42824 7.2715C2.40596 6.65921 2.36781 6.04405 2.3173 5.43904C2.24539 4.66287 2.18033 3.88008 2.11879 3.11626C2.10445 2.87761 2.16422 2.88908 2.28929 3.07589C2.42868 3.26161 2.5897 3.63481 2.65035 4.08587C2.7721 4.8852 2.80607 5.68718 2.84644 6.48827C2.88217 7.29003 2.90114 8.09311 2.9029 8.89994C2.90621 9.8647 2.96003 10.867 2.97745 11.8531C2.99554 12.937 3.00657 14.0233 2.99333 15.1087C2.9876 15.7754 2.98076 16.442 2.98627 17.107C2.99642 18.1145 3.01362 19.1269 3.09634 20.1224C3.1592 20.8961 3.27411 21.6489 3.40447 22.403C3.43513 22.5687 3.46512 22.731 3.496 22.8982C3.60342 23.5182 3.61378 23.7193 3.49931 23.8788C3.47373 23.915 3.45012 23.9611 3.42211 23.9847C3.32793 24.0648 3.19383 23.8263 3.08354 23.3702C2.76372 22.0164 2.61021 20.55 2.54823 19.0837C2.49904 17.9939 2.50654 16.9012 2.50853 15.814L2.52022 15.8127Z" fill="#2458A4"/>
<path id="Fill 3" fill-rule="evenodd" clip-rule="evenodd" d="M8.66548 21.1039C9.74427 21.1589 10.8259 21.1816 11.9074 21.1694C12.3024 21.1697 12.6959 21.1397 13.0903 21.1333C14.4803 21.0964 15.8707 21.0139 17.2528 20.8538C17.8657 20.7821 18.4791 20.6857 19.0808 20.575C19.4664 20.4978 19.853 20.4228 20.2359 20.3322C20.6224 20.2578 21.0079 20.1813 21.3968 20.1143C21.6398 20.0746 21.6255 20.1432 21.4442 20.272C21.2618 20.395 20.9177 20.6154 20.4739 20.7374C19.6841 20.9412 18.8817 21.0775 18.0775 21.205C17.2706 21.3115 16.4601 21.4004 15.6433 21.4436C14.6675 21.5023 13.6551 21.5929 12.6562 21.6232C11.5586 21.6582 10.4598 21.6589 9.36225 21.6309C8.68665 21.6097 8.01128 21.581 7.33723 21.5393C6.31887 21.4661 5.29567 21.3924 4.28481 21.3197C3.49849 21.2652 2.72475 21.2334 1.94549 21.1714C1.77389 21.1569 1.60538 21.1494 1.43267 21.1302C0.792809 21.0611 0.594962 20.9926 0.479826 20.8262C0.453579 20.7883 0.417626 20.749 0.404613 20.7129C0.360941 20.5891 0.631796 20.5351 1.09785 20.5642C2.4808 20.6516 3.93147 20.7676 5.39779 20.8757C6.48937 20.9564 7.5761 21.0501 8.66459 21.0911L8.66548 21.1039Z" fill="#2458A4"/>
<path id="Fill 5" fill-rule="evenodd" clip-rule="evenodd" d="M5.43109 14.6438C5.42359 15.2439 5.42447 15.8452 5.4344 16.446L5.45866 17.1029C5.47763 17.874 5.48954 18.651 5.56674 19.4095C5.57622 19.4898 5.58725 19.5699 5.60181 19.6455C5.60732 19.6727 5.61019 19.687 5.61681 19.7077C5.62232 19.7263 5.6318 19.7479 5.65408 19.749C5.67482 19.7565 5.69665 19.7569 5.71849 19.7591C5.74628 19.7596 5.79458 19.7633 5.83473 19.7613C5.9181 19.7616 6.00434 19.7574 6.08992 19.7512C6.30277 19.7353 6.5176 19.7044 6.73199 19.6747C6.94528 19.6398 7.16496 19.6299 7.37692 19.6063C7.50287 19.5928 7.51412 19.6608 7.41685 19.766C7.31914 19.8652 7.12305 20.0101 6.87006 20.0646C6.657 20.1034 6.44305 20.1365 6.22402 20.1597C6.11396 20.1705 6.00346 20.1798 5.88744 20.1826C5.82921 20.1839 5.77098 20.182 5.7068 20.1764C5.66687 20.1769 5.60997 20.165 5.56277 20.1522C5.51358 20.1403 5.46373 20.1299 5.41675 20.1114C5.22001 20.0212 5.2017 19.6817 5.18714 19.6118C5.17082 19.487 5.16068 19.3661 5.15229 19.2452C5.13641 19.0039 5.12913 18.7648 5.12693 18.5253C5.12186 17.9814 5.07796 17.42 5.06561 16.8666C5.05216 16.2581 5.04929 15.6495 5.05216 15.041L5.06716 13.9174C5.07289 13.6334 5.08237 13.349 5.09826 13.0643C5.1062 12.9218 5.11524 12.7793 5.12913 12.6357C5.13707 12.5623 5.14127 12.5016 5.16266 12.3918C5.18141 12.2967 5.21207 12.1926 5.30978 12.1767C5.37793 12.1622 5.46219 12.167 5.53387 12.1728L5.70415 12.1875L6.02618 12.2149C6.23902 12.2306 6.45077 12.2345 6.65744 12.2266C6.74853 12.2224 6.83654 12.2153 6.9241 12.2056C7.24922 12.1692 7.31252 12.1443 7.42435 12.1776C7.44839 12.1836 7.47861 12.184 7.50044 12.1913C7.53706 12.2025 7.5408 12.246 7.49338 12.3152C7.44618 12.3838 7.34141 12.4606 7.20047 12.5091C6.77985 12.6472 6.36232 12.6049 5.9556 12.576L5.6532 12.5499L5.51799 12.5389C5.50432 12.5382 5.5116 12.5393 5.50895 12.5398C5.50785 12.5442 5.51049 12.5354 5.50873 12.5499C5.49726 12.6412 5.48998 12.7401 5.48358 12.8384C5.4494 13.4287 5.44168 14.0385 5.44057 14.6429L5.43109 14.6438Z" fill="#2458A4"/>
<path id="Fill 7" fill-rule="evenodd" clip-rule="evenodd" d="M7.50179 15.7445L7.47797 16.5601C7.47576 16.6592 7.48481 16.7582 7.48216 16.8572C7.47223 17.207 7.45944 17.5571 7.45547 17.9069C7.4526 18.062 7.4601 18.2177 7.47003 18.3712L7.49253 18.6665C7.49429 18.7627 7.48613 18.8706 7.47201 18.955C7.46937 18.9652 7.46319 18.974 7.45481 18.9815C7.4504 18.9855 7.44577 18.9888 7.44047 18.9919L7.43628 18.9938L7.40893 19.0033C7.39526 19.0082 7.39063 19.0097 7.39504 19.0082C7.42283 18.9989 7.41114 19.0018 7.4032 19.0024C7.39614 19.0029 7.38842 19.0024 7.38048 19.0011C7.36438 18.9983 7.34673 18.9914 7.32776 18.9788C7.25409 18.925 7.16565 18.8353 7.14161 18.7203C7.10323 18.3143 7.09154 17.9104 7.12749 17.5008C7.14778 17.2562 7.12352 17.003 7.12286 16.7533L7.1297 15.9295L7.13609 15.4227C7.13764 15.1668 7.14558 14.9096 7.13874 14.6555C7.13389 14.4579 7.10521 14.2645 7.09132 14.0671C7.08801 14.0236 7.08117 13.981 7.07985 13.9374C7.07742 13.7737 7.10698 13.7219 7.21351 13.6932C7.23799 13.6866 7.26248 13.6775 7.28652 13.6745C7.36879 13.6643 7.43364 13.7327 7.45216 13.8478C7.51061 14.1912 7.51855 14.5558 7.51899 14.9229C7.51635 15.1957 7.5137 15.4701 7.51105 15.744L7.50179 15.7445Z" fill="#2458A4"/>
<path id="Fill 9" fill-rule="evenodd" clip-rule="evenodd" d="M10.3233 13.007C10.3244 13.7159 10.3306 14.4252 10.3441 15.1343L10.3712 15.9098C10.3908 16.821 10.4076 17.7337 10.4605 18.6413C10.4729 18.8423 10.4894 19.0439 10.5137 19.2415L10.534 19.3884L10.5457 19.4601L10.5536 19.4993C10.5615 19.5201 10.5607 19.5509 10.5845 19.5591C10.607 19.567 10.631 19.5677 10.6537 19.5695C10.6623 19.5684 10.6915 19.5717 10.7237 19.5706L10.815 19.5692L11.0016 19.5573C11.1271 19.5474 11.2535 19.5326 11.3798 19.5178C11.6317 19.4828 11.8898 19.4695 12.1404 19.4404C12.2886 19.4228 12.2976 19.4914 12.1787 19.6006C12.0594 19.7033 11.8247 19.8527 11.5243 19.9085C11.2561 19.9495 10.9923 19.9863 10.6981 19.989L10.6312 19.9868C10.5973 19.9854 10.5637 19.9835 10.532 19.9791C10.4713 19.9638 10.4058 19.9543 10.352 19.9285C10.3297 19.9098 10.2929 19.9076 10.283 19.8754C10.2618 19.8538 10.2375 19.8372 10.2208 19.813C10.1881 19.7638 10.1683 19.7022 10.1531 19.64L10.1341 19.5441L10.1261 19.4883L10.1131 19.3837L10.0933 19.1799C10.0505 18.6424 10.0388 18.1126 10.0373 17.5782C10.0364 16.9399 9.99182 16.2784 9.97726 15.6268C9.96116 14.9109 9.95388 14.1945 9.94969 13.4781L9.94727 12.1556C9.94947 11.4875 9.95631 10.8178 9.98101 10.1506C9.99072 10.0154 9.98344 9.91197 10.0209 9.70927C10.0313 9.66582 10.0434 9.62435 10.067 9.59127C10.1001 9.5648 10.1332 9.54495 10.1762 9.53988C10.255 9.52642 10.3727 9.5423 10.44 9.54804C10.6959 9.57384 10.9442 9.59656 11.191 9.6034C11.2993 9.60583 11.4041 9.60472 11.5095 9.60075C11.903 9.58377 11.9729 9.54627 12.0949 9.57318C12.122 9.57781 12.1538 9.57296 12.1779 9.57781C12.2167 9.58311 12.2222 9.63362 12.1629 9.71236C12.104 9.79132 11.974 9.87359 11.8064 9.91749C11.3123 10.0401 10.8141 9.95101 10.3672 9.90866C10.3606 9.72052 10.333 10.4334 10.3313 10.8642C10.3242 11.5739 10.3244 12.2908 10.3328 13.0059L10.3233 13.007Z" fill="#2458A4"/>
<path id="Fill 11" fill-rule="evenodd" clip-rule="evenodd" d="M12.267 14.2783L12.2506 15.4341C12.2498 15.5748 12.2597 15.7151 12.2577 15.8556C12.2515 16.3508 12.2451 16.847 12.2389 17.3422C12.2374 17.5619 12.2456 17.7829 12.2566 18.0004L12.2809 18.4201C12.2831 18.5571 12.2756 18.7075 12.2614 18.8326C12.259 18.8485 12.2526 18.8615 12.244 18.8718C12.235 18.8822 12.2345 18.8864 12.1807 18.9034L12.2078 18.8941L12.2028 18.8948L12.1926 18.895C12.1853 18.8948 12.1778 18.893 12.1699 18.8902C12.1538 18.8842 12.1359 18.8729 12.117 18.8542C12.0433 18.7768 11.9544 18.6475 11.9299 18.4848C11.8898 17.9117 11.8752 17.3398 11.9081 16.761C11.9266 16.4152 11.8999 16.0565 11.8975 15.7032L11.8968 14.5379L11.898 13.8207C11.8964 13.4587 11.9017 13.0948 11.8916 12.7355C11.8832 12.456 11.8541 12.1823 11.836 11.9048C11.8324 11.8435 11.8254 11.7835 11.8238 11.7218C11.817 11.4937 11.851 11.4152 11.9566 11.373C11.9809 11.3631 12.0054 11.3497 12.0296 11.3446C12.1121 11.3283 12.1763 11.4233 12.1944 11.5843C12.2559 12.0722 12.2707 12.5919 12.2753 13.1126C12.2756 13.5 12.276 13.8893 12.2762 14.2777L12.267 14.2783Z" fill="#2458A4"/>
<path id="Fill 13" fill-rule="evenodd" clip-rule="evenodd" d="M15.2747 11.0535C15.2791 11.9113 15.2906 12.7693 15.31 13.6273L15.3439 14.5656C15.3711 15.6686 15.3986 16.7721 15.4544 17.873C15.4796 18.3602 15.5215 18.8545 15.5822 19.3252C15.5903 19.3823 15.5925 19.3891 15.5983 19.4134C15.6029 19.4337 15.6088 19.4588 15.6346 19.4591C15.6496 19.4617 15.6642 19.4626 15.6785 19.4637L15.7368 19.4643C15.7981 19.4643 15.8607 19.4626 15.9245 19.4586C16.0517 19.4507 16.1805 19.4396 16.31 19.426C16.5683 19.401 16.8308 19.3807 17.0875 19.3508C17.2673 19.3263 17.2726 19.3962 17.1248 19.5111C16.9764 19.6176 16.6887 19.7753 16.3224 19.8316C16.1931 19.849 16.0628 19.8631 15.9282 19.8722C15.8616 19.877 15.7917 19.879 15.7209 19.8799C15.6982 19.8788 15.6066 19.8779 15.5522 19.8691C15.4928 19.8554 15.4346 19.8411 15.377 19.8225C15.3559 19.8045 15.3256 19.7963 15.312 19.77C15.2892 19.7517 15.2676 19.7341 15.2546 19.7081C15.2251 19.6591 15.2094 19.5978 15.1953 19.5369L15.1768 19.4436L15.1679 19.3885L15.1534 19.2886C15.1359 19.1569 15.1203 19.0278 15.1115 18.8984C15.0912 18.6401 15.0768 18.3829 15.0647 18.1255C15.0409 17.6111 15.0288 17.0963 15.0246 16.5796C15.0186 15.8085 14.9677 15.0085 14.9474 14.2208C14.9251 13.3551 14.9116 12.4887 14.9035 11.6223C14.9008 11.089 14.8982 10.5555 14.8958 10.0228C14.8958 9.21507 14.9052 8.40405 14.9332 7.59965C14.9405 7.40489 14.9485 7.21167 14.9641 7.01691L14.9778 6.87002L14.9873 6.79568C14.9919 6.76084 14.9992 6.72554 15.006 6.69092C15.0206 6.62122 15.0438 6.55549 15.0815 6.50454C15.1212 6.4441 15.1856 6.44366 15.2511 6.44432C15.4542 6.47432 15.5356 6.48513 15.6556 6.4988C15.7694 6.5116 15.8828 6.52218 15.9962 6.5299C16.1278 6.5385 16.2562 6.54292 16.3863 6.54446C16.6276 6.546 16.7759 6.53542 16.8729 6.52483C16.9691 6.5127 17.0163 6.51248 17.0798 6.5074C17.1094 6.50564 17.14 6.48689 17.1649 6.47917C17.1861 6.47322 17.2002 6.48028 17.2051 6.50763C17.2106 6.53475 17.2029 6.5846 17.166 6.6382C17.0924 6.75245 16.9214 6.83517 16.722 6.87354C16.4704 6.92185 16.2242 6.9181 15.9787 6.90597C15.8563 6.89759 15.7341 6.88501 15.6119 6.86957C15.5061 6.85722 15.3128 6.82458 15.3545 6.83539C15.3481 6.83384 15.3464 6.84222 15.3475 6.84774C15.3466 6.85568 15.3499 6.84068 15.3464 6.86649L15.334 6.98052C15.3195 7.13646 15.312 7.29946 15.3049 7.46334C15.291 7.79154 15.2846 8.1257 15.2804 8.4603C15.2709 9.32006 15.2723 10.1871 15.2842 11.0524L15.2747 11.0535Z" fill="#2458A4"/>
<path id="Fill 15" fill-rule="evenodd" clip-rule="evenodd" d="M17.2555 12.314L17.2365 13.9442L17.2423 14.5385C17.2345 15.2372 17.2268 15.9364 17.2189 16.6345C17.2165 16.9446 17.224 17.256 17.2341 17.5633C17.2418 17.7605 17.2493 17.9586 17.2568 18.1562C17.2584 18.3507 17.2502 18.5592 17.2356 18.7409C17.2332 18.7654 17.2266 18.7841 17.218 18.7985C17.2138 18.8055 17.209 18.8115 17.2037 18.8159L17.1953 18.8214C17.2041 18.819 17.16 18.8335 17.156 18.8349C17.1457 18.8386 17.1454 18.8386 17.1558 18.8351C17.2019 18.8196 17.1734 18.8285 17.1768 18.8263C17.1732 18.8265 17.1699 18.826 17.1664 18.8254C17.1593 18.8238 17.1516 18.8205 17.1437 18.8155C17.1276 18.8053 17.1097 18.7879 17.0907 18.761C17.0175 18.6511 16.9293 18.4659 16.9055 18.2367C16.8675 17.429 16.855 16.6226 16.8898 15.8078C16.9097 15.3208 16.8841 14.8146 16.8825 14.3168L16.8847 12.674L16.8874 11.6632C16.8863 11.1528 16.8922 10.6402 16.8816 10.1335C16.8739 9.73982 16.8441 9.35383 16.8258 8.96409C16.8214 8.87828 16.815 8.79381 16.8135 8.7069C16.8066 8.38642 16.8395 8.27746 16.9465 8.2146C16.9707 8.20004 16.9955 8.18063 17.0197 8.17291C17.1029 8.14843 17.1646 8.27879 17.184 8.50862C17.2469 9.20031 17.2606 9.93369 17.2654 10.6693C17.2652 11.2158 17.265 11.7653 17.2648 12.3134L17.2555 12.314Z" fill="#2458A4"/>
<path id="Fill 17" fill-rule="evenodd" clip-rule="evenodd" d="M5.18546 17.0156L5.20729 16.4419L5.2406 15.8678C5.24722 15.728 5.23001 15.5894 5.23905 15.4498C5.26993 14.9571 5.30787 14.4639 5.32287 13.9718C5.32794 13.7535 5.31537 13.5349 5.30809 13.3189C5.29795 13.0417 5.24633 12.7655 5.33522 12.4834C5.3597 12.3956 5.46139 12.4001 5.58667 12.4653C5.64953 12.4982 5.72011 12.5459 5.78584 12.6054C5.8551 12.6647 5.90583 12.7358 5.91796 12.8156C5.96736 13.0986 6.01743 13.3805 6.03309 13.665C6.04103 13.9498 6.03353 14.2356 6.00442 14.5239C5.96869 14.8686 6.0278 15.2229 6.03728 15.5731C6.04567 15.9585 6.05074 16.344 6.03993 16.7302L6.02956 17.4429C6.02978 17.8024 6.01699 18.1639 6.04081 18.5201C6.05802 18.7971 6.13235 19.0671 6.16874 19.3424C6.17646 19.403 6.19168 19.4621 6.19433 19.5235C6.20624 19.6366 6.16411 19.7138 6.12397 19.7667C6.07875 19.8199 6.01258 19.8506 5.91421 19.875C5.86943 19.8863 5.82576 19.9008 5.78253 19.9072C5.63828 19.9286 5.5077 19.8371 5.42124 19.6768C5.31272 19.4372 5.26111 19.19 5.23001 18.9376C5.19803 18.6855 5.18391 18.4286 5.17465 18.1707C5.16075 17.7878 5.16803 17.4018 5.16406 17.0169L5.18546 17.0156Z" fill="#2458A4"/>
<path id="Fill 19" fill-rule="evenodd" clip-rule="evenodd" d="M10.1264 15.895L10.146 15.1405L10.1762 14.3857C10.1824 14.202 10.1674 14.0191 10.1754 13.8356C10.2034 13.1885 10.2378 12.5409 10.251 11.8942C10.2561 11.6072 10.2442 11.3194 10.238 11.0351C10.2283 10.6703 10.1833 10.3046 10.2572 9.93909C10.2775 9.82506 10.3672 9.83322 10.4791 9.92321C10.5353 9.96821 10.5986 10.0342 10.6573 10.1153C10.7186 10.1958 10.7643 10.2913 10.7753 10.397C10.8203 10.7708 10.8646 11.1432 10.8785 11.5175C10.8849 11.892 10.8785 12.2676 10.8523 12.6452C10.8205 13.0969 10.8719 13.5645 10.8801 14.0251C10.8869 14.5317 10.8907 15.0388 10.8809 15.5459L10.8712 16.482C10.8712 16.9542 10.86 17.4293 10.8821 17.8976C10.8973 18.2617 10.9637 18.6177 10.9974 18.9781C11.004 19.0575 11.0177 19.1352 11.0203 19.2154C11.0312 19.3639 10.9956 19.4631 10.9597 19.5331C10.9198 19.6025 10.8615 19.6427 10.7749 19.6747C10.7354 19.6894 10.6968 19.7086 10.6586 19.717C10.5316 19.7452 10.416 19.6248 10.3392 19.412C10.1504 18.7747 10.1405 18.0972 10.1167 17.4169C10.1043 16.9116 10.1105 16.4032 10.1074 15.8961L10.1264 15.895Z" fill="#2458A4"/>
<path id="Fill 21" fill-rule="evenodd" clip-rule="evenodd" d="M15.0695 14.6081L15.0907 13.6217L15.1225 12.6353C15.1291 12.3953 15.1145 12.1558 15.1229 11.9161C15.1522 11.0706 15.1882 10.2247 15.2032 9.37954C15.2087 9.00458 15.1977 8.62785 15.1919 8.2562C15.1829 7.77933 15.139 7.29894 15.2113 6.82384C15.2308 6.67606 15.3207 6.68775 15.4332 6.8084C15.4895 6.86817 15.5545 6.95772 15.6123 7.06404C15.6737 7.17035 15.7193 7.29651 15.7308 7.43481C15.7747 7.92336 15.8186 8.41081 15.8316 8.90003C15.8371 9.38947 15.8298 9.88 15.8027 10.373C15.7698 10.9625 15.8201 11.5744 15.8272 12.1768C15.8329 12.8389 15.8355 13.5013 15.8247 14.1638L15.8135 15.3871C15.8128 16.0042 15.8007 16.6247 15.8223 17.237C15.8371 17.7132 15.9037 18.179 15.9374 18.6497C15.9445 18.7532 15.9582 18.8548 15.9608 18.9596C15.9619 19.3474 15.8839 19.4744 15.716 19.5576C15.6765 19.5765 15.6381 19.6017 15.6 19.6125C15.4727 19.6493 15.3576 19.4927 15.2799 19.2119C15.0898 18.3751 15.0806 17.4884 15.0574 16.5982C15.0457 15.937 15.0528 15.2724 15.0506 14.6092L15.0695 14.6081Z" fill="#2458A4"/>
<path id="Fill 23" fill-rule="evenodd" clip-rule="evenodd" d="M22.7722 19.6818C22.7821 19.678 22.7945 19.6718 22.8084 19.6626C22.8152 19.6579 22.8227 19.6526 22.8302 19.6462C22.8415 19.6381 22.8415 19.6348 22.8348 19.6334L22.798 19.614L22.7718 19.6012C22.7793 19.6021 22.7027 19.5779 22.6635 19.5649C22.53 19.5227 22.3937 19.4888 22.2618 19.4413C21.798 19.2711 21.3484 19.0714 20.9 18.8698C20.6991 18.7829 20.4979 18.696 20.2988 18.6098C20.0429 18.4949 19.7818 18.3828 19.5691 18.1462C19.5036 18.0681 19.5824 18.0284 19.6924 18.0088C19.7983 17.9907 19.9437 17.9739 20.0802 18.0326C20.5663 18.2392 21.0725 18.4739 21.58 18.7106C21.8835 18.8562 22.2223 18.9464 22.5466 19.0523C22.6118 19.0745 22.6778 19.0953 22.7442 19.1149L22.8434 19.1451C22.8626 19.1506 22.8701 19.1544 22.8992 19.1614L22.9842 19.1819C23.1006 19.2075 23.2012 19.2406 23.3256 19.2594L23.6776 19.3187L23.6662 19.3796L23.5991 19.4709C23.5543 19.5333 23.5109 19.5854 23.4672 19.6423C23.4136 19.7067 23.3591 19.7706 23.3007 19.8331L23.1083 20.0152C22.997 20.1108 22.9178 20.1734 22.8203 20.2515C22.5373 20.4745 22.2437 20.6794 21.9676 20.8988C21.7512 21.0673 21.5575 21.2555 21.3559 21.4355C21.3116 21.4752 21.2715 21.5177 21.2254 21.5559C21.0544 21.6971 20.9797 21.7152 20.8614 21.6439C20.8347 21.6278 20.8052 21.6139 20.782 21.5949C20.7031 21.531 20.7229 21.4099 20.8328 21.2831C21.1616 20.9116 21.5545 20.5761 21.9656 20.2762L22.4189 19.9411L22.639 19.7724L22.7448 19.6864C22.7632 19.6714 22.7548 19.6806 22.7607 19.676L22.7722 19.6818Z" fill="#2458A4"/>
<path id="Fill 25" fill-rule="evenodd" clip-rule="evenodd" d="M13.6783 5.74693C12.9579 6.12807 12.21 6.45142 11.4486 6.72999C11.1692 6.82749 10.8956 6.93997 10.6158 7.03416C9.61703 7.33346 8.60419 7.56969 7.58032 7.72982L6.89679 7.82819C6.66894 7.85907 6.43977 7.8787 6.21281 7.90142C5.92078 7.92502 5.62699 7.94311 5.33275 7.94576C5.03785 7.94576 4.74384 7.93914 4.44784 7.87363C4.26278 7.8293 4.30315 7.80415 4.45997 7.78187C4.53673 7.77416 4.64525 7.75298 4.77626 7.72982C4.90551 7.71394 5.05726 7.69166 5.22203 7.67997C5.51295 7.66828 5.80542 7.62218 6.09591 7.59307L6.53109 7.52756C6.67666 7.51058 6.82223 7.49293 6.96693 7.46624C7.54746 7.3778 8.126 7.26597 8.70543 7.14135C9.39845 6.99026 10.0985 6.7483 10.7752 6.4909C11.1447 6.3418 11.5236 6.21541 11.8818 6.0394C12.2415 5.86846 12.6154 5.7251 12.9621 5.52769L13.6137 5.18405C13.8343 5.07487 14.0339 4.93017 14.2443 4.80423C14.8857 4.42618 15.483 3.97314 16.0613 3.51502C16.2744 3.32225 16.4793 3.12462 16.6813 2.92633L16.9846 2.63055C17.0863 2.53284 17.1738 2.42013 17.27 2.31669C17.3532 2.22361 17.4304 2.12876 17.5162 2.03745C17.8347 1.69866 17.9668 1.62058 18.1512 1.6508C18.1933 1.65786 18.2403 1.65918 18.2758 1.67285C18.3958 1.71895 18.3345 1.92342 18.1176 2.20133C17.7925 2.60872 17.4615 3.0386 17.0494 3.39614C16.8487 3.58031 16.644 3.76338 16.4369 3.94557C16.2276 4.12467 15.9973 4.2795 15.7766 4.44647L15.2772 4.80953C15.1093 4.92907 14.9283 5.02855 14.754 5.13861C14.4 5.34991 14.057 5.57908 13.6858 5.75818L13.6783 5.74693Z" fill="#2458A4"/>
<path id="Fill 27" fill-rule="evenodd" clip-rule="evenodd" d="M19.0387 0.786759L19.044 0.756542L19.0492 0.74022C19.0532 0.726986 19.0548 0.715737 19.0576 0.699636C19.0601 0.68177 19.0409 0.696548 19.029 0.696989C19.01 0.704268 19.0076 0.7014 18.9668 0.722134C18.8598 0.780142 18.7557 0.847195 18.6434 0.90013C18.2457 1.08496 17.8218 1.21708 17.3937 1.28259C17.204 1.31347 17.0145 1.34457 16.8266 1.36751C16.586 1.40258 16.3411 1.41912 16.0992 1.38361C16.0237 1.37258 16.0343 1.3031 16.0961 1.22855C16.1576 1.15444 16.2683 1.07129 16.4 1.05298C16.8692 0.988578 17.3202 0.909394 17.7801 0.813227C18.0574 0.75588 18.3181 0.618468 18.575 0.484584L18.7374 0.39724L18.9778 0.26115C19.066 0.210861 19.1518 0.164322 19.2354 0.12087C19.3161 0.0809478 19.4108 0.0229389 19.4805 0L19.4518 0.394372L19.4213 0.84168L19.3971 1.14915C19.3706 1.46059 19.3161 1.77401 19.24 2.08038C19.1796 2.31771 19.1163 2.55548 19.0129 2.78266C18.9917 2.83339 18.9707 2.88324 18.9425 2.9311C18.8419 3.11086 18.7709 3.14196 18.6619 3.11153C18.6366 3.10403 18.6097 3.09895 18.5867 3.08793C18.5095 3.04999 18.4989 2.94522 18.5563 2.82567C18.7138 2.46108 18.8532 2.09251 18.9264 1.6827C18.9535 1.53095 18.978 1.37699 18.9937 1.21863C19.0036 1.14033 19.0089 1.0596 19.0164 0.979975L19.029 0.788524L19.0387 0.786759Z" fill="#2458A4"/>
</g>
</svg>
