<svg width="39" height="21" viewBox="0 0 39 21" fill="none" xmlns="http://www.w3.org/2000/svg">
<g id="Payment methods" clip-path="url(#clip0_469_7475)">
<path id="Vector" d="M7.34029 5.02122C6.90051 5.51732 6.19671 5.90875 5.49298 5.85278C5.40502 5.182 5.74952 4.46915 6.15273 4.02888C6.59251 3.5188 7.36228 3.15539 7.98538 3.12744C8.05868 3.82624 7.77275 4.51107 7.34029 5.02122ZM7.97805 5.98561C6.95907 5.92971 6.08676 6.53761 5.60292 6.53761C5.11183 6.53761 4.37138 6.01356 3.56503 6.02753C2.51681 6.04151 1.5418 6.60748 1.00666 7.50899C-0.0929493 9.31192 0.720799 11.9814 1.78369 13.4489C2.30417 14.1757 2.92727 14.9723 3.74828 14.9443C4.52538 14.9164 4.83323 14.4622 5.77158 14.4622C6.71719 14.4622 6.98847 14.9443 7.80947 14.9304C8.65979 14.9164 9.19494 14.2037 9.71542 13.4769C10.3091 12.6523 10.5511 11.8486 10.5657 11.8067C10.5511 11.7927 8.92374 11.1988 8.90908 9.40975C8.89442 7.91432 10.1919 7.20154 10.2506 7.15962C9.51745 6.12535 8.37393 6.01356 7.97805 5.98561ZM13.8646 3.959V14.8536H15.6385V11.1289H18.0943C20.3374 11.1289 21.9135 9.66143 21.9135 7.537C21.9135 5.41265 20.3667 3.95907 18.1529 3.95907H13.8645L13.8646 3.959ZM15.6385 5.38463H17.6837C19.2232 5.38463 20.1028 6.16728 20.1028 7.54392C20.1028 8.92056 19.2232 9.71027 17.6764 9.71027H15.6385V5.38463ZM25.1536 14.9374C26.2679 14.9374 27.3015 14.3993 27.7706 13.5467H27.8073V14.8535H29.4494V9.43071C29.4494 7.85842 28.1299 6.84512 26.0992 6.84512C24.2153 6.84512 22.8225 7.8724 22.7712 9.28398H24.3693C24.5012 8.61312 25.1536 8.17285 26.0479 8.17285C27.1329 8.17285 27.7413 8.65505 27.7413 9.54258V10.1435L25.5274 10.2693C23.4676 10.388 22.3534 11.1917 22.3534 12.5894C22.3534 14.001 23.5042 14.9374 25.1536 14.9374ZM25.6301 13.6446C24.6845 13.6446 24.0833 13.2113 24.0833 12.5474C24.0833 11.8626 24.6625 11.4643 25.7694 11.4014L27.7413 11.2826V11.8975C27.7413 12.9178 26.8324 13.6446 25.6301 13.6446H25.6301ZM31.6412 17.8165C33.3712 17.8165 34.1849 17.1876 34.896 15.2798L38.0115 6.94993H36.2081L34.1189 13.386H34.0823L31.9931 6.94993H30.1384L33.1439 14.8815L32.9827 15.3636C32.7115 16.1812 32.2716 16.4957 31.4873 16.4957C31.348 16.4957 31.0768 16.4818 30.9668 16.4678V17.7746C31.0694 17.8025 31.5092 17.8165 31.6412 17.8165Z" fill="white"/>
</g>
<defs>
<clipPath id="clip0_469_7475">
<rect width="37.5283" height="20.1044" fill="white" transform="translate(0.483154 0.447754)"/>
</clipPath>
</defs>
</svg>
