<svg width="39" height="21" viewBox="0 0 39 21" fill="none" xmlns="http://www.w3.org/2000/svg">
<g id="Payment methods" clip-path="url(#clip0_469_7468)">
<path id="Vector" d="M11.1549 20.4528V19.1221C11.1549 18.612 10.8491 18.2794 10.325 18.2794C10.063 18.2794 9.77905 18.3681 9.58249 18.6564C9.42969 18.4124 9.21135 18.2794 8.88377 18.2794C8.66533 18.2794 8.44708 18.3459 8.2723 18.5898V18.3237H7.81372V20.4528H8.2723V19.2773C8.2723 18.9004 8.46886 18.7229 8.77465 18.7229C9.08024 18.7229 9.23323 18.9225 9.23323 19.2773V20.4528H9.69181V19.2773C9.69181 18.9004 9.91006 18.7229 10.194 18.7229C10.4997 18.7229 10.6525 18.9225 10.6525 19.2773V20.4528H11.1549ZM17.9462 18.3237H17.2038V17.6806H16.7452V18.3237H16.3303V18.745H16.7451V19.7209C16.7451 20.2089 16.9417 20.4971 17.4658 20.4971C17.6624 20.4971 17.8806 20.4307 18.0336 20.342L17.9025 19.9427C17.7715 20.0314 17.6187 20.0536 17.5095 20.0536C17.2911 20.0536 17.2038 19.9206 17.2038 19.6987V18.745H17.9462V18.3237ZM21.8332 18.2793C21.5712 18.2793 21.3966 18.4124 21.2873 18.5898V18.3237H20.8287V20.4528H21.2873V19.2552C21.2873 18.9004 21.4401 18.7008 21.724 18.7008C21.8114 18.7008 21.9206 18.723 22.0079 18.7451L22.1389 18.3016C22.0516 18.2794 21.9206 18.2794 21.8332 18.2794V18.2793ZM15.959 18.5011C15.7406 18.3459 15.4349 18.2794 15.1073 18.2794C14.5833 18.2794 14.2339 18.5455 14.2339 18.9669C14.2339 19.3218 14.496 19.5213 14.9545 19.5879L15.1729 19.6101C15.4131 19.6544 15.5441 19.7209 15.5441 19.8319C15.5441 19.987 15.3695 20.098 15.0637 20.098C14.758 20.098 14.5177 19.987 14.3649 19.8762L14.1465 20.231C14.3867 20.4084 14.7143 20.4971 15.0418 20.4971C15.6533 20.4971 16.0027 20.2089 16.0027 19.8096C16.0027 19.4326 15.7188 19.233 15.282 19.1665L15.0637 19.1443C14.8671 19.122 14.7143 19.0778 14.7143 18.9447C14.7143 18.7895 14.8671 18.7008 15.1073 18.7008C15.3695 18.7008 15.6315 18.8116 15.7625 18.8782L15.959 18.5011ZM28.1443 18.2794C27.8821 18.2794 27.7075 18.4124 27.5982 18.5898V18.3237H27.1397V20.4528H27.5982V19.2552C27.5982 18.9004 27.7511 18.7008 28.0349 18.7008C28.1224 18.7008 28.2316 18.723 28.3189 18.7451L28.4499 18.3016C28.3626 18.2794 28.2316 18.2794 28.1443 18.2794ZM22.2918 19.3883C22.2918 20.0314 22.7285 20.4971 23.4056 20.4971C23.7112 20.4971 23.9296 20.4307 24.1479 20.2532L23.9296 19.8762C23.7549 20.0093 23.5802 20.0757 23.3837 20.0757C23.0124 20.0757 22.7504 19.8096 22.7504 19.3883C22.7504 18.9891 23.0124 18.7229 23.3837 18.7008C23.5802 18.7008 23.7549 18.7672 23.9296 18.9004L24.1479 18.5234C23.9296 18.3459 23.7112 18.2794 23.4056 18.2794C22.7285 18.2794 22.2918 18.7451 22.2918 19.3883ZM26.5283 19.3883V18.3237H26.0697V18.5898C25.9168 18.3903 25.6985 18.2794 25.4146 18.2794C24.825 18.2794 24.3664 18.7451 24.3664 19.3883C24.3664 20.0314 24.825 20.4971 25.4146 20.4971C25.7202 20.4971 25.9387 20.3863 26.0697 20.1867V20.4528H26.5283V19.3883ZM24.8468 19.3883C24.8468 19.0112 25.087 18.7008 25.48 18.7008C25.8512 18.7008 26.1134 18.9891 26.1134 19.3883C26.1134 19.7653 25.8512 20.0757 25.48 20.0757C25.087 20.0535 24.8468 19.7653 24.8468 19.3883ZM19.3657 18.2794C18.7542 18.2794 18.3174 18.7229 18.3174 19.3883C18.3174 20.0536 18.7541 20.4971 19.3875 20.4971C19.6931 20.4971 19.9989 20.4084 20.2392 20.2089L20.0207 19.8762C19.846 20.0093 19.6277 20.098 19.4093 20.098C19.1254 20.098 18.8415 19.9649 18.776 19.5878H20.3265V19.4105C20.3484 18.7229 19.9554 18.2794 19.3657 18.2794ZM19.3657 18.6785C19.6495 18.6785 19.8461 18.856 19.8897 19.1887H18.7979C18.8415 18.9004 19.0381 18.6785 19.3657 18.6785ZM30.7428 19.3883V17.481H30.2843V18.5898C30.1314 18.3903 29.913 18.2794 29.6291 18.2794C29.0395 18.2794 28.5809 18.7451 28.5809 19.3883C28.5809 20.0314 29.0395 20.4971 29.6291 20.4971C29.9349 20.4971 30.1533 20.3863 30.2843 20.1867V20.4528H30.7428V19.3883ZM29.0614 19.3883C29.0614 19.0112 29.3015 18.7008 29.6947 18.7008C30.0659 18.7008 30.3279 18.9891 30.3279 19.3883C30.3279 19.7653 30.0659 20.0757 29.6947 20.0757C29.3015 20.0535 29.0614 19.7653 29.0614 19.3883ZM13.7316 19.3883V18.3237H13.273V18.5898C13.1201 18.3903 12.9018 18.2794 12.6179 18.2794C12.0283 18.2794 11.5697 18.7451 11.5697 19.3883C11.5697 20.0314 12.0283 20.4971 12.6179 20.4971C12.9237 20.4971 13.142 20.3863 13.273 20.1867V20.4528H13.7316V19.3883ZM12.0283 19.3883C12.0283 19.0112 12.2685 18.7008 12.6615 18.7008C13.0328 18.7008 13.2949 18.9891 13.2949 19.3883C13.2949 19.7653 13.0328 20.0757 12.6615 20.0757C12.2685 20.0535 12.0283 19.7653 12.0283 19.3883Z" fill="white"/>
<path id="Vector_2" d="M15.8074 2.15479H22.6861V14.7075H15.8074V2.15479Z" fill="#EAEAEA"/>
<path id="Vector_3" d="M16.2437 8.43185C16.2437 5.88141 17.4229 3.6192 19.2354 2.15542C17.9034 1.09089 16.222 0.447754 14.3876 0.447754C10.0419 0.447754 6.52612 4.01836 6.52612 8.43185C6.52612 12.8452 10.0419 16.4159 14.3875 16.4159C16.2219 16.4159 17.9033 15.7728 19.2354 14.7082C17.4229 13.2666 16.2437 10.9823 16.2437 8.43185Z" fill="white"/>
<path id="Vector_4" d="M31.9668 8.43185C31.9668 12.8452 28.4511 16.4159 24.1054 16.4159C22.2711 16.4159 20.5896 15.7728 19.2576 14.7082C21.0919 13.2445 22.2493 10.9823 22.2493 8.43185C22.2493 5.88141 21.07 3.6192 19.2576 2.15542C20.5895 1.09089 22.2711 0.447754 24.1054 0.447754C28.4511 0.447754 31.9668 4.04059 31.9668 8.43185Z" fill="#CCCCCC"/>
</g>
<defs>
<clipPath id="clip0_469_7468">
<rect width="37.5283" height="20.1044" fill="white" transform="translate(0.494385 0.447754)"/>
</clipPath>
</defs>
</svg>
