<svg width="39" height="21" viewBox="0 0 39 21" fill="none" xmlns="http://www.w3.org/2000/svg">
<g id="Payment methods" clip-path="url(#clip0_469_7473)">
<path id="Vector" fill-rule="evenodd" clip-rule="evenodd" d="M7.23152 10.989L5.89355 8.06114L4.56375 10.989H7.23152ZM20.0548 14.1572L20.0466 8.40714L17.214 14.1572H15.5008L12.6584 8.40128V14.1572H8.68697L7.9364 12.5196H3.86866L3.10993 14.1572H0.98877L4.48706 6.81494H7.38816L10.7102 13.7673V6.81494H13.8985L16.4553 11.7953L18.8033 6.81494H22.0568V14.1572H20.0548ZM25.1668 12.6559V11.1942H29.4548V9.69586H25.1668V8.36023H30.0634L32.2009 10.5008L29.9688 12.6559H25.1668ZM38.4012 14.1866H35.8623L33.4573 11.7543L30.9576 14.1866H23.2202V6.84133H31.0767L33.4801 9.24869L35.9651 6.84133H38.5171L34.7202 10.514L38.4012 14.1866Z" fill="white"/>
</g>
<defs>
<clipPath id="clip0_469_7473">
<rect width="37.5283" height="20.1044" fill="white" transform="translate(0.98877 0.447754)"/>
</clipPath>
</defs>
</svg>
