<svg width="39" height="21" viewBox="0 0 39 21" fill="none" xmlns="http://www.w3.org/2000/svg">
<g id="Payment methods" clip-path="url(#clip0_469_7477)">
<g id="Vector">
<path d="M27.5784 7.28735C28.6101 7.28735 29.4073 7.57741 30.017 8.15753C30.6266 8.73757 30.908 9.51104 30.908 10.4779V15.1185H29.5949V14.0551H29.548C28.9853 14.9253 28.188 15.3604 27.2501 15.3604C26.4529 15.3604 25.7494 15.1186 25.1867 14.6352C24.6709 14.1518 24.3426 13.4751 24.3426 12.75C24.3426 11.9765 24.624 11.348 25.1867 10.8646C25.7494 10.3812 26.5467 10.1879 27.4846 10.1879C28.3287 10.1879 28.9853 10.3329 29.5011 10.6713V10.3329C29.5011 9.88172 29.3377 9.43057 29.0109 9.13658L28.9383 9.07606C28.5632 8.73765 28.0942 8.5443 27.5784 8.5443C26.7812 8.5443 26.1716 8.88271 25.7494 9.55947L24.5302 8.78585C25.2805 7.77068 26.2653 7.28735 27.5784 7.28735ZM20.9661 4.00021C21.8076 4.00021 22.6072 4.30206 23.2466 4.86495L23.3578 4.96695C24.0143 5.54707 24.3426 6.41725 24.3426 7.33571C24.3426 8.25417 24.0143 9.07599 23.3578 9.70439C22.7012 10.3329 21.904 10.6712 20.9661 10.6712L18.7152 10.6228V15.1186H17.3082V4.00014L20.9661 4.00021ZM27.7659 11.348C27.2032 11.348 26.7343 11.493 26.3591 11.7831C25.9839 12.0248 25.7963 12.3631 25.7963 12.7982C25.7963 13.1849 25.984 13.5233 26.2653 13.7167C26.5936 13.9584 26.9687 14.1034 27.344 14.1034C27.8691 14.1034 28.3944 13.8928 28.8052 13.511L28.8915 13.4266C29.3604 12.9916 29.5949 12.4598 29.5949 11.8797C29.1729 11.5414 28.5631 11.348 27.7659 11.348ZM21.0599 5.35372H18.7152V9.22105H21.0599C21.5757 9.22105 22.0916 9.02771 22.4199 8.64101C23.1702 7.9159 23.1702 6.70738 22.4668 5.9822L22.4199 5.93384C22.0447 5.54715 21.5758 5.30537 21.0599 5.35372ZM38.5051 7.52906L33.8624 18.5024H32.4556L34.1907 14.6835L31.1424 7.57741H32.6431L34.8472 13.0399H34.8941L37.0513 7.57741H38.5051V7.52906Z" fill="white"/>
<path d="M13.1344 9.65602C13.1344 9.22097 13.0875 8.78592 13.0406 8.35087H7.17876V10.8163H10.5083C10.3676 11.5896 9.94559 12.3148 9.28907 12.7499V14.3451H11.3056C12.478 13.2333 13.1344 11.5896 13.1344 9.65602Z" fill="white"/>
<path d="M7.17978 15.8919C8.86797 15.8919 10.2748 15.3118 11.3066 14.345L9.29008 12.7498C8.72731 13.1365 8.02387 13.3782 7.17978 13.3782C5.58527 13.3782 4.17839 12.2664 3.70944 10.7195H1.64611V12.363C2.72468 14.5384 4.83499 15.8919 7.17978 15.8919Z" fill="white"/>
<path d="M3.70944 10.7195C3.42812 9.94599 3.42759 9.07593 3.7089 8.25411V6.61054H1.64558C0.754504 8.39918 0.755035 10.5261 1.64611 12.363L3.70944 10.7195Z" fill="white"/>
<path d="M7.17875 5.64378C8.06975 5.64378 8.91385 5.9822 9.57045 6.6106L11.3525 4.77368C10.2269 3.71015 8.72628 3.08176 7.22559 3.13004C4.8808 3.13004 2.72366 4.48362 1.69192 6.65895L3.75532 8.30252C4.17737 6.75559 5.58424 5.64378 7.17875 5.64378Z" fill="white"/>
</g>
</g>
<defs>
<clipPath id="clip0_469_7477">
<rect width="37.5283" height="20.1044" fill="white" transform="translate(0.977539 0.447754)"/>
</clipPath>
</defs>
</svg>
