<svg width="38" height="21" viewBox="0 0 38 21" fill="none" xmlns="http://www.w3.org/2000/svg">
<g id="Payment methods" clip-path="url(#clip0_469_7465)">
<path id="Vector" d="M14.2486 4.6789L9.33516 16.1611H6.12972L3.71178 6.99723C3.56519 6.43416 3.4378 6.22694 2.99171 5.98885C2.26255 5.60083 1.05842 5.23795 0 5.0122L0.0713917 4.6789H5.23212C5.88886 4.6789 6.48023 5.10727 6.63063 5.84898L7.90821 12.4939L11.0623 4.6789H14.2486ZM18.5819 4.6789L16.0747 16.1611H13.042L15.5495 4.6789H18.5819ZM26.8083 12.4122C26.8209 9.38233 22.5315 9.21417 22.5595 7.86043C22.5698 7.44886 22.97 7.01073 23.846 6.89872C24.2799 6.84372 25.4788 6.79992 26.8367 7.41282L27.368 4.97644C26.6383 4.71796 25.6994 4.46924 24.5315 4.46924C21.5336 4.46924 19.4249 6.02906 19.408 8.26438C19.3884 9.91783 20.9143 10.8393 22.0618 11.3901C23.2438 11.9524 23.6402 12.3138 23.6348 12.8165C23.6263 13.5869 22.6907 13.9279 21.8209 13.9406C20.2958 13.9643 19.4117 13.5368 18.7064 13.215L18.1559 15.732C18.8654 16.0505 20.1731 16.3273 21.5275 16.3413C24.7144 16.3413 26.7989 14.7993 26.8083 12.4122ZM34.7244 16.1611H37.5283L35.0787 4.6789H32.4917C31.9083 4.6789 31.4179 5.01062 31.2004 5.52056L26.6501 16.1611H29.8346L30.4662 14.4459H34.3569L34.7244 16.1611ZM31.3395 12.093L32.9362 7.78102L33.8535 12.093H31.3395Z" fill="white"/>
</g>
<defs>
<clipPath id="clip0_469_7465">
<rect width="37.5283" height="20.1044" fill="white" transform="translate(0 0.447754)"/>
</clipPath>
</defs>
</svg>
