<svg width="144" height="52" viewBox="0 0 144 52" fill="none" xmlns="http://www.w3.org/2000/svg">
<mask id="mask0_674_22280" style="mask-type:alpha" maskUnits="userSpaceOnUse" x="0" y="0" width="52" height="52">
<circle cx="25.9148" cy="25.9148" r="25.9148" fill="#D9D9D9"/>
</mask>
<g mask="url(#mask0_674_22280)">
<circle cx="26" cy="26" r="26" fill="white"/>
<path d="M40.1209 47.3097C40.0019 47.3946 39.866 47.4796 39.747 47.5646C39.6111 47.6495 39.4921 47.7345 39.3562 47.8025C39.2372 47.8705 39.1353 47.9384 39.0163 48.0064C38.9993 48.0234 38.9823 48.0234 38.9653 48.0404C38.5745 48.2783 38.1666 48.4992 37.7588 48.7031C37.6398 48.7711 37.5039 48.8391 37.3849 48.8901C37.3849 48.8901 37.3679 48.9071 37.3509 48.9071C37.215 48.975 37.079 49.043 36.9431 49.111C36.6712 49.2469 36.3823 49.3659 36.1104 49.4848C35.9745 49.5528 35.8215 49.6038 35.6856 49.6548C35.5496 49.7058 35.3967 49.7737 35.2607 49.8247C35.1248 49.8757 34.9719 49.9437 34.8359 49.9946C34.8359 49.9946 34.8359 49.9946 34.8189 49.9946C34.683 50.0456 34.53 50.0966 34.3941 50.1476C34.0882 50.2495 33.7653 50.3515 33.4594 50.4535C33.3575 50.4875 33.2385 50.5214 33.1366 50.5554C32.8137 50.6574 32.4908 50.7424 32.1679 50.8103C32.049 50.8443 31.93 50.8613 31.7941 50.8953C31.4882 50.9633 31.1653 51.0312 30.8594 51.0992C30.7915 51.1162 30.7405 51.1162 30.6725 51.1332C30.5705 51.1502 30.4516 51.1672 30.3496 51.1842C30.1967 51.2012 30.0607 51.2352 29.9078 51.2522C29.8398 51.2692 29.7719 51.2691 29.7039 51.2861C29.6189 51.3031 29.517 51.3201 29.415 51.3201C29.1431 51.3541 28.8542 51.3881 28.5823 51.4221C28.4973 51.4391 28.3954 51.4391 28.3104 51.4561H28.2934C28.1745 51.4731 28.0555 51.4731 27.9366 51.4901C27.8176 51.5071 27.6987 51.5071 27.5797 51.5071C27.5117 51.5071 27.4268 51.5241 27.3588 51.5241C27.2228 51.5241 27.1039 51.541 26.9849 51.541C26.815 51.541 26.6621 51.558 26.4921 51.558C26.3222 51.558 26.1692 51.558 25.9993 51.558C25.8804 51.558 25.7614 51.558 25.6424 51.558C18.4712 51.4561 12.0307 48.4142 7.42544 43.5881C7.42544 43.5881 7.42544 43.5711 7.40845 43.5711C6.89864 43.1123 7.34047 40.6652 9.39668 39.1188C11.9797 37.1646 18.1653 35.941 18.1653 35.941C18.1653 35.941 20.5614 35.5502 29.449 37.4025C34.649 38.4901 38.6085 40.0705 40.8176 44.3528C41.2764 45.2365 41.7353 46.5959 40.1209 47.3097Z" fill="white"/>
<path d="M29.5003 37.2157C32.7631 37.8785 36.2468 38.5922 38.9317 40.7504C39.8324 41.4811 40.4271 42.5517 40.92 43.5883C41.1579 44.0981 41.3958 44.6249 41.5827 45.1857C41.6847 45.5595 41.8376 45.9844 41.7526 46.4262C41.7356 46.5452 41.6337 46.6981 41.5487 46.7831C41.1579 47.1739 40.733 47.4118 40.3082 47.7177C37.8102 49.451 34.9383 50.6746 31.9644 51.3203C25.3369 52.7648 18.1657 51.6432 12.3369 48.1595C10.3997 46.987 8.61536 45.5595 7.08595 43.8772C6.91602 43.6733 6.91602 43.3334 6.91602 43.1125C6.93301 42.6027 7.06896 42.1099 7.23889 41.651C7.64673 40.5974 8.17353 39.5438 9.07419 38.8131C9.71994 38.3713 10.4167 37.9974 11.1304 37.6916C13.3735 36.7399 15.7356 36.0772 18.1657 35.8053C18.3696 35.7883 18.4036 36.0772 18.1997 36.1112C15.8716 36.587 13.5605 37.3007 11.4023 38.2693C10.6206 38.6602 9.78791 39.0001 9.15915 39.6118C8.56438 40.2576 8.13955 41.0563 7.79968 41.872C7.57876 42.3648 7.42582 43.1465 7.49379 43.5373C8.56438 44.8118 9.8219 45.9334 11.1814 46.902C18.6245 52.102 29.9252 52.4419 37.8441 48.1086C38.5579 47.7177 39.2546 47.2759 39.9173 46.8171C40.2402 46.5961 40.5801 46.4092 40.835 46.1543C40.852 46.1373 40.835 46.1543 40.835 46.1713C40.835 46.1883 40.818 46.2053 40.818 46.2053C40.835 46.0014 40.767 45.7295 40.682 45.4576C40.3762 44.472 39.8834 43.4354 39.3566 42.5347C38.5239 41.1922 37.1134 40.3425 35.686 39.6628C34.7003 39.204 33.6637 38.8471 32.6101 38.5072C31.5566 38.1674 30.486 37.8785 29.4154 37.6236C29.1435 37.5556 29.2284 37.1648 29.5003 37.2157Z" fill="#2E3543"/>
<path d="M46.0523 57.9138L3.00781 56.9621C5.65879 48.1085 7.13723 40.3085 9.12546 39.119C12.898 36.8589 16.2967 36.502 18.3189 36.3151C18.8287 37.5726 20.766 41.702 24.7934 43.3334C28.6849 44.9138 30.9961 43.8602 31.3529 42.1098C31.5738 40.9883 30.8771 39.153 30.5202 38.5582C30.3163 38.3883 30.1804 38.1334 30.1124 37.8785L29.9765 37.3177C30.2653 37.2497 30.5542 37.1817 30.8431 37.0798C33.9359 37.6236 38.6261 40.1726 39.6287 41.6C40.8353 43.3164 42.5006 47.6157 42.4327 49.9778C42.3307 53.8183 46.0523 57.9138 46.0523 57.9138Z" fill="white"/>
<path d="M46.4602 58.1008C33.6471 57.9138 15.634 57.7269 3.00784 57.404C2.76994 57.404 2.58301 57.2001 2.58301 56.9622C3.95948 52.323 5.06405 47.6498 6.54249 43.0275C6.72942 42.4498 6.93334 41.889 7.17125 41.3112C7.57909 40.4106 7.98693 39.4079 8.83661 38.7962C9.32942 38.5073 9.85621 38.2184 10.366 37.9635C12.8301 36.74 15.566 36.1112 18.285 35.8903C18.4889 35.8733 18.6588 35.9922 18.7268 36.1622C20.0183 39.255 22.3634 42.1269 25.6432 43.1975C27.2575 43.7583 30.1294 44.2341 30.8941 42.2289C31.149 41.2602 30.7752 40.2406 30.4353 39.323C30.3503 39.136 30.2654 38.9491 30.1804 38.7962L30.2654 38.8981C29.9425 38.6262 29.7386 38.1674 29.6706 37.7596L29.5856 37.4197C29.5347 37.1818 29.6876 36.9439 29.9255 36.8929C30.2144 36.8249 30.4863 36.757 30.7582 36.672C33.1373 36.8419 38.0144 39.255 39.6968 40.9543C40.6824 42.0929 41.2432 43.5713 41.8039 44.9478C42.2118 46.0524 42.5686 47.1909 42.7726 48.3635C42.8575 48.8053 42.9085 49.2642 42.9085 49.723C42.8915 50.4027 42.9425 51.0994 43.1294 51.7792C43.6902 53.9034 44.9307 55.8576 46.3412 57.54L46.3752 57.574L46.3922 57.591C46.3922 57.591 46.3752 57.574 46.4432 57.6419C46.4941 57.7779 46.5111 57.9818 46.4602 58.1008ZM45.6615 57.7439C45.6445 57.7949 45.6105 57.8629 45.6275 57.9478C45.6275 58.0328 45.6615 58.1008 45.6954 58.1517C45.7464 58.2197 45.7294 58.1857 45.7294 58.2027L45.7124 58.1857C45.5935 58.0158 45.3556 57.6759 45.2366 57.489C43.8432 55.2968 42.4667 52.8668 42.4157 50.1988C42.4497 48.4485 41.9059 46.7661 41.3281 45.1517C40.9203 44.0642 40.4445 43.0106 39.8327 42.0249C39.6798 41.787 39.5268 41.5491 39.3229 41.3452C38.7111 40.7504 37.9634 40.2746 37.2157 39.8498C35.2275 38.7452 33.0693 37.8275 30.8092 37.5387L31.0131 37.5217C30.7072 37.6236 30.4013 37.6916 30.0954 37.7596L30.4353 37.2328C30.5373 37.5896 30.5543 38.0145 30.8432 38.2524C31.0301 38.4733 31.132 38.7622 31.251 39.0001C31.5229 39.6458 31.7098 40.3086 31.8288 41.0053C32.1347 42.6707 31.149 44.0472 29.5177 44.421C28.1412 44.7439 26.6967 44.455 25.3882 44.0302C21.8706 42.9086 19.3216 39.8328 17.9451 36.5021L18.3869 36.7739C15.702 36.74 13.034 37.2668 10.6039 38.4223C10.0771 38.6772 9.53334 38.9661 9.04053 39.272C8.3438 39.8328 8.00393 40.7164 7.64706 41.5151C6.54249 44.3021 5.89674 47.2249 5.16602 50.1138C4.65621 52.153 3.97647 55.0419 3.46667 57.0981L3.05883 56.5374C15.3621 56.7923 33.1543 57.3361 45.6615 57.7439Z" fill="#2E3543"/>
<path d="M10.5532 57.8459C10.5532 57.8459 10.3322 52.34 10.1113 51.3204" stroke="#2E3543" stroke-width="0.248975" stroke-miterlimit="10" stroke-linecap="round" stroke-linejoin="round"/>
<path d="M40.6651 57.846C40.6651 57.846 40.1553 54.4303 40.1553 53.8355C40.1553 53.2577 40.5971 51.3544 40.6651 49.6891" stroke="#2E3543" stroke-width="0.248975" stroke-miterlimit="10" stroke-linecap="round" stroke-linejoin="round"/>
<path d="M15.5664 53.5636V51.5414L20.4435 53.5296C20.4265 53.5296 16.501 53.6316 15.5664 53.5636Z" fill="white"/>
<path d="M27.1899 46.9871L26.5781 59.6642C26.5781 59.6642 31.9651 63.3348 31.9651 63.2329C31.9651 63.1309 34.5141 58.6786 34.5141 58.6786L30.5376 46.4773C30.5376 46.4773 30.0278 47.0041 27.1899 46.9871Z" fill="#2E3543"/>
<path d="M28.4128 42.9087C28.4128 42.9087 26.0847 45.1008 25.7788 45.6786C25.4729 46.2564 27.0873 47.1741 27.0873 47.1741C27.0873 47.1741 29.6873 47.7178 30.8598 46.6643C30.8598 46.6643 31.5226 45.9335 31.3866 45.2368C31.2677 44.5571 28.4128 42.9087 28.4128 42.9087Z" fill="#2E3543"/>
<path d="M17.6218 34.684C17.6388 34.667 17.6558 34.65 17.6728 34.633C17.8598 34.4121 18.1316 34.2761 18.4375 34.2421C19.865 34.0722 20.0179 34.2251 20.3238 34.701C21.8022 37.0121 23.7225 41.4304 28.4297 42.9258L23.8924 47.548C23.6545 47.8539 23.2297 47.9049 22.9238 47.684C21.4624 46.5964 18.5395 43.2657 16.9251 39.2042C16.5852 38.3545 16.5173 37.4199 16.6872 36.5362C16.6532 36.5023 17.333 35.0918 17.6218 34.684Z" fill="white"/>
<path d="M17.503 34.5989C17.7579 34.361 18.0468 34.1571 18.4037 34.1061C18.8795 34.0551 19.3723 33.9531 19.8651 34.0551C20.3749 34.208 20.5619 34.7688 20.8507 35.1597C22.1253 37.2499 23.4507 39.3741 25.405 40.8525C26.1017 41.4133 26.9004 41.8381 27.7161 42.178C28.022 42.2969 28.3449 42.3989 28.6508 42.5348C28.9057 42.6538 28.9566 43.0277 28.7357 43.1976C27.4782 44.2172 26.2887 45.3218 25.1161 46.4603C24.8442 46.7322 24.2155 47.361 23.9775 47.5989C23.7057 47.9558 23.1619 48.0067 22.822 47.7348L22.6521 47.5989C22.0743 47.1231 21.5475 46.5793 21.0377 46.0355C19.2194 44.0303 17.69 41.7531 16.6704 39.2381C16.3135 38.3375 16.2285 37.3178 16.4494 36.3832C16.7043 35.7545 17.0442 35.1257 17.503 34.5989ZM17.8429 34.8368C17.469 35.3636 17.1462 36.0094 16.8743 36.6041L16.8913 36.5531C16.7893 37.1139 16.7893 37.6917 16.9083 38.2355C17.0102 38.8133 17.2651 39.3231 17.486 39.8499C17.9449 40.9375 18.5226 41.9741 19.1344 42.9767C19.7462 43.9793 20.4429 44.9479 21.2246 45.8486C21.7514 46.4603 22.3122 47.0551 22.9579 47.5479C23.0089 47.5989 23.0599 47.6159 23.1279 47.6499C23.3658 47.7518 23.6547 47.6669 23.8076 47.4629L24.3684 46.8852L24.9292 46.2904C26.0507 45.1179 27.1213 43.8943 28.124 42.6198L28.2939 43.3165C27.0704 42.9427 25.9148 42.2799 24.9122 41.4473C22.924 39.8329 21.6324 37.5897 20.4089 35.4146C20.256 35.1767 20.103 34.8708 19.9501 34.6499C19.8821 34.5479 19.8311 34.5139 19.7292 34.4799C19.3383 34.378 18.8795 34.446 18.4717 34.4969C18.1998 34.5309 17.9789 34.6499 17.8429 34.8368Z" fill="#2E3543"/>
<path d="M33.1716 45.8657C33.0697 46.4265 32.6618 46.9533 31.9821 46.2566L28.3965 42.9089C28.3965 42.9089 30.4867 40.9206 29.9769 37.318C30.6736 37.1651 31.3364 36.9442 31.9481 36.6553C31.9651 36.6893 32.203 37.1481 32.4749 37.9128C33.0527 39.4932 33.7834 42.3991 33.1716 45.8657Z" fill="white"/>
<path d="M33.2732 45.8825C33.1713 46.6982 32.5595 47.0381 31.9308 46.4093L30.7242 45.2877L29.5177 44.1662L28.3111 43.0446C28.2432 42.9766 28.2432 42.8746 28.2942 42.8067C29.2288 41.7191 29.7046 40.2407 29.7046 38.8132C29.7046 38.3034 29.6366 37.8106 29.5517 37.3008C29.5177 37.0969 29.6876 36.9099 29.9085 36.8929C30.5883 36.876 31.268 36.791 31.9477 36.6211C31.9647 36.6041 31.9987 36.6211 31.9987 36.638C33.3582 39.4929 33.783 42.7727 33.2732 45.8825ZM33.0863 45.8485C33.4942 42.8237 33.0523 39.6799 31.6419 36.9779L31.6079 36.9269C31.5909 36.9099 31.5739 36.876 31.5739 36.876L32.1517 37.0459C31.4889 37.3688 30.7922 37.5897 30.0785 37.7426L30.4183 37.2498C30.5203 38.3034 30.4353 39.374 30.1294 40.3766C29.8066 41.3792 29.2968 42.2969 28.5321 43.0446V42.7897C29.1438 43.3505 30.3504 44.489 30.9451 45.0498L32.1347 46.1884C32.5595 46.6302 32.9674 46.4603 33.0863 45.8485Z" fill="#2E3543"/>
<path d="M31.0969 41.7356C30.74 43.4859 28.4289 44.5395 24.5374 42.9591C20.4929 41.3278 18.7426 37.4362 18.3008 36.2807C20.6969 31.7944 19.0315 28.6846 19.0315 28.6846C24.5544 28.2088 29.3805 34.6663 29.3805 34.6663L30.1282 37.8611C30.1962 38.133 30.3322 38.3709 30.5361 38.5408C30.8929 39.1696 31.3178 40.614 31.0969 41.7356Z" fill="white"/>
<path d="M18.2163 36.3318C18.5391 35.8389 18.7431 35.2612 18.879 34.7004C19.1339 33.5278 19.2189 32.3383 19.2359 31.1487V30.7069C19.1849 30.2651 19.032 29.8063 18.862 29.3984C18.6411 28.8546 19.4398 28.5148 19.6947 29.0585C19.7287 29.1265 19.7287 29.2455 19.7287 29.3134C19.7797 31.6246 19.8816 34.5984 18.4202 36.5187C18.3182 36.6206 18.1143 36.4677 18.2163 36.3318Z" fill="#2E3543"/>
<path d="M29.5677 34.6324C29.8226 34.7854 29.9075 34.9893 29.9415 35.1932C30.0435 35.601 30.0095 36.0429 30.1115 36.4677C30.1964 36.8755 30.4513 37.2664 30.5193 37.6912C30.6043 38.1331 30.8592 39.0677 30.9611 39.5265C30.9951 39.6285 30.9272 39.7474 30.8082 39.7644C30.7402 39.7814 30.6892 39.7644 30.6383 39.7305C30.4174 39.5435 30.3154 39.3566 30.1794 39.1187C29.9585 38.7108 29.8056 38.337 29.6696 37.8782C29.5507 37.4703 29.6017 37.0285 29.4997 36.6037C29.4147 36.1958 29.1768 35.805 29.0919 35.3801C29.0409 35.1762 29.0239 34.9553 29.1768 34.7004C29.2788 34.5984 29.4487 34.5644 29.5677 34.6324Z" fill="#2E3543"/>
<path d="M30.7913 39.1186C27.5455 38.9487 24.8945 37.9291 22.3115 33.3239C24.4867 35.2441 27.0527 35.9748 29.7547 36.3147L30.1115 37.8781C30.1795 38.15 30.5873 38.9487 30.7913 39.1186Z" fill="#2E3543"/>
<path d="M30.6557 38.4898C31.2335 39.5774 31.5734 40.9369 31.2165 42.1434C30.9446 42.9931 30.1629 43.6219 29.3132 43.8598C27.342 44.3866 25.0649 43.5539 23.3145 42.6192C21.1564 41.4127 19.559 39.3905 18.5394 37.1813C18.4714 37.0114 18.7093 36.8754 18.8113 37.0454C19.1681 37.7591 19.576 38.4558 20.0348 39.0846C20.4936 39.7303 21.0204 40.3251 21.6152 40.8519C23.3485 42.4153 25.6936 43.3839 28.0387 43.3839C30.4518 43.316 31.3694 42.0415 30.8087 39.6964C30.7237 39.3225 30.5877 38.9317 30.4008 38.6088C30.2988 38.4728 30.5538 38.3199 30.6557 38.4898Z" fill="#2E3543"/>
<path d="M37.2321 18.081C37.538 19.5084 37.3001 20.4601 37.1641 24.4026C37.0282 28.2771 35.9066 33.749 34.5301 35.1254C33.4765 36.162 30.0948 36.9777 27.087 36.213C25.5576 35.8222 24.2661 34.9385 23.2125 34.3097C21.887 33.5111 20.7314 31.047 19.7798 29.4666C19.0321 28.2261 19.1001 29.7215 18.1314 28.6509C16.7889 27.1895 15.1746 24.2496 15.9733 19.0496C17.2648 10.6208 23.9432 9.63523 28.8883 10.5699C33.8674 11.5045 36.4164 14.3254 37.2321 18.081Z" fill="white"/>
<path d="M18.9814 30.1465C18.5906 29.5007 18.0808 28.9229 17.6219 28.3112C16.9422 27.3765 16.4324 26.306 16.0925 25.2014C14.6141 20.4772 15.5148 14.2916 19.984 11.5046C24.0455 8.92163 31.9304 9.85627 35.2272 13.3909C36.4677 14.6654 37.2664 16.3308 37.6063 18.0641C37.6233 18.1661 37.6742 18.353 37.6912 18.455C37.7082 18.5399 37.7592 18.6419 37.7422 18.7439C37.7082 19.1177 37.6403 19.4916 37.6063 19.8654C37.3514 22.1256 37.4193 24.4367 37.1304 26.6968C36.8755 29.0759 36.5357 31.455 35.822 33.7491C35.601 34.4458 35.1762 35.0746 34.6154 35.5334C33.3579 36.587 31.7095 36.9439 30.1291 37.0118C26.9684 37.1648 23.7566 36.0432 21.9213 33.3752C21.8533 33.2733 21.9893 33.1543 22.0742 33.2563C23.6036 34.9046 25.6768 35.9582 27.886 36.1962C30.3331 36.485 34.0206 36.2641 35.0912 33.6471C36.3318 29.9426 36.9775 26.0171 37.0455 22.1256C37.0455 21.1739 36.9945 20.2223 36.9945 19.2537C36.9945 19.1347 37.0115 18.8628 37.0115 18.7439C37.0115 18.7269 37.0115 18.7439 37.0115 18.7439C37.0115 18.7609 37.0115 18.7609 37.0115 18.7439C36.8755 18.404 36.8246 18.0301 36.7226 17.6903C36.3487 16.2798 35.669 14.9373 34.7004 13.8667C31.4886 10.2641 24.3344 9.36346 20.3239 12.0654C17.1461 14.1726 16.2965 18.2171 16.0755 21.7857C15.8886 24.4537 16.6703 27.0707 18.6925 28.906L19.4912 29.7386C19.8311 30.1125 19.2533 30.5543 18.9814 30.1465Z" fill="#2E3543"/>
<path d="M20.9865 24.7424C20.9865 24.7424 20.4597 22.1934 17.9786 22.4992C15.8375 22.7711 15.0898 27.9032 19.9499 29.3306" fill="white"/>
<path d="M19.7292 27.1046C19.3384 26.8836 19.0665 26.5098 19.0495 26.051C19.0665 25.7111 19.1174 25.3202 19.0325 24.9804C18.9815 24.6575 18.6416 24.5725 18.3867 24.5895C18.1148 24.6405 17.9449 24.9804 17.8939 25.2523C17.8939 25.2693 17.8769 25.3202 17.8769 25.3372C17.8599 25.4222 17.724 25.4222 17.69 25.3372C17.4691 24.6745 17.9619 23.9438 18.6756 24.0287C19.6782 24.0967 19.8142 25.1503 19.6272 25.949C19.5253 26.2889 19.6612 26.5948 19.8482 26.8836L19.8822 26.9346C19.9671 27.0366 19.8312 27.1725 19.7292 27.1046Z" fill="#2E3543"/>
<path d="M33.3243 22.941C33.5792 24.1476 34.0551 25.2691 34.6498 26.3227C35.1766 27.6142 33.8171 28.8378 32.6106 28.7868C32.4747 28.7868 32.4577 28.5999 32.5766 28.5659C33.3413 28.328 34.0381 27.8182 34.157 27.0365C34.208 26.7986 34.14 26.5946 34.0211 26.3907C33.4603 25.3371 33.1204 24.1306 33.2054 22.941C33.2054 22.8561 33.3243 22.8561 33.3243 22.941Z" fill="#2E3543"/>
<path d="M20.9019 24.7594C20.5111 23.7568 19.6614 22.8052 18.5228 22.8222C18.4209 22.8052 18.2509 22.8392 18.149 22.8392C17.8601 22.8561 17.6222 22.9581 17.4013 23.162C16.3137 24.2496 16.5006 26.1699 17.3843 27.3764C17.6901 27.8013 18.081 28.1751 18.5228 28.481C18.9647 28.7869 19.4575 29.0248 19.9843 29.2287C20.1032 29.2627 20.0522 29.4496 19.9333 29.4326C18.7947 29.1947 17.7071 28.6339 16.9594 27.6993C15.8039 26.3058 15.566 23.9777 16.9424 22.6182C17.2483 22.3463 17.6732 22.1424 18.098 22.1424C18.2339 22.1424 18.4379 22.1084 18.5738 22.1424C19.2875 22.1764 19.9673 22.5333 20.4091 23.0941C20.8 23.5699 21.0209 24.1477 21.0888 24.7254C21.0888 24.8274 20.9359 24.8614 20.9019 24.7594Z" fill="#2E3543"/>
<path d="M32.0331 30.4863C30.9456 31.5229 28.8893 30.6903 28.3456 29.4327C28.2776 29.2798 28.4475 29.1439 28.5835 29.2118C28.8724 29.3648 29.1273 29.5177 29.3991 29.6367C30.1808 29.9935 30.9965 30.2824 31.8632 30.1974C32.0331 30.1635 32.1521 30.3674 32.0331 30.4863Z" fill="#2E3543"/>
<path d="M26.986 24.6746C26.5782 24.6576 26.2723 24.3177 26.3063 23.9098L26.3233 23.434C26.3403 23.0262 26.6801 22.7203 27.088 22.7543C27.4958 22.7713 27.8017 23.1112 27.7677 23.519L27.7507 23.9948C27.7337 24.3857 27.3939 24.6915 26.986 24.6746Z" fill="#2E3543"/>
<path d="M34.1396 24.9295C33.7658 24.9125 33.4769 24.5896 33.4939 24.2157L33.5109 23.7739C33.5279 23.4 33.8507 23.1112 34.2246 23.1282C34.5985 23.1451 34.8873 23.468 34.8703 23.8419L34.8534 24.2837C34.8364 24.6576 34.5135 24.9465 34.1396 24.9295Z" fill="#2E3543"/>
<path d="M28.515 23.7569C27.9543 23.383 27.3425 23.1281 26.6628 23.2641C26.4418 23.2981 26.2209 23.3661 26.085 23.519C26.034 23.587 25.915 23.57 25.915 23.468C25.932 23.1281 26.2209 22.9072 26.4928 22.7713C27.0196 22.4994 27.7503 22.5504 28.2262 22.9072C28.3961 23.0092 28.9739 23.6379 28.668 23.7739C28.6 23.8079 28.566 23.7909 28.515 23.7569Z" fill="#2E3543"/>
<path d="M33.375 23.8419C33.375 23.1281 34.2587 22.8732 34.8025 23.1281C35.1083 23.2641 35.3293 23.536 35.4142 23.8589C35.4482 23.9608 35.2953 24.0458 35.2273 23.9608C34.9384 23.6209 34.4456 23.451 34.0547 23.6549C33.9358 23.7229 33.9188 23.7739 33.8848 23.8419C33.8848 24.1817 33.392 24.1647 33.375 23.8419Z" fill="#2E3543"/>
<path d="M29.3309 20.9529C29.6878 21.0719 30.0446 20.749 29.9766 20.3581C29.9427 20.1542 29.8577 19.9503 29.6878 19.7974C29.178 19.3385 27.0708 18.9307 25.7963 19.5255C24.6747 20.0693 27.6995 20.4091 29.3309 20.9529Z" fill="#2E3543"/>
<path d="M34.4117 21.2249C34.1228 21.3268 33.8169 21.021 33.8679 20.6641C33.8849 20.4772 33.9529 20.2902 34.0888 20.1543C34.4967 19.7465 35.8901 19.4236 36.7738 20.0523C37.5385 20.5791 35.7372 20.7321 34.4117 21.2249Z" fill="#2E3543"/>
<path d="M38.524 14.0367C39.7305 9.66935 34.8364 6.9334 33.5279 8.90464C32.5763 10.3321 28.9057 9.22752 23.3318 9.12556C17.758 9.0066 16.2625 11.9635 16.1946 15.1412C16.1946 15.1412 13.7475 16.4327 13.9004 20.987C14.0534 25.7112 18.9135 29.5177 19.5083 31.9138C19.5083 31.9138 19.5763 32.2197 18.9305 28.9399C15.2259 27.1556 16.0076 22.7543 17.9959 22.4994C19.5083 22.3125 20.307 23.1961 20.6808 23.9099C20.8338 24.1138 22.2782 25.8811 22.3122 20.1033C22.3292 16.1609 26.1697 14.8693 30.537 16.4667C32.8142 17.2994 35.2102 17.9112 36.8586 16.7216C37.1305 17.5033 37.4194 18.37 37.1985 19.4236C37.8612 18.8118 38.422 17.9112 38.575 16.8066C38.6769 16.1439 38.507 15.5661 38.1331 15.0563C38.2861 14.7674 38.422 14.4105 38.524 14.0367Z" fill="#2E3543"/>
<path d="M29.7391 26.7816C28.9574 26.7986 26.5443 26.8156 25.7966 26.8326C24.5051 26.8496 23.5364 25.728 23.6554 24.4535C23.6724 24.0287 23.6554 23.4339 23.6724 23.0091C23.7064 21.9045 24.692 20.9698 25.7966 21.0038L28.6685 21.0378C28.8894 21.0378 29.5181 21.0548 29.7391 21.0548C30.6567 21.0378 31.5234 21.7176 31.7273 22.6182C31.7953 22.8731 31.7783 23.145 31.7783 23.3659V24.8104C31.7613 25.881 30.8096 26.7986 29.7391 26.7816ZM29.7391 26.4078C30.6227 26.4417 31.4384 25.677 31.4554 24.7934C31.4724 24.3345 31.4554 23.8417 31.4554 23.3659C31.5574 22.3293 30.7757 21.3777 29.7221 21.4117C28.9913 21.4287 26.5443 21.4457 25.7796 21.4627C24.8619 21.4627 24.0802 22.2953 24.1482 23.213C24.1482 23.3319 24.1482 23.6378 24.1482 23.7568C24.1652 24.1306 24.1142 24.7764 24.1992 25.1163C24.3691 25.83 25.0489 26.3738 25.7796 26.3738H26.1364C26.6293 26.3738 29.2293 26.4078 29.7391 26.4078Z" fill="#2E3543"/>
<path d="M36.5876 21.4966L35.2451 21.5136C34.8712 21.5306 34.4294 21.4627 34.1065 21.6836C33.8006 21.8875 33.6647 22.2614 33.6817 22.6182C33.6817 23.06 33.6817 23.5189 33.6647 23.9607L33.6477 23.8927C33.8856 24.7254 34.2085 25.5241 34.7013 26.2208L34.5314 26.1189C34.6673 26.1529 34.9052 26.1529 35.0412 26.1529C35.551 26.1698 36.1457 26.2038 36.6555 26.2038C37.1314 26.2038 37.5902 25.847 37.6921 25.3712C37.7261 25.2352 37.7261 24.9973 37.7261 24.8614C37.7261 24.1306 37.7431 23.4169 37.7091 22.6862C37.7431 22.0404 37.2503 21.4627 36.5876 21.4966ZM36.5876 20.9868C37.4882 20.9868 38.117 21.8535 37.964 22.7032C37.93 23.4339 37.947 24.1476 37.947 24.8783C38.032 25.728 37.5222 26.4927 36.6385 26.5607C36.2647 26.5777 35.9078 26.5777 35.551 26.5947C35.364 26.5947 34.9052 26.6287 34.7353 26.6287C34.6503 26.6457 34.5144 26.6287 34.4294 26.6287C34.3614 26.6287 34.2934 26.5777 34.2595 26.5267C33.7327 25.745 33.3588 24.8783 33.1379 23.9777C33.1379 23.3999 33.0869 22.8221 33.1379 22.2444C33.2399 21.5646 33.8516 20.9868 34.5484 20.9698C35.0242 20.9529 36.1117 20.9868 36.5876 20.9868Z" fill="#2E3543"/>
<path d="M31.5914 22.5503C32.0503 22.3463 32.5601 22.2614 33.0699 22.2954C33.2398 22.3124 33.4097 22.3633 33.5627 22.4993L33.7836 22.6862C34.0045 22.8731 33.7326 23.196 33.5117 23.0091C33.2398 22.7712 32.9169 22.8052 32.594 22.8222C32.2712 22.8562 31.9653 22.9241 31.6594 23.0431C31.3705 23.162 31.1836 22.7372 31.4555 22.6013L31.5914 22.5503Z" fill="#2E3543"/>
<path d="M23.9443 23.162C23.8254 23.4339 23.6894 23.4679 23.4685 23.4509L22.9757 23.4679C21.9901 23.4679 20.9875 23.4509 20.0018 23.298C19.662 23.281 19.645 22.8052 19.9848 22.7882L23.9273 22.6522C24.0463 22.6522 24.1313 22.7712 24.0803 22.8731L23.9443 23.162Z" fill="#2E3543"/>
<path d="M48.9748 14.3255C59.2898 34.1908 41.1578 56.6052 19.5421 51.1333C9.83883 48.7203 2.03882 40.3085 0.424443 30.4353C-1.41085 20.6131 3.02444 10.0601 11.3173 4.50325C22.6859 -3.31374 38.4388 -0.713744 46.5787 10.468C46.6297 10.5189 46.6127 10.6039 46.5447 10.6549C46.4938 10.7059 46.4088 10.6889 46.3578 10.6209C45.2362 9.17646 43.9617 7.86796 42.5683 6.69541C40.2741 4.74116 37.5892 3.21175 34.7513 2.17515C20.3068 -3.05884 4.4519 5.64182 1.29111 20.749C-2.27752 37.6745 12.116 53.2575 29.2794 50.9294C42.5173 49.2641 52.3565 37.0457 51.2689 23.7569C51.031 20.5451 50.1813 17.3673 48.7709 14.4444C48.7369 14.3935 48.7709 14.3255 48.8219 14.2915C48.8728 14.2575 48.9408 14.2745 48.9748 14.3255Z" fill="#2E3543"/>
</g>
<mask id="mask1_674_22280" style="mask-type:alpha" maskUnits="userSpaceOnUse" x="46" y="0" width="52" height="52">
<circle cx="71.9147" cy="25.9148" r="25.9148" fill="#D9D9D9"/>
</mask>
<g mask="url(#mask1_674_22280)">
<circle cx="72" cy="26" r="26" fill="white"/>
<path d="M86.1209 47.3099C86.0019 47.3949 85.866 47.4798 85.747 47.5648C85.6111 47.6498 85.4921 47.7347 85.3562 47.8027C85.2372 47.8707 85.1352 47.9387 85.0163 48.0066C84.9993 48.0236 84.9823 48.0236 84.9653 48.0406C84.5745 48.2785 84.1666 48.4995 83.7588 48.7034C83.6398 48.7713 83.5039 48.8393 83.3849 48.8903C83.3849 48.8903 83.3679 48.9073 83.3509 48.9073C83.215 48.9753 83.079 49.0432 82.9431 49.1112C82.6712 49.2472 82.3823 49.3661 82.1104 49.4851C81.9745 49.553 81.8215 49.604 81.6856 49.655C81.5496 49.706 81.3967 49.774 81.2607 49.8249C81.1248 49.8759 80.9718 49.9439 80.8359 49.9949C80.8359 49.9949 80.8359 49.9949 80.8189 49.9949C80.683 50.0459 80.53 50.0968 80.3941 50.1478C80.0882 50.2498 79.7653 50.3517 79.4594 50.4537C79.3575 50.4877 79.2385 50.5217 79.1366 50.5557C78.8137 50.6576 78.4908 50.7426 78.1679 50.8106C78.049 50.8445 77.93 50.8615 77.7941 50.8955C77.4882 50.9635 77.1653 51.0315 76.8594 51.0995C76.7915 51.1164 76.7405 51.1164 76.6725 51.1334C76.5705 51.1504 76.4516 51.1674 76.3496 51.1844C76.1967 51.2014 76.0607 51.2354 75.9078 51.2524C75.8398 51.2694 75.7718 51.2694 75.7039 51.2864C75.6189 51.3034 75.5169 51.3204 75.415 51.3204C75.1431 51.3544 74.8542 51.3883 74.5823 51.4223C74.4973 51.4393 74.3954 51.4393 74.3104 51.4563H74.2934C74.1745 51.4733 74.0555 51.4733 73.9366 51.4903C73.8176 51.5073 73.6986 51.5073 73.5797 51.5073C73.5117 51.5073 73.4267 51.5243 73.3588 51.5243C73.2228 51.5243 73.1039 51.5413 72.9849 51.5413C72.815 51.5413 72.662 51.5583 72.4921 51.5583C72.3222 51.5583 72.1692 51.5583 71.9993 51.5583C71.8803 51.5583 71.7614 51.5583 71.6424 51.5583C64.4712 51.4563 58.0307 48.4145 53.4254 43.5883C53.4254 43.5883 53.4254 43.5713 53.4084 43.5713C52.8986 43.1125 53.3405 40.6655 55.3967 39.1191C57.9797 37.1648 64.1653 35.9413 64.1653 35.9413C64.1653 35.9413 66.5614 35.5504 75.449 37.4027C80.649 38.4903 84.6084 40.0707 86.8176 44.353C87.2764 45.2367 87.7352 46.5962 86.1209 47.3099Z" fill="white"/>
<path d="M75.5003 37.2157C78.7631 37.8785 82.2467 38.5922 84.9317 40.7504C85.8324 41.4811 86.4271 42.5517 86.9199 43.5883C87.1578 44.0981 87.3958 44.6249 87.5827 45.1857C87.6846 45.5595 87.8376 45.9844 87.7526 46.4262C87.7356 46.5452 87.6337 46.6981 87.5487 46.7831C87.1578 47.1739 86.733 47.4118 86.3082 47.7177C83.8101 49.451 80.9382 50.6746 77.9644 51.3203C71.3369 52.7648 64.1657 51.6432 58.3369 48.1595C56.3997 46.987 54.6154 45.5595 53.086 43.8772C52.916 43.6733 52.916 43.3334 52.916 43.1125C52.933 42.6027 53.069 42.1099 53.2389 41.651C53.6467 40.5974 54.1735 39.5438 55.0742 38.8131C55.7199 38.3713 56.4167 37.9974 57.1304 37.6916C59.3735 36.7399 61.7356 36.0772 64.1657 35.8053C64.3696 35.7883 64.4036 36.0772 64.1997 36.1112C61.8716 36.587 59.5605 37.3007 57.4023 38.2693C56.6206 38.6602 55.7879 39.0001 55.1592 39.6118C54.5644 40.2576 54.1395 41.0563 53.7997 41.872C53.5788 42.3648 53.4258 43.1465 53.4938 43.5373C54.5644 44.8118 55.8219 45.9334 57.1814 46.902C64.6245 52.102 75.9252 52.4419 83.8441 48.1086C84.5578 47.7177 85.2546 47.2759 85.9173 46.8171C86.2402 46.5961 86.5801 46.4092 86.835 46.1543C86.852 46.1373 86.835 46.1543 86.835 46.1713C86.835 46.1883 86.818 46.2053 86.818 46.2053C86.835 46.0014 86.767 45.7295 86.682 45.4576C86.3761 44.472 85.8833 43.4354 85.3565 42.5347C84.5239 41.1922 83.1134 40.3425 81.686 39.6628C80.7003 39.204 79.6637 38.8471 78.6101 38.5072C77.5565 38.1674 76.486 37.8785 75.4154 37.6236C75.1435 37.5556 75.2284 37.1648 75.5003 37.2157Z" fill="#2E3543"/>
<path d="M91.7636 57.8456H48.7871C48.7871 57.8456 49.4838 50.8443 52.1348 45.2535C53.1034 43.2143 53.4263 40.2234 55.3466 38.9149C57.3178 37.5724 61.5152 36.5018 62.9767 36.3319C63.7923 36.2299 63.6054 36.162 64.1832 36.009C64.3701 36.5188 66.2564 41.5149 70.7767 43.3502C74.6682 44.9306 76.9793 43.877 77.3361 42.1267C77.557 41.0051 76.8603 39.1698 76.5035 38.575C76.2995 38.4051 76.1636 38.1502 76.0956 37.8953L75.9597 37.3345C76.2655 37.2666 76.5544 37.1816 76.8603 37.0966C77.0133 37.1306 77.1832 37.1136 77.3191 37.1986C78.7466 37.9803 83.0459 39.0849 85.2891 41.4469C86.1727 42.3646 87.5492 45.6273 87.7701 47.7515C88.3989 53.5803 91.7636 57.8456 91.7636 57.8456Z" fill="white"/>
<path d="M92.0018 57.9477C79.2567 57.9817 61.3625 58.1346 48.8044 58.0836C48.6514 58.0836 48.5325 57.9477 48.5495 57.7948C48.7024 56.5882 48.9063 55.4157 49.1442 54.2261C49.773 50.9804 50.7246 47.7856 52.1521 44.8118C52.7299 43.4183 53.0188 41.9569 53.7155 40.5974C54.1233 39.7817 54.7351 39 55.5508 38.5412C56.8593 37.7595 58.3037 37.2667 59.7482 36.8248C60.6148 36.5699 61.4985 36.332 62.3821 36.1621C62.824 36.0601 63.2658 36.0771 63.6737 35.9072C63.8946 35.8222 64.3194 35.5673 64.4554 35.8902C65.6959 39.102 68.092 42.1438 71.4397 43.2823C73.173 43.9111 76.1808 44.4379 77.0645 42.3137C77.3364 41.515 77.0815 40.6484 76.8436 39.8497C76.7076 39.4418 76.5377 39.017 76.3338 38.6771L76.3848 38.7281C76.0789 38.4732 75.9089 38.0654 75.858 37.6915L75.773 37.3516C75.739 37.2157 75.824 37.0797 75.9599 37.0457C76.2658 36.9948 76.5717 36.8928 76.8776 36.8078C77.0475 36.8078 77.3194 36.8418 77.5403 36.9608C79.4096 37.8274 81.5338 38.4562 83.3181 39.5438C84.3207 40.1386 85.3403 40.8353 85.9861 41.8379C87.1756 43.8261 87.9403 46.0863 88.1612 48.3804C88.6371 51.6601 89.9625 54.8039 91.8658 57.5059L91.9338 57.5908L91.9678 57.6248L91.9848 57.6418C91.9848 57.6418 91.9848 57.6248 92.0018 57.6758C92.0187 57.7778 92.0187 57.8967 92.0018 57.9477ZM91.5429 57.7268C91.5089 57.7778 91.5089 57.8967 91.5429 57.9477C91.5769 57.9817 91.5599 57.9647 91.5599 57.9647L91.5429 57.9477L91.5089 57.8967L91.441 57.8118C90.3704 56.1804 89.4867 54.4301 88.841 52.6118C88.3312 51.2693 87.9573 49.8758 87.7534 48.4484C87.6854 47.9386 87.6004 47.2588 87.4815 46.766C87.0906 45.1346 86.4619 43.5033 85.5612 42.0928C85.2723 41.634 84.8475 41.2771 84.4227 40.9372C83.0802 39.9176 81.4998 39.2889 79.9364 38.6771L78.339 38.0823C77.8122 37.8784 77.1835 37.6575 76.8606 37.3346H76.9965C76.6906 37.4366 76.3848 37.5216 76.0789 37.5895L76.2658 37.2837L76.3508 37.6235C76.4188 37.9294 76.4867 38.2013 76.7246 38.4052C76.7416 38.4222 76.7586 38.4392 76.7756 38.4562C77.2344 39.2889 77.5063 40.1555 77.6423 41.0902C77.9312 42.7046 76.9116 43.9791 75.3482 44.285C73.19 44.7098 70.607 43.7752 68.8227 42.5686C66.5795 40.9882 64.9652 38.6431 63.9795 36.1111L64.2854 36.264C64.1325 36.315 64.0305 36.366 63.8776 36.434C63.7246 36.5189 63.5377 36.5699 63.3678 36.6039C63.3848 36.7059 63.3338 36.4 63.4018 36.8078C63.0789 36.8418 62.824 36.8588 62.5181 36.9268C61.6514 37.0627 60.7848 37.2667 59.9351 37.5046C58.7965 37.8104 57.675 38.1843 56.6214 38.6771C56.0946 38.932 55.5848 39.2039 55.1939 39.5608C54.7861 39.9176 54.4632 40.3935 54.1913 40.9033C53.3926 42.4497 53.0018 44.302 52.1861 45.8653C50.4867 49.6549 49.5351 53.7843 49.0763 57.9137L48.8214 57.6418C61.1586 57.5908 79.0018 57.6588 91.5429 57.7268Z" fill="#2E3543"/>
<path d="M77.965 46.732C77.3703 46.9019 75.2971 44.7437 74.8722 44.3699C74.4814 44.8117 71.7284 47.9215 70.369 47.7176C68.8735 47.4967 65.05 44.9306 63.1128 40.9032C62.0422 38.694 62.0082 37.3516 62.1271 36.6208C62.1781 36.281 62.2801 36.0601 62.3311 35.9411C62.501 35.5503 63.7245 34.0378 64.0304 34.0548V34.0718C64.1833 35.7032 64.7101 37.2836 65.5938 38.6601C66.6814 40.3424 68.3977 42.3646 70.7938 43.3333C74.6853 44.9137 76.7075 43.3503 77.0474 41.5999C77.2683 40.4784 76.8775 39.1529 76.5206 38.5581C76.3167 38.3882 76.1807 38.1333 76.1128 37.8784L75.9768 37.3176C76.2827 37.2496 76.5716 37.1646 76.8775 37.0797C76.9624 37.0457 77.0644 37.0287 77.1494 36.9947C77.2003 37.0627 77.2683 37.1306 77.3193 37.1986C78.033 38.0143 78.7807 39.1359 79.1886 41.0391C79.8683 44.081 78.6278 46.528 77.965 46.732Z" fill="#2E3543"/>
<path d="M74.8043 46.5281C75.0296 46.5281 75.2122 46.3455 75.2122 46.1202C75.2122 45.895 75.0296 45.7124 74.8043 45.7124C74.5791 45.7124 74.3965 45.895 74.3965 46.1202C74.3965 46.3455 74.5791 46.5281 74.8043 46.5281Z" fill="#2E3543"/>
<path d="M74.9401 48.1255C75.1653 48.1255 75.3479 47.9429 75.3479 47.7177C75.3479 47.4924 75.1653 47.3098 74.9401 47.3098C74.7148 47.3098 74.5322 47.4924 74.5322 47.7177C74.5322 47.9429 74.7148 48.1255 74.9401 48.1255Z" fill="#2E3543"/>
<path d="M57.1993 57.8457L56.4346 51.5411" stroke="#5D6675" stroke-width="3" stroke-miterlimit="10" stroke-linecap="round" stroke-linejoin="round"/>
<path d="M86.8869 49.4C86.8869 49.4 86.3771 50.6405 86.5301 51.8811C86.683 53.1216 87.1249 54.9399 86.4961 57.8458" stroke="#5D6675" stroke-width="3" stroke-miterlimit="10" stroke-linecap="round" stroke-linejoin="round"/>
<path d="M64.0302 34.0549C64.0302 34.0549 69.5191 32.3555 77.1662 36.9777C77.1662 36.9777 79.2734 42.6536 77.9649 43.5202C76.6564 44.3869 72.544 44.4719 69.6721 43.5202C66.7832 42.5856 63.0786 37.9124 64.0302 34.0549Z" fill="#2E3543"/>
<path d="M77.0969 41.736C76.74 43.4863 74.4289 44.5399 70.5374 42.9595C66.4929 41.3281 64.7426 37.4366 64.3008 36.2811C66.6969 31.7948 65.0315 28.685 65.0315 28.685C70.5544 28.2092 75.3805 34.6667 75.3805 34.6667L76.1282 37.8614C76.1962 38.1333 76.3322 38.3712 76.5361 38.5412C76.8929 39.1699 77.3178 40.6144 77.0969 41.736Z" fill="white"/>
<path d="M64.2163 36.332C64.5391 35.8392 64.7431 35.2614 64.879 34.7006C65.1339 33.5281 65.2189 32.3385 65.2359 31.149V30.7072C65.1849 30.2653 65.032 29.8065 64.862 29.3987C64.6411 28.8549 65.4398 28.515 65.6947 29.0588C65.7287 29.1268 65.7287 29.2457 65.7287 29.3137C65.7797 31.6248 65.8816 34.5987 64.4202 36.5189C64.3182 36.6209 64.1143 36.4679 64.2163 36.332Z" fill="#2E3543"/>
<path d="M75.5677 34.6327C75.8226 34.7856 75.9075 34.9895 75.9415 35.1934C76.0435 35.6013 76.0095 36.0431 76.1115 36.4679C76.1964 36.8758 76.4513 37.2666 76.5193 37.6915C76.6043 38.1333 76.8592 39.0679 76.9611 39.5268C76.9951 39.6287 76.9272 39.7477 76.8082 39.7647C76.7402 39.7817 76.6892 39.7647 76.6383 39.7307C76.4174 39.5438 76.3154 39.3568 76.1794 39.1189C75.9585 38.7111 75.8056 38.3372 75.6696 37.8784C75.5507 37.4706 75.6017 37.0287 75.4997 36.6039C75.4147 36.1961 75.1768 35.8052 75.0919 35.3804C75.0409 35.1764 75.0239 34.9555 75.1768 34.7006C75.2788 34.5987 75.4487 34.5647 75.5677 34.6327Z" fill="#2E3543"/>
<path d="M76.7913 39.119C73.5455 38.9491 70.8945 37.9294 68.3115 33.3242C70.4867 35.2445 73.0527 35.9752 75.7547 36.3151L76.1115 37.8785C76.1795 38.1504 76.5873 38.9491 76.7913 39.119Z" fill="#2E3543"/>
<path d="M76.6557 38.4902C77.2335 39.5778 77.5734 40.9372 77.2165 42.1438C76.9446 42.9935 76.1629 43.6222 75.3132 43.8601C73.342 44.3869 71.0649 43.5542 69.3145 42.6196C67.1564 41.4131 65.559 39.3908 64.5394 37.1817C64.4714 37.0118 64.7093 36.8758 64.8113 37.0457C65.1681 37.7595 65.576 38.4562 66.0348 39.085C66.4936 39.7307 67.0204 40.3255 67.6152 40.8523C69.3485 42.4157 71.6936 43.3843 74.0387 43.3843C76.4518 43.3163 77.3694 42.0418 76.8086 39.6967C76.7237 39.3229 76.5877 38.932 76.4008 38.6091C76.2988 38.4732 76.5537 38.3203 76.6557 38.4902Z" fill="#2E3543"/>
<path d="M83.2321 18.081C83.538 19.5085 83.6909 20.664 82.8582 24.4705C82.0425 28.2601 84.0308 29.0418 79.3236 35.1085C77.4033 37.5895 72.7471 36.8928 68.9746 34.3268C67.7001 33.4601 67.1563 31.2339 66.2046 29.6536C65.4569 28.413 65.117 29.7045 64.1314 28.6339C62.7889 27.1725 61.1746 24.2326 61.9733 19.0326C63.2648 10.6039 69.9432 9.61826 74.8883 10.5529C79.8674 11.5045 82.4164 14.3254 83.2321 18.081Z" fill="white"/>
<path d="M64.9813 30.1464C64.5905 29.4836 64.0807 28.9059 63.6049 28.2941C63.146 27.6653 62.7722 26.9686 62.4663 26.2549C60.4441 21.2928 61.2258 14.3085 66.1879 11.3856C68.2441 10.196 70.7251 9.90716 73.0362 10.0941C77.9813 10.451 82.5186 12.7281 83.5892 17.9621C84.1669 20.2732 83.3852 22.6523 82.9434 24.9124C82.7395 26.034 82.9094 27.1895 82.8924 28.3451C82.8754 29.5176 82.5526 30.6902 82.1107 31.7778C81.8388 32.5255 81.363 33.1882 80.8702 33.8C80.0545 34.7856 79.2388 35.7882 78.2022 36.5529C77.9643 36.7228 77.5395 36.8078 77.2506 36.8418C76.4519 36.9608 75.6702 36.9947 74.8715 36.9438C71.7447 36.8078 68.397 35.2954 67.1395 32.2706C67.0885 32.1516 67.2584 32.0666 67.3264 32.1686C68.9578 34.7516 71.9486 36.0261 74.9225 36.1961C75.8401 36.247 76.7748 36.23 77.6754 36.0431C78.1173 35.8222 78.5081 35.4313 78.882 35.0745C79.7996 34.1568 80.7343 33.1712 81.397 32.0496C82.1957 30.5372 82.6375 28.8889 82.5016 27.1725C82.4676 26.4078 82.4506 25.6091 82.6035 24.8444C82.7395 24.0797 82.9094 23.349 83.0114 22.5673C83.1133 21.8196 83.1643 21.0549 83.1643 20.3072C83.0794 18.115 82.3656 15.8549 80.9722 14.1555C77.8964 10.332 70.6232 9.32938 66.5277 11.9464C63.9447 13.5438 62.7382 16.5346 62.3473 19.4405C61.7526 22.9242 61.9225 26.3568 64.6924 28.8889L65.5081 29.7385C65.831 30.1124 65.2532 30.5542 64.9813 30.1464Z" fill="#2E3543"/>
<path d="M66.9865 24.7425C66.9865 24.7425 66.4597 22.1935 63.9786 22.4994C61.8375 22.7713 61.0898 27.9033 65.9499 29.3307" fill="white"/>
<path d="M65.7292 27.1046C65.3384 26.8836 65.0665 26.5098 65.0495 26.051C65.0665 25.7111 65.1174 25.3202 65.0325 24.9804C64.9815 24.6575 64.6416 24.5725 64.3867 24.5895C64.1148 24.6405 63.9449 24.9804 63.8939 25.2523C63.8939 25.2693 63.8769 25.3202 63.8769 25.3372C63.8599 25.4222 63.724 25.4222 63.69 25.3372C63.4691 24.6745 63.9619 23.9438 64.6756 24.0287C65.6782 24.0967 65.8142 25.1503 65.6272 25.949C65.5253 26.2889 65.6612 26.5948 65.8482 26.8836L65.8821 26.9346C65.9671 27.0366 65.8312 27.1725 65.7292 27.1046Z" fill="#2E3543"/>
<path d="M79.3234 22.9412C79.5783 24.1477 80.0541 25.2693 80.6488 26.3229C81.1756 27.6144 79.8162 28.8379 78.6096 28.7869C78.4737 28.7869 78.4567 28.6 78.5756 28.566C79.3403 28.3281 80.0371 27.8183 80.156 27.0366C80.207 26.7987 80.139 26.5948 80.0201 26.3908C79.4593 25.3372 79.1194 24.1307 79.2044 22.9412C79.2044 22.8562 79.3234 22.8562 79.3234 22.9412Z" fill="#2E3543"/>
<path d="M66.9019 24.7594C66.5111 23.7568 65.6614 22.8052 64.5228 22.8222C64.4209 22.8052 64.2509 22.8392 64.149 22.8392C63.8601 22.8561 63.6222 22.9581 63.4013 23.162C62.3137 24.2496 62.5006 26.1699 63.3843 27.3764C63.6901 27.8012 64.081 28.1751 64.5228 28.481C64.9647 28.7869 65.4575 29.0248 65.9843 29.2287C66.1032 29.2627 66.0522 29.4496 65.9333 29.4326C64.7947 29.1947 63.7071 28.6339 62.9594 27.6993C61.8039 26.3058 61.566 23.9777 62.9424 22.6182C63.2483 22.3463 63.6732 22.1424 64.098 22.1424C64.2339 22.1424 64.4379 22.1084 64.5738 22.1424C65.2875 22.1764 65.9673 22.5333 66.4091 23.0941C66.7999 23.5699 67.0209 24.1477 67.0888 24.7254C67.0888 24.8274 66.9359 24.8614 66.9019 24.7594Z" fill="#2E3543"/>
<path d="M78.0331 30.4862C76.9456 31.5228 74.8893 30.6901 74.3456 29.4326C74.2776 29.2797 74.4475 29.1437 74.5835 29.2117C74.8723 29.3646 75.1273 29.5176 75.3991 29.6365C76.1808 29.9934 76.9965 30.2823 77.8632 30.1973C78.0331 30.1633 78.1521 30.3673 78.0331 30.4862Z" fill="#2E3543"/>
<path d="M72.986 24.6744C72.5782 24.6574 72.2723 24.3176 72.3063 23.9097L72.3233 23.4339C72.3403 23.0261 72.6801 22.7202 73.088 22.7542C73.4958 22.7712 73.8017 23.111 73.7677 23.5189L73.7507 23.9947C73.7337 24.3855 73.3939 24.6914 72.986 24.6744Z" fill="#2E3543"/>
<path d="M80.1396 24.9295C79.7658 24.9125 79.4769 24.5896 79.4939 24.2157L79.5109 23.7739C79.5279 23.4 79.8507 23.1112 80.2246 23.1282C80.5984 23.1451 80.8873 23.468 80.8703 23.8419L80.8534 24.2837C80.8364 24.6576 80.5135 24.9465 80.1396 24.9295Z" fill="#2E3543"/>
<path d="M74.515 23.7569C73.9543 23.383 73.3425 23.1281 72.6628 23.2641C72.4418 23.2981 72.2209 23.3661 72.085 23.519C72.034 23.587 71.915 23.57 71.915 23.468C71.932 23.1281 72.2209 22.9072 72.4928 22.7713C73.0196 22.4994 73.7503 22.5504 74.2262 22.9072C74.3961 23.0092 74.9739 23.6379 74.668 23.7739C74.6 23.8079 74.566 23.7909 74.515 23.7569Z" fill="#2E3543"/>
<path d="M79.375 23.8419C79.375 23.1281 80.2587 22.8732 80.8025 23.1281C81.1083 23.2641 81.3292 23.536 81.4142 23.8589C81.4482 23.9608 81.2953 24.0458 81.2273 23.9608C80.9384 23.6209 80.4456 23.451 80.0547 23.6549C79.9358 23.7229 79.9188 23.7739 79.8848 23.8419C79.8848 24.1817 79.392 24.1647 79.375 23.8419Z" fill="#2E3543"/>
<path d="M75.3309 20.9529C75.6878 21.0719 76.0446 20.749 75.9766 20.3581C75.9427 20.1542 75.8577 19.9503 75.6878 19.7974C75.178 19.3385 73.0708 18.9307 71.7963 19.5255C70.6747 20.0693 73.6995 20.4091 75.3309 20.9529Z" fill="#2E3543"/>
<path d="M80.4117 21.2248C80.1228 21.3267 79.8169 21.0208 79.8679 20.664C79.8849 20.4771 79.9529 20.2901 80.0888 20.1542C80.4967 19.7463 81.8901 19.4235 82.7738 20.0522C83.5385 20.579 81.7372 20.732 80.4117 21.2248Z" fill="#2E3543"/>
<path d="M85.3577 33.0864C83.3865 28.0563 83.6414 26.4759 84.1172 22.2445C85.0688 13.9177 82.061 11.8955 80.4806 11.0968C73.7512 7.68113 66.0361 9.34649 63.1303 14.0367C61.312 16.9596 61.244 19.3047 60.2244 22.6694C58.4741 28.4302 54.2597 30.9792 55.5682 36.8759C57.3695 42.6877 68.891 45.2537 68.6701 39.204C68.5342 35.5504 65.7982 35.0576 65.7473 30.0105C65.7473 29.6707 65.7643 29.3478 65.7982 29.0419C61.108 27.5635 61.8558 22.5334 63.9799 22.2615C65.4584 22.0746 66.2401 22.9073 66.6309 23.604C66.6649 23.706 66.7159 23.7909 66.7669 23.8929C67.1067 24.4707 71.1172 23.3831 74.176 21.4968C75.9603 20.3922 78.7473 18.489 79.512 16.3988C79.546 16.3138 80.0897 18.9308 82.6388 22.3295C82.5198 24.3517 83.0296 29.3988 80.4466 33.5622C78.5773 36.604 76.2322 36.8759 76.2322 36.8759C76.2322 38.8981 79.8178 38.7962 81.3133 39.136C83.1826 39.5439 85.0348 40.6654 85.0348 40.6654C85.0348 40.6654 87.176 37.7256 85.3577 33.0864Z" fill="#2E3543"/>
<path d="M94.9748 14.3255C105.29 34.1908 87.1578 56.6052 65.5421 51.1333C55.8388 48.7202 48.0388 40.3085 46.4244 30.4353C44.5891 20.6131 49.0244 10.0601 57.3173 4.50325C68.6859 -3.31374 84.4388 -0.713744 92.5787 10.468C92.6297 10.5189 92.6127 10.6039 92.5447 10.6549C92.4937 10.7059 92.4088 10.6889 92.3578 10.6209C91.2362 9.17645 89.9617 7.86796 88.5682 6.69541C86.2741 4.74116 83.5891 3.21175 80.7512 2.17515C66.3068 -3.05884 50.4519 5.64181 47.2911 20.749C43.7225 37.6745 58.1159 53.2575 75.2793 50.9294C88.5173 49.264 98.3565 37.0457 97.2689 23.7568C97.031 20.5451 96.1813 17.3673 94.7709 14.4444C94.7369 14.3934 94.7708 14.3255 94.8218 14.2915C94.8728 14.2575 94.9408 14.2745 94.9748 14.3255Z" fill="#2E3543"/>
</g>
<mask id="mask2_674_22280" style="mask-type:alpha" maskUnits="userSpaceOnUse" x="92" y="0" width="52" height="52">
<circle cx="117.915" cy="25.9148" r="25.9148" fill="#D9D9D9"/>
</mask>
<g mask="url(#mask2_674_22280)">
<circle cx="118" cy="26" r="26" fill="white"/>
<path d="M132.121 47.3094C132.002 47.3944 131.866 47.4794 131.747 47.5643C131.611 47.6493 131.492 47.7343 131.356 47.8022C131.237 47.8702 131.135 47.9382 131.016 48.0062C130.999 48.0231 130.982 48.0232 130.965 48.0401C130.574 48.2781 130.167 48.499 129.759 48.7029C129.64 48.7709 129.504 48.8388 129.385 48.8898C129.385 48.8898 129.368 48.9068 129.351 48.9068C129.215 48.9748 129.079 49.0428 128.943 49.1107C128.671 49.2467 128.382 49.3656 128.11 49.4846C127.974 49.5526 127.822 49.6035 127.686 49.6545C127.55 49.7055 127.397 49.7735 127.261 49.8245C127.125 49.8754 126.972 49.9434 126.836 49.9944C126.836 49.9944 126.836 49.9944 126.819 49.9944C126.683 50.0454 126.53 50.0964 126.394 50.1473C126.088 50.2493 125.765 50.3513 125.459 50.4532C125.357 50.4872 125.239 50.5212 125.137 50.5552C124.814 50.6571 124.491 50.7421 124.168 50.8101C124.049 50.8441 123.93 50.8611 123.794 50.895C123.488 50.963 123.165 51.031 122.859 51.099C122.791 51.116 122.74 51.116 122.672 51.133C122.571 51.1499 122.452 51.1669 122.35 51.1839C122.197 51.2009 122.061 51.2349 121.908 51.2519C121.84 51.2689 121.772 51.2689 121.704 51.2859C121.619 51.3029 121.517 51.3199 121.415 51.3199C121.143 51.3539 120.854 51.3879 120.582 51.4218C120.497 51.4388 120.395 51.4388 120.31 51.4558H120.293C120.174 51.4728 120.056 51.4728 119.937 51.4898C119.818 51.5068 119.699 51.5068 119.58 51.5068C119.512 51.5068 119.427 51.5238 119.359 51.5238C119.223 51.5238 119.104 51.5408 118.985 51.5408C118.815 51.5408 118.662 51.5578 118.492 51.5578C118.322 51.5578 118.169 51.5578 117.999 51.5578C117.88 51.5578 117.761 51.5578 117.642 51.5578C110.471 51.4558 104.031 48.414 99.4254 43.5879C99.4254 43.5879 99.4254 43.5709 99.4084 43.5709C98.8986 43.112 99.3405 40.665 101.397 39.1186C103.98 37.1643 110.165 35.9408 110.165 35.9408C110.165 35.9408 112.561 35.5499 121.449 37.4022C126.649 38.4898 130.608 40.0702 132.818 44.3526C133.276 45.2362 133.735 46.5957 132.121 47.3094Z" fill="white"/>
<path d="M121.5 37.2155C124.763 37.8782 128.247 38.592 130.932 40.7501C131.832 41.4809 132.427 42.5514 132.92 43.588C133.158 44.0979 133.396 44.6247 133.583 45.1854C133.685 45.5593 133.838 45.9841 133.753 46.426C133.736 46.5449 133.634 46.6979 133.549 46.7828C133.158 47.1737 132.733 47.4116 132.308 47.7175C129.81 49.4508 126.938 50.6743 123.964 51.3201C117.337 52.7645 110.166 51.643 104.337 48.1593C102.4 46.9867 100.615 45.5593 99.086 43.8769C98.916 43.673 98.916 43.3331 98.916 43.1122C98.933 42.6024 99.069 42.1096 99.2389 41.6508C99.6467 40.5972 100.174 39.5436 101.074 38.8129C101.72 38.3711 102.417 37.9972 103.13 37.6913C105.374 36.7397 107.736 36.0769 110.166 35.805C110.37 35.788 110.404 36.0769 110.2 36.1109C107.872 36.5867 105.56 37.3005 103.402 38.2691C102.621 38.6599 101.788 38.9998 101.159 39.6116C100.564 40.2573 100.14 41.056 99.7997 41.8717C99.5788 42.3645 99.4258 43.1462 99.4938 43.5371C100.564 44.8116 101.822 45.9331 103.181 46.9018C110.625 52.1018 121.925 52.4416 129.844 48.1083C130.558 47.7175 131.255 47.2756 131.917 46.8168C132.24 46.5959 132.58 46.409 132.835 46.1541C132.852 46.1371 132.835 46.1541 132.835 46.1711C132.835 46.1881 132.818 46.205 132.818 46.205C132.835 46.0011 132.767 45.7292 132.682 45.4573C132.376 44.4717 131.883 43.4351 131.357 42.5345C130.524 41.192 129.113 40.3423 127.686 39.6626C126.7 39.2037 125.664 38.8469 124.61 38.507C123.557 38.1671 122.486 37.8782 121.415 37.6233C121.143 37.5554 121.228 37.1645 121.5 37.2155Z" fill="#2E3543"/>
<path d="M134.449 49.7228C134.126 47.2077 132.699 42.9763 131.832 41.8378C130.881 40.5973 130.49 40.2064 127.312 39.1358C127.142 38.2861 126.513 36.145 125.765 35.2443C124.627 33.528 121.517 33.1371 120.582 33.341C120.582 33.341 115.552 31.5737 109.758 31.5737C107.922 31.9816 105.798 32.8143 104.643 34.5646C103.861 35.7201 104.745 36.094 104.354 37.1476C104.252 37.4195 101.873 38.779 100.904 39.5946C100.462 39.9515 99.9694 40.8522 99.6295 42.0247C98.9498 44.4208 99.6805 47.7345 98.8308 50.6234C97.1995 56.1973 93.8857 57.8626 93.8857 57.8626H137.797C137.763 57.8456 135.146 55.0247 134.449 49.7228Z" fill="white"/>
<path d="M134.195 49.7569C133.855 47.5308 133.175 45.3216 132.308 43.2484C131.884 42.2458 131.238 41.2772 130.337 40.6824C129.878 40.3935 129.369 40.1726 128.842 39.9517C128.315 39.7478 127.771 39.5608 127.244 39.3739C127.159 39.3399 127.091 39.272 127.074 39.187C127.006 38.8471 126.921 38.5242 126.819 38.1844C126.378 36.8079 125.902 35.2785 124.61 34.4798C123.625 33.885 122.452 33.5961 121.314 33.5452C121.093 33.5452 120.855 33.5452 120.651 33.5791H120.583C120.566 33.5791 120.532 33.5791 120.515 33.5622C119.699 33.1713 118.799 32.9334 117.915 32.6955C115.264 32.0837 112.494 31.8288 109.775 31.8118C108.11 32.2027 105.782 33.1203 104.762 34.8197C104.592 35.0916 104.507 35.3635 104.541 35.6693C104.575 36.0092 104.694 36.3831 104.609 36.7399C104.575 36.8929 104.541 37.0628 104.473 37.1988C104.337 37.3857 104.116 37.5046 103.946 37.6236C103.063 38.2014 102.162 38.7112 101.312 39.3059C101.023 39.5099 100.752 39.6968 100.548 39.9857C99.9528 40.8354 99.596 41.855 99.443 42.8746C99.1711 44.9478 99.443 47.055 99.1711 49.1282C98.8652 51.2014 98.0665 53.2066 96.945 54.9739C96.1633 56.1635 95.2116 57.268 94.0051 58.0327L93.8862 57.5569H137.797L137.61 57.9818C137.101 57.404 136.693 56.7752 136.319 56.1125C135.163 54.1752 134.484 51.9831 134.195 49.7569ZM134.704 49.6889C134.891 51.1334 135.248 52.5608 135.792 53.9203C136.336 55.2628 137.016 56.5713 137.967 57.6759C138.103 57.8288 137.984 58.1177 137.78 58.1007H93.8692C93.7332 58.1007 93.6143 57.9818 93.6143 57.8458C93.6143 57.7438 93.6652 57.6589 93.7502 57.6249C94.0221 57.472 94.294 57.251 94.5489 57.0301C96.775 55.0249 98.1685 52.051 98.6273 49.0942C99.0182 46.3242 98.2875 43.3334 99.528 40.6994C99.8169 40.0876 100.174 39.4419 100.752 39.051C101.805 38.2693 102.961 37.6916 103.997 36.9269C104.014 36.9269 104.014 36.9099 104.014 36.9099C103.997 36.9269 103.98 36.9608 103.98 36.9778C104.082 36.7399 104.116 36.536 104.082 36.2641C104.031 35.9242 103.946 35.4654 104.065 35.1086C104.116 34.9046 104.218 34.7177 104.32 34.5648C105.544 32.7295 107.702 31.9138 109.758 31.455C110.336 31.472 110.931 31.37 111.508 31.37C112.307 31.37 113.123 31.4889 113.921 31.5909C116.216 31.9478 118.425 32.5595 120.685 33.0523L120.532 33.0354C121.059 32.9334 121.552 32.9844 122.061 33.0523C125.324 33.5452 126.429 34.9726 127.312 38.0144C127.414 38.3543 127.499 38.6942 127.584 39.051L127.414 38.8471C129.046 39.4249 130.881 39.9517 131.918 41.4641C132.291 41.9229 132.563 42.4667 132.801 43.0105C133.668 45.1857 134.348 47.3778 134.704 49.6889Z" fill="#2E3543"/>
<path d="M107.668 38.5412C108.926 41.2261 110.88 43.5033 113.208 45.3046C113.293 45.3725 113.208 45.5085 113.106 45.4575C111.033 44.4719 109.282 42.7895 108.246 40.7503C107.906 40.0706 107.617 39.3399 107.515 38.5751C107.481 38.4902 107.617 38.4562 107.668 38.5412Z" fill="#2E3543"/>
<path d="M127.567 39.1019C127.618 41.9398 126.463 44.8456 124.253 46.6809C124.202 46.7319 124.134 46.7149 124.084 46.6639C124.033 46.613 124.05 46.545 124.101 46.494C124.593 46.0182 125.086 45.5254 125.46 44.9476C126.242 43.826 126.718 42.5005 126.938 41.1581C127.04 40.4953 127.108 39.7816 127.057 39.1188C127.04 38.796 127.55 38.762 127.567 39.1019Z" fill="#2E3543"/>
<path d="M117.558 45.8483C117.167 47.2248 116.844 48.7202 117.031 50.1477C117.082 50.4706 116.589 50.5555 116.521 50.2156C116.436 49.4339 116.538 48.6692 116.674 47.9215C116.827 47.1738 117.014 46.4601 117.269 45.7464C117.337 45.5764 117.626 45.6614 117.558 45.8483Z" fill="#2E3543"/>
<path d="M122.962 45.5935C123.523 46.8 123.914 48.0575 124.22 49.332C124.254 49.468 124.169 49.6039 124.033 49.6379C123.897 49.6719 123.761 49.5869 123.727 49.451C123.557 48.4993 123.336 47.5477 123.03 46.6131C122.928 46.3072 122.826 46.0013 122.707 45.6954C122.639 45.5425 122.877 45.4235 122.962 45.5935Z" fill="#2E3543"/>
<path d="M104.711 37.0797C105.34 40.5123 107.753 43.4182 110.659 45.2705C111.644 45.8993 112.698 46.4431 113.786 46.8849C113.854 46.9189 113.888 46.9869 113.854 47.0548C113.837 47.1228 113.752 47.1568 113.701 47.1228C112.579 46.715 111.492 46.2052 110.472 45.5934C108.399 44.3699 106.58 42.6705 105.357 40.5973C104.728 39.5267 104.235 38.4052 103.997 37.1816C103.963 36.9777 104.099 36.7908 104.303 36.7568C104.49 36.7058 104.694 36.8588 104.711 37.0797Z" fill="#2E3543"/>
<path d="M116.539 50.5215C116.063 50.4705 115.723 50.0287 115.825 49.5529L116.012 48.6522C116.08 48.2954 116.42 48.0405 116.776 48.0915C117.133 48.1254 117.422 48.4313 117.422 48.8052V49.7228C117.439 50.1986 117.031 50.5725 116.539 50.5215Z" fill="#2E3543"/>
<path d="M124.372 49.8927C123.914 50.0626 123.421 49.7907 123.302 49.3149L123.081 48.4143C122.996 48.0574 123.183 47.7005 123.54 47.5646C123.88 47.4456 124.27 47.5986 124.423 47.9214L124.831 48.7541C125.035 49.213 124.831 49.7397 124.372 49.8927Z" fill="#2E3543"/>
<path d="M132.224 49.3829C132.224 49.3829 133.175 54.7189 132.801 57.8457" stroke="#2E3543" stroke-width="0.644984" stroke-miterlimit="10" stroke-linecap="round" stroke-linejoin="round"/>
<path d="M110.03 36.4679C109.792 35.7882 109.69 35.0914 109.741 34.3777C109.741 34.3097 109.792 34.2758 109.86 34.2758C109.911 34.2758 109.962 34.3267 109.962 34.3777C110.013 35.0235 110.2 35.6862 110.506 36.247C110.659 36.5869 110.149 36.8078 110.03 36.4679Z" fill="#2E3543"/>
<path d="M121.517 37.3686C121.041 36.298 119.869 35.7542 118.832 35.3804C118.186 35.1764 117.473 35.0235 116.793 34.9215C115.144 34.6666 112.816 34.2758 111.168 34.1058C111.151 34.1058 111.151 34.0719 111.168 34.0719C111.644 34.0209 112.12 34.0209 112.595 34.0209C114.023 34.0549 115.45 34.2078 116.861 34.4287C118.271 34.6496 119.784 35.0745 120.854 36.0941C121.194 36.4509 121.5 36.8588 121.585 37.3516C121.602 37.4026 121.534 37.4196 121.517 37.3686Z" fill="#2E3543"/>
<path d="M123.098 41.7363C122.741 43.4866 120.43 44.5402 116.538 42.9598C112.494 41.3285 110.744 37.437 110.302 36.2814C112.698 31.7951 111.032 28.6853 111.032 28.6853C116.555 28.2095 121.381 34.667 121.381 34.667L122.129 37.8618C122.197 38.1337 122.333 38.3716 122.537 38.5415C122.894 39.1703 123.319 40.6147 123.098 41.7363Z" fill="white"/>
<path d="M110.217 36.3324C110.54 35.8395 110.744 35.2618 110.88 34.701C111.135 33.5284 111.22 32.3389 111.237 31.1494V30.7075C111.186 30.2657 111.033 29.8069 110.863 29.399C110.642 28.8552 111.441 28.5154 111.696 29.0592C111.73 29.1271 111.73 29.2461 111.73 29.3141C111.781 31.6252 111.883 34.599 110.421 36.5193C110.319 36.6212 110.115 36.4683 110.217 36.3324Z" fill="#2E3543"/>
<path d="M121.569 34.633C121.824 34.786 121.909 34.9899 121.943 35.1938C122.044 35.6016 122.01 36.0435 122.112 36.4683C122.197 36.8762 122.452 37.267 122.52 37.6918C122.605 38.1337 122.86 39.0683 122.962 39.5271C122.996 39.6291 122.928 39.7481 122.809 39.765C122.741 39.782 122.69 39.765 122.639 39.7311C122.418 39.5441 122.316 39.3572 122.18 39.1193C121.96 38.7115 121.807 38.3376 121.671 37.8788C121.552 37.4709 121.603 37.0291 121.501 36.6043C121.416 36.1964 121.178 35.8056 121.093 35.3807C121.042 35.1768 121.025 34.9559 121.178 34.701C121.28 34.599 121.45 34.565 121.569 34.633Z" fill="#2E3543"/>
<path d="M122.792 39.1192C119.546 38.9493 116.896 37.9297 114.312 33.3245C116.488 35.2447 119.054 35.9754 121.756 36.3153L122.112 37.8787C122.18 38.1506 122.588 38.9493 122.792 39.1192Z" fill="#2E3543"/>
<path d="M122.657 38.4906C123.234 39.5781 123.574 40.9376 123.217 42.1442C122.946 42.9938 122.164 43.6226 121.314 43.8605C119.343 44.3873 117.066 43.5546 115.316 42.62C113.157 41.4134 111.56 39.3912 110.54 37.1821C110.472 37.0121 110.71 36.8762 110.812 37.0461C111.169 37.7598 111.577 38.4566 112.036 39.0853C112.495 39.7311 113.021 40.3258 113.616 40.8526C115.349 42.416 117.695 43.3847 120.04 43.3847C122.453 43.3167 123.37 42.0422 122.81 39.6971C122.725 39.3232 122.589 38.9324 122.402 38.6095C122.3 38.4736 122.555 38.3206 122.657 38.4906Z" fill="#2E3543"/>
<path d="M129.233 18.0811C129.539 19.5086 129.301 20.4602 129.165 24.4027C129.097 26.2719 128.808 26.9687 128.723 29.0589C128.689 30.0105 127.993 31.319 127.738 32.0837C127.398 33.1203 127.058 34.5138 126.276 35.5164C125.868 36.0262 125.376 36.3321 124.56 36.468C124.288 36.519 124.016 36.1112 123.795 36.1961C121.127 37.3687 118.204 36.8249 115.553 34.5138C114.398 33.4942 112.664 31.0301 111.934 29.3308C111.781 28.9739 111.101 29.7216 110.132 28.651C108.79 27.1896 107.176 24.2497 107.974 19.0497C109.266 10.621 115.944 9.63535 120.889 10.57C125.868 11.5046 128.417 14.3255 129.233 18.0811Z" fill="white"/>
<path d="M110.982 30.1463C110.591 29.5006 110.081 28.9228 109.622 28.311C108.942 27.3764 108.433 26.3058 108.093 25.2012C106.342 19.7293 108.008 12.3032 114.125 10.5359C116.369 9.85614 118.748 9.90712 121.025 10.332C124.084 10.8588 127.142 12.4222 128.638 15.2601C129.182 16.3137 129.589 17.4522 129.708 18.6248C129.776 19.4065 129.64 20.1882 129.555 20.9529C129.454 21.7176 129.437 22.4653 129.403 23.23C129.318 24.3686 129.165 25.4901 129.114 26.6287C129.046 27.3934 129.097 28.1581 128.978 28.9228C128.723 30.4522 128.145 31.8797 127.669 33.3241C127.295 34.4287 126.921 35.7882 125.783 36.3489C124.967 36.8418 123.982 36.8588 123.081 36.7908C122.945 36.7908 122.843 36.7568 122.741 36.7908C120.549 37.2156 118.51 36.8418 116.674 35.5163C115.791 34.8195 114.737 34.1568 114.074 33.2391C114.006 33.1372 114.142 33.0182 114.227 33.1032C114.754 33.63 115.383 34.0378 116.029 34.4287C116.691 34.8365 117.286 35.2614 117.949 35.5503C119.359 36.23 120.94 36.332 122.469 36.0601C122.554 36.0431 122.724 36.0091 122.809 36.0261C123.37 36.0601 123.914 36.111 124.457 36.0261C125.12 35.9241 125.766 35.6352 126.14 35.0914C126.531 34.5476 126.735 33.7999 127.006 33.0862C127.533 31.6757 128.162 30.2823 128.485 28.8208C128.621 28.1921 128.655 27.2404 128.706 26.5777C128.825 25.0653 129.097 23.5699 129.097 22.0405C129.114 21.2757 129.131 20.511 129.114 19.7633C128.91 15.9568 126.718 12.694 123.098 11.3516C119.071 9.83915 113.701 9.94111 110.744 13.4588C109.316 15.1411 108.654 17.3503 108.348 19.5084C107.77 22.9411 107.991 26.3398 110.727 28.8378L111.525 29.6705C111.831 30.1123 111.254 30.5542 110.982 30.1463Z" fill="#2E3543"/>
<path d="M112.986 24.7426C112.986 24.7426 112.46 22.1936 109.979 22.4995C107.837 22.7714 107.09 27.9034 111.95 29.3309" fill="white"/>
<path d="M111.729 27.1047C111.338 26.8838 111.066 26.5099 111.049 26.0511C111.066 25.7112 111.117 25.3204 111.032 24.9805C110.981 24.6576 110.642 24.5727 110.387 24.5896C110.115 24.6406 109.945 24.9805 109.894 25.2524C109.894 25.2694 109.877 25.3204 109.877 25.3374C109.86 25.4223 109.724 25.4223 109.69 25.3374C109.469 24.6746 109.962 23.9439 110.676 24.0289C111.678 24.0968 111.814 25.1504 111.627 25.9491C111.525 26.289 111.661 26.5949 111.848 26.8838L111.882 26.9347C111.967 27.0367 111.831 27.1727 111.729 27.1047Z" fill="#2E3543"/>
<path d="M125.324 22.9413C125.579 24.1478 126.055 25.2694 126.65 26.323C127.177 27.6145 125.817 28.838 124.611 28.787C124.475 28.787 124.458 28.6001 124.577 28.5661C125.341 28.3282 126.038 27.8184 126.157 27.0367C126.208 26.7988 126.14 26.5949 126.021 26.391C125.46 25.3374 125.12 24.1308 125.205 22.9413C125.205 22.8563 125.324 22.8563 125.324 22.9413Z" fill="#2E3543"/>
<path d="M112.902 24.7595C112.511 23.7569 111.661 22.8053 110.523 22.8223C110.421 22.8053 110.251 22.8393 110.149 22.8393C109.86 22.8563 109.622 22.9582 109.401 23.1622C108.314 24.2497 108.501 26.17 109.384 27.3765C109.69 27.8014 110.081 28.1752 110.523 28.4811C110.965 28.787 111.457 29.0249 111.984 29.2288C112.103 29.2628 112.052 29.4497 111.933 29.4327C110.795 29.1948 109.707 28.634 108.959 27.6994C107.804 26.3059 107.566 23.9778 108.942 22.6184C109.248 22.3465 109.673 22.1425 110.098 22.1425C110.234 22.1425 110.438 22.1086 110.574 22.1425C111.288 22.1765 111.967 22.5334 112.409 23.0942C112.8 23.57 113.021 24.1478 113.089 24.7256C113.089 24.8275 112.936 24.8615 112.902 24.7595Z" fill="#2E3543"/>
<path d="M122.418 36.1622C123.2 35.9923 123.659 35.2276 123.591 34.4459C123.574 34.3269 123.761 34.293 123.778 34.4119C124.067 35.3805 123.54 36.4341 122.605 36.808C122.113 36.9949 121.909 36.2472 122.418 36.1622Z" fill="#2E3543"/>
<path d="M124.033 30.4862C122.946 31.5228 120.889 30.6901 120.346 29.4326C120.278 29.2797 120.448 29.1437 120.583 29.2117C120.872 29.3646 121.127 29.5176 121.399 29.6365C122.181 29.9934 122.997 30.2823 123.863 30.1973C124.033 30.1633 124.152 30.3673 124.033 30.4862Z" fill="#2E3543"/>
<path d="M121.603 20.732C121.976 20.698 122.163 20.2562 121.959 19.9163C121.84 19.7464 121.688 19.5935 121.467 19.5085C120.821 19.3046 118.714 19.7634 117.796 20.817C116.98 21.7856 119.903 20.885 121.603 20.732Z" fill="#2E3543"/>
<path d="M126.089 21.0041C125.8 20.9191 125.715 20.4943 125.953 20.2224C126.072 20.0864 126.241 19.9675 126.428 19.9335C127.006 19.8315 128.332 20.3583 128.706 21.361C129.045 22.2276 127.465 21.344 126.089 21.0041Z" fill="#2E3543"/>
<path d="M118.986 24.6747C118.578 24.6577 118.272 24.3178 118.306 23.91L118.323 23.4341C118.34 23.0263 118.68 22.7204 119.088 22.7544C119.496 22.7714 119.802 23.1113 119.768 23.5191L119.751 23.9949C119.734 24.3858 119.394 24.6917 118.986 24.6747Z" fill="#2E3543"/>
<path d="M126.14 24.9296C125.766 24.9126 125.477 24.5897 125.494 24.2159L125.511 23.774C125.528 23.4002 125.851 23.1113 126.225 23.1283C126.598 23.1453 126.887 23.4681 126.87 23.842L126.853 24.2838C126.836 24.6577 126.513 24.9466 126.14 24.9296Z" fill="#2E3543"/>
<path d="M120.515 23.757C119.954 23.3832 119.342 23.1283 118.663 23.2642C118.442 23.2982 118.221 23.3662 118.085 23.5191C118.034 23.5871 117.915 23.5701 117.915 23.4681C117.932 23.1283 118.221 22.9073 118.493 22.7714C119.02 22.4995 119.75 22.5505 120.226 22.9074C120.396 23.0093 120.974 23.6381 120.668 23.774C120.6 23.808 120.566 23.791 120.515 23.757Z" fill="#2E3543"/>
<path d="M125.375 23.8421C125.375 23.1284 126.259 22.8735 126.802 23.1284C127.108 23.2643 127.329 23.5362 127.414 23.8591C127.448 23.9611 127.295 24.046 127.227 23.9611C126.938 23.6212 126.446 23.4513 126.055 23.6552C125.936 23.7232 125.919 23.7741 125.885 23.8421C125.885 24.182 125.392 24.165 125.375 23.8421Z" fill="#2E3543"/>
<path d="M131.425 19.2196C130.949 20.698 129.811 21.9386 129.08 22.7712C129.25 21.9726 129.097 21.4967 129.131 20.9359C129.182 20.1712 129.454 19.3216 129.403 18.9817C129.369 18.6758 129.301 18.3869 129.233 18.081C129.148 17.7072 129.046 17.3503 128.927 16.9935C126.259 19.5935 121.688 17.0275 121.688 17.0275C121.688 17.0275 120.719 17.8261 119.02 17.6392C117.202 17.4523 116.709 16.3307 116.709 16.3307C116.216 19.7634 112.97 18.4549 113.565 21.8706C113.735 22.8052 113.735 23.7059 112.936 24.6405C112.8 24.1647 112.137 22.2275 109.962 22.4993C107.906 22.7542 107.124 27.5124 111.373 29.1438C111.322 30.7242 111.492 32.8654 111.322 32.3046C110.132 28.634 107.753 29.2118 106.632 26.4418C106.105 25.1163 106.19 23.9438 106.462 23.0771C106.734 22.2444 106.717 21.3438 106.445 20.5111C106.139 19.5425 105.901 18.081 106.462 16.3137C107.413 13.2889 109.452 12.5922 109.979 12.2353C110.506 11.8784 110.251 8.61569 113.939 7.59608C116.879 6.78039 119.088 8.49673 119.734 8.37778C120.379 8.25883 124.9 5.28497 128.383 8.08889C131.748 10.8078 130.49 14.0196 130.49 14.0196C130.49 14.0196 132.581 15.634 131.425 19.2196Z" fill="#2E3543"/>
<path d="M121.739 26.7816C120.957 26.7986 118.544 26.8156 117.797 26.8326C116.505 26.8496 115.536 25.728 115.655 24.4535C115.672 24.0287 115.655 23.4339 115.672 23.0091C115.706 21.9045 116.692 20.9698 117.797 21.0038L120.668 21.0378C120.889 21.0378 121.518 21.0548 121.739 21.0548C122.657 21.0378 123.523 21.7176 123.727 22.6182C123.795 22.8731 123.778 23.145 123.778 23.3659V24.8104C123.761 25.881 122.81 26.7986 121.739 26.7816ZM121.739 26.4077C122.623 26.4417 123.438 25.677 123.455 24.7934C123.472 24.3345 123.455 23.8417 123.455 23.3659C123.557 22.3293 122.776 21.3777 121.722 21.4117C120.991 21.4287 118.544 21.4457 117.78 21.4627C116.862 21.4627 116.08 22.2953 116.148 23.213C116.148 23.3319 116.148 23.6378 116.148 23.7568C116.165 24.1306 116.114 24.7764 116.199 25.1162C116.369 25.83 117.049 26.3738 117.78 26.3738H118.136C118.629 26.3738 121.229 26.4077 121.739 26.4077Z" fill="#2E3543"/>
<path d="M128.588 21.4966L127.245 21.5136C126.871 21.5306 126.429 21.4627 126.107 21.6836C125.801 21.8875 125.665 22.2614 125.682 22.6182C125.682 23.06 125.682 23.5189 125.665 23.9607L125.648 23.8927C125.886 24.7254 126.208 25.5241 126.701 26.2208L126.531 26.1189C126.667 26.1529 126.905 26.1529 127.041 26.1529C127.551 26.1698 128.146 26.2038 128.656 26.2038C129.131 26.2038 129.59 25.847 129.692 25.3712C129.726 25.2352 129.726 24.9973 129.726 24.8614C129.726 24.1306 129.743 23.4169 129.709 22.6862C129.743 22.0404 129.25 21.4627 128.588 21.4966ZM128.588 20.9868C129.488 20.9868 130.117 21.8535 129.964 22.7032C129.93 23.4339 129.947 24.1476 129.947 24.8783C130.032 25.728 129.522 26.4927 128.639 26.5607C128.265 26.5777 127.908 26.5777 127.551 26.5947C127.364 26.5947 126.905 26.6287 126.735 26.6287C126.65 26.6457 126.514 26.6287 126.429 26.6287C126.361 26.6287 126.293 26.5777 126.259 26.5267C125.733 25.745 125.359 24.8783 125.138 23.9777C125.138 23.3999 125.087 22.8221 125.138 22.2444C125.24 21.5646 125.852 20.9868 126.548 20.9698C127.024 20.9529 128.112 20.9868 128.588 20.9868Z" fill="#2E3543"/>
<path d="M123.591 22.5503C124.05 22.3463 124.56 22.2614 125.07 22.2954C125.24 22.3124 125.41 22.3633 125.563 22.4993L125.784 22.6862C126.005 22.8731 125.733 23.196 125.512 23.0091C125.24 22.7712 124.917 22.8052 124.594 22.8222C124.271 22.8562 123.965 22.9241 123.659 23.0431C123.371 23.162 123.184 22.7372 123.455 22.6013L123.591 22.5503Z" fill="#2E3543"/>
<path d="M115.944 23.162C115.825 23.4339 115.689 23.4679 115.469 23.4509L114.976 23.4679C113.99 23.4679 112.987 23.4509 112.002 23.298C111.662 23.281 111.645 22.8052 111.985 22.7882L115.927 22.6522C116.046 22.6522 116.131 22.7712 116.08 22.8731L115.944 23.162Z" fill="#2E3543"/>
<path d="M140.975 14.3255C151.29 34.1908 133.158 56.6052 111.542 51.1333C101.839 48.7202 94.0388 40.3085 92.4244 30.4353C90.5891 20.6131 95.0244 10.0601 103.317 4.50325C114.686 -3.31374 130.439 -0.713744 138.579 10.468C138.63 10.5189 138.613 10.6039 138.545 10.6549C138.494 10.7059 138.409 10.6889 138.358 10.6209C137.236 9.17645 135.962 7.86796 134.568 6.69541C132.274 4.74116 129.589 3.21175 126.751 2.17515C112.307 -3.05884 96.4519 5.64181 93.2911 20.749C89.7225 37.6745 104.116 53.2575 121.279 50.9294C134.517 49.264 144.356 37.0457 143.269 23.7568C143.031 20.5451 142.181 17.3673 140.771 14.4444C140.737 14.3934 140.771 14.3255 140.822 14.2915C140.873 14.2575 140.941 14.2745 140.975 14.3255Z" fill="#2E3543"/>
</g>
</svg>
