<svg width="132" height="330" viewBox="0 0 132 330" fill="none" xmlns="http://www.w3.org/2000/svg">
<path d="M99.2236 287.464L102.203 308.37L109.82 308.399L110.179 287.839L99.2236 287.464Z" fill="white"/>
<path d="M109.82 308.982C110.137 308.982 110.398 308.726 110.404 308.41L110.762 287.849C110.768 287.53 110.517 287.266 110.198 287.256L99.2421 286.881C99.068 286.873 98.9044 286.944 98.7883 287.074C98.6722 287.203 98.622 287.374 98.6458 287.546L101.625 308.452C101.667 308.739 101.91 308.95 102.2 308.953L109.82 308.982C109.818 308.982 109.818 308.982 109.82 308.982ZM109.586 288.401L109.248 307.811L102.709 307.787L99.9018 288.071L109.586 288.401Z" fill="#2E3543"/>
<path d="M101.944 328.355C104.934 328.675 109.385 328.801 115.335 328.279C117.462 328.091 118.963 326.12 118.62 324.012C117.697 318.339 115.119 308.331 111.055 303.739L109.047 306.6L107.857 303.644C107.665 303.325 102.617 303.114 102.511 303.713L102.205 306.6L99.3399 303.389L99.4982 313.935C99.5166 315.099 99.4058 316.262 99.171 317.405L98.419 321.052C97.9651 323.247 98.5272 325.572 100.06 327.205C100.651 327.843 101.316 328.287 101.944 328.355Z" fill="white"/>
<path d="M107.731 329.215C109.868 329.215 112.414 329.12 115.385 328.859C116.565 328.756 117.618 328.181 118.349 327.242C119.077 326.305 119.386 325.091 119.196 323.917C118.953 322.429 116.678 309.215 111.493 303.351C111.375 303.217 111.209 303.148 111.024 303.156C110.847 303.167 110.681 303.257 110.581 303.404L109.19 305.386L108.401 303.425C108.39 303.396 108.375 303.37 108.359 303.344C107.879 302.541 103.562 302.766 102.965 302.874C102.712 302.921 102.037 303.045 101.936 303.61L101.765 305.228L99.7753 302.998C99.6118 302.816 99.3532 302.755 99.1289 302.842C98.902 302.929 98.7542 303.151 98.7568 303.394L98.9152 313.94C98.931 315.062 98.8254 316.186 98.5985 317.281L97.8465 320.927C97.3399 323.373 98.0101 325.867 99.6329 327.598C100.377 328.392 101.158 328.851 101.889 328.93C103.285 329.086 105.227 329.215 107.731 329.215ZM111.092 304.697C114.852 309.489 117.217 319.041 118.043 324.104C118.182 324.962 117.958 325.843 117.428 326.527C116.9 327.205 116.137 327.622 115.283 327.698C108.926 328.255 104.554 328.049 102.005 327.775C101.562 327.727 101.018 327.382 100.475 326.804C99.1104 325.35 98.551 323.241 98.9811 321.168L99.7331 317.521C99.9759 316.341 100.092 315.13 100.074 313.927L99.9389 304.945L101.762 306.99C101.915 307.162 102.158 307.228 102.377 307.156C102.596 307.085 102.754 306.893 102.778 306.663L103.058 304.043C103.849 303.845 106.594 303.903 107.401 304.088L108.501 306.821C108.58 307.019 108.763 307.159 108.976 307.183C109.187 307.207 109.398 307.114 109.52 306.937L111.092 304.697Z" fill="#2E3543"/>
<path d="M107.39 325.487C109.48 325.487 112.071 325.326 115.008 324.811C115.324 324.756 115.538 324.452 115.482 324.136C115.427 323.819 115.124 323.608 114.807 323.663C107.435 324.959 102.189 323.927 102.136 323.917C101.814 323.851 101.514 324.057 101.448 324.373C101.384 324.69 101.587 324.996 101.904 325.062C102.039 325.083 104.081 325.487 107.39 325.487Z" fill="#2E3543"/>
<path d="M104.954 317.471H111.865C112.187 317.471 112.448 317.209 112.448 316.887C112.448 316.566 112.187 316.304 111.865 316.304H104.954C104.632 316.304 104.371 316.566 104.371 316.887C104.371 317.209 104.632 317.471 104.954 317.471Z" fill="#2E3543"/>
<path d="M44.5425 289.333L41.8616 313.695L31.6132 315.843L32.2359 287.272L44.5425 289.333Z" fill="white"/>
<path d="M31.613 316.426C31.6526 316.426 31.6922 316.421 31.7318 316.413L41.9802 314.268C42.2256 314.215 42.4129 314.012 42.4393 313.761L45.1202 289.396C45.1545 289.087 44.9408 288.808 44.6373 288.758L32.3334 286.699C32.1671 286.67 31.9956 286.718 31.8663 286.826C31.737 286.934 31.6579 287.093 31.6553 287.261L31.0325 315.83C31.0273 316.007 31.1064 316.178 31.2436 316.292C31.3465 316.379 31.4785 316.426 31.613 316.426ZM41.3285 313.212L32.2146 315.12L32.8083 287.961L43.9038 289.816L41.3285 313.212Z" fill="#2E3543"/>
<path d="M46.1948 325.313C46.4191 321.044 46.427 313.181 43.8253 309.392L35.6271 312.31V310.558C35.6271 309.993 35.2234 309.529 34.7115 309.5L30.1388 309.239C28.4316 309.141 26.7323 309.495 25.1729 310.26C20.5764 312.521 6.59165 318.316 4.65226 324.833C4.07967 326.757 5.58369 328.677 7.58905 328.736C12.1908 328.867 23.2572 329.013 43.1156 328.332C44.7726 328.279 46.1078 326.968 46.1948 325.313Z" fill="white"/>
<path d="M16.7659 329.432C22.8664 329.432 31.4894 329.316 43.1363 328.917C45.1074 328.851 46.6747 327.313 46.7776 325.344C47.0098 320.946 46.9966 312.983 44.3052 309.062C44.1548 308.843 43.8751 308.753 43.6297 308.842L36.2099 311.484V310.56C36.2099 309.687 35.5661 308.967 34.7428 308.919L30.1701 308.658C28.3758 308.558 26.5605 308.93 24.914 309.737C24.3651 310.006 23.6844 310.325 22.9033 310.692C16.9506 313.484 5.8736 318.679 4.09253 324.669C3.77853 325.727 3.97642 326.856 4.63344 327.767C5.31421 328.706 6.41188 329.289 7.57024 329.321C9.54657 329.376 12.5573 329.432 16.7659 329.432ZM45.614 325.284C45.5427 326.645 44.4609 327.706 43.0994 327.751C23.4469 328.421 12.428 328.292 7.60982 328.155C6.81295 328.131 6.05567 327.73 5.586 327.081C5.14007 326.466 5.00549 325.709 5.21658 325.001C6.8499 319.516 18.0324 314.27 23.4047 311.75C24.191 311.381 24.8796 311.059 25.4338 310.785C26.8982 310.064 28.5183 309.732 30.1068 309.821L34.6795 310.083C34.8827 310.093 35.0463 310.307 35.0463 310.558V312.31C35.0463 312.5 35.1386 312.676 35.2943 312.787C35.45 312.895 35.6479 312.924 35.8247 312.861L43.5875 310.098C45.8409 313.864 45.8304 321.173 45.614 325.284Z" fill="#2E3543"/>
<path d="M19.9397 325.384C25.7526 325.384 33.6104 325.128 42.1912 324.133C42.5105 324.096 42.7401 323.806 42.7031 323.487C42.6662 323.168 42.3786 322.935 42.0567 322.975C24.5889 325.001 10.153 323.946 10.0079 323.935C9.68861 323.909 9.40627 324.152 9.38252 324.474C9.35877 324.796 9.5989 325.075 9.92081 325.099C9.99469 325.102 13.8418 325.384 19.9397 325.384Z" fill="#2E3543"/>
<path d="M22.4812 318.41C22.5999 318.41 22.7187 318.373 22.8216 318.299L30.7137 312.624C30.975 312.436 31.0356 312.07 30.8457 311.808C30.6583 311.547 30.2942 311.486 30.0303 311.676L22.1382 317.352C21.877 317.539 21.8163 317.906 22.0063 318.167C22.1197 318.326 22.2991 318.41 22.4812 318.41Z" fill="#2E3543"/>
<path d="M41.3459 131.244C41.3459 131.244 26.654 232.021 29.786 299.285L34.3693 299.744C36.8338 299.989 39.3141 300.053 41.7865 299.926L46.1323 299.707C46.1323 299.707 63.6528 197.531 72.3999 180.562C72.3999 180.562 96.1898 271.426 97.1054 296.044C97.1054 296.044 107.681 297.108 111.895 295.591C114.159 271.832 114.813 247.243 114.927 231.804C115.251 187.621 111.029 167.551 108.713 158.028C106.586 149.287 104.306 142.181 102.641 137.376L97.079 121.51L41.3459 131.244Z" fill="white"/>
<path d="M39.3059 300.573C40.145 300.573 40.9815 300.551 41.8153 300.509L46.1611 300.29C46.4329 300.277 46.6598 300.076 46.7073 299.807C46.8788 298.813 63.4309 202.64 72.2413 182.275C75.3866 194.423 95.6855 273.566 96.522 296.068C96.5325 296.359 96.7568 296.599 97.0471 296.628C97.4851 296.673 107.802 297.686 112.093 296.142C112.306 296.066 112.454 295.873 112.475 295.649C114.895 270.26 115.415 244.755 115.51 231.813C115.818 189.792 112.103 169.501 109.28 157.897C107.583 150.915 105.536 143.949 103.192 137.191L97.6302 121.323C97.5352 121.053 97.2581 120.893 96.9785 120.94L41.2453 130.674C40.9973 130.716 40.8047 130.914 40.7677 131.165C40.62 132.173 26.1049 232.768 29.2026 299.317C29.2158 299.607 29.4401 299.842 29.7277 299.871L34.311 300.33C35.9654 300.488 37.6383 300.573 39.3059 300.573ZM45.636 299.148L41.7572 299.343C39.3191 299.464 36.8547 299.404 34.4271 299.161L30.3451 298.752C27.4479 234.501 40.8443 138.888 41.8628 131.743L96.6908 122.167L102.089 137.566C104.419 144.287 106.456 151.218 108.145 158.163C110.953 169.71 114.649 189.906 114.341 231.797C114.246 244.655 113.731 269.933 111.348 295.153C107.646 296.272 99.7358 295.686 97.6645 295.506C96.4534 270.381 73.1991 181.314 72.9616 180.412C72.901 180.177 72.7004 180.006 72.4603 179.979C72.2228 179.956 71.988 180.077 71.8772 180.293C63.4019 196.745 47.082 290.765 45.636 299.148Z" fill="#2E3543"/>
<path d="M73.2257 184.096C73.2759 184.096 73.3286 184.088 73.3814 184.075C73.6928 183.99 73.8748 183.668 73.7904 183.357L71.347 174.462C70.6293 171.845 68.529 169.876 65.8719 169.327L63.5868 168.855C63.2728 168.789 62.9641 168.992 62.8981 169.309C62.8322 169.626 63.0353 169.934 63.352 169.998L65.637 170.47C67.864 170.929 69.6214 172.578 70.2256 174.771L72.669 183.666C72.7349 183.927 72.9698 184.096 73.2257 184.096Z" fill="#2E3543"/>
<path d="M105.509 167.527C105.789 167.527 106.037 167.324 106.084 167.039C106.137 166.723 105.923 166.422 105.604 166.369C92.8489 164.242 90.3237 154.535 90.2208 154.123C90.1443 153.809 89.8277 153.619 89.5163 153.696C89.205 153.772 89.0124 154.086 89.0889 154.4C89.1153 154.508 91.8726 165.264 105.414 167.522C105.446 167.525 105.477 167.527 105.509 167.527Z" fill="#2E3543"/>
<path d="M40.6858 160.904C40.7624 160.904 40.8415 160.889 40.918 160.857C48.8366 157.419 48.6439 149.912 48.6413 149.835C48.6281 149.514 48.3616 149.258 48.0371 149.273C47.7152 149.287 47.4645 149.556 47.4777 149.878C47.4882 150.168 47.6175 156.675 40.4563 159.783C40.1607 159.912 40.0262 160.255 40.1528 160.551C40.2452 160.773 40.4589 160.904 40.6858 160.904Z" fill="#2E3543"/>
<path d="M42.5286 47.3651C52.2467 46.27 72.9863 44.3042 87.2533 45.6104C91.5596 46.0035 97.7762 48.6342 101.051 51.4602C110.698 59.7851 128.899 78.1209 131.941 100.122C132.384 103.333 130.279 106.346 127.115 107.046L110.299 110.771C110.299 110.771 117.004 137.192 116.463 141.757C115.922 146.319 102.03 154.084 84.6569 147.715C71.1076 142.749 51.9353 138.799 39.7607 143.084C39.6446 143.124 38.4809 152.48 38.3596 152.496C34.4517 153.063 30.5123 151.543 30.6046 146.05L32.4569 117.518L10.1711 114.576L8.17892 113.914C2.15494 111.909 -0.955994 105.264 1.366 99.3566C6.60104 86.0289 14.5011 64.4555 29.1323 52.5394C32.2643 49.9905 38.5179 47.8189 42.5286 47.3651Z" fill="#2E3543"/>
<path d="M52.6579 135.173H17.8307C16.3187 135.173 14.9994 134.142 14.6353 132.675L2.5847 84.0895C2.07016 82.0129 3.64014 80.0049 5.78007 80.0049H40.61C42.1219 80.0049 43.4412 81.0366 43.8053 82.5037L55.856 131.089C56.3678 133.165 54.7979 135.173 52.6579 135.173Z" fill="white"/>
<path d="M17.8309 135.756H52.6581C53.8587 135.756 54.9696 135.216 55.711 134.268C56.4499 133.324 56.7084 132.113 56.4208 130.949L44.3729 82.3638C43.9428 80.6329 42.3965 79.4218 40.6128 79.4218H5.78818C4.5876 79.4218 3.47674 79.9627 2.73528 80.9099C1.99647 81.8546 1.7379 83.0657 2.02551 84.2293L14.0735 132.814C14.5009 134.545 16.0472 135.756 17.8309 135.756ZM40.6075 80.588C41.8556 80.588 42.9348 81.4324 43.2356 82.6435L55.2836 131.229C55.4868 132.041 55.3047 132.888 54.7875 133.548C54.2703 134.208 53.4919 134.588 52.6555 134.588H17.8282C16.5802 134.588 15.501 133.743 15.2002 132.532L3.15219 83.947C2.94902 83.1343 3.13108 82.2873 3.64825 81.6276C4.16542 80.968 4.94382 80.588 5.78027 80.588H40.6075Z" fill="#2458A4"/>
<path d="M8.25288 104.837L9.42443 109.739L13.6357 108.338C15.955 107.565 18.182 106.536 20.2745 105.267L22.6888 103.803C24.4936 102.707 26.8341 103.562 27.536 105.552C29.0268 109.779 28.7313 116.861 13.5671 121.307C5.19735 123.764 2.79884 113.04 3.88331 107.082C4.16037 105.56 4.90973 104.586 5.67493 103.971C6.59054 103.238 7.96263 103.697 8.25288 104.837Z" fill="white"/>
<path d="M11.2423 122.246C12.0339 122.246 12.8651 122.12 13.7253 121.869C21.0633 119.716 25.7653 116.708 27.7021 112.924C28.8816 110.62 29.0135 108.006 28.0794 105.359C27.6836 104.238 26.8181 103.367 25.702 102.966C24.5964 102.57 23.3853 102.691 22.38 103.304L19.9656 104.768C17.9154 106.011 15.7227 107.027 13.4456 107.784L9.83857 108.985L8.81478 104.702C8.81478 104.699 8.81214 104.697 8.81214 104.694C8.62743 103.966 8.08915 103.388 7.37672 103.151C6.66429 102.913 5.88854 103.05 5.30276 103.52C4.23676 104.375 3.5639 105.538 3.30004 106.982C2.49789 111.391 3.57973 117.668 6.77775 120.547C8.03901 121.674 9.5536 122.246 11.2423 122.246ZM24.3959 103.905C24.7046 103.905 25.0133 103.958 25.3115 104.063C26.0952 104.343 26.702 104.955 26.9791 105.744C27.8155 108.114 27.7074 110.349 26.6625 112.388C24.8761 115.877 20.4142 118.687 13.3954 120.748C11.0708 121.431 9.10767 121.069 7.56143 119.676C4.66685 117.072 3.70638 111.28 4.45048 107.188C4.66157 106.029 5.19457 105.1 6.03365 104.428C6.31335 104.203 6.66956 104.14 7.00731 104.253C7.34505 104.367 7.59308 104.631 7.6828 104.976L8.85172 109.874C8.88866 110.032 8.99156 110.169 9.13668 110.248C9.27917 110.328 9.44805 110.343 9.60373 110.293L13.815 108.892C16.1739 108.106 18.4458 107.056 20.5699 105.768L22.9842 104.304C23.4196 104.04 23.9051 103.905 24.3959 103.905Z" fill="#2E3543"/>
<path d="M88.7952 76.7119C90.5367 78.4956 92.5183 80.026 94.6872 81.2582C101.999 85.422 119.464 95.5015 123.81 99.2141C129.346 103.943 131.995 105.708 127.546 117.874C120.295 137.706 86.4811 86.7967 86.4811 86.7967C86.4811 86.7967 76.5493 88.5936 74.3196 79.8888C74.3196 79.8888 69.1453 80.8598 66.9869 79.9257C65.3325 79.208 65.4037 76.4005 67.6123 76.0918L81.8978 73.4294C83.8662 73.0785 85.8795 73.7223 87.2753 75.1524L88.7952 76.7119Z" fill="white"/>
<path d="M122.16 123.043C122.4 123.043 122.638 123.03 122.87 123.001C125.242 122.722 126.997 121.062 128.089 118.075C132.543 105.89 129.912 103.65 124.672 99.1877L124.184 98.7707C119.806 95.0292 102.296 84.9232 94.9716 80.7516C92.8528 79.5457 90.9134 78.047 89.2089 76.3028L87.6837 74.7434C86.1507 73.1734 83.9448 72.4662 81.7864 72.8541L67.4956 75.5191C66.295 75.6854 65.4322 76.5297 65.2712 77.7119C65.1129 78.886 65.7171 80.0154 66.7462 80.4613C68.6381 81.2819 72.48 80.7779 73.8916 80.5537C76.1925 88.1265 84.3168 87.6436 86.1903 87.4246C88.697 91.153 110.45 123.043 122.16 123.043ZM88.3751 77.1208C90.1561 78.9441 92.18 80.5062 94.3938 81.7674C101.69 85.9233 119.123 95.9817 123.427 99.6573L123.915 100.074C129.044 104.444 131.168 106.251 126.991 117.674C126.049 120.252 124.656 121.616 122.73 121.843C122.527 121.867 122.321 121.88 122.11 121.88C110.613 121.885 87.1982 86.8336 86.9608 86.4747C86.8315 86.2821 86.6019 86.1819 86.3723 86.2241C85.9897 86.2927 76.9472 87.8125 74.8785 79.7462C74.8019 79.4481 74.5091 79.2607 74.2056 79.3188C72.8151 79.58 68.8466 80.1024 67.2106 79.3927C66.5694 79.1156 66.3557 78.4084 66.4296 77.8728C66.4718 77.5588 66.6802 76.8147 67.6856 76.6722L81.9975 74.0046C83.7706 73.6879 85.5887 74.2684 86.8499 75.5614L88.3751 77.1208Z" fill="#2E3543"/>
<path d="M55.6902 28.6835L54.6215 43.5574C54.3867 45.4915 52.9909 47.0853 51.1069 47.5787L45.8824 48.9402L49.2731 51.5208C56.7879 57.244 67.1973 57.2519 74.7253 51.5446L80.0896 47.4758L73.5986 46.0272C71.7331 45.6103 70.3003 44.1168 69.9599 42.2355L67.0944 22.554L55.6902 28.6835Z" fill="white"/>
<path d="M62.0121 56.3864C66.6191 56.3864 71.2262 54.9272 75.0759 52.0089L80.4403 47.9401C80.6223 47.8029 80.7068 47.5734 80.6566 47.3517C80.6091 47.1301 80.435 46.9559 80.2133 46.9058L73.7223 45.4572C72.0811 45.0904 70.8304 43.7843 70.5322 42.1325L67.6693 22.4694C67.6429 22.2821 67.5242 22.1185 67.3553 22.0314C67.1864 21.947 66.9833 21.9496 66.817 22.0394L55.4155 28.1715C55.2387 28.2665 55.1253 28.4433 55.1094 28.6439L54.0408 43.5178C53.835 45.196 52.6238 46.5812 50.9589 47.0166L45.7344 48.3781C45.518 48.4335 45.3544 48.6104 45.3096 48.8267C45.2647 49.0457 45.3518 49.27 45.5286 49.4046L48.9192 51.9852C52.769 54.9193 57.3918 56.3864 62.0121 56.3864ZM78.7304 47.7713L74.3688 51.0801C67.0783 56.6107 56.9037 56.6001 49.6237 51.059L47.1883 49.204L51.2544 48.1459C53.3864 47.5892 54.9353 45.8187 55.2018 43.6312L56.252 29.0475L66.635 23.4616L69.3818 42.3172C69.767 44.4545 71.3687 46.1247 73.469 46.5944L78.7304 47.7713Z" fill="#2E3543"/>
<path d="M38.7898 7.98088C42.3652 6.08898 39.4864 11.981 51.2494 1.80122C55.933 -2.25172 56.1019 5.31586 57.3183 4.26569C61.8172 0.394819 61.6588 0.521474 64.498 0.0280504C66.3767 -0.29914 68.8913 2.29464 69.6381 4.74856C70.6249 7.98616 68.4718 9.92556 69.2053 17.385C69.7225 22.6226 71.369 25.1979 69.8597 26.6861C68.3346 28.1928 65.849 26.351 64.0573 27.8682C61.738 29.834 64.3845 34.2009 62.6721 37.2987C61.5929 39.2513 58.0492 41.5495 50.5898 41.3701C49.3813 41.3411 48.3575 40.4519 48.1596 39.2539C47.9063 37.7209 47.5976 35.7815 47.4577 33.9054C46.7902 24.9631 48.7164 21.9894 46.8192 20.4616C43.9141 18.1185 38.9772 22.4828 36.8821 20.4246C34.7079 18.29 33.8925 10.572 38.7898 7.98088Z" fill="#2E3543"/>
<path d="M56.5797 12.9968L56.4319 15.4402C56.3607 16.5906 56.3713 17.7437 56.461 18.8942C56.6272 21.0526 56.8884 24.7625 56.8753 26.8523C56.8568 29.921 47.3709 30.52 47.3709 30.52L46.1677 29.1795L45.0542 29.227C44.8378 29.2349 44.6188 29.2006 44.4288 29.1004C43.9486 28.8497 43.7111 28.3378 43.7929 27.8418C44.2415 25.1319 45.0278 19.1448 44.1571 14.4929C44.1544 14.4956 49.429 10.2104 56.5797 12.9968Z" fill="white"/>
<path d="M47.3681 31.103C47.3813 31.103 47.3919 31.103 47.4051 31.103C49.0806 30.9975 57.4345 30.2956 57.4556 26.8548C57.4688 24.7149 57.1997 20.9179 57.0387 18.8466C56.9516 17.7252 56.9437 16.5906 57.0097 15.4718L57.1574 13.0284C57.1733 12.7751 57.0229 12.5403 56.788 12.4505C49.4078 9.57444 44.0091 13.8569 43.7849 14.039C43.6186 14.1736 43.5395 14.3899 43.579 14.5984C44.4445 19.2292 43.6107 25.335 43.2123 27.744C43.0856 28.504 43.4629 29.256 44.1516 29.6148C44.4181 29.7547 44.7295 29.8233 45.0725 29.8074L45.9116 29.7731L46.9301 30.9078C47.0436 31.0344 47.2019 31.103 47.3681 31.103ZM55.97 13.3925L55.8487 15.4058C55.7774 16.5774 55.788 17.7674 55.8777 18.9416C56.036 20.9944 56.3025 24.7545 56.2893 26.8522C56.2788 28.5515 51.3023 29.6518 47.6109 29.9235L46.5976 28.7942C46.4815 28.6649 46.3259 28.5963 46.1385 28.6016L45.025 28.6491C44.8957 28.6543 44.7796 28.6332 44.6925 28.5884C44.4524 28.4617 44.3205 28.2032 44.3627 27.9419C44.8561 24.9524 45.5554 19.3294 44.7902 14.7514C45.901 13.9704 50.2416 11.3529 55.97 13.3925Z" fill="#2E3543"/>
<path d="M58.2446 20.5247C58.2446 20.5247 58.5929 14.6511 61.2289 15.3925C63.8622 16.134 63.316 22.5907 58.2446 20.5247Z" fill="white"/>
</svg>
