<svg width="52" height="52" viewBox="0 0 52 52" fill="none" xmlns="http://www.w3.org/2000/svg">
<g id="expert ava">
<mask id="mask0_378_153179" style="mask-type:alpha" maskUnits="userSpaceOnUse" x="0" y="0" width="52" height="52">
<circle id="Ellipse 1" cx="25.9148" cy="25.9148" r="25.9148" fill="#D9D9D9"/>
</mask>
<g mask="url(#mask0_378_153179)">
<circle id="Ellipse 128" cx="26" cy="26" r="26" fill="white"/>
<g id="Body">
<g id="Body_2">
<g id="Revised_Shoulder_1_">
<path id="Vector" d="M40.1214 47.3098C40.0024 47.3948 39.8665 47.4797 39.7475 47.5647C39.6115 47.6497 39.4926 47.7346 39.3566 47.8026C39.2377 47.8706 39.1357 47.9386 39.0168 48.0065C38.9998 48.0235 38.9828 48.0235 38.9658 48.0405C38.5749 48.2784 38.1671 48.4993 37.7593 48.7033C37.6403 48.7712 37.5044 48.8392 37.3854 48.8902C37.3854 48.8902 37.3684 48.9072 37.3514 48.9072C37.2155 48.9752 37.0795 49.0431 36.9436 49.1111C36.6717 49.2471 36.3828 49.366 36.1109 49.485C35.9749 49.5529 35.822 49.6039 35.6861 49.6549C35.5501 49.7059 35.3972 49.7739 35.2612 49.8248C35.1253 49.8758 34.9723 49.9438 34.8364 49.9948C34.8364 49.9948 34.8364 49.9948 34.8194 49.9948C34.6834 50.0458 34.5305 50.0967 34.3946 50.1477C34.0887 50.2497 33.7658 50.3516 33.4599 50.4536C33.358 50.4876 33.239 50.5216 33.137 50.5556C32.8142 50.6575 32.4913 50.7425 32.1684 50.8105C32.0495 50.8444 31.9305 50.8614 31.7946 50.8954C31.4887 50.9634 31.1658 51.0314 30.8599 51.0993C30.7919 51.1163 30.741 51.1163 30.673 51.1333C30.571 51.1503 30.4521 51.1673 30.3501 51.1843C30.1972 51.2013 30.0612 51.2353 29.9083 51.2523C29.8403 51.2693 29.7723 51.2693 29.7044 51.2863C29.6194 51.3033 29.5174 51.3203 29.4155 51.3203C29.1436 51.3542 28.8547 51.3882 28.5828 51.4222C28.4978 51.4392 28.3959 51.4392 28.3109 51.4562H28.2939C28.1749 51.4732 28.056 51.4732 27.937 51.4902C27.8181 51.5072 27.6991 51.5072 27.5802 51.5072C27.5122 51.5072 27.4272 51.5242 27.3593 51.5242C27.2233 51.5242 27.1044 51.5412 26.9854 51.5412C26.8155 51.5412 26.6625 51.5582 26.4926 51.5582C26.3227 51.5582 26.1697 51.5582 25.9998 51.5582C25.8808 51.5582 25.7619 51.5582 25.6429 51.5582C18.4717 51.4562 12.0312 48.4144 7.42593 43.5882C7.42593 43.5882 7.42593 43.5712 7.40894 43.5712C6.89913 43.1124 7.34096 40.6654 9.39717 39.119C11.9802 37.1647 18.1658 35.9412 18.1658 35.9412C18.1658 35.9412 20.5619 35.5503 29.4495 37.4026C34.6495 38.4902 38.6089 40.0706 40.8181 44.3529C41.2769 45.2366 41.7357 46.5961 40.1214 47.3098Z" fill="white"/>
<g id="Group">
<path id="Vector_2" d="M29.5006 37.2157C32.7633 37.8784 36.247 38.5922 38.9319 40.7503C39.8326 41.481 40.4274 42.5516 40.9202 43.5882C41.1581 44.098 41.396 44.6248 41.5829 45.1856C41.6849 45.5595 41.8378 45.9843 41.7529 46.4261C41.7359 46.5451 41.6339 46.698 41.5489 46.783C41.1581 47.1739 40.7332 47.4118 40.3084 47.7176C37.8104 49.451 34.9385 50.6745 31.9646 51.3203C25.3372 52.7647 18.1659 51.6431 12.3372 48.1595C10.3999 46.9869 8.61561 45.5595 7.08619 43.8771C6.91626 43.6732 6.91626 43.3333 6.91626 43.1124C6.93325 42.6026 7.0692 42.1098 7.23914 41.651C7.64698 40.5974 8.17378 39.5438 9.07443 38.8131C9.72018 38.3712 10.4169 37.9974 11.1306 37.6915C13.3738 36.7399 15.7359 36.0771 18.1659 35.8052C18.3699 35.7882 18.4038 36.0771 18.1999 36.1111C15.8718 36.5869 13.5607 37.3006 11.4025 38.2693C10.6208 38.6601 9.78815 39 9.1594 39.6118C8.56463 40.2575 8.13979 41.0562 7.79992 41.8719C7.579 42.3647 7.42606 43.1464 7.49404 43.5373C8.56463 44.8118 9.82214 45.9333 11.1816 46.902C18.6248 52.102 29.9254 52.4418 37.8444 48.1085C38.5581 47.7176 39.2548 47.2758 39.9176 46.817C40.2404 46.5961 40.5803 46.4091 40.8352 46.1542C40.8522 46.1373 40.8352 46.1542 40.8352 46.1712C40.8352 46.1882 40.8182 46.2052 40.8182 46.2052C40.8352 46.0013 40.7672 45.7294 40.6823 45.4575C40.3764 44.4719 39.8836 43.4353 39.3568 42.5346C38.5241 41.1922 37.1136 40.3425 35.6862 39.6627C34.7006 39.2039 33.664 38.8471 32.6104 38.5072C31.5568 38.1673 30.4862 37.8784 29.4156 37.6235C29.1437 37.5556 29.2287 37.1647 29.5006 37.2157Z" fill="#2E3543"/>
</g>
</g>
</g>
</g>
<g id="Outfit">
<g id="outfit_1_1_">
<g id="Group_2">
<path id="Vector_3" d="M42.4499 49.7228C42.127 47.2078 40.6995 42.9764 39.8329 41.8378C38.8812 40.5973 38.4904 40.2065 35.3126 39.1359C35.1427 38.2862 34.5139 36.145 33.7662 35.2444C32.6276 33.528 29.5178 33.1372 28.5832 33.3411C28.5832 33.3411 23.5531 31.5738 17.7584 31.5738C15.9231 31.9816 13.7989 32.8143 12.6433 34.5646C11.8616 35.7202 12.7453 36.0941 12.3544 37.1476C12.2525 37.4195 9.8734 38.779 8.90478 39.5947C8.46295 39.9516 7.97013 40.8522 7.63027 42.0248C6.95053 44.4209 7.68125 47.7346 6.83157 50.6235C5.2002 56.1973 1.88647 57.8627 1.88647 57.8627H45.7976C45.7636 57.8457 43.1466 55.0248 42.4499 49.7228Z" fill="white"/>
<g id="Group_3">
<path id="Vector_4" d="M42.1949 49.7569C41.855 47.5307 41.1753 45.3216 40.3086 43.2484C39.8838 42.2457 39.238 41.2771 38.3374 40.6823C37.8786 40.3935 37.3688 40.1725 36.842 39.9516C36.3152 39.7477 35.7714 39.5608 35.2446 39.3739C35.1596 39.3399 35.0916 39.2719 35.0746 39.1869C35.0067 38.8471 34.9217 38.5242 34.8197 38.1843C34.3779 36.8078 33.9021 35.2784 32.6106 34.4797C31.625 33.885 30.4524 33.5961 29.3138 33.5451C29.0929 33.5451 28.855 33.5451 28.6511 33.5791H28.5831C28.5661 33.5791 28.5322 33.5791 28.5152 33.5621C27.6995 33.1712 26.7988 32.9333 25.9152 32.6954C23.2642 32.0837 20.4942 31.8288 17.7753 31.8118C16.1099 32.2026 13.7818 33.1203 12.7622 34.8196C12.5923 35.0915 12.5073 35.3634 12.5413 35.6693C12.5753 36.0091 12.6942 36.383 12.6093 36.7399C12.5753 36.8928 12.5413 37.0627 12.4733 37.1987C12.3374 37.3856 12.1165 37.5046 11.9465 37.6235C11.0629 38.2013 10.1622 38.7111 9.31254 39.3059C9.02365 39.5098 8.75176 39.6967 8.54784 39.9856C7.95306 40.8353 7.5962 41.8549 7.44326 42.8745C7.17136 44.9477 7.44326 47.0549 7.17136 49.1281C6.86548 51.2013 6.06679 53.2065 4.94522 54.9739C4.16352 56.1634 3.21189 57.268 2.00535 58.0327L1.8864 57.5569H45.7975L45.6106 57.9817C45.1008 57.4039 44.6929 56.7752 44.3191 56.1124C43.1635 54.1752 42.4838 51.983 42.1949 49.7569ZM42.7047 49.6889C42.8916 51.1333 43.2485 52.5608 43.7923 53.9203C44.3361 55.2627 45.0158 56.5712 45.9674 57.6758C46.1034 57.8288 45.9844 58.1176 45.7805 58.1006H1.8694C1.73346 58.1006 1.6145 57.9817 1.6145 57.8457C1.6145 57.7438 1.66548 57.6588 1.75045 57.6248C2.02235 57.4719 2.29424 57.251 2.54914 57.0301C4.77529 55.0248 6.16875 52.051 6.62757 49.0941C7.01842 46.3242 6.2877 43.3333 7.52823 40.6993C7.81712 40.0876 8.17398 39.4418 8.75176 39.051C9.80535 38.2693 10.9609 37.6915 11.9975 36.9268C12.0145 36.9268 12.0145 36.9098 12.0145 36.9098C11.9975 36.9268 11.9805 36.9608 11.9805 36.9778C12.0825 36.7399 12.1165 36.5359 12.0825 36.264C12.0315 35.9242 11.9465 35.4654 12.0655 35.1085C12.1165 34.9046 12.2184 34.7176 12.3204 34.5647C13.5439 32.7294 15.7021 31.9137 17.7583 31.4549C18.3361 31.4719 18.9308 31.3699 19.5086 31.3699C20.3073 31.3699 21.123 31.4889 21.9217 31.5908C24.2158 31.9477 26.425 32.5595 28.6851 33.0523L28.5321 33.0353C29.0589 32.9333 29.5518 32.9843 30.0616 33.0523C33.3243 33.5451 34.4289 34.9725 35.3125 38.0144C35.4145 38.3542 35.4995 38.6941 35.5844 39.051L35.4145 38.8471C37.0459 39.4248 38.8812 39.9516 39.9178 41.464C40.2916 41.9229 40.5635 42.4667 40.8014 43.0105C41.6681 45.1856 42.3478 47.3778 42.7047 49.6889Z" fill="#2E3543"/>
</g>
</g>
<g id="Group_4">
<path id="Vector_5" d="M15.6683 38.5412C16.9259 41.2262 18.8801 43.5033 21.2082 45.3046C21.2932 45.3726 21.2082 45.5085 21.1062 45.4576C19.033 44.4719 17.2827 42.7896 16.2461 40.7504C15.9062 40.0706 15.6174 39.3399 15.5154 38.5752C15.4814 38.4902 15.6174 38.4563 15.6683 38.5412Z" fill="#2E3543"/>
</g>
<g id="Group_5">
<path id="Vector_6" d="M35.5677 39.102C35.6186 41.9399 34.4631 44.8458 32.2539 46.6811C32.203 46.732 32.135 46.715 32.084 46.6641C32.033 46.6131 32.05 46.5451 32.101 46.4941C32.5938 46.0183 33.0866 45.5255 33.4605 44.9477C34.2422 43.8262 34.718 42.5007 34.9389 41.1582C35.0409 40.4954 35.1088 39.7817 35.0579 39.119C35.0409 38.7961 35.5507 38.7621 35.5677 39.102Z" fill="#2E3543"/>
</g>
<g id="Group_6">
<path id="Vector_7" d="M25.5584 45.8484C25.1675 47.2248 24.8447 48.7203 25.0316 50.1477C25.0826 50.4706 24.5898 50.5555 24.5218 50.2157C24.4368 49.434 24.5388 48.6693 24.6747 47.9216C24.8277 47.1738 25.0146 46.4601 25.2695 45.7464C25.3375 45.5765 25.6264 45.6614 25.5584 45.8484Z" fill="#2E3543"/>
</g>
<g id="Group_7">
<path id="Vector_8" d="M30.9623 45.5935C31.5231 46.8 31.9139 48.0575 32.2198 49.332C32.2538 49.468 32.1688 49.6039 32.0329 49.6379C31.8969 49.6719 31.761 49.5869 31.727 49.451C31.557 48.4994 31.3361 47.5477 31.0302 46.6131C30.9283 46.3072 30.8263 46.0013 30.7074 45.6954C30.6394 45.5425 30.8773 45.4235 30.9623 45.5935Z" fill="#2E3543"/>
</g>
<g id="Group_8">
<path id="Vector_9" d="M12.7114 37.0797C13.3401 40.5124 15.7532 43.4183 18.6591 45.2706C19.6447 45.8994 20.6983 46.4431 21.7859 46.885C21.8538 46.919 21.8878 46.9869 21.8538 47.0549C21.8369 47.1229 21.7519 47.1569 21.7009 47.1229C20.5793 46.715 19.4918 46.2052 18.4721 45.5935C16.3989 44.3699 14.5806 42.6706 13.3571 40.5974C12.7284 39.5268 12.2355 38.4052 11.9976 37.1817C11.9636 36.9778 12.0996 36.7909 12.3035 36.7569C12.4904 36.7059 12.6944 36.8588 12.7114 37.0797Z" fill="#2E3543"/>
</g>
<path id="Vector_10" d="M24.5388 50.5216C24.0629 50.4706 23.7231 50.0288 23.825 49.553L24.012 48.6523C24.0799 48.2954 24.4198 48.0405 24.7767 48.0915C25.1335 48.1255 25.4224 48.4314 25.4224 48.8052V49.7229C25.4394 50.1987 25.0316 50.5726 24.5388 50.5216Z" fill="#2E3543"/>
<path id="Vector_11" d="M32.3729 49.8928C31.914 50.0627 31.4212 49.7909 31.3023 49.315L31.0814 48.4144C30.9964 48.0575 31.1833 47.7007 31.5402 47.5647C31.8801 47.4458 32.2709 47.5987 32.4238 47.9216L32.8317 48.7542C33.0356 49.2131 32.8317 49.7399 32.3729 49.8928Z" fill="#2E3543"/>
<path id="Vector_12" d="M40.2239 49.383C40.2239 49.383 41.1755 54.7189 40.8017 57.8457" stroke="#2E3543" stroke-width="0.644984" stroke-miterlimit="10" stroke-linecap="round" stroke-linejoin="round"/>
<g id="Group_9">
<path id="Vector_13" d="M18.0302 36.468C17.7923 35.7883 17.6904 35.0915 17.7413 34.3778C17.7413 34.3098 17.7923 34.2758 17.8603 34.2758C17.9113 34.2758 17.9623 34.3268 17.9623 34.3778C18.0132 35.0235 18.2002 35.6863 18.506 36.2471C18.659 36.5869 18.1492 36.8079 18.0302 36.468Z" fill="#2E3543"/>
</g>
<g id="Group_10">
<path id="Vector_14" d="M29.5178 37.3686C29.042 36.2981 27.8694 35.7543 26.8328 35.3804C26.1871 35.1765 25.4733 35.0236 24.7936 34.9216C23.1452 34.6667 20.8171 34.2758 19.1688 34.1059C19.1518 34.1059 19.1518 34.0719 19.1688 34.0719C19.6446 34.0209 20.1204 34.0209 20.5962 34.0209C22.0237 34.0549 23.4511 34.2079 24.8616 34.4288C26.272 34.6497 27.7844 35.0745 28.855 36.0941C29.1949 36.451 29.5008 36.8588 29.5857 37.3517C29.6027 37.4026 29.5348 37.4196 29.5178 37.3686Z" fill="#2E3543"/>
</g>
</g>
</g>
<g id="Head">
<g id="Head_2_1_">
<g id="Neck_1_7_">
<path id="Vector_15" d="M31.0978 41.736C30.741 43.4863 28.4299 44.5399 24.5384 42.9595C20.4939 41.3281 18.7436 37.4366 18.3018 36.2811C20.6978 31.7948 19.0325 28.685 19.0325 28.685C24.5554 28.2092 29.3815 34.6667 29.3815 34.6667L30.1292 37.8614C30.1972 38.1333 30.3331 38.3712 30.5371 38.5412C30.8939 39.1699 31.3188 40.6144 31.0978 41.736Z" fill="white"/>
<g id="Group_11">
<path id="Vector_16" d="M18.2168 36.332C18.5396 35.8392 18.7436 35.2614 18.8795 34.7006C19.1344 33.5281 19.2194 32.3386 19.2364 31.149V30.7072C19.1854 30.2654 19.0324 29.8065 18.8625 29.3987C18.6416 28.8549 19.4403 28.515 19.6952 29.0588C19.7292 29.1268 19.7292 29.2457 19.7292 29.3137C19.7802 31.6248 19.8821 34.5987 18.4207 36.5189C18.3187 36.6209 18.1148 36.468 18.2168 36.332Z" fill="#2E3543"/>
</g>
<g id="Group_12">
<path id="Vector_17" d="M29.5684 34.6327C29.8233 34.7856 29.9083 34.9896 29.9423 35.1935C30.0442 35.6013 30.0102 36.0432 30.1122 36.468C30.1972 36.8758 30.4521 37.2667 30.52 37.6915C30.605 38.1334 30.8599 39.068 30.9619 39.5268C30.9959 39.6288 30.9279 39.7477 30.8089 39.7647C30.741 39.7817 30.69 39.7647 30.639 39.7307C30.4181 39.5438 30.3161 39.3569 30.1802 39.119C29.9593 38.7111 29.8063 38.3373 29.6704 37.8785C29.5514 37.4706 29.6024 37.0288 29.5004 36.6039C29.4155 36.1961 29.1776 35.8052 29.0926 35.3804C29.0416 35.1765 29.0246 34.9556 29.1776 34.7007C29.2795 34.5987 29.4495 34.5647 29.5684 34.6327Z" fill="#2E3543"/>
</g>
<path id="Vector_18" d="M30.792 39.119C27.5462 38.949 24.8953 37.9294 22.3123 33.3242C24.4874 35.2444 27.0534 35.9752 29.7554 36.315L30.1123 37.8784C30.1802 38.1503 30.5881 38.949 30.792 39.119Z" fill="#2E3543"/>
<g id="Group_13">
<path id="Vector_19" d="M30.6562 38.4902C31.234 39.5778 31.5738 40.9373 31.217 42.1438C30.9451 42.9935 30.1634 43.6222 29.3137 43.8601C27.3425 44.3869 25.0653 43.5543 23.315 42.6196C21.1568 41.4131 19.5595 39.3909 18.5399 37.1817C18.4719 37.0118 18.7098 36.8758 18.8117 37.0458C19.1686 37.7595 19.5765 38.4562 20.0353 39.085C20.4941 39.7307 21.0209 40.3255 21.6157 40.8523C23.349 42.4157 25.6941 43.3843 28.0392 43.3843C30.4523 43.3164 31.3699 42.0418 30.8091 39.6967C30.7242 39.3229 30.5882 38.932 30.4013 38.6092C30.2993 38.4732 30.5542 38.3203 30.6562 38.4902Z" fill="#2E3543"/>
</g>
</g>
<path id="Vector_20" d="M37.2328 18.081C37.5387 19.5085 37.3008 20.4601 37.1648 24.4026C37.0969 26.2719 36.808 26.9686 36.723 29.0588C36.689 30.0105 35.9923 31.3189 35.7374 32.0837C35.3975 33.1203 35.0576 34.5137 34.2759 35.5163C33.8681 36.0261 33.3753 36.332 32.5596 36.468C32.2877 36.5189 32.0158 36.1111 31.7949 36.1961C29.1269 37.3686 26.2041 36.8248 23.5531 34.5137C22.3975 33.4941 20.6642 31.0301 19.9335 29.3307C19.7805 28.9739 19.1008 29.7216 18.1322 28.651C16.7897 27.1895 15.1753 24.2497 15.974 19.0497C17.2655 10.6209 23.9439 9.63529 28.889 10.5699C33.8681 11.5046 36.4171 14.3255 37.2328 18.081Z" fill="white"/>
<g id="Group_14">
<path id="Vector_21" d="M18.9816 30.1464C18.5908 29.5006 18.081 28.9229 17.6221 28.3111C16.9424 27.3765 16.4326 26.3059 16.0927 25.2013C14.3424 19.7294 16.0078 12.3033 22.1254 10.5359C24.3685 9.8562 26.7476 9.90718 29.0248 10.332C32.0836 10.8588 35.1424 12.4222 36.6378 15.2601C37.1816 16.3137 37.5895 17.4523 37.7084 18.6248C37.7764 19.4065 37.6404 20.1882 37.5555 20.9529C37.4535 21.7176 37.4365 22.4653 37.4025 23.2301C37.3176 24.3686 37.1646 25.4902 37.1136 26.6287C37.0457 27.3935 37.0967 28.1582 36.9777 28.9229C36.7228 30.4523 36.145 31.8797 35.6692 33.3242C35.2953 34.4287 34.9215 35.7882 33.7829 36.349C32.9672 36.8418 31.9816 36.8588 31.081 36.7908C30.945 36.7908 30.8431 36.7569 30.7411 36.7908C28.5489 37.2157 26.5097 36.8418 24.6744 35.5163C23.7908 34.8196 22.7372 34.1569 22.0744 33.2392C22.0065 33.1372 22.1424 33.0183 22.2274 33.1033C22.7542 33.6301 23.3829 34.0379 24.0287 34.4287C24.6914 34.8366 25.2862 35.2614 25.9489 35.5503C27.3594 36.2301 28.9398 36.332 30.4692 36.0601C30.5542 36.0431 30.7241 36.0091 30.8091 36.0261C31.3699 36.0601 31.9136 36.1111 32.4574 36.0261C33.1202 35.9242 33.7659 35.6353 34.1398 35.0915C34.5306 34.5477 34.7346 33.8 35.0065 33.0863C35.5333 31.6758 36.162 30.2823 36.4849 28.8209C36.6208 28.1921 36.6548 27.2405 36.7058 26.5778C36.8248 25.0653 37.0967 23.5699 37.0967 22.0405C37.1136 21.2758 37.1306 20.5111 37.1136 19.7634C36.9097 15.9569 34.7176 12.6941 31.098 11.3516C27.0705 9.83921 21.7006 9.94117 18.7437 13.4588C17.3163 15.1412 16.6535 17.3503 16.3476 19.5085C15.7699 22.9412 15.9908 26.3399 18.7267 28.8379L19.5254 29.6706C19.8313 30.1124 19.2535 30.5542 18.9816 30.1464Z" fill="#2E3543"/>
</g>
<path id="Vector_22" d="M20.987 24.7425C20.987 24.7425 20.4602 22.1934 17.9791 22.4993C15.838 22.7712 15.0902 27.9033 19.9504 29.3307" fill="white"/>
<g id="Group_15">
<path id="Vector_23" d="M19.7295 27.1046C19.3386 26.8836 19.0667 26.5098 19.0497 26.051C19.0667 25.7111 19.1177 25.3202 19.0327 24.9804C18.9817 24.6575 18.6419 24.5725 18.387 24.5895C18.1151 24.6405 17.9451 24.9804 17.8942 25.2523C17.8942 25.2693 17.8772 25.3202 17.8772 25.3372C17.8602 25.4222 17.7242 25.4222 17.6902 25.3372C17.4693 24.6745 17.9621 23.9438 18.6759 24.0287C19.6785 24.0967 19.8144 25.1503 19.6275 25.949C19.5255 26.2889 19.6615 26.5948 19.8484 26.8836L19.8824 26.9346C19.9674 27.0366 19.8314 27.1725 19.7295 27.1046Z" fill="#2E3543"/>
</g>
<g id="Group_16">
<path id="Vector_24" d="M33.3243 22.9412C33.5792 24.1477 34.055 25.2693 34.6498 26.3229C35.1766 27.6144 33.8171 28.8379 32.6106 28.7869C32.4747 28.7869 32.4577 28.6 32.5766 28.566C33.3413 28.3281 34.0381 27.8183 34.157 27.0366C34.208 26.7987 34.14 26.5948 34.0211 26.3908C33.4603 25.3372 33.1204 24.1307 33.2054 22.9412C33.2054 22.8562 33.3243 22.8562 33.3243 22.9412Z" fill="#2E3543"/>
</g>
<g id="Group_17">
<path id="Vector_25" d="M20.9019 24.7595C20.5111 23.7569 19.6614 22.8052 18.5228 22.8222C18.4209 22.8052 18.2509 22.8392 18.149 22.8392C17.8601 22.8562 17.6222 22.9582 17.4013 23.1621C16.3137 24.2497 16.5006 26.1699 17.3843 27.3765C17.6901 27.8013 18.081 28.1752 18.5228 28.481C18.9647 28.7869 19.4575 29.0248 19.9843 29.2288C20.1032 29.2627 20.0522 29.4497 19.9333 29.4327C18.7947 29.1948 17.7071 28.634 16.9594 27.6993C15.8039 26.3059 15.566 23.9778 16.9424 22.6183C17.2483 22.3464 17.6732 22.1425 18.098 22.1425C18.2339 22.1425 18.4379 22.1085 18.5738 22.1425C19.2875 22.1765 19.9673 22.5333 20.4091 23.0941C20.7999 23.5699 21.0209 24.1477 21.0888 24.7255C21.0888 24.8275 20.9359 24.8614 20.9019 24.7595Z" fill="#2E3543"/>
</g>
<g id="Group_18">
<path id="Vector_26" d="M30.4183 36.1621C31.2 35.9922 31.6588 35.2274 31.5908 34.4457C31.5738 34.3268 31.7607 34.2928 31.7777 34.4118C32.0666 35.3804 31.5398 36.434 30.6052 36.8078C30.1124 36.9948 29.9085 36.2471 30.4183 36.1621Z" fill="#2E3543"/>
</g>
</g>
</g>
<g id="Mouth">
<g id="Normal_Smile_1_">
<g id="Group_19">
<path id="Vector_27" d="M32.0326 30.4863C30.9451 31.5229 28.8889 30.6902 28.3451 29.4327C28.2771 29.2797 28.447 29.1438 28.583 29.2118C28.8719 29.3647 29.1268 29.5176 29.3987 29.6366C30.1804 29.9935 30.996 30.2824 31.8627 30.1974C32.0326 30.1634 32.1516 30.3673 32.0326 30.4863Z" fill="#2E3543"/>
</g>
</g>
</g>
<g id="Eyes">
<g id="sad_2_">
<path id="Vector_28" d="M29.6025 20.732C29.9764 20.698 30.1633 20.2562 29.9594 19.9163C29.8405 19.7464 29.6875 19.5935 29.4666 19.5085C28.8208 19.3046 26.7137 19.7634 25.796 20.817C24.9803 21.7856 27.9032 20.885 29.6025 20.732Z" fill="#2E3543"/>
<path id="Vector_29" d="M34.089 21.0039C33.8001 20.9189 33.7152 20.4941 33.9531 20.2222C34.072 20.0863 34.242 19.9673 34.4289 19.9333C35.0067 19.8314 36.3322 20.3582 36.706 21.3608C37.0459 22.2274 35.4655 21.3438 34.089 21.0039Z" fill="#2E3543"/>
<path id="Vector_30" d="M26.9855 24.6745C26.5777 24.6575 26.2718 24.3177 26.3058 23.9098L26.3228 23.434C26.3398 23.0262 26.6797 22.7203 27.0875 22.7543C27.4953 22.7713 27.8012 23.1111 27.7672 23.519L27.7502 23.9948C27.7333 24.3856 27.3934 24.6915 26.9855 24.6745Z" fill="#2E3543"/>
<path id="Vector_31" d="M34.1399 24.9294C33.766 24.9124 33.4771 24.5895 33.4941 24.2157L33.5111 23.7738C33.5281 23.4 33.851 23.1111 34.2248 23.1281C34.5987 23.1451 34.8876 23.468 34.8706 23.8418L34.8536 24.2836C34.8366 24.6575 34.5137 24.9464 34.1399 24.9294Z" fill="#2E3543"/>
<g id="Group_20">
<path id="Vector_32" d="M28.515 23.7569C27.9543 23.383 27.3425 23.1281 26.6628 23.2641C26.4418 23.298 26.2209 23.366 26.085 23.519C26.034 23.5869 25.915 23.5699 25.915 23.468C25.932 23.1281 26.2209 22.9072 26.4928 22.7712C27.0196 22.4994 27.7503 22.5503 28.2262 22.9072C28.3961 23.0092 28.9739 23.6379 28.668 23.7739C28.6 23.8079 28.566 23.7909 28.515 23.7569Z" fill="#2E3543"/>
</g>
<g id="Group_21">
<path id="Vector_33" d="M33.375 23.8418C33.375 23.1281 34.2587 22.8732 34.8025 23.1281C35.1083 23.2641 35.3292 23.5359 35.4142 23.8588C35.4482 23.9608 35.2953 24.0458 35.2273 23.9608C34.9384 23.6209 34.4456 23.451 34.0547 23.6549C33.9358 23.7229 33.9188 23.7739 33.8848 23.8418C33.8848 24.1817 33.392 24.1647 33.375 23.8418Z" fill="#2E3543"/>
</g>
</g>
</g>
<g id="Hair">
<g id="style_2_1_">
<g id="Group_22">
<path id="Vector_34" d="M39.4248 19.2196C38.949 20.698 37.8104 21.9386 37.0797 22.7712C37.2496 21.9726 37.0967 21.4967 37.1307 20.9359C37.1817 20.1712 37.4536 19.3216 37.4026 18.9817C37.3686 18.6758 37.3006 18.3869 37.2326 18.081C37.1477 17.7072 37.0457 17.3503 36.9268 16.9935C34.2588 19.5935 29.6875 17.0275 29.6875 17.0275C29.6875 17.0275 28.7189 17.8261 27.0196 17.6392C25.2013 17.4523 24.7085 16.3307 24.7085 16.3307C24.2157 19.7634 20.9699 18.4549 21.5647 21.8706C21.7346 22.8052 21.7346 23.7059 20.9359 24.6405C20.8 24.1647 20.1372 22.2275 17.9621 22.4993C15.9058 22.7542 15.1241 27.5124 19.3725 29.1438C19.3215 30.7242 19.4915 32.8654 19.3215 32.3046C18.132 28.634 15.7529 29.2118 14.6313 26.4418C14.1045 25.1163 14.1895 23.9438 14.4614 23.0771C14.7333 22.2444 14.7163 21.3438 14.4444 20.5111C14.1385 19.5425 13.9006 18.081 14.4614 16.3137C15.413 13.2889 17.4523 12.5922 17.9791 12.2353C18.5058 11.8784 18.2509 8.61569 21.9385 7.59608C24.8784 6.78039 27.0875 8.49673 27.7333 8.37778C28.379 8.25883 32.8993 5.28497 36.383 8.08889C39.7477 10.8078 38.4902 14.0196 38.4902 14.0196C38.4902 14.0196 40.5804 15.634 39.4248 19.2196Z" fill="#2E3543"/>
</g>
</g>
</g>
<g id="Accesories">
<g id="Glasses_1_">
<g id="Group_23">
<path id="Vector_35" d="M29.7388 26.7817C28.9571 26.7987 26.544 26.8157 25.7963 26.8327C24.5048 26.8497 23.5362 25.7281 23.6552 24.4536C23.6721 24.0288 23.6552 23.434 23.6721 23.0091C23.7061 21.9046 24.6918 20.9699 25.7963 21.0039L28.6682 21.0379C28.8891 21.0379 29.5179 21.0549 29.7388 21.0549C30.6565 21.0379 31.5231 21.7176 31.727 22.6183C31.795 22.8732 31.778 23.1451 31.778 23.366V24.8105C31.761 25.881 30.8094 26.7987 29.7388 26.7817ZM29.7388 26.4078C30.6225 26.4418 31.4382 25.6771 31.4552 24.7935C31.4721 24.3346 31.4552 23.8418 31.4552 23.366C31.5571 22.3294 30.7754 21.3778 29.7218 21.4118C28.9911 21.4288 26.544 21.4458 25.7793 21.4627C24.8617 21.4627 24.08 22.2954 24.148 23.2131C24.148 23.332 24.148 23.6379 24.148 23.7569C24.165 24.1307 24.114 24.7765 24.1989 25.1163C24.3689 25.8301 25.0486 26.3739 25.7793 26.3739H26.1362C26.629 26.3739 29.229 26.4078 29.7388 26.4078Z" fill="#2E3543"/>
</g>
<g id="Group_24">
<path id="Vector_36" d="M36.5871 21.4967L35.2446 21.5137C34.8707 21.5307 34.4289 21.4627 34.106 21.6837C33.8001 21.8876 33.6642 22.2614 33.6812 22.6183C33.6812 23.0601 33.6812 23.519 33.6642 23.9608L33.6472 23.8928C33.8851 24.7255 34.208 25.5242 34.7008 26.2209L34.5309 26.119C34.6668 26.1529 34.9047 26.1529 35.0407 26.1529C35.5505 26.1699 36.1452 26.2039 36.6551 26.2039C37.1309 26.2039 37.5897 25.8471 37.6917 25.3712C37.7256 25.2353 37.7256 24.9974 37.7256 24.8614C37.7256 24.1307 37.7426 23.417 37.7086 22.6863C37.7426 22.0405 37.2498 21.4627 36.5871 21.4967ZM36.5871 20.9869C37.4877 20.9869 38.1165 21.8536 37.9635 22.7033C37.9296 23.434 37.9466 24.1477 37.9466 24.8784C38.0315 25.7281 37.5217 26.4928 36.6381 26.5608C36.2642 26.5778 35.9073 26.5778 35.5505 26.5948C35.3635 26.5948 34.9047 26.6288 34.7348 26.6288C34.6498 26.6458 34.5139 26.6288 34.4289 26.6288C34.3609 26.6288 34.293 26.5778 34.259 26.5268C33.7322 25.7451 33.3583 24.8784 33.1374 23.9778C33.1374 23.4 33.0864 22.8222 33.1374 22.2444C33.2394 21.5647 33.8511 20.9869 34.5479 20.9699C35.0237 20.9529 36.1113 20.9869 36.5871 20.9869Z" fill="#2E3543"/>
</g>
<g id="Group_25">
<path id="Vector_37" d="M31.5909 22.5503C32.0498 22.3464 32.5596 22.2614 33.0694 22.2954C33.2393 22.3124 33.4092 22.3634 33.5622 22.4994L33.7831 22.6863C34.004 22.8732 33.7321 23.1961 33.5112 23.0092C33.2393 22.7712 32.9164 22.8052 32.5936 22.8222C32.2707 22.8562 31.9648 22.9242 31.6589 23.0431C31.37 23.1621 31.1831 22.7373 31.455 22.6013L31.5909 22.5503Z" fill="#2E3543"/>
</g>
<g id="Group_26">
<path id="Vector_38" d="M23.9438 23.1621C23.8249 23.434 23.6889 23.468 23.468 23.451L22.9752 23.468C21.9896 23.468 20.987 23.451 20.0014 23.298C19.6615 23.281 19.6445 22.8052 19.9844 22.7882L23.9268 22.6523C24.0458 22.6523 24.1308 22.7712 24.0798 22.8732L23.9438 23.1621Z" fill="#2E3543"/>
</g>
</g>
</g>
<g id="Bg">
<g id="Bg_2">
<path id="Vector_39" d="M48.9753 14.3255C59.2903 34.1909 41.1583 56.6052 19.5426 51.1333C9.83931 48.7203 2.03931 40.3085 0.424931 30.4353C-1.41036 20.6131 3.02493 10.0601 11.3177 4.50328C22.6864 -3.31371 38.4393 -0.713713 46.5792 10.468C46.6302 10.519 46.6132 10.6039 46.5452 10.6549C46.4942 10.7059 46.4092 10.6889 46.3583 10.6209C45.2367 9.17648 43.9622 7.86799 42.5687 6.69544C40.2746 4.74119 37.5896 3.21178 34.7517 2.17518C20.3073 -3.05881 4.45238 5.64184 1.2916 20.749C-2.27703 37.6745 12.1164 53.2575 29.2798 50.9294C42.5177 49.2641 52.357 37.0458 51.2694 23.7569C51.0315 20.5451 50.1818 17.3673 48.7713 14.4445C48.7373 14.3935 48.7713 14.3255 48.8223 14.2915C48.8733 14.2575 48.9413 14.2745 48.9753 14.3255Z" fill="#2E3543"/>
</g>
</g>
</g>
</g>
</svg>
