<svg width="52" height="52" viewBox="0 0 52 52" fill="none" xmlns="http://www.w3.org/2000/svg">
<g id="expert ava">
<mask id="mask0_378_153025" style="mask-type:alpha" maskUnits="userSpaceOnUse" x="0" y="0" width="52" height="52">
<circle id="Ellipse 1" cx="25.9148" cy="25.9148" r="25.9148" fill="#D9D9D9"/>
</mask>
<g mask="url(#mask0_378_153025)">
<circle id="Ellipse 128" cx="26" cy="26" r="26" fill="white"/>
<g id="Body">
<g id="Body_2">
<g id="Revised_Shoulder_1_">
<path id="Vector" d="M40.1216 47.3098C40.0026 47.3948 39.8667 47.4798 39.7477 47.5647C39.6118 47.6497 39.4928 47.7347 39.3569 47.8026C39.2379 47.8706 39.136 47.9386 39.017 48.0065C39 48.0235 38.983 48.0235 38.966 48.0405C38.5752 48.2784 38.1673 48.4994 37.7595 48.7033C37.6406 48.7713 37.5046 48.8392 37.3857 48.8902C37.3857 48.8902 37.3687 48.9072 37.3517 48.9072C37.2157 48.9752 37.0798 49.0432 36.9438 49.1111C36.6719 49.2471 36.383 49.366 36.1111 49.485C35.9752 49.553 35.8223 49.6039 35.6863 49.6549C35.5504 49.7059 35.3974 49.7739 35.2615 49.8249C35.1255 49.8758 34.9726 49.9438 34.8366 49.9948C34.8366 49.9948 34.8366 49.9948 34.8196 49.9948C34.6837 50.0458 34.5307 50.0967 34.3948 50.1477C34.0889 50.2497 33.766 50.3516 33.4602 50.4536C33.3582 50.4876 33.2392 50.5216 33.1373 50.5556C32.8144 50.6575 32.4915 50.7425 32.1687 50.8105C32.0497 50.8445 31.9307 50.8615 31.7948 50.8954C31.4889 50.9634 31.166 51.0314 30.8602 51.0994C30.7922 51.1164 30.7412 51.1164 30.6732 51.1333C30.5713 51.1503 30.4523 51.1673 30.3504 51.1843C30.1974 51.2013 30.0615 51.2353 29.9085 51.2523C29.8406 51.2693 29.7726 51.2693 29.7046 51.2863C29.6196 51.3033 29.5177 51.3203 29.4157 51.3203C29.1438 51.3543 28.8549 51.3882 28.583 51.4222C28.4981 51.4392 28.3961 51.4392 28.3111 51.4562H28.2941C28.1752 51.4732 28.0562 51.4732 27.9373 51.4902C27.8183 51.5072 27.6994 51.5072 27.5804 51.5072C27.5124 51.5072 27.4275 51.5242 27.3595 51.5242C27.2236 51.5242 27.1046 51.5412 26.9857 51.5412C26.8157 51.5412 26.6628 51.5582 26.4928 51.5582C26.3229 51.5582 26.17 51.5582 26 51.5582C25.8811 51.5582 25.7621 51.5582 25.6432 51.5582C18.4719 51.4562 12.0314 48.4144 7.42617 43.5883C7.42617 43.5883 7.42617 43.5713 7.40918 43.5713C6.89938 43.1124 7.34121 40.6654 9.39741 39.119C11.9804 37.1647 18.166 35.9412 18.166 35.9412C18.166 35.9412 20.5621 35.5503 29.4497 37.4026C34.6497 38.4902 38.6092 40.0706 40.8183 44.353C41.2772 45.2366 41.736 46.5961 40.1216 47.3098Z" fill="white"/>
<g id="Group">
<path id="Vector_2" d="M29.5006 37.2157C32.7633 37.8784 36.247 38.5922 38.9319 40.7503C39.8326 41.4811 40.4274 42.5516 40.9202 43.5882C41.1581 44.0981 41.396 44.6248 41.5829 45.1856C41.6849 45.5595 41.8378 45.9843 41.7529 46.4262C41.7359 46.5451 41.6339 46.698 41.5489 46.783C41.1581 47.1739 40.7333 47.4118 40.3084 47.7177C37.8104 49.451 34.9385 50.6745 31.9646 51.3203C25.3372 52.7647 18.1659 51.6431 12.3372 48.1595C10.3999 46.9869 8.61561 45.5595 7.08619 43.8771C6.91626 43.6732 6.91626 43.3333 6.91626 43.1124C6.93325 42.6026 7.0692 42.1098 7.23914 41.651C7.64698 40.5974 8.17378 39.5438 9.07443 38.8131C9.72018 38.3713 10.4169 37.9974 11.1306 37.6915C13.3738 36.7399 15.7359 36.0771 18.1659 35.8052C18.3699 35.7882 18.4038 36.0771 18.1999 36.1111C15.8718 36.5869 13.5607 37.3007 11.4025 38.2693C10.6208 38.6601 9.78816 39 9.1594 39.6118C8.56463 40.2575 8.13979 41.0562 7.79992 41.8719C7.57901 42.3647 7.42606 43.1464 7.49404 43.5373C8.56463 44.8118 9.82214 45.9333 11.1816 46.902C18.6248 52.102 29.9254 52.4418 37.8444 48.1085C38.5581 47.7177 39.2548 47.2758 39.9176 46.817C40.2404 46.5961 40.5803 46.4092 40.8352 46.1543C40.8522 46.1373 40.8352 46.1543 40.8352 46.1713C40.8352 46.1882 40.8182 46.2052 40.8182 46.2052C40.8352 46.0013 40.7672 45.7294 40.6823 45.4575C40.3764 44.4719 39.8836 43.4353 39.3568 42.5347C38.5241 41.1922 37.1136 40.3425 35.6862 39.6628C34.7006 39.2039 33.664 38.8471 32.6104 38.5072C31.5568 38.1673 30.4862 37.8784 29.4156 37.6235C29.1437 37.5556 29.2287 37.1647 29.5006 37.2157Z" fill="#2E3543"/>
</g>
</g>
</g>
</g>
<g id="Outfit">
<g id="outfit_17_1_">
<path id="Vector_3" d="M15.447 36.4679C16.0418 37.5215 18.3019 41.7529 18.6588 45.4915L20.766 46.2052C20.766 46.2052 19.1686 39.1359 16.3137 35.8562C16.3137 35.8562 15.9738 35.7032 15.549 35.9921C15.4131 36.1111 15.3451 36.298 15.447 36.4679Z" fill="#2E3543"/>
<path id="Vector_4" d="M33.5281 45.5425C33.5281 45.5425 33.63 40.8353 31.5908 37.7425C31.5398 37.6575 31.6078 37.5385 31.7098 37.5555C31.8457 37.5895 32.0496 37.6405 32.3725 37.7934C32.9163 38.0483 34.6836 40.7503 34.8366 45.1856C34.8366 45.1686 33.698 45.5425 33.5281 45.5425Z" fill="#2E3543"/>
<g id="Group_2">
<path id="Vector_5" d="M39.3396 41.1242C38.456 40.1895 35.788 38.7961 35.3292 38.83C35.3462 38.864 35.3462 38.915 35.3631 38.966C36.0769 41.532 35.4991 45.0157 32.8991 45.5934C30.1971 46.1882 27.937 46.2732 22.5161 45.7294C18.5396 45.3385 14.8011 41.7699 12.8978 38.2353C12.7109 37.8784 12.4899 37.5215 12.252 37.1987C12.1161 37.0967 11.8612 37.1137 11.6743 37.2666C11.1984 37.6575 10.5697 37.6235 10.5697 37.9974C10.5697 37.9974 6.96707 39.1189 5.70956 47.0209C4.99583 51.4902 3.99322 57.2849 3.95923 59.2562H42.6533C42.3814 56.6052 42.6533 44.7947 39.3396 41.1242Z" fill="#2E3543"/>
<path id="Vector_6" d="M39.0169 41.43C38.5071 40.9202 37.8444 40.5294 37.2156 40.1555C36.6378 39.8156 35.9241 39.4418 35.3293 39.2719L35.7202 38.7281L35.7372 38.83C36.213 40.8183 36.111 43.1803 34.7346 44.8117C34.2588 45.3555 33.562 45.7464 32.8483 45.8653C31.5228 46.1372 30.1463 46.2902 28.7869 46.2902C26.4078 46.2732 24.0627 46.0862 21.7176 45.7634C20.0522 45.4065 18.5058 44.5738 17.1633 43.5372C15.2771 42.0758 13.8326 40.1555 12.4901 38.2013C12.3032 37.9294 12.0823 37.6745 11.8444 37.4536L11.9293 37.5555C11.9633 37.5895 11.9803 37.5725 11.9633 37.5725C11.9633 37.5725 11.9293 37.5725 11.9123 37.5895C11.8954 37.5895 11.8954 37.5895 11.8784 37.6235C11.6065 37.8614 11.1646 37.9803 10.8927 38.1333C10.9097 38.1333 10.9437 38.0313 10.9437 38.0143L10.6378 38.4222L10.5869 38.4392L10.5189 38.4732C8.19078 39.7307 7.06921 42.7215 6.45745 45.1686C5.86268 47.9555 5.50581 50.8274 5.03 53.6313C4.7581 55.5006 4.41823 57.4209 4.33326 59.2732L3.89143 58.8313H42.6535L42.2287 59.3071C41.8718 54.6 42.0588 45.0496 39.0169 41.43ZM39.6627 40.8353C42.9424 44.6588 42.7385 54.2601 43.0954 59.2222C43.1124 59.4601 42.9424 59.681 42.7045 59.698C42.6875 59.732 3.9764 59.681 3.95941 59.698C3.7215 59.698 3.51758 59.5111 3.51758 59.2732C3.55157 58.2705 3.68751 57.3019 3.80647 56.3503C4.19732 53.4954 4.67313 50.6575 5.13196 47.8196C5.42085 45.9163 5.8117 43.962 6.5764 42.1607C7.34111 40.3764 8.47967 38.5071 10.315 37.6405C10.349 37.6235 10.3829 37.6065 10.4339 37.5895L10.128 37.9973C10.111 37.4026 10.7568 37.2496 11.1646 37.0797C11.4365 36.9268 11.6574 36.7058 11.9973 36.7058C12.1673 36.6888 12.4731 36.7568 12.6091 36.9607C12.847 37.4366 13.0509 37.9124 13.2548 38.3882C13.5947 39.1529 14.0365 39.8666 14.5463 40.5294C16.3816 42.8575 18.8627 44.8967 21.8195 45.4915C22.8052 45.6614 23.8248 45.6954 24.8104 45.7803C27.4784 45.9673 30.1633 46.0013 32.7633 45.3555C33.3751 45.2196 33.9019 44.8967 34.2927 44.4209C35.4483 42.9594 35.4483 40.8183 34.9385 39.0849L34.9045 38.949C34.8195 38.6941 35.0235 38.4052 35.2954 38.4052C35.7882 38.4222 36.162 38.6601 36.6039 38.847C37.6914 39.3908 38.762 39.9686 39.6627 40.8353Z" fill="#2E3543"/>
</g>
<g id="Group_3">
<path id="Vector_7" d="M33.9357 47.4287C31.1488 48.6183 21.9893 48.8902 17.3331 46.3752C14.3933 44.7948 12.49 41.3111 11.5723 39.9686C10.8926 38.949 10.5527 37.9974 10.5527 37.9974C10.5527 37.6235 11.1985 37.6575 11.6573 37.2667C11.8442 37.1137 12.0991 37.0967 12.2351 37.1987C12.473 37.5385 12.6939 37.8784 12.8808 38.2353C14.7841 41.7529 17.7919 45.2876 22.4991 45.7294C27.9201 46.2392 30.1802 46.1882 32.8821 45.5935C35.4821 45.0157 36.0599 41.532 35.3462 38.966C35.3292 38.932 35.3292 38.881 35.3122 38.8301C35.771 38.7961 36.6547 38.881 36.9776 39.6967C36.9946 39.6967 38.3031 45.5765 33.9357 47.4287Z" fill="white"/>
<path id="Vector_8" d="M34.0378 47.6666C32.9162 48.1255 31.7437 48.2954 30.5711 48.4313C29.3986 48.5673 28.226 48.6183 27.0535 48.6183C24.1136 48.5843 21.1227 48.3124 18.3528 47.2588C15.192 46.1202 13.1528 43.2483 11.4535 40.5294C10.9437 39.7817 10.4678 39.017 10.179 38.1503C10.094 37.9294 10.2299 37.6235 10.4169 37.4876C10.6718 37.2836 10.9607 37.2836 11.2156 37.1817C11.3855 37.1307 11.4874 37.0287 11.6404 36.9438C11.9123 36.8248 12.2182 36.7228 12.558 36.8758C14.5123 41.1411 17.7241 45.2196 22.7541 45.5764C26.0848 45.8823 29.4835 46.2222 32.7803 45.4575C34.1058 45.2366 34.9724 44.047 35.2783 42.7895C35.6182 41.515 35.5162 40.1385 35.1593 38.881C35.1254 38.7621 35.2103 38.6431 35.3293 38.6431C36.06 38.5751 36.9607 38.898 37.2156 39.6627C37.5044 41.1921 37.5044 42.7555 37.0626 44.234C36.6208 45.7464 35.4992 47.0719 34.0378 47.6666ZM33.8339 47.1908C35.1933 46.647 36.1959 45.4915 36.6548 44.115C37.1136 42.7215 37.1646 41.1751 36.8757 39.7307C36.6718 39.1699 35.958 38.932 35.3463 39.017L35.5162 38.7791C36.094 40.9542 35.975 44.081 33.8169 45.3895C33.511 45.5594 33.1711 45.6784 32.8312 45.7464C32.1685 45.8823 31.4888 46.0013 30.826 46.0862C28.1241 46.3751 25.4051 46.1542 22.7201 45.9333C18.1149 45.6954 14.5633 42.0758 12.592 38.1673C12.4561 37.8614 12.3031 37.5725 12.1502 37.2666L12.1842 37.3006C11.9293 37.1477 11.6574 37.5045 11.4195 37.5895C11.1986 37.7085 10.9607 37.7594 10.7737 37.8784C10.7397 37.9124 10.7227 37.9464 10.7227 37.9974V37.9464C11.1136 39.017 11.8273 39.9856 12.4391 40.9372C13.9855 43.3163 15.8548 45.7124 18.6077 46.698C22.4482 48.2274 29.8914 48.6013 33.8339 47.1908Z" fill="#2E3543"/>
</g>
</g>
</g>
<g id="Head">
<g id="Head_5_1_">
<g id="Neck_1_4_">
<path id="Vector_9" d="M31.0981 41.736C30.7412 43.4863 28.4301 44.5399 24.5386 42.9595C20.4942 41.3281 18.7438 37.4366 18.302 36.2811C20.6981 31.7948 19.0327 28.685 19.0327 28.685C24.5556 28.2092 29.3817 34.6667 29.3817 34.6667L30.1295 37.8614C30.1974 38.1333 30.3334 38.3712 30.5373 38.5412C30.8942 39.1699 31.319 40.6144 31.0981 41.736Z" fill="white"/>
<g id="Group_4">
<path id="Vector_10" d="M18.217 36.332C18.5399 35.8392 18.7438 35.2614 18.8797 34.7006C19.1346 33.5281 19.2196 32.3386 19.2366 31.149V30.7072C19.1856 30.2654 19.0327 29.8065 18.8627 29.3987C18.6418 28.8549 19.4405 28.515 19.6954 29.0588C19.7294 29.1268 19.7294 29.2457 19.7294 29.3137C19.7804 31.6248 19.8824 34.5987 18.4209 36.5189C18.319 36.6209 18.115 36.468 18.217 36.332Z" fill="#2E3543"/>
</g>
<g id="Group_5">
<path id="Vector_11" d="M29.5687 34.6327C29.8236 34.7856 29.9085 34.9896 29.9425 35.1935C30.0445 35.6013 30.0105 36.0432 30.1124 36.468C30.1974 36.8758 30.4523 37.2667 30.5203 37.6915C30.6053 38.1334 30.8602 39.068 30.9621 39.5268C30.9961 39.6288 30.9281 39.7477 30.8092 39.7647C30.7412 39.7817 30.6902 39.7647 30.6392 39.7307C30.4183 39.5438 30.3164 39.3569 30.1804 39.119C29.9595 38.7111 29.8066 38.3373 29.6706 37.8785C29.5517 37.4706 29.6026 37.0288 29.5007 36.6039C29.4157 36.1961 29.1778 35.8052 29.0928 35.3804C29.0419 35.1765 29.0249 34.9556 29.1778 34.7007C29.2798 34.5987 29.4497 34.5647 29.5687 34.6327Z" fill="#2E3543"/>
</g>
<path id="Vector_12" d="M30.7922 39.119C27.5465 38.949 24.8955 37.9294 22.3125 33.3242C24.4877 35.2444 27.0537 35.9752 29.7556 36.315L30.1125 37.8784C30.1805 38.1503 30.5883 38.949 30.7922 39.119Z" fill="#2E3543"/>
<g id="Group_6">
<path id="Vector_13" d="M30.6562 38.4902C31.234 39.5778 31.5738 40.9373 31.217 42.1438C30.9451 42.9935 30.1634 43.6222 29.3137 43.8601C27.3425 44.3869 25.0653 43.5543 23.315 42.6196C21.1568 41.4131 19.5595 39.3909 18.5399 37.1817C18.4719 37.0118 18.7098 36.8758 18.8117 37.0458C19.1686 37.7595 19.5765 38.4562 20.0353 39.085C20.4941 39.7307 21.0209 40.3255 21.6157 40.8523C23.349 42.4157 25.6941 43.3843 28.0392 43.3843C30.4523 43.3164 31.3699 42.0418 30.8091 39.6967C30.7242 39.3229 30.5882 38.932 30.4013 38.6092C30.2993 38.4732 30.5542 38.3203 30.6562 38.4902Z" fill="#2E3543"/>
</g>
</g>
<path id="Vector_14" d="M37.2325 18.0811C37.5384 19.5085 36.9436 20.1543 36.9436 23.9778C36.9436 25.8981 36.7567 28.0902 36.3828 30.1974C35.992 32.3726 34.9044 34.4288 33.0861 35.9582C30.3332 38.2523 27.4443 38.3543 24.0286 35.6863C23.5528 35.3124 21.8874 34.0549 21.4626 33.6301C20.5109 32.6954 20.426 30.2824 19.8142 29.3477C19.3894 28.702 19.1345 29.7386 18.1659 28.668C16.8234 27.2066 15.209 24.2667 16.0077 19.0667C17.2992 10.6379 23.9776 9.65232 28.9227 10.587C33.8678 11.5046 36.4168 14.3255 37.2325 18.0811Z" fill="white"/>
<g id="Group_7">
<path id="Vector_15" d="M18.9817 30.1464C18.3869 29.1778 17.5542 28.3621 17.0104 27.3595C15.3621 24.3177 15.0222 20.6131 15.9059 17.2824C17.7921 10.1451 24.7255 8.92158 31.0131 10.8588C34.4118 11.9124 36.9098 14.4784 37.6065 18.0131C37.8614 19.2876 37.3176 20.5111 37.2327 21.7516C37.1477 22.4994 37.1137 23.2471 37.1307 23.9948C37.2157 26.2719 37.1477 28.583 36.468 30.7752C35.7712 32.9673 34.6327 35.1425 32.7464 36.553C29.1948 39.2039 24.9974 37.2667 22.2444 34.4628C22.1595 34.3778 22.2784 34.2418 22.3804 34.3098C24.1817 35.6013 26.102 36.8249 28.3111 37.0628C32.1686 37.5046 34.8536 33.902 35.9921 30.6392C36.485 29.2288 36.7399 27.7503 36.7908 26.2719C36.8418 24.7595 36.7229 23.2471 36.7738 21.7347C36.7908 21.3608 36.8078 20.9699 36.8418 20.5961C36.8928 20.0013 37.0457 19.0157 36.9268 18.4379C36.5699 16.6706 35.7882 14.9713 34.5307 13.6628C31.5908 10.6209 26.051 9.75426 22.1425 11.1647C17.5542 12.8471 16.3477 17.4523 16.0928 21.8706C15.9229 24.5216 16.7046 27.1046 18.7098 28.9229L19.5085 29.7556C19.8314 30.0954 19.2536 30.5543 18.9817 30.1464Z" fill="#2E3543"/>
</g>
<path id="Vector_16" d="M20.987 24.7425C20.987 24.7425 20.4602 22.1935 17.9791 22.4994C15.838 22.7713 15.0902 27.9033 19.9504 29.3307" fill="white"/>
<g id="Group_8">
<path id="Vector_17" d="M19.7295 27.1046C19.3386 26.8837 19.0667 26.5099 19.0497 26.051C19.0667 25.7112 19.1177 25.3203 19.0327 24.9804C18.9817 24.6576 18.6419 24.5726 18.387 24.5896C18.1151 24.6406 17.9451 24.9804 17.8942 25.2523C17.8942 25.2693 17.8772 25.3203 17.8772 25.3373C17.8602 25.4223 17.7242 25.4223 17.6902 25.3373C17.4693 24.6746 17.9621 23.9438 18.6759 24.0288C19.6785 24.0968 19.8144 25.1504 19.6275 25.9491C19.5255 26.2889 19.6615 26.5948 19.8484 26.8837L19.8824 26.9347C19.9674 27.0366 19.8314 27.1726 19.7295 27.1046Z" fill="#2E3543"/>
</g>
<g id="Group_9">
<path id="Vector_18" d="M33.3243 22.9412C33.5792 24.1477 34.055 25.2693 34.6498 26.3229C35.1766 27.6144 33.8171 28.8379 32.6106 28.7869C32.4747 28.7869 32.4577 28.6 32.5766 28.566C33.3413 28.3281 34.0381 27.8183 34.157 27.0366C34.208 26.7987 34.14 26.5948 34.0211 26.3908C33.4603 25.3372 33.1204 24.1307 33.2054 22.9412C33.2054 22.8562 33.3243 22.8562 33.3243 22.9412Z" fill="#2E3543"/>
</g>
<g id="Group_10">
<path id="Vector_19" d="M20.9019 24.7595C20.5111 23.7569 19.6614 22.8053 18.5228 22.8223C18.4209 22.8053 18.2509 22.8392 18.149 22.8392C17.8601 22.8562 17.6222 22.9582 17.4013 23.1621C16.3137 24.2497 16.5006 26.17 17.3843 27.3765C17.6901 27.8013 18.081 28.1752 18.5228 28.4811C18.9647 28.787 19.4575 29.0249 19.9843 29.2288C20.1032 29.2628 20.0522 29.4497 19.9333 29.4327C18.7947 29.1948 17.7071 28.634 16.9594 27.6994C15.8039 26.3059 15.566 23.9778 16.9424 22.6183C17.2483 22.3464 17.6732 22.1425 18.098 22.1425C18.2339 22.1425 18.4379 22.1085 18.5738 22.1425C19.2875 22.1765 19.9673 22.5334 20.4091 23.0941C20.7999 23.57 21.0209 24.1477 21.0888 24.7255C21.0888 24.8275 20.9359 24.8615 20.9019 24.7595Z" fill="#2E3543"/>
</g>
</g>
</g>
<g id="Mouth">
<g id="Normal_Smile_1_">
<g id="Group_11">
<path id="Vector_20" d="M32.0326 30.4863C30.9451 31.5229 28.8889 30.6902 28.3451 29.4327C28.2771 29.2797 28.447 29.1438 28.583 29.2118C28.8719 29.3647 29.1268 29.5176 29.3987 29.6366C30.1804 29.9935 30.996 30.2824 31.8627 30.1974C32.0326 30.1634 32.1516 30.3673 32.0326 30.4863Z" fill="#2E3543"/>
</g>
</g>
</g>
<g id="Eyes">
<g id="sad_2_">
<path id="Vector_21" d="M29.6026 20.732C29.9764 20.698 30.1633 20.2562 29.9594 19.9163C29.8405 19.7464 29.6875 19.5935 29.4666 19.5085C28.8208 19.3046 26.7137 19.7634 25.796 20.817C24.9803 21.7856 27.9032 20.885 29.6026 20.732Z" fill="#2E3543"/>
<path id="Vector_22" d="M34.0888 21.0039C33.7999 20.9189 33.7149 20.4941 33.9528 20.2222C34.0718 20.0863 34.2417 19.9673 34.4286 19.9333C35.0064 19.8314 36.3319 20.3582 36.7058 21.3608C37.0456 22.2274 35.4652 21.3438 34.0888 21.0039Z" fill="#2E3543"/>
<path id="Vector_23" d="M26.9855 24.6745C26.5777 24.6575 26.2718 24.3177 26.3058 23.9098L26.3228 23.434C26.3398 23.0262 26.6797 22.7203 27.0875 22.7543C27.4953 22.7713 27.8012 23.1111 27.7672 23.519L27.7502 23.9948C27.7333 24.3856 27.3934 24.6915 26.9855 24.6745Z" fill="#2E3543"/>
<path id="Vector_24" d="M34.1399 24.9294C33.766 24.9124 33.4771 24.5895 33.4941 24.2157L33.5111 23.7738C33.5281 23.4 33.851 23.1111 34.2248 23.1281C34.5987 23.1451 34.8876 23.468 34.8706 23.8418L34.8536 24.2836C34.8366 24.6575 34.5137 24.9464 34.1399 24.9294Z" fill="#2E3543"/>
<g id="Group_12">
<path id="Vector_25" d="M28.515 23.7569C27.9543 23.383 27.3425 23.1281 26.6628 23.2641C26.4418 23.298 26.2209 23.366 26.085 23.519C26.034 23.5869 25.915 23.5699 25.915 23.468C25.932 23.1281 26.2209 22.9072 26.4928 22.7712C27.0196 22.4994 27.7503 22.5503 28.2262 22.9072C28.3961 23.0092 28.9739 23.6379 28.668 23.7739C28.6 23.8078 28.566 23.7909 28.515 23.7569Z" fill="#2E3543"/>
</g>
<g id="Group_13">
<path id="Vector_26" d="M33.375 23.8418C33.375 23.1281 34.2587 22.8732 34.8025 23.1281C35.1083 23.2641 35.3292 23.5359 35.4142 23.8588C35.4482 23.9608 35.2953 24.0458 35.2273 23.9608C34.9384 23.6209 34.4456 23.451 34.0547 23.6549C33.9358 23.7229 33.9188 23.7739 33.8848 23.8418C33.8848 24.1817 33.392 24.1647 33.375 23.8418Z" fill="#2E3543"/>
</g>
</g>
</g>
<g id="Hair">
<path id="style_28_1_" d="M37.2789 22.8732C37.4488 21.8026 37.5678 20.817 37.6358 19.8823C39.0122 18.5908 39.1312 13.2889 35.8175 13.2549C35.8175 13.2549 35.1887 9.8222 32.2658 9.32939C30.0567 8.95554 29.0881 9.34639 25.8253 9.97514C25.7743 9.99214 25.7233 10.0091 25.6554 10.0091C21.7469 10.298 18.4501 12.0314 16.9547 14.1215C15.6972 15.8889 15.1364 17.3843 15.0005 19.3725C15.0005 19.4915 14.9835 19.6104 14.9835 19.7294V19.7634C14.9665 20.1372 14.9665 20.5281 14.9835 20.9359C14.9155 21.8876 14.6266 23.1791 13.692 24.1307C12.5704 25.2693 12.0606 26.2549 12.3495 28.2091C9.90243 29.6706 7.25145 32.1686 9.88544 38.5242C11.2789 37.6915 12.9952 37.0627 14.6436 36.7908C15.1704 36.7059 15.7312 36.6379 16.326 36.6039C18.705 36.434 20.3364 34.1908 19.8606 31.8627C19.7756 31.4039 19.7077 30.9111 19.7077 30.3503C19.7077 30.0104 19.7247 29.6876 19.7586 29.3817C15.0854 27.9032 15.8332 22.8732 17.9573 22.6013C18.722 22.4993 19.2828 22.6863 19.7247 22.9581C19.8096 23.1111 19.9116 23.247 20.0135 23.383C22.7155 26.9686 19.9286 27.5634 21.1351 29.8575C21.8318 31.183 22.6135 31.5568 22.6135 31.5568C22.5626 31.03 20.4894 29.6536 22.0018 27.9032C23.5142 26.1529 22.1207 25.0314 22.0867 23.7059C22.0358 22.0405 22.3756 20.851 22.8005 20.0183C23.4462 19.4915 24.3299 19.1176 25.5364 19.0497C31.9769 18.6928 33.3704 16.8575 33.6083 15.7189C34.0671 17.0274 34.8998 18.8117 36.3103 19.8993C36.3782 20.0013 36.4632 20.1032 36.5312 20.2052C36.4122 22.2274 37.075 29.1778 34.441 33.9019C33.7273 35.1934 32.8776 36.315 31.926 36.4849C31.2462 36.6039 31.1103 36.7908 30.5665 36.9268C30.0737 37.0627 30.1247 37.1987 30.1247 37.1987C30.1247 39.2209 33.1665 38.5921 34.6959 38.7621C36.0724 38.915 37.2619 39.6457 37.2619 39.6457C37.2619 39.6457 38.4175 38.1503 38.1626 34.7516C37.8737 30.9791 35.9874 31.3189 37.2789 22.8732Z" fill="#2E3543"/>
</g>
<g id="Accesories">
<g id="Stylish_Glasses_1_">
<path id="Vector_27" d="M29.6877 26.7647C29.6877 26.7647 28.0903 27.7673 26.289 27.7503C24.4877 27.7333 24.2667 26.3229 24.2498 25.5582C24.2498 25.5582 24.4877 26.6627 25.5752 27.0706C26.6458 27.4784 29.6877 26.7647 29.6877 26.7647Z" fill="#2E3543"/>
<path id="Vector_28" d="M34.8196 26.5778C34.8196 26.5778 35.2104 27.0536 35.7372 27.3934C36.0941 27.6314 36.5699 27.3765 36.5699 26.9516C36.5699 26.9516 35.5843 27.0026 34.8196 26.5778Z" fill="#2E3543"/>
<g id="Group_14">
<path id="Vector_29" d="M30.2822 22.2275C29.3646 22.1425 27.0535 21.9556 26.1698 21.8706L25.4901 21.8196C24.9293 21.7856 24.4874 22.2615 24.3855 22.8052C24.3515 22.9752 24.3515 23.2641 24.3515 23.434V24.1307C24.3515 24.5556 24.3345 24.9974 24.4874 25.4052C24.7593 26.3569 25.626 27.1216 26.6456 27.0026C26.7476 26.9856 27.3763 26.9177 27.4953 26.9007L28.8718 26.7477C29.3136 26.7137 29.7214 26.5948 30.1123 26.3569C30.6561 26.034 31.1829 25.5412 31.1489 24.8445L31.1829 24.1647C31.2169 23.315 31.4548 22.3124 30.2822 22.2275ZM30.3332 21.6667C31.1319 21.7347 31.6757 22.5673 31.6247 23.332C31.6247 23.434 31.5907 24.0798 31.5737 24.1987C31.5737 24.3347 31.5397 24.9464 31.5227 25.0654C31.4378 26.2209 30.1463 27.0366 29.0927 27.1896C28.5489 27.2575 27.4103 27.4105 26.8665 27.4784C26.7306 27.4954 26.5436 27.5124 26.4077 27.5294C26.3397 27.5294 26.1868 27.5124 26.1188 27.5124C24.6744 27.3255 23.7567 25.8471 23.7907 24.4706C23.7907 24.2497 23.7907 23.6719 23.7907 23.434C23.7907 23.315 23.7907 23.0092 23.8077 22.8902C23.8587 22.2954 24.1816 21.7177 24.7253 21.3948C24.9633 21.2588 25.2521 21.1909 25.541 21.2079L26.2378 21.2758C27.0874 21.3778 29.4325 21.5987 30.3332 21.6667Z" fill="#2E3543"/>
</g>
<g id="Group_15">
<path id="Vector_30" d="M34.2757 21.9386C34.6496 21.8876 36.4849 21.6837 36.8248 21.6497C36.9097 21.6497 37.1306 21.6157 37.1986 21.6157C37.9293 21.5137 38.2692 22.3124 38.3372 22.9072C38.3712 23.434 38.3372 23.9438 38.3542 24.4536C38.3542 24.8105 38.3202 25.1673 38.2352 25.5072C38.0143 26.4249 37.3686 27.3935 36.298 27.0876C36.0431 27.0366 35.5333 26.9687 35.2954 26.9177L35.0404 26.8667C34.5476 26.7817 34.1398 26.4419 33.8679 26.068C33.3581 25.4732 33.4601 24.6745 33.4091 23.9608C33.3411 23.2471 33.3581 22.1425 34.2757 21.9386ZM34.3437 22.4314C33.8169 22.6693 33.9529 23.468 33.9529 23.9438L33.9869 24.9634C34.0038 25.6092 34.5137 26.2549 35.1254 26.4249C35.2784 26.4588 35.7032 26.5438 35.8731 26.5778L36.3659 26.6798C37.5895 27.0706 38.0653 25.3713 38.0483 24.4366C37.9973 23.6549 38.2352 22.7203 37.6744 22.0915C37.5385 21.9556 37.4025 21.9216 37.2496 21.9556C37.1646 21.9726 36.9437 22.0066 36.8757 22.0236C36.5359 22.0915 34.7006 22.3804 34.3437 22.4314Z" fill="#2E3543"/>
</g>
<g id="Group_16">
<path id="Vector_31" d="M24.0627 23.519C23.9268 23.8248 23.8078 23.7909 23.5699 23.7909L23.0771 23.7739C22.4484 23.7399 21.7516 23.6889 21.1229 23.6039C20.783 23.553 20.4261 23.502 20.0863 23.417C19.9503 23.383 19.8654 23.2471 19.8993 23.1111C19.9333 22.9922 20.0353 22.9072 20.1542 22.9242L21.1399 22.9752L22.1255 23.0092C22.4484 23.0262 23.281 23.0431 23.6039 23.0601C23.7738 23.0601 23.9268 23.0771 24.0967 23.0262C24.1647 23.0092 24.2327 23.0431 24.2497 23.1111C24.2667 23.1451 24.2497 23.1621 24.2497 23.1961L24.0627 23.519Z" fill="#2E3543"/>
</g>
<g id="Group_17">
<path id="Vector_32" d="M31.302 23.1621C31.9137 22.8222 33.5281 22.3464 33.834 23.2641C33.9699 23.502 33.6131 23.7229 33.4601 23.485C33.4601 23.519 33.3752 23.485 33.3412 23.485C32.6954 23.434 32.0327 23.536 31.3869 23.5869C31.115 23.6209 31.0641 23.2641 31.302 23.1621Z" fill="#2E3543"/>
</g>
</g>
</g>
<g id="Bg">
<g id="Bg_2">
<path id="Vector_33" d="M48.9753 14.3255C59.2903 34.1909 41.1583 56.6052 19.5426 51.1333C9.83931 48.7203 2.03931 40.3085 0.424931 30.4353C-1.41036 20.6131 3.02493 10.0601 11.3177 4.50328C22.6864 -3.31371 38.4393 -0.713713 46.5792 10.468C46.6302 10.519 46.6132 10.6039 46.5452 10.6549C46.4942 10.7059 46.4092 10.6889 46.3583 10.6209C45.2367 9.17648 43.9622 7.86799 42.5687 6.69544C40.2746 4.74119 37.5896 3.21178 34.7517 2.17518C20.3073 -3.05881 4.45238 5.64184 1.2916 20.749C-2.27703 37.6745 12.1164 53.2575 29.2798 50.9294C42.5177 49.2641 52.357 37.0458 51.2694 23.7569C51.0315 20.5451 50.1818 17.3673 48.7713 14.4445C48.7374 14.3935 48.7713 14.3255 48.8223 14.2915C48.8733 14.2575 48.9413 14.2745 48.9753 14.3255Z" fill="#2E3543"/>
</g>
</g>
</g>
</g>
</svg>
