<svg width="52" height="52" viewBox="0 0 52 52" fill="none" xmlns="http://www.w3.org/2000/svg">
<mask id="mask0_628_1653" style="mask-type:alpha" maskUnits="userSpaceOnUse" x="0" y="0" width="52" height="52">
<circle cx="25.9148" cy="25.9148" r="25.9148" fill="#D9D9D9"/>
</mask>
<g mask="url(#mask0_628_1653)">
<circle cx="26" cy="26" r="26" fill="white"/>
<path d="M40.1216 47.3098C40.0026 47.3948 39.8667 47.4797 39.7477 47.5647C39.6118 47.6497 39.4928 47.7346 39.3569 47.8026C39.2379 47.8706 39.136 47.9385 39.017 48.0065C39 48.0235 38.983 48.0235 38.966 48.0405C38.5752 48.2784 38.1673 48.4993 37.7595 48.7033C37.6406 48.7712 37.5046 48.8392 37.3857 48.8902C37.3857 48.8902 37.3687 48.9072 37.3517 48.9072C37.2157 48.9751 37.0798 49.0431 36.9438 49.1111C36.6719 49.247 36.383 49.366 36.1111 49.485C35.9752 49.5529 35.8223 49.6039 35.6863 49.6549C35.5504 49.7059 35.3974 49.7738 35.2615 49.8248C35.1255 49.8758 34.9726 49.9438 34.8366 49.9948C34.8366 49.9948 34.8366 49.9948 34.8196 49.9948C34.6837 50.0457 34.5307 50.0967 34.3948 50.1477C34.0889 50.2497 33.766 50.3516 33.4602 50.4536C33.3582 50.4876 33.2392 50.5216 33.1373 50.5555C32.8144 50.6575 32.4915 50.7425 32.1687 50.8104C32.0497 50.8444 31.9307 50.8614 31.7948 50.8954C31.4889 50.9634 31.166 51.0314 30.8602 51.0993C30.7922 51.1163 30.7412 51.1163 30.6732 51.1333C30.5713 51.1503 30.4523 51.1673 30.3504 51.1843C30.1974 51.2013 30.0615 51.2353 29.9085 51.2523C29.8406 51.2693 29.7726 51.2693 29.7046 51.2863C29.6196 51.3032 29.5177 51.3202 29.4157 51.3202C29.1438 51.3542 28.8549 51.3882 28.583 51.4222C28.4981 51.4392 28.3961 51.4392 28.3111 51.4562H28.2941C28.1752 51.4732 28.0562 51.4732 27.9373 51.4902C27.8183 51.5072 27.6994 51.5072 27.5804 51.5072C27.5124 51.5072 27.4275 51.5242 27.3595 51.5242C27.2236 51.5242 27.1046 51.5412 26.9857 51.5412C26.8157 51.5412 26.6628 51.5582 26.4928 51.5582C26.3229 51.5582 26.17 51.5582 26 51.5582C25.8811 51.5582 25.7621 51.5582 25.6432 51.5582C18.4719 51.4562 12.0314 48.4144 7.42617 43.5882C7.42617 43.5882 7.42617 43.5712 7.40918 43.5712C6.89938 43.1124 7.34121 40.6653 9.39741 39.1189C11.9804 37.1647 18.166 35.9412 18.166 35.9412C18.166 35.9412 20.5621 35.5503 29.4497 37.4026C34.6497 38.4902 38.6092 40.0706 40.8183 44.3529C41.2772 45.2366 41.736 46.5961 40.1216 47.3098Z" fill="white"/>
<path d="M29.5006 37.2157C32.7633 37.8784 36.247 38.5922 38.9319 40.7503C39.8326 41.481 40.4274 42.5516 40.9202 43.5882C41.1581 44.098 41.396 44.6248 41.5829 45.1856C41.6849 45.5595 41.8378 45.9843 41.7529 46.4261C41.7359 46.5451 41.6339 46.698 41.5489 46.783C41.1581 47.1739 40.7333 47.4118 40.3084 47.7176C37.8104 49.451 34.9385 50.6745 31.9646 51.3203C25.3372 52.7647 18.1659 51.6431 12.3372 48.1595C10.3999 46.9869 8.61561 45.5595 7.08619 43.8771C6.91626 43.6732 6.91626 43.3333 6.91626 43.1124C6.93325 42.6026 7.0692 42.1098 7.23914 41.651C7.64698 40.5974 8.17378 39.5438 9.07443 38.8131C9.72018 38.3712 10.4169 37.9974 11.1306 37.6915C13.3738 36.7399 15.7359 36.0771 18.1659 35.8052C18.3699 35.7882 18.4038 36.0771 18.1999 36.1111C15.8718 36.5869 13.5607 37.3006 11.4025 38.2693C10.6208 38.6601 9.78816 39 9.1594 39.6118C8.56463 40.2575 8.13979 41.0562 7.79992 41.8719C7.57901 42.3647 7.42606 43.1464 7.49404 43.5373C8.56463 44.8118 9.82214 45.9333 11.1816 46.902C18.6248 52.102 29.9254 52.4418 37.8444 48.1085C38.5581 47.7176 39.2548 47.2758 39.9176 46.817C40.2404 46.5961 40.5803 46.4091 40.8352 46.1542C40.8522 46.1373 40.8352 46.1542 40.8352 46.1712C40.8352 46.1882 40.8182 46.2052 40.8182 46.2052C40.8352 46.0013 40.7672 45.7294 40.6823 45.4575C40.3764 44.4719 39.8836 43.4353 39.3568 42.5346C38.5241 41.1922 37.1136 40.3425 35.6862 39.6627C34.7006 39.2039 33.664 38.8471 32.6104 38.5072C31.5568 38.1673 30.4862 37.8784 29.4156 37.6235C29.1437 37.5556 29.2287 37.1647 29.5006 37.2157Z" fill="#2E3543"/>
<path d="M45.7636 57.8457H2.78711C2.78711 57.8457 3.48384 50.8444 6.13482 45.2535C7.10345 43.2143 7.42632 40.2235 9.34659 38.915C11.3178 37.5725 15.5152 36.5019 16.9767 36.332C17.7923 36.23 17.6054 36.162 18.1832 36.0091C18.3701 36.5189 20.2564 41.515 24.7767 43.3503C28.6682 44.9307 30.9793 43.8771 31.3361 42.1267C31.557 41.0052 30.8603 39.1699 30.5035 38.5751C30.2995 38.4052 30.1636 38.1503 30.0956 37.8954L29.9597 37.3346C30.2655 37.2666 30.5544 37.1816 30.8603 37.0967C31.0133 37.1307 31.1832 37.1137 31.3191 37.1986C32.7466 37.9803 37.0459 39.0849 39.2891 41.447C40.1727 42.3646 41.5492 45.6274 41.7701 47.7516C42.3989 53.5803 45.7636 57.8457 45.7636 57.8457Z" fill="white"/>
<path d="M46.0015 57.9477C33.2564 57.9817 15.3623 58.1346 2.80413 58.0836C2.65119 58.0836 2.53223 57.9477 2.54923 57.7948C2.70217 56.5882 2.90609 55.4157 3.144 54.2261C3.77276 50.9804 4.72439 47.7856 6.15184 44.8118C6.72962 43.4183 7.01851 41.9569 7.71524 40.5974C8.12308 39.7817 8.73485 39 9.55053 38.5412C10.859 37.7595 12.3035 37.2667 13.7479 36.8248C14.6146 36.5699 15.4982 36.332 16.3819 36.1621C16.8237 36.0601 17.2656 36.0771 17.6734 35.9072C17.8943 35.8222 18.3192 35.5673 18.4551 35.8902C19.6956 39.102 22.0917 42.1438 25.4394 43.2823C27.1728 43.9111 30.1806 44.4379 31.0643 42.3137C31.3362 41.515 31.0812 40.6484 30.8433 39.8497C30.7074 39.4418 30.5375 39.017 30.3335 38.6771L30.3845 38.7281C30.0786 38.4732 29.9087 38.0654 29.8577 37.6915L29.7728 37.3516C29.7388 37.2157 29.8237 37.0797 29.9597 37.0457C30.2656 36.9948 30.5714 36.8928 30.8773 36.8078C31.0473 36.8078 31.3192 36.8418 31.5401 36.9608C33.4094 37.8274 35.5335 38.4562 37.3179 39.5438C38.3205 40.1386 39.3401 40.8353 39.9858 41.8379C41.1754 43.8261 41.9401 46.0863 42.161 48.3804C42.6368 51.6601 43.9623 54.8039 45.8656 57.5059L45.9335 57.5908L45.9675 57.6248L45.9845 57.6418C45.9845 57.6418 45.9845 57.6248 46.0015 57.6758C46.0185 57.7778 46.0185 57.8967 46.0015 57.9477ZM45.5427 57.7268C45.5087 57.7778 45.5087 57.8967 45.5427 57.9477C45.5767 57.9817 45.5597 57.9647 45.5597 57.9647L45.5427 57.9477L45.5087 57.8967L45.4407 57.8118C44.3701 56.1804 43.4865 54.4301 42.8407 52.6118C42.3309 51.2693 41.9571 49.8758 41.7531 48.4484C41.6852 47.9386 41.6002 47.2588 41.4813 46.766C41.0904 45.1346 40.4616 43.5033 39.561 42.0928C39.2721 41.634 38.8473 41.2771 38.4224 40.9372C37.0799 39.9176 35.4995 39.2889 33.9362 38.6771L32.3388 38.0823C31.812 37.8784 31.1832 37.6575 30.8603 37.3346H30.9963C30.6904 37.4366 30.3845 37.5216 30.0786 37.5895L30.2656 37.2837L30.3505 37.6235C30.4185 37.9294 30.4865 38.2013 30.7244 38.4052C30.7414 38.4222 30.7584 38.4392 30.7754 38.4562C31.2342 39.2889 31.5061 40.1555 31.642 41.0902C31.9309 42.7046 30.9113 43.9791 29.3479 44.285C27.1897 44.7098 24.6067 43.7752 22.8224 42.5686C20.5793 40.9882 18.9649 38.6431 17.9793 36.1111L18.2852 36.264C18.1322 36.315 18.0303 36.366 17.8773 36.434C17.7244 36.5189 17.5375 36.5699 17.3675 36.6039C17.3845 36.7059 17.3335 36.4 17.4015 36.8078C17.0786 36.8418 16.8237 36.8588 16.5179 36.9268C15.6512 37.0627 14.7845 37.2667 13.9348 37.5046C12.7963 37.8104 11.6747 38.1843 10.6211 38.6771C10.0943 38.932 9.58452 39.2039 9.19367 39.5608C8.78583 39.9176 8.46295 40.3935 8.19106 40.9033C7.39236 42.4497 7.00151 44.302 6.18583 45.8653C4.48648 49.6549 3.53485 53.7843 3.07602 57.9137L2.82112 57.6418C15.1584 57.5908 33.0015 57.6588 45.5427 57.7268Z" fill="#2E3543"/>
<path d="M31.9648 46.732C31.37 46.9019 29.2968 44.7438 28.872 44.3699C28.4811 44.8118 25.7282 47.9216 24.3687 47.7176C22.8733 47.4967 19.0498 44.9307 17.1125 40.9033C16.0419 38.6941 16.0079 37.3516 16.1269 36.6209C16.1779 36.281 16.2798 36.0601 16.3308 35.9412C16.5008 35.5503 17.7243 34.0379 18.0302 34.0549V34.0719C18.1831 35.7033 18.7099 37.2836 19.5936 38.6601C20.6811 40.3425 22.3975 42.3647 24.7936 43.3333C28.6851 44.9137 30.7073 43.3503 31.0472 41.6C31.2681 40.4784 30.8772 39.1529 30.5204 38.5582C30.3164 38.3882 30.1805 38.1333 30.1125 37.8784L29.9766 37.3176C30.2825 37.2497 30.5713 37.1647 30.8772 37.0797C30.9622 37.0457 31.0642 37.0287 31.1491 36.9948C31.2001 37.0627 31.2681 37.1307 31.3191 37.1987C32.0328 38.0144 32.7805 39.1359 33.1883 41.0392C33.8681 44.081 32.6276 46.5281 31.9648 46.732Z" fill="#2E3543"/>
<path d="M28.8041 46.5281C29.0293 46.5281 29.2119 46.3455 29.2119 46.1202C29.2119 45.895 29.0293 45.7124 28.8041 45.7124C28.5788 45.7124 28.3962 45.895 28.3962 46.1202C28.3962 46.3455 28.5788 46.5281 28.8041 46.5281Z" fill="#2E3543"/>
<path d="M28.9401 48.1254C29.1653 48.1254 29.3479 47.9428 29.3479 47.7176C29.3479 47.4923 29.1653 47.3098 28.9401 47.3098C28.7148 47.3098 28.5322 47.4923 28.5322 47.7176C28.5322 47.9428 28.7148 48.1254 28.9401 48.1254Z" fill="#2E3543"/>
<path d="M11.1988 57.8457L10.4341 51.5411" stroke="#5D6675" stroke-width="3" stroke-miterlimit="10" stroke-linecap="round" stroke-linejoin="round"/>
<path d="M40.8865 49.4C40.8865 49.4 40.3767 50.6405 40.5296 51.881C40.6825 53.1215 41.1244 54.9398 40.4956 57.8457" stroke="#5D6675" stroke-width="3" stroke-miterlimit="10" stroke-linecap="round" stroke-linejoin="round"/>
<path d="M18.0302 34.0549C18.0302 34.0549 23.5191 32.3555 31.1662 36.9777C31.1662 36.9777 33.2734 42.6536 31.9649 43.5202C30.6564 44.3869 26.544 44.4719 23.6721 43.5202C20.7832 42.5856 17.0786 37.9124 18.0302 34.0549Z" fill="#2E3543"/>
<path d="M31.0978 41.736C30.741 43.4863 28.4299 44.5399 24.5384 42.9595C20.4939 41.3281 18.7436 37.4366 18.3018 36.2811C20.6978 31.7948 19.0325 28.685 19.0325 28.685C24.5554 28.2092 29.3815 34.6667 29.3815 34.6667L30.1292 37.8614C30.1972 38.1333 30.3331 38.3712 30.5371 38.5412C30.8939 39.1699 31.3188 40.6144 31.0978 41.736Z" fill="white"/>
<path d="M18.2168 36.3321C18.5396 35.8392 18.7436 35.2615 18.8795 34.7007C19.1344 33.5281 19.2194 32.3386 19.2364 31.149V30.7072C19.1854 30.2654 19.0324 29.8066 18.8625 29.3987C18.6416 28.8549 19.4403 28.5151 19.6952 29.0588C19.7292 29.1268 19.7292 29.2458 19.7292 29.3138C19.7802 31.6249 19.8821 34.5987 18.4207 36.519C18.3187 36.6209 18.1148 36.468 18.2168 36.3321Z" fill="#2E3543"/>
<path d="M29.5684 34.6327C29.8233 34.7857 29.9083 34.9896 29.9423 35.1935C30.0442 35.6013 30.0102 36.0432 30.1122 36.468C30.1972 36.8759 30.4521 37.2667 30.52 37.6915C30.605 38.1334 30.8599 39.068 30.9619 39.5268C30.9959 39.6288 30.9279 39.7477 30.8089 39.7647C30.741 39.7817 30.69 39.7647 30.639 39.7308C30.4181 39.5438 30.3161 39.3569 30.1802 39.119C29.9593 38.7111 29.8063 38.3373 29.6704 37.8785C29.5514 37.4706 29.6024 37.0288 29.5004 36.604C29.4155 36.1961 29.1776 35.8053 29.0926 35.3804C29.0416 35.1765 29.0246 34.9556 29.1776 34.7007C29.2795 34.5987 29.4495 34.5647 29.5684 34.6327Z" fill="#2E3543"/>
<path d="M30.792 39.119C27.5462 38.9491 24.8953 37.9294 22.3123 33.3242C24.4874 35.2445 27.0534 35.9752 29.7554 36.3151L30.1123 37.8785C30.1802 38.1504 30.5881 38.9491 30.792 39.119Z" fill="#2E3543"/>
<path d="M30.6559 38.4902C31.2337 39.5778 31.5736 40.9372 31.2167 42.1438C30.9448 42.9935 30.1631 43.6222 29.3135 43.8601C27.3422 44.3869 25.0651 43.5542 23.3148 42.6196C21.1566 41.4131 19.5592 39.3908 18.5396 37.1817C18.4716 37.0118 18.7095 36.8758 18.8115 37.0457C19.1684 37.7595 19.5762 38.4562 20.035 39.085C20.4939 39.7307 21.0207 40.3255 21.6154 40.8523C23.3488 42.4157 25.6939 43.3843 28.039 43.3843C30.452 43.3163 31.3697 42.0418 30.8089 39.6967C30.7239 39.3229 30.588 38.932 30.401 38.6091C30.2991 38.4732 30.554 38.3203 30.6559 38.4902Z" fill="#2E3543"/>
<path d="M37.2326 18.0811C37.5385 19.5085 37.6914 20.6641 36.8587 24.4706C36.043 28.2601 38.0313 29.0418 33.3241 35.1085C31.4038 37.5896 26.7476 36.8928 22.9751 34.3268C21.7005 33.4601 21.1568 31.234 20.2051 29.6536C19.4574 28.4131 19.1175 29.7046 18.1319 28.634C16.7894 27.1726 15.1751 24.2327 15.9737 19.0327C17.2652 10.6039 23.9437 9.61832 28.8888 10.553C33.8679 11.5046 36.4169 14.3255 37.2326 18.0811Z" fill="white"/>
<path d="M18.9816 30.1464C18.5907 29.4837 18.0809 28.9059 17.6051 28.2942C17.1463 27.6654 16.7724 26.9687 16.4665 26.2549C14.4443 21.2928 15.226 14.3085 20.1881 11.3857C22.2443 10.1961 24.7254 9.90722 27.0365 10.0942C31.9816 10.451 36.5188 12.7281 37.5894 17.9621C38.1672 20.2732 37.3855 22.6523 36.9437 24.9125C36.7397 26.034 36.9097 27.1896 36.8927 28.3451C36.8757 29.5177 36.5528 30.6902 36.111 31.7778C35.8391 32.5255 35.3633 33.1883 34.8705 33.8C34.0548 34.7857 33.2391 35.7883 32.2025 36.553C31.9646 36.7229 31.5397 36.8079 31.2508 36.8419C30.4522 36.9608 29.6705 36.9948 28.8718 36.9438C25.745 36.8079 22.3973 35.2955 21.1397 32.2706C21.0888 32.1517 21.2587 32.0667 21.3267 32.1687C22.958 34.7517 25.9489 36.0262 28.9227 36.1961C29.8404 36.2471 30.775 36.2301 31.6757 36.0432C32.1175 35.8223 32.5084 35.4314 32.8822 35.0745C33.7999 34.1569 34.7345 33.1713 35.3973 32.0497C36.1959 30.5373 36.6378 28.8889 36.5018 27.1726C36.4678 26.4079 36.4508 25.6092 36.6038 24.8445C36.7397 24.0798 36.9097 23.3491 37.0116 22.5674C37.1136 21.8196 37.1646 21.0549 37.1646 20.3072C37.0796 18.1151 36.3659 15.8549 34.9724 14.1556C31.8966 10.3321 24.6234 9.32944 20.528 11.9464C17.945 13.5438 16.7384 16.5347 16.3476 19.4406C15.7528 22.9242 15.9227 26.3569 18.6927 28.8889L19.5084 29.7386C19.8312 30.1125 19.2535 30.5543 18.9816 30.1464Z" fill="#2E3543"/>
<path d="M20.9867 24.7425C20.9867 24.7425 20.4599 22.1935 17.9789 22.4994C15.8377 22.7713 15.09 27.9033 19.9501 29.3307" fill="white"/>
<path d="M19.7292 27.1046C19.3384 26.8837 19.0665 26.5099 19.0495 26.051C19.0665 25.7112 19.1174 25.3203 19.0325 24.9804C18.9815 24.6576 18.6416 24.5726 18.3867 24.5896C18.1148 24.6406 17.9449 24.9804 17.8939 25.2523C17.8939 25.2693 17.8769 25.3203 17.8769 25.3373C17.8599 25.4223 17.724 25.4223 17.69 25.3373C17.4691 24.6746 17.9619 23.9438 18.6756 24.0288C19.6782 24.0968 19.8142 25.1504 19.6272 25.9491C19.5253 26.2889 19.6612 26.5948 19.8482 26.8837L19.8821 26.9347C19.9671 27.0366 19.8312 27.1726 19.7292 27.1046Z" fill="#2E3543"/>
<path d="M33.3241 22.9412C33.579 24.1478 34.0548 25.2693 34.6496 26.3229C35.1764 27.6144 33.8169 28.838 32.6104 28.787C32.4744 28.787 32.4574 28.6001 32.5764 28.5661C33.3411 28.3282 34.0378 27.8184 34.1568 27.0367C34.2078 26.7987 34.1398 26.5948 34.0208 26.3909C33.46 25.3373 33.1202 24.1308 33.2051 22.9412C33.2051 22.8563 33.3241 22.8563 33.3241 22.9412Z" fill="#2E3543"/>
<path d="M20.9019 24.7595C20.5111 23.7569 19.6614 22.8053 18.5228 22.8223C18.4209 22.8053 18.2509 22.8393 18.149 22.8393C17.8601 22.8563 17.6222 22.9582 17.4013 23.1622C16.3137 24.2497 16.5006 26.17 17.3843 27.3765C17.6901 27.8014 18.081 28.1752 18.5228 28.4811C18.9647 28.787 19.4575 29.0249 19.9843 29.2288C20.1032 29.2628 20.0522 29.4497 19.9333 29.4327C18.7947 29.1948 17.7071 28.6341 16.9594 27.6994C15.8039 26.3059 15.566 23.9778 16.9424 22.6184C17.2483 22.3465 17.6732 22.1425 18.098 22.1425C18.2339 22.1425 18.4379 22.1086 18.5738 22.1425C19.2875 22.1765 19.9673 22.5334 20.4091 23.0942C20.7999 23.57 21.0209 24.1478 21.0888 24.7256C21.0888 24.8275 20.9359 24.8615 20.9019 24.7595Z" fill="#2E3543"/>
<path d="M32.0326 30.4863C30.9451 31.5229 28.8889 30.6902 28.3451 29.4327C28.2771 29.2797 28.447 29.1438 28.583 29.2118C28.8719 29.3647 29.1268 29.5176 29.3987 29.6366C30.1804 29.9935 30.996 30.2824 31.8627 30.1974C32.0326 30.1634 32.1516 30.3673 32.0326 30.4863Z" fill="#2E3543"/>
<path d="M26.9855 24.6745C26.5777 24.6575 26.2718 24.3176 26.3058 23.9098L26.3228 23.434C26.3398 23.0261 26.6797 22.7202 27.0875 22.7542C27.4953 22.7712 27.8012 23.1111 27.7672 23.5189L27.7502 23.9948C27.7333 24.3856 27.3934 24.6915 26.9855 24.6745Z" fill="#2E3543"/>
<path d="M34.1396 24.9294C33.7658 24.9124 33.4769 24.5895 33.4939 24.2157L33.5109 23.7738C33.5279 23.4 33.8507 23.1111 34.2246 23.1281C34.5984 23.1451 34.8873 23.468 34.8703 23.8418L34.8534 24.2836C34.8364 24.6575 34.5135 24.9464 34.1396 24.9294Z" fill="#2E3543"/>
<path d="M28.515 23.7568C27.9543 23.383 27.3425 23.1281 26.6628 23.264C26.4418 23.298 26.2209 23.366 26.085 23.5189C26.034 23.5869 25.915 23.5699 25.915 23.468C25.932 23.1281 26.2209 22.9072 26.4928 22.7712C27.0196 22.4993 27.7503 22.5503 28.2262 22.9072C28.3961 23.0091 28.9739 23.6379 28.668 23.7738C28.6 23.8078 28.566 23.7908 28.515 23.7568Z" fill="#2E3543"/>
<path d="M33.375 23.8418C33.375 23.1281 34.2587 22.8732 34.8025 23.1281C35.1083 23.264 35.3292 23.5359 35.4142 23.8588C35.4482 23.9608 35.2953 24.0457 35.2273 23.9608C34.9384 23.6209 34.4456 23.451 34.0547 23.6549C33.9358 23.7228 33.9188 23.7738 33.8848 23.8418C33.8848 24.1817 33.392 24.1647 33.375 23.8418Z" fill="#2E3543"/>
<path d="M29.3307 20.9529C29.6875 21.0719 30.0444 20.749 29.9764 20.3581C29.9424 20.1542 29.8575 19.9503 29.6875 19.7974C29.1777 19.3385 27.0705 18.9307 25.796 19.5255C24.6744 20.0693 27.6993 20.4091 29.3307 20.9529Z" fill="#2E3543"/>
<path d="M34.4117 21.2248C34.1228 21.3268 33.8169 21.0209 33.8679 20.664C33.8849 20.4771 33.9529 20.2902 34.0888 20.1542C34.4967 19.7464 35.8901 19.4235 36.7738 20.0523C37.5385 20.5791 35.7372 20.732 34.4117 21.2248Z" fill="#2E3543"/>
<path d="M39.358 33.0864C37.3867 28.0563 37.6416 26.4759 38.1174 22.2445C39.0691 13.9177 36.0612 11.8955 34.4808 11.0968C27.7514 7.68113 20.0364 9.34649 17.1305 14.0367C15.3122 16.9596 15.2442 19.3047 14.2246 22.6694C12.4743 28.4302 8.25992 30.9792 9.56842 36.8759C11.3697 42.6877 22.8913 45.2537 22.6704 39.204C22.5344 35.5504 19.7985 35.0576 19.7475 30.0105C19.7475 29.6707 19.7645 29.3478 19.7985 29.0419C15.1083 27.5635 15.856 22.5334 17.9802 22.2615C19.4586 22.0746 20.2403 22.9073 20.6312 23.604C20.6651 23.706 20.7161 23.7909 20.7671 23.8929C21.107 24.4707 25.1174 23.3831 28.1763 21.4968C29.9606 20.3922 32.7475 18.489 33.5122 16.3988C33.5462 16.3138 34.09 18.9308 36.639 22.3295C36.5201 24.3517 37.0299 29.3988 34.4468 33.5622C32.5776 36.604 30.2325 36.8759 30.2325 36.8759C30.2325 38.8981 33.8181 38.7962 35.3135 39.136C37.1828 39.5439 39.0351 40.6654 39.0351 40.6654C39.0351 40.6654 41.1763 37.7256 39.358 33.0864Z" fill="#2E3543"/>
<path d="M48.9753 14.3255C59.2903 34.1908 41.1583 56.6052 19.5426 51.1333C9.83931 48.7202 2.03931 40.3085 0.424931 30.4353C-1.41036 20.6131 3.02493 10.0601 11.3177 4.50325C22.6864 -3.31374 38.4393 -0.713744 46.5792 10.468C46.6302 10.5189 46.6132 10.6039 46.5452 10.6549C46.4942 10.7059 46.4092 10.6889 46.3583 10.6209C45.2367 9.17645 43.9622 7.86796 42.5687 6.69541C40.2746 4.74116 37.5896 3.21175 34.7517 2.17515C20.3073 -3.05884 4.45238 5.64181 1.2916 20.749C-2.27703 37.6745 12.1164 53.2575 29.2798 50.9294C42.5177 49.264 52.357 37.0457 51.2694 23.7568C51.0315 20.5451 50.1818 17.3673 48.7713 14.4444C48.7374 14.3934 48.7713 14.3255 48.8223 14.2915C48.8733 14.2575 48.9413 14.2745 48.9753 14.3255Z" fill="#2E3543"/>
</g>
</svg>
