<svg width="52" height="52" viewBox="0 0 52 52" fill="none" xmlns="http://www.w3.org/2000/svg">
<mask id="mask0_628_1513" style="mask-type:alpha" maskUnits="userSpaceOnUse" x="0" y="0" width="52" height="52">
<circle cx="25.9148" cy="25.9148" r="25.9148" fill="#D9D9D9"/>
</mask>
<g mask="url(#mask0_628_1513)">
<circle cx="26" cy="26" r="26" fill="white"/>
<path d="M40.1219 47.3097C40.0029 47.3947 39.867 47.4797 39.748 47.5646C39.6121 47.6496 39.4931 47.7346 39.3572 47.8025C39.2382 47.8705 39.1362 47.9385 39.0173 48.0065C39.0003 48.0235 38.9833 48.0235 38.9663 48.0405C38.5755 48.2784 38.1676 48.4993 37.7598 48.7032C37.6408 48.7712 37.5049 48.8391 37.3859 48.8901C37.3859 48.8901 37.3689 48.9071 37.3519 48.9071C37.216 48.9751 37.08 49.0431 36.9441 49.111C36.6722 49.247 36.3833 49.3659 36.1114 49.4849C35.9754 49.5529 35.8225 49.6039 35.6866 49.6548C35.5506 49.7058 35.3977 49.7738 35.2617 49.8248C35.1258 49.8757 34.9728 49.9437 34.8369 49.9947C34.8369 49.9947 34.8369 49.9947 34.8199 49.9947C34.6839 50.0457 34.531 50.0967 34.3951 50.1476C34.0892 50.2496 33.7663 50.3516 33.4604 50.4535C33.3585 50.4875 33.2395 50.5215 33.1375 50.5555C32.8147 50.6574 32.4918 50.7424 32.1689 50.8104C32.05 50.8444 31.931 50.8614 31.7951 50.8954C31.4892 50.9633 31.1663 51.0313 30.8604 51.0993C30.7924 51.1163 30.7415 51.1163 30.6735 51.1333C30.5715 51.1503 30.4526 51.1673 30.3506 51.1842C30.1977 51.2012 30.0617 51.2352 29.9088 51.2522C29.8408 51.2692 29.7728 51.2692 29.7049 51.2862C29.6199 51.3032 29.5179 51.3202 29.416 51.3202C29.1441 51.3542 28.8552 51.3882 28.5833 51.4222C28.4983 51.4391 28.3964 51.4391 28.3114 51.4561H28.2944C28.1754 51.4731 28.0565 51.4731 27.9375 51.4901C27.8186 51.5071 27.6996 51.5071 27.5807 51.5071C27.5127 51.5071 27.4277 51.5241 27.3598 51.5241C27.2238 51.5241 27.1049 51.5411 26.9859 51.5411C26.816 51.5411 26.663 51.5581 26.4931 51.5581C26.3232 51.5581 26.1702 51.5581 26.0003 51.5581C25.8813 51.5581 25.7624 51.5581 25.6434 51.5581C18.4722 51.4561 12.0316 48.4143 7.42642 43.5882C7.42642 43.5882 7.42642 43.5712 7.40942 43.5712C6.89962 43.1123 7.34145 40.6653 9.39766 39.1189C11.9807 37.1646 18.1663 35.9411 18.1663 35.9411C18.1663 35.9411 20.5624 35.5503 29.45 37.4025C34.65 38.4901 38.6094 40.0705 40.8186 44.3529C41.2774 45.2365 41.7362 46.596 40.1219 47.3097Z" fill="white"/>
<path d="M29.5008 37.2157C32.7636 37.8785 36.2472 38.5922 38.9322 40.7504C39.8329 41.4811 40.4276 42.5517 40.9204 43.5883C41.1584 44.0981 41.3963 44.6249 41.5832 45.1857C41.6852 45.5595 41.8381 45.9844 41.7531 46.4262C41.7361 46.5452 41.6342 46.6981 41.5492 46.7831C41.1584 47.1739 40.7335 47.4118 40.3087 47.7177C37.8106 49.451 34.9387 50.6746 31.9649 51.3203C25.3374 52.7648 18.1662 51.6432 12.3374 48.1595C10.4002 46.987 8.61585 45.5595 7.08644 43.8772C6.9165 43.6733 6.9165 43.3334 6.9165 43.1125C6.9335 42.6027 7.06944 42.1099 7.23938 41.651C7.64722 40.5974 8.17402 39.5438 9.07468 38.8131C9.72043 38.3713 10.4172 37.9974 11.1309 37.6916C13.374 36.7399 15.7361 36.0772 18.1662 35.8053C18.3701 35.7883 18.4041 36.0772 18.2002 36.1112C15.8721 36.587 13.561 37.3007 11.4028 38.2693C10.6211 38.6602 9.7884 39.0001 9.15964 39.6118C8.56487 40.2576 8.14003 41.0563 7.80016 41.872C7.57925 42.3648 7.42631 43.1465 7.49428 43.5373C8.56487 44.8118 9.82239 45.9334 11.1819 46.902C18.625 52.102 29.9257 52.4419 37.8446 48.1086C38.5584 47.7177 39.2551 47.2759 39.9178 46.8171C40.2407 46.5961 40.5806 46.4092 40.8355 46.1543C40.8525 46.1373 40.8355 46.1543 40.8355 46.1713C40.8355 46.1883 40.8185 46.2053 40.8185 46.2053C40.8355 46.0014 40.7675 45.7295 40.6825 45.4576C40.3767 44.472 39.8838 43.4354 39.357 42.5347C38.5244 41.1922 37.1139 40.3425 35.6865 39.6628C34.7008 39.204 33.6642 38.8471 32.6106 38.5072C31.557 38.1674 30.4865 37.8785 29.4159 37.6236C29.144 37.5556 29.2289 37.1648 29.5008 37.2157Z" fill="#2E3543"/>
<path d="M46.0523 57.9138L3.00781 56.9621C5.65879 48.1085 7.13723 40.3085 9.12546 39.119C12.898 36.8589 16.2967 36.502 18.3189 36.3151C18.8287 37.5726 20.766 41.702 24.7934 43.3334C28.6849 44.9138 30.9961 43.8602 31.3529 42.1098C31.5738 40.9883 30.8771 39.153 30.5202 38.5582C30.3163 38.3883 30.1804 38.1334 30.1124 37.8785L29.9765 37.3177C30.2653 37.2497 30.5542 37.1817 30.8431 37.0798C33.9359 37.6236 38.6261 40.1726 39.6287 41.6C40.8353 43.3164 42.5006 47.6157 42.4327 49.9778C42.3307 53.8183 46.0523 57.9138 46.0523 57.9138Z" fill="white"/>
<path d="M46.4602 58.1008C33.6471 57.9138 15.634 57.7269 3.00784 57.404C2.76994 57.404 2.58301 57.2001 2.58301 56.9622C3.95948 52.323 5.06405 47.6498 6.54249 43.0275C6.72942 42.4498 6.93334 41.889 7.17125 41.3112C7.57909 40.4106 7.98693 39.4079 8.83661 38.7962C9.32942 38.5073 9.85621 38.2184 10.366 37.9635C12.8301 36.74 15.566 36.1112 18.285 35.8903C18.4889 35.8733 18.6588 35.9922 18.7268 36.1622C20.0183 39.255 22.3634 42.1269 25.6432 43.1975C27.2575 43.7583 30.1294 44.2341 30.8941 42.2289C31.149 41.2602 30.7752 40.2406 30.4353 39.323C30.3503 39.136 30.2654 38.9491 30.1804 38.7962L30.2654 38.8981C29.9425 38.6262 29.7386 38.1674 29.6706 37.7596L29.5856 37.4197C29.5347 37.1818 29.6876 36.9439 29.9255 36.8929C30.2144 36.8249 30.4863 36.757 30.7582 36.672C33.1373 36.8419 38.0144 39.255 39.6968 40.9543C40.6824 42.0929 41.2432 43.5713 41.8039 44.9478C42.2118 46.0524 42.5686 47.1909 42.7726 48.3635C42.8575 48.8053 42.9085 49.2642 42.9085 49.723C42.8915 50.4027 42.9425 51.0994 43.1294 51.7792C43.6902 53.9034 44.9307 55.8576 46.3412 57.54L46.3752 57.574L46.3922 57.591C46.3922 57.591 46.3752 57.574 46.4432 57.6419C46.4941 57.7779 46.5111 57.9818 46.4602 58.1008ZM45.6615 57.7439C45.6445 57.7949 45.6105 57.8629 45.6275 57.9478C45.6275 58.0328 45.6615 58.1008 45.6954 58.1517C45.7464 58.2197 45.7294 58.1857 45.7294 58.2027L45.7124 58.1857C45.5935 58.0158 45.3556 57.6759 45.2366 57.489C43.8432 55.2968 42.4667 52.8668 42.4157 50.1988C42.4497 48.4485 41.9059 46.7661 41.3281 45.1517C40.9203 44.0642 40.4445 43.0106 39.8327 42.0249C39.6798 41.787 39.5268 41.5491 39.3229 41.3452C38.7111 40.7504 37.9634 40.2746 37.2157 39.8498C35.2275 38.7452 33.0693 37.8275 30.8092 37.5387L31.0131 37.5217C30.7072 37.6236 30.4013 37.6916 30.0954 37.7596L30.4353 37.2328C30.5373 37.5896 30.5543 38.0145 30.8432 38.2524C31.0301 38.4733 31.132 38.7622 31.251 39.0001C31.5229 39.6458 31.7098 40.3086 31.8288 41.0053C32.1347 42.6707 31.149 44.0472 29.5177 44.421C28.1412 44.7439 26.6967 44.455 25.3882 44.0302C21.8706 42.9086 19.3216 39.8328 17.9451 36.5021L18.3869 36.7739C15.702 36.74 13.034 37.2668 10.6039 38.4223C10.0771 38.6772 9.53334 38.9661 9.04053 39.272C8.3438 39.8328 8.00393 40.7164 7.64706 41.5151C6.54249 44.3021 5.89674 47.2249 5.16602 50.1138C4.65621 52.153 3.97647 55.0419 3.46667 57.0981L3.05883 56.5374C15.3621 56.7923 33.1543 57.3361 45.6615 57.7439Z" fill="#2E3543"/>
<path d="M10.5529 57.8459C10.5529 57.8459 10.332 52.34 10.1111 51.3204" stroke="#2E3543" stroke-width="0.248975" stroke-miterlimit="10" stroke-linecap="round" stroke-linejoin="round"/>
<path d="M40.6653 57.8458C40.6653 57.8458 40.1555 54.4301 40.1555 53.8354C40.1555 53.2576 40.5973 51.3543 40.6653 49.689" stroke="#2E3543" stroke-width="0.248975" stroke-miterlimit="10" stroke-linecap="round" stroke-linejoin="round"/>
<path d="M15.5662 53.5635V51.5413L20.4433 53.5295C20.4263 53.5295 16.5008 53.6315 15.5662 53.5635Z" fill="white"/>
<path d="M27.1896 46.987L26.5779 59.6642C26.5779 59.6642 31.9648 63.3348 31.9648 63.2328C31.9648 63.1308 34.5138 58.6785 34.5138 58.6785L30.5374 46.4772C30.5374 46.4772 30.0276 47.004 27.1896 46.987Z" fill="#2E3543"/>
<path d="M28.4133 42.9086C28.4133 42.9086 26.0852 45.1008 25.7793 45.6786C25.4734 46.2563 27.0878 47.174 27.0878 47.174C27.0878 47.174 29.6878 47.7178 30.8603 46.6642C30.8603 46.6642 31.5231 45.9335 31.3871 45.2367C31.2682 44.557 28.4133 42.9086 28.4133 42.9086Z" fill="#2E3543"/>
<path d="M17.6223 34.6838C17.6393 34.6668 17.6563 34.6499 17.6733 34.6329C17.8602 34.4119 18.1321 34.276 18.438 34.242C19.8655 34.0721 20.0184 34.225 20.3243 34.7008C21.8027 37.0119 23.723 41.4302 28.4302 42.9257L23.8929 47.5479C23.655 47.8538 23.2302 47.9048 22.9243 47.6838C21.4629 46.5963 18.54 43.2655 16.9256 39.2041C16.5857 38.3544 16.5178 37.4198 16.6877 36.5361C16.6537 36.5021 17.3334 35.0917 17.6223 34.6838Z" fill="white"/>
<path d="M17.5033 34.5988C17.7582 34.3609 18.0471 34.1569 18.4039 34.106C18.8797 34.055 19.3726 33.953 19.8654 34.055C20.3752 34.2079 20.5621 34.7687 20.851 35.1596C22.1255 37.2498 23.451 39.3739 25.4052 40.8524C26.102 41.4132 26.9007 41.838 27.7164 42.1779C28.0222 42.2968 28.3451 42.3988 28.651 42.5347C28.9059 42.6537 28.9569 43.0275 28.736 43.1975C27.4784 44.2171 26.2889 45.3217 25.1164 46.4602C24.8445 46.7321 24.2157 47.3609 23.9778 47.5988C23.7059 47.9556 23.1621 48.0066 22.8222 47.7347L22.6523 47.5988C22.0745 47.123 21.5477 46.5792 21.0379 46.0354C19.2196 44.0301 17.6902 41.753 16.6706 39.238C16.3137 38.3373 16.2288 37.3177 16.4497 36.3831C16.7046 35.7543 17.0445 35.1256 17.5033 34.5988ZM17.8431 34.8367C17.4693 35.3635 17.1464 36.0092 16.8745 36.604L16.8915 36.553C16.7896 37.1138 16.7896 37.6916 16.9085 38.2354C17.0105 38.8132 17.2654 39.323 17.4863 39.8498C17.9451 40.9373 18.5229 41.9739 19.1346 42.9766C19.7464 43.9792 20.4431 44.9478 21.2248 45.8484C21.7516 46.4602 22.3124 47.055 22.9582 47.5478C23.0092 47.5988 23.0601 47.6158 23.1281 47.6498C23.366 47.7517 23.6549 47.6667 23.8079 47.4628L24.3686 46.885L24.9294 46.2903C26.051 45.1177 27.1216 43.8942 28.1242 42.6197L28.2941 43.3164C27.0706 42.9426 25.915 42.2798 24.9124 41.4471C22.9242 39.8328 21.6327 37.5896 20.4092 35.4145C20.2562 35.1765 20.1033 34.8707 19.9503 34.6498C19.8824 34.5478 19.8314 34.5138 19.7294 34.4798C19.3386 34.3779 18.8797 34.4458 18.4719 34.4968C18.2 34.5308 17.9791 34.6498 17.8431 34.8367Z" fill="#2E3543"/>
<path d="M33.1712 45.8656C33.0692 46.4264 32.6614 46.9532 31.9816 46.2565L28.396 42.9088C28.396 42.9088 30.4862 40.9205 29.9764 37.3179C30.6731 37.165 31.3359 36.944 31.9476 36.6552C31.9646 36.6891 32.2025 37.148 32.4744 37.9127C33.0522 39.4931 33.7829 42.3989 33.1712 45.8656Z" fill="white"/>
<path d="M33.2732 45.8824C33.1713 46.6981 32.5595 47.038 31.9308 46.4092L30.7242 45.2877L29.5177 44.1661L28.3111 43.0445C28.2432 42.9766 28.2432 42.8746 28.2942 42.8066C29.2288 41.719 29.7046 40.2406 29.7046 38.8131C29.7046 38.3033 29.6366 37.8105 29.5517 37.3007C29.5177 37.0968 29.6876 36.9099 29.9085 36.8929C30.5883 36.8759 31.268 36.7909 31.9477 36.621C31.9647 36.604 31.9987 36.621 31.9987 36.638C33.3582 39.4929 33.783 42.7726 33.2732 45.8824ZM33.0863 45.8484C33.4942 42.8236 33.0523 39.6798 31.6419 36.9779L31.6079 36.9269C31.5909 36.9099 31.5739 36.8759 31.5739 36.8759L32.1517 37.0458C31.4889 37.3687 30.7922 37.5896 30.0785 37.7426L30.4183 37.2497C30.5203 38.3033 30.4353 39.3739 30.1294 40.3765C29.8066 41.3792 29.2968 42.2968 28.5321 43.0445V42.7896C29.1438 43.3504 30.3504 44.489 30.9451 45.0498L32.1347 46.1883C32.5595 46.6301 32.9674 46.4602 33.0863 45.8484Z" fill="#2E3543"/>
<path d="M31.0978 41.7357C30.741 43.486 28.4299 44.5396 24.5384 42.9592C20.4939 41.3278 18.7436 37.4363 18.3018 36.2807C20.6978 31.7945 19.0325 28.6847 19.0325 28.6847C24.5554 28.2089 29.3815 34.6664 29.3815 34.6664L30.1292 37.8611C30.1972 38.133 30.3331 38.3709 30.5371 38.5409C30.8939 39.1696 31.3188 40.6141 31.0978 41.7357Z" fill="white"/>
<path d="M18.217 36.3317C18.5399 35.8389 18.7438 35.2611 18.8797 34.7003C19.1346 33.5278 19.2196 32.3382 19.2366 31.1487V30.7069C19.1856 30.265 19.0327 29.8062 18.8628 29.3984C18.6418 28.8546 19.4405 28.5147 19.6954 29.0585C19.7294 29.1265 19.7294 29.2454 19.7294 29.3134C19.7804 31.6245 19.8824 34.5984 18.4209 36.5186C18.319 36.6206 18.115 36.4676 18.217 36.3317Z" fill="#2E3543"/>
<path d="M29.5684 34.6323C29.8233 34.7853 29.9083 34.9892 29.9423 35.1931C30.0442 35.601 30.0102 36.0428 30.1122 36.4676C30.1972 36.8755 30.4521 37.2663 30.52 37.6912C30.605 38.133 30.8599 39.0676 30.9619 39.5265C30.9959 39.6284 30.9279 39.7474 30.8089 39.7644C30.741 39.7814 30.69 39.7644 30.639 39.7304C30.4181 39.5435 30.3161 39.3565 30.1802 39.1186C29.9593 38.7108 29.8063 38.3369 29.6704 37.8781C29.5514 37.4703 29.6024 37.0284 29.5004 36.6036C29.4155 36.1957 29.1776 35.8049 29.0926 35.3801C29.0416 35.1761 29.0246 34.9552 29.1776 34.7003C29.2795 34.5984 29.4495 34.5644 29.5684 34.6323Z" fill="#2E3543"/>
<path d="M30.792 39.1186C27.5462 38.9487 24.8953 37.9291 22.3123 33.3239C24.4874 35.2441 27.0534 35.9748 29.7554 36.3147L30.1123 37.8781C30.1802 38.15 30.5881 38.9487 30.792 39.1186Z" fill="#2E3543"/>
<path d="M30.6562 38.4899C31.234 39.5775 31.5738 40.9369 31.217 42.1435C30.9451 42.9932 30.1634 43.6219 29.3137 43.8598C27.3425 44.3866 25.0653 43.5539 23.315 42.6193C21.1568 41.4128 19.5595 39.3905 18.5399 37.1814C18.4719 37.0115 18.7098 36.8755 18.8117 37.0454C19.1686 37.7592 19.5765 38.4559 20.0353 39.0847C20.4941 39.7304 21.0209 40.3252 21.6157 40.852C23.349 42.4154 25.6941 43.384 28.0392 43.384C30.4523 43.316 31.3699 42.0415 30.8091 39.6964C30.7242 39.3226 30.5882 38.9317 30.4013 38.6088C30.2993 38.4729 30.5542 38.3199 30.6562 38.4899Z" fill="#2E3543"/>
<path d="M37.2326 18.0809C37.5385 19.5083 37.3006 20.4599 37.1646 24.4024C37.0287 28.2769 35.9071 33.7488 34.5306 35.1253C33.477 36.1619 30.0953 36.9776 27.0875 36.2129C25.5581 35.822 24.2666 34.9384 23.213 34.3096C21.8875 33.5109 20.7319 31.0469 19.7803 29.4665C19.0326 28.226 19.1005 29.7214 18.1319 28.6508C16.7894 27.1894 15.1751 24.2495 15.9737 19.0495C17.2652 10.6207 23.9437 9.6351 28.8888 10.5697C33.8679 11.5044 36.4169 14.3253 37.2326 18.0809Z" fill="white"/>
<path d="M18.9817 30.1464C18.5908 29.5007 18.081 28.9229 17.6222 28.3111C16.9424 27.3765 16.4326 26.3059 16.0928 25.2013C14.6143 20.4771 15.515 14.2915 19.9843 11.5046C24.0457 8.92157 31.9307 9.85621 35.2274 13.3909C36.4679 14.6654 37.2666 16.3307 37.6065 18.0641C37.6235 18.166 37.6745 18.3529 37.6915 18.4549C37.7085 18.5399 37.7594 18.6418 37.7425 18.7438C37.7085 19.1177 37.6405 19.4915 37.6065 19.8654C37.3516 22.1255 37.4196 24.4366 37.1307 26.6967C36.8758 29.0758 36.5359 31.4549 35.8222 33.749C35.6013 34.4458 35.1764 35.0745 34.6157 35.5333C33.3581 36.5869 31.7098 36.9438 30.1294 37.0118C26.9686 37.1647 23.7568 36.0431 21.9215 33.3752C21.8536 33.2732 21.9895 33.1543 22.0745 33.2562C23.6039 34.9046 25.6771 35.9582 27.8862 36.1961C30.3333 36.485 34.0209 36.2641 35.0915 33.6471C36.332 29.9425 36.9778 26.017 37.0457 22.1255C37.0457 21.1739 36.9947 20.2222 36.9947 19.2536C36.9947 19.1346 37.0117 18.8628 37.0117 18.7438C37.0117 18.7268 37.0117 18.7438 37.0117 18.7438C37.0117 18.7608 37.0117 18.7608 37.0117 18.7438C36.8758 18.4039 36.8248 18.0301 36.7228 17.6902C36.349 16.2797 35.6693 14.9373 34.7006 13.8667C31.4889 10.2641 24.3346 9.3634 20.3241 12.0654C17.1464 14.1726 16.2967 18.217 16.0758 21.7856C15.8889 24.4536 16.6706 27.0706 18.6928 28.9059L19.4915 29.7386C19.8313 30.1124 19.2536 30.5543 18.9817 30.1464Z" fill="#2E3543"/>
<path d="M20.987 24.7423C20.987 24.7423 20.4602 22.1933 17.9791 22.4992C15.838 22.7711 15.0902 27.9031 19.9504 29.3306" fill="white"/>
<path d="M19.7295 27.1044C19.3386 26.8835 19.0667 26.5097 19.0497 26.0508C19.0667 25.711 19.1177 25.3201 19.0327 24.9803C18.9817 24.6574 18.6419 24.5724 18.387 24.5894C18.1151 24.6404 17.9451 24.9803 17.8942 25.2522C17.8942 25.2691 17.8772 25.3201 17.8772 25.3371C17.8602 25.4221 17.7242 25.4221 17.6902 25.3371C17.4693 24.6744 17.9621 23.9437 18.6759 24.0286C19.6785 24.0966 19.8144 25.1502 19.6275 25.9489C19.5255 26.2888 19.6615 26.5946 19.8484 26.8835L19.8824 26.9345C19.9674 27.0365 19.8314 27.1724 19.7295 27.1044Z" fill="#2E3543"/>
<path d="M33.3243 22.941C33.5792 24.1475 34.0551 25.2691 34.6498 26.3227C35.1766 27.6142 33.8171 28.8377 32.6106 28.7867C32.4747 28.7867 32.4577 28.5998 32.5766 28.5658C33.3413 28.3279 34.0381 27.8181 34.157 27.0364C34.208 26.7985 34.14 26.5946 34.0211 26.3907C33.4603 25.3371 33.1204 24.1305 33.2054 22.941C33.2054 22.856 33.3243 22.856 33.3243 22.941Z" fill="#2E3543"/>
<path d="M20.9019 24.7594C20.5111 23.7567 19.6614 22.8051 18.5228 22.8221C18.4209 22.8051 18.2509 22.8391 18.149 22.8391C17.8601 22.8561 17.6222 22.9581 17.4013 23.162C16.3137 24.2496 16.5006 26.1698 17.3843 27.3764C17.6901 27.8012 18.081 28.175 18.5228 28.4809C18.9647 28.7868 19.4575 29.0247 19.9843 29.2286C20.1032 29.2626 20.0522 29.4496 19.9333 29.4326C18.7947 29.1947 17.7071 28.6339 16.9594 27.6992C15.8039 26.3058 15.566 23.9777 16.9424 22.6182C17.2483 22.3463 17.6732 22.1424 18.098 22.1424C18.2339 22.1424 18.4379 22.1084 18.5738 22.1424C19.2875 22.1764 19.9673 22.5332 20.4091 23.094C20.8 23.5698 21.0209 24.1476 21.0888 24.7254C21.0888 24.8273 20.9359 24.8613 20.9019 24.7594Z" fill="#2E3543"/>
<path d="M32.0326 30.4863C30.9451 31.5229 28.8889 30.6902 28.3451 29.4327C28.2771 29.2797 28.447 29.1438 28.583 29.2118C28.8719 29.3647 29.1268 29.5176 29.3987 29.6366C30.1804 29.9935 30.996 30.2824 31.8627 30.1974C32.0326 30.1634 32.1516 30.3673 32.0326 30.4863Z" fill="#2E3543"/>
<path d="M26.9855 24.6746C26.5777 24.6576 26.2718 24.3177 26.3058 23.9099L26.3228 23.4341C26.3398 23.0262 26.6797 22.7204 27.0875 22.7543C27.4953 22.7713 27.8012 23.1112 27.7672 23.5191L27.7502 23.9949C27.7333 24.3857 27.3934 24.6916 26.9855 24.6746Z" fill="#2E3543"/>
<path d="M34.1396 24.9295C33.7658 24.9125 33.4769 24.5897 33.4939 24.2158L33.5109 23.774C33.5279 23.4001 33.8507 23.1112 34.2246 23.1282C34.5985 23.1452 34.8873 23.4681 34.8703 23.8419L34.8534 24.2838C34.8364 24.6576 34.5135 24.9465 34.1396 24.9295Z" fill="#2E3543"/>
<path d="M28.515 23.757C27.9543 23.3831 27.3425 23.1282 26.6628 23.2642C26.4418 23.2981 26.2209 23.3661 26.085 23.5191C26.034 23.587 25.915 23.57 25.915 23.4681C25.932 23.1282 26.2209 22.9073 26.4928 22.7713C27.0196 22.4994 27.7503 22.5504 28.2262 22.9073C28.3961 23.0093 28.9739 23.638 28.668 23.774C28.6 23.8079 28.566 23.791 28.515 23.757Z" fill="#2E3543"/>
<path d="M33.375 23.8419C33.375 23.1282 34.2587 22.8733 34.8025 23.1282C35.1083 23.2641 35.3293 23.536 35.4142 23.8589C35.4482 23.9609 35.2953 24.0458 35.2273 23.9609C34.9384 23.621 34.4456 23.4511 34.0547 23.655C33.9358 23.723 33.9188 23.774 33.8848 23.8419C33.8848 24.1818 33.392 24.1648 33.375 23.8419Z" fill="#2E3543"/>
<path d="M29.3307 20.953C29.6875 21.0719 30.0444 20.7491 29.9764 20.3582C29.9424 20.1543 29.8575 19.9504 29.6875 19.7974C29.1777 19.3386 27.0705 18.9308 25.796 19.5255C24.6744 20.0693 27.6993 20.4092 29.3307 20.953Z" fill="#2E3543"/>
<path d="M34.4117 21.2249C34.1228 21.3268 33.8169 21.021 33.8679 20.6641C33.8849 20.4772 33.9529 20.2902 34.0888 20.1543C34.4967 19.7465 35.8901 19.4236 36.7738 20.0523C37.5385 20.5791 35.7372 20.7321 34.4117 21.2249Z" fill="#2E3543"/>
<path d="M38.5242 14.0366C39.7308 9.66928 34.8366 6.93334 33.5281 8.90458C32.5765 10.332 28.9059 9.22745 23.3321 9.12549C17.7582 9.00654 16.2628 11.9634 16.1948 15.1412C16.1948 15.1412 13.7477 16.4327 13.9007 20.9869C14.0536 25.7111 18.9138 29.5177 19.5085 31.9137C19.5085 31.9137 19.5765 32.2196 18.9307 28.9399C15.2262 27.1556 16.0079 22.7543 17.9961 22.4994C19.5085 22.3124 20.3072 23.1961 20.6811 23.9098C20.834 24.1137 22.2785 25.8811 22.3124 20.1033C22.3294 16.1608 26.17 14.8693 30.5373 16.4667C32.8144 17.2994 35.2105 17.9111 36.8589 16.7216C37.1308 17.5033 37.4196 18.3699 37.1987 19.4235C37.8615 18.8118 38.4223 17.9111 38.5752 16.8065C38.6772 16.1438 38.5072 15.566 38.1334 15.0562C38.2863 14.7673 38.4223 14.4105 38.5242 14.0366Z" fill="#2E3543"/>
<path d="M29.7388 26.7816C28.9571 26.7986 26.544 26.8156 25.7963 26.8326C24.5048 26.8496 23.5362 25.728 23.6552 24.4535C23.6721 24.0287 23.6552 23.4339 23.6721 23.0091C23.7061 21.9045 24.6918 20.9698 25.7963 21.0038L28.6682 21.0378C28.8891 21.0378 29.5179 21.0548 29.7388 21.0548C30.6565 21.0378 31.5231 21.7176 31.7271 22.6182C31.795 22.8731 31.778 23.145 31.778 23.3659V24.8104C31.761 25.881 30.8094 26.7986 29.7388 26.7816ZM29.7388 26.4078C30.6225 26.4417 31.4382 25.677 31.4552 24.7934C31.4722 24.3345 31.4552 23.8417 31.4552 23.3659C31.5571 22.3293 30.7754 21.3777 29.7218 21.4117C28.9911 21.4287 26.544 21.4457 25.7793 21.4627C24.8617 21.4627 24.08 22.2953 24.148 23.213C24.148 23.3319 24.148 23.6378 24.148 23.7568C24.165 24.1306 24.114 24.7764 24.1989 25.1163C24.3689 25.83 25.0486 26.3738 25.7793 26.3738H26.1362C26.629 26.3738 29.229 26.4078 29.7388 26.4078Z" fill="#2E3543"/>
<path d="M36.5871 21.4966L35.2446 21.5136C34.8707 21.5306 34.4289 21.4627 34.106 21.6836C33.8001 21.8875 33.6642 22.2614 33.6812 22.6182C33.6812 23.06 33.6812 23.5189 33.6642 23.9607L33.6472 23.8927C33.8851 24.7254 34.208 25.5241 34.7008 26.2208L34.5309 26.1189C34.6668 26.1529 34.9047 26.1529 35.0407 26.1529C35.5505 26.1698 36.1452 26.2038 36.6551 26.2038C37.1309 26.2038 37.5897 25.847 37.6917 25.3712C37.7256 25.2352 37.7256 24.9973 37.7256 24.8614C37.7256 24.1306 37.7426 23.4169 37.7086 22.6862C37.7426 22.0404 37.2498 21.4627 36.5871 21.4966ZM36.5871 20.9868C37.4877 20.9868 38.1165 21.8535 37.9635 22.7032C37.9296 23.4339 37.9466 24.1476 37.9466 24.8783C38.0315 25.728 37.5217 26.4927 36.6381 26.5607C36.2642 26.5777 35.9073 26.5777 35.5505 26.5947C35.3635 26.5947 34.9047 26.6287 34.7348 26.6287C34.6498 26.6457 34.5139 26.6287 34.4289 26.6287C34.3609 26.6287 34.293 26.5777 34.259 26.5267C33.7322 25.745 33.3583 24.8783 33.1374 23.9777C33.1374 23.3999 33.0864 22.8221 33.1374 22.2444C33.2394 21.5646 33.8511 20.9868 34.5479 20.9698C35.0237 20.9529 36.1113 20.9868 36.5871 20.9868Z" fill="#2E3543"/>
<path d="M31.5909 22.5502C32.0498 22.3463 32.5596 22.2613 33.0694 22.2953C33.2393 22.3123 33.4092 22.3633 33.5622 22.4992L33.7831 22.6862C34.004 22.8731 33.7321 23.196 33.5112 23.009C33.2393 22.7711 32.9164 22.8051 32.5936 22.8221C32.2707 22.8561 31.9648 22.9241 31.6589 23.043C31.37 23.162 31.1831 22.7371 31.455 22.6012L31.5909 22.5502Z" fill="#2E3543"/>
<path d="M23.9438 23.162C23.8249 23.4339 23.6889 23.4678 23.468 23.4509L22.9752 23.4678C21.9896 23.4678 20.987 23.4509 20.0014 23.2979C19.6615 23.2809 19.6445 22.8051 19.9844 22.7881L23.9268 22.6522C24.0458 22.6522 24.1308 22.7711 24.0798 22.8731L23.9438 23.162Z" fill="#2E3543"/>
<path d="M48.9753 14.3255C59.2903 34.1908 41.1583 56.6052 19.5426 51.1333C9.83932 48.7203 2.03931 40.3085 0.424931 30.4353C-1.41036 20.6131 3.02493 10.0601 11.3177 4.50325C22.6864 -3.31374 38.4393 -0.713744 46.5792 10.468C46.6302 10.5189 46.6132 10.6039 46.5452 10.6549C46.4942 10.7059 46.4093 10.6889 46.3583 10.6209C45.2367 9.17646 43.9622 7.86796 42.5687 6.69541C40.2746 4.74116 37.5897 3.21175 34.7517 2.17515C20.3073 -3.05884 4.45238 5.64182 1.2916 20.749C-2.27703 37.6745 12.1164 53.2575 29.2798 50.9294C42.5178 49.2641 52.357 37.0457 51.2694 23.7569C51.0315 20.5451 50.1818 17.3673 48.7714 14.4444C48.7374 14.3935 48.7714 14.3255 48.8223 14.2915C48.8733 14.2575 48.9413 14.2745 48.9753 14.3255Z" fill="#2E3543"/>
</g>
</svg>
