<svg width="10" height="11" viewBox="0 0 10 11" fill="none" xmlns="http://www.w3.org/2000/svg">
<g id="Icon/phone">
<path id="Vector" d="M7.63675 9.87482C7.2555 9.87482 6.71996 9.73693 5.918 9.28888C4.94281 8.74201 4.18851 8.23712 3.21859 7.26974C2.28343 6.33517 1.82836 5.73009 1.19144 4.57111C0.47191 3.26251 0.594566 2.57658 0.731676 2.28341C0.894957 1.93302 1.13597 1.72345 1.4475 1.51544C1.62444 1.39951 1.81169 1.30013 2.00687 1.21857C2.0264 1.21017 2.04457 1.20216 2.06078 1.19494C2.15746 1.15138 2.30394 1.08556 2.48949 1.15587C2.61332 1.20236 2.72386 1.29748 2.89691 1.46837C3.25179 1.81837 3.73675 2.59787 3.91566 2.98068C4.03578 3.23869 4.11527 3.409 4.11547 3.60001C4.11547 3.82365 4.00297 3.99611 3.86644 4.18224C3.84086 4.2172 3.81546 4.2506 3.79086 4.28302C3.64222 4.47833 3.60961 4.53478 3.63109 4.63556C3.67464 4.8381 3.99945 5.44103 4.53324 5.97365C5.06703 6.50626 5.65257 6.81056 5.8559 6.85392C5.96097 6.87638 6.01859 6.8424 6.22015 6.68849C6.24906 6.66642 6.27875 6.64357 6.3098 6.62072C6.518 6.46584 6.68246 6.35626 6.90082 6.35626H6.90199C7.09203 6.35626 7.25472 6.43869 7.52425 6.57462C7.87582 6.75197 8.67875 7.23068 9.0309 7.58595C9.20218 7.75861 9.29769 7.86876 9.34437 7.9924C9.41468 8.17853 9.34847 8.32443 9.30531 8.42208C9.29808 8.4383 9.29008 8.45607 9.28168 8.4758C9.19946 8.67063 9.0995 8.85749 8.98304 9.034C8.77543 9.34455 8.56507 9.58498 8.2139 9.74845C8.03358 9.83375 7.83623 9.87696 7.63675 9.87482Z" fill="white"/>
</g>
</svg>
