<svg width="54" height="60" viewBox="0 0 54 60" fill="none" xmlns="http://www.w3.org/2000/svg">
<g id="Icon">
<path id="Fill 1" fill-rule="evenodd" clip-rule="evenodd" d="M30.4576 25.4393L28.0862 25.4004L27.2215 25.4055C26.205 25.3783 25.1859 25.3512 24.1704 25.3235C23.7193 25.3096 23.2652 25.303 22.8166 25.2989C22.2374 25.2814 21.6622 25.3055 21.0707 25.1559C20.8872 25.1113 20.9441 25.0118 21.1122 24.9257C21.1958 24.8826 21.306 24.8416 21.4295 24.816C21.5602 24.7811 21.7114 24.7576 21.8729 24.7627C23.0253 24.7857 24.1981 24.7458 25.3766 24.8129C26.083 24.8468 26.8175 24.8016 27.5403 24.794L29.926 24.774L31.3946 24.7611C32.1359 24.7504 32.8817 24.7514 33.6178 24.7242C34.1899 24.7068 34.7507 24.6463 35.3202 24.613C35.4447 24.6038 35.5693 24.593 35.6969 24.591C36.1639 24.5797 36.3377 24.653 36.4151 24.8555C36.4336 24.9021 36.4587 24.9488 36.4659 24.9949C36.4874 25.1523 36.2967 25.2625 35.9743 25.2943C34.9808 25.404 33.9167 25.4542 32.8484 25.4588C32.0538 25.4583 31.2557 25.4573 30.4586 25.4562L30.4576 25.4393Z" fill="#2458A4"/>
<path id="Fill 3" fill-rule="evenodd" clip-rule="evenodd" d="M17.8535 51.3439C18.2969 51.3439 14.3196 52.5388 13.5897 51.5813C12.8597 50.6237 13.1878 45.9579 13.1878 45.9579C13.1878 45.9579 14.6231 45.6263 14.8107 46.102C15.007 46.5997 13.9254 48.3247 13.9254 49.1945C13.9254 51.4859 17.627 51.3439 17.8535 51.3439Z" fill="#2458A4"/>
<path id="Fill 5" fill-rule="evenodd" clip-rule="evenodd" d="M28 51.3441C28.4434 51.3441 24.4656 52.539 23.7361 51.5814C23.0062 50.6239 23.3343 45.9581 23.3343 45.9581C23.3343 45.9581 23.9945 45.2271 24.1821 45.7028C24.3784 46.2001 24.0719 48.3248 24.0719 49.1947C24.0719 51.4861 27.7734 51.3441 28 51.3441Z" fill="#2458A4"/>
<path id="Fill 7" fill-rule="evenodd" clip-rule="evenodd" d="M38.128 51.0764C38.5714 51.0764 34.5935 52.2712 33.8641 51.3137C33.1341 50.3561 33.4622 45.6899 33.4622 45.6899C33.4622 45.6899 34.1224 44.9594 34.31 45.4351C34.5064 45.9323 34.1998 48.0566 34.1998 48.927C34.1998 51.2183 37.9014 51.0764 38.128 51.0764Z" fill="#2458A4"/>
<path id="Fill 9" fill-rule="evenodd" clip-rule="evenodd" d="M17.0943 37.4814C17.5377 37.4814 13.5604 38.6763 12.8304 37.7187C12.1005 36.7612 12.7828 31.8601 12.7828 31.8601C12.7828 31.8601 15.0423 31.5167 15.2299 31.9924C15.4263 32.4901 13.7019 34.4621 13.7019 35.332C13.7019 37.6234 16.8677 37.4814 17.0943 37.4814Z" fill="#2458A4"/>
<path id="Fill 14" fill-rule="evenodd" clip-rule="evenodd" d="M41.9389 1.67101C41.8985 1.69562 41.8559 1.67358 41.8123 1.62283C41.7985 1.60642 41.7888 1.55004 41.7995 1.53979C41.8205 1.51979 41.8421 1.4998 41.8651 1.48442C41.879 1.4752 42.1137 1.40087 42.1937 1.37319C42.2701 1.34653 42.349 1.3291 42.4285 1.3127C42.5889 1.28041 42.7494 1.24504 42.9103 1.21172C42.9457 1.20454 42.9821 1.20044 43.0185 1.19788C43.1446 1.1907 43.2671 1.16712 43.3891 1.1379C43.4091 1.13277 43.4306 1.13021 43.4486 1.11791C43.4778 1.09689 43.8105 1.03025 43.8551 1.02871C43.9653 1.02359 44.0745 1.01231 44.1837 1.00411C44.1996 1.00257 44.2154 0.99642 44.2313 1.0036C44.2682 1.02 44.3005 1.00975 44.3339 1.00513C44.3805 0.997958 44.4271 0.992319 44.4743 0.991294C44.4979 0.990269 44.523 0.998983 44.5471 1.00513C44.5697 1.01077 44.5656 1.04819 44.5594 1.05281C44.5409 1.06819 44.5609 1.08151 44.5661 1.09535C44.5671 1.10048 44.5691 1.10612 44.5691 1.11073C44.5686 1.11996 44.3175 1.23376 44.2887 1.2394C44.2816 1.24093 43.9007 1.33884 43.8582 1.35217C43.8356 1.35935 43.8115 1.35832 43.7879 1.35986C43.7766 1.36037 43.4732 1.44393 43.4609 1.44598C43.3968 1.45623 43.3348 1.47878 43.2666 1.47058C43.2533 1.46905 43.241 1.47315 43.2282 1.47622C43.1195 1.50185 43.0082 1.51672 42.8975 1.53363C42.8411 1.54286 42.7858 1.55721 42.7294 1.56849C42.7196 1.57054 42.7089 1.56952 42.6981 1.57003C42.6853 1.57105 42.672 1.57054 42.6592 1.57362C42.5274 1.60386 42.3926 1.61873 42.2619 1.65615C42.2316 1.66486 42.0809 1.66896 42.0466 1.67973C42.0271 1.68588 41.9554 1.66076 41.9389 1.67101Z" fill="#2458A4"/>
<path id="Fill 16" fill-rule="evenodd" clip-rule="evenodd" d="M42.1692 0.716379C42.1272 0.708177 42.1164 0.664606 42.1246 0.599504C42.1267 0.578487 42.1595 0.532352 42.1733 0.53184C42.2005 0.530815 42.2271 0.530815 42.2523 0.534403C42.2671 0.536453 42.4635 0.635387 42.5316 0.667169C42.5972 0.697925 42.6582 0.736371 42.7182 0.775842C42.8402 0.856321 42.9632 0.935263 43.0852 1.01523C43.1124 1.03317 43.138 1.05368 43.1621 1.07572C43.2452 1.1521 43.3369 1.21463 43.4323 1.27205C43.4482 1.28179 43.463 1.29358 43.483 1.29614C43.5153 1.30075 43.7665 1.46786 43.7952 1.49554C43.867 1.56321 43.9418 1.62575 44.0156 1.69085C44.0259 1.70008 44.0402 1.70571 44.0449 1.72109C44.0561 1.75697 44.0833 1.7703 44.1074 1.78876C44.1407 1.81387 44.1735 1.84002 44.2038 1.86975C44.2186 1.8841 44.2284 1.90666 44.2391 1.92716C44.2489 1.94562 44.2207 1.96971 44.2135 1.9692C44.1915 1.96817 44.195 1.99072 44.1879 2.00405C44.1858 2.00867 44.1827 2.0143 44.1802 2.01738C44.1735 2.02353 43.9398 1.94305 43.9177 1.92819C43.9126 1.92409 43.6102 1.74775 43.5743 1.73032C43.5558 1.72058 43.5415 1.70469 43.5256 1.69034C43.5184 1.68367 43.2734 1.54681 43.2647 1.54014C43.2175 1.50631 43.1637 1.48222 43.1273 1.43249C43.1201 1.42275 43.1099 1.41712 43.0996 1.41096C43.0145 1.3597 42.9361 1.29819 42.8556 1.23873C42.8146 1.20848 42.7705 1.18337 42.728 1.15517C42.7203 1.15005 42.7146 1.14236 42.708 1.13569C42.6993 1.128 42.6911 1.11929 42.6813 1.11314C42.5793 1.04906 42.485 0.972683 42.3789 0.915271C42.3543 0.901943 42.2584 0.807111 42.2297 0.792245C42.2133 0.784043 42.1861 0.719455 42.1692 0.716379Z" fill="#2458A4"/>
<path id="Fill 18" fill-rule="evenodd" clip-rule="evenodd" d="M42.6126 2.29653C42.6029 2.33652 42.5603 2.34267 42.4967 2.32934C42.4762 2.32524 42.4316 2.28987 42.4316 2.27603C42.4322 2.2504 42.4327 2.22425 42.4373 2.20119C42.4398 2.18683 42.5434 2.00691 42.5767 1.94437C42.609 1.88388 42.6485 1.82852 42.689 1.7747C42.7725 1.665 42.8535 1.55325 42.936 1.44304C42.9545 1.41895 42.9755 1.39588 42.9976 1.37486C43.075 1.30207 43.1396 1.21903 43.1995 1.1324C43.2093 1.11804 43.2211 1.10472 43.2246 1.08626C43.2298 1.05551 43.4025 0.82842 43.4302 0.803302C43.4989 0.740764 43.563 0.674125 43.6286 0.609023C43.6378 0.599796 43.644 0.586469 43.6593 0.583393C43.6952 0.575704 43.7091 0.550586 43.7275 0.529569C43.7531 0.499325 43.7803 0.470106 43.81 0.443963C43.8249 0.430636 43.8475 0.423972 43.8675 0.415257C43.8859 0.407056 43.9085 0.436274 43.908 0.443451C43.9059 0.464468 43.9285 0.46293 43.9408 0.470619C43.9454 0.473182 43.951 0.47677 43.9536 0.479846C43.9597 0.48651 43.8726 0.704369 43.8577 0.723335C43.8536 0.728461 43.6711 1.00373 43.6522 1.03654C43.6424 1.05346 43.626 1.06576 43.6117 1.07909C43.605 1.08575 43.4625 1.30873 43.4558 1.31694C43.421 1.35897 43.3953 1.40869 43.3456 1.43894C43.3359 1.44509 43.3302 1.45483 43.3241 1.46354C43.2708 1.54095 43.2077 1.61117 43.1467 1.68294C43.116 1.71985 43.0898 1.76034 43.0611 1.79828C43.0555 1.80545 43.0478 1.81007 43.0411 1.81622C43.0334 1.82391 43.0242 1.83057 43.0181 1.83928C42.9519 1.93207 42.874 2.01562 42.814 2.1125C42.8002 2.13506 42.7043 2.21913 42.689 2.24527C42.6803 2.26014 42.6162 2.28064 42.6126 2.29653Z" fill="#2458A4"/>
<path id="Fill 20" fill-rule="evenodd" clip-rule="evenodd" d="M52.0804 9.06234C52.0645 9.03876 52.0799 9.01313 52.1142 8.98647C52.125 8.97776 52.1629 8.97109 52.1691 8.97725C52.1824 8.98955 52.1952 9.00236 52.2055 9.01569C52.2111 9.02389 52.2572 9.16281 52.2741 9.20997C52.2911 9.25508 52.3013 9.30173 52.311 9.34889C52.33 9.44423 52.3515 9.53906 52.371 9.6339C52.3756 9.65543 52.3782 9.67696 52.3787 9.69849C52.3818 9.77333 52.3956 9.84612 52.4136 9.9184C52.4161 9.93019 52.4177 9.943 52.4259 9.95325C52.4392 9.97068 52.4787 10.168 52.4792 10.1942C52.4807 10.2598 52.4869 10.3244 52.491 10.3895C52.4915 10.3992 52.4956 10.4079 52.4905 10.4182C52.4787 10.4402 52.4853 10.4592 52.4879 10.4792C52.492 10.5064 52.4951 10.5346 52.4951 10.5622C52.4956 10.5766 52.4889 10.5915 52.4848 10.6063C52.4807 10.6196 52.4561 10.6176 52.453 10.614C52.4433 10.6032 52.4341 10.615 52.4243 10.6186C52.4218 10.6196 52.4172 10.6207 52.4146 10.6207C52.4084 10.6207 52.3362 10.4725 52.3331 10.4556C52.3321 10.451 52.2726 10.226 52.2644 10.2008C52.2603 10.1875 52.2608 10.1732 52.2603 10.1593C52.2603 10.1521 52.209 9.97273 52.208 9.96556C52.2019 9.92711 52.188 9.89071 52.1942 9.85022C52.1957 9.84202 52.1931 9.83484 52.1911 9.82715C52.1757 9.76307 52.1675 9.69695 52.1573 9.63133C52.1527 9.5975 52.1439 9.5647 52.1368 9.53189C52.1357 9.52574 52.1368 9.51959 52.1362 9.51343C52.1357 9.50574 52.1362 9.49754 52.1347 9.48985C52.1168 9.41194 52.1086 9.33146 52.0855 9.25457C52.0804 9.23663 52.0799 9.14692 52.0727 9.12641C52.0691 9.11514 52.0865 9.07208 52.0804 9.06234Z" fill="#2458A4"/>
<path id="Fill 25" fill-rule="evenodd" clip-rule="evenodd" d="M51.6929 9.42023C51.6668 9.41562 51.6612 9.38794 51.6673 9.34539C51.6699 9.33155 51.6914 9.30028 51.7001 9.29977C51.717 9.29874 51.7345 9.29772 51.7498 9.29977C51.7591 9.30079 51.8806 9.36026 51.9231 9.37922C51.9636 9.39819 52.0015 9.42126 52.0379 9.44586C52.1128 9.49558 52.1891 9.54377 52.264 9.59298C52.2804 9.60426 52.2963 9.61656 52.3111 9.6304C52.3614 9.67807 52.4183 9.71703 52.4767 9.75189C52.487 9.75804 52.4957 9.76522 52.5085 9.76675C52.5285 9.7688 52.6833 9.87184 52.7007 9.88876C52.7443 9.9313 52.7904 9.97026 52.8355 10.0108C52.8417 10.0169 52.8504 10.0195 52.853 10.0297C52.8591 10.0528 52.876 10.061 52.8909 10.0723C52.9114 10.0882 52.9314 10.1041 52.9499 10.123C52.9591 10.1322 52.9642 10.1466 52.9704 10.1594C52.9765 10.1712 52.9581 10.1876 52.9534 10.1876C52.9396 10.1871 52.9417 10.2014 52.9365 10.2107C52.935 10.2132 52.9329 10.2173 52.9314 10.2194C52.9268 10.2235 52.7812 10.1768 52.7679 10.1676C52.7648 10.1656 52.5782 10.0574 52.5557 10.0466C52.5444 10.041 52.5357 10.0307 52.5259 10.022C52.5218 10.0179 52.3701 9.93438 52.365 9.93079C52.3358 9.90977 52.3024 9.89491 52.2809 9.86364C52.2768 9.85749 52.2701 9.8539 52.264 9.85031C52.2112 9.81904 52.163 9.78059 52.1138 9.74369C52.0887 9.72523 52.0615 9.70985 52.0354 9.69243C52.0307 9.68935 52.0272 9.68422 52.0231 9.68064C52.0179 9.67551 52.0128 9.66987 52.0067 9.66628C51.9441 9.62681 51.8862 9.57965 51.8206 9.54428C51.8057 9.53659 51.7473 9.47713 51.7293 9.46842C51.7196 9.46329 51.7037 9.42177 51.6929 9.42023Z" fill="#2458A4"/>
<path id="Fill 27" fill-rule="evenodd" clip-rule="evenodd" d="M51.9723 10.3912C51.9667 10.4163 51.9395 10.4194 51.8975 10.4091C51.8847 10.4061 51.855 10.3825 51.855 10.3738C51.8544 10.3574 51.8539 10.341 51.856 10.3266C51.8575 10.3174 51.9201 10.2056 51.94 10.1672C51.9595 10.1292 51.9836 10.0954 52.0087 10.0621C52.06 9.99494 52.1102 9.92574 52.161 9.85808C52.1723 9.84321 52.1851 9.82886 52.1989 9.81604C52.2476 9.77196 52.2871 9.7207 52.324 9.66739C52.3296 9.65867 52.3373 9.65047 52.3389 9.63868C52.3414 9.61971 52.4475 9.47977 52.465 9.46439C52.508 9.42646 52.548 9.38596 52.589 9.34598C52.5946 9.34085 52.5982 9.33265 52.608 9.3306C52.631 9.3265 52.6398 9.31164 52.651 9.29831C52.6669 9.27985 52.6838 9.26191 52.7023 9.24602C52.7115 9.23833 52.7264 9.23423 52.7392 9.22911C52.751 9.225 52.7659 9.24346 52.7659 9.24807C52.7653 9.2614 52.7797 9.26089 52.7879 9.26653C52.791 9.26806 52.7946 9.27011 52.7961 9.27216C52.8002 9.27678 52.7495 9.41262 52.7402 9.42441C52.7377 9.42749 52.6259 9.59767 52.6146 9.61766C52.609 9.62843 52.5987 9.6356 52.5895 9.64381C52.5854 9.64791 52.4988 9.7858 52.4947 9.79092C52.4732 9.81656 52.4578 9.84731 52.426 9.86577C52.4198 9.86935 52.4163 9.87551 52.4127 9.88063C52.3799 9.9283 52.3409 9.97136 52.3035 10.0154C52.284 10.038 52.2681 10.0626 52.2502 10.0862C52.2471 10.0908 52.242 10.0934 52.2384 10.0975C52.2333 10.1021 52.2276 10.1062 52.2235 10.1118C52.183 10.1682 52.1348 10.2195 52.0984 10.2794C52.0897 10.2938 52.0298 10.3445 52.0205 10.3604C52.0154 10.3697 51.9744 10.3815 51.9723 10.3912Z" fill="#2458A4"/>
<path id="Fill 29" fill-rule="evenodd" clip-rule="evenodd" d="M0.816521 8.52958C0.795504 8.49779 0.816008 8.46447 0.862143 8.42859C0.876496 8.41731 0.926219 8.4086 0.935446 8.4168C0.952875 8.4332 0.969791 8.44961 0.983119 8.46755C0.99132 8.47831 1.05232 8.66234 1.07488 8.72488C1.09692 8.78485 1.11127 8.84688 1.12357 8.90891C1.1492 9.03552 1.1774 9.16111 1.20303 9.28772C1.20918 9.31592 1.21225 9.34411 1.21328 9.37333C1.21738 9.47278 1.23583 9.56915 1.25941 9.66449C1.26352 9.68089 1.26505 9.6973 1.27582 9.71114C1.29376 9.73421 1.34605 9.99564 1.34707 10.0305C1.34912 10.1176 1.35681 10.2038 1.36194 10.2904C1.36296 10.3022 1.3686 10.3145 1.36142 10.3273C1.34605 10.357 1.35476 10.3821 1.35835 10.4088C1.36347 10.4452 1.36706 10.4821 1.36758 10.519C1.36758 10.5375 1.35989 10.558 1.35373 10.5774C1.3481 10.5949 1.3158 10.5923 1.31119 10.5877C1.29786 10.5733 1.28607 10.5897 1.27377 10.5933C1.26915 10.5949 1.26352 10.5969 1.25993 10.5969C1.25224 10.5964 1.15587 10.4001 1.15177 10.3775C1.15023 10.3719 1.0718 10.073 1.06052 10.0397C1.05437 10.0223 1.05591 10.0028 1.05488 9.98436C1.05488 9.97564 0.98722 9.73728 0.985682 9.72754C0.97748 9.67679 0.959026 9.62861 0.967228 9.57478C0.969278 9.56453 0.966203 9.55428 0.96364 9.54403C0.942623 9.45894 0.931858 9.37128 0.91853 9.28414C0.912379 9.24005 0.900076 9.19648 0.891362 9.15239C0.889824 9.14419 0.891362 9.13599 0.890849 9.12779C0.890337 9.11702 0.890849 9.10677 0.888286 9.09703C0.864706 8.99297 0.853429 8.88686 0.823185 8.78485C0.816008 8.76076 0.815496 8.64184 0.806269 8.61467C0.801655 8.5998 0.825235 8.54188 0.816521 8.52958Z" fill="#2458A4"/>
<path id="Fill 11" fill-rule="evenodd" clip-rule="evenodd" d="M42.8016 0.139698C42.777 0.10074 42.7995 0.0602438 42.8508 0.0171847C42.8672 0.00334422 42.9236 -0.00588274 42.9333 0.00436944C42.9538 0.0243612 42.9728 0.0453781 42.9887 0.0669077C42.9974 0.0802355 43.0702 0.306809 43.0974 0.383187C43.123 0.457003 43.1404 0.532869 43.1558 0.609248C43.1871 0.764056 43.2209 0.918351 43.2527 1.07316C43.2599 1.1075 43.2645 1.14236 43.266 1.17773C43.2727 1.29922 43.2952 1.41712 43.3239 1.53451C43.3286 1.55399 43.3311 1.57449 43.3434 1.59192C43.3634 1.62011 43.428 1.94049 43.4295 1.98304C43.4336 2.08915 43.4439 2.19423 43.4516 2.30034C43.4531 2.31521 43.4593 2.33008 43.4521 2.34597C43.4347 2.38185 43.4449 2.41261 43.4495 2.4449C43.4562 2.4895 43.4613 2.53461 43.4623 2.58023C43.4629 2.60278 43.4536 2.62688 43.4475 2.65046C43.4424 2.67199 43.4049 2.6684 43.3998 2.66225C43.3849 2.64482 43.3716 2.6643 43.3573 2.66891C43.3526 2.67045 43.3465 2.6725 43.3424 2.6725C43.3332 2.67199 43.2209 2.43055 43.2158 2.40287C43.2142 2.3962 43.1194 2.02917 43.1061 1.98817C43.0994 1.96664 43.1004 1.94357 43.0994 1.92101C43.0989 1.91025 43.0174 1.61806 43.0153 1.60576C43.0056 1.54425 42.9836 1.48427 42.9923 1.41917C42.9938 1.40635 42.9902 1.39405 42.9872 1.38175C42.9615 1.27718 42.9482 1.17004 42.9313 1.06342C42.9231 1.00908 42.9087 0.955771 42.898 0.901435C42.8964 0.891695 42.8974 0.881443 42.8969 0.871704C42.8959 0.858888 42.8964 0.846073 42.8939 0.833771C42.8646 0.706644 42.8503 0.576953 42.8139 0.451364C42.8057 0.422146 42.8026 0.277077 42.7919 0.243758C42.7862 0.225304 42.8113 0.155076 42.8016 0.139698Z" fill="#2458A4"/>
<path id="Fill 22" fill-rule="evenodd" clip-rule="evenodd" d="M51.5547 10.0082C51.5301 10.0246 51.5034 10.0092 51.4763 9.97489C51.4676 9.96413 51.4609 9.92619 51.4676 9.91953C51.4804 9.9062 51.4932 9.89339 51.5075 9.88365C51.5157 9.8775 51.6603 9.83034 51.709 9.81291C51.7562 9.79599 51.8043 9.78471 51.8535 9.77497C51.952 9.75498 52.0509 9.73294 52.1498 9.71295C52.1719 9.70833 52.1944 9.70577 52.217 9.70475C52.2944 9.70116 52.3697 9.68681 52.4446 9.66835C52.4569 9.66528 52.4702 9.66374 52.4815 9.65554C52.4994 9.64221 52.704 9.6012 52.7311 9.60017C52.7993 9.59812 52.8665 9.59197 52.9341 9.58736C52.9439 9.58633 52.9536 9.58223 52.9633 9.58736C52.9864 9.59915 53.0064 9.59197 53.0269 9.58941C53.0551 9.58531 53.0843 9.58223 53.1135 9.58172C53.1279 9.58121 53.1433 9.58736 53.1587 9.59197C53.1725 9.59556 53.1699 9.62017 53.1663 9.62375C53.1551 9.63349 53.1674 9.64272 53.171 9.65195C53.172 9.65502 53.173 9.65912 53.173 9.6622C53.173 9.66784 53.0187 9.74114 53.0013 9.74473C52.9967 9.74576 52.7624 9.80676 52.7363 9.81547C52.7229 9.82008 52.7081 9.81906 52.6932 9.81957C52.6865 9.82008 52.4999 9.87237 52.4923 9.87391C52.4523 9.88006 52.4143 9.89441 52.3728 9.88826C52.3646 9.88724 52.3564 9.8898 52.3487 9.89134C52.2816 9.90774 52.2134 9.91645 52.1452 9.92671C52.1104 9.93234 52.0765 9.94106 52.0422 9.94824C52.0355 9.94926 52.0289 9.94875 52.0227 9.94875C52.0145 9.94926 52.0063 9.94875 51.9986 9.9508C51.9176 9.96925 51.8341 9.97797 51.7541 10.0015C51.7356 10.0072 51.6424 10.0082 51.6213 10.0154C51.6095 10.019 51.565 10.0015 51.5547 10.0082Z" fill="#2458A4"/>
<path id="Fill 31" fill-rule="evenodd" clip-rule="evenodd" d="M0.119898 9.78472C0.0870915 9.80625 0.0522341 9.78574 0.0153263 9.74012C0.00353626 9.72525 -0.00517809 9.67553 0.00353626 9.66682C0.020965 9.64888 0.0383937 9.63196 0.0568476 9.61863C0.068125 9.61043 0.259328 9.54789 0.323917 9.52431C0.386968 9.50176 0.451044 9.4874 0.515633 9.47459C0.64686 9.44793 0.778088 9.41871 0.909316 9.39155C0.938022 9.38591 0.967753 9.38232 0.997485 9.38078C1.10103 9.37617 1.20099 9.3572 1.30044 9.3326C1.31684 9.3285 1.33427 9.32645 1.34862 9.31568C1.37271 9.29774 1.6444 9.2434 1.68028 9.24238C1.7705 9.23981 1.86021 9.2311 1.9494 9.22546C1.96221 9.22444 1.97503 9.2188 1.98836 9.22546C2.01911 9.24084 2.04474 9.23213 2.07243 9.22854C2.11036 9.2229 2.1488 9.2188 2.18725 9.21828C2.20673 9.21777 2.22723 9.22597 2.24723 9.23161C2.26568 9.23674 2.2626 9.26955 2.25748 9.27416C2.24261 9.28749 2.25953 9.29928 2.26363 9.31158C2.26517 9.31568 2.2667 9.32183 2.2667 9.32542C2.2667 9.33362 2.06217 9.43102 2.03859 9.43563C2.03295 9.43666 1.72231 9.51765 1.68746 9.52893C1.669 9.53508 1.64952 9.53405 1.63004 9.53508C1.62133 9.53559 1.37374 9.60479 1.36349 9.60633C1.3112 9.61504 1.26045 9.63401 1.20509 9.62581C1.19381 9.62427 1.18356 9.62735 1.17331 9.62991C1.08463 9.65195 0.993896 9.66323 0.903165 9.67707C0.85703 9.68373 0.81192 9.69604 0.766298 9.70526C0.758096 9.7068 0.749382 9.70578 0.740668 9.70629C0.729903 9.7068 0.719138 9.70629 0.708886 9.70885C0.600726 9.73346 0.490515 9.74473 0.384405 9.776C0.359799 9.78369 0.236261 9.78472 0.208067 9.79394C0.192689 9.79907 0.133226 9.776 0.119898 9.78472Z" fill="#2458A4"/>
<path id="Fill 34" fill-rule="evenodd" clip-rule="evenodd" d="M0.303727 9.00459C0.268869 8.99895 0.26118 8.96153 0.269894 8.90463C0.272458 8.88669 0.301676 8.84517 0.313466 8.84466C0.336021 8.84312 0.358576 8.84158 0.37908 8.84414C0.391895 8.84517 0.553367 8.92462 0.609241 8.94974C0.663578 8.97383 0.713301 9.0051 0.761999 9.0374C0.861445 9.10352 0.962429 9.1676 1.06187 9.23321C1.08392 9.24757 1.10442 9.26448 1.12441 9.28242C1.19105 9.34599 1.26589 9.39725 1.34432 9.4439C1.35714 9.4521 1.36944 9.46184 1.38584 9.46338C1.41301 9.46594 1.61806 9.60281 1.64112 9.62536C1.69905 9.68175 1.75954 9.73352 1.81951 9.78734C1.82771 9.79503 1.8395 9.79913 1.84309 9.81246C1.85129 9.84373 1.87385 9.85398 1.89333 9.86936C1.91998 9.88987 1.94664 9.9114 1.97073 9.936C1.98303 9.9483 1.99021 9.96727 1.99892 9.9847C2.00661 10.0001 1.98201 10.0221 1.97586 10.0221C1.95792 10.0216 1.95945 10.0411 1.95381 10.0529C1.95125 10.057 1.94869 10.0621 1.94613 10.0647C1.94049 10.0703 1.74723 10.0083 1.72929 9.99649C1.72519 9.99341 1.4776 9.8504 1.44787 9.83604C1.43249 9.82835 1.42121 9.81503 1.4084 9.80324C1.40276 9.7976 1.20182 9.68739 1.19464 9.68175C1.1562 9.65407 1.11211 9.63459 1.0834 9.59307C1.07777 9.58486 1.06905 9.58076 1.06085 9.57564C0.991135 9.5336 0.927059 9.48285 0.861958 9.43416C0.828638 9.40955 0.792243 9.38905 0.757898 9.36598C0.751234 9.36188 0.746621 9.35522 0.741495 9.35009C0.734318 9.34394 0.727654 9.33625 0.719965 9.33112C0.63641 9.27935 0.560031 9.2163 0.472888 9.16965C0.452896 9.15889 0.375492 9.07994 0.351912 9.06867C0.338584 9.062 0.317567 9.00664 0.303727 9.00459Z" fill="#2458A4"/>
<path id="Fill 36" fill-rule="evenodd" clip-rule="evenodd" d="M0.672584 10.2929C0.66592 10.3257 0.629012 10.3298 0.574163 10.3165C0.556222 10.3124 0.516751 10.2806 0.516238 10.2693C0.515213 10.2478 0.515213 10.2257 0.518289 10.2063C0.519826 10.1945 0.602869 10.0463 0.629525 9.99455C0.655155 9.94483 0.686937 9.89972 0.720769 9.85563C0.788433 9.76593 0.854047 9.67468 0.921712 9.58498C0.93709 9.56498 0.954006 9.54602 0.97246 9.5291C1.03705 9.47066 1.08933 9.403 1.13803 9.33226C1.14623 9.32047 1.15597 9.30971 1.15802 9.29381C1.16161 9.26818 1.30258 9.08313 1.32565 9.06314C1.38255 9.01239 1.43535 8.95857 1.49019 8.90577C1.49788 8.89859 1.5025 8.88783 1.51583 8.88527C1.54607 8.88014 1.55735 8.85963 1.57273 8.84221C1.59374 8.81811 1.61578 8.79453 1.6409 8.77352C1.6532 8.76275 1.67217 8.75763 1.68909 8.75096C1.70498 8.74481 1.72548 8.76993 1.72497 8.77659C1.72446 8.79402 1.74342 8.79351 1.7547 8.80017C1.75829 8.80273 1.76342 8.80581 1.76598 8.80837C1.7711 8.81452 1.70395 8.99445 1.69165 9.01085C1.68857 9.01444 1.54043 9.23999 1.52556 9.26716C1.51736 9.281 1.50404 9.29074 1.49173 9.3015C1.48609 9.30714 1.37127 9.49014 1.36614 9.49681C1.33692 9.53115 1.31693 9.57165 1.2749 9.59574C1.2667 9.60035 1.26208 9.60856 1.25747 9.61573C1.2139 9.6793 1.16213 9.7362 1.11189 9.79412C1.08677 9.82436 1.06575 9.85717 1.04166 9.88844C1.03756 9.89408 1.0309 9.89767 1.02577 9.90279C1.01911 9.90894 1.01142 9.91458 1.00629 9.92176C0.952468 9.99763 0.888392 10.0653 0.840207 10.1447C0.82893 10.1632 0.748963 10.2304 0.73666 10.2519C0.729996 10.2642 0.675147 10.2796 0.672584 10.2929Z" fill="#2458A4"/>
<path id="Fill 38" fill-rule="evenodd" clip-rule="evenodd" d="M14.0417 38.8298L13.5757 38.8139L13.3358 38.799L13.199 38.7877C13.1354 38.7872 13.0647 38.7713 13.0016 38.7554C12.731 38.7267 12.5059 38.5565 12.3809 38.3202C12.3029 38.2172 12.2368 38.0865 12.2163 37.9988C12.185 37.9112 12.1548 37.8225 12.1389 37.743C12.0769 37.5016 12.0118 37.2786 11.9805 37.0479C11.9277 36.644 11.9103 36.2483 11.8975 35.8525C11.901 35.4568 11.918 35.0636 11.9374 34.6725C11.9538 34.325 11.9508 33.9769 11.9569 33.6319C11.9528 33.19 11.9713 32.7395 12.121 32.3048C12.1676 32.1689 12.3163 32.213 12.4644 32.3473C12.609 32.4816 12.7699 32.6995 12.7858 32.9419C12.8273 33.8026 12.8268 34.6679 12.8007 35.5455C12.7709 36.0709 12.8509 36.6143 12.9334 37.1212C12.9524 37.2637 12.9837 37.3945 13.0134 37.5267C13.0273 37.5918 13.0519 37.6477 13.0662 37.7015C13.0765 37.7471 13.0867 37.7599 13.0995 37.7917C13.1236 37.8512 13.1815 37.8794 13.2446 37.8845C13.3107 37.8958 13.5045 37.9086 13.6357 37.9137C13.9981 37.9245 14.3682 37.9445 14.7368 37.944C15.2955 37.9276 15.8594 37.9158 16.4135 37.8589C16.8441 37.8143 17.2614 37.7148 17.6823 37.6308C17.775 37.6123 17.8647 37.5851 17.958 37.5708C18.3051 37.5149 18.4225 37.5816 18.524 37.8158C18.547 37.8702 18.5752 37.923 18.5911 37.9778C18.6449 38.1613 18.5183 38.3351 18.2646 38.4268C17.51 38.6621 16.6975 38.7365 15.8794 38.7785C15.2715 38.8082 14.6604 38.8016 14.0427 38.8523L14.0417 38.8298Z" fill="#2458A4"/>
<path id="Fill 40" fill-rule="evenodd" clip-rule="evenodd" d="M24.3112 38.9296L23.8453 38.9137L23.6054 38.8989L23.468 38.8876C23.4044 38.8871 23.3342 38.8712 23.2706 38.8553C23.0005 38.8271 22.7755 38.6564 22.6499 38.4201C22.572 38.3171 22.5063 38.1864 22.4853 38.0987C22.4546 38.011 22.4243 37.9224 22.4084 37.8429C22.3464 37.602 22.2813 37.3785 22.25 37.1478C22.1972 36.7444 22.1798 36.3481 22.167 35.9529C22.1706 35.5567 22.1875 35.1635 22.2065 34.7724C22.2234 34.4248 22.2203 34.0768 22.2265 33.7318C22.2224 33.2899 22.2408 32.8393 22.3905 32.4046C22.4371 32.2693 22.5858 32.3129 22.7334 32.4472C22.8785 32.5815 23.0395 32.7993 23.0553 33.0418C23.0969 33.9025 23.0964 34.7678 23.0702 35.6454C23.0405 36.1713 23.1204 36.7141 23.203 37.2211C23.2219 37.3641 23.2532 37.4943 23.2829 37.6266C23.2968 37.6917 23.3209 37.7476 23.3357 37.8019C23.346 37.847 23.3562 37.8603 23.3691 37.8916C23.3926 37.9511 23.4511 37.9793 23.5141 37.9844C23.5797 37.9957 23.774 38.0085 23.9052 38.0136C24.2677 38.0249 24.6378 38.0444 25.0063 38.0438C25.5651 38.028 26.1289 38.0157 26.6831 37.9588C27.1137 37.9147 27.5309 37.8147 27.9518 37.7306C28.0446 37.7127 28.1338 37.685 28.2276 37.6707C28.5741 37.6148 28.692 37.6814 28.793 37.9157C28.816 37.97 28.8447 38.0233 28.8606 38.0777C28.9145 38.2612 28.7878 38.435 28.5341 38.5272C27.7795 38.762 26.9665 38.8369 26.1489 38.8784C25.5405 38.9081 24.93 38.902 24.3123 38.9522L24.3112 38.9296Z" fill="#2458A4"/>
<path id="Fill 42" fill-rule="evenodd" clip-rule="evenodd" d="M34.3957 38.7773L33.9298 38.7614L33.6899 38.747L33.5525 38.7358C33.4889 38.7347 33.4187 38.7189 33.3551 38.703C33.0845 38.6748 32.86 38.5041 32.7349 38.2678C32.6565 38.1647 32.5908 38.0345 32.5698 37.9464C32.5391 37.8587 32.5083 37.77 32.4929 37.6906C32.4309 37.4496 32.3658 37.2261 32.3345 36.996C32.2817 36.592 32.2643 36.1958 32.251 35.8006C32.2551 35.4043 32.272 35.0112 32.2915 34.62C32.3079 34.2725 32.3048 33.9249 32.311 33.58C32.3069 33.1376 32.3253 32.6875 32.475 32.2523C32.5216 32.117 32.6703 32.1605 32.8184 32.2948C32.9625 32.4291 33.1239 32.6475 33.1398 32.8895C33.1814 33.7501 33.1808 34.6159 33.1547 35.4935C33.125 36.0189 33.2049 36.5618 33.2875 37.0688C33.3064 37.2118 33.3377 37.342 33.3674 37.4742C33.3813 37.5393 33.4054 37.5952 33.4202 37.6496C33.4305 37.6947 33.4407 37.708 33.4536 37.7393C33.4771 37.7987 33.5356 37.8269 33.5986 37.832C33.6642 37.8433 33.858 37.8561 33.9897 37.8613C34.3516 37.8725 34.7223 37.892 35.0908 37.8915C35.6496 37.8756 36.2134 37.8633 36.7676 37.8064C37.1982 37.7623 37.6154 37.6624 38.0363 37.5783C38.1285 37.5604 38.2183 37.5327 38.3121 37.5183C38.6586 37.4625 38.7765 37.5291 38.8775 37.7639C38.9005 37.8177 38.9292 37.871 38.9451 37.9253C38.999 38.1089 38.8723 38.2826 38.6186 38.3749C37.864 38.6097 37.0516 38.6845 36.2334 38.7265C35.625 38.7558 35.0145 38.7496 34.3968 38.7998L34.3957 38.7773Z" fill="#2458A4"/>
<path id="Fill 44" fill-rule="evenodd" clip-rule="evenodd" d="M34.9411 52.5292L34.4752 52.5133L34.2353 52.4985L34.0979 52.4872C34.0343 52.4867 33.9641 52.4708 33.9005 52.4549C33.6304 52.4267 33.4053 52.256 33.2803 52.0197C33.2023 51.9167 33.1362 51.7859 33.1152 51.6983C33.0844 51.6106 33.0542 51.5219 33.0383 51.4425C32.9763 51.2016 32.9112 50.9781 32.8799 50.7474C32.8271 50.3435 32.8097 49.9477 32.7969 49.552C32.8005 49.1563 32.8174 48.7631 32.8369 48.372C32.8533 48.0244 32.8502 47.6764 32.8563 47.3314C32.8522 46.8895 32.8707 46.4389 33.0204 46.0042C33.067 45.8684 33.2157 45.9125 33.3638 46.0468C33.5084 46.1811 33.6693 46.3989 33.6852 46.6414C33.7267 47.5021 33.7262 48.3673 33.7001 49.2449C33.6704 49.7704 33.7503 50.3137 33.8329 50.8207C33.8518 50.9637 33.8831 51.0939 33.9128 51.2262C33.9267 51.2913 33.9508 51.3471 33.9656 51.4015C33.9759 51.4466 33.9861 51.4599 33.9989 51.4912C34.0225 51.5506 34.081 51.5788 34.144 51.584C34.2096 51.5952 34.4039 51.6081 34.5351 51.6132C34.8975 51.624 35.2676 51.6439 35.6362 51.6434C36.195 51.627 36.7588 51.6152 37.313 51.5583C37.7435 51.5137 38.1608 51.4143 38.5817 51.3302C38.6744 51.3118 38.7636 51.2846 38.8574 51.2703C39.2045 51.2144 39.3219 51.281 39.4234 51.5153C39.4459 51.5696 39.4746 51.6224 39.4905 51.6773C39.5443 51.8608 39.4177 52.0346 39.164 52.1268C38.4094 52.3616 37.5964 52.4364 36.7788 52.478C36.1704 52.5077 35.5598 52.501 34.9421 52.5518L34.9411 52.5292Z" fill="#2458A4"/>
<path id="Fill 46" fill-rule="evenodd" clip-rule="evenodd" d="M24.5217 52.8495C24.3367 52.8459 24.1526 52.8398 23.9614 52.8285L23.6416 52.8049C23.4816 52.7783 23.3243 52.7465 23.1766 52.6906C23.1002 52.6189 23.0172 52.5517 22.9485 52.4738L22.7747 52.2093C22.7189 52.1134 22.704 52.0304 22.6779 51.9663C22.6517 51.8951 22.6317 51.8269 22.6189 51.7628C22.5569 51.5219 22.4918 51.2984 22.4605 51.0677C22.4077 50.6638 22.3903 50.268 22.377 49.8723C22.3811 49.4766 22.398 49.0834 22.4169 48.6923C22.4339 48.3447 22.4308 47.9967 22.4369 47.6517C22.4328 47.2098 22.4513 46.7592 22.601 46.3245C22.6476 46.1887 22.7963 46.2328 22.9439 46.3671C23.0885 46.5014 23.2499 46.7192 23.2658 46.9617C23.3073 47.8224 23.3068 48.6877 23.2807 49.5652C23.251 50.0907 23.3309 50.634 23.4134 51.141C23.4381 51.3153 23.476 51.4839 23.5185 51.6346C23.5472 51.7172 23.5539 51.7623 23.5698 51.7895C23.5816 51.8243 23.6047 51.8556 23.6344 51.8787C23.6836 51.8992 23.7026 51.9022 23.7902 51.912C23.8932 51.9232 24.006 51.9273 24.1157 51.9335C24.4776 51.9443 24.8482 51.9643 25.2168 51.9637C25.7755 51.9473 26.3394 51.9356 26.8935 51.8787C27.3241 51.8341 27.7414 51.7346 28.1623 51.6505C28.2545 51.6321 28.3442 51.6049 28.438 51.5906C28.7846 51.5347 28.9025 51.6013 29.0034 51.8356C29.0265 51.8899 29.0552 51.9427 29.0711 51.9976C29.1249 52.1811 28.9978 52.3549 28.7446 52.4471C27.99 52.6819 27.177 52.7567 26.3594 52.7983C25.7509 52.828 25.1404 52.8213 24.5227 52.8721L24.5217 52.8495Z" fill="#2458A4"/>
<path id="Fill 48" fill-rule="evenodd" clip-rule="evenodd" d="M14.2526 52.841L13.7867 52.8251L13.5473 52.8108L13.4099 52.7995C13.3463 52.7985 13.2756 52.7826 13.2126 52.7667C12.9419 52.7385 12.7169 52.5678 12.5918 52.3315C12.5139 52.2284 12.4477 52.0982 12.4272 52.0101C12.396 51.9224 12.3657 51.8337 12.3498 51.7543C12.2878 51.5134 12.2227 51.2899 12.1914 51.0592C12.1392 50.6558 12.1212 50.2595 12.1084 49.8643C12.1125 49.468 12.1289 49.0749 12.1484 48.6838C12.1648 48.3362 12.1617 47.9887 12.1679 47.6437C12.1638 47.2013 12.1822 46.7512 12.3319 46.316C12.3785 46.1807 12.5277 46.2243 12.6753 46.3586C12.8199 46.4929 12.9809 46.7112 12.9967 46.9532C13.0388 47.8139 13.0378 48.6797 13.0116 49.5572C12.9819 50.0827 13.0619 50.6255 13.1444 51.1325C13.1633 51.2755 13.1946 51.4057 13.2243 51.538C13.2382 51.6031 13.2628 51.6589 13.2771 51.7133C13.2874 51.7584 13.2977 51.7717 13.311 51.803C13.3346 51.8624 13.3925 51.8906 13.4555 51.8958C13.5217 51.907 13.7154 51.9199 13.8472 51.925C14.2091 51.9363 14.5792 51.9557 14.9477 51.9552C15.507 51.9393 16.0709 51.927 16.6245 51.8701C17.0551 51.826 17.4723 51.7261 17.8932 51.642C17.986 51.6241 18.0757 51.5964 18.169 51.582C18.516 51.5262 18.6334 51.5928 18.7349 51.8276C18.758 51.8814 18.7862 51.9347 18.802 51.9891C18.8559 52.1726 18.7293 52.3463 18.4755 52.4386C17.721 52.6734 16.9085 52.7482 16.0903 52.7898C15.4824 52.8195 14.8714 52.8133 14.2537 52.8636L14.2526 52.841Z" fill="#2458A4"/>
<path id="Fill 50" fill-rule="evenodd" clip-rule="evenodd" d="M44.5847 38.5691C44.5837 36.5991 44.5616 34.6266 44.5063 32.6541C44.4899 31.9344 44.4309 31.2167 44.4074 30.4975C44.3412 27.9606 44.251 25.4217 44.1311 22.8843C44.0747 21.7586 43.9762 20.6293 43.8799 19.5144C43.8184 18.7982 43.7563 18.0796 43.6948 17.3619C43.6569 16.6402 43.6656 15.9215 43.7604 15.1823C43.8035 14.7235 43.9532 14.7896 44.1757 15.1587C44.2869 15.3438 44.4325 15.597 44.5991 15.9128C44.7498 16.228 44.8697 16.5986 44.9456 17.0077C45.288 19.9239 45.4054 22.8653 45.4362 25.8333C45.4464 27.609 45.6063 29.4487 45.6725 31.2618C45.7401 33.2559 45.7822 35.252 45.8037 37.2486C45.8078 38.4773 45.8114 39.707 45.815 40.9347C45.8016 41.8656 45.7883 42.7981 45.7745 43.7295C45.7488 44.6614 45.7237 45.5908 45.6981 46.515C45.6335 47.9534 45.6602 49.3677 45.5377 50.7999C45.5151 51.1157 45.5095 51.4253 45.4761 51.7431C45.2901 52.9226 45.145 53.285 44.7734 53.4619C44.6903 53.5024 44.6057 53.5608 44.5294 53.5772C44.2756 53.6326 44.13 53.1189 44.2049 52.2906C44.3694 49.8162 44.4878 47.184 44.5273 44.5225C44.5622 42.5484 44.5801 40.559 44.5534 38.5721L44.5847 38.5691Z" fill="#2458A4"/>
<path id="Fill 52" fill-rule="evenodd" clip-rule="evenodd" d="M6.51428 43.3707C6.16469 37.3266 6.05755 31.286 6.1206 25.2434C6.14726 23.0381 6.16366 20.8324 6.27541 18.6266C6.38254 16.6797 6.49532 14.741 6.81057 12.7695C6.84953 12.523 6.90951 12.2697 6.9582 12.0201C7.02946 11.7679 7.08892 11.4885 7.1981 11.2491C7.39085 10.756 7.64151 10.2772 7.96087 9.84151C8.60009 8.96341 9.52176 8.3165 10.4865 7.92692C11.4553 7.52913 12.4616 7.34459 13.4458 7.23284C14.4331 7.12109 15.4101 7.08009 16.3697 7.0196C18.3166 6.88529 20.264 6.86787 22.2032 6.85146C25.6479 6.83557 29.1085 6.85813 32.5266 6.97192C34.7242 7.05804 36.9202 7.12725 39.1382 7.44352C40.246 7.60602 41.3963 7.94024 42.3651 8.62765C42.8475 8.96956 43.2724 9.40938 43.58 9.91994C43.8901 10.429 44.0803 10.9985 44.1695 11.5695C44.2151 11.9278 44.2202 12.1841 44.1956 12.3477C44.1782 12.5112 44.149 12.5819 44.1111 12.5727C44.0255 12.5558 43.9496 12.2103 43.7553 11.6731C43.5564 11.1435 43.2043 10.4156 42.5199 9.84971C41.8464 9.27456 40.8601 8.88703 39.7088 8.67532C37.6245 8.31547 35.3588 8.22218 33.1479 8.13093C30.9237 8.04892 28.6918 8.01098 26.4578 7.9956C21.9946 7.97459 17.4933 7.99253 13.0977 8.44926C11.8198 8.6215 10.5706 8.98596 9.6289 9.75026C9.16857 10.1404 8.80001 10.6243 8.5109 11.1676C8.40427 11.4562 8.2428 11.7376 8.18231 12.0324C8.13772 12.1729 8.1044 12.3302 8.07518 12.4937C8.04698 12.6562 8.00751 12.8105 7.98752 12.9797C7.61024 15.6514 7.5395 18.4503 7.45236 21.1907C7.30011 27.2379 7.37906 33.3057 7.64612 39.356C7.82349 43.078 8.05211 46.8057 8.53345 50.4837C8.72619 51.8713 8.94354 53.2656 9.30595 54.5876C9.41514 54.8891 9.50484 55.2848 9.63095 55.4345C9.77601 55.639 10.0251 55.8282 10.2989 55.9855C10.8525 56.3064 11.5132 56.5207 12.1704 56.7068C14.8478 57.3988 17.6784 57.6125 20.4598 57.7504C24.8011 57.9309 29.0742 57.7566 33.3499 57.4183C34.2915 57.3409 35.2096 57.2409 36.1543 57.1409C39.6616 56.7688 40.7073 56.6017 41.5183 56.758C41.7033 56.7872 41.9402 56.7811 42.074 56.7929C42.1888 56.8098 42.2098 56.8749 42.1088 57.0092C42.0078 57.1384 41.79 57.304 41.4788 57.4572C40.8555 57.7761 39.8436 58.056 38.5421 58.2871C34.6775 58.9279 30.6946 59.1658 26.6455 59.2539C24.6207 59.2888 22.5794 59.2693 20.527 59.176C18.474 59.0807 16.4107 58.9202 14.3362 58.5952C13.5652 58.4722 12.7932 58.3235 12.0156 58.1221C11.238 57.916 10.4562 57.6782 9.65401 57.2378C9.25828 57.0087 8.8323 56.7344 8.46579 56.2213C8.37249 56.1029 8.29765 55.9404 8.22691 55.7882C8.17514 55.66 8.15514 55.5801 8.11824 55.4734C8.05621 55.2745 7.97778 55.0695 7.93113 54.8752C7.72199 54.0909 7.55847 53.3184 7.43442 52.551C6.9254 49.48 6.69011 46.432 6.48096 43.381L6.51428 43.3707Z" fill="#2458A4"/>
<path id="Fill 54" fill-rule="evenodd" clip-rule="evenodd" d="M26.1532 59.9698C24.4227 59.9887 22.688 59.9974 20.9518 59.9529C20.3182 59.94 19.6836 59.9482 19.0505 59.9165C16.8171 59.7965 14.5811 59.571 12.3759 59.1347C11.3999 58.9287 10.4151 58.7293 9.46373 58.4243C8.2468 58.0526 7.00423 57.5549 6.03181 56.6737C5.73143 56.3974 5.88931 56.3021 6.27889 56.3215C6.4742 56.3308 6.7264 56.3641 6.99859 56.4358C7.28412 56.4902 7.57784 56.6019 7.89258 56.7362C10.1153 57.7199 12.5947 58.1905 15.1127 58.5539C16.6239 58.7749 18.2227 58.7821 19.7897 58.8087C21.5152 58.8374 23.2462 58.8302 24.9794 58.7959C26.0461 58.7754 27.1144 58.7472 28.1822 58.7082C29.8025 58.6493 31.43 58.5909 33.0386 58.5324C34.2919 58.4801 35.5212 58.3679 36.7832 58.3602C37.0605 58.3566 37.3343 58.3443 37.6172 58.373C38.138 58.4063 38.4876 58.4929 38.7188 58.5842C38.9516 58.7 39.0705 58.8323 39.1463 59.0091C39.1812 59.0896 39.2304 59.1716 39.2427 59.2455C39.276 59.4971 38.8475 59.6104 38.1334 59.6258C36.0061 59.6658 33.7009 59.7545 31.3757 59.8375C29.64 59.8919 27.8966 59.9462 26.1563 60L26.1532 59.9698Z" fill="#2458A4"/>
<path id="Fill 57" fill-rule="evenodd" clip-rule="evenodd" d="M10.7323 58.1488C10.4191 58.0457 10.1049 57.9427 9.79269 57.8402C9.67838 57.8048 9.55843 57.7976 9.44463 57.7566C9.04428 57.6105 8.64291 57.4624 8.25077 57.2855C8.07597 57.2107 7.8945 57.1569 7.71406 57.0995C7.48339 57.0303 7.23478 56.9698 7.04511 56.7796C6.98565 56.7212 7.07535 56.5761 7.20607 56.4438C7.33883 56.3121 7.50031 56.185 7.62026 56.2065C8.04777 56.2988 8.49733 56.3608 8.9269 56.5792C9.18474 56.7109 9.4841 56.7186 9.76655 56.7837C10.0777 56.858 10.3904 56.9334 10.7026 57.0077C10.8963 57.0518 11.0886 57.101 11.2839 57.1379C11.5796 57.1933 11.8729 57.2779 12.1722 57.3055C12.4044 57.3281 12.6428 57.2825 12.8812 57.2691C12.934 57.2661 12.9873 57.2522 13.039 57.2553C13.2343 57.2686 13.2841 57.3573 13.2692 57.6679C13.2656 57.7387 13.2651 57.8094 13.2579 57.8797C13.2328 58.117 13.1221 58.2985 12.9786 58.3451C12.5505 58.4861 12.1194 58.4574 11.6868 58.3959C11.3638 58.3584 11.0486 58.2533 10.7282 58.1765L10.7323 58.1488Z" fill="#2458A4"/>
<path id="Fill 59" fill-rule="evenodd" clip-rule="evenodd" d="M25.9628 11.89C27.6913 11.8823 29.4214 11.8997 31.153 11.9305C31.785 11.9423 32.4176 11.9244 33.0501 11.952C34.1661 12.0002 35.2825 12.0663 36.4082 12.2001C36.9757 12.2734 37.5303 12.3585 38.1219 12.5533L38.3551 12.6523C38.4289 12.6815 38.5089 12.7179 38.6048 12.7948C38.8129 12.9321 38.8662 13.0711 38.9718 13.209C39.062 13.3474 39.1189 13.4883 39.1922 13.6283L39.3496 14.0501C39.653 15.0508 39.7786 16.0544 39.8396 17.0489C39.9011 18.3233 39.8596 19.6268 39.448 20.8684C39.2752 21.2446 39.1937 21.1467 39.1056 20.7879C39.0215 20.429 38.9364 19.8308 38.9436 19.1347C38.9574 18.517 38.9277 17.8973 38.8857 17.2821C38.859 16.666 38.7954 16.0524 38.6934 15.4573C38.5909 14.8693 38.4428 14.2716 38.2085 13.8277C38.1834 13.7626 38.146 13.7349 38.1157 13.6877L38.0701 13.6221L38.0588 13.6057L38.0558 13.6016C38.3705 13.3084 38.1398 13.5227 38.2085 13.4581L38.2034 13.4622L38.1926 13.4704L38.1501 13.5047C38.1009 13.5437 38.0245 13.6278 38.0429 13.6047C38.0747 13.6078 37.9102 13.5447 37.8194 13.5073C37.5595 13.4309 37.2668 13.3689 36.9639 13.3161C35.4994 13.05 33.8795 13.0695 32.3156 13.0342C30.587 13.0013 28.8524 12.9937 27.1177 13.0065L23.9134 13.0413C22.2956 13.0726 20.6691 13.0946 19.0631 13.1638C17.8144 13.2172 16.5928 13.3366 15.3538 13.4119C15.0801 13.4268 14.8141 13.455 14.5367 13.4612C13.511 13.4965 13.1696 13.3612 12.9641 13.0649C12.9174 12.9962 12.8574 12.927 12.8354 12.8609C12.7688 12.6379 13.163 12.4898 13.8944 12.3949C16.0725 12.1873 18.4008 12.0581 20.7352 11.9828C22.4709 11.9223 24.2163 11.8931 25.9602 11.8618L25.9628 11.89Z" fill="#2458A4"/>
<path id="Fill 61" fill-rule="evenodd" clip-rule="evenodd" d="M11.4998 20.0371C11.5352 19.4994 11.571 18.9606 11.6064 18.4239C11.6203 18.2266 11.6131 18.0312 11.6315 17.8365C11.7059 17.1521 11.7802 16.4642 11.854 15.7814C11.8883 15.4774 11.9027 15.1719 11.9186 14.869C11.9391 14.4753 11.9534 14.0965 12.1001 13.6859C12.1764 13.5177 12.2585 13.6356 12.3558 13.7464C12.4553 13.8622 12.5747 14.0483 12.5829 14.2682C12.6091 15.0448 12.5609 15.8316 12.4579 16.6216C12.3881 17.0947 12.4138 17.5909 12.3963 18.0753L12.3523 19.6731C12.3466 20.0007 12.3435 20.3288 12.3492 20.6563C12.3589 21.152 12.3692 21.6503 12.4245 22.1388C12.4676 22.5181 12.5711 22.8831 12.6634 23.2481C12.6824 23.3285 12.7121 23.406 12.7285 23.4869C12.7844 23.7894 12.7331 23.896 12.5086 24.0031C12.4573 24.0272 12.4076 24.0565 12.3553 24.0744C12.1805 24.1364 12.0073 24.0354 11.9037 23.814C11.6264 23.1512 11.5188 22.4141 11.4788 21.679C11.4542 21.1315 11.4675 20.5825 11.4783 20.0381L11.4998 20.0371Z" fill="#2458A4"/>
<path id="Fill 63" fill-rule="evenodd" clip-rule="evenodd" d="M28.4961 25.038L24.7151 25.1021C24.2537 25.1098 23.795 25.1431 23.3285 25.1395C21.7286 25.0949 20.1288 25.2328 18.4971 25.3153C17.7744 25.3497 17.046 25.3866 16.3216 25.3784C15.3948 25.3635 14.4414 25.241 13.5802 24.8632C13.3106 24.7545 13.3664 24.7191 13.6207 24.7043C13.7489 24.693 13.9226 24.7002 14.1348 24.6797C14.346 24.6689 14.59 24.6289 14.8433 24.653C15.2923 24.6951 15.7465 24.6858 16.1996 24.6822C16.6528 24.6889 17.1095 24.6725 17.5678 24.653C18.493 24.593 19.4204 24.5331 20.3584 24.4721C20.9295 24.4316 21.5051 24.3906 22.0864 24.349C22.3781 24.325 22.6749 24.3147 22.9707 24.3039L23.8293 24.2768L27.6257 24.1368L29.9657 24.0456C31.1473 23.9959 32.3355 23.9646 33.5084 23.8969C34.4208 23.8472 35.3128 23.7334 36.2191 23.6765C36.4185 23.6616 36.6133 23.6396 36.8157 23.635C37.5641 23.6129 37.8076 23.7606 37.9599 24.002C37.9952 24.0574 38.0419 24.1086 38.0614 24.1563C38.1275 24.2968 37.8204 24.5151 37.2868 24.6048C35.6947 24.8345 34.0061 24.8965 32.3037 24.9529C31.0386 24.9893 29.7674 25.0257 28.4987 25.0616L28.4961 25.038Z" fill="#2458A4"/>
<path id="Fill 65" fill-rule="evenodd" clip-rule="evenodd" d="M12.2466 37.2158C12.0456 36.2054 12.0323 35.2556 12.0441 34.2878C12.0528 33.9361 12.0395 33.5834 12.0728 33.2292C12.102 32.9165 12.142 32.6038 12.2081 32.2829L12.2645 32.0374C12.2999 31.9205 12.3276 31.7914 12.386 31.6873C12.4777 31.453 12.7243 31.3444 12.9519 31.2654C13.3446 31.1593 13.6193 31.1496 13.9428 31.1188C14.2534 31.0957 14.5605 31.0834 14.867 31.0747C15.4088 31.0593 15.9517 31.0435 16.4894 31.0281C17.183 31.0148 17.8658 30.9937 18.5875 31.2147C18.8505 31.3254 18.7039 31.4392 18.5127 31.5525C18.3179 31.6709 17.9991 31.8247 17.6187 31.8401C16.2757 31.8969 14.8686 31.9241 13.5645 32.0605C13.4702 32.0717 13.3779 32.0892 13.2948 32.1071C13.2631 32.1097 13.2313 32.1153 13.201 32.1297C13.1457 32.1753 13.1534 32.2009 13.1006 32.4408C13.0293 32.8304 13.0021 33.2523 12.9745 33.6675C12.9206 34.5825 12.9268 35.5196 13.0324 36.4264C13.0657 36.7042 13.1134 36.9795 13.1754 37.2373C13.261 37.51 13.2897 37.6643 13.4584 37.6746C13.4943 37.6828 13.6163 37.6858 13.7198 37.692L14.0422 37.6987L14.6968 37.694C15.1341 37.6843 15.5719 37.6674 16.006 37.6346C16.6817 37.5849 17.3398 37.4736 18.0026 37.3757C18.1482 37.3552 18.2897 37.3234 18.4373 37.306C18.9817 37.2353 19.1606 37.2963 19.3042 37.5259C19.337 37.5792 19.378 37.631 19.3995 37.6853C19.4728 37.8658 19.2637 38.0503 18.8628 38.1533C17.67 38.4219 16.4002 38.5163 15.1156 38.5593C14.6358 38.5727 14.1637 38.5814 13.6567 38.5583L13.4548 38.5465L13.1165 38.487C12.8889 38.4496 12.7141 38.281 12.5859 38.0959C12.4311 37.8791 12.4003 37.7525 12.345 37.6161C12.2953 37.4798 12.2573 37.3501 12.225 37.2224L12.2466 37.2158Z" fill="#2458A4"/>
<path id="Fill 67" fill-rule="evenodd" clip-rule="evenodd" d="M19.7061 33.8889C19.6872 34.1534 19.6667 34.42 19.6569 34.687C19.6533 34.7844 19.6718 34.8798 19.6662 34.9777C19.6467 35.3216 19.6267 35.6723 19.6072 36.0137C19.5949 36.1674 19.6026 36.3212 19.6108 36.4735C19.6211 36.6713 19.6559 36.8631 19.5775 37.0794C19.5534 37.1455 19.4298 37.1204 19.3032 37.0635C19.1782 37.0061 19.0408 36.9297 19.0182 36.8221C18.949 36.4473 18.8706 36.0557 18.949 35.6518C18.9854 35.4103 18.9301 35.1648 18.9219 34.9198C18.9193 34.6512 18.9167 34.3795 18.9142 34.1093C18.9162 33.9422 18.9183 33.7741 18.9208 33.6085C18.9208 33.3553 18.9357 33.101 18.9213 32.8478C18.9101 32.651 18.8562 32.4551 18.8321 32.245C18.828 32.1973 18.8301 32.1496 18.8378 32.1019C18.8675 31.9297 18.9675 31.8462 19.151 31.8815C19.1935 31.8872 19.2351 31.8913 19.274 31.9015C19.3996 31.9354 19.5185 32.0389 19.5647 32.1137C19.6574 32.266 19.6887 32.4182 19.7026 32.5843C19.7241 32.7524 19.7256 32.9211 19.7302 33.0974C19.7287 33.3594 19.7277 33.6239 19.7261 33.8879L19.7061 33.8889Z" fill="#2458A4"/>
<path id="Fill 69" fill-rule="evenodd" clip-rule="evenodd" d="M22.4866 37.0612C22.2857 36.0509 22.2729 35.101 22.2841 34.1332C22.2929 33.7816 22.2795 33.4289 22.3129 33.0747C22.3339 32.8476 22.3621 32.6195 22.3995 32.3893C22.4185 32.2745 22.441 32.1581 22.4666 32.0407L22.5128 31.8516C22.5399 31.7639 22.563 31.6753 22.5933 31.5897C22.6978 31.2898 23.0351 31.1462 23.3089 31.0781C23.5252 31.0304 23.7261 31.0073 23.9271 30.9863C24.3264 30.9479 24.717 30.9309 25.1071 30.9202C25.6494 30.9048 26.1918 30.8889 26.7295 30.8735C27.4236 30.8602 28.1058 30.8392 28.8276 31.0601C29.0906 31.1708 28.944 31.2846 28.7528 31.3979C28.558 31.5163 28.2391 31.6701 27.8588 31.6855C26.5157 31.7424 25.1086 31.7696 23.8045 31.9059C23.4975 31.9659 23.4416 31.9346 23.4001 32.03C23.3924 32.0572 23.3893 32.0566 23.3775 32.1084C23.3637 32.1699 23.3499 32.2309 23.3386 32.296C23.3145 32.4237 23.2976 32.5575 23.2817 32.6918C23.2514 32.9609 23.2325 33.2372 23.2145 33.5124C23.1612 34.428 23.1669 35.365 23.2725 36.2718C23.3022 36.5245 23.3458 36.7742 23.3991 37.011C23.4257 37.1299 23.4606 37.2417 23.5001 37.3411C23.5282 37.4072 23.557 37.4698 23.6195 37.5016C23.6446 37.5108 23.6708 37.5185 23.6984 37.52C23.7343 37.5282 23.8563 37.5313 23.9599 37.5375L24.2828 37.5441L24.9369 37.5395C25.3742 37.5298 25.8119 37.5128 26.2461 37.48C26.9217 37.4303 27.5804 37.3191 28.2427 37.2212C28.3888 37.2007 28.5303 37.1689 28.6774 37.1515C29.2218 37.0807 29.4012 37.1417 29.5442 37.3714C29.577 37.4247 29.618 37.477 29.6396 37.5308C29.7134 37.7112 29.5037 37.8958 29.1029 37.9988C27.91 38.2674 26.6408 38.3617 25.3562 38.4043C25.041 38.414 24.7267 38.4197 24.4058 38.4166L23.9173 38.4048L23.7887 38.3976C23.7482 38.3945 23.7092 38.3966 23.6221 38.3792C23.4734 38.3535 23.3237 38.3315 23.1822 38.2838C23.0587 38.1941 22.9311 38.1029 22.8465 37.9691C22.8014 37.906 22.7522 37.846 22.7168 37.7686C22.684 37.7056 22.6655 37.6636 22.645 37.6143C22.563 37.4206 22.5097 37.2427 22.4651 37.0679L22.4866 37.0612Z" fill="#2458A4"/>
<path id="Fill 71" fill-rule="evenodd" clip-rule="evenodd" d="M29.9463 33.7344C29.9273 33.9989 29.9068 34.2654 29.8971 34.5325C29.8935 34.6299 29.9119 34.7252 29.9063 34.8231C29.8868 35.1671 29.8668 35.5177 29.8473 35.8591C29.835 36.0129 29.8427 36.1667 29.8509 36.3189C29.8612 36.5168 29.896 36.7085 29.8176 36.9248C29.7935 36.991 29.6705 36.9658 29.5434 36.9089C29.4183 36.8515 29.2814 36.7752 29.2583 36.6675C29.1891 36.2928 29.1112 35.9012 29.1891 35.4972C29.2255 35.2558 29.1702 35.0102 29.162 34.7657C29.1594 34.4966 29.1569 34.2249 29.1548 33.9548C29.1563 33.7877 29.1584 33.6195 29.161 33.454C29.161 33.2007 29.1763 32.9465 29.1615 32.6933C29.1502 32.4964 29.0964 32.3006 29.0723 32.0904C29.0682 32.0422 29.0707 31.9951 29.0779 31.9474C29.1076 31.7752 29.2076 31.6916 29.3911 31.727C29.4337 31.7326 29.4757 31.7367 29.5141 31.7465C29.6397 31.7808 29.7587 31.8844 29.8048 31.9587C29.8976 32.1114 29.9288 32.2637 29.9427 32.4298C29.9642 32.5979 29.9657 32.7666 29.9704 32.9429C29.9688 33.2048 29.9678 33.4693 29.9663 33.7328L29.9463 33.7344Z" fill="#2458A4"/>
<path id="Fill 73" fill-rule="evenodd" clip-rule="evenodd" d="M32.6548 36.9081C32.4538 35.8973 32.4405 34.9474 32.4523 33.9796C32.461 33.628 32.4477 33.2753 32.481 32.9211C32.502 32.694 32.5302 32.4664 32.5676 32.2362C32.5866 32.1209 32.6091 32.005 32.6348 31.8876L32.6809 31.698C32.7081 31.6108 32.7311 31.5222 32.7614 31.4366C32.866 31.1367 33.2027 30.9931 33.477 30.925C33.6933 30.8773 33.8943 30.8542 34.0952 30.8332C34.4945 30.7943 34.8851 30.7778 35.2752 30.7671C35.8176 30.7512 36.3599 30.7358 36.8976 30.7204C37.5912 30.7066 38.274 30.6861 38.9957 30.907C39.2587 31.0177 39.1121 31.1315 38.9209 31.2448C38.7261 31.3627 38.4073 31.5165 38.0269 31.5319C36.6839 31.5893 35.2768 31.6165 33.9727 31.7523C33.6656 31.8128 33.6092 31.781 33.5682 31.8764C33.5605 31.9041 33.5575 31.9035 33.5457 31.9548C33.5318 32.0163 33.5175 32.0778 33.5067 32.1429C33.4826 32.2701 33.4657 32.4038 33.4498 32.5387C33.4196 32.8078 33.4006 33.0841 33.3827 33.3593C33.3288 34.2749 33.335 35.2119 33.4406 36.1187C33.4744 36.3966 33.5216 36.6718 33.5836 36.9292C33.6692 37.2024 33.6979 37.3567 33.8666 37.3669C33.9025 37.3751 34.0245 37.3782 34.128 37.3838L34.4504 37.3905L35.105 37.3859C35.5423 37.3767 35.9801 37.3592 36.4142 37.3264C37.0899 37.2772 37.7486 37.166 38.4109 37.0681C38.5564 37.0471 38.6979 37.0158 38.8455 36.9984C39.3899 36.9276 39.5688 36.9886 39.7124 37.2183C39.7447 37.2716 39.7862 37.3233 39.8077 37.3772C39.881 37.5581 39.6719 37.7427 39.271 37.8457C38.0782 38.1143 36.8084 38.2086 35.5238 38.2512C35.044 38.2645 34.5719 38.2732 34.0655 38.2507L33.863 38.2389L33.5247 38.1794C33.2971 38.1415 33.1223 37.9728 32.9941 37.7878C32.8393 37.5715 32.8085 37.4443 32.7532 37.308C32.7035 37.1721 32.6655 37.0424 32.6332 36.9148L32.6548 36.9081Z" fill="#2458A4"/>
<path id="Fill 75" fill-rule="evenodd" clip-rule="evenodd" d="M40.1142 33.5813C40.0953 33.8458 40.0748 34.1123 40.065 34.3794C40.0614 34.4768 40.0799 34.5722 40.0743 34.6701C40.0548 35.0135 40.0348 35.3647 40.0153 35.706C40.003 35.8598 40.0107 36.0136 40.0189 36.1659C40.0291 36.3632 40.064 36.5554 39.9856 36.7718C39.9615 36.8379 39.8379 36.8128 39.7113 36.7554C39.5862 36.6979 39.4494 36.6221 39.4263 36.5144C39.3571 36.1397 39.2792 35.7481 39.3571 35.3436C39.3935 35.1022 39.3381 34.8572 39.3299 34.6121C39.3274 34.3435 39.3248 34.0719 39.3223 33.8017C39.3243 33.6346 39.3264 33.4665 39.3289 33.3009C39.3289 33.0477 39.3443 32.7929 39.3294 32.5402C39.3182 32.3433 39.2643 32.1475 39.2402 31.9373C39.2361 31.8892 39.2387 31.842 39.2459 31.7943C39.2756 31.6221 39.3756 31.5385 39.5591 31.5739C39.6016 31.5795 39.6437 31.5836 39.6821 31.5934C39.8077 31.6277 39.9266 31.7313 39.9728 31.8056C40.0655 31.9584 40.0968 32.1106 40.1106 32.2767C40.1322 32.4448 40.1337 32.6135 40.1383 32.7898C40.1368 33.0512 40.1358 33.3163 40.1342 33.5797L40.1142 33.5813Z" fill="#2458A4"/>
<path id="Fill 77" fill-rule="evenodd" clip-rule="evenodd" d="M12.4868 51.0295C12.2859 50.0191 12.2725 49.0687 12.2843 48.1009C12.293 47.7498 12.2797 47.3971 12.313 47.0424C12.334 46.8153 12.3622 46.5877 12.3997 46.3576C12.4186 46.2427 12.4412 46.1264 12.4663 46.009L12.5124 45.8198C12.5401 45.7322 12.5632 45.6435 12.5934 45.5579C12.698 45.258 13.0348 45.1145 13.309 45.0463C13.5253 44.9986 13.7258 44.9756 13.9272 44.9545C14.3266 44.9161 14.7172 44.8992 15.1073 44.8884C15.6491 44.873 16.1919 44.8572 16.7297 44.8418C17.4232 44.8279 18.1055 44.8074 18.8278 45.0284C19.0907 45.1391 18.9441 45.2529 18.7529 45.3662C18.5581 45.4846 18.2388 45.6379 17.8589 45.6537C16.5159 45.7106 15.1088 45.7378 13.8047 45.8742C13.4977 45.9341 13.4413 45.9029 13.4003 45.9977C13.3921 46.0254 13.3895 46.0249 13.3777 46.0766C13.3639 46.1382 13.3495 46.1992 13.3388 46.2643C13.3147 46.3919 13.2977 46.5252 13.2819 46.66C13.2516 46.9291 13.2326 47.2054 13.2147 47.4807C13.1609 48.3962 13.167 49.3333 13.2726 50.2401C13.3024 50.4928 13.3459 50.7424 13.3992 50.9792C13.4259 51.0982 13.4608 51.2099 13.4997 51.3094C13.5279 51.375 13.5571 51.438 13.6192 51.4693C13.6448 51.479 13.6709 51.4867 13.6986 51.4883C13.7345 51.4965 13.8565 51.4995 13.96 51.5057L14.2825 51.5118L14.9371 51.5077C15.3743 51.498 15.8121 51.4811 16.2463 51.4483C16.9219 51.3986 17.5801 51.2873 18.2424 51.1894C18.3885 51.1689 18.5299 51.1371 18.6776 51.1197C19.222 51.049 19.4009 51.11 19.5444 51.3396C19.5767 51.3929 19.6182 51.4447 19.6397 51.499C19.713 51.6795 19.5039 51.864 19.103 51.967C17.9102 52.2356 16.6405 52.33 15.3559 52.3725C15.0411 52.3822 14.7269 52.3879 14.406 52.3848L13.917 52.373L13.7888 52.3658C13.7483 52.3628 13.7089 52.3648 13.6222 52.3474C13.4731 52.3212 13.3234 52.2997 13.1819 52.252C13.0589 52.1623 12.9312 52.0711 12.8466 51.9373C12.8015 51.8743 12.7518 51.8143 12.717 51.7364C12.6842 51.6738 12.6652 51.6318 12.6452 51.5826C12.5632 51.3888 12.5099 51.2109 12.4653 51.0361L12.4868 51.0295Z" fill="#2458A4"/>
<path id="Fill 79" fill-rule="evenodd" clip-rule="evenodd" d="M19.9464 47.7024C19.9274 47.9669 19.9069 48.2334 19.8972 48.5005C19.8936 48.5979 19.912 48.6933 19.9064 48.7912C19.8869 49.1346 19.8669 49.4857 19.8474 49.8271C19.8351 49.9809 19.8428 50.1347 19.851 50.287C19.8613 50.4848 19.8961 50.6765 19.8177 50.8929C19.7936 50.959 19.6701 50.9339 19.5435 50.8765C19.4184 50.819 19.281 50.7432 19.2585 50.6355C19.1887 50.2608 19.1108 49.8692 19.1893 49.4652C19.2257 49.2238 19.1703 48.9783 19.1621 48.7332C19.1595 48.4646 19.157 48.1929 19.1544 47.9228C19.1565 47.7557 19.1585 47.5876 19.1611 47.422C19.1611 47.1688 19.1759 46.9145 19.1616 46.6613C19.1503 46.4644 19.0965 46.2686 19.0724 46.0584C19.0683 46.0103 19.0703 45.9631 19.078 45.9154C19.1078 45.7432 19.2077 45.6596 19.3912 45.695C19.4338 45.7006 19.4753 45.7047 19.5143 45.7145C19.6393 45.7488 19.7588 45.8524 19.8049 45.9267C19.8977 46.0795 19.929 46.2317 19.9428 46.3978C19.9638 46.5659 19.9659 46.7346 19.9705 46.9109C19.9689 47.1729 19.9679 47.4374 19.9664 47.7008L19.9464 47.7024Z" fill="#2458A4"/>
<path id="Fill 81" fill-rule="evenodd" clip-rule="evenodd" d="M22.727 50.8749C22.5261 49.8646 22.5128 48.9142 22.5246 47.9469C22.5333 47.5948 22.5199 47.2426 22.5533 46.8879C22.5743 46.6608 22.6025 46.4332 22.6399 46.203C22.6589 46.0882 22.6814 45.9718 22.707 45.8544L22.7532 45.6653C22.7803 45.5776 22.8034 45.489 22.8337 45.4033C22.9382 45.1035 23.275 44.9599 23.5493 44.8918C23.7656 44.8441 23.9665 44.821 24.1675 44.8C24.5668 44.7616 24.9574 44.7446 25.3475 44.7339C25.8898 44.7185 26.4322 44.7026 26.9699 44.6872C27.664 44.6734 28.3462 44.6529 29.068 44.8738C29.331 44.9845 29.1844 45.0983 28.9932 45.2116C28.7984 45.33 28.4795 45.4833 28.0992 45.4992C26.7561 45.5561 25.349 45.5833 24.0449 45.7196C23.7379 45.7796 23.6815 45.7483 23.6405 45.8432C23.6328 45.8708 23.6297 45.8703 23.6179 45.9221C23.6041 45.9836 23.5903 46.0446 23.579 46.1097C23.5549 46.2374 23.538 46.3706 23.5221 46.5055C23.4918 46.7746 23.4729 47.0509 23.4549 47.3261C23.4011 48.2417 23.4073 49.1787 23.5129 50.0855C23.5426 50.3382 23.5862 50.5879 23.6395 50.8247C23.6661 50.9436 23.701 51.0554 23.7405 51.1548C23.7687 51.2204 23.7974 51.2835 23.8599 51.3148C23.885 51.3245 23.9112 51.3322 23.9388 51.3337C23.9747 51.3419 24.0967 51.345 24.2003 51.3506L24.5227 51.3578L25.1773 51.3532C25.6146 51.3435 26.0523 51.3265 26.4865 51.2937C27.1621 51.244 27.8208 51.1328 28.4831 51.0349C28.6287 51.0144 28.7702 50.9826 28.9178 50.9652C29.4622 50.8944 29.6411 50.9554 29.7846 51.1851C29.8174 51.2384 29.8584 51.2901 29.88 51.3445C29.9538 51.5249 29.7441 51.7095 29.3433 51.8125C28.1504 52.0811 26.8812 52.1754 25.5961 52.218C25.2814 52.2277 24.9671 52.2333 24.6462 52.2303L24.1572 52.2185L24.0291 52.2113C23.9886 52.2082 23.9496 52.2103 23.8625 52.1929C23.7133 52.1667 23.5641 52.1452 23.4221 52.0975C23.2991 52.0078 23.1715 51.9166 23.0869 51.7828C23.0418 51.7197 22.9926 51.6597 22.9572 51.5818C22.9244 51.5193 22.9059 51.4772 22.8854 51.428C22.8034 51.2343 22.7501 51.0564 22.7055 50.8816L22.727 50.8749Z" fill="#2458A4"/>
<path id="Fill 83" fill-rule="evenodd" clip-rule="evenodd" d="M30.1875 47.5481C30.1685 47.8126 30.148 48.0791 30.1383 48.3462C30.1347 48.4436 30.1531 48.539 30.1475 48.6369C30.128 48.9803 30.108 49.3314 30.0885 49.6728C30.0762 49.8266 30.0839 49.9804 30.0921 50.1327C30.1024 50.33 30.1372 50.5222 30.0588 50.7386C30.0347 50.8047 29.9112 50.7796 29.7846 50.7222C29.6595 50.6647 29.5226 50.5889 29.4996 50.4812C29.4304 50.1065 29.3524 49.7149 29.4304 49.3109C29.4668 49.0695 29.4114 48.824 29.4032 48.5789C29.4006 48.3103 29.3981 48.0386 29.396 47.7685C29.3975 47.6014 29.3996 47.4333 29.4022 47.2677C29.4022 47.0145 29.4175 46.7602 29.4027 46.507C29.3914 46.3101 29.3376 46.1143 29.3135 45.9041C29.3094 45.856 29.3119 45.8088 29.3191 45.7611C29.3489 45.5889 29.4488 45.5053 29.6323 45.5407C29.6749 45.5463 29.7169 45.5504 29.7553 45.5602C29.8809 45.5945 29.9999 45.6981 30.046 45.7724C30.1388 45.9252 30.17 46.0774 30.1839 46.2435C30.2054 46.4116 30.207 46.5803 30.2116 46.7566C30.21 47.018 30.209 47.2831 30.2075 47.5465L30.1875 47.5481Z" fill="#2458A4"/>
<path id="Fill 85" fill-rule="evenodd" clip-rule="evenodd" d="M32.895 50.7216C32.6941 49.7113 32.6807 48.7614 32.6925 47.7936C32.7012 47.442 32.6879 47.0893 32.7212 46.7351C32.7422 46.508 32.7704 46.2799 32.8079 46.0497C32.8268 45.9349 32.8494 45.8185 32.8745 45.7011L32.9206 45.512C32.9483 45.4243 32.9714 45.3357 33.0016 45.2501C33.1062 44.9502 33.443 44.8066 33.7172 44.7385C33.9335 44.6908 34.1345 44.6677 34.3354 44.6467C34.7348 44.6083 35.1254 44.5913 35.5155 44.5811C36.0573 44.5652 36.6001 44.5493 37.1379 44.5339C37.8314 44.5206 38.5142 44.4996 39.2355 44.7205C39.4989 44.8313 39.3523 44.945 39.1611 45.0583C38.9663 45.1767 38.6475 45.3305 38.2671 45.3459C36.9241 45.4028 35.517 45.43 34.2129 45.5663C33.9059 45.6263 33.8495 45.595 33.8085 45.6904C33.8008 45.7176 33.7977 45.717 33.7859 45.7688C33.7721 45.8303 33.7577 45.8913 33.747 45.9564C33.7229 46.0841 33.7059 46.2179 33.6901 46.3522C33.6598 46.6213 33.6408 46.8976 33.6229 47.1728C33.5691 48.0884 33.5752 49.0254 33.6808 49.9322C33.7106 50.1854 33.7541 50.4346 33.8074 50.6714C33.8341 50.7903 33.869 50.9021 33.9084 51.0015C33.9361 51.0676 33.9653 51.1302 34.0274 51.162C34.053 51.1712 34.0791 51.1789 34.1063 51.1804C34.1427 51.1886 34.2647 51.1917 34.3682 51.1979L34.6907 51.2045L35.3453 51.1999C35.7825 51.1902 36.2203 51.1732 36.6545 51.1404C37.3301 51.0907 37.9888 50.9795 38.6511 50.8816C38.7967 50.8611 38.9381 50.8293 39.0853 50.8119C39.6302 50.7411 39.8091 50.8021 39.9526 51.0318C39.9849 51.0851 40.0264 51.1374 40.0479 51.1912C40.1212 51.3716 39.9121 51.5562 39.5107 51.6592C38.3184 51.9278 37.0487 52.0221 35.7641 52.0647C35.4493 52.0744 35.1351 52.0801 34.8142 52.077L34.3252 52.0652L34.197 52.058C34.1565 52.0549 34.1171 52.057 34.0304 52.0396C33.8813 52.0139 33.7316 51.9919 33.5901 51.9442C33.4671 51.8545 33.3394 51.7633 33.2549 51.6295C33.2092 51.5664 33.1605 51.5064 33.1252 51.429C33.0924 51.366 33.0734 51.324 33.0534 51.2747C32.9714 51.081 32.9181 50.9031 32.8735 50.7283L32.895 50.7216Z" fill="#2458A4"/>
<path id="Fill 87" fill-rule="evenodd" clip-rule="evenodd" d="M40.3543 47.3945C40.3359 47.659 40.3154 47.9256 40.3056 48.1927C40.3015 48.29 40.3205 48.3854 40.3148 48.4833C40.2949 48.8273 40.2749 49.1779 40.2559 49.5193C40.2431 49.6731 40.2508 49.8268 40.259 49.9791C40.2692 50.177 40.3046 50.3687 40.2257 50.585C40.2016 50.6511 40.0785 50.626 39.9519 50.5691C39.8268 50.5117 39.6895 50.4353 39.6664 50.3277C39.5972 49.9529 39.5193 49.5613 39.5972 49.1574C39.6336 48.9159 39.5782 48.6704 39.5705 48.4259C39.568 48.1568 39.5654 47.8851 39.5629 47.6149C39.5649 47.4478 39.567 47.2797 39.569 47.1141C39.569 46.8609 39.5844 46.6066 39.57 46.3534C39.5582 46.1566 39.5044 45.9608 39.4808 45.7511C39.4762 45.7024 39.4788 45.6552 39.486 45.6076C39.5162 45.4353 39.6162 45.3518 39.7997 45.3871C39.8422 45.3928 39.8837 45.3969 39.9222 45.4071C40.0478 45.441 40.1667 45.5445 40.2128 45.6194C40.3056 45.7716 40.3369 45.9238 40.3507 46.0899C40.3723 46.2581 40.3738 46.4267 40.3789 46.6031C40.3774 46.865 40.3758 47.1295 40.3743 47.393L40.3543 47.3945Z" fill="#2458A4"/>
<path id="Fill 89" fill-rule="evenodd" clip-rule="evenodd" d="M15.4553 19.2041C15.5019 19.1416 15.5342 19.0647 15.6137 19.0355C15.6659 18.9709 15.7377 18.955 15.8182 18.9396C15.972 18.9042 16.1611 18.9201 16.3282 18.9242L16.8926 18.9657C17.2637 18.9934 17.6328 19.0196 17.9937 19.0293C18.1136 19.0314 18.2331 19.0278 18.3464 19.0196L18.4289 19.0119L18.453 19.0093C18.4673 19.0067 18.4827 19.0057 18.4981 19.0016L18.514 18.998C18.5412 18.9827 18.5494 18.9509 18.5601 18.9211C18.5627 18.9186 18.5735 18.8586 18.5786 18.8058L18.594 18.6443C18.6078 18.4234 18.6083 18.1927 18.5981 17.9626C18.575 17.5053 18.5242 17.0271 18.3976 16.6165C18.3653 16.5242 18.3607 16.5103 18.331 16.4606C18.3079 16.4165 18.2608 16.394 18.2121 16.3996L17.9368 16.4001L17.5974 16.4109C17.0577 16.435 16.5148 16.5068 15.9709 16.4437C15.6311 16.4058 16.0314 15.6481 16.663 15.6225C16.9321 15.6117 17.2012 15.6046 17.4719 15.603L17.8804 15.6051L18.0885 15.6107L18.4135 15.6292C18.6842 15.6671 18.9067 15.8629 19.0164 16.1197C19.0861 16.2602 19.1091 16.3432 19.1322 16.4217C19.1568 16.5047 19.1753 16.5842 19.1917 16.6631C19.2568 16.9784 19.285 17.2823 19.2962 17.5884C19.307 17.8985 19.3219 18.2091 19.3208 18.531C19.3183 18.7012 19.3183 18.8361 19.2891 19.0513C19.2552 19.2994 19.1701 19.5573 18.9471 19.6644C18.8185 19.7059 18.6944 19.747 18.5545 19.7562C18.1024 19.7905 17.7538 19.7613 17.3627 19.7439L16.2724 19.6721C16.2206 19.6706 16.1637 19.6567 16.1104 19.6706C16.075 19.7111 16.0663 19.7669 16.0514 19.8203C16.0427 19.8515 16.0207 19.9899 16.0104 20.093C15.9996 20.2022 15.9904 20.3134 15.9863 20.4241C15.9735 20.7599 15.9822 21.1013 16.0371 21.4237C16.0894 21.7369 16.2134 22.0747 16.3913 22.1121C16.42 22.1219 16.4502 22.1203 16.4789 22.1203C16.9526 22.0988 17.4462 22.0552 17.924 22.0235L18.2736 21.9963C18.7113 21.9789 18.8354 22.0224 18.941 22.2172C18.9646 22.2613 18.9979 22.3033 19.0199 22.3474C19.1055 22.4956 18.8836 22.6627 18.5627 22.7098C17.8702 22.8185 17.2007 22.8457 16.461 22.8708C16.1647 22.881 15.8776 22.736 15.6849 22.5074C15.5122 22.2931 15.4445 22.1101 15.382 21.9271C15.2446 21.4785 15.2189 21.0685 15.2148 20.6574C15.2148 20.4523 15.2236 20.2493 15.2435 20.0432C15.2559 19.9269 15.2615 19.8654 15.2876 19.7003C15.3215 19.5214 15.3579 19.3374 15.4389 19.1928L15.4553 19.2041Z" fill="#2458A4"/>
<path id="Fill 91" fill-rule="evenodd" clip-rule="evenodd" d="M22.1824 21.9306C22.5023 21.9286 22.8293 21.9111 23.1512 21.8819L23.5828 21.8322C23.6105 21.8312 23.6592 21.8337 23.6572 21.7927L23.6741 21.7127C23.6792 21.6887 23.6849 21.662 23.6925 21.5959L23.7356 21.2637C23.7684 20.9454 23.7694 20.6245 23.7838 20.3036C23.8289 19.1728 23.7884 18.0097 23.5849 16.9014C23.5546 16.7502 23.4988 16.54 23.4767 16.4939C23.4685 16.4503 23.4296 16.4267 23.3906 16.4144C23.3455 16.4021 23.3276 16.397 23.2353 16.3842C23.0846 16.3596 22.9206 16.3519 22.7606 16.3462C22.4469 16.3396 22.1286 16.3652 21.8225 16.4042C21.6698 16.4231 21.5211 16.4493 21.3817 16.478C21.2535 16.5057 21.1023 16.5549 21.0711 16.5723C21.0629 16.5682 21.0044 16.5385 20.9239 16.5364C20.8563 16.5308 20.7512 16.4698 20.7543 16.3022C20.7855 15.9654 21.1843 15.6404 21.596 15.5855C21.9912 15.5281 22.369 15.5179 22.7534 15.5353C22.9472 15.5481 23.1374 15.5625 23.3445 15.6004C23.4029 15.6137 23.4316 15.6106 23.5218 15.6394L23.7689 15.7183C23.835 15.7685 23.9119 15.8049 23.9678 15.8654C24.0011 15.8905 24.0119 15.9382 24.0637 15.9449L24.1324 16.0464C24.2697 16.3837 24.2738 16.501 24.3159 16.6794C24.3482 16.8476 24.3758 17.0137 24.3948 17.1782C24.4389 17.5083 24.4584 17.8359 24.4727 18.164C24.4978 18.9939 24.5717 19.8499 24.5235 20.7003C24.5127 20.9233 24.4907 21.1463 24.4686 21.3688L24.4271 21.703L24.3584 22.1377C24.3189 22.213 24.3128 22.3099 24.2477 22.3679C24.1944 22.4371 24.1062 22.4663 24.0206 22.4975C23.9314 22.5237 23.8386 22.5432 23.7448 22.5606L23.5464 22.5898C23.3009 22.6221 23.0584 22.6442 22.8155 22.6606C22.5356 22.679 22.2552 22.6887 21.9712 22.6857C21.8287 22.6831 21.6852 22.6775 21.537 22.6631C21.414 22.6498 21.15 22.6211 21.0024 22.5078C20.9875 22.495 20.9783 22.4776 20.966 22.4632C20.8645 22.353 20.8091 22.1828 20.7655 22.0623C20.7379 21.9506 20.7086 21.8373 20.6928 21.7291C20.6517 21.5103 20.6266 21.295 20.6025 21.0797C20.5544 20.6491 20.5272 20.2221 20.4969 19.7971C20.4529 19.1369 20.3872 18.4905 20.3703 17.8297C20.3657 17.6847 20.3565 17.5416 20.3621 17.394C20.3785 16.8471 20.4626 16.6692 20.6794 16.5831C20.7292 16.5636 20.7794 16.5364 20.8271 16.5282C20.9937 16.5067 21.0823 16.7292 21.1003 17.107C21.1562 18.2332 21.2079 19.4419 21.3171 20.6291C21.3433 20.9003 21.3755 21.1684 21.4145 21.4288C21.4386 21.5533 21.4576 21.6876 21.4878 21.7937L21.5063 21.8711L21.5058 21.8742L21.5063 21.8804C21.5083 21.8829 21.5068 21.884 21.5145 21.8865C21.5196 21.8886 21.6339 21.9019 21.6975 21.905C21.8507 21.9142 22.0153 21.9152 22.1809 21.9116L22.1824 21.9306Z" fill="#2458A4"/>
<path id="Fill 93" fill-rule="evenodd" clip-rule="evenodd" d="M30.5598 18.7674C30.3122 19.0503 30.0641 19.3338 29.817 19.6157C29.7278 19.7203 29.6545 19.8372 29.5648 19.9413C29.2419 20.3042 28.9158 20.6707 28.5944 21.0321C28.453 21.1956 28.3233 21.3694 28.1982 21.5437C28.0424 21.7713 27.887 22.0025 27.6543 22.169C27.5825 22.2213 27.4913 22.1321 27.4334 21.9927C27.377 21.8538 27.3447 21.6585 27.4257 21.5226C27.7409 21.0644 28.0993 20.6379 28.5006 20.2345C28.7426 19.9946 28.9297 19.6952 29.1506 19.4281L29.8903 18.5536L30.3522 18.0205C30.5839 17.7498 30.8284 17.4879 31.0514 17.2126C31.2262 17.0004 31.3707 16.7677 31.5342 16.5462C31.5701 16.497 31.6004 16.4447 31.6439 16.4022C31.7941 16.2341 31.8946 16.2305 32.0392 16.3038C32.072 16.3202 32.1063 16.333 32.134 16.3515C32.2201 16.4058 32.2504 16.5606 32.1786 16.7128C31.9556 17.1568 31.624 17.5264 31.3046 17.9175C31.0616 18.203 30.8166 18.4906 30.5731 18.7776L30.5598 18.7674Z" fill="#2458A4"/>
<path id="Fill 95" fill-rule="evenodd" clip-rule="evenodd" d="M29.262 17.1832C29.2733 17.5436 28.9842 17.8332 28.7535 17.8988C28.6689 17.9316 28.5921 17.9613 28.5085 17.9793C28.1825 18.0331 27.8221 17.8614 27.6847 17.5774C27.6212 17.4554 27.5802 17.3185 27.5843 17.176C27.5838 16.9971 27.6658 16.7957 27.8278 16.7306C27.878 16.707 27.9467 16.8172 28.0097 16.9305C28.0682 17.0453 28.144 17.1509 28.1384 17.1683C28.1328 17.2293 28.1102 17.2668 28.1763 17.3929C28.225 17.4656 28.3188 17.4441 28.4198 17.4118C28.5454 17.3831 28.6197 17.3354 28.6423 17.275C28.6638 17.2386 28.6607 17.1791 28.6351 17.135C28.5951 17.0622 28.5464 17.0325 28.4824 17.0827C28.427 17.1155 28.4039 17.2257 28.3798 17.3149C28.3727 17.3324 28.3762 17.3616 28.3696 17.3826C28.3445 17.4631 28.2937 17.4703 28.1287 17.4334L28.0159 17.4087C27.8903 17.377 27.8067 17.3001 27.8042 17.2017C27.7949 17.0586 27.8339 16.9043 27.9313 16.7485C28.0241 16.5958 28.243 16.4117 28.5557 16.4174C28.7889 16.4245 28.9791 16.5486 29.0975 16.6906C29.2077 16.8372 29.2759 17.0038 29.2774 17.1817L29.262 17.1832Z" fill="#2458A4"/>
<path id="Fill 97" fill-rule="evenodd" clip-rule="evenodd" d="M32.4373 20.7858C32.4152 20.9781 32.3153 21.1636 32.1892 21.2661C32.0651 21.3789 31.9324 21.4291 31.8145 21.4594C31.7243 21.4819 31.6433 21.5091 31.5418 21.504C31.3726 21.5004 31.1532 21.4143 31.0343 21.2574C30.9118 21.1031 30.8861 20.9324 30.8938 20.7894C30.9025 20.6618 30.921 20.5418 30.9615 20.4249C31.0092 20.2809 31.1066 20.1107 31.2834 20.0846C31.3377 20.0748 31.3905 20.2127 31.4444 20.3506C31.4946 20.489 31.5725 20.6146 31.572 20.6274C31.5546 20.6833 31.5459 20.7597 31.4879 20.794C31.4428 20.8381 31.4638 20.7951 31.5223 20.7986C31.6022 20.7894 31.6699 20.771 31.6879 20.7663C31.7002 20.7633 31.7166 20.7464 31.7078 20.7171C31.7017 20.6736 31.6397 20.6085 31.5479 20.6203C31.4756 20.6279 31.4162 20.7007 31.3582 20.7571C31.3459 20.7689 31.3306 20.7838 31.3198 20.794C31.2639 20.832 31.2193 20.7966 31.0984 20.6479L31.0158 20.5475C30.9256 20.4331 30.8918 20.3106 30.941 20.222C31.0707 19.9595 31.4387 19.7821 31.875 19.9252C32.1907 20.0251 32.486 20.3696 32.4557 20.7858H32.4373Z" fill="#2458A4"/>
<path id="Fill 99" fill-rule="evenodd" clip-rule="evenodd" d="M5.34563 41.4291C5.2303 39.3361 5.13136 37.2431 5.04883 35.1496C5.01961 34.3853 4.93555 33.6257 4.91914 32.8614C4.84994 30.1671 4.80893 27.4728 4.85097 24.776C4.84943 23.579 4.8484 22.3765 4.84738 21.1887C4.84635 20.425 4.86532 19.6571 4.88582 18.8907C4.91709 18.1254 5.08164 17.3575 5.21492 16.6035C5.31078 16.1324 5.503 16.2241 5.70292 16.647C5.90233 17.0725 6.13454 17.8173 6.17657 18.6775C6.11608 21.7331 6.20938 24.8185 6.17452 27.9352C6.14069 29.8016 6.32472 31.7377 6.42262 33.6436C6.53642 35.7397 6.65791 37.8372 6.79632 39.9338C6.89269 41.2235 6.97368 42.5153 7.08697 43.8025C7.25408 45.7535 7.41093 47.7157 7.66057 49.6426C7.85485 51.1405 8.15575 52.5963 8.44487 54.0541C8.51048 54.3745 8.59045 54.6852 8.64735 55.0091C8.76063 55.6073 8.79549 55.9898 8.75961 56.2825C8.7391 56.4388 8.70681 56.5265 8.6535 56.6156C8.59762 56.7079 8.52278 56.7997 8.4341 56.8981C8.35311 56.9878 8.28288 57.1031 8.20548 57.1805C8.07374 57.3102 7.9138 57.2887 7.70415 57.0749C7.60265 56.9791 7.47911 56.7869 7.40273 56.6269C7.32277 56.4629 7.24536 56.2671 7.17411 56.0431C6.41135 53.3934 6.10378 50.5904 5.81006 47.7593C5.59989 45.6586 5.45379 43.5446 5.30667 41.4353L5.34563 41.4291Z" fill="#2458A4"/>
</g>
</svg>
