<svg width="69" height="61" viewBox="0 0 69 61" fill="none" xmlns="http://www.w3.org/2000/svg">
<g id="Icon">
<path id="Fill 1" fill-rule="evenodd" clip-rule="evenodd" d="M2.19574 55.1056C2.15066 55.1651 2.105 55.2235 2.0576 55.2807C2.03738 55.305 2.01599 55.3292 1.99519 55.3529C1.9842 55.3656 1.9108 55.45 1.96687 55.3853C2.02408 55.32 1.94086 55.4113 1.9293 55.4229C1.90965 55.4425 1.89 55.4616 1.86977 55.4807C1.83162 55.5171 1.79232 55.5523 1.75244 55.587C1.60391 55.7153 1.44439 55.8286 1.28546 55.9442C0.868174 56.247 0.50753 56.6025 0.204681 57.0221C0.14573 57.1036 0.132437 57.2082 0.204103 57.2862C0.282127 57.3723 0.454358 57.3966 0.559546 57.396C0.856036 57.3948 1.2502 57.2943 1.43515 57.0382C1.523 56.9175 1.61431 56.799 1.71314 56.6869C1.72355 56.6747 1.73453 56.6626 1.74493 56.6504C1.78076 56.6111 1.77325 56.6198 1.72239 56.6747C1.74493 56.6614 1.76632 56.6291 1.78481 56.6106C1.82411 56.5707 1.86515 56.532 1.90676 56.4938C2.05587 56.3574 2.21828 56.2366 2.38184 56.1181C2.77774 55.8315 3.13029 55.5148 3.4262 55.1223C3.48689 55.042 3.49729 54.9345 3.42678 54.8576C3.34876 54.7721 3.17652 54.7472 3.07134 54.7478C2.76964 54.749 2.38762 54.8518 2.19574 55.1056Z" fill="#2458A4"/>
<path id="Fill 3" fill-rule="evenodd" clip-rule="evenodd" d="M4.34399 43.0565C3.71344 43.8928 2.88581 44.5574 2.18764 45.3336C1.98651 45.5567 2.36334 45.6058 2.51476 45.5954C2.69219 45.5833 2.87252 45.5469 3.03781 45.481C3.16727 45.4295 3.3135 45.37 3.40886 45.2642C4.10703 44.4881 4.93466 43.8234 5.56521 42.9871C5.61491 42.9212 5.65941 42.8524 5.5837 42.7854C5.50741 42.7172 5.32536 42.7195 5.23751 42.7253C5.06065 42.7374 4.88033 42.7738 4.71504 42.8397C4.59193 42.8883 4.42606 42.9478 4.34399 43.0565Z" fill="#2458A4"/>
<path id="Fill 5" fill-rule="evenodd" clip-rule="evenodd" d="M3.42406 49.5081C2.93684 50.086 2.33808 50.5594 1.77746 51.0622C1.72371 51.1107 1.70348 51.1876 1.76186 51.239C1.82832 51.2986 1.98784 51.2968 2.06413 51.2916C2.33808 51.2726 2.63862 51.1888 2.8461 51.0021C3.40672 50.4987 4.00606 50.0253 4.49269 49.4474C4.53951 49.3925 4.57245 49.3277 4.50888 49.2705C4.44183 49.211 4.28232 49.2127 4.20603 49.2185C4.05056 49.2289 3.89336 49.2607 3.74887 49.3179C3.63732 49.363 3.50324 49.4139 3.42406 49.5081Z" fill="#2458A4"/>
<path id="Stroke 7" fill-rule="evenodd" clip-rule="evenodd" d="M51.808 1.69439C51.9416 1.1748 52.4004 0.883515 52.8328 1.04419C54.9741 1.84234 51.111 4.40153 51.808 1.69439Z" stroke="#2458A4" stroke-width="1.25"/>
<path id="Stroke 9" fill-rule="evenodd" clip-rule="evenodd" d="M54.462 9.6652C54.5827 9.19533 54.9971 8.93236 55.3878 9.078C57.3228 9.79871 53.832 12.1111 54.462 9.6652Z" stroke="#2458A4" stroke-width="1.1"/>
<path id="Stroke 11" fill-rule="evenodd" clip-rule="evenodd" d="M25.9364 4.17839C26.0572 3.70851 26.4722 3.44554 26.8623 3.59118C28.7973 4.31189 25.307 6.62429 25.9364 4.17839Z" stroke="#2458A4" stroke-width="1.1"/>
<path id="Fill 13" fill-rule="evenodd" clip-rule="evenodd" d="M41.435 13.4364C41.5691 12.9162 42.0274 12.6255 42.4597 12.7862C44.6016 13.5838 40.738 16.1429 41.435 13.4364Z" fill="#2458A4"/>
<path id="Fill 15" fill-rule="evenodd" clip-rule="evenodd" d="M41.0777 60.7801C37.7365 60.9604 34.3919 61.0228 31.0496 60.9927C29.8301 60.9783 28.6106 60.9835 27.3929 60.9326C23.0987 60.7806 18.812 60.457 14.5484 59.9432C12.6556 59.7328 10.7547 59.4635 8.88965 59.1548C6.49287 58.7584 4.09436 58.3076 1.73862 57.7296C0.270033 57.3661 2.25415 57.2765 4.99019 57.8013C7.41529 58.2688 9.84617 58.6896 12.2926 59.019C14.7414 59.3346 17.2064 59.6074 19.6876 59.8189C22.6548 60.083 25.7567 60.1842 28.8037 60.235C32.1541 60.2963 35.5085 60.2634 38.8572 60.1166C40.9187 60.0333 42.978 59.8883 45.0321 59.7132C48.1414 59.4248 51.2595 59.0358 54.3007 58.448C54.4845 58.4139 54.6683 58.3792 54.8469 58.3463L54.848 58.3457L54.8816 58.3417C55.3266 58.2873 55.8334 58.0001 56.2848 57.7285C56.7472 57.4533 57.1905 57.1332 57.6274 56.8107C58.4996 56.1593 59.3364 55.46 60.16 54.7404C60.5542 54.3983 60.927 54.048 61.3165 53.6938C62.7539 52.3737 63.2029 51.9593 63.6607 51.8154C63.7641 51.7819 63.889 51.7252 63.967 51.7195C64.2271 51.6929 63.8011 52.4165 62.7747 53.4481C61.6899 54.5376 60.5316 55.5894 59.2914 56.5893C58.6718 57.0898 58.0326 57.577 57.3488 58.0313C57.0102 58.2619 56.657 58.4792 56.2773 58.6803C56.0854 58.7798 55.8988 58.8815 55.6734 58.9612C55.478 59.0537 55.2006 59.1138 54.9249 59.1543L55.0029 59.1444C53.7413 59.3774 52.4594 59.6161 51.1688 59.797C47.8294 60.2923 44.4535 60.5997 41.0829 60.7991L41.0777 60.7801Z" fill="#2458A4"/>
<path id="Fill 18" fill-rule="evenodd" clip-rule="evenodd" d="M38.5893 25.0952C35.0701 24.8784 31.6093 24.3929 28.1607 23.8578C26.9025 23.6601 25.6419 23.485 24.3907 23.2625C22.1846 22.8724 19.982 22.4406 17.7922 22.0124L17.4945 21.9546C17.4483 21.9528 17.3795 21.9083 17.3546 21.969L16.9489 22.4481L15.8624 23.7295L13.6736 26.2771C12.3715 27.7798 11.063 29.29 9.7713 30.7811C8.9402 31.7393 8.08194 32.6797 7.19651 33.5975C6.74802 34.0523 6.29606 34.5043 5.81635 34.9337C5.34416 35.3683 4.84077 35.7816 4.25472 36.1139C3.84957 36.3138 3.63862 36.3214 3.63284 36.2422C3.61781 36.1566 3.77328 35.9746 3.97152 35.7174C4.35644 35.1435 5.03265 34.1373 6.02153 33.0929C9.48348 29.3368 12.8761 25.4396 16.2814 21.5182L16.5155 21.2437C16.5709 21.1801 16.6235 21.1096 16.6807 21.0524L16.8668 20.9166L16.9587 20.8478C16.9541 20.8327 17.0108 20.9743 16.9882 20.9137L16.9911 20.9131L16.998 20.9114L17.0108 20.9073L17.0362 20.8998L17.0894 20.8853C17.1628 20.8709 17.2281 20.8356 17.3084 20.8391C17.4633 20.8564 17.6598 20.8622 17.7794 20.8923C18.1672 20.9674 18.5556 21.0425 18.9458 21.1183C19.7237 21.261 20.5062 21.4043 21.2917 21.5483C22.8643 21.8118 24.4461 22.0771 26.0141 22.3401C29.4622 22.9041 32.9224 23.4156 36.3936 23.7323C38.5355 23.9225 40.6555 24.0294 42.802 23.9121C46.057 23.793 49.3271 23.6029 52.5457 23.2717C55.0506 23.0272 57.4855 22.6313 59.9649 22.3366C60.5105 22.2684 61.0463 22.1996 61.6 22.1453C62.6305 22.0557 63.3177 22.0262 63.8054 22.0823C64.2921 22.1534 64.5724 22.2591 64.7914 22.4048C64.8908 22.4689 65.0203 22.5308 65.0752 22.5874C65.1677 22.6845 65.0018 22.7654 64.6383 22.8521C64.2736 22.9348 63.7089 23.0741 62.9743 23.1463C60.7943 23.4179 58.5374 23.8202 56.229 24.0855C53.9218 24.3704 51.5701 24.6068 49.2092 24.7877C47.4557 24.927 45.6947 25.02 43.933 25.1004C43.047 25.1281 42.1795 25.1703 41.2779 25.1847C40.3752 25.1975 39.4811 25.1738 38.5922 25.1258L38.5893 25.0952Z" fill="#2458A4"/>
<path id="Fill 20" fill-rule="evenodd" clip-rule="evenodd" d="M34.1569 42.7456C31.537 42.7173 28.9183 42.6526 26.3048 42.4549C25.3518 42.3722 24.3941 42.378 23.4451 42.2491C20.0889 41.9324 16.7651 41.2857 13.4887 40.5089C12.042 40.139 10.5989 39.7541 9.17307 39.4368C7.33633 39.034 5.50017 38.7797 3.65592 38.5849C3.08143 38.5265 3.14847 38.2555 3.65765 37.9861C4.16336 37.7151 5.13837 37.4596 6.26307 37.5798C8.24661 37.8289 10.151 38.3387 12.0131 38.8357C12.946 39.0837 13.8684 39.3415 14.8 39.5576C15.734 39.7714 16.6697 39.9859 17.6089 40.2009C18.7417 40.4147 19.908 40.5898 21.0824 40.7436C22.2637 40.8511 23.452 40.9591 24.6299 41.0661C27.2249 41.2522 29.8303 41.3926 32.4398 41.3938C34.0459 41.4221 35.6526 41.3776 37.2588 41.3412C39.6891 41.2371 42.1356 41.132 44.5387 40.8696C46.409 40.6852 48.2243 40.3511 50.0582 40.0812C50.461 40.0165 50.854 39.9414 51.2615 39.8842C52.7647 39.6455 53.2652 39.7125 53.6369 39.9604C53.723 40.0188 53.8357 40.0703 53.8952 40.1309C54.105 40.3303 53.4935 40.6794 52.4041 40.9782C50.7673 41.3666 49.0774 41.7238 47.3447 41.9446C45.6131 42.1729 43.8504 42.3468 42.0807 42.4717C39.4527 42.6791 36.8028 42.734 34.1609 42.7791L34.1569 42.7456Z" fill="#2458A4"/>
<path id="Fill 22" fill-rule="evenodd" clip-rule="evenodd" d="M62.2785 33.7034C61.7815 34.3259 61.2711 34.946 60.7394 35.5535C60.5435 35.7731 60.3764 36.017 60.1684 36.2274C59.4465 36.9793 58.6634 37.6618 57.8779 38.3196C57.5254 38.6172 57.2093 38.9172 56.8532 39.2345C56.4758 39.5067 56.1949 39.5494 55.9135 39.6396C55.6719 39.6986 55.4384 39.7558 55.1806 39.8188C55.0876 39.8384 54.8847 39.6876 54.8992 39.379C54.9159 39.0726 55.1922 38.6981 55.5153 38.5918C55.791 38.501 56.0898 38.3959 56.1412 38.3461C56.1412 38.3461 56.1464 38.3438 56.1424 38.3444L56.184 38.4097L56.2319 38.4727L56.2579 38.5028L56.2718 38.5178L56.2793 38.5247L56.2811 38.5265C56.4175 38.6837 56.0961 38.3149 56.1296 38.3525L56.1308 38.3513L56.2094 38.2774L56.3683 38.1311L56.7001 37.8537C57.1434 37.4856 57.5901 37.1232 58.0519 36.7689C58.5992 36.3395 59.0454 35.7731 59.5095 35.2437C60.0204 34.66 60.5117 34.0508 60.9925 33.426L61.8699 32.2585C62.3149 31.6685 62.7721 31.0801 63.1859 30.4727C63.5084 30.0011 63.7638 29.4953 64.0834 29.0289C64.1528 28.9249 64.2135 28.8191 64.2886 28.7186C64.5822 28.3556 64.7689 28.3071 64.981 28.3365C65.0313 28.3446 65.0845 28.3458 65.1267 28.3597C65.2654 28.4047 65.2659 28.6382 65.1729 28.9885C64.8232 29.9745 64.258 30.8697 63.6754 31.7627C63.2448 32.4273 62.7923 33.0833 62.3033 33.7196L62.2785 33.7034Z" fill="#2458A4"/>
<path id="Fill 24" fill-rule="evenodd" clip-rule="evenodd" d="M42.4242 48.4114C39.0061 48.7154 35.5777 48.8922 32.1487 48.935C30.8968 48.9361 29.6462 48.987 28.396 48.9471C26.1911 48.909 23.9891 48.7743 21.7929 48.6015C19.5978 48.416 17.4033 48.1524 15.2325 47.8715C13.2999 47.6294 11.3527 47.3924 9.43392 47.1144C8.20172 46.9347 6.96663 46.7434 5.73963 46.5024C4.50916 46.2775 3.30586 45.9192 2.11643 45.5464C1.37665 45.3031 1.52518 45.165 2.20833 45.1303C2.88858 45.1135 4.11847 45.1031 5.51249 45.3407C7.97747 45.8106 10.4679 46.1539 12.9762 46.4689C15.4868 46.7844 18.0079 47.1323 20.526 47.4086C23.5476 47.7409 26.7171 47.7993 29.8265 47.8005C33.2462 47.8005 36.67 47.6617 40.0846 47.3884C42.1866 47.2312 44.2846 46.9988 46.3762 46.7422C47.9604 46.5388 49.5469 46.3232 51.127 46.0782C51.9153 45.947 52.7031 45.8163 53.4891 45.6857L54.6635 45.4678L55.249 45.3574L55.542 45.302L55.6882 45.2742C55.7206 45.265 55.7483 45.2679 55.7732 45.2528C56.2448 45.0251 56.7736 44.6604 57.2418 44.3119C57.7134 43.9409 58.174 43.556 58.6156 43.1462C59.501 42.3313 60.3494 41.4747 61.1713 40.5864C61.5331 40.1957 61.8752 39.8021 62.2301 39.3993C63.5444 37.9036 63.9593 37.4319 64.4211 37.2395C64.5251 37.1956 64.6483 37.1245 64.7286 37.1118C64.9944 37.0603 64.6592 37.8446 63.7715 39.0468C62.4416 40.8147 60.9644 42.5445 59.2467 44.1264C58.3688 44.9101 57.4828 45.6609 56.3066 46.2793L56.1298 46.3694L55.924 46.4105L55.7067 46.4532L55.2808 46.5382L54.4283 46.707C53.8601 46.822 53.288 46.9249 52.7164 47.0272C49.3203 47.6479 45.8797 48.1201 42.4317 48.442L42.4242 48.4114Z" fill="#2458A4"/>
<path id="Fill 26" fill-rule="evenodd" clip-rule="evenodd" d="M62.6271 47.905C62.2543 48.2408 61.8763 48.5697 61.496 48.8962C61.3567 49.0147 61.2388 49.1551 61.0955 49.2696C60.5956 49.6782 60.0719 50.0602 59.5489 50.4388C59.3183 50.6081 59.0935 50.789 58.8744 50.9722L58.8363 51C58.7374 51.0867 58.5964 51.1398 58.4797 51.1676C58.3716 51.1924 58.2756 51.204 58.1843 51.2121C58.0069 51.2248 57.8329 51.2207 57.7439 51.2057C57.726 51.1768 57.5457 51.0479 57.5833 50.8064C57.6295 50.5671 57.8636 50.329 58.0572 50.296C58.1479 50.2798 58.2271 50.2642 58.2797 50.248C58.3317 50.2342 58.2924 50.2405 58.3097 50.2463C58.7016 49.9481 59.1576 49.6348 59.6142 49.3493C59.9876 49.1153 60.2944 48.7766 60.6285 48.4789C60.9943 48.1501 61.3642 47.8224 61.7237 47.4831C61.9462 47.2756 62.1664 47.0653 62.3814 46.8497C62.7051 46.5214 63.0403 46.1995 63.3362 45.8492C63.5657 45.577 63.746 45.2713 63.9437 44.9788C63.987 44.9141 64.0228 44.8453 64.0702 44.7835C64.2396 44.5488 64.3789 44.5459 64.5939 44.6436C64.643 44.6656 64.6938 44.6829 64.7366 44.7078C64.8707 44.7823 64.9383 44.9927 64.8557 45.2054C64.5823 45.8099 64.1558 46.3353 63.7073 46.8427C63.3744 47.2201 63.0039 47.5663 62.6444 47.9206L62.6271 47.905Z" fill="#2458A4"/>
<path id="Fill 28" fill-rule="evenodd" clip-rule="evenodd" d="M34.9565 55.0381C32.0846 55.2017 29.207 55.2751 26.3294 55.2756C25.2792 55.2803 24.2291 55.3016 23.1801 55.2641C22.2542 55.2467 21.3295 55.1976 20.4053 55.1427C19.4806 55.1022 18.557 55.0202 17.6346 54.9398C15.788 54.7867 13.9478 54.526 12.1302 54.3035C10.5113 54.1024 8.87454 53.9631 7.2528 53.7701C5.16927 53.5447 3.05511 53.1216 1.10105 52.3367C0.49015 52.094 0.657179 51.894 1.25421 51.8339C1.85066 51.779 2.87248 51.8322 4.01336 52.0807C6.03736 52.5159 8.11742 52.7494 10.2368 52.991C12.3544 53.2274 14.4871 53.5371 16.5862 53.8076C19.1182 54.0978 21.7774 54.159 24.3892 54.1845C27.2616 54.2076 30.1387 54.1469 33.014 54.0134C34.7831 53.9186 36.5528 53.8111 38.3184 53.6666C40.9926 53.4377 43.6801 53.1938 46.3225 52.8424C48.3772 52.5702 50.3786 52.2136 52.3945 51.857C52.8384 51.7755 53.2724 51.6964 53.7198 51.6149C55.3797 51.3253 55.9287 51.36 56.3327 51.5773C56.4246 51.6264 56.5419 51.6692 56.5992 51.7201C56.6963 51.8067 56.5818 51.9194 56.2934 52.0576C56.0056 52.1946 55.5461 52.3674 54.9398 52.5003C51.3461 53.3054 47.505 53.8735 43.6345 54.3203C40.7603 54.6636 37.8584 54.8774 34.9623 55.0664L34.9565 55.0381Z" fill="#2458A4"/>
<path id="Fill 30" fill-rule="evenodd" clip-rule="evenodd" d="M26.0676 50.9703C24.3089 50.9044 22.5514 50.801 20.7967 50.6617C20.1563 50.6131 19.5154 50.5779 18.8767 50.5131C16.6175 50.2918 14.3953 49.9225 12.1597 49.6705C11.1628 49.5612 10.1629 49.452 9.1746 49.3439C7.90252 49.2058 6.61368 49.0295 5.38264 48.6429C4.62089 48.3984 5.76062 48.0262 7.17719 48.2371C9.70516 48.625 12.3054 48.8527 14.9062 49.2607C16.4632 49.5092 18.0739 49.6508 19.6714 49.778C21.4238 49.9259 23.1819 50.0357 24.9418 50.1045C26.0243 50.149 27.1091 50.1791 28.1928 50.1877C29.8342 50.1999 31.4854 50.2051 33.1141 50.1346C34.3804 50.0808 35.6183 49.9641 36.865 49.8485C37.1395 49.8213 37.4088 49.7947 37.6845 49.7676C38.7104 49.6739 39.0439 49.7393 39.282 49.9248C39.3357 49.967 39.4063 50.0057 39.4386 50.0467C39.549 50.1727 39.1427 50.3704 38.3908 50.4941C36.1576 50.8223 33.7822 50.9611 31.3975 51.0183C29.6261 51.0639 27.8454 51.0385 26.0694 50.9911L26.0676 50.9703Z" fill="#2458A4"/>
<path id="Fill 32" fill-rule="evenodd" clip-rule="evenodd" d="M41.1319 59.6704C37.693 59.8865 34.2501 60.0009 30.8084 60.0304C29.552 60.0327 28.2966 60.0738 27.0419 60.0397C22.6165 59.9489 18.1928 59.7212 13.794 59.2161C11.8376 58.9866 9.8986 58.7578 7.95956 58.5884C5.47494 58.3578 2.95563 58.1249 0.511459 57.5325C-0.249708 57.347 -0.104641 57.195 0.573878 57.1539C1.25355 57.1141 2.46437 57.1551 3.87805 57.3354C6.38637 57.6585 8.92475 57.8296 11.477 58.1261C14.0119 58.4214 16.5335 58.7 19.0933 58.8716C22.1489 59.0993 25.3433 59.1196 28.4787 59.1167C31.9273 59.1126 35.3789 59.0178 38.8241 58.8242C40.9452 58.7115 43.064 58.5468 45.177 58.3468C48.3754 58.0319 51.5853 57.6383 54.719 57.0493C55.0877 56.9788 55.4559 56.9083 55.8148 56.8395L55.8212 56.8384L55.8599 56.8338C56.246 56.7898 56.7262 56.5159 57.1453 56.2627C57.5753 55.9975 57.9931 55.7004 58.3994 55.3871C59.2149 54.7641 59.9975 54.0931 60.7679 53.4048C61.1609 53.0395 61.5458 52.6817 61.9423 52.3136C63.4033 50.9392 63.8738 50.5225 64.3853 50.4121C64.5015 50.3867 64.639 50.3364 64.7286 50.3387C65.0291 50.3399 64.6165 51.1103 63.5744 52.1905C62.5353 53.2701 61.425 54.3127 60.2304 55.3062C59.6322 55.8033 59.0167 56.2882 58.3503 56.7407C58.0203 56.9707 57.6752 57.188 57.2978 57.3897C57.1094 57.4903 56.921 57.5915 56.6921 57.6735C56.4985 57.7672 56.2026 57.8307 55.9159 57.8723L56.0142 57.8602C55.2744 57.996 54.5294 58.133 53.781 58.2711C53.0296 58.389 52.276 58.5069 51.5212 58.6254C48.08 59.1265 44.6065 59.4542 41.1382 59.6946L41.1319 59.6704Z" fill="#2458A4"/>
<path id="Fill 34" fill-rule="evenodd" clip-rule="evenodd" d="M26.4898 44.9479C26.4325 46.079 26.3846 47.2158 26.3476 48.3544C26.3337 48.7693 26.3568 49.1849 26.3395 49.5999C26.2591 51.065 26.1777 52.533 26.0973 53.9975C26.0592 54.6489 26.0546 55.3031 26.0401 55.9527C26.0291 56.7867 26.043 57.6294 25.7708 58.4755C25.6876 58.7391 25.4673 58.6414 25.2645 58.3865C25.1622 58.2588 25.0668 58.0975 24.9917 57.912C24.9108 57.7196 24.8565 57.5028 24.8628 57.2745C24.9119 55.6285 24.9495 53.9415 25.0963 52.2446C25.1894 51.2285 25.1148 50.1674 25.1396 49.1254L25.2327 45.6813L25.3159 43.5556C25.3396 43.017 25.3726 42.4783 25.4338 41.9252C25.4806 41.5518 25.6101 41.3195 25.7199 41.0525C25.8378 40.7976 25.9621 40.5531 26.0892 40.3127C26.4805 39.5643 26.8724 38.8424 27.3058 38.1367C27.4023 37.9818 27.4994 37.8327 27.611 37.6871C28.0219 37.1444 28.245 37.0398 28.5311 37.0733C28.5964 37.0814 28.6658 37.0796 28.7195 37.0964C28.8929 37.1467 28.8808 37.479 28.6831 37.9333C28.3964 38.6135 28.0525 39.2666 27.7052 39.9191C27.3856 40.5728 26.9735 41.2293 26.7481 41.8206C26.7071 41.9287 26.6759 42.0275 26.6816 42.0258L26.6452 42.4147L26.5892 43.2435C26.5614 43.8076 26.5354 44.3757 26.521 44.9473L26.4898 44.9479Z" fill="#2458A4"/>
<path id="Fill 36" fill-rule="evenodd" clip-rule="evenodd" d="M39.9085 44.0671C38.8364 44.0983 37.7642 44.1231 36.6927 44.1353C36.3014 44.1393 35.9113 44.1694 35.5206 44.1665C34.1422 44.1694 32.7644 44.1289 31.3877 44.0942C30.7773 44.0717 30.163 44.0792 29.5567 44.0717C28.7782 44.0757 27.9939 44.0861 27.22 43.9659C26.7374 43.9012 27.379 43.3336 28.2696 43.3099C29.8497 43.3359 31.427 43.3758 33.0221 43.4544C33.9763 43.4995 34.9693 43.444 35.9448 43.4249C37.0181 43.3995 38.0919 43.3758 39.1652 43.3307L41.1464 43.2365C42.1457 43.1747 43.1508 43.1181 44.1391 43.0129C44.9083 42.9354 45.6551 42.7915 46.4122 42.6938L46.9092 42.6233C47.5323 42.5447 47.7409 42.6089 47.8964 42.7701C47.9316 42.8083 47.9767 42.8447 47.9992 42.8828C48.075 43.0094 47.8345 43.162 47.3837 43.2897C46.0411 43.6255 44.6009 43.7862 43.1514 43.8954C42.0752 43.9827 40.9915 44.033 39.9108 44.0861L39.9085 44.0671Z" fill="#2458A4"/>
<path id="Fill 38" fill-rule="evenodd" clip-rule="evenodd" d="M16.3906 43.0167C15.5144 42.8624 14.6249 42.6665 13.769 42.4341C13.4563 42.3509 13.1384 42.2879 12.8281 42.1989C11.7323 41.8862 10.6503 41.5447 9.56033 41.247C9.07658 41.1147 8.58416 41.0089 8.09695 40.9158C7.46929 40.8026 6.837 40.7274 6.22148 40.5494C5.83367 40.4494 6.41394 39.9241 7.16991 39.9969C8.48649 40.2026 9.76723 40.5413 11.0249 40.9569C11.7779 41.206 12.5807 41.3776 13.3598 41.5782C14.2192 41.8013 15.0665 42.0111 15.934 42.1619C16.4686 42.2555 17.005 42.3428 17.5459 42.4139C18.3637 42.5243 19.1885 42.6341 20.0086 42.7202C20.6455 42.789 21.2789 42.8046 21.913 42.8948C22.0528 42.9133 22.191 42.9237 22.3308 42.9514C22.8521 43.0387 22.9984 43.1722 23.0683 43.3658C23.0839 43.4126 23.1076 43.4594 23.1122 43.5022C23.1301 43.6438 22.8961 43.7189 22.5169 43.7155C21.3957 43.6779 20.2334 43.5536 19.0475 43.4062C18.1672 43.2999 17.2789 43.1785 16.3889 43.0358L16.3906 43.0167Z" fill="#2458A4"/>
<path id="Fill 40" fill-rule="evenodd" clip-rule="evenodd" d="M23.926 30.7568C23.9017 30.1875 24.0283 29.5633 24.3375 29.0177C24.6548 28.4744 25.1836 28.0317 25.7974 27.8572C26.2401 27.7283 26.7157 27.6965 27.1498 27.8173C27.3388 27.8884 27.5324 27.9595 27.7069 28.0566C27.8659 28.1756 28.0508 28.2762 28.1739 28.4224C28.4467 28.6975 28.6479 29.0096 28.786 29.3217C29.0738 29.9482 29.2044 30.5741 29.3183 31.1868C29.4136 31.7231 29.5084 32.2589 29.6032 32.7912C29.7292 33.4633 29.8795 34.1158 29.9829 34.7528C30.0136 34.9516 29.8124 35.018 29.5454 34.9186C29.2755 34.8227 28.9368 34.5349 28.8172 34.1343C28.6126 33.4258 28.4635 32.7357 28.3415 32.0618C28.2335 31.3873 28.1323 30.7285 27.9595 30.1262C27.8509 29.7766 27.6809 29.4338 27.4376 29.2368C27.2001 29.0374 26.9215 28.9241 26.6042 28.905C25.9176 28.8461 25.2778 29.3818 25.1443 30.1661C25.0616 30.6371 25.1194 31.2006 25.2755 31.6861C25.5142 32.4375 26.0627 33.0888 26.7626 33.5217C27.3093 33.8592 27.9347 34.0332 28.5583 34.1748C28.6947 34.2101 28.8363 34.2199 28.9744 34.254C29.4905 34.3655 29.6367 34.4823 29.6905 34.8192C29.7026 34.8967 29.7234 34.9747 29.7252 35.0492C29.7332 35.2989 29.4674 35.4642 29.0322 35.4434C27.7642 35.3527 26.373 34.8909 25.2581 33.8396C24.8536 33.4443 24.5109 32.964 24.2693 32.4317C24.0433 31.8919 23.9236 31.3203 23.8965 30.7597L23.926 30.7568Z" fill="#2458A4"/>
<path id="Fill 42" fill-rule="evenodd" clip-rule="evenodd" d="M37.8446 32.0355C38.0064 31.8141 38.1561 31.5795 38.2937 31.3379L38.4688 30.9565L38.5584 30.7652L38.6052 30.5987L38.6584 30.4328C38.6601 30.386 38.6618 30.3415 38.6676 30.2959C38.6948 30.1907 38.6555 30.1439 38.6618 30.0693C38.6202 29.9658 38.5584 29.8555 38.3792 29.7514C38.1151 29.6029 37.7024 29.5671 37.3002 29.5497C36.9395 29.5353 36.5615 29.5572 36.198 29.6196C36.0183 29.6543 35.8455 29.6959 35.6877 29.7468C35.5784 29.7826 35.3918 29.882 35.2143 29.9832C34.511 30.3843 33.8174 30.8258 33.1597 31.3084C32.5765 31.7379 32.0275 32.2187 31.5414 32.7331C31.234 33.066 30.9438 33.4157 30.6976 33.7763C30.4404 34.1329 30.2208 34.4953 30.0595 34.8594C29.9573 35.0784 29.685 35.0409 29.4891 34.7161C29.2683 34.3837 29.2556 33.7509 29.5804 33.2197C30.7797 31.4246 32.4008 30.2461 34.1307 29.2544C34.3936 29.1053 34.6566 28.9562 34.9213 28.8065C35.2843 28.6094 35.6039 28.5308 35.9287 28.4441C36.5737 28.3013 37.2268 28.2314 37.9088 28.3158C38.2804 28.3643 38.6711 28.4562 39.0531 28.681C39.2473 28.7799 39.423 28.9434 39.5854 29.1214C39.7183 29.3168 39.8686 29.5364 39.9033 29.767C40.0362 30.2363 39.9408 30.6542 39.8432 31.0223C39.7328 31.387 39.5796 31.691 39.4369 32.0199C39.0259 32.7955 38.452 33.4694 37.7932 34.0225C36.7748 34.8467 35.5553 35.3437 34.3306 35.6385C33.377 35.8673 32.413 36.0303 31.412 36.0032C31.1918 35.991 30.9733 35.9847 30.7502 35.9604C29.9208 35.8303 29.6908 35.5859 29.67 35.1825C29.6648 35.0894 29.6504 34.994 29.6625 34.9091C29.711 34.6224 30.0763 34.497 30.5699 34.5352C32.0541 34.638 33.6718 34.4987 35.1178 33.9445C36.1974 33.5532 37.1487 32.8972 37.8157 32.017L37.8446 32.0355Z" fill="#2458A4"/>
<path id="Fill 44" fill-rule="evenodd" clip-rule="evenodd" d="M29.1181 35.2572C29.6255 35.8617 29.9572 36.5975 30.2104 37.3396C30.4774 38.1204 30.6571 38.9353 30.7201 39.7583C30.7409 40.0253 31.3287 39.9328 31.4738 39.8907C31.6917 39.8277 32.0818 39.6849 32.0598 39.3994C31.9951 38.5527 31.8067 37.7135 31.5264 36.9119C31.2571 36.1409 30.8941 35.3745 30.3659 34.7451C30.0867 34.4128 28.8019 34.8809 29.1181 35.2572Z" fill="#2458A4"/>
<path id="Fill 46" fill-rule="evenodd" clip-rule="evenodd" d="M29.9723 34.4555C28.9742 33.8076 27.772 34.3451 26.9311 34.9976C26.2445 35.5311 25.6844 36.1928 25.0793 36.8107C24.8192 37.0759 24.9591 37.4973 25.2932 37.61C25.6995 37.7469 26.1272 37.6059 26.4184 37.3089C26.6358 37.0869 26.8421 36.854 27.0565 36.6292C27.1918 36.4876 27.3438 36.3564 27.4721 36.2084C27.3293 36.3726 27.438 36.2414 27.4778 36.2038C27.516 36.1686 27.5536 36.1339 27.5917 36.0992C27.6686 36.0304 27.746 35.9622 27.8252 35.8963C27.9795 35.768 28.1396 35.6455 28.3072 35.5357C28.3627 35.4993 28.4783 35.4565 28.2719 35.5559C28.3193 35.5328 28.3644 35.5027 28.4112 35.4779C28.4904 35.4357 28.5736 35.4033 28.654 35.3652C28.38 35.4947 28.6309 35.3843 28.7216 35.3583C28.8487 35.3213 28.5008 35.3744 28.6389 35.3727C28.6748 35.3721 28.7372 35.3768 28.7707 35.3658C28.7308 35.3785 28.5517 35.3531 28.695 35.3692C28.8545 35.3866 28.6083 35.3351 28.6517 35.3542C28.6846 35.3687 28.7239 35.3831 28.7586 35.3935C28.8615 35.4241 28.6054 35.2999 28.7517 35.3947C29.084 35.6108 29.5914 35.5594 29.8943 35.3057C30.1451 35.0953 30.3196 34.6809 29.9723 34.4555Z" fill="#2458A4"/>
<path id="Fill 48" fill-rule="evenodd" clip-rule="evenodd" d="M34.6596 26.8807C34.4169 27.1714 34.1758 27.4708 33.9447 27.7817C33.8603 27.8939 33.8036 28.0256 33.7164 28.1372C33.395 28.5267 33.0702 28.9209 32.7506 29.3081C32.6131 29.4844 32.4952 29.6757 32.3616 29.8537C32.2004 30.0878 32.0519 30.3334 31.8161 30.5161C31.7415 30.5727 31.6265 30.4796 31.5357 30.3288C31.4473 30.1791 31.3687 29.9635 31.4277 29.8109C31.6276 29.2642 31.9276 28.7891 32.3177 28.3487C32.5541 28.0881 32.6784 27.743 32.8806 27.4483C33.0997 27.1223 33.328 26.7998 33.5632 26.479C33.71 26.282 33.8574 26.0849 34.003 25.8895C34.2221 25.589 34.4746 25.3104 34.6954 25.0157C34.8653 24.7851 34.9902 24.5238 35.1468 24.2822C35.1803 24.2285 35.2173 24.1788 35.263 24.1349C35.4369 23.9759 35.545 23.973 35.7508 24.0938C35.7976 24.121 35.8461 24.1453 35.8883 24.1753C36.0311 24.2765 36.0819 24.4487 36.0409 24.6307C35.99 24.9093 35.8831 25.1388 35.7571 25.3561C35.6346 25.5751 35.4982 25.7849 35.3607 25.9947C35.1641 26.3109 34.9012 26.5842 34.6839 26.8957L34.6596 26.8807Z" fill="#2458A4"/>
<path id="Fill 50" fill-rule="evenodd" clip-rule="evenodd" d="M42.4211 60.4182C40.5704 60.4477 38.7135 60.4535 36.8559 60.3888C36.178 60.3651 35.4989 60.3628 34.8227 60.3136C32.4664 60.0686 30.1453 60.0946 27.7693 60.19C26.7226 60.2287 25.6777 60.3142 24.627 60.3697C23.2855 60.4408 21.8915 60.4899 20.5536 60.1293C20.1374 60.0125 20.2374 59.879 20.6108 59.7883C20.9864 59.6987 21.6257 59.5964 22.3701 59.5814C23.6953 59.564 25.031 59.3826 26.4036 59.2531C27.7913 59.1791 29.1518 59.1398 30.5504 59.156C31.3885 59.1664 32.2375 59.1768 33.0929 59.1878C33.939 59.2213 34.7897 59.2554 35.633 59.2889C37.4714 59.3589 39.3169 59.3496 41.1657 59.2976C42.3032 59.2635 43.4423 59.2155 44.5814 59.1566C46.3003 59.056 48.0602 59.0132 49.7455 58.8607C51.0626 58.73 52.3359 58.4636 53.6051 58.1677C53.8836 58.0983 54.157 58.0301 54.4373 57.9602C54.9598 57.844 55.3054 57.7753 55.5643 57.7995C55.8261 57.8348 55.9989 57.9486 56.1515 58.096C56.2203 58.1596 56.3041 58.211 56.348 58.2619C56.422 58.3503 56.3607 58.4578 56.2007 58.6497C56.0429 58.8503 55.7603 59.0254 55.3713 59.1375C53.0797 59.8547 50.5228 60.1772 48.0018 60.2547C46.1471 60.3188 44.2844 60.383 42.4251 60.4477L42.4211 60.4182Z" fill="#2458A4"/>
<path id="Fill 52" fill-rule="evenodd" clip-rule="evenodd" d="M63.2377 52.4263C63.2377 52.4263 69.3224 51.1543 68.1248 52.8887C66.1534 55.7432 59.27 60.631 46.04 60.1322L56.8264 57.7181L63.2377 52.4263Z" fill="#2458A4"/>
</g>
</svg>
