<svg width="46" height="60" viewBox="0 0 46 60" fill="none" xmlns="http://www.w3.org/2000/svg">
<g id="Icon">
<path id="Fill 1" fill-rule="evenodd" clip-rule="evenodd" d="M43.7639 13.8955C43.5494 13.699 43.256 13.5583 42.9478 13.4548C42.6402 13.3487 42.315 13.2731 41.9844 13.2162C41.3232 13.1023 40.645 13.0454 39.963 13.0274C38.6006 12.9896 37.2245 13.058 35.878 13.2178C35.6623 13.2567 35.5528 11.8111 35.7893 11.8231C37.2201 11.8133 38.634 11.8998 40.0451 12.0952C40.7496 12.1932 41.4529 12.33 42.147 12.5309C42.4935 12.6311 42.8383 12.7515 43.1739 12.9108C43.5072 13.0673 43.8417 13.2655 44.1088 13.5709C44.3403 13.8676 43.9429 14.0509 43.7639 13.8955Z" fill="#2458A4"/>
<path id="Fill 3" fill-rule="evenodd" clip-rule="evenodd" d="M0.904833 35.2786L0.596117 27.616L0.459275 24.8228C0.353085 21.5375 0.285211 18.2511 0.225548 14.9647C0.209127 13.5059 0.142895 12.0412 0.0947268 10.5939C0.0350636 8.73614 -0.1078 6.86633 0.143443 5.00528C0.215695 4.42506 0.38538 4.50389 0.62677 4.99269C0.748285 5.23736 0.893338 5.58439 1.04003 6.00258C1.16866 6.42132 1.24803 6.91121 1.27485 7.4438C1.42976 11.2239 1.50201 15.0063 1.49709 18.8307C1.49435 21.1176 1.65747 23.4916 1.7538 25.8277L2.0762 33.5369C2.15229 35.1188 2.22837 36.7007 2.30446 38.2809C2.43363 40.674 2.55296 43.0803 2.7325 45.4526C2.87317 47.2972 3.08938 49.0997 3.27987 50.9175C3.32475 51.3176 3.36854 51.7095 3.41397 52.1124C3.51305 53.6122 3.45995 54.0944 3.17477 54.4376C3.1162 54.5181 3.06585 54.6237 3.01549 54.6757C2.87372 54.8607 2.50808 54.2411 2.3362 53.1508C1.80033 49.906 1.56332 46.4641 1.31864 43.008C1.14622 40.4409 1.01431 37.8589 0.873633 35.2835L0.904833 35.2786Z" fill="#2458A4"/>
<path id="Fill 6" fill-rule="evenodd" clip-rule="evenodd" d="M42.1807 40.2133C42.7089 33.5003 43.2891 26.7912 43.7226 20.0876C43.7993 18.8653 43.8606 17.6414 43.9 16.4241C43.9202 15.8154 43.9378 15.2056 43.9383 14.6068C43.9443 14.3036 43.935 14.0113 43.9301 13.7173C43.9274 13.5794 43.9109 13.4223 43.9066 13.3227C43.9027 13.2696 43.9022 13.2411 43.8852 13.2055C43.8683 13.1886 43.8513 13.1716 43.8305 13.1579C43.8141 13.1431 43.7955 13.1344 43.7166 13.0911C43.5875 13.0211 43.4342 12.9592 43.2738 12.9034C42.9503 12.7923 42.5923 12.7096 42.2278 12.6423C41.4954 12.5104 40.7274 12.4425 39.9567 12.4025C39.185 12.3626 38.4061 12.3538 37.6261 12.3637L36.4558 12.3938C35.8728 12.4151 35.1432 12.4715 34.4989 12.5169L34.6369 11.4868L34.6943 10.9772L34.7354 10.5437L34.8279 9.34384C34.881 8.54085 34.9221 7.73567 34.9516 6.93049C34.9812 6.12531 35.0003 5.31958 34.9981 4.52042L34.9899 3.92379L34.9702 3.40598C34.9653 3.32387 34.9604 3.24013 34.9439 3.15638C34.945 3.04198 34.8235 3.07646 34.7491 3.07154L34.5739 3.07592L34.1754 3.09562L33.3402 3.1427L31.663 3.2456L28.3027 3.4443C24.4613 3.65175 20.5925 3.82855 16.7631 3.81815C14.3032 3.81049 11.8313 3.74042 9.35937 3.45305C8.1245 3.29979 6.88909 3.09836 5.66791 2.76775C4.45877 2.42291 3.2146 1.99103 2.17898 1.07145C2.02462 0.918735 1.88723 0.798862 1.79692 0.666946C1.71043 0.529009 1.64858 0.412966 1.60807 0.318819C1.52706 0.129977 1.53144 0.0319975 1.59932 0.00681854C1.66719 -0.0183604 1.79911 0.0276186 1.97317 0.121219C2.0602 0.167745 2.15709 0.226314 2.26054 0.294187C2.37877 0.348377 2.51014 0.409135 2.65574 0.476461C3.2261 0.738104 4.03018 1.01343 5.06909 1.21596C6.10088 1.42779 7.33301 1.61006 8.68884 1.80766C10.8077 2.11583 12.9797 2.24392 15.1555 2.30522C17.3329 2.36543 19.5207 2.35503 21.7118 2.30358C23.9035 2.25103 26.0996 2.15962 28.3 2.04851C29.4013 1.98884 30.5037 1.92918 31.6066 1.86952L33.2668 1.7781L34.1032 1.73705L34.5526 1.71735L35.3052 1.70147C35.7655 1.77373 36.1465 2.05234 36.2275 2.57836C36.2735 2.83453 36.2976 3.10602 36.3129 3.36931L36.3271 3.84223C36.3375 4.46076 36.3271 5.06834 36.3091 5.67592C36.2784 6.69622 36.2314 7.71815 36.1711 8.7494C36.1356 9.26557 36.1005 9.78393 36.0644 10.3045L36.0162 10.8557L35.985 11.0993L36.7399 11.0659C37.2571 11.0462 37.776 11.0347 38.2966 11.0319C39.3388 11.0281 40.387 11.0544 41.4472 11.1627C41.9776 11.218 42.5113 11.2936 43.0527 11.4189C43.3231 11.4819 43.5957 11.5569 43.8721 11.6598C44.1616 11.7796 44.3915 11.8486 44.7714 12.1371C44.8579 12.2006 44.9356 12.2728 45.0144 12.3451L45.1327 12.4534C45.1748 12.4874 45.1628 12.5525 45.1803 12.6012C45.2164 12.8043 45.2837 13.032 45.2848 13.2159C45.3106 13.5028 45.3171 13.7704 45.3204 14.0348C45.3281 14.5657 45.3193 15.0846 45.3035 15.6025C45.189 19.018 44.9329 22.3964 44.6899 25.7835L43.9038 35.929C43.577 40.0901 43.2426 44.2518 42.9613 48.4101C42.8562 49.9849 42.7544 51.5613 42.6722 53.1372C42.6334 53.9249 42.5962 54.7125 42.5748 55.4975L42.5606 56.0859L42.5562 56.7898L42.5502 57.0011L42.5469 57.1073C42.5409 57.1396 42.4971 57.1532 42.4741 57.1773L42.1364 57.4373C42.0307 57.5287 41.8933 57.595 41.7921 57.6508C41.6936 57.7006 41.5972 57.7636 41.497 57.8008C39.8976 58.4489 38.2813 58.5124 36.689 58.5956C35.095 58.6421 33.5104 58.6032 31.9367 58.52C29.4889 58.3925 27.0755 58.185 24.6742 57.9524C23.476 57.832 22.2795 57.711 21.0824 57.5906C20.4912 57.5337 19.8793 57.468 19.3226 57.4423C18.7779 57.439 18.1463 57.462 17.565 57.4893C16.52 57.5402 15.5069 57.6442 14.4712 57.7893C12.5538 58.0679 11.3222 58.404 10.4399 58.5923C9.56025 58.7921 9.03204 58.8594 8.57006 58.8304C8.35987 58.8189 8.09057 58.8298 7.95372 58.7904C7.72328 58.7242 7.96193 58.4894 8.61002 58.1347C9.26029 57.7887 10.3288 57.3322 11.7711 56.9535C13.9086 56.3782 16.1599 56.1187 18.4025 56.0487C18.6893 56.0421 18.9482 56.0311 19.2596 56.0317C19.6028 56.0372 19.8656 56.064 20.1562 56.0864C20.7123 56.1406 21.2701 56.1953 21.8295 56.2495C22.9352 56.365 24.0458 56.4805 25.1597 56.5966C27.3842 56.8193 29.6224 57.0224 31.8634 57.1417C34.0977 57.2529 36.3616 57.3175 38.521 57.0826C39.313 56.9907 40.1067 56.8516 40.7543 56.6015C40.8325 56.5692 40.9179 56.5413 40.9907 56.5068L41.0898 56.451C41.127 56.4307 41.1599 56.4132 41.156 56.417L41.1653 56.4137L41.1659 56.4116V56.1729L41.1796 55.5248C41.2239 53.8022 41.3224 52.1038 41.4259 50.4014C41.6383 47.0006 41.8922 43.608 42.1451 40.2187L42.1807 40.2133Z" fill="#2458A4"/>
<path id="Fill 9" fill-rule="evenodd" clip-rule="evenodd" d="M45.2793 12.6267C44.3192 10.6944 42.797 8.96639 41.4072 7.33633C39.868 5.53165 38.2461 3.67333 36.3386 2.24634C36.1327 2.09253 35.6335 2.27207 35.4244 2.34651C35.3423 2.37552 34.8054 2.58024 34.9893 2.71763C36.9023 4.14845 38.5319 6.01334 40.0705 7.82568C41.428 9.42509 42.9114 11.117 43.8517 13.0093C44.0099 13.3267 45.3751 12.8193 45.2793 12.6267Z" fill="#2458A4"/>
<path id="Fill 11" fill-rule="evenodd" clip-rule="evenodd" d="M8.21387 18.4543C8.52806 18.2129 8.81762 18.0749 9.10061 18.0016C9.39071 17.9135 9.68136 17.8921 9.96818 17.8998C11.8966 17.9375 13.849 17.8823 15.796 17.8609C17.4726 17.8549 19.1525 17.8489 20.8291 17.8428C23.717 17.7952 26.6049 17.7082 29.495 17.6327L32.0578 17.5703C32.8761 17.5347 33.6939 17.5002 34.516 17.4876C34.6545 17.4849 34.7996 17.4591 34.9304 17.4903C35.2818 17.5752 35.3628 17.8987 35.1061 18.145C35.0475 18.2008 34.983 18.2928 34.9195 18.2944C34.2856 18.3119 33.7869 18.7548 33.1192 18.763C31.8848 18.7531 30.6494 18.8889 29.4129 18.9507C28.9186 18.9753 28.4222 18.9803 27.9274 18.971C27.2995 18.9485 26.6569 18.9255 26.0285 18.9025C25.1632 18.8861 21.0946 18.9556 17.1885 18.9655C15.235 18.966 13.3236 18.9589 11.8714 18.9108C11.1456 18.8927 10.5331 18.8549 10.0924 18.8358C9.64688 18.8013 9.37429 18.769 9.32612 18.7635C9.0174 18.7285 8.69938 18.5977 8.21387 18.4543Z" fill="#2458A4"/>
<path id="Fill 13" fill-rule="evenodd" clip-rule="evenodd" d="M9.20996 26.0877C9.49131 25.8376 9.73215 25.698 9.97354 25.6071C10.2193 25.5108 10.464 25.4818 10.7054 25.4813C12.3453 25.4473 14.0055 25.3455 15.6645 25.2793C17.0932 25.2196 18.5251 25.224 19.9576 25.1829C22.4218 25.1118 24.8893 25.0346 27.3656 25.0417L29.5639 25.0778C30.2678 25.0893 30.9717 25.0937 31.68 25.149C31.7988 25.1561 31.9258 25.1413 32.0347 25.1813C32.3297 25.2913 32.3659 25.6192 32.125 25.8458C32.0703 25.8973 32.0068 25.9843 31.9526 25.9821C31.4118 25.9597 30.9608 26.3477 30.397 26.3269C29.3575 26.2448 28.3066 26.3313 27.2595 26.3576C26.8402 26.3702 26.4203 26.3614 26.0011 26.3401C25.4707 26.3083 24.9222 26.2755 24.3912 26.2443C23.6567 26.2147 20.2006 26.2656 16.8781 26.3549C15.2168 26.3954 13.5889 26.4304 12.3502 26.4293C11.1143 26.4381 10.2571 26.3817 10.1722 26.3625C9.90786 26.3352 9.63144 26.2235 9.20996 26.0877Z" fill="#2458A4"/>
<path id="Fill 15" fill-rule="evenodd" clip-rule="evenodd" d="M9.89746 34.112C10.193 33.8624 10.4454 33.7261 10.7032 33.6336C10.9637 33.5378 11.2237 33.5105 11.4821 33.5094C13.2271 33.4782 14.9918 33.384 16.7549 33.3244C18.2728 33.2696 19.7939 33.2806 21.3156 33.2444C23.9326 33.182 26.5523 33.1109 29.1807 33.1207C29.9569 33.1185 30.7353 33.1536 31.5136 33.1574C32.2613 33.1722 33.0074 33.1738 33.76 33.2335C33.8865 33.2412 34.0211 33.2264 34.1372 33.2674C34.4508 33.3785 34.4913 33.707 34.2368 33.9325C34.1788 33.9839 34.112 34.0704 34.0545 34.0677C33.4803 34.042 33.003 34.4311 32.4042 34.4092C31.299 34.3244 30.1819 34.4103 29.068 34.4361C28.6224 34.4486 28.1769 34.4361 27.7307 34.418C27.1659 34.3852 26.5846 34.3512 26.0202 34.3178C25.2391 34.2877 21.5663 34.3293 18.0363 34.4049C16.2716 34.4388 14.543 34.4667 13.2282 34.4612C11.9162 34.4662 11.0092 34.4092 10.9189 34.3901C10.6391 34.3616 10.3469 34.2516 9.89746 34.112Z" fill="#2458A4"/>
<path id="Fill 17" fill-rule="evenodd" clip-rule="evenodd" d="M15.7227 42.5185C16.0232 41.9957 16.2054 41.8709 16.4184 41.8611C17.1086 41.8321 17.8142 41.7894 18.5175 41.774C19.1235 41.7593 19.731 41.808 20.3392 41.8025C21.3852 41.7921 22.4318 41.7527 23.4789 41.7171C23.7881 41.7056 24.0974 41.7078 24.4067 41.6859C24.7022 41.6591 24.9984 41.6317 25.294 41.618C25.3443 41.6153 25.3958 41.589 25.4434 41.6202C25.572 41.7045 25.6092 42.028 25.5222 42.2743C25.5025 42.3302 25.4806 42.4221 25.4576 42.4249C25.2277 42.4435 25.0542 42.8847 24.8112 42.8879C24.3607 42.8693 23.9124 42.9887 23.463 43.0335C23.2835 43.0522 23.1023 43.0489 22.9217 43.033C22.6912 43.0122 22.4608 42.9569 22.2303 42.9367C21.915 42.9087 20.4344 42.9098 19.0123 42.8874C18.3002 42.8754 17.6034 42.8567 17.0708 42.8294C16.541 42.808 16.1677 42.7626 16.131 42.7473C16.0188 42.7183 15.9006 42.6247 15.7227 42.5185Z" fill="#2458A4"/>
<path id="Fill 19" fill-rule="evenodd" clip-rule="evenodd" d="M11.2968 57.8013C11.2968 57.8013 17.5565 56.0354 25.5771 57.5046C33.5982 58.9737 42.1257 56.9058 42.1257 56.9058C42.1257 56.9058 40.1141 61.6783 26.3467 59.2014C18.4279 57.7772 12.1813 59.9995 10.7784 60C9.95409 60.0006 11.2968 57.8013 11.2968 57.8013Z" fill="#2458A4"/>
</g>
</svg>
