<svg width="47" height="60" viewBox="0 0 47 60" fill="none" xmlns="http://www.w3.org/2000/svg">
<g id="Icon">
<path id="Stroke 1" fill-rule="evenodd" clip-rule="evenodd" d="M1.00496 27.1889C1.02537 26.9756 1.21448 26.8182 1.42831 26.8386C2.48615 26.9374 0.900731 28.3004 1.00496 27.1889Z" stroke="#2458A4" stroke-width="0.5"/>
<path id="Fill 3" fill-rule="evenodd" clip-rule="evenodd" d="M17.8521 26.6571C16.5659 26.6689 15.2755 26.6431 13.9775 26.5341C12.6757 26.4266 11.381 26.2327 10.0464 25.7432C9.85571 25.6858 9.65854 25.5724 9.47104 25.4741C9.27011 25.3811 9.13365 25.2382 8.85482 25.0239C8.70869 24.8385 8.60124 24.6102 8.54537 24.3781C8.50293 24.1825 8.48305 24.0547 8.45995 23.9005C8.41697 23.605 8.38742 23.3203 8.3627 23.0344C8.12148 19.739 8.05056 16.4897 7.86306 13.2281C7.78892 11.7829 7.6761 10.3323 7.53481 8.90591C7.34946 7.07121 7.09856 5.24726 7.02979 3.40719C7.00401 2.83448 7.18345 2.87478 7.48968 3.32016C7.64494 3.54258 7.82761 3.86654 8.0194 4.26678C8.19616 4.66811 8.34068 5.15056 8.43147 5.68082C8.99827 9.45014 9.17878 13.2291 9.24916 17.0361C9.26958 18.174 9.33082 19.3323 9.4098 20.4933C9.49415 21.6462 9.57581 22.8373 9.72624 23.9241L9.7617 24.1197C9.77083 24.1514 9.7762 24.1922 9.80897 24.2094C9.83315 24.2234 9.92072 24.3056 10.019 24.3743C10.1292 24.4324 10.2361 24.4941 10.3414 24.5629C10.4478 24.6301 10.5788 24.6741 10.6976 24.7316C10.8179 24.7859 10.9388 24.8471 11.0753 24.8777C11.338 24.9578 11.6045 25.033 11.8833 25.084C12.1562 25.1485 12.4383 25.1909 12.7209 25.2329C13.8512 25.3978 15.0133 25.4596 16.1759 25.4821C17.735 25.5085 19.3027 25.4612 20.8666 25.3682C23.2369 25.2269 25.6196 25.0137 27.9642 24.7176C29.787 24.4861 31.561 24.1643 33.356 23.8677C33.7519 23.8006 34.1393 23.735 34.5379 23.6679C35.2799 23.5518 35.7757 23.5158 36.1352 23.5626C36.4914 23.5975 36.7068 23.6775 36.8798 23.8054C36.9598 23.8661 37.0592 23.9236 37.1033 23.9832C37.1758 24.0858 37.0624 24.1858 36.8132 24.2932C36.5564 24.4012 36.1529 24.5452 35.6194 24.6757C32.4373 25.307 29.0295 25.8211 25.589 26.1773C23.0333 26.447 20.4508 26.6275 17.8559 26.6866L17.8521 26.6571Z" fill="#2458A4"/>
<path id="Fill 5" fill-rule="evenodd" clip-rule="evenodd" d="M36.9096 15.3505L36.9644 13.0925C36.9676 12.818 36.9354 12.5445 36.9423 12.27C36.9622 11.3002 36.9918 10.3289 36.9805 9.3597C36.9821 8.92936 36.9273 8.50064 36.9047 8.07514C36.8607 7.53091 36.7908 6.98453 36.8472 6.43707C36.8655 6.26569 37.0632 6.263 37.283 6.38496C37.5011 6.50691 37.7563 6.75673 37.817 7.07102C38.0577 8.18527 38.098 9.30866 38.0383 10.4482C38.0002 11.1288 38.1012 11.8289 38.1259 12.5214C38.1501 13.2827 38.1651 14.0456 38.163 14.8085L38.1571 16.2171C38.1597 16.9284 38.1383 17.643 38.1597 18.35C38.1791 18.9001 38.265 19.4401 38.3027 19.9956C38.3107 20.1181 38.3306 20.2384 38.3311 20.362C38.2994 20.824 38.1802 20.9718 37.853 21.0282C37.7778 21.0416 37.7025 21.0615 37.6289 21.0647C37.3818 21.0749 37.1889 20.8724 37.1175 20.5624C36.916 19.6286 36.9053 18.6288 36.8865 17.6183C36.8838 16.865 36.8811 16.1081 36.8779 15.3527L36.9096 15.3505Z" fill="#2458A4"/>
<path id="Fill 7" fill-rule="evenodd" clip-rule="evenodd" d="M25.4528 1.30607C24.057 1.37914 22.6553 1.46295 21.2515 1.56878C20.7395 1.608 20.2296 1.67838 19.7166 1.7133C17.906 1.84009 16.0864 1.93035 14.2614 1.94325C13.4523 1.95023 12.6383 1.96688 11.8325 1.95399C11.3156 1.94969 10.7945 1.93143 10.2745 1.88737C9.75493 1.82129 9.2381 1.7176 8.73792 1.54837C8.42525 1.44307 8.5053 1.32702 8.79971 1.22871C9.09412 1.13845 9.59806 1.01488 10.1713 1.00414C12.1978 1.11159 14.2635 0.987483 16.3556 0.922476C17.6095 0.88863 18.908 0.706503 20.1899 0.58025C21.6007 0.445401 23.0163 0.31485 24.4368 0.214385C25.3109 0.151527 26.1882 0.106398 27.0645 0.0628809C28.3931 0.00163473 29.7309 -0.00373774 31.0546 0.00270922C32.0835 -0.00105151 33.0989 -0.00857297 34.1277 0.0430028C34.3533 0.0612692 34.5768 0.0661044 34.8041 0.0951157C35.6465 0.204177 35.8979 0.358367 36.0124 0.693072C36.0381 0.770973 36.0768 0.850485 36.0854 0.925163C36.1128 1.17606 35.7421 1.31467 35.1485 1.2878C33.382 1.22763 31.5382 1.15725 29.6616 1.17552C28.2695 1.19217 26.863 1.24053 25.4565 1.33508L25.4528 1.30607Z" fill="#2458A4"/>
<path id="Fill 9" fill-rule="evenodd" clip-rule="evenodd" d="M31.8478 9.87105C30.6879 11.2883 29.5871 12.7695 28.5453 14.2953C28.1655 14.8529 27.8346 15.4412 27.4633 16.0043L26.4904 17.5021L26.0117 18.2575L25.7742 18.6373L25.3965 19.268C25.2697 19.4663 25.1542 19.7064 25.021 19.8649L24.8276 20.1223C24.7953 20.1609 24.7636 20.2157 24.7314 20.2415L24.6352 20.3087L24.4445 20.4408L24.2758 20.5284C24.1023 20.5494 23.9965 20.4387 23.8627 20.3613C23.6043 20.1964 23.3287 19.8305 23.095 19.4147C22.8613 19.03 22.5964 18.5261 22.4906 18.3289C21.9866 17.3952 21.429 16.4937 20.831 15.6486C20.4458 15.1076 20.0423 14.5822 19.6195 14.0922C19.1962 13.6092 18.7588 13.1316 18.2839 12.8195C18.0051 12.6561 18.0513 12.3784 18.5316 12.2548C19.0076 12.1388 19.8709 12.3547 20.4909 12.9468C21.5923 13.9847 22.4207 15.1581 23.1772 16.3567C23.3663 16.6565 23.5495 16.9579 23.7284 17.2598L23.9932 17.7132C24.0244 17.7659 24.0131 17.7525 24.0158 17.7611L24.0174 17.7766L24.0233 17.8126C24.0325 17.8637 24.0486 17.933 24.0792 18.0227C24.0899 18.0528 24.1216 18.1516 24.1426 18.1232C24.1625 18.1156 24.185 18.1033 24.2108 18.0866C24.242 18.0662 24.2769 18.0329 24.3129 17.9921L24.3677 17.9249L24.3956 17.8873L24.4101 17.8685L24.4504 17.8014C24.6686 17.4323 24.8872 17.0616 25.1069 16.6898C25.5427 15.9436 25.9762 15.1893 26.4431 14.464C27.4687 12.8684 28.5539 11.3082 29.7052 9.7953C30.4149 8.86479 31.1478 7.95093 31.9112 7.06125C33.0641 5.71007 34.325 4.43787 35.6456 3.24411C36.6803 2.32649 37.7183 1.40887 38.9808 0.706688C39.2532 0.544976 39.5331 0.400994 39.8399 0.286561C40.981 -0.134104 41.4414 -0.0051646 41.7315 0.424633C41.7992 0.524024 41.8809 0.621266 41.9212 0.724417C41.9883 0.899022 41.9169 1.07846 41.7546 1.24179C41.5913 1.40726 41.3377 1.53673 41.0116 1.70167C39.0947 2.61338 37.2493 4.08866 35.5247 5.79764C34.2487 7.06823 33.0222 8.44251 31.8843 9.89576L31.8478 9.87105Z" fill="#2458A4"/>
<path id="Fill 11" fill-rule="evenodd" clip-rule="evenodd" d="M16.8154 27.2765C15.6324 27.2545 14.4456 27.1863 13.2615 27.0224C12.0769 26.8585 10.8966 26.5915 9.75008 26.1134C9.54377 26.0151 9.33049 25.9334 9.13278 25.8131L8.83783 25.6261L8.68579 25.5294C8.62454 25.5031 8.55685 25.4074 8.49399 25.3483C8.25761 25.0539 8.21086 24.8213 8.14049 24.5957C8.07279 24.3663 8.03304 24.1492 7.99382 23.9295C7.74991 22.3951 7.68436 20.8978 7.59679 19.3913L7.38082 14.8881C7.31689 13.5579 7.22663 12.2223 7.10897 10.9082C6.95693 9.21857 6.74472 7.53752 6.63082 5.84896C6.59214 5.32299 6.72108 5.36812 6.95317 5.78502C7.0719 5.99348 7.21051 6.29541 7.35879 6.66718C7.49418 7.0395 7.60969 7.48434 7.68544 7.97269C8.16896 11.4412 8.29306 14.9182 8.39192 18.4114C8.422 19.4553 8.48432 20.519 8.57995 21.5801C8.62777 22.1109 8.68633 22.6406 8.75832 23.1628C8.83246 23.677 8.92003 24.2169 9.07368 24.6322C9.09141 24.6945 9.1215 24.7241 9.13332 24.7595C9.15427 24.7853 9.15803 24.7966 9.18919 24.8208L9.52121 25.0367C9.7533 25.1759 10.0004 25.3054 10.2503 25.4284C10.5087 25.5385 10.7655 25.653 11.0422 25.7255C11.3119 25.8131 11.5869 25.8893 11.8684 25.949C12.9859 26.2079 14.1453 26.3353 15.3074 26.4019C16.7391 26.4819 18.1822 26.4728 19.6215 26.4062C21.8027 26.3025 23.9946 26.1075 26.1501 25.8281C27.8268 25.6132 29.459 25.3209 31.1126 25.055C31.4774 24.9959 31.8347 24.9384 32.2022 24.8793C33.57 24.6698 34.046 24.7853 34.3506 24.9556C34.4205 25.0002 34.5096 25.0443 34.5467 25.0872C34.6638 25.2328 34.1422 25.3408 33.1606 25.567C30.2342 26.0801 27.1037 26.5964 23.9377 26.9176C21.5856 27.1573 19.2078 27.3211 16.8181 27.2975L16.8154 27.2765Z" fill="#2458A4"/>
<path id="Fill 13" fill-rule="evenodd" clip-rule="evenodd" d="M18.3873 59.419C17.1011 59.4308 15.8106 59.4045 14.5121 59.2959C13.2109 59.1885 11.9161 58.9945 10.5816 58.5051C10.3377 58.4261 10.09 58.2805 9.85309 58.1505L9.45928 57.8416C9.38192 57.7766 9.30187 57.7154 9.27286 57.6133C9.21322 57.5332 9.18368 57.436 9.14499 57.3436C9.10309 57.2549 9.07945 57.1459 9.06548 57.069C9.05312 57.004 9.03647 56.9337 9.02787 56.8735L8.97361 56.5071C8.94191 56.2675 8.91774 56.0311 8.89786 55.7963C8.65664 52.5008 8.58518 49.2516 8.39822 45.9899C8.32354 44.5447 8.21126 43.0942 8.06996 41.6672C7.88461 39.8331 7.63372 38.0091 7.56495 36.1691C7.53916 35.5958 7.7186 35.6366 8.0243 36.0815C8.1801 36.3039 8.36276 36.6284 8.55402 37.0281C8.73078 37.43 8.8753 37.9119 8.96663 38.4427C9.53342 42.2115 9.71394 45.991 9.78378 49.7974C9.8042 50.9358 9.86544 52.0941 9.94442 53.2551C10.0288 54.4081 10.111 55.5986 10.2609 56.686C10.3189 57.0056 10.2721 56.9003 10.4881 57.0884C10.7084 57.2222 10.9373 57.3753 11.2112 57.4838C11.7394 57.7282 12.3513 57.8405 12.9578 57.9485C14.1806 58.1478 15.4458 58.2193 16.711 58.2435C18.2696 58.2698 19.8373 58.2225 21.4018 58.1301C23.7721 57.9883 26.1548 57.7755 28.4988 57.4795C30.3222 57.2479 32.0962 56.9261 33.8911 56.629C34.2871 56.5624 34.6739 56.4969 35.0731 56.4297C35.8145 56.3137 36.3104 56.2777 36.6703 56.3244C37.026 56.3593 37.2419 56.4389 37.4149 56.5673C37.4944 56.6274 37.5944 56.6854 37.6379 56.7451C37.7104 56.8477 37.5976 56.9476 37.3483 57.0545C37.0915 57.1631 36.688 57.3065 36.1546 57.4376C32.9724 58.0689 29.5647 58.583 26.1236 58.9387C23.5679 59.2084 20.9859 59.3889 18.391 59.4485L18.3873 59.419Z" fill="#2458A4"/>
<path id="Fill 15" fill-rule="evenodd" clip-rule="evenodd" d="M37.444 48.1121L37.4988 45.8541C37.502 45.5796 37.4698 45.3066 37.4767 45.0316C37.4961 44.0618 37.5262 43.0905 37.5149 42.1218C37.5165 41.691 37.4612 41.2622 37.4386 40.8367C37.3951 40.2925 37.3252 39.7461 37.3811 39.1987C37.3999 39.0273 37.5976 39.0246 37.8168 39.1466C38.0355 39.2685 38.2901 39.5183 38.3514 39.8326C38.5915 40.9469 38.6324 42.0703 38.5727 43.2098C38.5346 43.8904 38.6356 44.5905 38.6603 45.283C38.6845 46.0448 38.6995 46.8072 38.6974 47.5701L38.6915 48.9787C38.6941 49.69 38.6727 50.4046 38.6941 51.1116C38.7135 51.6617 38.7989 52.2017 38.8371 52.7572C38.8446 52.8797 38.865 53 38.8655 53.1241C38.8338 53.5856 38.7146 53.7334 38.3874 53.7898C38.3122 53.8032 38.237 53.8231 38.1633 53.8263C37.9162 53.8365 37.7233 53.634 37.6519 53.324C37.4504 52.3902 37.4391 51.3904 37.4209 50.3799C37.4182 49.6266 37.415 48.8697 37.4123 48.1143L37.444 48.1121Z" fill="#2458A4"/>
<path id="Fill 17" fill-rule="evenodd" clip-rule="evenodd" d="M25.9869 34.0676C24.5912 34.1407 23.1895 34.2245 21.7857 34.3309C21.2737 34.3696 20.7644 34.4399 20.2507 34.4749C18.4402 34.6016 16.6206 34.6919 14.7961 34.7048C13.987 34.7123 13.1731 34.7284 12.3672 34.7161C11.8498 34.7112 11.3287 34.693 10.8086 34.6495C10.2897 34.5828 9.77228 34.4791 9.2721 34.3099C8.95943 34.2052 9.03948 34.0891 9.33389 33.9903C9.62884 33.9005 10.1322 33.777 10.7055 33.7657C12.732 33.8731 14.7977 33.749 16.8897 33.684C18.1437 33.6502 19.4422 33.468 20.7241 33.3418C22.1349 33.2069 23.5511 33.0764 24.9715 32.9759C25.8456 32.9131 26.7224 32.8679 27.5987 32.8244C28.9273 32.7632 30.265 32.7578 31.5888 32.7648C32.6182 32.7605 33.633 32.753 34.6619 32.8045C34.888 32.8228 35.111 32.8282 35.3383 32.8567C36.1807 32.9663 36.4321 33.1205 36.5465 33.4546C36.5729 33.5325 36.611 33.612 36.6196 33.6867C36.647 33.9376 36.2768 34.0768 35.6832 34.0494C33.9162 33.9892 32.0729 33.9188 30.1957 33.9371C28.8037 33.9537 27.3972 34.0021 25.9912 34.0966L25.9869 34.0676Z" fill="#2458A4"/>
<path id="Fill 19" fill-rule="evenodd" clip-rule="evenodd" d="M32.3822 42.6327C31.2218 44.0505 30.1215 45.5317 29.0798 47.0574C28.6994 47.6146 28.369 48.2028 27.9972 48.7659L26.8996 50.4604L26.3608 51.3157L25.5452 52.6744C25.319 52.986 25.0773 53.1568 24.8839 53.2519C24.8388 53.2712 24.7872 53.3228 24.7055 53.29C24.6405 53.2712 24.5873 53.2422 24.5309 53.2094C24.4208 53.1444 24.309 53.066 24.193 52.9548C23.9587 52.741 23.7401 52.3692 23.5359 52.0173C23.4338 51.84 23.3307 51.6633 23.2361 51.4844L23.025 51.0905C22.5211 50.1573 21.9634 49.2553 21.3649 48.4108C20.9802 47.8692 20.5768 47.3438 20.154 46.8538C19.7306 46.3708 19.2933 45.8938 18.8178 45.5811C18.5395 45.4178 18.5852 45.14 19.066 45.0164C19.542 44.9004 20.4054 45.1164 21.0248 45.7084C22.1267 46.7464 22.9552 47.9197 23.7111 49.1189C23.9002 49.4181 24.0839 49.7195 24.2628 50.0214L24.5277 50.4754C24.5588 50.5275 24.5476 50.5141 24.5502 50.5232L24.5519 50.5383L24.5572 50.5743C24.5669 50.6258 24.5825 50.6946 24.6131 50.7843C24.6244 50.8144 24.6561 50.9133 24.6765 50.8848C24.6964 50.8773 24.7189 50.8654 24.7453 50.8483C24.7587 50.8391 24.7721 50.8278 24.7866 50.8144C24.8194 50.787 24.8533 50.7478 24.8882 50.7037L24.9414 50.6344L25.0913 50.3857C25.297 50.0359 25.5033 49.6846 25.7107 49.3321C26.1233 48.6257 26.5354 47.9127 26.977 47.2261C28.0026 45.6305 29.0884 44.0703 30.2397 42.5569C30.9489 41.6264 31.6822 40.7125 32.4451 39.8234C33.5986 38.4717 34.8595 37.1995 36.18 36.0063C37.2142 35.0881 38.2527 34.1705 39.5153 33.4683C39.7877 33.3066 40.0676 33.1626 40.3743 33.0487C41.5154 32.6275 41.9759 32.7565 42.266 33.1862C42.3337 33.2862 42.4153 33.3829 42.4551 33.486C42.5228 33.6606 42.4513 33.8406 42.2891 34.0039C42.1258 34.1689 41.8722 34.2984 41.5461 34.4633C39.6292 35.375 37.7837 36.8503 36.0592 38.5593C34.7832 39.8298 33.5567 41.2047 32.4182 42.6574L32.3822 42.6327Z" fill="#2458A4"/>
<path id="Fill 21" fill-rule="evenodd" clip-rule="evenodd" d="M18.0977 59.979C15.679 59.9678 13.2233 59.87 10.8271 59.0775C10.3866 58.9432 9.95949 58.745 9.54957 58.5005L9.24495 58.3087C9.1837 58.2808 9.1144 58.205 9.04939 58.1347C8.97632 58.0675 8.92475 57.9918 8.89036 57.9187C8.74047 57.642 8.69373 57.4201 8.62926 57.1859C8.30208 55.5919 8.24459 54.065 8.13929 52.5161L7.89914 47.8958C7.82984 46.5307 7.73475 45.1601 7.61333 43.8122C7.4543 42.0785 7.2394 40.3523 7.11799 38.6208C7.07662 38.0808 7.20609 38.1281 7.44033 38.5563C7.5596 38.7701 7.69982 39.0812 7.84918 39.4621C7.98618 39.8446 8.10276 40.3013 8.18066 40.802C8.67493 44.3596 8.80817 47.9259 8.92743 51.5083C8.96343 52.579 9.03542 53.6691 9.14448 54.7554C9.20143 55.2975 9.26697 55.8401 9.35723 56.3677C9.40397 56.6288 9.4534 56.8931 9.52378 57.13C9.5544 57.253 9.59792 57.361 9.6366 57.4529C9.66131 57.4878 9.66937 57.5329 9.68818 57.5399C9.70268 57.5577 9.70644 57.5716 9.765 57.6033C10.6783 58.2142 11.813 58.6085 12.9777 58.7971C14.142 59.0055 15.3357 59.0985 16.5316 59.1388C18.0048 59.1834 19.4854 59.1474 20.9628 59.0614C23.201 58.9335 25.4483 58.7101 27.6591 58.4173C29.3794 58.1889 31.0529 57.8865 32.7495 57.6108C33.124 57.5501 33.4904 57.49 33.8675 57.4287C35.2697 57.2117 35.757 57.324 36.0702 57.4932C36.1422 57.5378 36.2336 57.5808 36.2717 57.6243C36.3367 57.6973 36.2233 57.7656 35.9843 57.8322C35.7377 57.9063 35.3546 58.0057 34.8501 58.111C31.8464 58.6408 28.6374 59.1758 25.3935 59.5256C22.9834 59.7915 20.5476 59.9742 18.1009 60L18.0977 59.979Z" fill="#2458A4"/>
<path id="Stroke 24" fill-rule="evenodd" clip-rule="evenodd" d="M44.9893 5.01251C45.0092 4.79922 45.1989 4.64234 45.4121 4.66222C46.4705 4.76107 44.8851 6.12407 44.9893 5.01251Z" stroke="#2458A4" stroke-width="0.5"/>
<path id="Stroke 26" fill-rule="evenodd" clip-rule="evenodd" d="M45.7843 42.1043C45.8041 41.8911 45.9938 41.7336 46.2071 41.7535C47.2654 41.8529 45.68 43.2159 45.7843 42.1043Z" stroke="#2458A4" stroke-width="0.5"/>
<path id="Fill 28" fill-rule="evenodd" clip-rule="evenodd" d="M40.5528 11.3372C40.722 11.4033 40.8059 11.594 40.7403 11.7627C40.4137 12.6019 39.6717 10.9944 40.5528 11.3372Z" fill="#2458A4"/>
</g>
</svg>
