<svg width="60" height="61" viewBox="0 0 60 61" fill="none" xmlns="http://www.w3.org/2000/svg">
<g id="Icon">
<path id="Stroke 1" fill-rule="evenodd" clip-rule="evenodd" d="M47.4556 1.39529C47.8075 0.974756 48.3796 0.873944 48.7338 1.16947C50.4868 2.63671 45.6219 3.58434 47.4556 1.39529Z" stroke="#2458A4" stroke-width="1.2"/>
<path id="Stroke 3" fill-rule="evenodd" clip-rule="evenodd" d="M2.44798 18.0799C1.971 18.3507 1.39954 18.2447 1.172 17.8437C0.0434792 15.8557 4.93199 16.6714 2.44798 18.0799Z" stroke="#2458A4" stroke-width="1.2"/>
<path id="Fill 5" fill-rule="evenodd" clip-rule="evenodd" d="M55.5005 9.62112C55.853 9.20059 56.4251 9.09977 56.7788 9.3953C58.5317 10.8625 53.6669 11.8102 55.5005 9.62112Z" fill="#2458A4"/>
<path id="Fill 7" fill-rule="evenodd" clip-rule="evenodd" d="M36.6773 10.8058C36.9965 10.8882 37.3139 10.978 37.629 11.0748L38.1002 11.2257L38.1509 11.243L38.1624 11.2482L38.186 11.258L44.5556 7.46518L51.0911 12.9119L52.2173 13.8422C51.4725 15.6436 50.7276 17.4432 49.9839 19.2429L49.6354 20.0569L49.9004 20.4693C50.0565 20.717 50.2086 20.9676 50.3555 21.2211C50.5024 21.4751 50.6441 21.7309 50.7806 21.9901L50.9667 22.3531L51.0191 22.4666L58.0897 23.7512L59.394 33.557L58.0834 34.2466L55.2803 35.7288C54.4202 36.1902 53.5619 36.6516 52.707 37.1102L52.6718 37.3135L52.5877 37.7352C52.5278 38.021 52.4627 38.3044 52.3936 38.5872C52.3239 38.8689 52.2502 39.1489 52.1707 39.4283L51.9575 40.1322L51.9195 40.2492C53.3349 41.971 54.7526 43.6958 56.1697 45.4188L54.2209 48.0416C53.6529 48.7917 53.078 49.536 52.4938 50.2722C51.6896 51.2837 51.5053 50.9323 51.8746 49.8465C52.0595 49.3032 52.3821 48.5762 52.836 47.745C53.0624 47.329 53.3222 46.8872 53.6131 46.4287C53.7623 46.2017 53.9156 45.9684 54.0728 45.7299L54.1955 45.5519L54.2531 45.4689L54.252 45.4666L54.2485 45.462V45.4614C52.9236 43.8219 51.5986 42.1825 50.2719 40.5407L50.5732 39.6702L50.7213 39.2042C50.8071 38.9242 50.8878 38.6396 50.9626 38.3545C51.0381 38.0693 51.1078 37.7825 51.1718 37.4944L51.2639 37.0589L51.4258 36.1781C52.6569 35.5318 53.8885 34.8848 55.1213 34.2373L56.7752 33.3767L57.603 32.9475L57.8104 32.8398C57.872 32.8075 57.8392 32.8271 57.8587 32.8173L57.9031 32.8006C57.6208 30.4854 57.338 28.1656 57.054 25.8389C57.0246 25.5969 56.9958 25.3544 56.9658 25.1096C56.9589 25.0289 56.9514 24.9477 56.9445 24.8641L56.8293 24.8376L56.7694 24.8244L56.5799 24.7887L55.7141 24.6308C55.1357 24.5266 54.555 24.4235 53.9726 24.3186C52.7001 24.098 51.4206 23.8756 50.1377 23.6533L49.8192 23.0121L49.6135 22.6204C49.4827 22.3778 49.3474 22.1382 49.2074 21.9014C49.0668 21.6647 48.9216 21.4296 48.7719 21.1986L48.5138 20.8086L48.1065 20.2193C48.6198 18.9836 49.1325 17.7491 49.6435 16.5192L50.5991 14.249L44.4381 9.11331L40.1188 11.6912L38.3479 12.7512L37.731 12.5375L37.3335 12.409C37.0708 12.3272 36.8058 12.2506 36.5391 12.1797C36.2724 12.1083 36.0045 12.042 35.7349 11.9821L35.3259 11.8951L34.6945 11.7765C33.7797 10.1427 32.8661 8.51017 31.9524 6.87817C31.6955 6.41904 31.438 5.95934 31.1816 5.50137C28.5865 5.8447 25.9872 6.18862 23.4128 6.52965C23.1225 8.32237 22.835 10.0967 22.5493 11.8623C22.4669 12.3871 22.3839 12.9107 22.3039 13.42L21.7359 13.704L21.3401 13.9137C21.0889 14.0508 20.8407 14.1931 20.597 14.3405C20.3533 14.4874 20.1137 14.6389 19.878 14.7956L19.5174 15.041L18.9938 15.4115C16.7782 14.7346 14.5897 14.0669 12.3938 13.3969L12.3183 13.5035C11.8252 14.1695 11.343 14.8216 10.8465 15.4933C8.81698 18.1714 8.09113 18.9618 7.35895 19.3091C7.19247 19.3875 6.99372 19.5084 6.86872 19.5326C6.44588 19.6144 7.09396 18.3851 8.52664 16.3839C9.02091 15.6989 9.51748 15.0099 10.0181 14.3158C10.2704 13.9701 10.5233 13.6233 10.7773 13.2742C11.1472 12.7771 11.5182 12.2788 11.8909 11.7776C14.1456 12.4724 16.4435 13.1803 18.7708 13.8976L18.7841 13.8837L19.1361 13.6475C19.3884 13.4822 19.6453 13.3215 19.9063 13.1659C20.1672 13.0104 20.4322 12.8595 20.7012 12.7149L21.0728 12.5184L21.078 12.5133C21.4519 10.1733 21.8315 7.797 22.2111 5.41784L22.2278 5.31588C25.4521 4.87922 28.6838 4.4414 31.923 4.00244C33.142 6.17249 34.3644 8.34829 35.5863 10.5235L35.9238 10.5944L36.6785 10.7701L36.6773 10.8058Z" fill="#2458A4"/>
<path id="Fill 10" fill-rule="evenodd" clip-rule="evenodd" d="M23.9677 53.6661L23.5357 53.5284L23.4936 53.5094L17.7318 57.7781L12.1463 53.1482L10.0851 51.4644C10.6491 50.3278 11.2119 49.1929 11.7747 48.0592L13.1555 45.3534L12.8283 44.8309C12.6515 44.5435 12.4804 44.2543 12.3145 43.9628C12.148 43.6707 11.9861 43.377 11.8288 43.0791L11.5967 42.6286L11.5155 42.4535L4.55196 41.0076L3.93614 36.3524C3.74259 34.9554 3.54845 33.555 3.35547 32.1644C4.7242 31.3579 6.0843 30.5571 7.43403 29.7616L9.5937 28.4672L9.62251 28.2805L9.70661 27.8421C9.76595 27.5507 9.83162 27.2609 9.9042 26.9723C9.97621 26.6837 10.0551 26.3968 10.1398 26.1116L10.3201 25.5431L9.25382 23.9825C8.84885 23.3793 8.45021 22.7722 8.06079 22.1598C7.48472 21.2537 7.82921 21.1528 8.6046 21.6725C8.99229 21.9323 9.48771 22.3476 10.0292 22.8955C10.3 23.1697 10.5828 23.4767 10.8691 23.8143C11.1877 24.1979 11.3213 24.3402 12.0045 25.3051C11.9423 25.4912 11.879 25.6807 11.8144 25.8714L11.6422 26.3968L11.5339 26.7603C11.4636 27.0028 11.3979 27.2465 11.3363 27.4913C11.2752 27.7361 11.2188 27.9821 11.1664 28.2293L11.0857 28.6348L10.9463 29.4131L7.46398 31.4305L5.90802 32.3245L5.12918 32.771L4.93447 32.8816C4.87513 32.9156 4.91431 32.8919 4.89875 32.9L4.8832 32.9046C5.02952 34.0539 5.17584 35.2037 5.32274 36.3553L5.57736 38.3917C5.65167 39.0046 5.78071 40.0093 5.74672 39.8739L5.80606 39.894L5.83774 39.9044L5.86021 39.9113L5.95584 39.9321L6.72085 40.0997L8.25204 40.439C8.87823 40.5744 9.50729 40.7115 10.1427 40.8492C10.8841 41.0018 11.6318 41.1551 12.3876 41.3112L12.7425 42.033L12.9637 42.4564C13.1152 42.7381 13.2725 43.0192 13.4343 43.2975C13.5968 43.5763 13.7639 43.8534 13.9355 44.1253L14.2126 44.5556L14.6873 45.244C13.822 46.986 12.951 48.7401 12.0869 50.4816L11.773 51.0974L17.7629 56.0643L21.2274 53.4921L23.2477 51.9892L23.9988 52.2455L24.5006 52.4022L25.5162 52.6925L26.541 52.9535L27.0532 53.071L27.8084 53.2208L28.9455 55.7111C29.5205 56.9739 30.0959 58.2389 30.6686 59.497C32.9198 59.2061 36.8256 58.6848 39.063 58.3651L39.0705 58.3178C39.415 56.0251 39.7554 53.7617 40.0942 51.5099L40.7025 51.2022L41.0977 50.988C41.3477 50.848 41.5942 50.7034 41.8373 50.5548C42.0799 50.4056 42.3195 50.2512 42.5557 50.0922L42.9157 49.8433L43.4941 49.4303L43.5494 49.4475C44.3686 49.6953 45.1699 49.9378 45.9954 50.1884C48.726 51.0444 49.5641 51.4131 50.0354 51.9529C50.1425 52.0761 50.2923 52.2127 50.3436 52.3175C50.5175 52.6735 49.3349 52.5399 47.3152 51.9759C46.1314 51.6406 44.9343 51.3019 43.7228 50.9586L43.671 51.0075L43.3132 51.2564C43.0615 51.4269 42.8057 51.5922 42.5453 51.7524C42.285 51.912 42.0211 52.0664 41.7532 52.2144L41.3759 52.4189L41.3465 52.4419L41.3477 52.4782L41.2924 52.8515L41.1628 53.7064C41.0746 54.2779 40.9865 54.8511 40.8984 55.4254C40.6783 56.7999 40.4577 58.183 40.2359 59.5708C38.4645 59.8173 36.6637 60.0674 34.8617 60.3185C33.194 60.5449 31.5234 60.7725 29.8465 61C28.8493 58.8219 27.8493 56.6357 26.8486 54.4495L26.8337 54.4449L26.4598 54.362L25.6222 54.1592C25.0669 54.0186 24.5167 53.8677 23.9637 53.7007L23.9677 53.6661Z" fill="#2458A4"/>
<path id="Fill 12" fill-rule="evenodd" clip-rule="evenodd" d="M9.74969 50.6738L11.373 47.2041L11.941 45.927L12.1052 45.579L12.1461 45.492L12.1611 45.4655L12.1876 45.4177L11.1409 43.2183L10.9836 43.1837L10.6535 43.1227L9.99337 43.0011C9.27674 42.8703 8.55205 42.7638 7.83657 42.6635C6.91659 42.5345 5.98624 42.4492 5.08412 42.2119C4.52245 42.0639 5.37791 41.3582 6.43615 41.5189C7.2726 41.6462 8.10732 41.7827 8.94204 41.9337C9.35796 42.012 9.77446 42.0903 10.1933 42.1687L10.8183 42.2949L11.1311 42.3594L11.6853 42.4648L11.9226 42.9614L12.0476 43.2442C12.1934 43.5737 12.3506 43.9032 12.5137 44.2322C12.7095 44.6158 12.9065 45.0024 13.1041 45.3889C12.9014 45.8452 12.6986 46.302 12.4964 46.7559L10.8771 50.259L10.2388 51.6306L10.5545 51.9094C11.4618 52.6929 12.365 53.4901 13.2821 54.2477C13.9947 54.837 14.7269 55.3756 15.4499 55.9367C15.61 56.0588 15.7673 56.1792 15.928 56.3025C16.5127 56.7766 16.6585 56.9748 16.6337 57.2547C16.6279 57.3187 16.6314 57.3895 16.6141 57.4437C16.5548 57.6257 16.2258 57.5405 15.7707 57.2248C14.4216 56.2887 13.0897 55.1947 11.7659 54.0795C10.9087 53.3461 10.0487 52.6099 9.18745 51.8743L9.72953 50.6668L9.74969 50.6738Z" fill="#2458A4"/>
<path id="Fill 14" fill-rule="evenodd" clip-rule="evenodd" d="M2.96229 31.433L5.92904 29.873L6.96077 29.3044L8.75407 28.3769C8.77942 28.3619 8.82493 28.3585 8.81974 28.3199L8.85373 28.1569C8.89406 27.976 8.94245 27.8026 8.99487 27.6321C9.09914 27.2916 9.21608 26.9604 9.33763 26.632C9.45918 26.3071 9.58015 25.9816 9.70055 25.6585C9.5934 25.5306 9.48798 25.4038 9.38314 25.2777C8.88081 24.6763 8.34622 24.0973 7.92166 23.4348C7.65724 23.0212 8.62331 23.0414 9.19304 23.7407L9.81058 24.5098L10.6056 25.5214C10.3976 26.0433 10.1891 26.5658 9.97937 27.0911C9.81749 27.5203 9.65159 27.9622 9.54789 28.374C9.526 28.4726 9.51506 28.582 9.49778 28.6822C9.47819 28.7254 9.51045 28.8032 9.44823 28.817L9.3071 28.8908L8.88311 29.1126L8.23273 29.464C7.79953 29.7025 7.3646 29.9427 6.93197 30.1806L4.05739 31.7077L3.39837 32.0528L3.49458 32.9359C3.61152 33.9406 3.71809 34.9504 3.8575 35.9441C3.9658 36.7172 4.11673 37.4684 4.2498 38.2288L4.34024 38.7283C4.43472 39.3562 4.4088 39.563 4.22273 39.7249C4.18067 39.7612 4.13977 39.8078 4.09542 39.832C3.94621 39.9127 3.78319 39.673 3.67719 39.2179C3.36323 37.8688 3.157 36.4292 2.9692 34.9821C2.83383 33.868 2.69845 32.7487 2.5625 31.6311L2.94674 31.4203L2.96229 31.433Z" fill="#2458A4"/>
<path id="Fill 16" fill-rule="evenodd" clip-rule="evenodd" d="M20.4033 11.9129C20.4903 11.4792 20.5778 11.0448 20.6648 10.6122C20.6971 10.4543 20.7074 10.2925 20.742 10.1352C20.8664 9.57987 21.0099 9.028 21.147 8.47555C21.2075 8.23015 21.2495 7.98013 21.2904 7.73127C21.3417 7.41328 21.363 7.08089 21.5272 6.7871C21.6274 6.60621 22.2766 7.05151 22.1994 7.39024C22.0652 8.01009 21.912 8.63455 21.6954 9.25843C21.5669 9.63229 21.5329 10.039 21.4575 10.4325C21.3739 10.8645 21.2904 11.2983 21.2063 11.7315C21.1591 11.9988 21.1118 12.2672 21.0646 12.5334L20.9793 13.0899C20.5577 13.2604 20.3889 13.3525 20.1533 13.4919C19.8883 13.6538 19.6624 13.8652 19.4372 14.0697C19.3894 14.1158 19.3398 14.1636 19.2932 14.2086C19.1037 14.3699 19.0144 14.3825 18.8392 14.2587C18.7995 14.2305 18.7569 14.2057 18.7211 14.1752C18.599 14.0703 18.5967 13.901 18.7229 13.7397C19.0985 13.2661 19.6192 12.9044 20.1809 12.6146L20.2713 12.5691L20.2742 12.5708H20.2794C20.2794 12.5708 20.2806 12.5731 20.2817 12.5674L20.2904 12.5069L20.3088 12.3876L20.3843 11.9112L20.4033 11.9129Z" fill="#2458A4"/>
<path id="Fill 18" fill-rule="evenodd" clip-rule="evenodd" d="M41.0605 52.9786L41.0525 52.7148C41.1608 52.6353 41.2622 52.5811 41.3728 52.5108L41.5375 52.41L41.6257 52.3524C41.7299 52.2862 41.8417 52.1986 41.95 52.1082C42.1683 51.9273 42.3849 51.728 42.5958 51.5211C42.7617 51.3581 42.9086 51.1767 43.071 51.0096L43.332 50.7394L43.5094 50.5459L43.7225 50.3074C44.2888 50.4111 44.4881 50.4681 44.7871 50.5418L45.6426 50.7705C46.0084 50.8713 46.3713 50.971 46.7342 51.0701C47.1962 51.2089 47.6934 51.3264 48.0949 51.7049C48.221 51.8253 48.0621 51.9549 47.8524 52.0436C47.6427 52.1295 47.3996 52.1986 47.1726 52.1047C46.3638 51.7666 45.4375 51.516 44.5262 51.2216C44.4098 51.1859 44.2917 51.153 44.1719 51.1254L44.0693 51.1C44.0497 51.0949 44.0296 51.0897 44.01 51.0874L43.8003 51.3276C43.6857 51.4589 43.5687 51.5897 43.4478 51.7153C42.9892 52.1802 42.4995 52.6865 41.9436 53.0408C41.9033 53.0765 41.8313 53.0662 41.829 53.1088L41.8048 53.8917C41.7789 54.5121 41.7011 55.1302 41.6147 55.742C41.5444 56.2161 41.5012 56.6919 41.3791 57.1655C41.3578 57.2703 41.3301 57.3734 41.2961 57.4771C41.17 57.8619 41.0427 57.9547 40.8313 57.9403C40.7817 57.9362 40.7293 57.938 40.6832 57.9264C40.5277 57.8855 40.4741 57.6879 40.5409 57.4351C40.7103 56.6649 40.8583 55.8537 40.9494 55.0104C40.9787 54.6976 41.0104 54.383 41.026 54.0674L41.0456 53.5921L41.0496 53.3548L41.049 53.2154L41.0409 52.9751L41.0605 52.9786Z" fill="#2458A4"/>
<path id="Fill 20" fill-rule="evenodd" clip-rule="evenodd" d="M25.8167 28.7838C24.4774 30.5039 24.0361 32.9159 24.7418 35.0347C24.9912 35.8066 25.4112 36.5123 25.9055 37.1523C26.3346 37.7266 26.8784 38.2099 27.4654 38.6247C28.0542 39.0406 28.7132 39.3627 29.4103 39.5643C30.7963 39.9911 32.3326 39.9641 33.7377 39.5009C34.9872 39.0913 36.1116 38.301 36.9153 37.2836C37.9666 35.9713 38.4534 34.3209 38.5835 32.6745C38.6135 32.1635 38.9707 32.1745 39.3342 32.6544C39.6879 33.1198 39.9903 34.1498 39.6395 35.2703C39.0432 37.2272 37.7102 38.9606 35.9457 40.0027C34.1985 41.0592 32.0821 41.433 30.0987 41.0649C27.7448 40.626 25.455 39.2244 24.2135 37.0993C23.5361 35.9454 23.1294 34.6303 23.0712 33.3019C23.0136 31.9729 23.2792 30.6364 23.831 29.4353C24.1859 28.7025 24.6404 28.0239 25.1773 27.4179C25.7211 26.8171 26.3594 26.3101 27.0443 25.8873C29.1435 24.6171 31.8096 24.4079 34.0666 25.2467C35.8196 25.881 37.3888 27.0089 38.4545 28.581C38.5657 28.7573 38.6763 28.9324 38.7869 29.1075C38.8871 29.2884 38.981 29.4745 39.0744 29.664C39.3987 30.3823 39.4926 30.906 39.5001 31.2701C39.5024 31.6376 39.4085 31.8577 39.2414 32.0345C39.1654 32.1146 39.0888 32.2154 39.0075 32.2615C38.7189 32.4141 38.504 31.8519 38.1665 30.9567C37.6411 29.6294 36.7367 28.4347 35.5632 27.5706C34.3955 26.703 32.9634 26.1632 31.51 26.1102C30.4339 26.0659 29.3394 26.2998 28.3566 26.7548C27.3658 27.2065 26.5109 27.9369 25.8461 28.8016L25.8167 28.7838Z" fill="#2458A4"/>
<path id="Fill 22" fill-rule="evenodd" clip-rule="evenodd" d="M28.2091 32.0764C28.2339 31.9128 28.3543 31.2941 28.7132 30.5297C28.8848 30.146 29.1279 29.7313 29.4252 29.3188C29.7219 28.9012 30.1193 28.4991 30.5088 28.1799C31.2957 27.5313 32.2249 27.0359 33.0832 26.9523C33.5066 26.9016 33.8834 26.9287 34.1489 26.9875C34.4134 27.0428 34.566 27.1165 34.5821 27.1142C34.7204 27.1499 34.7872 27.3083 34.7959 27.4961C34.8091 27.7847 34.6369 28.0371 34.4617 28.1834C34.3396 28.2853 34.2423 28.362 34.1737 28.3792C33.9122 28.4017 33.6714 28.4922 33.4145 28.6091C33.2462 28.6892 33.0803 28.7802 32.9064 28.8839C32.7284 28.9709 32.5509 29.0838 32.3781 29.203C32.0976 29.4035 31.7698 29.5901 31.597 29.9064C31.4668 30.1466 31.3274 30.3229 31.1816 30.543C31.0428 30.7578 30.9143 30.9894 30.878 31.2579C30.8101 31.7625 30.6344 32.2228 30.6292 32.7165C30.6251 33.3559 30.6718 33.978 30.8694 34.5092C30.9333 34.6757 31.0647 34.8076 31.1373 34.9499C31.1828 35.068 31.2098 35.0893 31.2294 35.1757C31.2738 35.2431 31.3003 35.3226 31.3717 35.3825C31.5273 35.5467 31.7894 35.644 32.0296 35.7546C32.4029 35.9177 32.8326 36.0346 33.2491 36.045C33.3707 36.0536 33.4859 35.9782 33.5999 35.9862C33.7451 35.977 33.8995 36.0237 34.0372 35.9943C34.2405 35.9545 34.4145 35.8693 34.5464 35.7673C34.5597 35.7569 34.5545 35.7172 34.5579 35.6942C34.5545 35.6083 34.668 35.451 34.7561 35.3583C34.8523 35.2569 34.9479 35.1647 35.0551 35.0801C35.414 34.7667 35.6888 34.4084 35.8783 34.0616C35.9664 33.9078 36.7499 32.853 36.0217 31.2481C35.9428 31.0614 35.8253 30.8431 35.7469 30.6824C35.7095 30.6173 35.6819 30.5614 35.6381 30.5188C35.5592 30.4329 35.3979 30.3621 35.2049 30.3436C34.8034 30.3096 34.4635 30.4721 34.445 30.4842C34.4295 30.498 34.4105 30.5055 34.3943 30.5182C34.3402 30.5602 34.2048 30.5009 34.2832 30.7296C34.312 30.8097 34.2526 30.7849 34.2192 30.7918C34.1858 30.7953 34.123 30.7653 34.2031 30.8972C34.24 30.9566 34.2019 30.952 34.1628 30.937C34.0516 30.8949 33.9404 30.8667 33.8736 30.884C33.805 30.8978 33.7618 30.9497 33.839 31.062C33.8805 31.1242 33.7854 31.1058 33.7837 31.1444C33.8079 31.3166 33.6103 31.3696 33.8108 31.5442C33.8759 31.5937 33.7238 31.6455 33.6794 31.7158C33.6633 31.7423 33.6195 31.7706 33.657 31.7965C33.7935 31.8956 33.786 31.986 33.7457 32.115C33.6852 32.2907 33.8333 32.4181 33.903 32.5442L34.0147 32.7032C34.055 32.7476 34.0954 32.7862 34.1265 32.8346C34.2181 32.9279 34.2941 33.0344 34.3494 33.016C34.3719 33.012 34.4064 32.9532 34.4168 32.9619C34.4635 32.9549 34.4773 32.902 34.5263 32.8697C34.5528 32.8466 34.6127 32.9112 34.6421 32.8996C34.8414 32.8651 35.2487 32.5241 35.3224 32.3633C35.3258 32.3524 35.3408 32.3328 35.3333 32.3282L35.3293 32.319C35.3293 32.319 35.3253 32.3149 35.3328 32.3161L35.3904 32.3328C35.554 32.3737 35.6957 32.3789 35.7694 32.3737C35.7878 32.376 35.8408 32.3639 35.8408 32.3639L35.8466 32.3633L35.8518 32.3616L35.8547 32.3604L35.8564 32.3599H35.857H35.8576C36.2631 32.2015 35.3057 32.5747 35.4042 32.5367V32.5373C35.4105 32.5379 35.3979 32.5471 35.4215 32.5402C35.4722 32.52 35.5223 32.4964 35.5712 32.4705C35.6628 32.4267 35.7832 32.3247 35.8259 32.3115C36.1185 32.1006 36.0857 31.9964 36.0747 32.1058C36.0713 32.1323 36.0724 32.1565 36.0765 32.1767C36.0776 32.2078 36.0782 32.2591 36.0868 32.2948C36.1064 32.3604 36.126 32.4584 36.1629 32.535C36.2043 32.6099 36.2251 32.6767 36.2683 32.7297C36.3132 32.7919 36.2706 32.7372 36.266 32.7395C36.2625 32.7378 36.2343 32.7303 36.2337 32.7251C36.1946 32.6986 36.1012 32.6341 35.9958 32.5822C35.7988 32.4722 35.4975 32.459 35.475 32.4768C35.4197 32.4976 35.4866 32.4734 35.4837 32.4682C35.4935 32.4601 35.4964 32.4538 35.4964 32.4538L35.4969 32.4526C35.4969 32.4526 35.5136 32.4399 35.4468 32.4952C35.3512 32.5736 35.2487 32.6479 35.13 32.7055C34.8944 32.8236 34.5885 32.8507 34.3661 32.7533C34.127 32.6583 33.9871 32.4906 33.9963 32.4054C33.9946 32.1352 34.1766 31.3506 34.865 30.8218C35.0378 30.6829 35.2504 30.5522 35.5211 30.4537C35.6542 30.4041 35.8236 30.3753 35.9837 30.3517C36.1663 30.3529 36.3495 30.3396 36.5442 30.3989C36.9406 30.4859 37.296 30.7532 37.5068 31.0171C37.6382 31.1605 37.6923 31.2815 37.7718 31.4174C37.8479 31.5419 37.9095 31.7078 37.959 31.8783C38.1417 32.5707 37.9665 33.1992 37.7666 33.6468C37.5552 34.1007 37.2925 34.4452 37.0333 34.7264C36.5223 35.284 35.9618 35.5743 35.7469 35.655C35.482 35.7558 35.2164 35.8117 34.9381 35.8595C34.6444 35.8825 34.3511 35.901 34.0585 35.8457C33.4847 35.7679 32.9023 35.492 32.4939 35.1423C31.9161 34.6699 31.5048 34.1111 31.2479 33.5045C30.9915 32.8812 30.908 32.2228 30.912 31.5292C30.9109 30.9877 30.9886 30.3482 31.2179 29.8039C31.2554 29.7249 31.3141 29.6575 31.3642 29.5861C31.4276 29.4974 31.4967 29.4127 31.5549 29.3234C31.6436 29.1921 31.7364 29.0561 31.8274 28.9213C31.8631 28.866 31.9098 28.824 31.9455 28.7704C31.9691 28.7341 31.9616 28.6615 32.0025 28.6471C32.1938 28.5786 32.3505 28.4881 32.5048 28.3954C32.65 28.2923 32.7935 28.1903 32.9421 28.0849C33.0095 28.0376 33.0953 28.0232 33.1616 27.9748C33.7964 27.5278 34.6259 27.1309 35.5159 27.359C35.687 27.4091 35.8339 27.4282 36.0304 27.3608C36.1421 27.3193 36.2666 27.3394 36.3593 27.4017C36.5863 27.5607 36.834 27.6534 37.0886 27.749C37.3375 27.8637 37.6117 27.9662 37.8029 28.177C38.0126 28.3741 38.1981 28.5763 38.3658 28.7975L38.4913 28.9634L38.5656 29.0884C38.6117 29.1708 38.6532 29.256 38.686 29.3465C38.8318 29.7082 39.1089 30.0291 39.2535 30.4156C39.3122 30.6207 39.5369 31.1795 39.6596 31.827C39.7783 32.4757 39.78 33.186 39.7316 33.4965C39.6826 33.9389 39.553 34.3669 39.4084 34.7753C39.0588 35.7506 38.4919 36.5761 37.8686 37.2553C37.4803 37.6706 37.0759 38.0387 36.6462 38.3798C36.0603 38.828 35.3979 39.1131 34.744 39.2675C34.5049 39.3303 33.6305 39.4657 32.555 39.2612C31.4933 39.0388 30.1937 38.5353 29.2005 37.3907C28.9574 37.1032 28.7408 36.7806 28.5697 36.4252C28.4199 36.0997 28.3203 35.8076 28.2385 35.5035C28.0789 34.9038 28.0265 34.3404 28.0225 33.8565C28.0259 32.8875 28.1959 32.2343 28.2091 32.0764Z" fill="#2458A4"/>
<path id="Fill 24" fill-rule="evenodd" clip-rule="evenodd" d="M33.3915 32.252C33.4169 32.2341 33.2481 31.4685 32.9428 31.3637C32.8086 31.2767 32.5718 31.3245 32.4007 31.4777C32.3149 31.5486 32.2503 31.631 32.2043 31.6903C32.1564 31.7485 32.1397 31.7963 32.1363 31.7992C32.1253 31.8389 32.0401 31.8372 31.9047 31.8199C31.7019 31.7929 31.4715 31.7226 31.3551 31.6028C31.2774 31.5221 31.2157 31.4282 31.2267 31.3683C31.2687 31.1263 31.3776 30.885 31.5366 30.6655C31.7555 30.3844 32.0844 30.1482 32.4796 30.0405C32.8091 29.9517 33.1536 30.0076 33.4854 30.0531C34.0275 30.1251 34.3305 30.5537 34.6675 30.8429C35.0149 31.1373 35.133 31.5365 35.3029 31.9766C35.4948 32.5769 35.3865 33.2733 35.1099 33.8563C35.0333 34.047 34.9538 34.2434 34.8259 34.4105C34.6428 34.6213 34.4146 34.7792 34.1744 34.9307C33.8887 35.1364 33.5413 35.3288 33.1098 35.4065C32.7792 35.4555 32.4007 35.4394 32.0199 35.2907C31.6518 35.1484 31.3085 34.8794 31.1011 34.5914C30.9519 34.4168 30.8419 34.2797 30.7699 34.1058C30.661 33.8638 30.6742 33.657 30.6431 33.4617C30.5774 33.1702 30.5942 32.8649 30.5705 32.5619C30.5665 32.5331 30.5463 32.4928 30.536 32.4559C30.4928 32.2779 30.4933 32.0924 30.5198 31.9144C30.5556 31.7393 30.6431 31.5791 30.7128 31.415C31.0003 30.855 31.5516 30.4103 32.0188 30.1488C32.1167 30.0808 32.7665 29.8492 33.2527 29.7398C33.8311 29.5571 33.732 29.6487 33.8576 29.5773C33.8553 29.5571 33.9135 29.4465 33.9204 29.3987C33.9307 29.34 33.9538 29.2789 33.9503 29.2374C33.9636 29.1429 33.9613 29.079 33.9509 29.0295C33.94 28.9298 33.9065 28.8722 33.8962 28.8653C33.8904 28.8618 33.8887 28.8555 33.8835 28.8509C33.8685 28.8371 33.9284 28.757 33.7481 28.8543C33.6836 28.8906 33.7153 28.8538 33.7176 28.8376C33.7205 28.8232 33.7619 28.7754 33.6473 28.8549C33.5966 28.8906 33.6076 28.8664 33.6266 28.8388C33.7354 28.689 33.8034 28.5098 33.6087 28.6297C33.5546 28.6648 33.5926 28.5888 33.5626 28.5911C33.4307 28.6084 33.4209 28.4338 33.2216 28.549C33.1536 28.5922 33.179 28.4482 33.1559 28.3923C33.1467 28.3704 33.1444 28.3318 33.115 28.3503C33.0015 28.4223 32.9376 28.3894 32.8955 28.299C32.8379 28.1769 32.6939 28.2247 32.5914 28.2005L32.2861 28.1492C32.1507 28.1181 32.0211 28.0513 31.8696 28.064C31.8229 28.0669 31.7653 28.1129 31.7181 28.1106C31.5919 28.1003 31.4571 28.1429 31.3286 28.1469C31.2653 28.1475 31.2117 28.0801 31.1478 28.0686C30.8568 28.0018 30.5567 27.9424 30.2549 27.9096C30.1373 27.8952 30.0192 27.9516 29.9034 27.909C29.7145 27.8387 29.5221 27.8059 29.3412 27.8894C29.2139 27.9511 29.0728 27.8168 28.9403 27.788C28.7939 27.7558 28.647 27.7379 28.5336 27.7287C28.4495 27.7183 28.2766 27.1918 28.1752 26.6572C28.0693 26.1244 28.0739 25.5708 28.1246 25.5708C28.2697 25.5529 29.0537 25.3253 29.8389 25.2297C30.6241 25.122 31.4387 25.1105 31.5948 25.1525C31.994 25.243 32.388 25.3616 32.7861 25.482C33.0591 25.5679 33.346 25.6191 33.6237 25.7338C33.9054 25.8455 34.1669 26.0247 34.4521 26.1693C34.6767 26.2862 34.9383 26.3698 35.1848 26.5132C35.2217 26.5322 35.2453 26.5743 35.2741 26.6065C35.3104 26.6474 35.3398 26.6952 35.3824 26.7286C35.4458 26.7788 35.519 26.8191 35.5864 26.8761C35.6129 26.8974 35.6365 26.9228 35.6687 26.9401C35.6895 26.9516 35.7442 26.9349 35.7465 26.9614C35.7661 27.2074 35.8928 27.3635 36.027 27.5265C36.0558 27.5657 36.0564 27.6221 36.0875 27.6607C36.3808 28.0167 36.6941 28.5231 36.5507 29.0185C36.5305 29.1159 36.5092 29.1936 36.6025 29.2852C36.6555 29.3371 36.6584 29.401 36.6227 29.4517C36.4441 29.6891 36.5881 29.9558 36.4994 30.1822C36.4579 30.2807 36.4309 30.3919 36.39 30.5278C36.3387 30.6822 36.2673 30.8349 36.1676 30.9656C35.9608 31.2058 35.8433 31.5244 35.5691 31.7145C35.4677 31.8096 34.9826 32.1224 34.7079 32.2353C34.3829 32.3868 34.1191 32.479 34.0079 32.5175C33.8455 32.5734 33.6997 32.5936 33.5816 32.6368C33.4428 32.6846 33.3264 32.7359 33.285 32.7641C33.2539 32.7877 33.2458 32.7831 33.2562 32.8033C33.2487 32.8102 33.2619 32.8263 33.2711 32.8321C33.2855 32.8401 33.2798 32.9473 33.3086 33.0009C33.3143 32.9991 33.2999 33.0746 33.2959 33.0602C33.342 33.0354 33.1404 33.1115 33.0355 33.1927C32.9618 33.2238 32.8915 33.2647 32.8253 33.35C32.7792 33.377 32.8212 33.4145 32.8287 33.146C32.8184 33.1132 32.8235 33.0291 32.8091 32.9726C32.8005 32.93 32.8045 32.9876 32.8172 32.9703C32.8391 32.9749 32.8725 32.9853 32.9146 32.9675C33.0983 32.9352 33.2746 32.7497 33.338 32.5994C33.3489 32.559 33.3656 32.521 33.3817 32.4847C33.3817 32.4467 33.3846 32.4116 33.3921 32.3804C33.414 32.3177 33.3985 32.2681 33.3915 32.252Z" fill="#2458A4"/>
</g>
</svg>
