<svg width="40" height="20" viewBox="0 0 40 20" fill="none" xmlns="http://www.w3.org/2000/svg">
<path d="M5.124 14.5V12.33H0.616V11.07C0.662667 10.9767 0.728 10.8647 0.812 10.734C0.905333 10.594 1.008 10.4353 1.12 10.258L4.564 5.26H6.874V10.93H8.372V12.33H6.874V14.5H5.124ZM2.268 10.93H5.138V7.878C5.138 7.682 5.14267 7.472 5.152 7.248C5.16133 7.024 5.17067 6.80467 5.18 6.59H5.152C5.04933 6.79533 4.92333 7.01933 4.774 7.262C4.634 7.49533 4.50333 7.70533 4.382 7.892L2.45 10.664C2.422 10.7107 2.38933 10.7573 2.352 10.804C2.324 10.8413 2.296 10.8833 2.268 10.93ZM10.7097 12.358C11.0083 12.358 11.2557 12.4327 11.4517 12.582C11.6477 12.722 11.797 12.9133 11.8997 13.156C12.0023 13.3893 12.0537 13.6507 12.0537 13.94C12.0537 14.3227 11.9743 14.6913 11.8157 15.046C11.6663 15.4007 11.4563 15.718 11.1857 15.998C10.915 16.278 10.607 16.4973 10.2617 16.656L9.43567 15.998C9.68767 15.8953 9.91634 15.7693 10.1217 15.62C10.3363 15.4707 10.5183 15.3027 10.6677 15.116C10.817 14.9293 10.9243 14.738 10.9897 14.542L10.9197 14.5C10.873 14.528 10.817 14.5513 10.7517 14.57C10.6863 14.598 10.593 14.612 10.4717 14.612C10.3223 14.612 10.173 14.5747 10.0237 14.5C9.87434 14.416 9.74834 14.2993 9.64567 14.15C9.54301 13.9913 9.49167 13.7953 9.49167 13.562C9.49167 13.31 9.54767 13.0953 9.65967 12.918C9.77167 12.7407 9.92101 12.6053 10.1077 12.512C10.2943 12.4093 10.495 12.358 10.7097 12.358ZM16.7052 14.64C15.8932 14.64 15.2072 14.472 14.6472 14.136C14.0965 13.8 13.6438 13.2867 13.2892 12.596L15.0252 11.728C15.1465 12.1387 15.3378 12.47 15.5992 12.722C15.8605 12.974 16.2432 13.1 16.7472 13.1C17.0925 13.1 17.3865 13.0393 17.6292 12.918C17.8718 12.7967 18.0585 12.6193 18.1892 12.386C18.3292 12.1527 18.3992 11.868 18.3992 11.532C18.3992 11.196 18.3338 10.916 18.2032 10.692C18.0818 10.4587 17.9045 10.286 17.6712 10.174C17.4378 10.0527 17.1438 9.992 16.7892 9.992C16.5465 9.992 16.3178 10.0153 16.1032 10.062C15.8978 10.1087 15.7112 10.1833 15.5432 10.286C15.3752 10.3793 15.2258 10.5053 15.0952 10.664L13.5832 10.384L14.1572 5.26H19.7432V6.814H15.6132L15.3332 9.068L15.2912 9.25H15.3192C15.5152 9.026 15.7812 8.85333 16.1172 8.732C16.4625 8.61067 16.8545 8.55 17.2932 8.55C17.8998 8.55 18.4178 8.67133 18.8472 8.914C19.2765 9.15667 19.6078 9.49733 19.8412 9.936C20.0745 10.3653 20.1912 10.86 20.1912 11.42C20.1912 11.952 20.1025 12.4233 19.9252 12.834C19.7478 13.2353 19.4958 13.5713 19.1692 13.842C18.8518 14.1033 18.4832 14.304 18.0632 14.444C17.6432 14.5747 17.1905 14.64 16.7052 14.64Z" fill="#E44B60"/>
<path d="M32 3L33.975 7.2817L38.6574 7.83688L35.1955 11.0383L36.1145 15.6631L32 13.36L27.8855 15.6631L28.8045 11.0383L25.3426 7.83688L30.025 7.2817L32 3Z" fill="#E44B60" stroke="#E44B60" stroke-linejoin="round"/>
</svg>
