<svg width="86" height="14" viewBox="0 0 86 14" fill="none" xmlns="http://www.w3.org/2000/svg">
<circle cx="7" cy="7" r="7" fill="#F27E38"/>
<path d="M6.67321 3.70848C6.80184 3.42962 7.19816 3.42962 7.32679 3.70848L8.04417 5.26376C8.0966 5.37742 8.2043 5.45567 8.32859 5.47041L10.0294 5.67207C10.3344 5.70823 10.4569 6.08516 10.2314 6.29366L8.97393 7.45654C8.88204 7.54152 8.8409 7.66814 8.86529 7.79089L9.19909 9.47081C9.25894 9.77202 8.9383 10.005 8.67033 9.85498L7.17578 9.01839C7.06657 8.95726 6.93343 8.95726 6.82422 9.01839L5.32967 9.85498C5.0617 10.005 4.74106 9.77202 4.80091 9.47082L5.13471 7.79089C5.1591 7.66813 5.11796 7.54152 5.02607 7.45654L3.76859 6.29366C3.54313 6.08516 3.6656 5.70823 3.97056 5.67207L5.67141 5.47041C5.7957 5.45567 5.9034 5.37742 5.95583 5.26376L6.67321 3.70848Z" fill="white"/>
<circle cx="25" cy="7" r="7" fill="#F27E38"/>
<path d="M24.6732 3.70848C24.8018 3.42962 25.1982 3.42962 25.3268 3.70848L26.0442 5.26376C26.0966 5.37742 26.2043 5.45567 26.3286 5.47041L28.0294 5.67207C28.3344 5.70823 28.4569 6.08516 28.2314 6.29366L26.9739 7.45654C26.882 7.54152 26.8409 7.66814 26.8653 7.79089L27.1991 9.47081C27.2589 9.77202 26.9383 10.005 26.6703 9.85498L25.1758 9.01839C25.0666 8.95726 24.9334 8.95726 24.8242 9.01839L23.3297 9.85498C23.0617 10.005 22.7411 9.77202 22.8009 9.47082L23.1347 7.79089C23.1591 7.66813 23.118 7.54152 23.0261 7.45654L21.7686 6.29366C21.5431 6.08516 21.6656 5.70823 21.9706 5.67207L23.6714 5.47041C23.7957 5.45567 23.9034 5.37742 23.9558 5.26376L24.6732 3.70848Z" fill="white"/>
<circle cx="43" cy="7" r="7" fill="#F27E38"/>
<path d="M42.6732 3.70848C42.8018 3.42962 43.1982 3.42962 43.3268 3.70848L44.0442 5.26376C44.0966 5.37742 44.2043 5.45567 44.3286 5.47041L46.0294 5.67207C46.3344 5.70823 46.4569 6.08516 46.2314 6.29366L44.9739 7.45654C44.882 7.54152 44.8409 7.66814 44.8653 7.79089L45.1991 9.47081C45.2589 9.77202 44.9383 10.005 44.6703 9.85498L43.1758 9.01839C43.0666 8.95726 42.9334 8.95726 42.8242 9.01839L41.3297 9.85498C41.0617 10.005 40.7411 9.77202 40.8009 9.47082L41.1347 7.79089C41.1591 7.66813 41.118 7.54152 41.0261 7.45654L39.7686 6.29366C39.5431 6.08516 39.6656 5.70823 39.9706 5.67207L41.6714 5.47041C41.7957 5.45567 41.9034 5.37742 41.9558 5.26376L42.6732 3.70848Z" fill="white"/>
<circle cx="61" cy="7" r="7" fill="#F27E38"/>
<path d="M60.6732 3.70848C60.8018 3.42962 61.1982 3.42962 61.3268 3.70848L62.0442 5.26376C62.0966 5.37742 62.2043 5.45567 62.3286 5.47041L64.0294 5.67207C64.3344 5.70823 64.4569 6.08516 64.2314 6.29366L62.9739 7.45654C62.882 7.54152 62.8409 7.66814 62.8653 7.79089L63.1991 9.47081C63.2589 9.77202 62.9383 10.005 62.6703 9.85498L61.1758 9.01839C61.0666 8.95726 60.9334 8.95726 60.8242 9.01839L59.3297 9.85498C59.0617 10.005 58.7411 9.77202 58.8009 9.47082L59.1347 7.79089C59.1591 7.66813 59.118 7.54152 59.0261 7.45654L57.7686 6.29366C57.5431 6.08516 57.6656 5.70823 57.9706 5.67207L59.6714 5.47041C59.7957 5.45567 59.9034 5.37742 59.9558 5.26376L60.6732 3.70848Z" fill="white"/>
<circle cx="79" cy="7" r="7" fill="#F27E38"/>
<path d="M78.6732 3.70848C78.8018 3.42962 79.1982 3.42962 79.3268 3.70848L80.0442 5.26376C80.0966 5.37742 80.2043 5.45567 80.3286 5.47041L82.0294 5.67207C82.3344 5.70823 82.4569 6.08516 82.2314 6.29366L80.9739 7.45654C80.882 7.54152 80.8409 7.66814 80.8653 7.79089L81.1991 9.47081C81.2589 9.77202 80.9383 10.005 80.6703 9.85498L79.1758 9.01839C79.0666 8.95726 78.9334 8.95726 78.8242 9.01839L77.3297 9.85498C77.0617 10.005 76.7411 9.77202 76.8009 9.47082L77.1347 7.79089C77.1591 7.66813 77.118 7.54152 77.0261 7.45654L75.7686 6.29366C75.5431 6.08516 75.6656 5.70823 75.9706 5.67207L77.6714 5.47041C77.7957 5.45567 77.9034 5.37742 77.9558 5.26376L78.6732 3.70848Z" fill="white"/>
</svg>
