<svg width="88" height="15" viewBox="0 0 88 15" fill="none" xmlns="http://www.w3.org/2000/svg">
<path d="M8 1L9.97496 5.2817L14.6574 5.83688L11.1955 9.0383L12.1145 13.6631L8 11.36L3.8855 13.6631L4.80445 9.0383L1.3426 5.83688L6.02504 5.2817L8 1Z" fill="#E44B60" stroke="#E44B60" stroke-linejoin="round"/>
<path d="M26 1L27.975 5.2817L32.6574 5.83688L29.1955 9.0383L30.1145 13.6631L26 11.36L21.8855 13.6631L22.8045 9.0383L19.3426 5.83688L24.025 5.2817L26 1Z" fill="#E44B60" stroke="#E44B60" stroke-linejoin="round"/>
<path d="M44 1L45.975 5.2817L50.6574 5.83688L47.1955 9.0383L48.1145 13.6631L44 11.36L39.8855 13.6631L40.8045 9.0383L37.3426 5.83688L42.025 5.2817L44 1Z" fill="#E44B60" stroke="#E44B60" stroke-linejoin="round"/>
<path d="M62 1L63.975 5.2817L68.6574 5.83688L65.1955 9.0383L66.1145 13.6631L62 11.36L57.8855 13.6631L58.8045 9.0383L55.3426 5.83688L60.025 5.2817L62 1Z" fill="#E44B60" stroke="#E44B60" stroke-linejoin="round"/>
<path d="M80 1L81.975 5.2817L86.6574 5.83688L83.1955 9.0383L84.1145 13.6631L80 11.36L75.8855 13.6631L76.8045 9.0383L73.3426 5.83688L78.025 5.2817L80 1Z" fill="#E44B60" stroke="#E44B60" stroke-linejoin="round"/>
</svg>
