<svg width="86" height="14" viewBox="0 0 86 14" fill="none" xmlns="http://www.w3.org/2000/svg">
<rect width="14" height="14" fill="#00B67A"/>
<path d="M12 5.82158H8.18135L7.00184 1.99988L5.81865 5.82158L2 5.81771L5.09252 8.18205L3.90933 11.9999L7.00184 9.63941L10.0907 11.9999L8.91117 8.18205L12 5.82158Z" fill="white"/>
<path d="M9.17667 9.04684L8.91128 8.1825L7.00195 9.63986L9.17667 9.04684Z" fill="#00B67A"/>
<rect x="18" width="14" height="14" fill="#00B67A"/>
<path d="M30 5.82158H26.1813L25.0018 1.99988L23.8187 5.82158L20 5.81771L23.0925 8.18205L21.9093 11.9999L25.0018 9.63941L28.0907 11.9999L26.9112 8.18205L30 5.82158Z" fill="white"/>
<path d="M27.1767 9.04684L26.9113 8.1825L25.002 9.63986L27.1767 9.04684Z" fill="#00B67A"/>
<rect x="36" width="14" height="14" fill="#00B67A"/>
<path d="M48 5.82158H44.1813L43.0018 1.99988L41.8187 5.82158L38 5.81771L41.0925 8.18205L39.9093 11.9999L43.0018 9.63941L46.0907 11.9999L44.9112 8.18205L48 5.82158Z" fill="white"/>
<path d="M45.1767 9.04684L44.9113 8.1825L43.002 9.63986L45.1767 9.04684Z" fill="#00B67A"/>
<rect x="54" width="14" height="14" fill="#00B67A"/>
<path d="M66 5.82158H62.1813L61.0018 1.99988L59.8187 5.82158L56 5.81771L59.0925 8.18205L57.9093 11.9999L61.0018 9.63941L64.0907 11.9999L62.9112 8.18205L66 5.82158Z" fill="white"/>
<path d="M63.1767 9.04684L62.9113 8.1825L61.002 9.63986L63.1767 9.04684Z" fill="#00B67A"/>
<rect x="72" width="14" height="14" fill="#00B67A"/>
<path d="M84 5.82158H80.1813L79.0018 1.99988L77.8187 5.82158L74 5.81771L77.0925 8.18205L75.9093 11.9999L79.0018 9.63941L82.0907 11.9999L80.9112 8.18205L84 5.82158Z" fill="white"/>
<path d="M81.1767 9.04684L80.9113 8.1825L79.002 9.63986L81.1767 9.04684Z" fill="#00B67A"/>
</svg>
