<svg width="98" height="20" viewBox="0 0 98 20" fill="none" xmlns="http://www.w3.org/2000/svg">
<path d="M12.4489 5.5105V17.0822H3.0813V15.4291H8.59164L10.7958 13.225V5.5105H12.4489Z" fill="#2458A4"/>
<path d="M3.88049 2.53527C3.53269 2.63397 3.12379 2.99116 3.05799 3.24966L3.02979 3.36716H2.36239C2.00049 3.36716 1.61979 3.39066 1.52579 3.41416C1.3002 3.47996 1.084 3.66326 0.971197 3.88886C0.877197 4.06276 0.877197 4.20376 0.877197 9.52414C0.877197 14.3275 0.886597 14.9996 0.947697 15.15C1.1263 15.5777 1.3519 15.6811 2.09449 15.6811H2.65379L2.67259 16.2545C2.69139 16.9313 2.76189 17.124 3.08149 17.3496L3.28359 17.4906L7.72507 17.5047C10.7472 17.5141 12.223 17.5 12.3499 17.4671C12.4533 17.4389 12.6084 17.3543 12.693 17.2744C13.0267 16.9877 13.0079 17.3449 12.9938 11.2537L12.9797 5.77355L12.8387 5.57146C12.6131 5.25186 12.4627 5.20016 11.7953 5.20016H11.2172V4.70196C11.2172 4.42466 11.189 4.11446 11.1608 4.00636C11.0856 3.76196 10.8224 3.49876 10.578 3.42356C10.437 3.38126 9.72726 3.36716 7.94597 3.36246H5.50668L5.31868 3.07106C5.16828 2.84077 5.07898 2.75147 4.87218 2.64807C4.56198 2.49297 4.18598 2.45067 3.88049 2.53527ZM4.46798 3.24496C4.67008 3.32956 4.81108 3.51286 4.84868 3.74316C4.90508 4.08626 4.77348 4.07216 7.71097 4.07216C10.0939 4.07216 10.3477 4.08156 10.4276 4.15206C10.5075 4.22256 10.5122 4.42466 10.5122 8.57004V12.9081H9.95286C9.02697 12.9081 8.72617 13.0068 8.53817 13.3781C8.45827 13.5379 8.44417 13.6601 8.44417 14.2711V14.9761H5.04138C1.98169 14.9761 1.63859 14.9667 1.61039 14.9009C1.59629 14.8586 1.58219 12.4287 1.58219 9.50064C1.58219 4.27896 1.58219 4.16616 1.67149 4.11916C1.72319 4.09566 2.02869 4.07216 2.35299 4.07216H2.94519V5.33646C2.94519 6.16835 2.96399 6.65245 3.00159 6.75585C3.09089 7.02845 3.30709 7.29635 3.55619 7.45615C3.75829 7.58775 3.85699 7.61595 4.14839 7.63475C4.57608 7.66295 4.84868 7.57365 5.13538 7.30575C5.45968 7.00495 5.53958 6.75115 5.56778 5.93805C5.58188 5.49156 5.57248 5.14846 5.53488 4.99336C5.39388 4.35886 4.66538 4.11916 4.12489 4.52806C3.87579 4.71606 3.83819 4.87116 3.83819 5.66545C3.83819 6.27645 3.84759 6.37985 3.92749 6.47385C3.98859 6.55375 4.06379 6.58195 4.19068 6.58195C4.50088 6.58195 4.54318 6.47855 4.54318 5.71715C4.54318 5.17196 4.55258 5.06386 4.61838 5.04036C4.65598 5.02626 4.73118 5.03566 4.78288 5.05916C4.86278 5.10616 4.87218 5.16256 4.87218 5.70776C4.86748 6.40335 4.82988 6.62895 4.67008 6.78875C4.51498 6.93915 4.15308 6.98145 3.94159 6.87335C3.65019 6.72295 3.64549 6.67595 3.65959 5.01686C3.67369 3.59276 3.67839 3.51286 3.76769 3.41416C3.87109 3.29666 4.09669 3.18387 4.22828 3.17917C4.27528 3.17917 4.37868 3.20737 4.46798 3.24496ZM12.2418 5.96155C12.2841 6.00385 12.2982 7.26815 12.2982 11.3665C12.2982 16.6023 12.2982 16.7151 12.2089 16.7621C12.1478 16.795 10.6908 16.8091 7.81437 16.8091C3.93219 16.8091 3.50919 16.7997 3.43869 16.7339C3.37759 16.6728 3.36819 16.5694 3.37759 16.1793L3.39169 15.7046L6.16468 15.6905L8.94237 15.6811L10.0798 14.539L11.2172 13.3969V9.65104V5.90515H11.7013C12.0162 5.90515 12.2042 5.92395 12.2418 5.96155ZM9.57216 14.0596L9.17267 14.4638L9.15857 14.1254C9.14917 13.9374 9.15387 13.7588 9.16797 13.7212C9.18677 13.6789 9.29957 13.6601 9.58156 13.6601H9.97166L9.57216 14.0596Z" fill="#2E3543"/>
<path d="M6.85539 5.37405C6.67679 5.52915 6.71909 5.87695 6.92119 5.95215C6.98699 5.98035 7.61679 5.99915 8.33119 5.99915H9.62368L9.73648 5.88165C9.88218 5.74065 9.89158 5.51975 9.75998 5.38815C9.67068 5.29885 9.60488 5.29415 8.30769 5.29415C7.08099 5.29415 6.93999 5.30355 6.85539 5.37405Z" fill="#2E3543"/>
<path d="M6.54508 7.32455C6.37588 7.56425 6.50748 7.84625 6.80828 7.90265C6.89288 7.91675 7.57437 7.92615 8.31697 7.91675L9.67527 7.90265L9.76456 7.78985C9.87266 7.65825 9.87736 7.46555 9.77867 7.32455C9.70817 7.22115 9.70817 7.22115 8.16187 7.22115C6.61558 7.22115 6.61558 7.22115 6.54508 7.32455Z" fill="#2E3543"/>
<path d="M3.44357 9.19998C3.28847 9.32218 3.27437 9.57128 3.41537 9.71227C3.50937 9.80627 3.57047 9.80627 6.58786 9.80627C9.60525 9.80627 9.66635 9.80627 9.76035 9.71227C9.89195 9.58068 9.88255 9.35978 9.73685 9.21878L9.62405 9.10128H6.59726C3.60337 9.10128 3.56577 9.10128 3.44357 9.19998Z" fill="#2E3543"/>
<path d="M3.41537 11.1222C3.27437 11.2632 3.28847 11.5123 3.44357 11.6345C3.56577 11.7332 3.60337 11.7332 6.59726 11.7332H9.62405L9.73685 11.6157C9.88255 11.4747 9.89195 11.2538 9.76035 11.1222C9.66635 11.0282 9.60525 11.0282 6.58786 11.0282C3.57047 11.0282 3.50937 11.0282 3.41537 11.1222Z" fill="#2E3543"/>
<path d="M22.5327 8.32512V9.05056H20.308V14.709H19.5342V9.05056H17.3095V8.32512H22.5327ZM28.8925 8.32512V14.709H28.1187V8.32512H28.8925ZM24.656 8.32512V14.709H23.8822V8.32512H24.656ZM28.4766 11.1108V11.8362H24.2884V11.1108H28.4766ZM30.9854 14.709V8.32512H35.4638V9.05056H31.7592V11.1108H34.6416V11.8362H31.7592V13.9835H35.6089V14.709H30.9854ZM39.2041 8.22839C39.7651 8.22839 40.2487 8.34447 40.655 8.57661C41.0612 8.8023 41.3998 9.13761 41.6706 9.58255L41.0225 10.0855C40.784 9.67282 40.5131 9.38265 40.21 9.21499C39.9134 9.04089 39.5523 8.95383 39.1267 8.95383C38.785 8.95383 38.5012 9.0022 38.2755 9.09892C38.0563 9.19565 37.8951 9.32461 37.7919 9.48582C37.6887 9.64058 37.6372 9.81791 37.6372 10.0178C37.6372 10.2435 37.7081 10.4434 37.85 10.6175C37.9918 10.7852 38.2755 10.9174 38.7011 11.0141L40.0843 11.3236C40.6969 11.459 41.1225 11.6654 41.3611 11.9426C41.6061 12.2135 41.7286 12.552 41.7286 12.9583C41.7286 13.3194 41.6255 13.6418 41.4191 13.9255C41.2192 14.2028 40.9355 14.4188 40.5679 14.5736C40.2004 14.7283 39.7683 14.8057 39.2718 14.8057C38.8075 14.8057 38.3981 14.7445 38.0434 14.6219C37.6952 14.493 37.3953 14.3221 37.1439 14.1093C36.8924 13.8965 36.686 13.6579 36.5248 13.3935L37.2019 12.8422C37.3244 13.0872 37.4824 13.3032 37.6758 13.4902C37.8693 13.6772 38.1014 13.8223 38.3723 13.9255C38.6495 14.0287 38.9655 14.0803 39.3202 14.0803C39.649 14.0803 39.9328 14.0416 40.1714 13.9642C40.4164 13.8804 40.6034 13.7611 40.7324 13.6063C40.8613 13.4451 40.9258 13.2517 40.9258 13.026C40.9258 12.8196 40.8581 12.6358 40.7227 12.4746C40.5873 12.307 40.3326 12.1812 39.9586 12.0974L38.4593 11.7589C38.066 11.6686 37.7468 11.5461 37.5017 11.3913C37.2632 11.2301 37.089 11.0431 36.9794 10.8303C36.8763 10.6111 36.8247 10.3757 36.8247 10.1242C36.8247 9.78245 36.9182 9.4697 37.1052 9.18597C37.2986 8.8958 37.5727 8.66366 37.9273 8.48955C38.2884 8.31545 38.714 8.22839 39.2041 8.22839ZM44.1238 8.32512V14.709H43.35V8.32512H44.1238ZM48.2626 8.22839C48.8237 8.22839 49.3073 8.34447 49.7135 8.57661C50.1198 8.8023 50.4583 9.13761 50.7291 9.58255L50.0811 10.0855C49.8425 9.67282 49.5717 9.38265 49.2686 9.21499C48.972 9.04089 48.6109 8.95383 48.1853 8.95383C47.8435 8.95383 47.5598 9.0022 47.3341 9.09892C47.1148 9.19565 46.9536 9.32461 46.8505 9.48582C46.7473 9.64058 46.6957 9.81791 46.6957 10.0178C46.6957 10.2435 46.7666 10.4434 46.9085 10.6175C47.0504 10.7852 47.3341 10.9174 47.7597 11.0141L49.1428 11.3236C49.7554 11.459 50.181 11.6654 50.4196 11.9426C50.6647 12.2135 50.7872 12.552 50.7872 12.9583C50.7872 13.3194 50.684 13.6418 50.4777 13.9255C50.2778 14.2028 49.994 14.4188 49.6265 14.5736C49.2589 14.7283 48.8269 14.8057 48.3304 14.8057C47.8661 14.8057 47.4566 14.7445 47.1019 14.6219C46.7537 14.493 46.4539 14.3221 46.2024 14.1093C45.9509 13.8965 45.7446 13.6579 45.5834 13.3935L46.2604 12.8422C46.383 13.0872 46.5409 13.3032 46.7344 13.4902C46.9278 13.6772 47.16 13.8223 47.4308 13.9255C47.7081 14.0287 48.0241 14.0803 48.3787 14.0803C48.7076 14.0803 48.9913 14.0416 49.2299 13.9642C49.4749 13.8804 49.6619 13.7611 49.7909 13.6063C49.9199 13.4451 49.9844 13.2517 49.9844 13.026C49.9844 12.8196 49.9166 12.6358 49.7812 12.4746C49.6458 12.307 49.3911 12.1812 49.0171 12.0974L47.5179 11.7589C47.1245 11.6686 46.8053 11.5461 46.5603 11.3913C46.3217 11.2301 46.1476 11.0431 46.038 10.8303C45.9348 10.6111 45.8832 10.3757 45.8832 10.1242C45.8832 9.78245 45.9767 9.4697 46.1637 9.18597C46.3572 8.8958 46.6312 8.66366 46.9859 8.48955C47.347 8.31545 47.7726 8.22839 48.2626 8.22839Z" fill="#2E3543"/>
<path d="M59.3162 8.32512V14.709H57.9813V8.32512H59.3162ZM55.1666 8.32512V14.709H53.8318V8.32512H55.1666ZM58.6778 10.9464V12.02H54.4992V10.9464H58.6778ZM60.9823 14.709V8.32512H65.7702V9.39877H62.3171V10.9851H65.0351V12.0104H62.3171V13.6353H65.9056V14.709H60.9823ZM68.438 13.6353H71.8041V14.709H67.1032V8.32512H68.438V13.6353ZM75.5917 8.32512C76.0818 8.32512 76.5009 8.40895 76.8491 8.57661C77.1973 8.73781 77.4649 8.97318 77.6519 9.2827C77.8454 9.58577 77.9421 9.95333 77.9421 10.3854C77.9421 10.8174 77.8454 11.1882 77.6519 11.4977C77.4649 11.8008 77.1973 12.0361 76.8491 12.2038C76.5009 12.365 76.0818 12.4456 75.5917 12.4456H74.2472V14.709H72.9124V8.32512H75.5917ZM75.3886 11.3913C75.7884 11.3913 76.0882 11.3075 76.2881 11.1398C76.488 10.9657 76.588 10.7142 76.588 10.3854C76.588 10.0501 76.488 9.79857 76.2881 9.63091C76.0882 9.46325 75.7884 9.37942 75.3886 9.37942H74.2472V11.3913H75.3886ZM79.1655 14.709V8.32512H83.9534V9.39877H80.5003V10.9851H83.2183V12.0104H80.5003V13.6353H84.0888V14.709H79.1655ZM88.1011 8.32512C88.8233 8.32512 89.3908 8.49923 89.8035 8.84744C90.2162 9.19565 90.4225 9.66315 90.4225 10.25C90.4225 10.8754 90.2162 11.3558 89.8035 11.6912C89.3908 12.02 88.8266 12.1845 88.1108 12.1845L87.9754 12.2618H86.6019V14.709H85.2864V8.32512H88.1011ZM87.9464 11.2462C88.3204 11.2462 88.5976 11.1721 88.7782 11.0238C88.9652 10.869 89.0587 10.6336 89.0587 10.3177C89.0587 10.0017 88.9652 9.76955 88.7782 9.62124C88.5976 9.46648 88.3204 9.3891 87.9464 9.3891H86.6019V11.2462H87.9464ZM88.7298 11.5267L90.7998 14.709H89.3005L87.5885 11.9136L88.7298 11.5267ZM94.1918 8.22839C94.7721 8.22839 95.2816 8.32834 95.7201 8.52824C96.1585 8.72814 96.5325 9.02477 96.8421 9.41811L96.0973 10.279C95.8329 9.94365 95.5427 9.69862 95.2268 9.54386C94.9172 9.38265 94.5561 9.30204 94.1434 9.30204C93.8726 9.30204 93.6469 9.33751 93.4664 9.40844C93.2922 9.47937 93.1633 9.57288 93.0795 9.68895C93.0021 9.80502 92.9634 9.93398 92.9634 10.0758C92.9634 10.25 93.0311 10.3983 93.1665 10.5208C93.3019 10.6369 93.5341 10.7336 93.8629 10.811L95.0526 11.0818C95.6846 11.2237 96.136 11.4364 96.4068 11.7202C96.6841 11.9975 96.8227 12.3586 96.8227 12.8035C96.8227 13.2226 96.7131 13.5837 96.4939 13.8868C96.2746 14.1834 95.9683 14.4124 95.575 14.5736C95.1816 14.7283 94.7302 14.8057 94.2208 14.8057C93.7759 14.8057 93.3664 14.7541 92.9924 14.6509C92.6248 14.5413 92.296 14.393 92.0058 14.206C91.7156 14.019 91.4738 13.803 91.2804 13.558L92.0348 12.6584C92.1831 12.8648 92.3669 13.0485 92.5862 13.2097C92.8054 13.371 93.0537 13.4999 93.3309 13.5966C93.6147 13.6869 93.9113 13.7321 94.2208 13.7321C94.4852 13.7321 94.7077 13.703 94.8882 13.645C95.0752 13.5805 95.2139 13.4935 95.3041 13.3838C95.4009 13.2678 95.4492 13.1291 95.4492 12.9679C95.4492 12.8003 95.3912 12.6584 95.2751 12.5423C95.1655 12.4198 94.9591 12.3263 94.6561 12.2618L93.36 11.9717C92.986 11.8814 92.6635 11.7653 92.3927 11.6234C92.1283 11.4751 91.9252 11.2881 91.7833 11.0624C91.6479 10.8303 91.5802 10.5562 91.5802 10.2403C91.5802 9.85983 91.6834 9.51806 91.8897 9.21499C92.0961 8.91192 92.3927 8.67333 92.7796 8.49923C93.173 8.31867 93.6437 8.22839 94.1918 8.22839Z" fill="#2458A4"/>
</svg>
