<svg width="360" height="340" viewBox="0 0 360 340" fill="none" xmlns="http://www.w3.org/2000/svg">
<path d="M150.042 26.2443H137.79C137.79 26.2443 133.49 57.1917 121.82 70.2162C110.762 82.5549 90.0623 79.1698 90.0623 79.1698C90.0623 79.1698 90.0544 79.1954 90.0445 79.2348C82.0387 77.0535 72.9078 77.5324 66.6833 79.1737C56.9238 81.749 49.8736 86.2318 49.8736 86.2318C49.8736 86.2318 34.8137 95.7489 35.1723 113.91C35.4501 128.003 46.0254 144.779 45.9426 145.981C45.0126 159.431 43.9722 158.972 45.3771 163.764C48.784 175.397 97.0376 170.599 97.8967 165.267C98.675 160.43 96.4326 152.341 97.5577 141.465C99.3331 124.316 102.858 118.212 106.87 107.636C129.027 105.837 143.346 93.3193 147.801 73.2132C152.396 52.4726 150.042 26.2443 150.042 26.2443Z" fill="white"/>
<path d="M69.026 171.375C57.4912 171.375 46.581 169.435 44.9554 163.886C44.0293 160.727 44.1475 159.711 44.581 155.919C44.8312 153.744 45.1721 150.765 45.5051 145.949C45.4736 145.693 44.78 144.31 44.045 142.846C41.0914 136.96 34.9456 124.712 34.7348 113.918C34.3762 95.7192 49.4873 85.9558 49.641 85.8592C49.71 85.8139 56.8587 81.3115 66.5728 78.748C72.2614 77.2466 81.3608 76.4682 89.9361 78.748C89.9991 78.7283 90.0661 78.7224 90.1351 78.7342C90.34 78.7677 110.73 81.9342 121.496 69.9205C132.946 57.1443 137.317 26.4886 137.358 26.1812C137.388 25.9644 137.573 25.8029 137.792 25.8029H150.044C150.27 25.8029 150.459 25.9763 150.479 26.2009C150.503 26.4629 152.789 52.7345 148.229 73.3057C143.675 93.8473 129.104 106.176 107.181 108.048C106.513 109.8 105.859 111.429 105.227 113.01C102.129 120.74 99.4512 127.413 97.9931 141.508C97.3586 147.642 97.8059 152.922 98.1645 157.167C98.4483 160.532 98.6729 163.188 98.3281 165.334C97.802 168.605 84.7145 170.603 76.0446 171.149C73.7274 171.297 71.3629 171.375 69.026 171.375ZM78.4269 78.212C73.887 78.212 69.7491 78.815 66.7935 79.5953C57.2173 82.1214 50.177 86.5548 50.108 86.6001C49.9583 86.6947 35.2609 96.2079 35.6097 113.9C35.8185 124.495 41.9032 136.625 44.8273 142.454C46.0273 144.844 46.4056 145.618 46.378 146.01C46.043 150.846 45.7002 153.837 45.4519 156.02C45.0224 159.764 44.9219 160.652 45.7967 163.64C47.6075 169.823 63.1936 171.08 75.9895 170.276C88.4721 169.492 97.1695 167.017 97.4631 165.196C97.7902 163.157 97.5596 160.416 97.2917 157.242C96.9291 152.96 96.4798 147.634 97.1222 141.417C98.5941 127.203 101.29 120.474 104.413 112.685C105.075 111.031 105.761 109.323 106.46 107.481C106.519 107.323 106.665 107.213 106.834 107.199C128.495 105.441 142.893 93.337 147.374 73.1166C151.596 54.0646 149.906 30.0531 149.64 26.6777H138.168C137.624 30.2639 133.072 58.3108 122.147 70.5038C111.684 82.1785 92.5292 79.948 90.2198 79.6308C90.1312 79.6702 90.0307 79.68 89.9282 79.6524C86.1135 78.616 82.1352 78.212 78.4269 78.212Z" fill="#2E3543"/>
<path d="M302.786 339.18H88.9046C82.2623 339.18 77.2023 333.101 78.2643 326.402L124.262 36.3701C125.107 31.0362 129.615 27.117 134.902 27.117H348.783C355.425 27.117 360.485 33.1957 359.423 39.8952L313.424 329.925C312.581 335.259 308.072 339.18 302.786 339.18Z" fill="white"/>
<path d="M302.786 339.618H88.9052C85.6638 339.618 82.5821 338.187 80.4521 335.693C78.2531 333.117 77.2974 329.704 77.8334 326.333L123.831 36.3012C124.716 30.7249 129.372 26.6777 134.903 26.6777H348.784C352.025 26.6777 355.107 28.1082 357.237 30.6027C359.436 33.1781 360.391 36.5908 359.855 39.9622L313.856 329.992C312.975 335.57 308.317 339.618 302.786 339.618ZM134.903 27.5545C129.805 27.5545 125.512 31.2904 124.696 36.4391L78.6964 326.469C78.2019 329.588 79.0846 332.743 81.1161 335.123C83.0806 337.423 85.918 338.741 88.9032 338.741H302.784C307.882 338.741 312.175 335.005 312.991 329.856L358.991 39.8263C359.485 36.7071 358.602 33.5525 356.571 31.1722C354.606 28.8727 351.769 27.5545 348.784 27.5545H134.903Z" fill="#2E3543"/>
<path d="M295.989 338.426H82.1058C75.4635 338.426 70.4035 332.357 71.4655 325.669L117.465 36.1416C118.31 30.8175 122.819 26.9043 128.105 26.9043H341.986C348.629 26.9043 353.689 32.9732 352.626 39.6608L306.627 329.188C305.782 334.514 301.275 338.426 295.989 338.426Z" fill="white"/>
<path d="M295.989 338.863H82.1059C78.8586 338.863 75.7749 337.432 73.6449 334.936C71.4498 332.367 70.4981 328.964 71.0321 325.6L117.033 36.0727C117.918 30.5063 122.574 26.4669 128.105 26.4669H341.986C345.234 26.4669 348.317 27.8974 350.447 30.394C352.642 32.9634 353.594 36.3663 353.06 39.7298L307.061 329.257C306.176 334.824 301.52 338.863 295.989 338.863ZM128.105 27.3418C123.008 27.3418 118.714 31.0718 117.899 36.2106L71.8991 325.738C71.4045 328.847 72.2853 331.992 74.3129 334.368C76.2774 336.67 79.1187 337.988 82.1078 337.988H295.989C301.086 337.988 305.38 334.258 306.196 329.119L352.195 39.5919C352.69 36.4826 351.809 33.3378 349.781 30.9614C347.817 28.66 344.975 27.3418 341.986 27.3418H128.105Z" fill="#2E3543"/>
<path d="M261.02 53.7924H199.021C189.112 53.7924 181.583 44.7147 183.234 34.7581L184.682 26.0312C184.83 25.1464 185.583 24.4982 186.463 24.4982H281.96C283.077 24.4982 283.928 25.5228 283.741 26.6459L282.273 35.4892C280.521 46.0565 271.538 53.7924 261.02 53.7924Z" fill="white"/>
<path d="M261.02 54.2299H199.021C194.237 54.2299 189.699 52.1156 186.572 48.427C183.356 44.6339 181.983 39.6251 182.802 34.6873L184.251 25.9603C184.434 24.8588 185.364 24.0608 186.463 24.0608H281.96C282.614 24.0608 283.235 24.3485 283.66 24.8529C284.098 25.3672 284.283 26.047 284.173 26.7189L282.705 35.5621C280.912 46.3778 271.79 54.2299 261.02 54.2299ZM186.463 24.9357C185.794 24.9357 185.226 25.4263 185.114 26.1041L183.665 34.8311C182.887 39.5168 184.19 44.2655 187.24 47.8615C190.199 51.3531 194.493 53.355 199.021 53.355H261.02C271.361 53.355 280.119 45.8103 281.844 35.4163L283.312 26.5731C283.38 26.1573 283.264 25.7356 282.994 25.4184C282.734 25.111 282.358 24.9357 281.962 24.9357H186.463Z" fill="#2E3543"/>
<path d="M219.284 43.5993H245.759C246.764 43.5993 247.619 42.9353 247.78 41.9205L251.408 18.3327C252.862 8.94362 245.771 0.437317 236.478 0.437317C229.046 0.437317 222.717 5.94266 221.55 13.4519L217.261 41.2565C217.062 42.5294 218.023 43.5993 219.284 43.5993ZM230.116 14.9731L230.145 14.7958C230.646 11.7534 233.219 9.52489 236.236 9.52489C240.056 9.52489 242.959 13.0362 242.326 16.8903L242.297 17.0676C241.796 20.11 239.223 22.3385 236.206 22.3385C232.387 22.3385 229.483 18.8272 230.116 14.9731Z" fill="white"/>
<path d="M245.76 44.0369H219.286C218.543 44.0369 217.847 43.7216 217.378 43.1719C216.917 42.632 216.718 41.9088 216.832 41.1877L221.122 13.3851C222.328 5.62949 228.787 0 236.483 0C240.962 0 245.224 1.97633 248.176 5.42062C251.232 8.98708 252.57 13.7181 251.845 18.3978L248.217 41.9857C248.022 43.1955 247.013 44.0369 245.76 44.0369ZM236.479 0.874866C229.218 0.874866 223.122 6.19302 221.983 13.519L217.693 41.3217C217.619 41.7985 217.741 42.2517 218.04 42.6024C218.344 42.9571 218.795 43.16 219.282 43.16H245.756C246.57 43.16 247.224 42.6221 247.344 41.8517L250.972 18.2658C251.658 13.8383 250.395 9.36343 247.504 5.99204C244.722 2.74085 240.702 0.874866 236.479 0.874866ZM236.206 22.7761C234.286 22.7761 232.466 21.9268 231.211 20.447C229.912 18.918 229.356 16.8983 229.683 14.9023L229.713 14.7249C230.249 11.458 232.992 9.08757 236.235 9.08757C238.152 9.08757 239.975 9.93682 241.23 11.4166C242.529 12.9457 243.084 14.9653 242.757 16.9614L242.73 17.1367C242.192 20.4037 239.449 22.7761 236.206 22.7761ZM230.546 15.0441C230.261 16.786 230.745 18.5476 231.877 19.8796C232.966 21.1623 234.544 21.8992 236.204 21.8992C239.015 21.8992 241.396 19.8362 241.863 16.9949L241.89 16.8195C242.176 15.0776 241.691 13.3141 240.56 11.9821C239.471 10.6994 237.892 9.96244 236.233 9.96244C233.421 9.96244 231.041 12.0255 230.574 14.8668L230.546 15.0441Z" fill="#2E3543"/>
<path d="M249.668 227.485H240.7C239.555 227.485 238.47 226.981 237.719 226.104C236.949 225.203 236.614 224.011 236.801 222.833L255.337 105.451C255.646 103.493 257.285 102.072 259.236 102.072H268.207C269.352 102.072 270.438 102.576 271.189 103.453C271.959 104.354 272.292 105.546 272.107 106.724L253.567 224.106C253.258 226.064 251.618 227.485 249.668 227.485ZM256.202 105.587L237.666 222.969C237.52 223.893 237.782 224.829 238.385 225.534C238.968 226.218 239.812 226.608 240.7 226.608H249.668C251.185 226.608 252.46 225.499 252.702 223.968L271.242 106.586C271.388 105.662 271.126 104.726 270.523 104.021C269.939 103.337 269.096 102.947 268.207 102.947H259.236C257.719 102.949 256.444 104.058 256.202 105.587Z" fill="#2E3543"/>
<path d="M223.55 227.485H214.578C213.437 227.485 212.352 226.983 211.603 226.11C210.833 225.213 210.496 224.023 210.677 222.849L224.131 135.597C224.434 133.63 226.076 132.203 228.032 132.203H237.008C238.149 132.203 239.234 132.706 239.983 133.579C240.753 134.475 241.09 135.666 240.909 136.84L227.451 224.09C227.148 226.056 225.506 227.485 223.55 227.485ZM228.032 133.078C226.511 133.078 225.234 134.194 224.996 135.731L211.542 222.983C211.4 223.905 211.664 224.839 212.267 225.54C212.85 226.22 213.694 226.61 214.578 226.61H223.55C225.073 226.61 226.348 225.495 226.586 223.96L240.044 136.708C240.186 135.786 239.922 134.852 239.319 134.15C238.736 133.47 237.892 133.08 237.008 133.08H228.032V133.078Z" fill="#2E3543"/>
<path d="M197.444 227.485H188.473C187.33 227.485 186.246 226.983 185.496 226.108C184.725 225.209 184.39 224.019 184.572 222.843L194.613 158.189C194.918 156.225 196.558 154.8 198.514 154.8H207.49C208.632 154.8 209.716 155.303 210.467 156.178C211.237 157.076 211.572 158.266 211.391 159.443L201.346 224.096C201.04 226.059 199.399 227.485 197.444 227.485ZM195.48 158.323L185.439 222.977C185.295 223.901 185.559 224.833 186.162 225.536C186.745 226.218 187.588 226.608 188.473 226.608H197.444C198.966 226.608 200.24 225.495 200.479 223.96L210.524 159.307C210.668 158.383 210.404 157.45 209.801 156.747C209.218 156.065 208.374 155.675 207.49 155.675H198.514C196.995 155.675 195.718 156.788 195.48 158.323Z" fill="#2E3543"/>
<path d="M171.345 227.485H162.378C161.235 227.485 160.147 226.983 159.399 226.104C158.628 225.203 158.293 224.011 158.481 222.835L165.101 180.778C165.409 178.82 167.05 177.397 169.001 177.397H177.972C179.117 177.397 180.202 177.899 180.951 178.778C181.722 179.679 182.057 180.871 181.869 182.047L175.245 224.104C174.935 226.062 173.296 227.485 171.345 227.485ZM168.997 178.272C167.479 178.272 166.203 179.383 165.962 180.912L159.342 222.969C159.196 223.893 159.458 224.827 160.061 225.532C160.644 226.214 161.487 226.606 162.376 226.606H171.343C172.861 226.606 174.137 225.495 174.378 223.966L181.002 181.909C181.148 180.985 180.886 180.051 180.283 179.344C179.7 178.662 178.857 178.27 177.968 178.27H168.997V178.272Z" fill="#2E3543"/>
<path d="M145.189 227.485H136.204C135.071 227.485 133.993 226.99 133.244 226.127C132.476 225.243 132.131 224.064 132.296 222.896L135.625 199.42C135.902 197.458 137.583 195.978 139.534 195.978H148.523C149.656 195.978 150.734 196.473 151.482 197.336C152.251 198.22 152.596 199.399 152.43 200.567L149.098 224.043C148.818 226.005 147.14 227.485 145.189 227.485ZM136.49 199.543L133.162 223.018C133.031 223.934 133.301 224.858 133.904 225.552C134.488 226.224 135.325 226.608 136.204 226.608H145.189C146.706 226.608 148.013 225.452 148.231 223.919L151.561 200.443C151.691 199.527 151.421 198.603 150.818 197.909C150.235 197.237 149.398 196.853 148.519 196.853H139.532C138.015 196.853 136.706 198.01 136.49 199.543Z" fill="#2E3543"/>
<path d="M132.339 258.677C129.051 258.677 126.375 255.954 126.375 252.608C126.375 249.262 129.051 246.539 132.339 246.539C135.628 246.539 138.304 249.262 138.304 252.608C138.304 255.954 135.628 258.677 132.339 258.677ZM132.339 247.414C129.534 247.414 127.25 249.743 127.25 252.608C127.25 255.471 129.534 257.802 132.339 257.802C135.145 257.802 137.429 255.473 137.429 252.608C137.427 249.745 135.145 247.414 132.339 247.414Z" fill="#2E3543"/>
<path d="M127.617 281.886C124.328 281.886 121.652 279.163 121.652 275.817C121.652 272.472 124.328 269.749 127.617 269.749C130.905 269.749 133.581 272.472 133.581 275.817C133.581 279.163 130.905 281.886 127.617 281.886ZM127.617 270.623C124.811 270.623 122.527 272.952 122.527 275.817C122.527 278.68 124.811 281.011 127.617 281.011C130.423 281.011 132.706 278.682 132.706 275.817C132.706 272.952 130.423 270.623 127.617 270.623Z" fill="#2E3543"/>
<path d="M123.451 306.227C120.162 306.227 117.486 303.504 117.486 300.158C117.486 296.812 120.162 294.089 123.451 294.089C126.739 294.089 129.415 296.812 129.415 300.158C129.415 303.504 126.739 306.227 123.451 306.227ZM123.451 294.964C120.645 294.964 118.361 297.293 118.361 300.158C118.361 303.023 120.643 305.352 123.451 305.352C126.257 305.352 128.54 303.023 128.54 300.158C128.54 297.293 126.257 294.964 123.451 294.964Z" fill="#2E3543"/>
<path d="M207.615 253.045H148.451C148.209 253.045 148.014 252.85 148.014 252.608C148.014 252.365 148.211 252.17 148.451 252.17H207.615C207.857 252.17 208.052 252.365 208.052 252.608C208.052 252.85 207.855 253.045 207.615 253.045Z" fill="#2E3543"/>
<path d="M203.909 276.066H197.752C197.51 276.066 197.314 275.87 197.314 275.628C197.314 275.386 197.51 275.191 197.752 275.191H203.909C204.152 275.191 204.347 275.386 204.347 275.628C204.347 275.87 204.152 276.066 203.909 276.066Z" fill="white"/>
<path d="M186.503 276.066H144.746C144.504 276.066 144.309 275.87 144.309 275.628C144.309 275.386 144.504 275.191 144.746 275.191H186.503C186.746 275.191 186.941 275.386 186.941 275.628C186.941 275.87 186.746 276.066 186.503 276.066Z" fill="#2E3543"/>
<path d="M199.095 299.841H139.932C139.689 299.841 139.494 299.646 139.494 299.403C139.494 299.161 139.689 298.966 139.932 298.966H199.095C199.338 298.966 199.533 299.161 199.533 299.403C199.533 299.646 199.336 299.841 199.095 299.841Z" fill="#2E3543"/>
<path d="M126.23 147.039C126.23 147.039 135.078 146.909 139.7 144.901C144.323 142.895 144.252 146.375 142.944 147.598C141.883 148.591 135.495 152.152 129.767 152.568L126.23 147.039Z" fill="white"/>
<path d="M129.77 153.005C129.622 153.005 129.482 152.93 129.402 152.804L125.865 147.273C125.778 147.139 125.772 146.97 125.847 146.83C125.922 146.69 126.068 146.601 126.225 146.599C126.312 146.597 135.039 146.446 139.528 144.499C142.371 143.265 143.453 144.081 143.845 144.678C144.487 145.655 144.044 147.171 143.246 147.919C142.022 149.064 135.498 152.593 129.804 153.005C129.79 153.005 129.78 153.005 129.77 153.005ZM127.017 147.454L129.997 152.11C135.608 151.612 141.762 148.107 142.647 147.279C143.179 146.78 143.498 145.746 143.112 145.159C142.702 144.534 141.524 144.587 139.876 145.303C135.981 146.991 129.301 147.372 127.017 147.454Z" fill="#2458A4"/>
<path d="M113.326 143.723L117.714 135.055L121.785 137.421C122.01 137.551 122.201 137.734 122.343 137.951L122.599 138.347C122.92 138.844 123.486 139.131 124.071 139.096C124.388 139.076 124.705 139.151 124.983 139.313L155.253 156.873C155.503 157.017 155.732 157.194 155.936 157.399L162.189 163.685L153.846 162.231C153.391 162.152 152.947 162.014 152.528 161.819L120.863 147.2C120.593 147.076 120.361 146.879 120.193 146.633L120.152 146.572C119.829 146.099 119.281 145.827 118.717 145.856L118.432 145.872C118.169 145.886 117.907 145.835 117.667 145.724L113.326 143.723Z" fill="white"/>
<path d="M162.188 164.124C162.162 164.124 162.136 164.122 162.113 164.118L153.77 162.664C153.279 162.577 152.799 162.428 152.343 162.219L120.679 147.6C120.336 147.443 120.044 147.194 119.829 146.883L119.788 146.82C119.552 146.475 119.154 146.274 118.738 146.296L118.452 146.312C118.121 146.329 117.786 146.264 117.481 146.124L113.142 144.122C113.034 144.073 112.951 143.981 112.911 143.868C112.872 143.756 112.88 143.632 112.935 143.527L117.323 134.859C117.378 134.751 117.475 134.672 117.589 134.637C117.703 134.603 117.83 134.617 117.934 134.678L122.005 137.045C122.289 137.208 122.531 137.441 122.708 137.717L122.964 138.113C123.201 138.479 123.617 138.688 124.04 138.662C124.446 138.637 124.846 138.733 125.201 138.938L155.47 156.499C155.752 156.662 156.014 156.863 156.245 157.096L162.497 163.381C162.631 163.517 162.662 163.724 162.576 163.892C162.499 164.035 162.349 164.124 162.188 164.124ZM118.799 145.419C119.475 145.419 120.123 145.76 120.511 146.327L120.553 146.388C120.677 146.57 120.846 146.714 121.045 146.804L152.71 161.423C153.096 161.6 153.504 161.728 153.92 161.801L160.905 163.019L155.624 157.71C155.447 157.533 155.248 157.379 155.031 157.253L124.761 139.693C124.557 139.575 124.326 139.52 124.095 139.533C123.349 139.581 122.637 139.216 122.229 138.586L121.973 138.189C121.871 138.03 121.729 137.896 121.563 137.799L117.895 135.667L113.92 143.516L117.845 145.328C118.021 145.409 118.212 145.447 118.403 145.437L118.689 145.421C118.726 145.419 118.762 145.419 118.799 145.419Z" fill="#2458A4"/>
<path d="M154.392 160.219C154.333 160.219 154.274 160.207 154.216 160.181C153.996 160.085 153.895 159.825 153.992 159.604L155.146 156.983C155.243 156.763 155.503 156.662 155.724 156.759C155.944 156.855 156.045 157.115 155.948 157.336L154.794 159.957C154.721 160.122 154.561 160.219 154.392 160.219Z" fill="#2458A4"/>
<path d="M110.679 131.226L117.268 134.779C117.605 134.96 117.735 135.381 117.558 135.722L113.692 143.139C113.51 143.486 113.083 143.618 112.74 143.433L106.165 139.888C104.846 139.177 104.324 137.549 105.002 136.25L107.067 132.29C107.741 130.989 109.359 130.515 110.679 131.226Z" fill="#2458A4"/>
<path d="M113.067 143.955C112.882 143.955 112.696 143.91 112.529 143.819L105.954 140.274C104.427 139.45 103.826 137.555 104.61 136.05L106.675 132.089C107.051 131.368 107.69 130.838 108.47 130.597C109.274 130.351 110.131 130.438 110.884 130.844L117.473 134.396C118.019 134.69 118.229 135.378 117.942 135.927L114.076 143.344C113.934 143.616 113.693 143.817 113.4 143.906C113.292 143.937 113.179 143.955 113.067 143.955ZM109.384 131.332C109.163 131.332 108.945 131.366 108.73 131.431C108.174 131.602 107.721 131.977 107.453 132.491L105.388 136.451C104.823 137.537 105.264 138.905 106.371 139.502L112.947 143.046C113.01 143.08 113.079 143.088 113.148 143.066C113.215 143.044 113.27 142.999 113.303 142.936L117.169 135.519C117.236 135.391 117.187 135.232 117.061 135.165L110.472 131.612C110.127 131.427 109.757 131.332 109.384 131.332Z" fill="#2458A4"/>
<path d="M120.301 145.013C120.232 145.013 120.162 144.997 120.095 144.962C119.882 144.847 119.801 144.581 119.915 144.369L122.098 140.292C122.213 140.079 122.477 139.998 122.692 140.113C122.904 140.227 122.985 140.493 122.871 140.706L120.688 144.782C120.609 144.928 120.457 145.013 120.301 145.013Z" fill="#2458A4"/>
<path d="M134.502 148.126C134.429 148.126 134.356 148.109 134.287 148.071L125.263 143.005C125.052 142.887 124.977 142.619 125.095 142.408C125.213 142.197 125.479 142.122 125.692 142.241L134.717 147.307C134.927 147.425 135.002 147.693 134.884 147.904C134.803 148.045 134.656 148.126 134.502 148.126Z" fill="#2458A4"/>
<path d="M152.365 158.55C152.292 158.55 152.219 158.532 152.152 158.495L148.627 156.534C148.417 156.416 148.34 156.15 148.458 155.939C148.576 155.728 148.842 155.651 149.053 155.77L152.578 157.73C152.789 157.848 152.866 158.114 152.748 158.325C152.669 158.469 152.519 158.55 152.365 158.55Z" fill="#2458A4"/>
<path d="M112.414 140.865C112.343 140.865 112.27 140.847 112.203 140.812L107.169 138.051C106.956 137.935 106.879 137.669 106.996 137.456C107.112 137.244 107.378 137.167 107.591 137.283L112.625 140.044C112.838 140.16 112.915 140.426 112.798 140.639C112.72 140.782 112.57 140.865 112.414 140.865Z" fill="white"/>
<path d="M110.278 150.503C110.278 150.503 118.106 151.614 123.387 147.535C127.878 144.065 136.973 153.996 137.755 155.257C138.863 157.042 136.425 159.846 133.612 158.258C133.612 158.258 132.867 162.684 126.794 163.427C120.721 164.169 118.13 160.191 116.501 159.598C114.871 159.005 110.203 158.971 110.203 158.971L110.278 150.503Z" fill="white"/>
<path d="M125.304 163.957C121.57 163.957 119.304 162.177 117.744 160.952C117.188 160.516 116.709 160.138 116.349 160.008C114.808 159.446 110.244 159.409 110.199 159.409C110.083 159.409 109.973 159.362 109.89 159.279C109.809 159.196 109.764 159.084 109.764 158.968L109.839 150.499C109.841 150.373 109.896 150.252 109.99 150.172C110.085 150.089 110.211 150.051 110.337 150.069C110.414 150.079 118.049 151.104 123.117 147.188C124.067 146.453 125.255 146.209 126.65 146.461C131.501 147.338 137.503 154.026 138.124 155.027C138.717 155.982 138.52 157.243 137.633 158.166C136.885 158.946 135.491 159.545 133.886 158.881C133.444 160.154 131.864 163.247 126.843 163.862C126.305 163.927 125.793 163.957 125.304 163.957ZM110.644 158.538C111.862 158.562 115.253 158.676 116.65 159.184C117.141 159.364 117.645 159.76 118.286 160.262C119.937 161.559 122.43 163.517 126.739 162.989C132.392 162.298 133.149 158.349 133.178 158.181C133.202 158.041 133.294 157.921 133.422 157.86C133.553 157.799 133.702 157.805 133.824 157.874C135.198 158.65 136.366 158.219 137.003 157.557C137.505 157.033 137.817 156.191 137.381 155.486C136.859 154.644 131.036 148.142 126.496 147.32C125.342 147.112 124.41 147.295 123.653 147.878C118.997 151.474 112.548 151.165 110.711 150.989L110.644 158.538Z" fill="#2458A4"/>
<path d="M57.0858 87.5498C57.0858 87.5498 46.3627 92.0621 40.7017 110.428C37.5767 120.564 38.15 135.019 53.5607 154.235C56.6424 158.077 60.9714 161.9 65.8601 162.453L112.695 162.908L112.486 147.916C112.486 147.916 76.1653 143.196 70.7053 141.143C65.8699 139.325 58.867 115.65 58.138 104.034L57.0858 87.5498Z" fill="white"/>
<path d="M112.694 163.344C112.692 163.344 112.692 163.344 112.69 163.344L65.8553 162.889C65.8395 162.889 65.8257 162.887 65.81 162.887C60.4741 162.284 56.017 157.998 53.219 154.508C51.5579 152.438 49.958 150.341 48.4604 148.274C48.3186 148.079 48.3619 147.805 48.557 147.663C48.7521 147.521 49.0259 147.565 49.1678 147.762C50.6575 149.817 52.2496 151.904 53.9008 153.963C56.5924 157.318 60.8544 161.438 65.8849 162.018L112.249 162.469L112.052 148.304C107.969 147.77 75.7586 143.514 70.5508 141.557C66.2021 139.921 61.0613 123.49 58.9549 112.901C58.9076 112.665 59.0613 112.434 59.2997 112.387C59.5362 112.34 59.7667 112.493 59.814 112.732C62.2376 124.927 67.3705 139.427 70.8582 140.739C76.2079 142.751 112.178 147.441 112.54 147.486C112.757 147.514 112.919 147.697 112.923 147.914L113.132 162.906C113.134 163.025 113.086 163.139 113.003 163.222C112.923 163.297 112.81 163.344 112.694 163.344Z" fill="#2E3543"/>
<path d="M152.507 27.9527C153.053 29.3733 154.121 33.1959 152.36 35.7575C150.781 38.055 147.483 38.1476 145.611 36.0846C144.63 35.0028 144.153 33.2354 143.418 30.7408C143.057 29.5152 142.519 28.6699 141.926 27.9093C141.538 27.4128 140.945 27.1231 140.315 27.1212L134.744 27.0936C134.744 27.0936 134.787 24.9241 136.409 24.0552C137.828 23.2946 141.499 23.9212 141.786 23.4897C144.996 18.6602 150.314 22.2365 152.507 27.9527Z" fill="white"/>
<path d="M148.908 37.9959C147.536 37.9959 146.232 37.4166 145.288 36.3782C144.297 35.2866 143.808 33.6196 143.13 31.3083L142.998 30.863C142.636 29.6315 142.078 28.8157 141.581 28.1773C141.276 27.7852 140.813 27.5586 140.313 27.5566L134.742 27.529C134.626 27.529 134.514 27.4817 134.431 27.397C134.348 27.3123 134.305 27.2 134.307 27.0817C134.309 26.9832 134.376 24.6463 136.202 23.665C137.113 23.1764 138.718 23.1961 140.007 23.2118C140.561 23.2177 141.243 23.2276 141.471 23.1685C142.957 20.9853 144.703 20.6818 145.912 20.8158C148.616 21.1153 151.43 23.9192 152.915 27.7931C153.24 28.6423 154.764 33.0304 152.72 36.0018C151.92 37.1644 150.651 37.8875 149.237 37.9821C149.126 37.9919 149.018 37.9959 148.908 37.9959ZM135.233 26.6561L140.316 26.6817C141.087 26.6857 141.8 27.0344 142.271 27.6394C142.819 28.3408 143.434 29.2453 143.838 30.6167L143.97 31.064C144.614 33.261 145.081 34.8491 145.936 35.791C146.774 36.7151 147.956 37.1959 149.179 37.1131C150.326 37.0363 151.353 36.4511 152.001 35.5092C153.794 32.8984 152.399 28.8866 152.1 28.1103C150.75 24.5892 148.167 21.9488 145.818 21.6887C144.393 21.5311 143.158 22.2168 142.153 23.7301C141.909 24.0985 141.351 24.1064 139.999 24.0887C138.872 24.0749 137.331 24.0552 136.618 24.4374C135.656 24.9537 135.339 26.0414 135.233 26.6561Z" fill="#2E3543"/>
<path d="M61.3444 305.496L57.9297 321.884L66.8675 324.414L71.8093 308.46L61.3444 305.496Z" fill="white"/>
<path d="M66.867 324.851C66.8276 324.851 66.7882 324.846 66.7468 324.836L57.8109 322.306C57.5902 322.243 57.4543 322.02 57.5016 321.795L60.9143 305.409C60.9399 305.291 61.0129 305.187 61.1153 305.124C61.2197 305.061 61.3439 305.043 61.4621 305.076L71.927 308.04C72.0413 308.071 72.1359 308.148 72.193 308.253C72.2501 308.357 72.262 308.479 72.2265 308.592L67.2847 324.546C67.2276 324.731 67.0542 324.851 66.867 324.851ZM58.4415 321.573L66.5754 323.876L71.259 308.759L61.6769 306.046L58.4415 321.573Z" fill="#2E3543"/>
<path d="M54.9718 335.695C55.0723 337.271 57.0013 338.536 58.5599 338.772C63.9805 339.592 76.7193 339.245 80.1793 339.486C84.6699 339.797 93.1033 339.462 93.4304 336.597C93.8284 333.102 90.063 328.004 81.0522 325.212C76.3922 323.768 71.4642 316.613 69.2829 316.485C67.1017 316.357 63.2416 322.008 63.2416 322.008L57.0308 319.896C57.0328 319.894 54.4595 327.697 54.9718 335.695Z" fill="white"/>
<path d="M83.005 340C81.3597 340 80.1873 339.923 80.1479 339.921C78.9656 339.84 76.6425 339.827 73.9509 339.813C68.6583 339.783 62.0712 339.748 58.493 339.206C56.6703 338.93 54.6447 337.466 54.5344 335.724C54.0221 327.736 56.5895 319.839 56.6151 319.76C56.6526 319.65 56.7314 319.557 56.8358 319.506C56.9403 319.453 57.0605 319.445 57.1728 319.482L63.0702 321.488C63.9471 320.247 67.1628 315.924 69.3086 316.048C70.4435 316.115 71.9588 317.567 73.88 319.407C76.0277 321.464 78.7016 324.026 81.1823 324.794C90.4965 327.681 94.2856 332.962 93.8659 336.646C93.5309 339.563 86.9261 340 83.005 340ZM57.3166 320.454C56.8043 322.176 54.9738 328.893 55.4073 335.665C55.49 336.966 57.1688 338.118 58.623 338.337C62.1402 338.869 68.6918 338.905 73.9548 338.934C76.6602 338.95 78.9991 338.962 80.207 339.046C85.2099 339.391 92.7329 338.836 92.993 336.544C93.3851 333.1 89.3655 328.245 80.9203 325.628C78.2405 324.798 75.4859 322.158 73.2711 320.036C71.6238 318.457 70.0672 316.966 69.2534 316.919C67.8406 316.836 65.0387 320.146 63.5983 322.253C63.488 322.414 63.283 322.483 63.0959 322.42L57.3166 320.454Z" fill="#2E3543"/>
<path d="M85.3465 335.738C84.1603 335.738 82.8578 335.671 81.4785 335.598C79.4352 335.492 77.321 335.381 75.2402 335.476C70.5191 335.691 66.4797 335.506 63.9241 335.31C59.1852 334.95 58.998 334.65 58.9271 334.538C58.8424 334.404 58.8364 334.233 58.9133 334.093C59.0295 333.88 59.2956 333.801 59.5064 333.915C59.5084 333.915 59.5103 333.917 59.5123 333.917C60.2689 334.116 66.8501 334.979 75.2028 334.599C77.3249 334.503 79.4608 334.613 81.5258 334.721C84.6548 334.885 87.6085 335.039 89.3169 334.311C89.5395 334.217 89.7957 334.319 89.8922 334.542C89.9868 334.765 89.8843 335.021 89.6617 335.117C88.5385 335.596 87.0627 335.738 85.3465 335.738Z" fill="#2E3543"/>
<path d="M73.779 330.118C73.6687 330.118 73.5583 330.077 73.4736 329.994C73.3002 329.825 73.2982 329.547 73.4657 329.376L76.7366 326.028C76.9061 325.854 77.1839 325.852 77.3553 326.02C77.5287 326.189 77.5307 326.467 77.3632 326.639L74.0923 329.986C74.0056 330.073 73.8913 330.118 73.779 330.118Z" fill="#2E3543"/>
<path d="M12.8731 304.718L12.418 316.146L20.3962 318.073L21.8169 304.798L12.8731 304.718Z" fill="white"/>
<path d="M20.3945 318.513C20.361 318.513 20.3255 318.509 20.292 318.501L12.3138 316.574C12.1108 316.524 11.971 316.339 11.9788 316.13L12.434 304.7C12.4439 304.465 12.637 304.28 12.8714 304.28C12.8734 304.28 12.8734 304.28 12.8754 304.28L21.8191 304.361C21.9432 304.363 22.0595 304.416 22.1423 304.507C22.225 304.599 22.2644 304.722 22.2506 304.844L20.83 318.12C20.8162 318.247 20.7492 318.359 20.6467 318.432C20.5718 318.485 20.4832 318.513 20.3945 318.513ZM12.8675 315.805L20.0103 317.531L21.3265 305.232L13.2892 305.159L12.8675 315.805Z" fill="#2E3543"/>
<path d="M21.6124 338.855C18.4144 339.306 13.1967 339.497 7.01747 338.849C4.24706 338.557 3.16727 334.705 3.65396 332.723C5.00961 327.2 7.36426 318.294 11.3721 313.439L12.844 316.404L14.2331 313.513C14.4223 313.175 14.7592 312.944 15.1435 312.895L18.1405 312.924C18.769 312.844 19.3543 313.261 19.4843 313.884L19.9631 316.168L22.5207 313.218L24.5168 335.005C24.765 336.871 23.4724 338.593 21.6124 338.855Z" fill="white"/>
<path d="M14.7892 339.708C12.5941 339.708 9.97152 339.6 6.97057 339.285C5.90457 339.172 4.97059 338.587 4.26913 337.588C3.16766 336.024 2.91151 333.903 3.22677 332.619C4.85237 325.992 7.20899 317.793 11.0336 313.161C11.1281 313.047 11.2759 312.987 11.4217 313.005C11.5695 313.023 11.6976 313.113 11.7646 313.246L12.8385 315.407L13.8395 313.324C14.1055 312.842 14.5685 312.528 15.0907 312.461C15.1104 312.459 15.1261 312.457 15.1498 312.457L18.1192 312.485C18.9606 312.394 19.7409 312.964 19.9162 313.793L20.2138 315.214L22.194 312.932C22.3083 312.8 22.4916 312.749 22.659 312.802C22.8265 312.855 22.9448 313.005 22.9605 313.179L24.9566 334.965C25.2304 337.048 23.7605 338.995 21.6758 339.289C20.533 339.45 18.1704 339.708 14.7892 339.708ZM11.2858 314.254C7.35874 319.456 5.07306 328.772 4.07799 332.829C3.81593 333.895 4.04647 335.75 4.98635 337.086C5.54595 337.882 6.24545 338.329 7.06318 338.414C12.2848 338.961 17.6995 338.965 21.5517 338.422C23.1615 338.195 24.2984 336.688 24.0856 335.062L22.1802 314.282L20.2965 316.455C20.1881 316.581 20.0167 316.635 19.8551 316.593C19.6936 316.552 19.5714 316.422 19.5359 316.26L19.0571 313.977C18.9744 313.58 18.598 313.311 18.196 313.362C18.1763 313.364 18.1566 313.366 18.1369 313.366L15.1734 313.338C14.9389 313.376 14.732 313.521 14.6158 313.73L13.2385 316.599C13.1656 316.751 13.0138 316.845 12.8464 316.847C12.6986 316.84 12.5252 316.755 12.4523 316.605L11.2858 314.254Z" fill="#2E3543"/>
<path d="M12.7229 336.132C10.6776 336.132 8.46484 335.951 6.25797 335.446C6.02152 335.393 5.87571 335.159 5.92891 334.922C5.98211 334.686 6.21856 334.54 6.45304 334.593C13.9761 336.311 21.84 334.102 21.9189 334.081C22.1494 334.014 22.3937 334.148 22.4607 334.38C22.5277 334.613 22.3937 334.855 22.1612 334.922C21.9248 334.989 17.8539 336.132 12.7229 336.132Z" fill="#2E3543"/>
<path d="M10.8927 327.673C10.6583 327.673 10.4632 327.486 10.4553 327.249C10.4474 327.007 10.6366 326.806 10.879 326.798L18.069 326.56C18.3074 326.558 18.5124 326.741 18.5202 326.983C18.5281 327.226 18.339 327.427 18.0966 327.434L10.9065 327.673C10.9026 327.671 10.8967 327.673 10.8927 327.673Z" fill="#2E3543"/>
<path d="M97.1136 167.821C100.14 185.533 105.642 229.062 93.7639 261.621C83.5414 289.642 76.2449 303.597 73.441 308.664C72.6745 310.05 71.1435 310.822 69.577 310.621L62.2904 309.683C60.1308 309.405 58.6274 307.394 58.9722 305.238C61.6303 288.566 72.1898 207.414 69.376 199.913L24.1254 306.286C23.6367 307.415 22.5214 308.14 21.2939 308.127L13.6506 308.042C11.9482 308.022 10.5905 306.605 10.6359 304.899C12.894 218.802 38.0996 204.948 45.4847 163.783C45.5024 163.687 47.9024 166.58 47.993 166.633C55.388 170.916 59.0885 170.583 70.4322 171.204C82.7039 171.874 94.1008 167.244 96.7885 167.37C96.9954 167.378 97.0781 167.616 97.1136 167.821Z" fill="#2E3543"/>
<path d="M83.5951 85.3468L85.6858 74.6218C85.8355 73.9006 86.4306 73.3568 87.1596 73.2721L91.3645 72.7933C92.261 72.6908 92.9802 72.0031 93.1221 71.1085L94.0738 65.1264C94.0758 65.1165 94.0817 65.1086 94.0896 65.1047L96.0876 64.0229C96.4856 63.8081 96.6373 63.3136 96.4324 62.9096L94.328 58.7915C93.9182 57.9895 93.3546 53.4634 92.4581 53.5088C92.4581 53.5088 77.3253 48.2379 72.8741 54.5216C71.6958 56.1866 71.5638 58.3816 72.3618 60.2594L73.3805 62.6554C74.4386 65.1461 74.6751 67.946 73.8652 70.5273C73.5775 71.4475 73.1716 72.3381 72.6554 73.1716L66.9688 82.0404C71.1007 84.1153 75.6445 85.2286 80.2651 85.2975L83.5951 85.3468Z" fill="white"/>
<path d="M83.5953 85.7844C83.5934 85.7844 83.5914 85.7844 83.5894 85.7844L80.2594 85.7351C75.6013 85.6661 70.9374 84.5233 66.7739 82.4327C66.6635 82.3775 66.5808 82.277 66.5473 82.1568C66.5138 82.0366 66.5335 81.9085 66.6005 81.8041L72.2871 72.9353C72.7758 72.1451 73.1679 71.29 73.4477 70.3954C74.1984 67.9954 74.0329 65.3078 72.9767 62.825L71.958 60.429C71.0773 58.3561 71.2901 55.9956 72.5157 54.2655C77.0003 47.9366 91.3016 52.6478 92.5371 53.0715C93.3666 53.1404 93.7568 54.5985 94.2848 56.9512C94.4425 57.6507 94.6041 58.3739 94.7164 58.5926L96.8208 62.7108C97.1321 63.3216 96.8956 64.0822 96.2947 64.4073L94.474 65.3945L93.5538 71.1776C93.3824 72.2614 92.5016 73.1047 91.4139 73.2289L87.211 73.7077C86.6672 73.7687 86.2278 74.1727 86.1155 74.7106L84.0249 85.4317C83.9855 85.6366 83.8062 85.7844 83.5953 85.7844ZM67.6034 81.8652C71.5383 83.7607 75.9087 84.7952 80.2732 84.8602L83.2367 84.9036L85.2584 74.5372C85.4475 73.6229 86.1923 72.9412 87.1125 72.8367L91.3174 72.3579C92.0149 72.2791 92.5804 71.7372 92.6908 71.0397L93.6425 65.0575C93.6642 64.9235 93.7627 64.7836 93.8829 64.7186L95.8809 63.6369C96.0681 63.5364 96.141 63.2979 96.0444 63.1088L93.94 58.9906C93.7863 58.6891 93.6464 58.0921 93.4336 57.1443C93.2188 56.1946 92.7794 54.236 92.4248 53.9444C92.3873 53.9404 92.3519 53.9345 92.3164 53.9207C92.1686 53.8695 77.4437 48.8311 73.2329 54.7719C72.1827 56.2537 72.0033 58.2911 72.7679 60.0862L73.7866 62.4822C74.9235 65.156 75.1008 68.0585 74.2871 70.6575C73.9856 71.621 73.5619 72.5431 73.0319 73.4022L67.6034 81.8652Z" fill="#2E3543"/>
<path d="M80.6568 60.1808C79.8804 58.2498 78.6666 57.5266 78.8932 56.4291C79.0312 55.7671 79.6026 55.3513 79.9297 55.1148C81.5494 53.9405 83.6774 54.6577 87.9532 55.4636C93.2615 56.4646 93.8664 56.6222 94.8674 56.2262C97.4132 55.2193 98.8615 52.0863 98.9718 49.509C99.0033 48.7859 99.0664 44.9475 95.8093 42.9672C93.4566 41.5367 90.3079 41.6451 87.7641 43.2293C87.5414 42.4845 87.0784 41.4342 86.0675 40.918C83.6695 39.6924 80.0932 42.4411 78.842 43.4027C77.6854 44.2913 75.6223 46.1475 74.1445 49.4125C73.6716 49.1484 71.9002 48.2302 69.9692 48.8469C67.0983 49.7652 66.3909 53.2745 66.3298 53.6075C65.6106 57.4853 68.7988 60.8685 71.2047 63.4241C72.5308 64.8329 73.2283 65.3689 74.0066 65.8891C74.4677 66.1965 75.0627 66.2182 75.5475 65.9522C75.5553 65.9482 75.5652 65.9423 75.5731 65.9384C76.2095 65.5876 76.4223 64.7719 76.0401 64.1532L75.9179 63.9561C75.4588 63.2152 75.1455 62.3857 75.0489 61.5167C74.9721 60.8251 75.0273 60.098 75.4726 59.7256C76.1898 59.1227 77.4115 59.5207 77.5868 59.5778C78.4814 59.8695 79.043 60.5335 79.3878 61.164C79.7622 61.8418 81.0016 61.0359 80.6568 60.1808Z" fill="#2E3543"/>
<path d="M39.3788 45.1819C39.229 45.1819 39.0773 45.1721 38.9256 45.1524C37.0241 44.91 35.6507 43.18 35.8635 41.2982C35.966 40.3898 36.4172 39.58 37.1345 39.0165C37.8635 38.4431 38.7798 38.1928 39.7098 38.313C41.6112 38.5554 42.9846 40.2854 42.7718 42.1672C42.6694 43.0755 42.2181 43.8854 41.5009 44.4489C40.8901 44.9297 40.1492 45.1819 39.3788 45.1819ZM36.7325 41.3967C36.5729 42.8056 37.6074 44.1021 39.0359 44.2854C39.7315 44.374 40.4152 44.1888 40.959 43.7612C41.4911 43.3435 41.826 42.7425 41.9009 42.0706C42.0605 40.6618 41.026 39.3652 39.5975 39.182C38.9019 39.0933 38.2182 39.2785 37.6744 39.7061C37.1423 40.1238 36.8093 40.7248 36.7325 41.3967Z" fill="#2E3543"/>
<path d="M26.161 51.6272C26.0841 51.6272 26.0093 51.6075 25.9383 51.5661L23.0182 49.8381C22.8093 49.7159 22.7403 49.446 22.8645 49.2391C22.9866 49.0302 23.2566 48.9612 23.4635 49.0854L26.3836 50.8134C26.5925 50.9376 26.6615 51.2055 26.5373 51.4124C26.4566 51.5504 26.3107 51.6272 26.161 51.6272Z" fill="#2E3543"/>
<path d="M32.9618 55.6527C32.8849 55.6527 32.8101 55.633 32.7391 55.5916L29.819 53.8636C29.6101 53.7394 29.5411 53.4715 29.6653 53.2646C29.7894 53.0557 30.0574 52.9867 30.2643 53.1109L33.1844 54.8389C33.3933 54.9631 33.4623 55.231 33.3381 55.4379C33.2554 55.5759 33.1096 55.6527 32.9618 55.6527Z" fill="#2E3543"/>
<path d="M25.2252 57.639C25.1503 57.639 25.0735 57.6193 25.0025 57.5779C24.7937 57.4557 24.7247 57.1858 24.8489 56.9789L26.5769 54.0587C26.7011 53.8498 26.9671 53.7809 27.1759 53.905C27.3848 54.0272 27.4537 54.2971 27.3296 54.504L25.6016 57.4242C25.5208 57.5621 25.375 57.639 25.2252 57.639Z" fill="#2E3543"/>
<path d="M29.2506 50.833C29.1757 50.833 29.0989 50.8133 29.0279 50.772C28.8191 50.6498 28.7501 50.3798 28.8742 50.173L30.6023 47.2528C30.7264 47.0439 30.9944 46.975 31.2013 47.0991C31.4102 47.2213 31.4791 47.4912 31.355 47.6981L29.6269 50.6183C29.5462 50.7562 29.3984 50.833 29.2506 50.833Z" fill="#2E3543"/>
<path d="M239.886 249.301L220.658 293.826L237.659 288.215L247.038 303.499L258.575 255.935L239.886 249.301Z" fill="white"/>
<path d="M247.039 303.937C246.889 303.937 246.747 303.86 246.666 303.728L237.467 288.741L220.795 294.242C220.631 294.295 220.452 294.25 220.334 294.122C220.217 293.994 220.186 293.811 220.255 293.653L239.484 249.127C239.575 248.917 239.815 248.812 240.032 248.889L258.721 255.521C258.932 255.596 259.054 255.819 259.001 256.038L247.464 303.602C247.423 303.773 247.281 303.903 247.108 303.931C247.084 303.935 247.062 303.937 247.039 303.937ZM237.66 287.777C237.809 287.777 237.951 287.854 238.032 287.986L246.861 302.372L258.057 256.215L240.127 249.851L221.447 293.103L237.522 287.797C237.567 287.785 237.612 287.777 237.66 287.777Z" fill="#2458A4"/>
<path d="M256.822 257.587L269.979 304.27L279.632 289.186L296.546 295.123L275.506 250.938L256.822 257.587Z" fill="white"/>
<path d="M269.978 304.707C269.956 304.707 269.934 304.705 269.913 304.703C269.743 304.678 269.603 304.555 269.556 304.388L256.4 257.705C256.337 257.482 256.457 257.252 256.673 257.173L275.357 250.524C275.568 250.45 275.802 250.546 275.899 250.749L296.939 294.936C297.016 295.095 296.988 295.285 296.87 295.417C296.752 295.549 296.567 295.596 296.399 295.537L279.81 289.714L270.344 304.506C270.265 304.632 270.125 304.707 269.978 304.707ZM257.353 257.862L270.133 303.212L279.26 288.95C279.371 288.778 279.583 288.705 279.775 288.772L295.698 294.362L275.278 251.482L257.353 257.862Z" fill="#2458A4"/>
<path d="M295.054 237.916L289.805 244.286L292.227 252.182L284.932 256.048L284.144 264.266L275.927 265.056L272.063 272.353L264.174 269.929L257.805 275.182L251.437 269.929L243.546 272.353L239.682 265.054L231.465 264.266L230.677 256.046L223.382 252.182L225.804 244.286L220.555 237.916L225.804 231.543L223.382 223.65L230.677 219.784L231.465 211.563L239.682 210.775L243.546 203.477L251.437 205.9L257.805 200.649L264.174 205.9L272.063 203.477L275.927 210.775L284.144 211.563L284.932 219.784L292.227 223.65L289.805 231.543L295.054 237.916Z" fill="#2458A4"/>
<path d="M257.579 264.53C272.146 264.53 283.955 252.716 283.955 238.142C283.955 223.569 272.146 211.754 257.579 211.754C243.012 211.754 231.203 223.569 231.203 238.142C231.203 252.716 243.012 264.53 257.579 264.53Z" fill="white"/>
<path d="M257.579 264.968C242.793 264.968 230.766 252.934 230.766 238.142C230.766 223.35 242.795 211.317 257.579 211.317C272.365 211.317 284.393 223.35 284.393 238.142C284.393 252.932 272.365 264.968 257.579 264.968ZM257.579 212.192C243.276 212.192 231.64 223.833 231.64 238.142C231.64 252.452 243.276 264.093 257.579 264.093C271.882 264.093 283.518 252.452 283.518 238.142C283.518 223.833 271.88 212.192 257.579 212.192Z" fill="#2458A4"/>
<path d="M256.282 251.49C255.928 251.49 255.585 251.346 255.337 251.088L245.207 240.562C244.704 240.04 244.72 239.208 245.242 238.704C245.764 238.201 246.596 238.217 247.1 238.739L256.113 248.105L269.072 229.254C269.484 228.657 270.302 228.505 270.899 228.915C271.496 229.327 271.648 230.144 271.238 230.741L257.366 250.918C257.141 251.244 256.785 251.45 256.391 251.484C256.355 251.488 256.32 251.49 256.282 251.49Z" fill="#2458A4"/>
<path d="M194.102 76.5198L189.415 75.2021L187.98 70.8339C187.672 69.8946 186.338 69.7095 185.724 70.5211L182.863 74.2935L177.948 74.2812C176.89 74.2783 176.27 75.4075 176.898 76.1933L179.817 79.8433L178.213 84.2031C177.869 85.1397 178.82 86.023 179.821 85.6973L184.487 84.18L188.412 86.887C189.256 87.4682 190.463 86.8854 190.455 85.899L190.417 81.3116L194.447 78.6235C195.314 78.0461 195.109 76.8032 194.102 76.5198Z" fill="#2458A4"/>
<path d="M215.563 76.0845L210.869 74.9778L209.338 70.6564C209.009 69.7275 207.678 69.6041 207.084 70.4467L204.33 74.3669L199.439 74.5803C198.388 74.6257 197.797 75.79 198.441 76.5486L201.432 80.0797L199.942 84.5323C199.62 85.4902 200.588 86.3332 201.578 85.9594L206.182 84.2212L210.151 86.7599C211.004 87.3064 212.191 86.6627 212.159 85.6736L212.013 81.0672L215.957 78.182C216.805 77.5613 216.572 76.3229 215.563 76.0845Z" fill="#2458A4"/>
<path d="M237.794 76.5087L233.231 75.2262L231.974 70.7978C231.704 69.8456 230.399 69.6736 229.766 70.507L226.821 74.3839L221.99 74.4338C220.951 74.4434 220.302 75.6028 220.892 76.3934L223.633 80.0729L221.904 84.5316C221.533 85.4904 222.436 86.378 223.434 86.0331L228.071 84.4295L231.834 87.1362C232.643 87.7187 233.851 87.1085 233.877 86.105L234.003 81.4358L238.057 78.6507C238.931 78.0484 238.775 76.7843 237.794 76.5087Z" fill="#2458A4"/>
<path d="M259.279 76.0742L254.668 74.9838L253.227 70.6124C252.916 69.6723 251.605 69.556 251.009 70.4146L248.23 74.4106L243.405 74.6622C242.367 74.7159 241.767 75.9 242.389 76.6656L245.282 80.2258L243.742 84.7534C243.412 85.7266 244.351 86.5742 245.332 86.1875L249.9 84.3915L253.772 86.9382C254.605 87.4863 255.784 86.8261 255.77 85.8214L255.699 81.1514L259.633 78.197C260.479 77.5647 260.27 76.3088 259.279 76.0742Z" fill="#2458A4"/>
<path d="M281.814 76.0742L277.203 74.9838L275.762 70.6124C275.451 69.6723 274.14 69.556 273.544 70.4146L270.765 74.4106L265.94 74.6622C264.902 74.7159 264.302 75.9 264.924 76.6656L267.817 80.2258L266.277 84.7534C265.947 85.7266 266.886 86.5742 267.867 86.1875L272.435 84.3915L276.307 86.9382C277.14 87.4863 278.32 86.8261 278.305 85.8214L278.234 81.1514L282.168 78.197C283.015 77.5647 282.805 76.3088 281.814 76.0742Z" fill="#2458A4"/>
</svg>
