<svg width="84" height="20" viewBox="0 0 84 20" fill="none" xmlns="http://www.w3.org/2000/svg">
<g id="trustpilot logo">
<path id="Vector" d="M22.6772 7.0874H31.0291V8.62559H27.7452V17.2725H25.9393V8.62559H22.6699V7.0874H22.6772ZM30.6724 9.89783H32.216V11.321H32.2452C32.2961 11.1198 32.3908 10.9257 32.5291 10.7388C32.6675 10.5519 32.835 10.3722 33.0316 10.2213C33.2282 10.0632 33.4466 9.94096 33.6869 9.84033C33.9272 9.74689 34.1748 9.69658 34.4224 9.69658C34.6117 9.69658 34.75 9.70376 34.8228 9.71095C34.8957 9.71814 34.9685 9.73251 35.0486 9.7397V11.3066C34.9321 11.2851 34.8156 11.2707 34.6918 11.2563C34.568 11.242 34.4515 11.2348 34.335 11.2348C34.0583 11.2348 33.7961 11.2923 33.5486 11.4001C33.301 11.5079 33.0898 11.6732 32.9078 11.8817C32.7257 12.0973 32.5801 12.3561 32.4709 12.6723C32.3617 12.9886 32.3107 13.348 32.3107 13.7577V17.2653H30.6651V9.89783H30.6724ZM42.6141 17.2725H40.9976V16.2447H40.9685C40.7646 16.6184 40.466 16.9131 40.0656 17.136C39.6651 17.3588 39.2573 17.4738 38.8423 17.4738C37.8592 17.4738 37.1457 17.2366 36.7088 16.755C36.2719 16.2734 36.0534 15.5474 36.0534 14.5771V9.89783H37.6991V14.419C37.6991 15.0659 37.8228 15.5259 38.0777 15.7918C38.3253 16.0578 38.6821 16.1944 39.1335 16.1944C39.483 16.1944 39.767 16.144 40 16.0362C40.233 15.9284 40.4224 15.7918 40.5607 15.6121C40.7063 15.4396 40.8083 15.224 40.8738 14.9796C40.9393 14.7352 40.9685 14.4693 40.9685 14.1818V9.90502H42.6141V17.2725ZM45.4175 14.9077C45.4685 15.3821 45.6505 15.7128 45.9636 15.9068C46.284 16.0937 46.6626 16.1944 47.1068 16.1944C47.2597 16.1944 47.4345 16.18 47.6311 16.1584C47.8277 16.1368 48.017 16.0865 48.1845 16.0218C48.3592 15.9572 48.4976 15.8565 48.6141 15.7271C48.7233 15.5978 48.7743 15.4324 48.767 15.224C48.7597 15.0156 48.6796 14.843 48.534 14.7137C48.3884 14.5771 48.2063 14.4765 47.9806 14.3902C47.7549 14.3111 47.5 14.2393 47.2088 14.1818C46.9175 14.1243 46.6262 14.0596 46.3277 13.9949C46.0219 13.9302 45.7233 13.8439 45.4393 13.7505C45.1554 13.6571 44.9005 13.5277 44.6748 13.3624C44.4491 13.2042 44.267 12.9958 44.1359 12.7442C43.9976 12.4926 43.9321 12.1836 43.9321 11.8098C43.9321 11.4073 44.034 11.0766 44.2306 10.8035C44.4272 10.5304 44.6821 10.3147 44.9806 10.1494C45.2864 9.98409 45.6214 9.86908 45.9927 9.7972C46.3641 9.73251 46.7209 9.69658 47.0559 9.69658C47.4418 9.69658 47.8131 9.7397 48.1626 9.81877C48.5122 9.89783 48.8325 10.0272 49.1165 10.2141C49.4005 10.3938 49.6335 10.631 49.8228 10.9185C50.0122 11.206 50.1287 11.5582 50.1796 11.9679H48.4612C48.3811 11.5798 48.2063 11.3138 47.9224 11.1845C47.6384 11.0479 47.3107 10.9832 46.9466 10.9832C46.8301 10.9832 46.6918 10.9904 46.5316 11.0119C46.3714 11.0335 46.2257 11.0694 46.0801 11.1198C45.9418 11.1701 45.8253 11.2491 45.7233 11.3498C45.6287 11.4504 45.5777 11.5798 45.5777 11.7451C45.5777 11.9464 45.6505 12.1045 45.7889 12.2267C45.9272 12.3489 46.1092 12.4495 46.335 12.5358C46.5607 12.6148 46.8156 12.6867 47.1068 12.7442C47.3981 12.8017 47.6966 12.8664 48.0025 12.9311C48.301 12.9958 48.5923 13.082 48.8835 13.1755C49.1748 13.2689 49.4296 13.3983 49.6554 13.5636C49.8811 13.7289 50.0631 13.9302 50.2015 14.1746C50.3398 14.419 50.4126 14.728 50.4126 15.0874C50.4126 15.5259 50.3107 15.8925 50.1068 16.2015C49.9029 16.5034 49.6408 16.755 49.3204 16.9419C49 17.1288 48.6359 17.2725 48.2427 17.3588C47.8495 17.445 47.4563 17.4882 47.0704 17.4882C46.5971 17.4882 46.1602 17.4378 45.7597 17.33C45.3592 17.2222 45.0097 17.0641 44.7185 16.8556C44.4272 16.64 44.1942 16.374 44.0267 16.0578C43.8592 15.7415 43.7719 15.3606 43.7573 14.9221H45.4175V14.9077ZM50.8495 9.89783H52.0947V7.68399H53.7403V9.89783H55.2258V11.1126H53.7403V15.0515C53.7403 15.224 53.7476 15.3678 53.7622 15.4971C53.7767 15.6193 53.8131 15.7271 53.8641 15.8134C53.9151 15.8997 53.9952 15.9643 54.1044 16.0075C54.2136 16.0506 54.352 16.0722 54.5413 16.0722C54.6578 16.0722 54.7743 16.0722 54.8908 16.065C55.0073 16.0578 55.1238 16.0434 55.2403 16.0147V17.2725C55.0583 17.2941 54.8762 17.3085 54.7088 17.33C54.534 17.3516 54.3592 17.3588 54.1772 17.3588C53.7403 17.3588 53.3908 17.3156 53.1287 17.2366C52.8665 17.1575 52.6554 17.0353 52.5097 16.8772C52.3568 16.7191 52.2622 16.525 52.2039 16.2878C52.1529 16.0506 52.1165 15.7775 52.1093 15.4756V11.1269H50.8641V9.89783H50.8495ZM56.3908 9.89783H57.9491V10.8969H57.9782C58.2112 10.4657 58.5316 10.1638 58.9466 9.9769C59.3617 9.79002 59.8059 9.69658 60.2937 9.69658C60.8835 9.69658 61.3932 9.7972 61.8301 10.0057C62.267 10.2069 62.6311 10.4872 62.9224 10.8466C63.2136 11.206 63.4248 11.6229 63.5704 12.0973C63.716 12.5717 63.7889 13.082 63.7889 13.6211C63.7889 14.1171 63.7233 14.5987 63.5923 15.0587C63.4612 15.5259 63.2646 15.9356 63.0025 16.295C62.7403 16.6544 62.4054 16.9347 61.9976 17.1503C61.5898 17.366 61.1165 17.4738 60.5631 17.4738C60.3228 17.4738 60.0826 17.4522 59.8423 17.4091C59.602 17.366 59.369 17.2941 59.1505 17.2006C58.9321 17.1072 58.7209 16.985 58.5389 16.8341C58.3495 16.6831 58.1966 16.5106 58.0656 16.3165H58.0364V19.9967H56.3908V9.89783ZM62.1432 13.5924C62.1432 13.2617 62.0995 12.9383 62.0122 12.622C61.9248 12.3057 61.7937 12.0326 61.619 11.7882C61.4442 11.5438 61.2258 11.3498 60.9709 11.206C60.7088 11.0623 60.4102 10.9832 60.0753 10.9832C59.3835 10.9832 58.8592 11.2204 58.5097 11.6948C58.1602 12.1692 57.9855 12.8017 57.9855 13.5924C57.9855 13.9661 58.0292 14.3111 58.1238 14.6274C58.2185 14.9437 58.3495 15.2168 58.5389 15.4468C58.7209 15.6768 58.9394 15.8565 59.1942 15.9859C59.4491 16.1225 59.7476 16.1872 60.0826 16.1872C60.4612 16.1872 60.7743 16.1081 61.0364 15.9572C61.2986 15.8062 61.5097 15.605 61.6772 15.3678C61.8447 15.1234 61.9685 14.8502 62.0413 14.5412C62.1068 14.2321 62.1432 13.9158 62.1432 13.5924ZM65.0486 7.0874H66.6942V8.62559H65.0486V7.0874ZM65.0486 9.89783H66.6942V17.2725H65.0486V9.89783ZM68.1651 7.0874H69.8107V17.2725H68.1651V7.0874ZM74.8568 17.4738C74.2597 17.4738 73.7282 17.3731 73.2622 17.1791C72.7962 16.985 72.4029 16.7119 72.0753 16.374C71.7549 16.029 71.5073 15.6193 71.3398 15.1449C71.1724 14.6705 71.085 14.1458 71.085 13.578C71.085 13.0173 71.1724 12.4998 71.3398 12.0254C71.5073 11.551 71.7549 11.1413 72.0753 10.7963C72.3957 10.4513 72.7962 10.1853 73.2622 9.99128C73.7282 9.7972 74.2597 9.69658 74.8568 9.69658C75.4539 9.69658 75.9855 9.7972 76.4515 9.99128C76.9175 10.1853 77.3107 10.4585 77.6384 10.7963C77.9588 11.1413 78.2063 11.551 78.3738 12.0254C78.5413 12.4998 78.6287 13.0173 78.6287 13.578C78.6287 14.1458 78.5413 14.6705 78.3738 15.1449C78.2063 15.6193 77.9588 16.029 77.6384 16.374C77.318 16.7191 76.9175 16.985 76.4515 17.1791C75.9855 17.3731 75.4539 17.4738 74.8568 17.4738ZM74.8568 16.1872C75.2209 16.1872 75.5413 16.1081 75.8107 15.9572C76.0801 15.8062 76.2986 15.605 76.4733 15.3606C76.6481 15.1162 76.7719 14.8359 76.8593 14.5268C76.9394 14.2177 76.983 13.9014 76.983 13.578C76.983 13.2617 76.9394 12.9527 76.8593 12.6364C76.7792 12.3201 76.6481 12.047 76.4733 11.8026C76.2986 11.5582 76.0801 11.3641 75.8107 11.2132C75.5413 11.0623 75.2209 10.9832 74.8568 10.9832C74.4927 10.9832 74.1724 11.0623 73.9029 11.2132C73.6335 11.3641 73.4151 11.5654 73.2403 11.8026C73.0656 12.047 72.9418 12.3201 72.8544 12.6364C72.7743 12.9527 72.7306 13.2617 72.7306 13.578C72.7306 13.9014 72.7743 14.2177 72.8544 14.5268C72.9345 14.8359 73.0656 15.1162 73.2403 15.3606C73.4151 15.605 73.6335 15.8062 73.9029 15.9572C74.1724 16.1153 74.4927 16.1872 74.8568 16.1872ZM79.1093 9.89783H80.3544V7.68399H82V9.89783H83.4855V11.1126H82V15.0515C82 15.224 82.0073 15.3678 82.0219 15.4971C82.0364 15.6193 82.0728 15.7271 82.1238 15.8134C82.1748 15.8997 82.2549 15.9643 82.3641 16.0075C82.4733 16.0506 82.6117 16.0722 82.801 16.0722C82.9175 16.0722 83.034 16.0722 83.1505 16.065C83.267 16.0578 83.3835 16.0434 83.5 16.0147V17.2725C83.318 17.2941 83.136 17.3085 82.9685 17.33C82.7937 17.3516 82.619 17.3588 82.4369 17.3588C82 17.3588 81.6505 17.3156 81.3884 17.2366C81.1262 17.1575 80.9151 17.0353 80.7695 16.8772C80.6165 16.7191 80.5219 16.525 80.4636 16.2878C80.4127 16.0506 80.3763 15.7775 80.369 15.4756V11.1269H79.1238V9.89783H79.1093Z" fill="#191919"/>
<g id="Group 1">
<path id="Vector_2" d="M20.7549 7.08718H13.2112L10.8811 0L8.54369 7.08718L1 7.07999L7.10922 11.4645L4.77185 18.5445L10.8811 14.1672L16.983 18.5445L14.6529 11.4645L20.7549 7.08718Z" fill="#00B67A"/>
<path id="Vector_3" d="M15.1772 13.0675L14.6529 11.4646L10.8811 14.1672L15.1772 13.0675Z" fill="#005128"/>
</g>
</g>
</svg>
