<svg width="80" height="73" viewBox="0 0 80 73" fill="none" xmlns="http://www.w3.org/2000/svg">
<g>
<path d="M51.0798 11.5895C52.3218 12.8394 52.6161 14.5387 51.8642 16.0985C51.1849 17.5037 49.1705 18.631 47.9617 18.2382C47.72 18.1597 47.5054 18.1345 47.4858 18.1949C47.4727 18.2352 47.6944 19.1982 48.0042 20.3011C49.5623 26.1306 49.9432 34.8294 48.9329 41.1607C48.7859 42.0929 48.6847 42.8841 48.6918 42.931C48.7054 42.9576 49.7287 42.7556 50.9858 42.4513C53.7276 41.8276 55.5613 41.5993 58.428 41.5508C60.1494 41.531 63.7021 41.839 64.4878 42.0943C64.5482 42.1139 64.8524 41.5891 65.162 40.9102C65.8408 39.438 66.6592 38.7016 67.8568 38.5117C70.3725 38.104 72.4995 40.332 72.0907 42.961C71.6815 45.523 68.4104 47.0216 66.3364 45.5904C65.5214 45.0138 65.9556 44.843 62.4837 47.234C56.1331 51.6297 51.2241 57.0729 47.2982 64.0828C46.7035 65.1591 46.0615 66.1755 45.8751 66.3377C45.23 66.9521 44.1583 66.9603 42.8342 66.3741C41.6445 65.854 27.2546 58.6616 21.0073 55.4735C19.3261 54.6154 15.9571 52.9194 13.5497 51.6917C8.86265 49.3225 8.28999 48.8914 8.48331 47.8851C8.5412 47.5698 9.16814 46.3258 9.90235 45.0944C11.754 41.9319 12.9046 39.0762 13.9196 35.1296C15.3702 29.4314 15.9083 25.3076 15.6341 21.833L15.502 20.3201L14.5078 19.9525C12.1366 19.093 11.3568 16.9687 12.5583 14.6418C13.2251 13.3439 13.5776 13.013 14.6599 12.6296C16.417 12.0201 18.2992 12.8766 19.1031 14.6524C19.6894 16.0011 19.4085 17.8253 18.4255 18.9313C18.213 19.1741 18.2472 19.2743 18.5494 19.3725C19.1941 19.582 21.3957 21.9232 22.4257 23.4829C23.354 24.8759 25.0404 28.1857 25.7033 29.9156C25.8877 30.3764 26.0983 30.7567 26.1516 30.7295C26.205 30.7023 27.0692 29.8249 28.0865 28.819C32.1082 24.7358 38.6934 20.3718 44.1165 18.2138L45.9129 17.4834L45.3432 16.5633C45.0379 16.0632 44.7775 15.2881 44.781 14.8661C44.7734 13.8613 45.6168 12.0195 46.4156 11.3435C47.5668 10.3367 49.9792 10.4524 51.0798 11.5895ZM47.3972 11.8184C46.9691 11.902 46.3889 12.2481 46.0762 12.5251C45.3515 13.2474 45.3269 14.4198 45.9989 15.5736C47.1659 17.5342 50.024 17.2378 50.7113 15.1225C51.3528 13.1482 49.5235 11.3066 47.3972 11.8184ZM43.6159 19.343C35.8925 23.7826 31.0437 27.4635 27.4179 31.6309C26.5945 32.5884 25.8436 33.3912 25.7837 33.4386C25.7036 33.4794 25.0629 32.0239 24.3526 30.234C22.7608 26.1532 21.1364 23.064 19.5201 21.0465C18.8371 20.201 18.2019 19.4823 18.1213 19.4562C18.0408 19.43 17.593 19.574 17.1191 19.7987C16.6518 20.0032 16.1371 20.1478 15.9759 20.0954C15.8147 20.0431 15.6944 20.0708 15.7085 20.1644C15.716 20.2783 15.843 21.1213 16.0108 22.0445C16.1519 22.9813 16.2774 24.5143 16.2911 25.4319C16.2908 28.9287 15.2004 35.3008 13.9043 39.2897L13.1974 41.4654L13.8823 41.688C14.668 41.9433 15.3404 42.2731 30.2083 49.7767C31.1496 50.2385 34.2496 51.8025 37.1008 53.2412C43.0586 56.2238 47.8332 58.6661 48.3787 59.0438C48.7086 59.2624 48.9014 59.08 50.1886 57.4492C54.0899 52.5027 58.4758 48.7382 63.4193 46.068L65.5209 44.9468L65.1542 44.2931C64.9573 43.9396 64.7452 43.3584 64.6822 43.0038L64.5769 42.3682L61.6432 42.4173C56.767 42.4811 51.8098 43.3427 47.9153 44.7723C47.381 44.9773 46.9262 45.0746 46.899 45.0212C46.8516 44.9612 47.0238 43.8145 47.275 42.4929C48.3408 36.4023 48.4238 28.812 47.4654 21.6851C47.1817 19.6107 46.8134 17.8651 46.6724 17.8193C46.5314 17.7735 45.1499 18.4605 43.6159 19.343ZM13.9534 13.9814C12.9794 14.5113 12.7799 14.7138 12.7301 15.2099C12.5953 16.8588 13.2949 18.133 14.5978 18.5786C15.6389 18.9391 16.5479 18.6777 17.3854 17.8139C17.884 17.3077 17.9892 17.0523 18.0239 16.3286C18.0878 15.0352 17.431 14.1091 16.1618 13.6967C15.1948 13.3825 15.0543 13.4037 13.9534 13.9814ZM67.4767 39.6131C66.7006 39.7396 65.641 40.4644 65.4708 40.9882C65.2548 41.653 65.6084 43.2379 66.095 43.7969C66.6964 44.4824 68.0462 44.9209 68.8484 44.7139C70.6131 44.2182 71.3583 41.7876 70.1294 40.4973C69.5552 39.8653 68.3464 39.4726 67.4767 39.6131ZM12.2678 43.4352L11.8458 44.3227L12.8476 44.8041C13.9501 45.3182 26.7731 51.7119 29.5639 53.131C30.4987 53.6129 32.1864 54.4508 33.296 55.0118C34.4055 55.5728 35.8243 56.2788 36.4564 56.5955C37.0885 56.9122 39.3212 58.0609 41.4325 59.1032C43.5373 60.1658 45.629 61.2686 46.0798 61.5264C46.5305 61.7842 46.9873 61.9549 47.0941 61.9005C47.3207 61.7514 48.4986 59.8401 48.4507 59.7131C48.4235 59.6598 46.6693 58.8893 44.5661 58.0278C34.8421 53.955 21.3184 47.0441 14.7683 42.8C12.9778 41.6614 13.1516 41.6065 12.2678 43.4352ZM10.6629 46.4551C10.1805 47.3229 9.83156 48.1227 9.87236 48.2028C9.91316 48.2829 13.2287 50.0061 17.2363 51.9987C21.2439 53.9913 28.9971 57.8914 34.4442 60.6635L44.3964 65.679L44.8698 65.3874C45.2964 65.1028 46.7854 62.7134 46.6565 62.4933C46.6293 62.44 45.2246 61.8276 43.5515 61.1504C34.043 57.2368 20.1835 50.1944 13.6268 45.9704C12.7046 45.3812 11.8635 44.8852 11.7562 44.8726C11.6223 44.8737 11.1519 45.5672 10.6629 46.4551Z" fill="#E44B60"/>
<path d="M54.8344 25.5478C55.0067 26.1828 55.2284 27.1458 55.3131 27.7078C55.5675 29.461 55.1432 33.5772 54.7891 32.8162C54.7277 32.6626 54.6803 31.7118 54.6857 30.6667C54.6912 29.6217 54.6201 28.1954 54.5546 27.5059C54.2517 24.6679 54.2219 24.2796 54.3629 24.3255C54.4435 24.3517 54.6485 24.886 54.8344 25.5478Z" fill="#E44B60"/>
<path d="M52.475 24.7152C53.3414 26.7785 53.4232 29.6115 52.6286 31.7142C52.0838 33.1854 52.0777 33.2725 52.3671 29.9142C52.4531 28.8954 52.3996 27.1407 52.1966 25.9834C52.0404 24.819 51.926 23.8686 51.9793 23.8414C52.0327 23.8142 52.2433 24.1944 52.475 24.7152Z" fill="#E44B60"/>
<path d="M10.4545 23.0907C10.9376 24.9627 10.8456 26.9596 10.2106 28.9138C9.90298 29.8606 9.48805 30.7949 9.30172 30.9571C9.00913 31.2407 9.0212 31.0664 9.34144 30.0123C9.88474 28.3401 10.147 25.8194 10.0174 23.7505C9.96341 22.8198 9.97091 22.0427 10.0308 21.9953C10.1044 21.9747 10.3023 22.4622 10.4545 23.0907Z" fill="#E44B60"/>
<path d="M12.7018 24.4006C12.9376 26.3481 12.8239 28.1376 12.3436 30.1642C11.8562 32.1441 11.5737 31.9854 11.8525 29.8933C11.9472 29.1222 12.074 27.2925 12.1363 25.7982C12.1785 24.2974 12.2963 23.0438 12.3763 23.003C12.4564 22.9622 12.6085 23.5908 12.7018 24.4006Z" fill="#E44B60"/>
</g>
</svg>
