<svg width="53" height="76" viewBox="0 0 53 76" fill="none" xmlns="http://www.w3.org/2000/svg">
<g id="Icon">
<path id="Fill 1" fill-rule="evenodd" clip-rule="evenodd" d="M25.691 68.794C24.3909 68.7624 23.0599 68.6366 21.7502 68.2694C21.2737 68.1361 20.7869 68.0047 20.3291 67.7834C19.5226 67.3997 18.7732 66.8511 18.1833 66.1691C17.8856 65.8233 17.6305 65.4767 17.4023 65.0663C17.163 64.6558 17.0235 64.1794 16.9678 63.7016C16.9114 63.276 16.9568 62.8381 17.0613 62.4249C17.1747 62.0103 17.3769 61.6328 17.6127 61.2877C18.2459 60.4187 19.3191 59.8982 20.3208 59.9938C20.635 60.0137 20.5903 60.176 20.3889 60.4221C20.1737 60.6401 19.8835 61.0842 19.5611 61.3276C19.251 61.538 19.0716 61.8549 18.8715 62.0948C18.6866 62.3568 18.5676 62.6442 18.5147 62.9364C18.4356 63.2237 18.4212 63.5324 18.4824 63.8535C18.5456 64.1732 18.7045 64.4915 18.9203 64.8676C19.183 65.2849 19.5446 65.6479 19.9619 65.9443C20.3868 66.233 20.8612 66.4571 21.35 66.6531C22.4308 67.0814 23.6463 67.2684 24.8742 67.3461C25.6326 67.3894 26.4026 67.4004 27.1602 67.3571C28.3104 67.2897 29.4703 67.1467 30.56 66.8092C31.4139 66.5706 32.2046 66.2062 32.9588 65.7909C33.1265 65.7009 33.2826 65.6005 33.4462 65.5036C34.054 65.1433 34.2822 65.078 34.5586 65.177C34.6205 65.199 34.6913 65.2114 34.7408 65.2396C34.8969 65.3166 34.7814 65.6665 34.3613 66.0653C33.735 66.6469 33.0034 67.1625 32.2073 67.5764C31.8085 67.7799 31.3988 67.9779 30.9725 68.1292C30.5421 68.2646 30.1035 68.3788 29.6614 68.4681C28.3503 68.7445 27.009 68.8325 25.6931 68.8298L25.691 68.794Z" fill="#2E3543"/>
<path id="Fill 3" fill-rule="evenodd" clip-rule="evenodd" d="M29.2363 69.2916C28.5316 69.4786 27.8146 69.612 27.0954 69.722C26.8307 69.7578 26.5715 69.7921 26.3061 69.8279C25.3711 69.8953 24.4306 69.8746 23.5038 69.7447C23.0913 69.6904 22.6802 69.6175 22.2745 69.5316C21.7603 69.4016 21.2199 69.2696 20.7813 68.9314C20.6417 68.8324 20.7524 68.7052 20.9504 68.6268C21.1532 68.545 21.4145 68.525 21.6757 68.6082C22.5887 68.9506 23.5898 69.1046 24.6162 69.1947C25.2336 69.2414 25.8792 69.1734 26.5069 69.0826C27.2013 69.0035 27.8902 68.8605 28.5729 68.69C28.9937 68.5897 29.4068 68.4515 29.8207 68.3236L30.753 67.9929C31.0576 67.8691 31.3601 67.7378 31.6585 67.6024C32.115 67.3769 32.5392 67.1101 32.9813 66.8729L33.2666 66.7059C33.631 66.5085 33.7753 66.4934 33.917 66.5532C33.9493 66.5677 33.9871 66.5773 34.0118 66.5952C34.0937 66.6522 33.9912 66.8104 33.754 67.018C33.0548 67.6409 32.2112 68.1538 31.3113 68.5546C30.6506 68.8709 29.9521 69.1142 29.2425 69.3095L29.2363 69.2916Z" fill="#2E3543"/>
<path id="Fill 5" fill-rule="evenodd" clip-rule="evenodd" d="M30.6107 73.7259C30.8341 73.5355 31.0253 73.2646 31.2006 72.9806C31.268 72.8796 31.2927 72.751 31.356 72.6438C31.5718 72.2539 31.7623 71.8325 31.9514 71.3966C32.0421 71.2068 32.1081 71.004 32.1824 70.8019C32.2827 70.5454 32.3474 70.2539 32.6361 70.0442C32.7186 69.9796 32.8135 70.1089 32.9001 70.2656C32.9826 70.4313 33.083 70.5688 33.0569 70.7022C32.9318 71.1326 32.8774 71.6909 32.5674 72.1742C32.3996 72.4684 32.3309 72.8184 32.181 73.1401C32.0222 73.4949 31.809 73.8366 31.5705 74.1611C31.3986 74.3481 31.248 74.5468 31.039 74.7022L30.8142 74.8851L30.5557 75.0246C30.3907 75.1305 30.2051 75.1841 30.0249 75.2522C29.8867 75.3161 29.7485 75.3594 29.6049 75.3993C29.4639 75.4364 29.3154 75.5038 29.1697 75.5155C29.1057 75.5238 29.0425 75.5251 28.9771 75.5196C28.7358 75.4894 28.665 75.4165 28.6471 75.1738C28.6423 75.1223 28.6348 75.0721 28.6348 75.0253C28.6355 74.8782 28.7448 74.6932 28.885 74.6266C29.3147 74.4134 29.6344 74.3433 29.9472 74.1907C30.1562 74.0532 30.3962 73.9397 30.5908 73.7101L30.6107 73.7259Z" fill="#2E3543"/>
<path id="Fill 7" fill-rule="evenodd" clip-rule="evenodd" d="M19.7825 61.5886C19.61 61.6601 19.4051 61.7385 19.2284 61.8753C19.1651 61.9255 19.1273 61.997 19.0641 62.0485C18.8331 62.2294 18.6055 62.4411 18.4377 62.6914C18.3759 62.8014 18.3374 62.9313 18.3449 63.0447C18.3408 63.2063 18.3985 63.2929 18.2789 63.4174C18.2363 63.4593 17.9709 63.5838 17.6746 63.6154C17.3886 63.6635 17.0146 63.5267 16.985 63.3369C16.9073 62.9973 16.974 62.7003 17.0778 62.4528C17.1782 62.1991 17.3336 61.9908 17.5206 61.8148C17.7488 61.6133 17.8499 61.3363 18.0493 61.1224C18.2707 60.8928 18.5154 60.6872 18.7946 60.5188C18.9582 60.4095 19.1521 60.3352 19.3349 60.2534C19.4766 60.1943 19.6368 60.1634 19.7832 60.1194C19.9448 60.1042 20.0974 60.0678 20.2583 60.0568C20.3841 60.0547 20.5127 60.0245 20.644 60.019C20.7725 60.0252 20.9087 60.032 21.0434 60.054C21.1053 60.0582 21.1507 60.0919 21.2002 60.1228C21.3721 60.2589 21.3762 60.3779 21.2531 60.6233C21.2249 60.6797 21.1988 60.7354 21.1672 60.7876C21.0613 60.9595 20.9025 61.0819 20.7794 61.1479C20.3972 61.3638 20.3772 61.427 20.2157 61.4648C20.1112 61.4882 19.9592 61.535 19.8031 61.6181L19.7825 61.5886Z" fill="#2E3543"/>
<path id="Fill 9" fill-rule="evenodd" clip-rule="evenodd" d="M7.99008 50.0344C6.34279 48.1245 4.85844 46.0557 3.67178 43.8144C3.44284 43.4122 3.24414 42.9942 3.04889 42.5741C2.84195 42.1596 2.65563 41.7367 2.49681 41.3008C1.28403 38.2689 0.788331 34.9585 1.03034 31.7223C1.06953 31.0032 1.18915 30.2889 1.27578 29.5745C1.42979 28.8719 1.51573 28.1541 1.71854 27.4694C2.12349 25.6894 2.81513 23.9197 3.88697 22.425C4.22386 21.961 4.25411 22.0806 4.09048 22.5405C3.91998 23.0005 3.63397 23.8331 3.25446 24.7777C3.0867 25.1978 2.9382 25.6261 2.80551 26.0579C2.67144 26.4876 2.58069 26.94 2.45281 27.3759C2.32768 27.8145 2.21493 28.2552 2.13999 28.7048C2.06161 29.1531 1.94336 29.5952 1.89592 30.0482C1.60854 31.8482 1.58723 33.6852 1.76254 35.5106C1.97086 37.7003 2.65288 39.9203 3.6044 41.9609C4.63912 44.2139 5.96465 46.3417 7.52326 48.2936C8.46997 49.5043 9.49368 50.6586 10.5703 51.76C12.1936 53.4376 13.935 55.0189 15.7102 56.517C17.0914 57.6823 18.4967 58.761 19.8862 59.8941C20.1908 60.1457 20.4974 60.3808 20.7944 60.6483C21.9061 61.6246 22.2066 62.0041 22.3166 62.343C22.3427 62.4193 22.3867 62.5101 22.3929 62.5623C22.4108 62.7411 21.9144 62.3973 21.0845 61.7222C18.606 59.7373 15.9227 57.6816 13.372 55.4273C11.4799 53.7511 9.64494 51.978 7.97771 50.0488L7.99008 50.0344Z" fill="#2E3543"/>
<path id="Fill 11" fill-rule="evenodd" clip-rule="evenodd" d="M4.71259 21.1284C5.79474 19.6825 7.0694 18.4106 8.46025 17.2948C9.88341 16.2236 11.4069 15.301 13.0164 14.5619C16.2464 13.1264 19.772 12.344 23.3223 12.4554C24.6176 12.4952 25.9101 12.6444 27.16 12.8926C27.7898 13.0171 28.4175 13.1669 29.0397 13.3505C29.6619 13.5306 30.2704 13.794 30.8823 14.0188C33.0026 14.9455 34.8891 16.3728 36.3934 18.0964C37.9046 19.8194 39.0438 21.8255 39.8248 23.9369C41.4116 28.1638 41.7162 32.7523 41.1249 37.1359C40.8884 39.0891 40.4731 41.0162 39.9603 42.9062C39.4646 44.8037 38.8135 46.6477 38.1218 48.4579C37.2301 50.7845 36.1603 53.0437 34.9675 55.2306C33.7843 57.4231 32.4395 59.5235 30.9799 61.5276C30.0648 62.7755 30.0194 62.4853 30.5364 61.2671C30.8011 60.6627 31.1751 59.8075 31.653 58.7989C32.1136 57.78 32.6842 56.6119 33.336 55.3668C34.4979 53.1605 35.4928 50.8787 36.445 48.5906C37.3772 46.2929 38.1734 43.943 38.7743 41.5477C39.9871 36.7694 40.3618 31.7478 39.2067 26.9565C38.8547 25.5326 38.3604 24.1294 37.7086 22.7956C37.0541 21.4625 36.2064 20.2236 35.2171 19.1202C34.2243 18.0208 33.0782 17.05 31.7836 16.3323C30.4911 15.6131 29.1181 15.0624 27.6551 14.7235C21.2543 13.1216 14.1192 14.7874 8.99239 18.9964C7.42553 20.2931 6.06356 21.8441 5.06391 23.6062C4.83978 24.0593 4.59915 24.5062 4.38533 24.9634L3.85938 26.3852C3.59675 27.3752 3.32312 28.3666 3.18974 29.3841L3.09417 29.9582L3.04605 30.5384L2.95392 31.6997L2.96148 32.865L2.96767 33.4473L3.02198 34.0283C3.1148 35.5835 3.47368 37.1118 3.91507 38.6058C4.36608 40.1018 5.01716 41.5312 5.7253 42.9248C6.46645 44.3032 7.30659 45.6267 8.2203 46.8952C11.0928 50.8333 14.6293 54.1052 18.2553 57.3083C19.057 58.0144 19.8559 58.6889 20.6541 59.4231C23.6193 62.1148 24.4251 63.2966 24.5798 64.2536C24.6135 64.4723 24.6499 64.7466 24.632 64.871C24.6142 64.979 24.5468 64.9686 24.4313 64.8717C24.3103 64.7741 24.1845 64.585 23.9273 64.3416C23.455 63.848 22.6699 63.0793 21.5829 62.1258C18.3254 59.3296 14.8205 56.4861 11.6146 53.1963C8.41487 49.9182 5.42004 46.1898 3.45168 41.8089C2.7181 40.1891 2.16877 38.4752 1.78789 36.7199C1.39944 34.9619 1.30044 33.1434 1.35613 31.3428C1.42282 29.5354 1.7817 27.7602 2.2499 26.0283C2.7951 24.2683 3.62494 22.6072 4.6734 21.1112L4.71259 21.1284Z" fill="#2E3543"/>
<path id="Fill 13" fill-rule="evenodd" clip-rule="evenodd" d="M22.4853 67.6893C24.2377 68.0103 26.1016 67.9574 27.929 67.6597C28.5911 67.5435 29.2621 67.3593 29.9043 67.2183C30.9844 66.9385 32.0851 66.4242 33.0895 65.8282C34.0919 65.2225 35.027 64.4806 35.6787 63.5793C36.2281 62.7667 36.3566 61.7924 35.8692 60.9942C35.566 60.4875 35.0572 60.0695 34.5086 59.7264C33.9482 59.3964 33.3508 59.096 32.7155 58.8698C32.3209 58.7371 32.38 58.6079 32.7863 58.4924C33.1782 58.403 33.9847 58.2772 34.8063 58.6436C35.5233 58.964 36.2294 59.3985 36.8014 60.097C37.1005 60.4415 37.2786 60.8897 37.4477 61.3291C37.4965 61.5642 37.5357 61.8055 37.555 62.0468C37.5612 62.2861 37.5199 62.5226 37.4952 62.7598C37.3136 63.6893 36.8303 64.427 36.3064 65.0382C35.7784 65.6577 35.1569 66.1245 34.5175 66.5459C33.7502 67.0437 32.9548 67.4926 32.1222 67.8928C31.7056 68.0922 31.2779 68.2757 30.8345 68.4345C30.6152 68.5177 30.3773 68.5782 30.1504 68.6491L29.4883 68.7934C27.5578 69.2231 25.5564 69.4479 23.555 69.2795C22.3251 69.1716 21.1013 68.9137 19.9359 68.4627C19.0559 68.1114 18.2261 67.6137 17.4959 66.9825C16.7761 66.3404 16.1876 65.5119 15.8968 64.5508C15.6864 63.8062 15.6548 62.9688 15.9085 62.2084C16.1697 61.4507 16.6585 60.7983 17.2416 60.2978C17.4987 60.0757 17.7593 59.8722 18.0515 59.7017C18.5905 59.3834 18.9954 59.2892 19.2801 59.2534C19.5702 59.2307 19.7572 59.2967 19.9249 59.4349C20.0013 59.4961 20.092 59.5504 20.1415 59.6151C20.3079 59.8385 19.9208 60.1603 19.2835 60.5625C18.334 61.1469 17.5358 61.9561 17.3179 62.8196C17.1859 63.25 17.2099 63.6749 17.311 64.1238C17.4334 64.5728 17.6967 65.0107 18.0185 65.4191C19.0422 66.6284 20.7403 67.3545 22.4887 67.6528L22.4853 67.6893Z" fill="#2E3543"/>
<path id="Fill 15" fill-rule="evenodd" clip-rule="evenodd" d="M20.6515 64.4356C21.6237 64.8426 22.7051 65.1087 23.8113 65.2386C24.2156 65.2881 24.6247 65.2812 25.0324 65.2971C26.472 65.3603 27.944 65.2537 29.3541 64.8942C29.9777 64.7333 30.591 64.5126 31.1527 64.2238C31.8752 63.8457 32.5043 63.3576 33.0626 62.8151C33.24 62.6467 33.372 62.7429 33.3967 63.0413C33.4366 63.3445 33.3115 63.8718 32.9003 64.2458C31.4414 65.5157 29.636 66.1076 27.8388 66.2836C26.7622 66.3861 25.6518 66.5511 24.5442 66.5195C23.3308 66.483 22.1104 66.3249 20.9355 65.9461C20.2143 65.7137 19.5089 65.4029 18.8578 64.9836C18.3676 64.6625 17.9097 64.2727 17.5329 63.8038C17.3569 63.5597 17.1802 63.3163 17.0489 63.0434C16.8984 62.7986 16.7884 62.4088 16.7952 62.0774C16.8028 61.5391 17.0084 61.0613 17.2717 60.6625C17.5391 60.2624 17.8746 59.9241 18.2617 59.6491C18.4295 59.524 18.6041 59.4133 18.7966 59.3191C19.5309 58.9925 19.8664 59.119 20.0314 59.4092C20.0706 59.4765 20.1166 59.5412 20.1359 59.6072C20.1874 59.8306 19.9496 60.0348 19.5962 60.2294C19.0572 60.5133 18.5498 60.9781 18.2741 61.4593C18.1359 61.6972 18.0754 61.9296 18.0891 62.0829C18.0912 62.1627 18.1153 62.2239 18.1462 62.2885C18.1833 62.3682 18.2865 62.5339 18.349 62.6549C18.8323 63.4098 19.6807 64.0121 20.6625 64.404L20.6515 64.4356Z" fill="#2E3543"/>
<path id="Fill 17" fill-rule="evenodd" clip-rule="evenodd" d="M24.6097 70.7287C25.5165 70.9418 26.5031 70.9741 27.4869 70.8854C27.8479 70.8607 28.1985 70.7603 28.5574 70.7012C29.8273 70.4942 31.082 70.0989 32.2824 69.5729C32.809 69.3282 33.313 69.0277 33.7695 68.686C34.3724 68.255 34.8523 67.7208 35.348 67.2244C35.5151 67.0745 35.6643 67.1666 35.7351 67.4519C35.7681 67.5929 35.7963 67.7991 35.7543 68.0136C35.7048 68.2123 35.6093 68.4317 35.4566 68.6283C34.3119 69.9043 32.8874 70.8187 31.3095 71.3007C30.3642 71.5716 29.423 71.9655 28.4261 72.1381C27.3378 72.3354 26.2171 72.4048 25.0985 72.2928C24.4124 72.2199 23.7214 72.0569 23.0745 71.8266C22.0934 71.4664 21.1666 70.9136 20.3979 70.1931C19.7977 69.6417 19.2457 69.0215 18.849 68.2935C18.7678 68.1312 18.6881 67.9717 18.62 67.8019C18.4213 67.1536 18.5348 66.9054 18.807 66.7046C18.8696 66.6585 18.926 66.6049 18.9858 66.5747C19.1776 66.4736 19.4691 66.6668 19.7221 67.0195C20.0941 67.5454 20.4179 68.0411 20.7871 68.4956C21.1577 68.9487 21.5942 69.3392 22.0892 69.6699C22.8166 70.158 23.7193 70.5148 24.6145 70.6915L24.6097 70.7287Z" fill="#2E3543"/>
<path id="Fill 22" fill-rule="evenodd" clip-rule="evenodd" d="M20.8228 28.5289C20.798 28.1844 20.796 27.831 20.8152 27.4694L20.8558 26.9118L20.9225 26.5096C20.961 26.3646 21.0132 26.2243 21.0579 26.0813C21.249 25.5066 21.6959 25.1325 22.2253 25.0232C22.7602 24.9173 23.3178 25.1009 23.7468 25.4914C23.8506 25.5925 23.9592 25.6963 24.0452 25.8111C24.1407 25.9266 24.2315 26.0387 24.2707 26.1136C24.38 26.2841 24.4666 26.4519 24.5491 26.6196C24.7127 26.9538 24.8386 27.2838 24.9513 27.6124C25.1638 28.2752 25.3418 28.9627 25.4223 29.6447C25.7612 32.3735 25.3508 35.1249 24.1565 37.5966C23.9372 38.0469 23.6808 38.4828 23.3975 38.9049C23.2538 39.1173 23.0613 39.3318 22.8922 39.5422C22.6908 39.7354 22.4859 39.9327 22.2556 40.0991C21.3143 40.7811 20.0534 40.9606 19.0201 40.7158C18.0913 40.5254 17.2676 40.1314 16.5203 39.6612C15.7716 39.1854 15.0985 38.632 14.4894 37.9884C13.8706 37.3243 13.39 36.5955 12.9858 35.8214C12.5863 35.0465 12.2577 34.2277 12.0927 33.3415C11.9304 32.467 11.9009 31.4845 12.3292 30.5749C12.532 30.1329 12.8111 29.7368 13.2168 29.4027C13.6141 29.0679 14.1697 28.874 14.697 28.8905C15.7668 28.9263 16.5725 29.5705 17.1803 30.1583C17.808 30.7695 18.3271 31.4625 18.7808 32.1823C20.3848 34.7495 21.2813 37.6289 22.1325 40.3934C22.6887 42.1789 23.1768 44.0125 23.4876 45.8853C23.6333 46.823 23.7454 47.7691 23.7743 48.7192C23.8032 49.67 23.7543 50.6195 23.665 51.56C23.522 52.7329 23.3487 52.5452 23.1665 51.5587C23.0661 51.032 22.9341 50.3486 22.7822 49.5552C22.6007 48.7364 22.4185 47.7931 22.2446 46.766C21.9338 44.9441 21.4147 43.1606 20.8585 41.3648C20.3168 39.5484 19.7757 37.7437 19.1184 36.0249C18.4598 34.3109 17.6588 32.6299 16.5045 31.3264C16.2198 31.0026 15.8981 30.6946 15.5963 30.4869C15.2828 30.28 14.9479 30.1521 14.664 30.1528C14.3794 30.1452 14.1312 30.247 13.8905 30.4794C13.6499 30.7131 13.4457 31.0631 13.3426 31.402C13.0751 32.2607 13.2814 33.3628 13.687 34.3556C14.0906 35.3566 14.6942 36.3336 15.4292 37.1022C16.1978 37.8805 17.1226 38.5501 18.1023 38.9943C19.0772 39.4164 20.1538 39.6172 20.996 39.2232C21.4615 39.0211 21.8616 38.665 22.1923 38.2181C22.5285 37.732 22.8255 37.2026 23.0716 36.6471C23.5502 35.5292 23.8692 34.3233 24.0046 33.0981C24.1524 31.873 24.1215 30.6265 23.9049 29.4282C23.7825 28.8348 23.621 28.2497 23.392 27.6901C23.2786 27.4144 23.15 27.1504 23.005 26.9235C22.8846 26.7345 22.8234 26.6623 22.6825 26.5818C22.5161 26.4876 22.3071 26.5873 22.2411 26.7599C22.2047 26.841 22.1737 26.9331 22.1607 27.0163C22.1304 27.1538 22.0967 27.3539 22.0906 27.5292C22.0548 28.2621 22.138 29.0328 22.281 29.7836C22.4261 30.5351 22.6337 31.2803 22.9238 31.9788C23.2071 32.6595 23.5928 33.3731 24.0857 33.7141C24.4934 33.9637 24.9967 34.0861 25.48 33.9946C25.9695 33.9121 26.4501 33.6495 26.8716 33.3037C27.7096 32.6045 28.3813 31.6055 28.7031 30.5674C28.8619 30.0758 28.8667 29.5107 28.7959 28.9751C28.7189 28.4478 28.5264 27.9232 28.2108 27.6544C27.8843 27.3835 27.5584 27.3869 27.2139 27.7121C26.8674 28.0442 26.5849 28.5461 26.3717 29.059C26.1957 29.4598 26.0933 29.8682 25.9922 30.3192C25.8788 30.7557 25.8031 31.2013 25.7303 31.6461C25.599 32.5371 25.5199 33.4343 25.5006 34.3322C25.4601 36.128 25.5962 37.9224 25.9077 39.6914C26.0452 40.4711 26.2163 41.226 26.4109 41.9974C26.7657 43.4301 27.0716 44.3507 27.2366 45.0169C27.4099 45.6804 27.4374 46.0943 27.3872 46.4655C27.3638 46.6347 27.3611 46.8485 27.3184 46.9619C27.2084 47.3387 26.3573 46.3432 25.5941 44.1967C24.4893 41.0204 23.9365 37.5436 24.0878 34.0022C24.1352 33.1181 24.2184 32.2291 24.3669 31.3436C24.4501 30.9029 24.4996 30.4546 24.6062 30.0139L24.7519 29.3422C24.8166 29.0885 24.8922 28.8603 24.9761 28.6272C25.1486 28.1659 25.3528 27.7121 25.6526 27.2535C25.9523 26.8163 26.3525 26.2779 27.2236 25.9885C27.6388 25.8943 28.1008 25.8854 28.492 26.0758C28.9052 26.2113 29.1995 26.4643 29.4394 26.7303C29.9152 27.2762 30.0933 27.8489 30.2163 28.3824C30.3683 29.1875 30.3875 29.9252 30.1833 30.7771C29.9688 31.5526 29.6285 32.2126 29.216 32.8279C28.7994 33.4384 28.3037 33.9988 27.6897 34.4732C27.0792 34.9386 26.3174 35.3374 25.4168 35.4089C25.1974 35.4412 24.9651 35.402 24.7416 35.3917C24.5182 35.3635 24.3016 35.2927 24.0844 35.2363C23.8808 35.1538 23.6849 35.0562 23.489 34.9599C23.2696 34.8314 23.0799 34.6753 22.9211 34.5199C22.3161 33.8881 22.0053 33.2301 21.7282 32.5756C21.2085 31.2597 20.8984 29.9349 20.7911 28.5385L20.8228 28.5289Z" fill="#2458A4"/>
<path id="Fill 24" fill-rule="evenodd" clip-rule="evenodd" d="M48.0574 30.1897C48.0416 30.31 47.8828 30.2571 47.636 30.1113C47.5569 30.0652 47.3706 29.8734 47.3644 29.826C47.352 29.7339 47.3417 29.6424 47.3472 29.564C47.3472 29.5166 47.6594 29.0182 47.77 28.8428C47.8732 28.6716 48.0086 28.5335 48.1557 28.4097C48.4479 28.1498 48.7608 27.9085 49.0915 27.6885C49.165 27.6404 49.2475 27.606 49.3355 27.5833C49.6422 27.5111 49.9062 27.3757 50.1674 27.2175C50.2114 27.1921 50.2623 27.179 50.287 27.113C50.3194 26.9934 51.1052 26.682 51.2248 26.6964C51.5115 26.7081 51.7851 26.6937 52.0636 26.7287C52.1028 26.7335 52.1392 26.7053 52.1839 26.7603C52.2863 26.8869 52.3606 26.8525 52.4424 26.8525C52.5545 26.8497 52.6686 26.8628 52.7827 26.8999C52.8391 26.9178 52.8989 26.9914 52.9553 27.0491C53.0062 27.1007 52.9931 27.3069 52.9794 27.3303C52.9381 27.3984 52.9821 27.4912 52.9917 27.5757C52.9952 27.6039 52.9993 27.6411 52.9986 27.6644C52.9869 27.7098 52.4947 28.1368 52.4486 28.1533C52.441 28.1491 52.2568 28.2289 52.067 28.3031C51.8759 28.3788 51.6827 28.4695 51.6463 28.4977C51.6078 28.5238 51.5535 28.5053 51.504 28.4998C51.4765 28.4922 50.9471 28.8181 50.9271 28.8291C50.8041 28.8676 50.7126 28.968 50.5428 28.9157C50.5091 28.9068 50.4892 28.9253 50.4672 28.9391C50.2781 29.0573 50.0615 29.1282 49.8518 29.2217C49.7467 29.2718 49.6566 29.3461 49.5597 29.41C49.5418 29.4217 49.515 29.4197 49.493 29.4252C49.4655 29.432 49.4345 29.4341 49.4132 29.4506C49.1891 29.6115 48.9244 29.729 48.736 29.9415C48.6906 29.9855 48.3675 30.0879 48.3214 30.1505C48.2946 30.1828 48.0636 30.1402 48.0574 30.1897Z" fill="#2E3543"/>
<path id="Fill 26" fill-rule="evenodd" clip-rule="evenodd" d="M41.4334 14.8705C41.4169 14.9943 41.2484 14.9379 40.9913 14.7894C40.9095 14.7419 40.7156 14.5453 40.708 14.4965C40.6936 14.4003 40.6812 14.3047 40.684 14.2222C40.684 14.1727 40.983 13.6392 41.0834 13.446C41.1783 13.2597 41.3076 13.1084 41.4478 12.9709C41.7345 12.6925 42.0405 12.4374 42.3443 12.1926C42.4124 12.139 42.4908 12.0978 42.5774 12.073C42.8744 11.985 43.1123 11.82 43.3268 11.6268C43.3625 11.5945 43.4079 11.5746 43.4127 11.501C43.4251 11.38 44.0363 10.9269 44.1353 10.9042C44.3925 10.8506 44.6235 10.7598 44.8668 10.6828C44.9026 10.6739 44.9198 10.6354 44.9872 10.6725C45.1439 10.7592 45.1886 10.6938 45.2573 10.6608C45.3529 10.6141 45.4512 10.5715 45.5674 10.5502C45.6252 10.5392 45.7207 10.5777 45.8053 10.601C45.8823 10.6223 46.0067 10.8155 46.0095 10.8458C46.0171 10.9317 46.1161 10.9922 46.1793 11.0637C46.2006 11.0878 46.2288 11.1194 46.2432 11.1407C46.2756 11.184 46.0452 11.9156 45.9889 11.9616C45.9909 11.9933 45.2958 12.6127 45.2271 12.6959C45.1913 12.7392 45.124 12.7392 45.0662 12.7509C45.0387 12.7591 44.5052 13.2638 44.4811 13.2734C44.3464 13.3401 44.2563 13.468 44.0583 13.437C44.0191 13.4309 43.9985 13.4529 43.9758 13.4714C43.7806 13.6275 43.5468 13.7237 43.3254 13.8372C43.214 13.8956 43.124 13.9836 43.0222 14.0544C43.0037 14.0682 42.9741 14.0654 42.9514 14.0723C42.9218 14.0806 42.8882 14.0826 42.8662 14.1012C42.6448 14.2937 42.3526 14.3996 42.1573 14.623C42.1092 14.6684 41.762 14.7681 41.7139 14.8327C41.685 14.8657 41.4402 14.8196 41.4334 14.8705Z" fill="#2E3543"/>
<path id="Fill 19" fill-rule="evenodd" clip-rule="evenodd" d="M32.5187 73.6175C32.155 74.1365 31.7232 74.6604 31.1485 75.0681C30.9319 75.2063 30.7291 75.372 30.4788 75.4586C30.0491 75.6367 29.5438 75.6821 29.1058 75.6126C28.6617 75.5453 28.2595 75.394 27.8993 75.1988C27.5789 75.0269 27.2695 74.8502 26.9752 74.6597C26.7889 74.5346 26.5978 74.4143 26.4252 74.272C26.2595 74.1207 26.12 73.9406 26.0038 73.7433C25.933 73.6182 26.0636 73.5164 26.274 73.4573C26.4809 73.4023 26.7834 73.3617 26.9965 73.458C27.6614 73.9241 28.3303 74.3105 28.9952 74.5669C29.4173 74.7189 29.814 74.6027 30.2004 74.3889C30.6218 74.1606 30.9965 73.7818 31.3197 73.3328C31.5225 73.0599 31.7033 72.756 31.8765 72.4473C32.133 71.9729 32.3922 71.4834 32.6163 70.9774C32.7868 70.5835 32.903 70.1613 33.0893 69.7591C33.1313 69.6704 33.1629 69.5776 33.2117 69.4917C33.4125 69.1823 33.574 69.1452 33.8635 69.2641C33.926 69.2889 33.9872 69.306 34.0367 69.3308C34.1866 69.4023 34.3289 69.6794 34.2712 69.9193C34.1089 70.6391 33.8085 71.3115 33.4489 72.0231C33.1863 72.5511 32.8899 73.0901 32.5441 73.6319L32.5187 73.6175Z" fill="#2E3543"/>
<path id="Fill 28" fill-rule="evenodd" clip-rule="evenodd" d="M23.2413 7.07623C23.3176 7.18418 23.1684 7.28249 22.8996 7.37255C22.8137 7.40143 22.5517 7.40556 22.5111 7.37599C22.4341 7.31824 22.3565 7.26049 22.2994 7.20136C22.2685 7.16355 22.0581 6.58328 21.957 6.39284C21.8656 6.20652 21.8174 6.01883 21.7776 5.83045C21.6978 5.44819 21.5802 5.0735 21.5136 4.69399C21.4964 4.61011 21.4984 4.52348 21.5136 4.43479C21.5692 4.12885 21.517 3.83665 21.4187 3.55339C21.4022 3.50595 21.4008 3.45439 21.3321 3.41933C21.2138 3.36295 21.022 2.58262 21.0729 2.4623C21.1444 2.17905 21.165 1.90404 21.2007 1.62353C21.2056 1.58366 21.176 1.54928 21.2351 1.49978C21.3726 1.38359 21.3238 1.3114 21.3334 1.22408C21.3417 1.10514 21.3472 0.985515 21.3877 0.858325C21.4276 0.789573 21.5094 0.711196 21.5617 0.641069C21.6098 0.576442 21.7494 0.569567 21.7755 0.581255C21.8394 0.618381 21.9048 0.558567 21.9639 0.538629C21.9845 0.531754 22.0113 0.522816 22.0306 0.520753C22.0993 0.50769 22.7944 1.01989 22.782 1.10033C22.7848 1.10789 22.8865 1.33821 22.9945 1.58434C23.1017 1.82841 23.2186 2.08417 23.2489 2.13504C23.2819 2.18867 23.2592 2.25399 23.2516 2.31586C23.2585 2.3413 23.5197 3.10307 23.519 3.13745C23.5266 3.30382 23.6098 3.45989 23.4909 3.64758C23.4682 3.68471 23.4805 3.71634 23.4881 3.74934C23.5486 4.02847 23.528 4.32135 23.5232 4.60873C23.5204 4.75586 23.5534 4.89887 23.5541 5.04531C23.5548 5.07143 23.5349 5.09962 23.5266 5.12712C23.5163 5.1615 23.4991 5.19656 23.5012 5.22956C23.5252 5.57263 23.4592 5.92189 23.5108 6.26015C23.5218 6.33853 23.376 6.72148 23.3946 6.80948C23.4035 6.86035 23.209 7.03361 23.2413 7.07623Z" fill="#2E3543"/>
<path id="Fill 31" fill-rule="evenodd" clip-rule="evenodd" d="M0.980219 8.28277C0.833778 8.26352 0.908717 8.06758 1.12322 7.78088C1.19129 7.68944 1.45323 7.47219 1.50961 7.46256C1.61892 7.44262 1.72549 7.42406 1.81212 7.422C1.86299 7.42612 2.36282 7.6915 2.55326 7.74788C2.73064 7.81251 2.87502 7.91013 3.0139 8.0167L3.89736 8.6334C3.96336 8.67947 4.01836 8.74066 4.06786 8.81353C4.23287 9.06791 4.46937 9.22948 4.72994 9.35461C4.77325 9.37524 4.80969 9.4103 4.87982 9.38486C4.99051 9.34498 5.66703 9.74718 5.73578 9.83931C5.89941 10.0662 6.08848 10.2573 6.26861 10.4656C6.29473 10.4952 6.3408 10.4966 6.3353 10.5736C6.32223 10.7516 6.40473 10.7695 6.46867 10.8204C6.55668 10.8919 6.64124 10.9717 6.70999 11.0755C6.74437 11.1263 6.74437 11.2329 6.75331 11.3237C6.76224 11.4062 6.61511 11.5987 6.58693 11.6124C6.50442 11.6516 6.48105 11.7699 6.43361 11.8585C6.4178 11.8881 6.39648 11.9266 6.38067 11.9493C6.34423 11.9974 5.58659 12.0339 5.52746 11.9974C5.52059 11.994 5.29989 11.9046 5.06476 11.8077C4.82963 11.7135 4.58212 11.6159 4.52712 11.6014C4.47006 11.587 4.4405 11.5258 4.40337 11.477C4.38756 11.4591 3.65604 11.1772 3.6306 11.1545C3.50272 11.0562 3.33084 11.0191 3.2724 10.8128C3.2614 10.7723 3.22909 10.7606 3.2009 10.7461C2.95202 10.6128 2.7492 10.4093 2.54088 10.2154C2.43294 10.1178 2.30507 10.0449 2.18888 9.95688C2.16825 9.94106 2.16069 9.90806 2.14556 9.88469C2.12631 9.85581 2.11394 9.81662 2.08781 9.79737C1.8128 9.5863 1.60449 9.29892 1.31504 9.09748C1.24423 9.05279 1.0971 8.65747 1.02078 8.6059C0.974719 8.57634 1.03728 8.29033 0.980219 8.28277Z" fill="#2E3543"/>
</g>
</svg>
