<svg width="78" height="83" viewBox="0 0 78 83" fill="none" xmlns="http://www.w3.org/2000/svg">
<g id="Icon">
<path id="Fill 1" fill-rule="evenodd" clip-rule="evenodd" d="M43.3233 73.3849C43.0969 73.4652 42.95 73.3308 42.6817 73.2167C42.5914 73.1801 42.4559 73.0142 42.5272 72.9349C42.5913 72.8647 42.6769 72.7743 42.7551 72.7169C42.8281 72.6638 42.9063 72.6114 42.9898 72.5627C43.1018 72.4549 44.6581 72.1828 45.1761 72.2396C45.6832 72.2399 46.1824 72.3235 46.6755 72.4416C47.1753 72.5741 47.6759 72.7184 48.175 72.932C48.4254 73.0325 48.6724 73.1521 48.9174 73.3034C49.0404 73.3784 49.1635 73.437 49.2841 73.5349L49.534 73.7284C49.6316 73.8057 49.7345 73.8805 49.81 73.9628C49.9609 74.1043 50.0474 74.2759 50.1615 74.4317C50.2551 74.5936 50.4015 74.7457 50.4352 74.9114C50.5004 75.1973 50.5948 75.4427 50.6528 75.7376C50.6864 75.8808 50.7204 76.0226 50.7536 76.1626C50.7962 76.3186 50.7884 76.3817 50.8085 76.4956C50.1214 76.672 49.3688 76.8685 48.8796 77.125C48.7743 77.1711 48.7204 77.1937 48.6714 77.2208C48.6188 77.2495 48.5687 77.2836 48.5273 77.333C48.4597 77.4118 47.9769 77.6531 47.4579 77.876C47.1929 77.9746 46.9517 78.1433 46.7343 78.2357C46.5164 78.3288 46.3405 78.3731 46.2744 78.3883C45.6 78.4953 44.9187 78.6126 44.2133 78.6359C44.1112 78.6333 44.0066 78.6687 43.9066 78.603C43.6797 78.4565 43.4682 78.4854 43.2505 78.4779C42.9527 78.4779 42.6405 78.4085 42.3555 78.2913C42.2097 78.2366 42.0918 78.0706 41.9741 77.9661C41.8688 77.8652 41.9785 77.7218 42.0245 77.7013C42.158 77.6601 42.0823 77.5495 42.0907 77.4756C42.0933 77.449 42.0968 77.4146 42.1076 77.3933C42.113 77.3807 42.2176 77.3447 42.3629 77.2763C42.5011 77.2484 42.6851 77.1768 42.8643 77.1076C43.2212 76.9991 43.5739 76.8382 43.6469 76.8228C43.6555 76.8212 43.7821 76.7914 43.9712 76.7475C44.1628 76.6983 44.4164 76.6419 44.6783 76.5544C45.2011 76.3976 45.7499 76.1612 45.8587 76.1078C45.9744 76.0598 46.1163 76.0748 46.2505 76.0618C46.2652 76.0588 46.3825 76.0295 46.5445 75.9693C46.7024 75.8944 46.909 75.7963 47.1157 75.6982C47.5334 75.4965 47.9498 75.2943 47.9814 75.2793C48.0172 75.2739 48.0964 75.2302 48.0776 75.2418C48.0809 75.2433 48.0941 75.2594 48.1919 75.2952L48.2023 75.2984C48.2324 75.3087 48.2323 75.303 48.2353 75.3014C48.2102 75.2641 48.2099 75.2447 48.2045 75.2145L48.1905 75.164C48.168 75.1277 48.2277 75.1817 48.097 75.0567C47.8798 74.8959 47.6351 74.769 47.3723 74.6424C47.3261 74.6182 47.2885 74.5761 47.2452 74.544C47.1898 74.5052 47.1324 74.4647 47.0698 74.44C46.4204 74.1765 45.7248 73.9053 44.9985 73.8305C44.8355 73.823 44.0597 73.5258 43.869 73.5454C43.8163 73.5458 43.7044 73.4909 43.5894 73.4421C43.4812 73.4031 43.368 73.3697 43.3233 73.3849Z" fill="#2E3543"/>
<path id="Fill 3" fill-rule="evenodd" clip-rule="evenodd" d="M23.9809 21.7101C23.645 21.4412 23.4838 21.1023 23.3889 20.7281C23.3599 20.6077 23.5073 20.47 23.6208 20.5329C23.8405 20.6563 24.0683 20.7782 24.2814 20.9257C24.3446 20.9718 24.8541 21.3834 25.3848 21.9238C25.9237 22.4533 26.4598 23.1477 26.6871 23.5423C27.1458 24.2853 27.4607 25.197 27.4569 26.1676C27.4643 27.1532 27.1216 28.1323 26.6061 28.9108C26.0617 29.755 25.3483 30.317 24.713 30.8148C24.4285 31.0388 24.1438 31.2389 23.8693 31.4297C23.398 31.7545 22.9895 32.1116 22.7237 32.5018C22.4436 32.91 22.3684 33.248 22.3587 33.831C22.3522 34.0077 22.3475 34.1954 22.4022 34.3745C22.424 34.4486 22.4491 34.687 22.4882 35.0513C22.523 35.4117 22.5763 35.9145 22.5318 36.4851C22.4875 37.057 22.299 37.6482 22.0857 38.0631C21.8699 38.4839 21.6675 38.743 21.5785 38.8539C21.1276 39.3604 20.7027 39.6949 20.2373 40.0542C19.7745 40.3988 19.294 40.7152 18.7785 40.9785C18.6341 41.0556 18.4847 41.154 18.3269 41.1754C17.9553 41.2159 17.649 41.3821 17.3072 41.4959C16.8385 41.6532 16.3401 41.7606 15.8346 41.7363C15.5861 41.7393 15.3406 41.654 15.1084 41.5804C14.8992 41.516 15.0324 41.3423 15.1016 41.3217C15.3095 41.2662 15.146 41.1733 15.1341 41.0974C15.1298 41.0715 15.1239 41.037 15.1347 41.0162C15.1401 41.003 15.2993 40.972 15.5272 40.9274C15.6409 40.8941 15.772 40.855 15.9123 40.813C16.0516 40.7674 16.1957 40.6935 16.3427 40.6444C16.9314 40.416 17.4776 40.0278 17.5949 39.9765C17.6073 39.9644 17.8107 39.8598 18.099 39.6693C18.3894 39.4861 18.7561 39.2017 19.1115 38.8909C19.4644 38.5798 19.8043 38.2269 20.0269 37.946C20.2239 37.6995 20.3536 37.4419 20.3827 37.3726C20.4581 37.2105 20.5578 37.067 20.6286 36.9086C20.6599 36.8642 20.7944 36.3271 20.7078 35.5912C20.6209 34.8624 20.5581 33.9253 20.5788 33.86C20.5979 33.4928 20.6124 33.1518 20.7204 32.7069C20.7672 32.4979 20.8603 32.3037 20.9428 32.11C21.0494 31.9343 21.1529 31.7483 21.2889 31.6043C21.396 31.4932 21.4746 31.3472 21.5699 31.2318C22.3821 30.1939 23.387 29.6263 24.1893 28.9798C24.5989 28.6483 24.9536 28.315 25.2037 27.9461C25.2488 27.8743 25.3101 27.8125 25.3631 27.7442C25.4292 27.6586 25.5096 27.5764 25.5453 27.478C26.0765 26.5047 26.0492 25.3304 25.4824 24.2675C25.4285 24.1437 25.2638 23.7801 25.0675 23.4089C24.8766 23.0364 24.6329 22.6738 24.5221 22.5472C24.4083 22.4002 24.1185 21.8186 23.9809 21.7101Z" fill="#2458A4"/>
<path id="Fill 5" fill-rule="evenodd" clip-rule="evenodd" d="M48.9874 37.2869C48.5913 36.9815 48.1338 36.8121 47.6451 36.6784C47.4904 36.6341 47.487 36.4743 47.683 36.4308C48.0575 36.3491 48.4784 36.316 48.9103 36.4482C48.9684 36.4773 49.299 36.5596 49.6504 36.9242C49.999 37.2815 50.2415 37.9584 50.1488 38.6119C50.0821 39.2782 49.7699 39.8698 49.4175 40.353C49.0544 40.8525 48.5684 41.1646 48.331 41.3341C47.8221 41.6921 47.8047 41.7645 47.7102 42.2342C47.6413 42.6694 47.6625 43.2105 47.6967 43.7607C47.761 44.8899 48.0179 46.1307 47.7623 47.542C47.6849 47.8934 47.5816 48.2491 47.4143 48.5896C47.329 48.7585 47.2463 48.9289 47.1321 49.0822L46.9696 49.3172L46.8093 49.5067C46.3907 50.0152 45.9203 50.4724 45.4159 50.8752C44.9704 51.2385 44.4873 51.5483 43.9889 51.8128C42.2717 52.708 40.4519 53.3198 38.5582 53.6027C38.2445 53.661 37.9169 53.6701 37.6121 53.7456C37.3451 53.7898 35.9622 53.9531 34.3952 53.612C33.612 53.42 32.874 53.0424 32.3489 52.6433C31.8208 52.2452 31.4942 51.8501 31.3812 51.6992C30.8164 50.9516 30.4272 50.0435 30.3729 49.0601L30.3753 48.6904C30.3884 48.5651 30.4101 48.4375 30.4295 48.3121C30.453 48.0599 30.5556 47.8168 30.6441 47.5778C30.8588 47.1156 31.1673 46.7085 31.5154 46.4156C31.7068 46.2294 31.912 46.0643 32.122 45.962C32.6127 45.7613 33.0239 45.4874 33.4499 45.2433C34.0341 44.9054 34.6023 44.5813 35.0464 44.1679C35.1551 44.0654 35.2722 43.9696 35.3688 43.8597C35.4833 43.7579 35.574 43.6405 35.6518 43.5096C35.8058 43.2762 35.8965 43.4523 35.8722 43.562C35.8014 43.8674 35.9675 43.6691 36.0418 43.6592C36.0668 43.6582 36.0992 43.6563 36.1105 43.6776C36.1138 43.6842 36.0962 43.7547 36.0606 43.8763C36.036 44.0048 35.9398 44.1511 35.8457 44.3473C35.6238 44.7105 35.2421 45.1361 34.8178 45.4812C34.395 45.8287 33.9556 46.1423 33.6182 46.3918C33.2825 46.64 33.052 46.8307 32.9745 46.8881C32.9619 46.904 32.6605 47.106 32.3631 47.4465C32.213 47.6153 32.0855 47.8217 31.9857 48.0444C31.9593 48.1644 31.9122 48.2785 31.8971 48.4078C31.9014 48.5431 31.8602 48.6641 31.8861 48.8119C31.9125 49.3812 32.1782 49.9775 32.4862 50.3848C32.793 50.7985 33.1029 51.0542 33.2111 51.1309C33.4291 51.3042 33.6533 51.4774 33.8915 51.6351C33.9235 51.6452 34.156 51.7754 34.5179 51.8893C34.8791 52.0076 35.3614 52.0699 35.9251 52.1032C37.0198 52.1642 38.127 51.9963 38.2092 51.9849C39.0909 51.8934 39.9467 51.6497 40.8184 51.4727C40.9938 51.4461 41.1583 51.3692 41.325 51.3053C42.7493 50.7563 44.0966 49.9876 45.163 48.9479C45.3088 48.8229 45.4185 48.6688 45.5469 48.5301C45.6845 48.3835 45.7739 48.2494 45.8583 48.1214C46.019 47.849 46.1295 47.544 46.1988 47.2092C46.215 47.0836 46.2605 46.9665 46.2767 46.8358C46.3007 46.6734 46.3299 46.5079 46.3286 46.3346C46.34 45.4354 46.1964 44.4724 46.1697 43.4287C46.1572 42.9036 46.1893 42.3664 46.3375 41.7806C46.4231 41.4892 46.5425 41.1693 46.774 40.8893C46.9967 40.6096 47.2801 40.4147 47.5063 40.2791C47.7385 40.1303 48.2514 39.9421 48.6058 39.5303C49.0008 39.1157 49.2023 38.5771 49.2068 38.378C49.2203 38.2665 49.2784 38.0254 49.2339 37.793C49.2017 37.5586 49.0671 37.3512 48.9874 37.2869Z" fill="#2458A4"/>
<path id="Fill 7" fill-rule="evenodd" clip-rule="evenodd" d="M22.8371 16.1412C19.9633 17.7698 17.4303 20.0081 15.4616 22.6641C13.4876 25.3183 12.0714 28.3715 11.2716 31.5713C9.65111 37.9697 10.557 44.9788 13.8387 50.7198C15.461 53.5937 17.6624 56.1392 20.261 58.1705C22.8587 60.205 25.8466 61.73 29.0077 62.6618C32.169 63.5955 35.5062 63.937 38.794 63.6415C42.0816 63.3504 45.3144 62.4065 48.2417 60.8759C51.1617 59.3418 53.798 57.2468 55.911 54.7035C58.0284 52.1646 59.6172 49.1907 60.5637 46.026C61.5153 42.862 61.8279 39.5131 61.5053 36.2304C61.1874 32.9451 60.2352 29.7328 58.7528 26.7924C57.2924 23.874 55.3262 21.1247 52.8439 18.9417C50.376 16.742 47.4461 15.0727 44.3159 14.0336C38.0456 11.9396 31.0378 12.3633 25.0228 15.0377C23.3387 15.7795 24.1172 17.1785 25.6597 16.4782C31.3248 13.9568 37.9394 13.561 43.818 15.5277C46.7547 16.5025 49.4924 18.064 51.7984 20.1185C54.1234 22.1695 55.9442 24.7057 57.3455 27.4996C58.7422 30.269 59.6396 33.296 59.9382 36.3824C60.2411 39.4677 59.9467 42.6102 59.0555 45.5743C58.1682 48.5399 56.6816 51.3216 54.701 53.6963C52.7241 56.0756 50.2577 58.0366 47.5132 59.48C44.7684 60.9152 41.7393 61.8003 38.6518 62.0733C35.5649 62.3512 32.4256 62.0301 29.4523 61.1519C23.4946 59.4188 18.2377 55.3562 15.2084 49.9441C12.1309 44.5658 11.2739 37.9676 12.7986 31.9524C13.5511 28.9459 14.8801 26.0831 16.7264 23.6021C18.568 21.1178 20.9307 19.0313 23.6188 17.5083C24.1945 17.162 24.3031 16.6461 24.1315 16.299C23.9522 15.939 23.4553 15.7667 22.8371 16.1412Z" fill="#2E3543"/>
<path id="Fill 9" fill-rule="evenodd" clip-rule="evenodd" d="M23.9833 9.43119C18.9652 11.3115 14.4682 14.5546 11.0968 18.7266C10.9701 18.8645 12.1272 19.7835 12.2303 19.6427C15.435 15.6753 19.7189 12.5832 24.5041 10.7915C24.6326 10.7402 24.1169 9.36983 23.9833 9.43119Z" fill="#2E3543"/>
<path id="Fill 11" fill-rule="evenodd" clip-rule="evenodd" d="M7.52782 24.3041C5.87591 27.6335 4.84192 31.2632 4.46814 34.9566C4.44331 35.0839 5.91366 35.2251 5.91723 35.1041C6.2743 31.5811 7.26016 28.1215 8.83313 24.9515C8.87795 24.8665 7.56915 24.2107 7.52782 24.3041Z" fill="#2E3543"/>
<path id="Fill 13" fill-rule="evenodd" clip-rule="evenodd" d="M4.41268 40.7748C4.68264 44.0317 5.46047 47.2466 6.71382 50.2651C6.74659 50.3744 8.10854 49.8025 8.05977 49.707C6.86402 46.8276 6.12225 43.7612 5.86464 40.6543C5.86053 40.57 4.4011 40.6857 4.41268 40.7748Z" fill="#2E3543"/>
<path id="Fill 15" fill-rule="evenodd" clip-rule="evenodd" d="M10.2465 56.586C12.6914 59.964 15.8505 62.8144 19.4359 64.9299C23.0207 67.0505 27.0216 68.4462 31.1367 69.0595C35.2547 69.6599 39.4833 69.447 43.5267 68.4826L45.0402 68.1012C45.5468 67.9834 46.0265 67.7745 46.5215 67.6153L47.9944 67.1016C48.4765 66.9075 48.9453 66.6797 49.4205 66.4701C51.3439 65.6735 53.142 64.5981 54.8467 63.4052C55.3244 63.0753 54.4389 61.8923 54.0034 62.2167C52.3783 63.3538 50.6628 64.3827 48.8223 65.1414C48.3673 65.3417 47.9201 65.5601 47.4598 65.7466L46.0512 66.236C45.5787 66.3881 45.1208 66.5901 44.6354 66.701L43.1897 67.0652C39.3247 67.9869 35.2824 68.1914 31.3459 67.6171C27.4137 67.0309 23.5939 65.6966 20.1778 63.6759C16.7603 61.6591 13.7549 58.9479 11.4283 55.7334C11.1671 55.3935 9.9623 56.2262 10.2465 56.586Z" fill="#2E3543"/>
<path id="Fill 17" fill-rule="evenodd" clip-rule="evenodd" d="M12.289 40.3443C12.336 40.7334 12.4004 41.1206 12.4736 41.5029L12.5288 41.7899L12.5805 42.0246C12.5863 42.0472 12.5786 42.0839 12.6092 42.0879L12.6445 42.1052L12.8976 42.1801C13.0702 42.2374 13.2505 42.2699 13.4286 42.3103C13.7869 42.3818 14.1535 42.4279 14.5238 42.4347C16.003 42.4681 17.5149 42.0629 18.7575 41.2629C19.2043 40.9818 19.6228 40.5915 20.0522 40.2301L20.6306 39.6365C20.8251 39.4393 20.9737 39.2141 21.1521 39.0074C21.7237 38.2462 22.1284 37.3907 22.2547 36.458C22.3965 35.5179 22.2501 34.5584 22.1629 33.4419L22.1563 33.0003C22.1728 32.8388 22.1829 32.6818 22.2117 32.5183C22.27 32.3544 22.2846 32.1661 22.4093 31.9845C22.5181 31.7903 22.6643 31.6634 22.7824 31.5549C23.2524 31.1749 23.6805 30.9224 24.0913 30.6171C24.9064 30.0275 25.6231 29.3425 26.0521 28.4892C26.8562 26.9803 26.5149 25.0544 25.7499 23.5125C25.2428 22.5088 24.5441 21.5925 23.7224 20.8081C22.8969 20.0498 21.9633 19.3028 20.9634 18.9644C20.8055 18.9086 20.7103 18.8901 20.6426 18.8583C20.5746 18.8254 20.5372 18.7838 20.5365 18.7399C20.5357 18.6954 20.5727 18.6459 20.6576 18.5927C20.7427 18.5351 20.8803 18.4808 21.0532 18.4658C21.7594 18.362 23.0797 18.6777 24.2026 19.6271C25.1887 20.4641 26.0684 21.4454 26.7014 22.608C27.3275 23.7708 27.7301 25.0763 27.7487 26.4566C27.7816 27.8363 27.2238 29.2959 26.2943 30.2927C25.8421 30.8038 25.3288 31.2328 24.8096 31.6052L24.0443 32.1312C23.9244 32.2136 23.7978 32.2974 23.6991 32.3736C23.5861 32.4501 23.5059 32.5335 23.472 32.5557C23.4383 32.5734 23.4278 32.6513 23.3853 32.7668C23.3745 32.9013 23.3462 33.0258 23.3582 33.1941C23.3564 33.5047 23.4042 33.8737 23.4424 34.2412C23.528 34.9853 23.5961 35.8005 23.4906 36.6202C23.3922 37.4409 23.1194 38.2428 22.7356 38.9697C22.5262 39.3207 22.324 39.6797 22.0628 39.9858C21.9372 40.143 21.8202 40.3099 21.6864 40.4567L21.2722 40.8842C20.9782 41.2104 20.6361 41.4681 20.3107 41.7503C19.998 42.0347 19.6088 42.2871 19.2332 42.511C18.4705 42.9613 17.6384 43.2695 16.7874 43.468C15.9357 43.666 15.0562 43.7384 14.1838 43.6711C13.7473 43.6506 13.3133 43.5765 12.8852 43.4822C12.6679 43.4345 12.4682 43.371 12.2426 43.3054L11.7972 43.1377L11.5751 43.0541C11.527 43.0509 11.5258 43.0033 11.514 42.9663L11.4813 42.852C11.4312 42.6693 11.3719 42.4663 11.3361 42.2989L11.2512 41.9179C11.1978 41.6633 11.1482 41.4089 11.108 41.1541C11.0219 40.6444 10.9507 40.133 10.905 39.6193C10.8013 38.5939 10.7634 37.5628 10.8006 36.5337C10.8487 34.9742 11.0628 33.4169 11.4393 31.8998L11.7566 30.7722C11.877 30.4014 12.0177 30.037 12.1465 29.6689C12.2656 29.2976 12.4407 28.9486 12.5947 28.5915L12.8314 28.0583C12.8859 27.9539 12.9488 27.7317 13.0199 27.5589C13.8879 25.3163 14.9465 23.1898 16.4346 21.2775C16.7554 20.852 17.1018 20.4575 17.4739 20.0631C17.832 19.7099 18.1507 19.4349 18.4288 19.2211C18.7198 19.0208 18.9624 18.8696 19.1702 18.7594C19.5932 18.5489 19.8989 18.5304 20.167 18.5773C20.2909 18.6 20.4376 18.6081 20.5226 18.6529C20.667 18.7279 20.598 18.9182 20.3696 19.1865C20.2573 19.324 20.0974 19.4682 19.9089 19.6414C19.7289 19.8288 19.5139 20.0334 19.2652 20.2514C18.5592 20.9427 17.8896 21.687 17.2832 22.5056C16.6844 23.3302 16.1359 24.2088 15.6372 25.1267C15.1416 26.0444 14.688 27.0049 14.3096 27.9793L14.1748 28.3405L14.1612 28.3798C14.1529 28.4009 14.1392 28.4452 14.126 28.4719L14.0563 28.6295L13.9765 28.8084L13.6554 29.5242C13.4326 29.998 13.2897 30.5059 13.0995 30.9949C12.1459 33.9631 11.8844 37.1992 12.3207 40.3356L12.289 40.3443Z" fill="#2458A4"/>
<path id="Fill 19" fill-rule="evenodd" clip-rule="evenodd" d="M33.4813 14.3342C33.4187 14.3414 33.3409 14.3529 33.2437 14.3768L33.1657 14.3971C33.134 14.4008 33.1041 14.4187 33.1347 14.4277C33.1646 14.4425 33.2014 14.4508 33.2428 14.4611L33.9111 14.6105C34.2572 14.691 34.6058 14.7819 34.9641 14.9189C35.1447 14.9915 35.3248 15.0649 35.5142 15.1812C35.6797 15.2758 35.9684 15.4955 36.1038 15.7532C36.2533 16.0123 36.2827 16.3313 36.1841 16.6141C36.1732 16.6876 36.1352 16.7555 36.1037 16.8251L36.0283 16.9828C35.98 17.0808 35.9029 17.1802 35.8373 17.2757C35.5366 17.6851 35.0079 17.8726 34.6816 17.9519C34.0747 18.0939 33.8219 18.2652 33.5595 18.7336C33.3102 19.1903 33.1499 19.7216 33.1756 20.2088C33.1859 21.0841 33.8127 21.8679 34.6743 22.3242C35.0997 22.5576 35.5768 22.7273 36.0641 22.8335C36.5246 22.936 37.0307 22.927 37.5387 22.8757C38.5621 22.7715 39.5939 22.4622 40.6692 22.2151C41.2104 22.0977 41.7617 21.9697 42.391 21.9992C42.6984 22.0057 43.0639 22.1129 43.33 22.2674C43.5972 22.4199 43.8264 22.5875 44.0492 22.7584C44.8266 23.367 45.5404 24.0012 46.3081 24.5532C47.0704 25.102 47.8785 25.5852 48.7266 25.8381C49.2789 25.9903 49.8119 26.0133 50.3664 25.9076C50.9523 25.7957 51.531 25.6388 52.0984 25.4543C52.6651 25.2693 53.2228 25.0557 53.7549 24.8049C54.2715 24.5566 54.8304 24.2612 55.1481 23.9177C55.1872 23.8698 55.2156 23.8333 55.2395 23.8116C55.2417 23.8032 55.281 23.7842 55.2872 23.7841C55.3124 23.7843 55.3661 23.7436 55.4089 23.7229C55.4539 23.7039 55.5113 23.701 55.5948 23.7868C55.618 23.83 55.6373 23.8931 55.6485 23.9791C55.6444 24.0525 55.6333 24.1462 55.6045 24.245C55.3384 25.0122 54.2788 25.8884 52.8862 26.3853C52.2658 26.6061 51.6337 26.785 50.9907 26.9248L50.5052 27.0181C50.3468 27.0503 50.134 27.058 49.9507 27.0755C49.7582 27.1009 49.5734 27.0784 49.3864 27.0642C49.1979 27.0534 49.0138 27.0314 48.8392 26.9837C48.1199 26.8384 47.4782 26.5439 46.8979 26.2052C46.314 25.8676 45.7746 25.4853 45.2694 25.0845C44.7621 24.6865 44.278 24.2719 43.8038 23.8782C43.3396 23.4941 42.8278 23.0903 42.5104 23.0297C42.0798 22.9633 41.4686 23.0624 40.8791 23.1911C40.2802 23.3208 39.6634 23.4802 39.028 23.6092C38.27 23.7642 37.4729 23.9018 36.626 23.8649C35.7553 23.8232 34.9631 23.575 34.203 23.1805C33.4545 22.7841 32.7545 22.1602 32.3904 21.3064C32.0277 20.448 32.1184 19.4579 32.4632 18.6752C32.6386 18.2484 32.8944 17.7877 33.3377 17.4542C33.7771 17.1086 34.3299 17.0263 34.6431 16.9203C34.8087 16.864 34.9159 16.807 35.0031 16.7083C35.0547 16.6715 35.0848 16.5945 35.1314 16.5413L35.1818 16.4343C35.19 16.4177 35.2013 16.4013 35.2066 16.3824C35.2478 16.2068 35.1798 16.1185 34.802 15.9386C34.4659 15.7865 34.0699 15.6772 33.6711 15.5864L33.3688 15.5209L32.9191 15.4361L31.9172 15.2707C31.5812 15.2179 31.2742 15.1548 31.042 15.0812C30.8146 15.0057 30.6815 14.9256 30.5715 14.8498C30.456 14.7689 30.3457 14.7226 30.227 14.5931C30.2156 14.5819 30.1898 14.5378 30.1962 14.5276L30.2201 14.4953L30.269 14.4293C30.3025 14.3877 30.3301 14.333 30.3616 14.2854C30.3821 14.2509 30.4048 14.2188 30.4249 14.1813C30.7351 14.0655 31.0421 13.9495 31.3874 13.8435C31.7097 13.7295 32.0716 13.6317 32.4428 13.5384L32.9902 13.3977L33.4621 13.3009C33.7137 13.2485 33.9665 13.2016 34.2213 13.1664C35.2356 12.9998 36.2641 12.9171 37.2933 12.9229C38.9072 12.9256 40.5329 13.1551 42.0752 13.6569C43.6317 14.1614 45.0274 14.9434 46.4192 15.6813C48.5744 16.8635 50.6623 18.0938 52.5913 19.6221C53.0111 19.9649 53.4244 20.2997 53.8252 20.6786C55.2919 22.1059 55.5592 22.8019 55.5421 23.3047C55.5356 23.4223 55.5427 23.5648 55.5132 23.6411C55.3821 23.9038 54.9703 23.2509 53.99 22.2524C52.5371 20.7594 50.7508 19.4804 48.886 18.2946C47.0156 17.1303 45.0136 16.0069 42.9966 15.0958C41.525 14.4501 39.9239 14.0915 38.2965 13.9885C37.4833 13.9276 36.6615 13.9556 35.8434 14.0095C35.4352 14.0606 35.0243 14.0825 34.6188 14.1565L34.0093 14.2541L33.4905 14.3589L33.4813 14.3342Z" fill="#2458A4"/>
<path id="Fill 21" fill-rule="evenodd" clip-rule="evenodd" d="M33.006 52.632C34.2798 53.1649 35.9066 53.1265 37.526 53.0576C39.1396 52.9869 40.7348 52.8234 42.2231 52.3713C43.3139 52.0507 44.3002 51.5067 45.1743 50.8355C45.5611 50.5399 45.9181 50.2051 46.2453 49.8405C46.5665 49.4778 46.8934 49.0729 47.1125 48.6913C47.5722 47.8978 47.7299 46.9326 47.7622 45.9204C47.7774 45.4122 47.7661 44.8913 47.756 44.3597C47.7666 43.8872 47.6238 43.3276 47.8027 42.615C47.8538 42.4382 47.9309 42.2521 48.057 42.0823C48.2009 41.8984 48.3049 41.8198 48.4097 41.7209L49.0213 41.197C49.4181 40.8582 49.7962 40.5153 50.1401 40.1481C50.7511 39.5049 51.2465 38.7532 51.3813 37.9647C51.4509 37.5677 51.4075 37.2416 51.2206 36.9465C51.039 36.6534 50.7258 36.4069 50.3653 36.2194C50.131 36.1001 49.8815 35.9964 49.6181 35.9201C49.4873 35.8813 49.3545 35.8464 49.221 35.8172L49.0242 35.7778C48.9809 35.7672 48.9532 35.7723 48.8812 35.7743C48.3738 35.7558 47.8721 35.8887 47.4023 36.1235C46.4602 36.5933 45.6452 37.4123 44.947 38.3006C44.7312 38.5801 44.5793 38.6574 44.4642 38.5802C44.3468 38.5103 44.2853 38.2623 44.3253 37.897C44.4093 37.1898 44.8867 35.8985 46.2977 35.0181C46.9161 34.6442 47.6455 34.3668 48.4258 34.3015L49.0156 34.2991C49.3151 34.3134 49.465 34.3708 49.6383 34.4079C49.9815 34.4957 50.317 34.6095 50.6517 34.7536C50.986 34.9008 51.3177 35.0898 51.638 35.3273C51.9536 35.5835 52.2619 35.8909 52.4871 36.299C52.698 36.7043 52.8369 37.1871 52.8111 37.6312C52.8112 38.088 52.7116 38.437 52.5969 38.8141C52.0661 40.263 51.0451 41.2176 50.0926 42.0481C49.6394 42.448 48.9989 42.9118 49.0747 42.9697C49.0271 43.1071 49.0141 43.3575 49.0277 43.6437C49.0442 43.927 49.0529 44.3106 49.0477 44.5971C49.0446 45.3401 49.0547 46.1156 48.9608 46.9213C48.8682 47.7219 48.6635 48.5631 48.2438 49.3173C48.0394 49.7061 47.783 50.0261 47.5416 50.345C47.2953 50.6645 47.0165 50.9644 46.7313 51.2526C46.1567 51.83 45.4882 52.3077 44.7916 52.7114C43.2406 53.5874 41.5145 53.9941 39.8296 54.2076C38.9831 54.3095 38.1389 54.3664 37.299 54.4009C36.4668 54.4308 35.6108 54.4615 34.7429 54.3842C33.6868 54.2886 32.563 54.0688 31.604 53.3895C31.1303 53.0535 30.7278 52.595 30.4641 52.0764C30.3219 51.8202 30.2443 51.5678 30.1331 51.313C30.0607 51.0461 29.9609 50.7869 29.9182 50.511C29.7492 49.6867 29.7863 48.8033 30.0551 47.9943C30.3206 47.1831 30.8032 46.4574 31.4052 45.8831C32.0097 45.3085 32.7197 44.8693 33.4688 44.55C33.6361 44.481 33.9047 44.3858 33.9512 44.3534C34.077 44.2728 34.2294 44.1565 34.3604 44.0452C34.6282 43.8137 34.8712 43.5518 35.0776 43.2671C35.4042 42.8265 35.6261 42.3232 35.7532 41.804C35.8906 41.2219 36.044 40.6154 36.3178 40.0232C36.5931 39.4333 37.0294 38.8656 37.5904 38.4795C38.1433 38.083 38.765 37.842 39.3767 37.6819C39.9183 37.5462 40.4427 37.4408 41.0006 37.3913C42.0341 37.3092 42.735 37.4196 43.2005 37.5705C43.6677 37.7256 43.9078 37.9271 44.0499 38.1721C44.1146 38.2852 44.202 38.4102 44.2122 38.5095C44.234 38.8444 43.536 38.6715 42.2243 38.6632C41.2657 38.6593 40.2365 38.8276 39.3339 39.1238C38.4187 39.441 37.8224 39.9286 37.4811 40.7573C37.2985 41.1769 37.1759 41.6422 37.0414 42.19C36.8748 42.8345 36.5874 43.4503 36.2057 43.9903C35.8184 44.5303 35.3636 44.9977 34.8067 45.3921L34.6931 45.4688C34.6417 45.5024 34.5778 45.5424 34.5181 45.5745L34.236 45.6889L33.8969 45.8256C33.6821 45.9353 33.4583 46.0322 33.26 46.1639C32.6549 46.5325 32.1224 47.002 31.7594 47.5624C31.3971 48.1228 31.1948 48.7576 31.1783 49.418C31.1589 50.0744 31.3517 50.7734 31.6542 51.3987C31.9256 51.9409 32.3833 52.3441 33.0155 52.5995L33.006 52.632Z" fill="#2458A4"/>
<path id="Fill 23" fill-rule="evenodd" clip-rule="evenodd" d="M43.6118 72.6742L43.1271 68.4915C43.1321 68.4426 41.6645 68.6126 41.68 68.6592L42.1647 72.8419C42.1653 72.8801 43.6193 72.7116 43.6118 72.6742Z" fill="#2E3543"/>
<path id="Fill 25" fill-rule="evenodd" clip-rule="evenodd" d="M46.6858 76.4364C47.2912 76.2922 47.8956 76.1398 48.4974 75.9758C48.7984 75.8951 49.0972 75.8051 49.4015 75.7315L49.8547 75.6137C49.8813 75.5936 49.9236 75.6114 49.9415 75.5873C49.9958 75.5785 50.0987 75.5879 50.099 75.5144C50.0978 75.4554 50.0616 75.4037 50.0242 75.3521C49.995 75.3166 49.9856 75.3057 49.9275 75.2546C49.8198 75.1553 49.7022 75.0621 49.5827 74.9691C49.3411 74.7872 49.0866 74.6131 48.8221 74.4509C46.9644 73.3039 44.6165 72.7478 42.4729 73.3739C41.5262 73.6469 40.6518 74.1693 39.9205 74.8315C38.9823 75.6936 38.2472 76.7564 37.5205 77.8385C37.2938 78.1758 37.1257 78.0369 37.0954 77.6182C37.063 77.2028 37.1756 76.4885 37.6184 75.8032C38.3987 74.5988 39.4964 73.5466 40.8179 72.8424C42.1411 72.1368 43.6903 71.8693 45.1517 72.0355C46.8989 72.2295 48.6446 72.7837 50.1359 73.7891C50.3523 73.9374 50.5635 74.0958 50.768 74.2713C51.0438 74.5095 51.358 74.8193 51.5427 75.1278C51.7256 75.4427 51.8271 75.7546 51.7426 76.088C51.6484 76.4413 51.2905 76.5249 51.0161 76.7163L50.1344 77.0183L49.5092 77.2189L48.2448 77.5759C47.1392 77.8762 46.0237 78.1406 44.9019 78.3768C44.0516 78.5545 43.1908 78.7013 42.3228 78.8132C41.4492 78.9302 40.5516 78.9657 39.6865 78.956C38.3366 78.9434 37.0286 78.9178 35.7494 78.9517C35.4703 78.9664 35.1962 78.9818 34.9152 78.9968C33.8836 79.0409 33.5714 79.0042 33.2886 78.6078C33.225 78.5197 33.1433 78.433 33.0988 78.3421C32.944 78.042 33.3569 77.6901 34.188 77.5473C36.6565 77.1387 39.1595 77.5914 41.4135 77.3861C43.1192 77.2104 44.9265 76.8433 46.6735 76.4008L46.6858 76.4364Z" fill="#2E3543"/>
<path id="Fill 27" fill-rule="evenodd" clip-rule="evenodd" d="M43.5251 3.5344C43.4266 3.47607 43.5157 3.3564 43.7132 3.19528C43.7763 3.14336 43.9951 3.05203 44.0366 3.06355C44.1172 3.08626 44.1966 3.11036 44.2601 3.1426C44.2988 3.16199 44.6138 3.60365 44.7254 3.75283C44.8363 3.89644 44.9074 4.05471 44.9726 4.21618L45.3631 5.1945C45.3904 5.26737 45.4062 5.34408 45.4098 5.42409C45.4216 5.69981 45.5114 5.94829 45.6096 6.1939C45.6269 6.23463 45.6333 6.27913 45.6849 6.30707C45.7701 6.35375 45.9864 7.03244 45.9843 7.12881C45.9797 7.37063 46.0041 7.6028 46.0176 7.83875C46.0178 7.87266 46.0418 7.90129 46.0053 7.94448C45.9215 8.0453 45.9594 8.10688 45.972 8.17706C45.989 8.275 46.0016 8.37344 45.998 8.47754C45.9958 8.52931 45.955 8.59436 45.9256 8.65557C45.8987 8.71084 45.7468 8.73913 45.7257 8.73027C45.6655 8.70457 45.6088 8.76266 45.5495 8.78776C45.5297 8.79633 45.504 8.80748 45.4869 8.81135C45.4527 8.81971 44.9848 8.37753 44.9593 8.31955C44.9429 8.30825 44.5965 7.54788 44.5437 7.46666C44.5174 7.42384 44.5261 7.36879 44.5258 7.3173C44.5248 7.29229 44.2215 6.69783 44.2155 6.67277C44.1825 6.54023 44.0975 6.42504 44.153 6.26404C44.1638 6.23263 44.1503 6.20781 44.1405 6.18256C44.0538 5.96577 44.0185 5.73172 43.9694 5.50366C43.9445 5.38653 43.8925 5.27945 43.8562 5.16679C43.8495 5.14621 43.8566 5.12088 43.8559 5.09896C43.8551 5.07016 43.8585 5.04022 43.8488 5.01559C43.747 4.75532 43.7035 4.47257 43.5646 4.22791C43.5341 4.17112 43.5296 3.84428 43.4871 3.78134C43.4648 3.74622 43.5654 3.55737 43.5251 3.5344Z" fill="#2E3543"/>
<path id="Fill 30" fill-rule="evenodd" clip-rule="evenodd" d="M64.7508 16.1194C64.6996 16.2416 64.5473 16.1474 64.3414 15.9212C64.2753 15.8491 64.1431 15.5923 64.148 15.5427C64.1575 15.4455 64.1679 15.3513 64.1894 15.2765C64.2045 15.2333 64.5883 14.8414 64.7042 14.6872C64.8196 14.5438 64.9591 14.4358 65.1039 14.3355C65.398 14.1293 65.6835 13.9039 65.9816 13.6834C66.0469 13.6343 66.1219 13.5986 66.2058 13.5738C66.4914 13.4904 66.728 13.3305 66.952 13.1436C66.9899 13.1129 67.0353 13.0925 67.0469 13.0239C67.0601 12.9106 67.7308 12.4627 67.8499 12.4546C68.1271 12.4118 68.3867 12.3421 68.655 12.2934C68.6924 12.286 68.7206 12.2525 68.7779 12.2918C68.9117 12.3837 68.9719 12.3283 69.0489 12.3037C69.154 12.2677 69.2672 12.2464 69.3857 12.2446C69.4453 12.244 69.5255 12.2962 69.5984 12.3337C69.6646 12.3681 69.7202 12.5715 69.714 12.5993C69.6962 12.6786 69.7696 12.7543 69.807 12.8329C69.8195 12.8591 69.8361 12.8936 69.8431 12.9161C69.8514 12.966 69.4818 13.5347 69.4336 13.5636C69.4301 13.5659 69.3853 13.5968 69.3178 13.643C69.2519 13.6921 69.1645 13.7569 69.0742 13.8233C68.8973 13.9619 68.7158 14.1086 68.6832 14.1476C68.648 14.1856 68.5866 14.1814 68.5328 14.1889C68.5069 14.1881 67.9903 14.6419 67.9648 14.6556C67.8361 14.7163 67.7441 14.8382 67.5565 14.8141C67.5189 14.809 67.4982 14.8309 67.4756 14.848C67.2785 15.0009 67.0423 15.0993 66.8143 15.2137C66.6978 15.2718 66.5971 15.3569 66.4878 15.4274C66.4679 15.4398 66.4381 15.4382 66.4143 15.4441C66.3838 15.452 66.3496 15.4547 66.3252 15.472C66.0715 15.6522 65.7736 15.7653 65.5306 15.9732C65.4754 16.0223 65.1031 16.0792 65.04 16.1368C65.0042 16.1699 64.771 16.0712 64.7508 16.1194Z" fill="#2E3543"/>
<path id="Fill 32" fill-rule="evenodd" clip-rule="evenodd" d="M55.1374 64.9736L50.5967 57.6128C50.5553 57.5215 49.0952 58.4227 49.1571 58.5016L53.6971 65.8618C53.7347 65.931 55.182 65.0382 55.1374 64.9736Z" fill="#2E3543"/>
<path id="Fill 34" fill-rule="evenodd" clip-rule="evenodd" d="M25.1965 16.2068L21.03 9.28332C20.9924 9.1972 19.5152 10.0702 19.5734 10.1445L23.7499 17.0844C23.7846 17.1502 25.238 16.2673 25.1965 16.2068Z" fill="#2E3543"/>
<path id="Fill 36" fill-rule="evenodd" clip-rule="evenodd" d="M35.4797 16.6677C35.5768 16.4045 35.7358 16.1661 35.8825 15.8494C35.9297 15.7522 36.0876 15.7371 36.1352 15.8553C36.2297 16.08 36.2995 16.3402 36.289 16.6349C36.2841 16.6744 36.2757 16.8997 36.1258 17.1678C35.984 17.4406 35.7321 17.723 35.4821 17.9568C35.2326 18.1949 34.9788 18.4179 34.8002 18.617C34.6252 18.8101 34.5008 18.9942 34.4349 19.1193C34.1625 19.6102 34.1026 20.0802 34.3138 20.439C34.3601 20.5348 34.4351 20.6235 34.5114 20.7127L34.8472 21.0181C34.9521 21.1316 35.075 21.206 35.1966 21.2786C35.3174 21.3507 35.4306 21.4438 35.561 21.4846C36.0491 21.7328 36.5992 21.8004 37.213 21.7185C37.4864 21.6762 37.7631 21.6504 38.0573 21.5924C39.0681 21.4332 40.0913 20.991 41.2722 20.716C41.4662 20.6664 41.6888 20.657 41.8846 20.584C41.9591 20.544 42.2581 20.5326 42.6596 20.5269C42.8672 20.5506 43.106 20.5883 43.3551 20.6348C43.592 20.6997 43.8394 20.7904 44.0752 20.9058C45.0386 21.3948 45.6088 22.1456 45.7346 22.2824C46.0535 22.6979 46.2846 23.0217 46.5953 23.3175C46.9015 23.6169 47.2496 23.8769 47.618 24.1063C47.7241 24.1707 47.8479 24.2141 47.9329 24.3029C48.128 24.5222 48.4005 24.5855 48.6594 24.6674C49.024 24.7715 49.3938 24.8776 49.7794 24.9353C49.9704 24.9679 50.1631 25.0203 50.3613 25.0551C50.5419 25.0901 50.4618 25.2175 50.3984 25.24C50.2167 25.2987 50.373 25.3516 50.3966 25.4029C50.4044 25.4215 50.414 25.4449 50.4065 25.4615C50.4045 25.4661 50.3646 25.4795 50.296 25.5C50.227 25.5175 50.129 25.5502 50.0079 25.568C49.768 25.6127 49.4388 25.6616 49.0937 25.6714C48.3966 25.7233 47.6797 25.5066 47.5479 25.4591C47.5326 25.4514 47.2923 25.3681 46.9508 25.2078C46.6109 25.0455 46.1774 24.7916 45.7711 24.4787C45.3659 24.1813 44.9681 23.7637 44.7278 23.5062C44.4689 23.2353 44.2792 23.0568 44.2123 22.9998C44.0734 22.8802 43.9618 22.7411 43.8394 22.6227C43.8092 22.5954 43.3383 22.2359 42.8075 22.1768C42.3142 22.0793 41.6935 22.2424 41.6511 22.2398C41.155 22.3293 40.6516 22.529 40.0831 22.6062C39.9735 22.6202 39.8604 22.664 39.7523 22.7017C38.814 23.014 37.784 23.3439 36.6156 23.2757C36.319 23.2541 36.0233 23.235 35.7269 23.1493C35.425 23.0982 35.1469 22.9702 34.8693 22.8415C34.7675 22.798 34.6763 22.7376 34.5967 22.6633C34.4907 22.5775 34.3897 22.4868 34.2814 22.4089C33.9763 22.2218 33.7838 21.9438 33.5392 21.7088C33.3023 21.4535 33.0825 21.0919 32.9751 20.7123C32.7422 19.9281 32.9581 19.107 33.3366 18.507C33.4198 18.3629 33.7266 17.9956 34.094 17.723C34.4441 17.4588 34.7794 17.2452 34.8834 17.1446C35.0199 17.0427 35.4658 16.8025 35.4797 16.6677Z" fill="#2458A4"/>
</g>
</svg>
