<svg width="68" height="76" viewBox="0 0 68 76" fill="none" xmlns="http://www.w3.org/2000/svg">
<g id="Icon">
<path id="Fill 1" fill-rule="evenodd" clip-rule="evenodd" d="M36.0068 55.6329C35.7657 55.5627 35.5227 55.4911 35.2849 55.4214C35.1995 55.3971 35.1095 55.4234 35.0261 55.3912C34.7286 55.2822 34.4429 55.137 34.1558 55.0273C34.0284 54.9787 33.8944 54.9781 33.7604 54.9886C33.5877 55.0017 33.3998 55.1016 33.2593 54.8881C33.1745 54.7548 33.5923 53.1094 33.7617 53.118C34.0803 53.137 34.3851 53.2519 34.68 53.5285C34.858 53.694 35.0675 53.6375 35.2613 53.69C35.4721 53.7492 35.6875 53.8102 35.901 53.8694C36.0337 53.9061 36.1618 53.9357 36.2945 53.9567C36.4902 53.9817 36.6918 54.0277 36.8725 53.981C37.0025 53.9436 37.1359 53.8017 37.1753 53.6986C37.1877 53.6763 37.1923 53.6408 37.2061 53.6296C37.2015 53.5896 37.2416 53.7117 37.5444 54.0749L37.7526 54.3206C37.993 54.5925 38.1139 54.8763 37.9792 55.0746C37.6068 55.604 37.1634 55.6875 36.7969 55.7249C36.5224 55.7433 36.2577 55.7045 36.0068 55.6763V55.6329Z" fill="#2E3543"/>
<path id="Fill 3" fill-rule="evenodd" clip-rule="evenodd" d="M15.131 24.2413C15.9402 27.5911 16.9136 30.9008 18.1262 34.1121C18.7271 35.72 19.4142 37.2898 20.1459 38.8346C20.9058 40.3631 21.7242 41.8606 22.6504 43.2827C24.0002 45.3576 25.6238 47.2355 27.4807 48.7869C29.1142 50.157 30.9888 51.2231 33.021 51.7919C35.0421 52.3725 37.1761 52.4132 39.1472 51.7071C41.1144 50.9971 42.8301 49.6197 44.2731 48.0118C45.7227 46.3954 46.903 44.5201 47.9251 42.5674C49.7438 39.0928 51.003 35.3016 52.0046 31.5235C53.2493 26.6584 54.0362 21.614 54.4513 16.6753C54.5334 15.9134 54.5472 15.625 54.6549 15.6086C54.7521 15.6001 54.9531 15.9488 55.1594 16.6346C55.3538 17.3104 55.5436 18.2944 55.5718 19.4694C55.6021 20.6425 55.5318 22.0133 55.3137 23.4767C54.5058 28.6551 53.2565 33.7646 51.3511 38.6888C50.3908 41.1447 49.2558 43.5553 47.8049 45.8108C46.3447 48.0434 44.6245 50.2155 42.3105 51.7761C40.9476 52.7246 39.3298 53.3834 37.6444 53.6697C36.801 53.849 35.938 53.8175 35.0815 53.8116C34.2342 53.7032 33.377 53.6126 32.5731 53.3564C31.7428 53.1771 30.9724 52.8165 30.1835 52.5144C29.4374 52.1229 28.6682 51.7649 27.9838 51.2763C27.26 50.8421 26.6307 50.2904 25.9733 49.7761C25.3729 49.2033 24.7345 48.6641 24.1992 48.0374C22.9551 46.7159 21.8963 45.2499 20.9374 43.7379C19.9653 42.2304 19.1383 40.6455 18.3711 39.0396C16.8473 35.8205 15.6585 32.472 14.6542 29.0827C13.4252 24.9053 12.5103 20.6491 11.8009 16.3705L11.6426 15.3951L11.5835 15.0174C11.5618 14.9393 11.575 14.8316 11.5185 14.779L11.2505 14.666L10.7612 14.4565C10.4281 14.316 10.0938 14.1833 9.75818 14.0591C9.08493 13.8194 8.40709 13.5967 7.72005 13.4595C7.0376 13.3307 6.34137 13.2296 5.67863 13.2992C5.01786 13.3517 4.37089 13.514 3.86513 13.889C2.78925 14.5564 2.30451 15.9751 2.07856 17.3111C1.87035 18.6799 1.98135 20.1092 2.26641 21.4964C2.78005 23.8971 3.72391 26.1927 4.90292 28.3353C6.07338 30.4844 7.47965 32.5015 9.06785 34.3485C9.77591 35.1531 10.5024 35.9104 11.2958 36.6244C12.7658 37.9506 13.8548 38.6094 14.6108 39.0034C15.3767 39.3864 15.8095 39.5401 16.2319 39.7457C16.4217 39.8363 16.6923 39.8573 16.8421 39.9335C16.9669 39.9926 16.9688 40.0741 16.8263 40.1838C16.6851 40.2882 16.3954 40.457 15.9599 40.4977C15.0877 40.633 13.7215 40.3178 12.3717 39.4599C10.3428 38.2093 8.68689 36.5285 7.16568 34.7347C5.66746 32.9193 4.33542 30.9442 3.20896 28.8239C2.0917 26.7017 1.14587 24.439 0.621062 21.9929C0.368184 20.7686 0.215143 19.499 0.268346 18.1899C0.326147 16.8835 0.589535 15.5298 1.27001 14.27C1.76985 13.2769 2.72554 12.3954 3.80404 11.9671C4.88847 11.5271 6.00376 11.4831 7.01461 11.5803C8.02613 11.6959 8.97458 11.9415 9.87903 12.2535C10.3329 12.4059 10.773 12.5826 11.2025 12.7632L11.837 13.0378L12.9878 13.5094C13.0955 13.8982 13.2151 14.293 13.2834 14.7133L13.3977 15.4221L13.6078 16.6884C13.7543 17.5311 13.9041 18.3732 14.0696 19.2126C14.3967 20.8914 14.7632 22.5631 15.1711 24.2229L15.131 24.2413Z" fill="#2E3543"/>
<path id="Fill 5" fill-rule="evenodd" clip-rule="evenodd" d="M62.8395 30.0657C63.9345 28.2542 64.8586 26.333 65.5214 24.3428C65.7526 23.6131 65.9122 22.8676 66.0659 22.1306C66.3424 20.8308 66.4632 19.5066 66.3194 18.2251C66.2583 17.5795 66.0724 16.9686 65.8419 16.3748C65.6915 16.1141 65.5647 15.8277 65.3775 15.5958C65.1732 15.383 64.9939 15.1354 64.7312 14.9896C64.318 14.6553 63.7709 14.5206 63.2317 14.4142C62.6714 14.365 62.0973 14.3663 61.5226 14.4681C60.785 14.5745 60.0552 14.8109 59.3327 15.0632C58.9702 15.1853 58.6102 15.3252 58.245 15.4566C57.8785 15.5906 57.5238 15.7371 57.0989 15.783C56.4998 15.789 56.5892 15.6293 56.8171 15.1341C57.0299 14.5988 57.6033 13.9314 58.5163 13.5991C59.3183 13.3029 60.161 13.0664 61.0444 12.9226C61.9213 12.7728 62.8724 12.7505 63.8327 12.9639C64.3128 13.048 64.7877 13.2654 65.2376 13.4947C65.4517 13.6378 65.6632 13.7863 65.8701 13.9374C66.0718 14.0943 66.2281 14.2999 66.4035 14.4832C66.4862 14.5784 66.5769 14.6697 66.6498 14.7702L66.839 15.0868C66.9624 15.297 67.1004 15.5065 67.2022 15.72C67.367 16.1502 67.5588 16.5752 67.6422 17.0218C67.9024 18.0754 68.0199 19.1585 67.9759 20.2245C67.9464 21.2912 67.8117 22.3493 67.5595 23.3595C67.0202 25.5888 66.0974 27.6644 65.0465 29.6427C64.3975 30.8612 63.6579 32.0257 62.8829 33.1607C61.7216 34.8914 60.3653 36.4921 58.9255 37.9884C57.7958 39.1405 56.6345 40.2564 55.1678 41.1083C54.823 41.2679 54.5169 41.4748 54.128 41.5845C53.7871 41.7126 53.4732 41.7651 53.2059 41.7868C52.9471 41.8282 52.7139 41.7816 52.5359 41.7421C52.1773 41.6758 51.9907 41.4512 51.8988 41.216C51.8561 41.1044 51.8016 40.9901 51.7989 40.8876C51.7943 40.7149 51.9461 40.5888 52.153 40.5034C52.3579 40.4324 52.639 40.3523 52.999 40.2492C53.5349 40.1086 54.0847 39.8019 54.6167 39.4531C55.1553 39.1162 55.6709 38.678 56.1846 38.2413C57.202 37.3434 58.1813 36.3227 59.1028 35.2428C59.7886 34.4389 60.425 33.5883 61.0733 32.741C61.6789 31.8641 62.2773 30.9768 62.8008 30.0467L62.8395 30.0657Z" fill="#2E3543"/>
<path id="Fill 8" fill-rule="evenodd" clip-rule="evenodd" d="M37.5726 54.4315L37.5982 54.3416C37.5982 54.3199 37.6369 54.2292 37.5982 54.2647C37.5798 54.27 37.5581 54.2759 37.5319 54.2772L37.4911 54.2805C37.4616 54.2824 37.5115 54.2733 37.3591 54.2956C36.9263 54.3534 36.5118 54.3711 36.1006 54.3783C35.2816 54.3875 34.4829 54.3402 33.6881 54.27L33.3544 54.2391L33.3695 54.5005L33.4687 55.4155L33.6034 56.4093C33.7045 57.0726 33.8037 57.7367 33.9206 58.4008C34.1453 59.7295 34.3988 61.0576 34.6661 62.3837C34.9032 63.5608 35.1903 64.7358 35.4786 65.8938C35.8412 67.3927 36.3128 68.8384 36.4047 70.4634C36.3962 71.0729 36.0238 70.8811 35.6487 70.5527C35.2507 70.2131 34.7922 69.5872 34.5958 68.73C33.9101 65.7034 33.2211 62.632 32.7679 59.4878C32.6326 58.5466 32.4605 57.5929 32.2937 56.6286C32.2201 56.1419 32.1255 55.6631 32.0657 55.1692L32.0165 54.8007L31.9856 54.5655L31.9534 54.2673L31.8523 53.0673C31.845 52.9445 31.8247 52.8066 31.8286 52.6969L33.0674 52.8479L34.0507 52.9392C34.5269 52.9747 35.0044 53.0062 35.478 53.0128C35.9496 53.0194 36.4238 53.0187 36.8777 52.9727C36.9933 52.9662 37.1049 52.9517 37.2133 52.934C37.3768 52.9051 37.5759 52.8926 37.786 52.7757C37.9989 52.6732 38.19 52.601 38.4179 52.4768C38.6307 52.3599 38.8948 52.2272 39.0616 52.1254L39.1023 52.2154C39.1128 52.2515 39.1398 52.2529 39.1247 52.3448C38.9972 53.9061 38.8698 55.4687 38.7417 57.0286C38.5854 59.0011 38.4081 60.9821 38.2951 62.9427C38.2064 64.4672 38.2025 65.9674 38.1631 67.4774C38.1539 67.8105 38.1585 68.1362 38.1427 68.4712C38.0823 69.7126 37.9614 70.1008 37.5699 70.3419C37.4806 70.3964 37.3906 70.4706 37.3026 70.5002C37.0064 70.5993 36.8021 70.0778 36.7791 69.1648C36.7095 66.4554 36.8652 63.6133 37.0563 60.7627C37.2166 58.6569 37.3775 56.5413 37.5378 54.4309L37.5726 54.4315Z" fill="#2E3543"/>
<path id="Fill 13" fill-rule="evenodd" clip-rule="evenodd" d="M30.4202 75.3242C31.0541 75.6697 22.736 75.3866 24.005 74.3088C26.5594 72.1406 30.348 72.9426 30.4202 72.5708C30.4202 72.5708 29.9782 74.5019 30.4202 75.3242Z" fill="#2E3543"/>
<path id="Fill 15" fill-rule="evenodd" clip-rule="evenodd" d="M34.0728 22.5658C34.1076 22.198 34.4413 21.9405 34.9549 21.9326C35.1178 21.9405 35.3424 22.2722 35.3838 22.3083C35.4108 22.4522 35.4226 22.6551 35.4167 22.8463C35.4002 22.9303 34.9194 24.7635 34.6896 25.4604C34.6416 25.6089 34.5877 25.7586 34.5214 25.9136L34.4656 26.0391C34.4334 26.1048 34.4012 26.1672 34.3671 26.227C34.2981 26.3478 34.2291 26.4693 34.1464 26.5784C33.9868 26.8036 33.791 26.9902 33.5565 27.1189C33.3181 27.2529 33.06 27.268 32.7841 27.2752L32.4268 27.2496C32.124 27.2345 31.8849 27.2319 31.6097 27.2332L31.2097 27.2417L31.0415 27.2483C31.0376 27.249 31.0369 27.2503 31.0369 27.2503C31.031 27.2555 31.0337 27.2608 31.0376 27.2634L31.0409 27.2647C31.0409 27.2647 31.0054 27.2569 30.9601 27.2674C30.922 27.2766 30.9089 27.2976 30.9115 27.3219C30.9128 27.3337 30.9174 27.3468 30.9253 27.36L30.9384 27.3797C30.947 27.3882 30.9332 27.381 30.9962 27.4283C31.3634 27.7081 31.7595 27.9662 32.1549 28.1882C32.277 28.2611 32.4189 28.3393 32.5562 28.4083C32.7099 28.4654 32.8715 28.5147 33.0061 28.5882C33.0613 28.6152 33.1618 28.6979 33.2498 28.8129C33.3201 28.8904 33.4317 29.1065 33.4574 29.3397C33.4935 29.5827 33.4376 29.8973 33.3569 30.2277C33.3181 30.3912 33.2656 30.5679 33.2248 30.7144L33.1434 30.9903C32.9194 31.7206 32.6665 32.4215 32.5917 32.5765C32.5004 32.7689 32.4104 32.9581 32.321 33.146L32.2028 33.412C32.1851 33.4507 32.1693 33.4928 32.1627 33.4961C32.1522 33.4921 32.1864 33.498 32.1384 33.4869L31.9769 33.4547C31.8685 33.4343 31.7595 33.4172 31.6504 33.4034C31.5171 33.3923 31.5085 33.366 31.4291 33.3621C31.3673 33.3548 31.2964 33.3614 31.2425 33.3693C31.209 33.3437 31.2103 33.4041 31.1979 33.3338C31.1887 33.3148 31.1723 33.2997 31.1532 33.2898C31.1434 33.2852 31.1328 33.2813 31.1217 33.2793C30.8445 33.0422 31.7371 33.808 30.499 32.7479L30.5003 32.7473L30.5016 32.7466L30.5043 32.7433L30.5509 32.7C30.8103 32.4583 30.9765 32.3637 31.1749 32.2238L31.7404 31.8645C31.8475 31.8001 31.9394 31.7009 32.0728 31.6898C32.3795 31.6635 32.5765 31.4848 32.7999 31.3384C33.1092 31.1354 33.4245 30.9423 33.7556 30.7748C33.9198 30.6921 34.1194 30.6645 34.3086 30.6231C34.4807 30.5843 34.5457 30.8346 34.5142 30.8884C34.4229 31.0454 34.5976 31.0632 34.6679 31.1367C34.6915 31.1617 34.7224 31.1945 34.7316 31.2215C34.746 31.2773 33.2918 32.834 33.1217 32.9706C33.1112 32.9791 32.9588 33.1052 32.7316 33.2924C32.5187 33.4731 32.191 33.7509 31.9985 33.9611L31.9795 33.9854L31.969 33.9972L31.9664 34.0005L31.9269 33.9683L31.9026 33.9493L31.8908 33.9394C31.814 33.8757 31.9841 34.0123 31.9565 34.0117C31.833 34.1581 31.6209 34.2902 31.4205 34.3328C31.3509 34.3434 31.3752 34.3532 31.2005 34.3565C31.0599 34.3558 30.8445 34.3158 30.6501 34.1778C30.2343 33.9145 30.2225 33.3489 30.235 33.4704C30.2304 33.4172 30.229 33.3621 30.231 33.3082C30.2409 33.1657 30.2448 33.1821 30.2494 33.142L30.2763 33.0034C30.3052 32.8865 30.3335 32.7703 30.3611 32.6566C30.4143 32.4596 30.4655 32.2704 30.5108 32.1016C30.5982 31.7752 30.6652 31.5262 30.6882 31.4395C30.7289 31.2615 30.8222 31.1013 30.8997 30.9371C30.9089 30.9173 30.9548 30.7558 31.0153 30.5259C31.0442 30.4116 31.0777 30.2802 31.1131 30.1397C31.1381 30.0431 31.1263 30.0681 31.1276 30.0497C31.125 30.0418 31.1217 30.0372 31.1184 30.0326C31.0908 29.9912 31.0323 30.0405 31.0455 30.0346C31.0691 30.0471 30.9916 29.9984 30.9345 29.963L30.7604 29.8559L30.4189 29.6365C30.1969 29.4848 29.9867 29.316 29.8113 29.1012C29.7942 29.0802 29.7752 29.0605 29.7555 29.0421C29.7161 29.0112 29.6799 28.983 29.6432 28.9541L29.4093 28.782C28.7827 28.3209 28.1811 27.781 27.9367 27.2838C27.8159 27.0348 27.7686 26.8115 27.7738 26.5803C27.7705 26.4641 27.808 26.3314 27.8572 26.1921C27.9164 26.0706 27.9873 25.9767 28.0615 25.8933L28.2073 25.7829C28.5758 25.446 29.3069 25.2463 30.1279 25.1793C30.2731 25.1635 30.4313 25.1806 30.5785 25.1793C30.7433 25.1819 30.9095 25.1839 31.0639 25.1865C31.3351 25.1721 31.6051 25.1721 31.8764 25.1767L32.2836 25.1924L32.4826 25.2036L32.5227 25.2095C32.5811 25.2312 32.6416 25.2089 32.6665 25.1504C32.6843 25.1195 32.6862 25.1123 32.7079 25.0591C32.7559 24.956 32.8012 24.845 32.8432 24.7287C32.9234 24.5389 33.5 23.5432 33.5782 23.262C33.6202 23.1097 34.0564 22.7169 34.0728 22.5658Z" fill="#2E3543"/>
<path id="Fill 17" fill-rule="evenodd" clip-rule="evenodd" d="M32.0287 34.671C31.8737 34.8057 31.32 35.2457 30.8858 35.4178C30.4385 35.5939 30.0122 35.5328 29.6628 35.2306C29.3764 34.9377 29.3009 34.4878 29.3777 33.9465C29.4677 33.3166 29.536 33.1557 29.6155 32.8326C29.7771 32.2499 29.963 31.6897 30.1593 31.134L30.4628 30.3057C30.604 29.9313 30.5751 30.022 30.6152 29.9274C30.6027 29.8926 30.5508 29.8729 30.516 29.8466L30.0437 29.5819C29.1537 29.0801 28.223 28.4837 27.5419 27.5917C27.4493 27.4663 27.358 27.3507 27.2765 27.2081C27.1373 26.996 27.0401 26.7924 26.9376 26.5802C26.9107 26.4193 26.8516 26.2557 26.8516 26.1007C26.8608 25.9411 26.9494 25.7736 27.0631 25.6633C27.2851 25.4275 27.6529 25.3047 28.0247 25.2291C28.2414 25.1838 28.3137 25.1805 28.445 25.1628L28.8004 25.1286C29.0355 25.1102 29.2674 25.0997 29.4979 25.0945C29.9603 25.084 30.4175 25.0919 30.8746 25.1129L31.5617 25.1562L31.7292 25.1707L31.7916 25.1786L31.9196 25.1983L32.0228 25.0143L32.275 24.5322L32.7886 23.572C33.1367 22.9329 33.4881 22.2977 33.875 21.6678C33.9821 21.4924 34.074 21.3466 34.2152 21.1463C34.3689 20.9184 34.5535 20.7121 34.7913 20.5657C35.2025 20.4179 35.6287 20.632 35.9414 20.9302C36.1063 21.1023 36.1798 21.1949 36.281 21.3335C36.3808 21.4609 36.4577 21.589 36.5463 21.7171C36.8734 22.2307 37.1545 22.7457 37.439 23.2521L38.1175 24.4363L38.4669 25.017L38.5299 25.1194L38.5687 25.1772C38.5943 25.214 38.6173 25.2574 38.6449 25.2876L38.7992 25.239L39.1027 25.1608C39.3713 25.0951 39.6433 25.0386 39.9198 24.9953C40.4728 24.9119 41.0397 24.8521 41.6656 24.9769C42.044 25.0695 42.1799 25.279 42.1018 25.352C42.0275 25.4459 41.816 25.4807 41.5691 25.5792C41.0666 25.769 40.2554 26.129 39.2019 26.4075C38.8892 26.4856 38.4551 26.6255 38.0853 26.7398L37.3654 25.5575L36.9693 24.8659L36.2205 23.4866C35.9762 23.0347 35.7325 22.5828 35.4783 22.1913C35.4159 22.0882 35.3516 22.0048 35.2878 21.9181C35.2563 21.8701 35.2254 21.8392 35.1959 21.8051C35.19 21.7959 35.1926 21.7966 35.19 21.7939C35.1854 21.7834 35.1736 21.7703 35.1585 21.7716C35.1493 21.7716 35.144 21.7716 35.0836 21.8537C34.9693 22.0232 34.855 22.1985 34.7427 22.3824C34.518 22.7483 34.296 23.1253 34.0786 23.5076L33.4303 24.6616L33.1098 25.2436L32.9344 25.5674L32.6638 26.0896C32.6231 26.1671 32.5824 26.2452 32.5397 26.326L31.9604 26.2485L31.5039 26.2006C31.2911 26.1809 31.0756 26.1658 30.8595 26.1553C30.4273 26.1349 29.9912 26.1303 29.5577 26.1441C29.3416 26.1507 29.1262 26.1631 28.9133 26.1822L28.5987 26.2163L28.3458 26.2551C28.2756 26.2695 28.2027 26.2846 28.1416 26.3234C28.0562 26.3628 28.1061 26.4535 28.1396 26.5099C28.1508 26.5336 28.1632 26.5566 28.1777 26.5789L28.2381 26.6741C28.3176 26.7957 28.4122 26.908 28.4989 27.0249C28.6933 27.2456 28.8963 27.461 29.1281 27.6535C29.4861 27.9615 29.8868 28.2321 30.3111 28.483L30.9679 28.8542C31.0986 28.9212 31.3147 29.0525 31.4756 29.155C31.63 29.2706 31.8106 29.3862 31.9367 29.5182L31.565 30.4706L31.3416 31.0696C31.1958 31.4696 31.0559 31.8716 30.9259 32.2749C30.7965 32.6775 30.675 33.0828 30.5791 33.4835L30.5259 33.716L30.5002 33.8565C30.4884 33.9505 30.474 34.0516 30.5061 34.1462C30.5534 34.2375 30.671 34.2474 30.7564 34.2099C30.8457 34.1784 30.9278 34.1272 31.0093 34.07C31.0585 34.0398 31.2418 33.8887 31.3942 33.7587C31.5479 33.6247 31.7003 33.4868 31.8507 33.3436C32.455 32.7734 33.0402 32.1646 33.6248 31.557L34.4504 30.6972L34.9424 31.0992L35.3745 31.4394L36.0485 31.9511C36.5017 32.2861 36.9621 32.6105 37.4324 32.9153C37.902 33.2201 38.3822 33.5065 38.8735 33.7469C39.1191 33.8684 39.3687 33.9741 39.6163 34.0562C39.7405 34.0989 39.8646 34.1324 39.9842 34.1534C40.0879 34.1751 40.1503 34.1784 40.2351 34.1738C40.304 34.1692 40.373 34.1508 40.4315 34.1153C40.4866 34.0694 40.4958 33.9932 40.5109 33.9288C40.5182 33.8585 40.5214 33.7941 40.5168 33.7252C40.5142 33.6181 40.5004 33.5065 40.4866 33.3961C40.419 32.9508 40.2804 32.5048 40.1044 32.0765C39.9303 31.647 39.707 31.2358 39.4626 30.8391C39.3418 30.6394 39.2111 30.4463 39.0738 30.2565L38.4649 29.3914C38.5608 29.1221 38.8229 28.8489 39.0416 28.6072C39.1723 28.4666 39.2327 28.4167 39.3247 28.328C39.414 28.2518 39.5014 28.1724 39.596 28.1014C40.2948 27.5622 40.8636 27.3632 41.2591 27.2797C41.6604 27.2016 41.9087 27.2476 42.111 27.3645C42.2029 27.4183 42.3165 27.4676 42.3698 27.5274C42.5517 27.7573 41.9225 27.9385 41.0068 28.4568C40.6673 28.6525 40.3507 28.8909 40.0643 29.1589L39.9599 29.2627L39.9106 29.312L39.8961 29.331C39.8751 29.3579 39.8679 29.3724 39.8587 29.3888C39.8259 29.421 39.8587 29.4512 39.8909 29.4742C39.8679 29.421 40.061 29.7015 40.1878 29.8821C40.3218 30.0798 40.4479 30.2854 40.5714 30.4929C40.8124 30.912 41.0252 31.354 41.2045 31.8178C41.3806 32.2848 41.5192 32.7728 41.5901 33.3068C41.6006 33.4467 41.6203 33.5767 41.619 33.7272C41.6341 33.9754 41.5835 34.1797 41.5441 34.3991C41.4463 34.8247 41.0962 35.1223 40.6863 35.2293C40.2732 35.3397 39.728 35.2352 39.5237 35.1748C39.2479 35.1032 39.0035 35.0093 38.7671 34.9088C38.2974 34.7065 37.8665 34.4746 37.4501 34.229C36.8353 33.8644 36.2508 33.4723 35.6813 33.0644C35.1663 32.7005 34.323 32.0437 34.5555 32.2158L34.5469 32.2204L34.5443 32.2217L34.497 32.2703L34.3171 32.4575L33.5913 33.2076C33.1 33.7068 32.6093 34.206 32.0497 34.6901L32.0287 34.671Z" fill="#2458A4"/>
<path id="Fill 19" fill-rule="evenodd" clip-rule="evenodd" d="M54.2109 50.7138C54.1945 50.6862 54.2096 50.6586 54.2444 50.6291C54.2549 50.6192 54.2937 50.6127 54.3009 50.6199C54.3147 50.6343 54.3278 50.6488 54.3383 50.6639C54.3449 50.6731 54.3948 50.8301 54.4132 50.8833C54.431 50.9345 54.4434 50.9877 54.4539 51.0403C54.4756 51.148 54.4986 51.255 54.5209 51.3621C54.5255 51.3864 54.5288 51.4107 54.5301 51.435C54.5354 51.5197 54.5512 51.6012 54.5702 51.6826C54.5735 51.6964 54.5755 51.7102 54.584 51.7227C54.5978 51.7424 54.6425 51.9644 54.6438 51.9946C54.6471 52.0682 54.6543 52.1411 54.6602 52.2147C54.6608 52.2245 54.6648 52.235 54.6602 52.2462C54.6484 52.2711 54.6556 52.2922 54.6589 52.3152C54.6628 52.3454 54.6668 52.3769 54.6674 52.4091C54.6681 52.4242 54.6622 52.4413 54.6582 52.4577C54.6543 52.4721 54.6287 52.4695 54.6254 52.4656C54.6149 52.4531 54.6063 52.4669 54.5965 52.4702C54.5932 52.4708 54.5886 52.4728 54.586 52.4721C54.5801 52.4721 54.5025 52.304 54.4986 52.2849C54.498 52.2803 54.4323 52.0255 54.4231 51.9972C54.4185 51.9821 54.4191 51.9657 54.4185 51.95C54.4178 51.9427 54.362 51.7398 54.3607 51.7312C54.3534 51.6885 54.3383 51.6472 54.3443 51.6018C54.3456 51.5926 54.3429 51.5848 54.3403 51.5756C54.3232 51.5033 54.3134 51.4284 54.3022 51.3549C54.2963 51.3168 54.2865 51.28 54.2786 51.2426C54.2773 51.236 54.2786 51.2288 54.2779 51.2215C54.2773 51.213 54.2773 51.2045 54.2753 51.1953C54.2556 51.1072 54.2451 51.0166 54.2201 50.9299C54.2142 50.9095 54.2116 50.8091 54.205 50.7854C54.2004 50.7729 54.2175 50.7243 54.2109 50.7138Z" fill="#2E3543"/>
<path id="Fill 21" fill-rule="evenodd" clip-rule="evenodd" d="M53.6111 51.776C53.5829 51.7931 53.554 51.778 53.5231 51.7432C53.5139 51.7327 53.5074 51.6939 53.5152 51.6867C53.5297 51.6729 53.5441 51.6598 53.5606 51.6493C53.5704 51.6427 53.7333 51.5915 53.7885 51.5724C53.8423 51.554 53.8969 51.5416 53.952 51.5304C54.063 51.5081 54.1747 51.4838 54.2863 51.4608C54.3107 51.4555 54.3363 51.4522 54.3619 51.4509C54.4492 51.4457 54.534 51.4292 54.6187 51.4089C54.6332 51.4056 54.6476 51.4036 54.6601 51.3951C54.6804 51.3806 54.9116 51.3347 54.9425 51.3333C55.0194 51.3294 55.0949 51.3215 55.1711 51.3156C55.1816 51.3143 55.1928 51.3104 55.2033 51.3149C55.2289 51.3261 55.2519 51.3189 55.2749 51.3156C55.3071 51.311 55.3392 51.3071 55.3721 51.3064C55.3885 51.3058 55.4056 51.311 55.4227 51.3156C55.4384 51.3195 55.4351 51.3445 55.4312 51.3484C55.4181 51.3583 55.4319 51.3675 55.4351 51.3773C55.4365 51.38 55.4378 51.3846 55.4378 51.3872C55.4378 51.3931 55.2631 51.4719 55.2427 51.4759C55.2381 51.4765 54.9734 51.5442 54.9438 51.554C54.9281 51.5586 54.911 51.558 54.8952 51.5593C54.8873 51.5593 54.6765 51.6171 54.668 51.6184C54.6233 51.6256 54.58 51.6414 54.5333 51.6361C54.5241 51.6355 54.5149 51.6381 54.5064 51.6394C54.4309 51.6578 54.3533 51.6683 54.2772 51.6801C54.2377 51.6867 54.199 51.6966 54.1602 51.7044C54.153 51.7058 54.1458 51.7051 54.1386 51.7058C54.1294 51.7064 54.1202 51.7058 54.1116 51.7077C54.0197 51.7287 53.9258 51.7393 53.8351 51.7655C53.8147 51.7714 53.7097 51.7747 53.686 51.782C53.6722 51.7859 53.623 51.7695 53.6111 51.776Z" fill="#2E3543"/>
<path id="Fill 23" fill-rule="evenodd" clip-rule="evenodd" d="M53.7713 51.1135C53.7424 51.1076 53.7345 51.0773 53.7398 51.0327C53.7411 51.0189 53.7634 50.9874 53.7733 50.9867C53.7917 50.9867 53.8107 50.9867 53.8272 50.9893C53.8383 50.9906 53.9743 51.0596 54.0216 51.0819C54.0669 51.103 54.1096 51.1299 54.151 51.1575C54.2357 51.2133 54.3211 51.2678 54.4058 51.3236C54.4242 51.3361 54.4419 51.3499 54.459 51.3657C54.5168 51.4182 54.5805 51.4616 54.6469 51.5016C54.658 51.5089 54.6679 51.5168 54.6817 51.5187C54.704 51.522 54.8787 51.6383 54.8991 51.6573C54.9484 51.7039 55.0009 51.7473 55.0521 51.7926C55.0594 51.7985 55.0692 51.8025 55.0725 51.813C55.0804 51.8379 55.0994 51.8471 55.1159 51.8596C55.1395 51.8774 55.1618 51.8957 55.1828 51.9161C55.1934 51.926 55.1999 51.9417 55.2078 51.9555C55.2144 51.968 55.1953 51.9844 55.1901 51.9844C55.175 51.9838 55.1776 51.9989 55.173 52.0081C55.1717 52.0113 55.1697 52.0153 55.1671 52.0166C55.1631 52.0212 55.0009 51.9647 54.9858 51.9542C54.9825 51.9516 54.7723 51.8287 54.7474 51.8169C54.7342 51.8104 54.7244 51.7985 54.7139 51.7887C54.7086 51.7841 54.5385 51.6888 54.5326 51.6849C54.4997 51.6606 54.463 51.6442 54.4373 51.61C54.4321 51.6035 54.4249 51.5995 54.4183 51.5949C54.3592 51.5594 54.3047 51.5168 54.2488 51.4754C54.2199 51.455 54.1891 51.4373 54.1602 51.4176C54.1543 51.4143 54.1503 51.4084 54.1457 51.4044C54.1398 51.3985 54.1339 51.3926 54.1273 51.388C54.0564 51.344 53.9907 51.2915 53.9171 51.2507C53.9001 51.2415 53.8337 51.1759 53.8134 51.166C53.8022 51.1601 53.7832 51.1154 53.7713 51.1135Z" fill="#2E3543"/>
<path id="Fill 25" fill-rule="evenodd" clip-rule="evenodd" d="M54.0786 52.2109C54.072 52.2385 54.0424 52.2431 53.9984 52.2345C53.9846 52.2312 53.9551 52.2076 53.9551 52.1977C53.9551 52.18 53.9557 52.1623 53.9584 52.1458C53.9603 52.136 54.0326 52.0112 54.0562 51.9678C54.0786 51.9258 54.1061 51.8877 54.1344 51.8503C54.1922 51.7741 54.2487 51.6966 54.3058 51.6204C54.3183 51.6033 54.3328 51.5875 54.3485 51.5724C54.4024 51.5219 54.447 51.4641 54.4884 51.4043C54.495 51.3944 54.5035 51.3852 54.5062 51.3721C54.5101 51.3511 54.6296 51.1934 54.6487 51.1757C54.696 51.1324 54.7406 51.0857 54.7866 51.0404C54.7925 51.0338 54.7971 51.0253 54.8076 51.0227C54.8319 51.0174 54.8418 50.9997 54.8549 50.9852C54.8727 50.9642 54.8911 50.9439 54.9121 50.9255C54.9219 50.9163 54.9377 50.9117 54.9515 50.9058C54.964 50.8998 54.9797 50.9196 54.9791 50.9248C54.9778 50.9393 54.9929 50.9379 55.0014 50.9432C55.0047 50.9452 55.0086 50.9471 55.0099 50.9498C55.0139 50.9537 54.9535 51.1048 54.9423 51.1179C54.9403 51.1212 54.8129 51.3123 54.7998 51.3353C54.7932 51.3471 54.7814 51.3557 54.7715 51.3649C54.7669 51.3695 54.6677 51.5245 54.6638 51.5297C54.6395 51.5593 54.6211 51.5935 54.5869 51.6151C54.5804 51.6191 54.5764 51.6256 54.5718 51.6322C54.5351 51.6861 54.491 51.7347 54.449 51.7846C54.4273 51.8102 54.4096 51.8378 54.3892 51.8647C54.386 51.8693 54.38 51.8726 54.3761 51.8772C54.3702 51.8825 54.3643 51.8871 54.3597 51.893C54.3137 51.9573 54.2598 52.0158 54.2178 52.0828C54.2086 52.0986 54.1423 52.1564 54.1311 52.1747C54.1252 52.1853 54.0812 52.1997 54.0786 52.2109Z" fill="#2E3543"/>
<path id="Fill 10" fill-rule="evenodd" clip-rule="evenodd" d="M35.7228 71.0813C34.5365 71.1699 33.3418 71.5286 32.2987 72.1263C31.9184 72.345 31.5834 72.6274 31.2787 72.9105C31.0422 73.1306 30.8176 73.3697 30.6777 73.6179C30.6074 73.7394 30.5437 73.8656 30.52 73.9772C30.4879 74.0626 30.4892 74.1073 30.4957 74.1802C30.434 74.5217 31.6156 74.3818 32.4925 74.2807C33.2321 74.1874 33.9789 74.0403 34.7395 73.9483C35.2275 73.8905 35.7313 73.834 36.2561 73.8958C36.7632 73.9496 37.3793 74.1368 37.7373 74.6564C37.9251 75.0038 37.6814 75.0006 37.3891 74.95C37.0653 74.902 36.7356 74.9894 36.2962 74.9743C35.4955 74.9493 34.5484 75.103 33.6058 75.2712C33.1296 75.3533 32.6442 75.438 32.1398 75.5017C31.8843 75.5326 31.6288 75.5575 31.3549 75.5615C31.2196 75.5661 31.0783 75.5635 30.9332 75.5562L30.7105 75.5378C30.6462 75.526 30.4905 75.5135 30.4012 75.4873C29.9598 75.3894 29.542 75.1194 29.4126 74.6761L29.3535 74.393L29.3463 74.104C29.3253 73.9023 29.3831 73.7329 29.4133 73.5838C29.4553 73.4347 29.5144 73.3007 29.5696 73.1614C29.6366 73.038 29.703 72.9099 29.7752 72.7903C30.0721 72.32 30.4432 71.945 30.8393 71.6238C31.971 70.722 33.2978 70.1748 34.6679 69.9016C35.5132 69.7367 36.3796 69.6901 37.2354 69.7597C38.5373 69.853 39.7977 70.297 40.9209 70.9131C41.7872 71.4005 42.6346 71.9384 43.315 72.6636C43.4773 72.8114 43.6145 72.9729 43.7564 73.1404C44.0146 73.457 44.1275 73.7053 44.1722 73.9017C44.2208 74.0954 44.1991 74.2393 44.1361 74.3838C44.1078 74.4495 44.0881 74.5224 44.0559 74.5703C43.9541 74.726 43.5948 74.5874 43.1613 74.238C41.8996 73.1963 40.6871 72.1558 39.2033 71.5903C38.1162 71.1686 36.9208 70.9933 35.728 71.1141L35.7228 71.0813Z" fill="#2E3543"/>
<path id="Fill 27" fill-rule="evenodd" clip-rule="evenodd" d="M49.9668 0.606083C49.9504 0.578497 49.9655 0.55091 50.0003 0.521353C50.0108 0.5115 50.0495 0.504932 50.0568 0.512157C50.0706 0.526607 50.0837 0.540401 50.0942 0.556165C50.1008 0.56536 50.1507 0.722342 50.1691 0.775545C50.1868 0.826777 50.1993 0.87998 50.2098 0.932526C50.2315 1.04025 50.2545 1.14731 50.2775 1.25437C50.2821 1.27867 50.2847 1.30298 50.286 1.32728C50.2912 1.41201 50.307 1.49346 50.3261 1.5749C50.33 1.5887 50.3313 1.60249 50.3399 1.61497C50.3536 1.63402 50.3983 1.85668 50.3996 1.88624C50.4029 1.96046 50.4101 2.03337 50.416 2.10693C50.4167 2.11678 50.4206 2.12729 50.416 2.13846C50.4042 2.16342 50.4114 2.18444 50.4147 2.20743C50.4187 2.23764 50.4226 2.26917 50.4233 2.3007C50.4239 2.31646 50.418 2.33354 50.4141 2.34996C50.4101 2.36441 50.3845 2.36178 50.3812 2.35784C50.3707 2.34536 50.3622 2.35915 50.3523 2.36244C50.349 2.36309 50.3451 2.36507 50.3418 2.36507C50.3359 2.36441 50.2584 2.19626 50.2545 2.17721C50.2538 2.17262 50.1881 1.91777 50.1789 1.88952C50.1743 1.87442 50.175 1.858 50.1743 1.84223C50.1737 1.83501 50.1178 1.63205 50.1165 1.62351C50.1093 1.58081 50.0942 1.53943 50.1001 1.49411C50.1014 1.48492 50.0988 1.47638 50.0962 1.46784C50.0791 1.39559 50.0692 1.32071 50.0581 1.24715C50.0522 1.20905 50.0423 1.17227 50.0344 1.13483C50.0331 1.12826 50.0344 1.12104 50.0338 1.11381C50.0331 1.10527 50.0338 1.09608 50.0318 1.08754C50.0114 0.999523 50.0009 0.90888 49.976 0.822179C49.9701 0.801818 49.9681 0.701323 49.9609 0.677677C49.9563 0.665198 49.9733 0.616593 49.9668 0.606083Z" fill="#2E3543"/>
<path id="Fill 30" fill-rule="evenodd" clip-rule="evenodd" d="M49.367 1.66831C49.3387 1.68539 49.3098 1.67028 49.2796 1.63547C49.2698 1.62496 49.2632 1.58621 49.2711 1.57898C49.2855 1.56519 49.3 1.55205 49.3164 1.54154C49.3262 1.53497 49.4898 1.48374 49.5443 1.46469C49.5982 1.4463 49.6527 1.43448 49.7079 1.42266C49.8189 1.40032 49.9305 1.37602 50.0422 1.35303C50.0665 1.34778 50.0921 1.34449 50.1177 1.34318C50.2051 1.33793 50.2898 1.3215 50.3745 1.30114C50.389 1.29786 50.4034 1.29589 50.4159 1.28735C50.4363 1.2729 50.6675 1.22692 50.6984 1.22561C50.7752 1.22167 50.8507 1.21378 50.9269 1.20787C50.9374 1.20656 50.9486 1.20262 50.9591 1.20722C50.9847 1.21838 51.0077 1.21116 51.0307 1.20787C51.0629 1.20328 51.0951 1.19933 51.1279 1.19802C51.1443 1.19802 51.1614 1.20328 51.1785 1.20787C51.1943 1.21181 51.191 1.23677 51.187 1.24071C51.1739 1.25057 51.1877 1.25976 51.191 1.26962C51.1923 1.27224 51.1936 1.27684 51.1936 1.27947C51.1936 1.28538 51.0189 1.3642 50.9985 1.36814C50.9939 1.3688 50.7292 1.43645 50.6997 1.4463C50.6839 1.4509 50.6668 1.45024 50.6511 1.45156C50.6432 1.45156 50.4323 1.50936 50.4238 1.51067C50.3791 1.5179 50.3364 1.53366 50.2892 1.52841C50.28 1.52709 50.2708 1.53038 50.2622 1.53169C50.1867 1.55008 50.1092 1.56059 50.033 1.57241C49.9936 1.57832 49.9548 1.58883 49.9161 1.59671C49.9089 1.59803 49.9016 1.59737 49.8944 1.59803C49.8852 1.59869 49.876 1.59803 49.8675 1.6C49.7755 1.62102 49.6816 1.63153 49.5916 1.65714C49.5706 1.66371 49.4655 1.667 49.4418 1.67422C49.4281 1.67816 49.3788 1.66174 49.367 1.66831Z" fill="#2E3543"/>
<path id="Fill 32" fill-rule="evenodd" clip-rule="evenodd" d="M49.5291 1.00567C49.5002 0.999762 49.4924 0.969548 49.4976 0.924884C49.4989 0.911091 49.5213 0.879563 49.5311 0.878906C49.5495 0.878906 49.5685 0.878906 49.585 0.881534C49.5961 0.882847 49.7321 0.951814 49.7794 0.974146C49.8247 0.995165 49.8674 1.02209 49.9088 1.04968C49.9935 1.10551 50.0789 1.16003 50.1636 1.21586C50.1827 1.22834 50.1998 1.24213 50.2168 1.2579C50.2746 1.31044 50.3384 1.35379 50.4047 1.39386C50.4159 1.40108 50.4257 1.40897 50.4395 1.41094C50.4618 1.41422 50.6365 1.53048 50.6569 1.54953C50.7062 1.59616 50.7587 1.63951 50.81 1.68418C50.8172 1.69074 50.827 1.69469 50.8303 1.70519C50.8382 1.73015 50.8572 1.73935 50.8737 1.75183C50.8973 1.76956 50.9196 1.7873 50.9407 1.80832C50.9512 1.81817 50.9577 1.83393 50.9656 1.84773C50.9722 1.86021 50.9531 1.87663 50.9479 1.87663C50.9328 1.87597 50.9354 1.89108 50.9308 1.90027C50.9295 1.9029 50.9275 1.9075 50.9249 1.90881C50.921 1.91341 50.7587 1.85692 50.7436 1.84641C50.7403 1.84378 50.5301 1.72096 50.5052 1.70848C50.4927 1.70257 50.4822 1.69074 50.4717 1.68089C50.4664 1.67629 50.2963 1.58105 50.2904 1.57711C50.2576 1.55281 50.2208 1.53639 50.1952 1.50223C50.1899 1.49567 50.1827 1.49173 50.1761 1.48713C50.117 1.45166 50.0625 1.40897 50.0067 1.36759C49.9778 1.34722 49.9475 1.32883 49.918 1.30978C49.9121 1.3065 49.9081 1.30059 49.9035 1.29599C49.8976 1.29139 49.8917 1.28483 49.8851 1.28023C49.8142 1.23622 49.7485 1.18367 49.675 1.14295C49.6579 1.13376 49.5915 1.06807 49.5712 1.05822C49.56 1.05231 49.541 1.00764 49.5291 1.00567Z" fill="#2E3543"/>
<path id="Fill 34" fill-rule="evenodd" clip-rule="evenodd" d="M49.8364 2.10315C49.8298 2.13073 49.8002 2.13533 49.7569 2.12679C49.7424 2.12351 49.7129 2.0992 49.7129 2.09001C49.7129 2.07227 49.7135 2.05454 49.7162 2.03812C49.7181 2.02827 49.7904 1.90347 49.814 1.86012C49.8364 1.81808 49.864 1.77999 49.8922 1.74255C49.95 1.66636 50.0065 1.58885 50.0636 1.51266C50.0761 1.49558 50.0906 1.47982 50.1063 1.46471C50.1602 1.41413 50.2049 1.35633 50.2462 1.29656C50.2528 1.28671 50.2613 1.27751 50.264 1.26438C50.2679 1.2427 50.3875 1.08572 50.4065 1.06799C50.4538 1.02464 50.4985 0.978001 50.5444 0.93268C50.5503 0.926112 50.5549 0.917573 50.5655 0.914946C50.5898 0.909692 50.5996 0.891957 50.6127 0.877507C50.6305 0.856489 50.6489 0.836127 50.6699 0.817736C50.6797 0.80854 50.6955 0.803942 50.7093 0.798031C50.7218 0.79212 50.7375 0.811824 50.7369 0.817079C50.7356 0.830872 50.7507 0.830215 50.7592 0.83547C50.7625 0.837441 50.7664 0.839411 50.7678 0.842038C50.7724 0.845979 50.7113 0.997049 50.7001 1.01019C50.6981 1.01347 50.5707 1.20461 50.5576 1.2276C50.551 1.23942 50.5398 1.24796 50.5293 1.25715C50.5247 1.26175 50.4255 1.41676 50.4216 1.42202C50.3973 1.45157 50.3796 1.48573 50.3448 1.5074C50.3382 1.51134 50.3342 1.51791 50.3297 1.52448C50.2929 1.57834 50.2489 1.62629 50.2068 1.67687C50.1851 1.70248 50.1674 1.73007 50.1471 1.757C50.1438 1.7616 50.1379 1.76488 50.1339 1.76882C50.128 1.77473 50.1221 1.77933 50.1175 1.78524C50.0715 1.84961 50.0177 1.90807 49.9756 1.97506C49.9664 1.99083 49.9001 2.04863 49.8896 2.06702C49.883 2.07753 49.839 2.09198 49.8364 2.10315Z" fill="#2E3543"/>
<path id="Fill 36" fill-rule="evenodd" clip-rule="evenodd" d="M49.9163 9.9151C50.7308 10.1043 51.5433 10.3033 52.3643 10.5529C52.809 10.6921 53.72 10.9719 54.2363 11.3109C54.5227 11.4816 54.6961 11.6826 54.8228 11.8935C54.9411 12.0898 55.0232 12.3959 54.9247 12.681C54.8136 13.0587 54.6278 13.3693 54.2836 13.6511C53.9644 13.9414 53.475 14.1536 53.0067 14.348L52.6376 14.4781L52.4156 14.547L51.9755 14.6712C51.6826 14.75 51.3916 14.8176 51.1013 14.88C49.9407 15.129 48.7892 15.2932 47.6365 15.4292C46.1921 15.5973 44.753 15.7549 43.31 15.8292C38.2229 16.0768 33.1403 15.9316 28.0861 15.4633C25.8443 15.2512 23.5907 15.0009 21.3772 14.6449C18.5397 14.1969 15.6615 13.5828 13.029 12.2948C12.2145 11.8731 12.4812 11.6347 13.293 11.6307C14.1114 11.6228 15.4802 11.7621 17.0336 12.1437C22.5562 13.5204 28.335 14.0905 34.1525 14.4301C37.6396 14.6226 41.2824 14.4656 44.8312 14.1818C46.3938 14.0544 47.9544 13.8876 49.4855 13.6281C50.2494 13.4961 51.0087 13.3424 51.7351 13.1381L52.1942 12.9969C52.2704 12.9713 52.3486 12.945 52.4241 12.9115C52.5726 12.8445 52.74 12.7697 52.832 12.6212C52.8438 12.5818 52.876 12.5424 52.8655 12.501C52.8524 12.4616 52.8202 12.4327 52.788 12.4084C52.7217 12.3591 52.6461 12.323 52.5699 12.2882C52.4038 12.216 52.2901 12.1733 52.0241 12.0905C49.7462 11.4212 47.3462 10.9726 44.9639 10.5732C41.3448 9.98472 37.677 9.52625 34.0428 9.28848C31.2171 9.10457 28.4361 9.14201 25.6702 9.29308C25.0607 9.32592 24.4676 9.38044 23.86 9.43693C21.6065 9.6609 20.9411 9.81723 20.3742 9.65959C20.2481 9.62938 20.0839 9.61427 19.9959 9.57223C19.6892 9.45532 20.5299 8.81819 22.2469 8.41293C24.777 7.81785 27.4121 7.61489 30.0631 7.63197C32.716 7.63459 35.3926 7.79486 38.0646 8.04117C42.0318 8.44183 45.9839 9.02772 49.9196 9.87503L49.9163 9.9151Z" fill="#2E3543"/>
</g>
</svg>
