<svg width="93" height="71" viewBox="0 0 93 71" fill="none" xmlns="http://www.w3.org/2000/svg">
<g id="Icon">
<path id="Fill 1" fill-rule="evenodd" clip-rule="evenodd" d="M75.235 43.8501L68.2705 48.6358C67.4207 49.214 66.5912 49.8213 65.734 50.3883C64.2149 51.3846 62.7069 52.3757 61.1107 53.3025C60.9087 53.4177 60.7053 53.5314 60.4846 53.6413C60.4016 53.6959 60.2198 53.7543 60.0493 53.8126C59.9663 53.8493 59.8795 53.862 59.7905 53.8665L59.7247 53.8724L59.7082 53.8739L59.7045 53.8747C59.7037 53.9143 59.7015 53.8852 59.7007 53.8941L59.6925 53.8926L59.6596 53.8882L59.5294 53.8717L59.0709 53.7303C58.9497 53.6847 58.8323 53.6249 58.7141 53.5718C58.474 53.47 58.2608 53.3137 58.0477 53.1693C57.2136 52.5403 56.6721 51.6614 56.3213 50.7698C55.702 49.1721 55.5381 47.4943 55.5352 45.8637C55.5381 44.8135 55.6219 43.7626 55.8127 42.7229C56.0258 41.6877 56.2861 40.648 56.9391 39.698C57.1508 39.4018 57.3565 39.3435 57.4216 39.4332C57.5039 39.5297 57.4882 39.7414 57.4852 40.0353C57.4545 40.6106 57.4156 41.5426 57.1957 42.6301C56.8172 44.5637 56.7394 46.6132 57.0588 48.528C57.2234 49.4795 57.5016 50.41 57.9751 51.1602C58.2115 51.5335 58.4875 51.8686 58.8196 52.1199C58.9909 52.2358 59.1599 52.3585 59.3529 52.4415C59.4367 52.4931 59.5594 52.535 59.6289 52.5582C59.6454 52.5687 59.676 52.5919 59.709 52.5859C59.7104 52.6098 60.0747 52.4318 60.3201 52.2912C60.5871 52.1468 60.8571 51.9815 61.1256 51.82C61.6635 51.4871 62.1998 51.14 62.7338 50.7817C63.7967 50.0539 64.8649 49.3224 65.924 48.5969C68.2563 46.9999 70.584 45.3872 72.8975 43.7566L77.1536 40.7242L80.349 38.3898L81.9168 37.1982L82.2916 36.8953C82.3776 36.8152 82.4539 36.7793 82.4928 36.6858C82.5242 36.5931 82.5227 36.5108 82.5242 36.3949C82.522 36.249 82.5122 36.0957 82.498 35.9393C82.2714 33.9669 81.8196 31.954 81.8555 29.8567C81.8607 29.3944 81.8764 28.9366 81.949 28.4662C82.0791 27.5925 82.3088 27.027 82.5504 26.6777C82.783 26.3232 82.9939 26.1616 83.2206 26.0778C83.3238 26.0389 83.4352 25.9798 83.5145 25.9739C83.789 25.9634 83.5647 26.6029 83.4502 27.7159C83.1989 29.354 83.335 31.1208 83.5871 32.9279C83.7075 33.8405 83.8534 34.7433 83.9559 35.7546L83.9843 36.1518C83.9873 36.2984 83.9992 36.4128 83.9798 36.6784C83.9588 37.1488 83.7464 37.5879 83.3821 37.8909L83.0291 38.1833L82.7404 38.413L82.1659 38.8573C79.8935 40.5836 77.5732 42.2247 75.259 43.877L75.235 43.8501Z" fill="#2E3543"/>
<path id="Fill 3" fill-rule="evenodd" clip-rule="evenodd" d="M9.25902 54.1731C8.5043 54.0975 7.75032 54.0145 6.96568 53.8694L6.36729 53.7437C6.15336 53.6854 5.92747 53.6098 5.71055 53.5388C5.59162 53.4946 5.41734 53.3937 5.28045 53.3114L5.06802 53.1745L4.95807 53.0653L4.52349 52.63C3.36784 51.4758 2.50316 49.9933 2.097 48.4053C1.68261 46.8181 1.68411 45.1665 1.98705 43.6077C2.29148 42.0459 2.86818 40.5551 3.6992 39.202C4.32302 38.2244 5.05456 37.2939 6.04565 36.5489C6.1758 36.4569 6.27229 36.3709 6.46602 36.2512C6.67695 36.1338 6.92604 36.0777 7.04945 36.047C7.35015 35.9759 7.6284 35.9273 7.91114 35.8839C8.47139 35.7987 9.03537 35.7418 9.60085 35.7164C17.261 35.4538 24.8651 35.5922 32.4886 35.7919C35.8688 35.8869 39.2684 35.9744 42.6232 36.1143C44.7789 36.2056 46.9398 36.3036 49.1008 36.4831C50.1809 36.5751 51.261 36.682 52.3403 36.8384C53.4204 37.0007 54.4938 37.1712 55.5806 37.5475C55.9217 37.6761 56.1633 37.8115 56.3092 37.9678C56.4558 38.1212 56.4805 38.2461 56.4236 38.2678C56.298 38.3052 55.9561 38.1952 55.3929 38.1892C54.2679 38.1339 52.2065 38.1616 49.756 37.9618C45.411 37.6148 41.0232 37.4757 36.6333 37.3433C32.2388 37.2468 27.8346 37.1488 23.4088 37.0515C20.7616 36.9947 18.0606 37.0037 15.3469 37.0598C13.9901 37.0874 12.6295 37.1263 11.2749 37.1817C9.91576 37.2378 8.57685 37.2812 7.3666 37.5617C7.19082 37.6103 7.25291 37.5751 7.09733 37.6896L6.70388 37.9761C6.46228 38.2057 6.20572 38.4234 5.98357 38.6837C5.53702 39.2013 5.12188 39.7668 4.79127 40.3853C4.10835 41.6098 3.64086 42.9689 3.44114 44.3564C3.24218 45.7425 3.32146 47.1659 3.75455 48.4749C4.18689 49.7809 4.96031 50.9702 6.01423 51.8902C6.09801 51.9912 6.14364 51.9807 6.19226 52.0129C6.21918 52.0256 6.2334 52.042 6.2678 52.0585L6.40768 52.1004C6.58794 52.1617 6.77868 52.2186 6.99934 52.2552C7.41223 52.3525 7.86477 52.4018 8.30384 52.4669C9.19843 52.5686 10.1028 52.6487 11.0138 52.704C12.8329 52.8185 14.6633 52.882 16.4928 52.9269C22.0392 53.0488 27.626 53.0765 33.1439 53.0601C37.4344 53.0466 41.6411 52.9419 45.8949 52.974C46.8314 52.9845 47.7492 52.9823 48.6961 53.0159C52.2035 53.1476 53.3479 53.437 54.0308 53.9741C54.1856 54.0998 54.3898 54.2344 54.4669 54.3466C54.7085 54.7363 53.3442 54.6869 50.8115 54.6406C47.058 54.5523 43.17 54.5994 39.2288 54.6211C35.2809 54.6391 31.2784 54.6563 27.2677 54.675C24.2854 54.6772 21.2942 54.6638 18.297 54.6054C15.2961 54.5373 12.3004 54.4685 9.26351 54.2142L9.25902 54.1731Z" fill="#2E3543"/>
<path id="Fill 5" fill-rule="evenodd" clip-rule="evenodd" d="M24.736 25.2822L20.6579 27.9533C20.1605 28.2764 19.6833 28.631 19.1791 28.9444C17.3959 30.0297 15.6097 31.1166 13.828 32.2019C13.0381 32.6963 12.2483 33.1915 11.4651 33.6814C10.4658 34.3217 9.4373 34.9575 8.27417 35.318C7.91289 35.4325 7.86128 35.1737 8.02958 34.8004C8.20162 34.4317 8.56664 33.9245 9.12614 33.57C11.1539 32.3784 13.1743 31.1031 15.2791 29.8898C16.5417 29.1621 17.7774 28.2847 19.0101 27.4768L23.0956 24.7871L25.5999 23.1071C26.8648 22.2551 28.1341 21.3994 29.3892 20.5534C30.3571 19.8825 31.2727 19.1734 32.2256 18.4972C32.4351 18.3476 32.6452 18.2092 32.8666 18.0738C33.6917 17.5801 34.0141 17.5211 34.3447 17.6707C34.4202 17.7058 34.507 17.7312 34.5646 17.7739C34.7546 17.9115 34.5317 18.2967 33.9969 18.7537C33.2145 19.4494 32.3603 20.0747 31.4814 20.6925C30.595 21.3074 29.7011 21.9282 28.8036 22.5506C27.4579 23.4676 26.1063 24.3891 24.7569 25.3084L24.736 25.2822Z" fill="#2E3543"/>
<path id="Fill 7" fill-rule="evenodd" clip-rule="evenodd" d="M80.3048 23.0944C79.0878 22.0024 77.4183 21.3105 75.677 20.8796C73.9297 20.4368 72.0881 20.2326 70.2406 20.1189C68.889 20.0449 67.5284 20.0561 66.1663 20.0561C63.7615 20.0553 61.3455 20.1496 58.9227 20.261C56.4978 20.3635 54.0713 20.5169 51.6074 20.4757C49.4128 20.4338 47.2361 20.1593 45.1178 19.7472C42.4056 19.2079 39.6814 18.5078 37.2026 17.2451C36.4306 16.8532 36.59 16.7971 37.3207 16.9183C37.7381 16.9893 38.2468 17.0768 38.8145 17.1741C39.4323 17.2698 40.1384 17.4149 40.8917 17.6124C43.5627 18.308 46.3011 18.7351 49.0305 18.976C51.7405 19.258 54.5058 19.0747 57.3363 18.9745C60.7104 18.8429 64.2312 18.492 67.7288 18.498C69.6497 18.4973 71.5803 18.608 73.5071 18.869C75.4272 19.1443 77.363 19.5796 79.1739 20.4488C79.4499 20.5872 79.7192 20.7435 79.9914 20.8909C80.2525 21.0621 80.515 21.2319 80.7701 21.4137C81.0102 21.6179 81.2675 21.7997 81.4911 22.0241L81.8255 22.3622C81.9459 22.4609 82.0806 22.6636 82.1883 22.8334L82.5346 23.3562C82.6715 23.5223 82.6072 23.7579 82.5316 23.9322C82.3768 24.2972 82.0215 24.6241 81.729 24.8836C81.254 25.2861 80.7708 25.6331 80.2824 25.9727C77.3136 27.9885 74.2117 29.7306 71.198 31.5535C68.8523 32.9612 66.5934 34.4108 64.3262 35.8671C63.8311 36.1925 63.3464 36.5112 62.8482 36.8388C60.9947 38.0475 60.3881 38.3056 59.7829 38.2869C59.6408 38.2824 59.4807 38.3108 59.3641 38.3071C59.1546 38.3206 59.1703 38.0214 59.4366 37.6406C59.6962 37.2644 60.1704 36.7924 60.8294 36.2875C64.7967 33.4048 69.2211 30.8923 73.5886 28.2533C75.208 27.2772 76.8327 26.2996 78.4004 25.2763C79.1754 24.7655 79.963 24.2359 80.6167 23.6921L80.7162 23.6106C80.7237 23.6046 80.7349 23.5926 80.7267 23.5836C80.7155 23.5694 80.7297 23.5776 80.6953 23.5432L80.2816 23.1274L80.3048 23.0944Z" fill="#2E3543"/>
<path id="Fill 9" fill-rule="evenodd" clip-rule="evenodd" d="M16.1949 68.5164C19.9333 68.455 23.6793 68.3451 27.4245 68.2239L31.522 68.0481C36.3398 67.9 41.1606 67.7841 45.9844 67.7048C48.1259 67.6562 50.2786 67.6068 52.4036 67.5582C53.7702 67.523 55.142 67.5013 56.5169 67.5604C57.8917 67.6225 59.268 67.6951 60.6592 68.0421C61.5613 68.4146 61.2741 68.5194 60.556 68.6174C59.8148 68.7565 58.5237 68.9764 56.9724 69.0026C51.4283 69.0774 45.8931 69.1529 40.2937 69.2285C36.9374 69.2464 33.4503 69.4618 30.0185 69.5838C26.2456 69.7147 22.4683 69.8358 18.6887 69.9278C16.3632 69.9839 14.0347 70.0251 11.7047 70.0311C9.93043 70.0124 8.18237 70.0453 6.35652 69.8074L6.00946 69.7535L5.62424 69.6436C5.36544 69.5688 5.19564 69.4259 4.97798 69.3197C4.77751 69.1963 4.55312 69.1088 4.37435 68.9539L3.82756 68.5089C3.45282 68.2217 3.18653 67.8305 2.86415 67.4946C2.61881 67.1042 2.32709 66.7362 2.12663 66.324C1.44521 65.0651 1.05625 63.6941 0.879728 62.311C0.699462 60.9272 0.713674 59.5203 0.937324 58.1268C1.057 57.5164 1.15948 56.9128 1.37565 56.3144C1.75862 55.2036 2.19171 54.5319 2.54999 54.113C2.88584 53.68 3.2374 53.5438 3.52912 53.475C3.66899 53.4473 3.82756 53.3957 3.93378 53.4092C4.1133 53.4324 4.10956 53.665 3.96819 54.033C3.80288 54.4055 3.56801 54.9351 3.26881 55.6105C2.45126 57.6727 2.11317 60.0341 2.42732 62.3208C2.68912 64.5909 3.70863 66.8566 5.51728 67.9591L6.02965 68.2441C6.11343 68.2905 6.15756 68.274 6.22114 68.2995L6.3109 68.3279L6.46349 68.3473C6.85319 68.4139 7.31395 68.4401 7.75976 68.4752C8.6753 68.5186 9.6058 68.5418 10.543 68.5463C12.416 68.5583 14.3039 68.5268 16.1889 68.4797L16.1949 68.5164Z" fill="#2E3543"/>
<path id="Fill 11" fill-rule="evenodd" clip-rule="evenodd" d="M61.5734 63.1198C61.4306 62.5169 61.3221 61.9036 61.2376 61.2887C61.2122 61.0628 61.1426 60.8459 61.1269 60.62C61.0656 59.8204 61.1037 59.0208 61.1635 58.2362C61.2114 57.8884 61.2152 57.5391 61.2556 57.1965C61.2825 56.7544 61.3169 56.3056 61.5069 55.8927C61.6161 55.6369 62.3985 56.1456 62.3947 56.6108C62.3663 57.453 62.3663 58.2631 62.2369 59.1113C62.1808 59.6207 62.2983 60.1413 62.3775 60.6522C62.4613 61.2169 62.5698 61.7832 62.7141 62.3449C62.8039 62.6905 62.8974 63.0368 63.0141 63.3771C63.1854 63.8933 63.3649 64.4161 63.6035 64.9083C63.7875 65.292 64.065 65.6249 64.2744 65.9944C64.3231 66.0751 64.3807 66.1477 64.4225 66.233C64.5849 66.5441 64.4966 66.7057 64.2318 66.9069C64.169 66.9533 64.1099 67.0041 64.0463 67.0438C63.8339 67.1754 63.5728 67.1373 63.3544 66.9563C62.7732 66.3923 62.4142 65.669 62.1165 64.8993C61.8943 64.3271 61.7073 63.7347 61.542 63.131L61.5734 63.1198Z" fill="#2E3543"/>
<path id="Fill 13" fill-rule="evenodd" clip-rule="evenodd" d="M81.0047 54.7286C79.8326 55.7189 78.6164 56.6472 77.4278 57.6046C76.9925 57.9517 76.5864 58.3339 76.1495 58.6772C74.6072 59.8897 73.0528 61.0842 71.5441 62.3282C70.8724 62.8764 70.2224 63.4584 69.6068 64.0523C69.2104 64.4338 68.8304 64.8309 68.4519 65.2199C68.0929 65.5879 67.7384 65.9499 67.3681 66.3292C67.2552 66.4459 66.8827 66.4481 66.7503 65.9627C66.6366 65.5079 66.7787 64.8055 67.226 64.3126C68.8192 62.5795 70.5366 61.1059 72.4193 59.7745C73.5383 58.9742 74.5787 58.001 75.6641 57.1191L79.25 54.2259C79.986 53.635 80.722 53.0433 81.4326 52.4307C81.9644 51.9692 82.5202 51.4965 82.9675 51.0133C83.055 50.9153 83.1156 50.8532 83.126 50.7463L83.1253 50.5757L83.1208 50.3154C83.1111 49.9683 83.0819 49.6228 83.043 49.2772C82.9151 48.2076 82.6241 47.126 82.5583 45.9928C82.5456 45.7444 82.5149 45.5013 82.5209 45.2508C82.58 44.3225 82.7244 44.0398 83.0056 43.8662C83.0714 43.8266 83.1358 43.7735 83.1971 43.7525C83.405 43.683 83.5487 44.0622 83.6541 44.7055C83.8082 45.6636 83.9294 46.5912 84.1216 47.5635C84.2106 48.052 84.3086 48.5606 84.3827 49.0939C84.4201 49.361 84.45 49.6317 84.4747 49.9055L84.5031 50.3177C84.5136 50.471 84.5128 50.5353 84.5218 50.8517C84.5383 51.2354 84.2802 51.5683 84.0984 51.8667C83.9271 52.0724 83.7925 52.2168 83.6452 52.3664C83.3564 52.6641 83.0685 52.9334 82.779 53.2019C82.1993 53.7345 81.6144 54.2454 81.0309 54.7562L81.0047 54.7286Z" fill="#2E3543"/>
<path id="Fill 15" fill-rule="evenodd" clip-rule="evenodd" d="M18.1174 45.3524C15.2017 48.7401 16.7927 59.7341 16.7927 59.7341C13.7439 60.503 11.2583 57.2066 11.2583 57.2066C9.66731 51.1434 12.1536 45.3524 12.1536 45.3524H18.1174Z" fill="#2458A4"/>
<path id="Fill 17" fill-rule="evenodd" clip-rule="evenodd" d="M83.4875 47.7577C105.126 50.419 82.0544 61.9276 68.9219 64.004L83.5526 51.7287L83.4875 47.7577Z" fill="#2E3543"/>
<path id="Fill 19" fill-rule="evenodd" clip-rule="evenodd" d="M3.92749 46.2995C3.83923 45.5134 3.82277 44.7213 3.96265 43.9523C4.01351 43.6733 4.018 43.3861 4.11524 43.1176C4.38377 42.1549 4.85126 41.2678 5.45115 40.5033C5.71893 40.1667 5.96876 39.8144 6.26572 39.5063C6.61952 39.0911 7.03166 38.6962 7.54403 38.4673C7.70261 38.3932 7.78788 38.5862 7.79087 38.8383C7.79536 39.0979 7.71832 39.3828 7.52608 39.5788C6.81175 40.252 6.21784 41.0396 5.67854 41.8916C5.32923 42.3965 5.19534 43.0248 5.04798 43.6195C4.93579 44.2837 4.84004 44.9688 4.9298 45.651C4.94027 46.0759 5.06594 46.4843 5.15345 46.9009L5.48556 47.8157C5.62543 48.1089 5.787 48.3939 5.94782 48.6744C6.23879 49.088 6.57688 49.4575 6.93592 49.8016C7.01745 49.8764 7.10496 49.9422 7.18201 50.0208C7.46849 50.3125 7.5014 50.4584 7.35928 50.7261C7.32637 50.7875 7.29944 50.8525 7.26129 50.9079C7.13339 51.0949 6.8858 51.0934 6.61952 50.8967C6.22158 50.6087 5.83637 50.2796 5.52296 49.8682C5.36289 49.6662 5.18786 49.4733 5.05023 49.2489L4.65454 48.5622C4.2783 47.8666 4.05764 47.0872 3.90131 46.3055L3.92749 46.2995Z" fill="#2E3543"/>
<path id="Fill 21" fill-rule="evenodd" clip-rule="evenodd" d="M4.70582 60.7765C4.70582 61.0779 4.71704 61.3808 4.76491 61.6815C4.7881 61.9867 4.85991 62.2837 4.92872 62.5821C4.96912 62.8043 5.08131 63.001 5.14564 63.2142C5.39173 63.9577 5.71412 64.6997 6.19881 65.3302C6.3918 65.6309 6.68276 65.8433 6.93858 66.0745C7.12707 66.1949 7.31482 66.3116 7.48162 66.4619C7.66488 66.5854 7.85038 66.7043 8.01718 66.8778C8.10619 67.0177 8.04561 67.1276 7.84514 67.2578C7.64842 67.385 7.31631 67.4755 7.01712 67.3715C6.50325 67.1688 6.0941 66.7888 5.72758 66.3991C5.37079 65.9982 5.06037 65.5554 4.8457 65.0699C4.57193 64.5022 4.266 63.9337 4.06704 63.3301C3.94661 63.0032 3.895 62.6554 3.80898 62.3203C3.75737 61.977 3.70426 61.6344 3.67808 61.2903C3.65789 60.8655 3.64442 60.4421 3.68182 60.018C3.70725 59.3747 3.86957 58.7471 4.01617 58.1248C4.16054 57.6491 4.26974 57.1599 4.49414 56.6924C4.53827 56.5877 4.56969 56.477 4.64 56.385C4.9003 56.0454 5.05065 55.9908 5.31768 56.1172C5.37902 56.1456 5.44334 56.1703 5.49795 56.2062C5.68195 56.3281 5.72758 56.5735 5.63932 56.8203C5.36854 57.5369 5.02821 58.2026 4.87188 58.9917C4.7709 59.5699 4.69535 60.1683 4.732 60.7742L4.70582 60.7765Z" fill="#2E3543"/>
<path id="Fill 23" fill-rule="evenodd" clip-rule="evenodd" d="M23.8645 45.8261L20.3923 45.8104C19.9689 45.8104 19.5478 45.8448 19.1252 45.8403C17.6329 45.8134 16.1392 45.7588 14.6455 45.705C13.979 45.6885 13.314 45.6713 12.6536 45.6548C11.8039 45.6354 10.9414 45.589 10.0887 45.2023C9.81793 45.0452 9.95781 44.9562 10.2076 44.8911C10.4582 44.8223 10.8472 44.7101 11.3154 44.7041C12.967 44.7161 14.6814 44.7266 16.404 44.7827C17.437 44.8298 18.5103 44.7161 19.568 44.6982L23.0634 44.6361L25.2176 44.6032C26.3067 44.5882 27.3995 44.5732 28.4803 44.5583C29.3218 44.5411 30.1476 44.464 30.9913 44.4521C31.1761 44.4453 31.3601 44.4513 31.5471 44.4618C32.2435 44.5194 32.4664 44.6436 32.5756 44.936C32.601 45.0026 32.6362 45.0699 32.6466 45.1335C32.6773 45.3519 32.3886 45.4843 31.9016 45.5411C30.452 45.7237 28.9134 45.788 27.3561 45.8299C26.196 45.8388 25.0306 45.8478 23.8667 45.8568L23.8645 45.8261Z" fill="#2E3543"/>
<path id="Fill 25" fill-rule="evenodd" clip-rule="evenodd" d="M34.5376 62.585L31.3677 62.5551C30.9817 62.5543 30.5965 62.5872 30.2105 62.5827C28.8484 62.5453 27.4826 62.5072 26.122 62.4698C25.5176 62.4571 24.9095 62.4631 24.3081 62.4683C23.5362 62.4967 22.7568 62.4459 21.9878 62.2985C21.7485 62.2514 21.7926 62.1152 22.0043 61.9664C22.2167 61.8198 22.5915 61.644 23.0283 61.6006C23.8047 61.5056 24.5804 61.5296 25.3613 61.5101C26.1422 61.4981 26.9268 61.5026 27.7167 61.5311C28.6622 61.5722 29.6428 61.4578 30.6099 61.4406L33.8039 61.3912L35.7726 61.3687C36.7682 61.3598 37.7667 61.3515 38.7548 61.3426C39.5245 61.3306 40.28 61.2573 41.0512 61.2468C41.2225 61.2446 41.3893 61.2453 41.5605 61.2573C42.1978 61.3141 42.4013 61.4413 42.4963 61.7248C42.518 61.7906 42.5494 61.8564 42.5576 61.92C42.586 62.1324 42.3115 62.285 41.871 62.3344C40.5493 62.5169 39.1453 62.5753 37.7241 62.6082C36.6657 62.6112 35.6013 62.6134 34.5399 62.6156L34.5376 62.585Z" fill="#2E3543"/>
<path id="Fill 27" fill-rule="evenodd" clip-rule="evenodd" d="M53.9892 29.9075C52.7536 29.8319 51.5216 29.7564 50.2979 29.7362C49.0286 29.7115 47.7839 29.5873 46.549 29.4647C45.3155 29.3405 44.0903 29.2178 42.8711 29.1684C42.2622 29.1438 41.6549 29.1415 41.0542 29.1737C40.7543 29.1931 40.4536 29.2088 40.1589 29.2522L39.9367 29.2792L39.7804 29.3001L39.6218 29.3278C39.5403 29.342 39.5066 29.3547 39.4468 29.3689C39.381 29.3771 39.4214 29.4691 39.4647 29.4886C39.5089 29.5222 39.562 29.5402 39.6136 29.5582C39.6944 29.5813 39.7123 29.5918 39.9749 29.6487C40.8216 29.8372 41.7155 29.9426 42.6026 30.0518C47.1279 30.5881 51.7191 30.7011 56.2908 31.6069L56.4651 31.6413L56.5608 31.7872C56.6072 31.8567 56.6409 31.9465 56.6543 32.0295C56.6671 32.1253 56.6371 32.2651 56.5825 32.3556C56.5466 32.408 56.501 32.4589 56.4509 32.5008C56.3985 32.5426 56.3873 32.5419 56.3521 32.5636C56.2302 32.6279 56.1622 32.6414 56.0889 32.6608C55.9437 32.6975 55.8256 32.7117 55.7021 32.7281C55.4598 32.7573 55.2294 32.7715 54.999 32.7827C54.539 32.8044 54.0857 32.8112 53.6332 32.8119C52.7289 32.8134 51.8298 32.7955 50.9307 32.773C48.1011 32.6982 45.2564 32.6234 42.4485 32.5494C38.8439 32.4701 35.2221 32.5075 31.6445 32.3369C30.5322 32.2943 30.6743 31.7572 31.6325 31.2815C32.59 30.8028 34.3664 30.449 36.4466 30.5822C39.7572 30.8073 43.0656 31.0324 46.3814 31.2583C48.033 31.3631 49.6868 31.4678 51.3429 31.5732C52.1694 31.6166 52.9959 31.6563 53.8172 31.6757C54.2271 31.6847 54.637 31.6899 55.0357 31.681C55.2347 31.6765 55.4314 31.6675 55.6101 31.6503C55.6992 31.6428 55.7852 31.6301 55.8383 31.6196L55.8592 31.6151C55.8652 31.6278 55.8502 31.5875 55.8742 31.6436C55.8899 31.681 55.9138 31.7258 55.9183 31.7483C55.9355 31.8036 55.9595 31.8567 55.9901 31.9068C56.0702 32.0205 56.0806 32.0587 56.136 32.0826C56.13 32.0871 56.1592 32.0909 56.1397 32.0894C56.1143 32.0909 56.0941 32.1043 56.0829 32.1208L56.0627 32.6451C55.373 32.4716 54.6572 32.3317 53.9361 32.2053C51.7722 31.8298 49.5178 31.6181 47.2521 31.4034C44.9834 31.1805 42.6991 31.0212 40.4222 30.6128C40.0908 30.5462 39.8343 30.4999 39.4386 30.3847C38.998 30.2665 38.5013 30.0578 38.2515 29.8012C38.1386 29.6666 38.0151 29.532 38.0166 29.333C38.0106 29.25 38.0204 29.1153 38.0638 29.0637L38.2769 28.9328C38.4325 28.852 38.5283 28.7458 38.734 28.686L39.4318 28.5401C39.6936 28.4795 39.832 28.4698 39.9921 28.4511L40.4708 28.3973C40.7902 28.3816 41.1103 28.3479 41.4282 28.3494C42.0655 28.3307 42.6983 28.3539 43.3281 28.386C45.8503 28.5222 48.3082 28.9448 50.7878 28.9448C53.8756 29.0271 56.9438 29.3323 59.9904 29.3487C60.2537 29.3472 60.5177 29.3412 60.7713 29.3203C60.8977 29.3113 61.0256 29.2979 61.1333 29.2747C61.1909 29.2664 61.235 29.247 61.259 29.2403C61.2665 29.2507 61.2395 29.2141 61.2769 29.2672C61.2971 29.2934 61.3203 29.3188 61.3435 29.3412C61.3457 29.3525 61.351 29.3629 61.3592 29.3719C61.3562 29.3891 61.4452 29.4033 61.3951 29.3936C61.3704 29.3914 61.3517 29.4048 61.3442 29.4205L61.4617 29.0607C61.5133 29.0592 61.5866 29.0525 61.5918 29.0503C61.5829 29.0226 61.6113 29.1273 61.6337 29.1759C61.6554 29.2335 61.6427 29.2492 61.6726 29.2784C61.7153 29.3083 61.6816 29.2926 61.6898 29.3046C61.6659 29.3151 61.627 29.3442 61.6128 29.3764C61.6143 29.3943 61.5455 29.4826 61.5305 29.5118L61.5283 29.511C61.5283 29.511 61.5103 29.5035 61.5028 29.5006C61.4131 29.4654 61.2859 29.4295 61.1685 29.3981L60.4272 29.2216L58.9178 28.9037L55.8876 28.2888C54.8779 28.0749 53.8696 27.8617 52.8635 27.6478L51.3578 27.2985L50.6076 27.1092L50.2336 27.009L49.7392 26.8669C49.2687 26.7285 48.7885 26.5669 48.4459 26.3784C48.0943 26.1847 47.8849 26.0194 47.7158 25.7531C47.6268 25.602 47.6463 25.3223 47.7921 25.2183C47.9171 25.1046 48.0532 25.0253 48.217 24.961C48.5222 24.8249 48.9732 24.7545 49.4729 24.7201C49.7279 24.7044 49.983 24.691 50.2321 24.694L50.8724 24.6947L51.9607 24.7209C53.4058 24.7725 54.8397 24.8593 56.2751 24.9483C57.0553 24.9932 57.8197 25.0365 58.6059 25.0807C61.517 25.2684 62.3997 25.3604 63.0123 25.8294C63.1514 25.9349 63.3391 26.0366 63.4259 26.1436C63.7326 26.5063 62.473 26.8362 60.3173 26.6933C58.2319 26.5722 56.133 26.359 54.0147 26.1668C52.9578 26.0733 51.8926 25.9783 50.8387 25.9281L50.5141 25.9147L50.431 25.9154L50.4041 25.9237C50.3944 25.9304 50.3742 25.9341 50.3974 25.9506C50.4123 25.9603 50.4318 25.9611 50.4385 25.9618C50.443 25.9626 50.44 25.9611 50.4483 25.9633L50.6884 26.0336L51.5104 26.2625C52.6152 26.558 53.7432 26.8227 54.8756 27.0793C56.0799 27.3419 57.2856 27.6059 58.4929 27.8692L60.315 28.2694L61.2373 28.4908C61.3959 28.5327 61.5484 28.5723 61.7332 28.6351C61.7751 28.6493 61.8357 28.6733 61.8955 28.6995L61.9688 28.7376L62.0055 28.7585C62.0107 28.7615 62.0309 28.7728 62.0788 28.8117C62.1162 28.8431 62.1521 28.879 62.1827 28.9171C62.2089 28.968 62.2351 28.9396 62.3032 29.1804C62.3615 29.3794 62.2254 29.6554 62.1813 29.6853C62.1401 29.7339 62.09 29.7803 62.0331 29.817C61.698 29.9815 61.7354 29.9097 61.6472 29.9381L61.4901 29.9471L61.9935 29.0592C62.0593 29.1842 62.0922 29.3622 62.072 29.505C62.0489 29.6367 61.9696 29.7811 61.8731 29.8813C61.7901 29.9606 61.7646 29.9643 61.7033 30.0047C61.6517 30.0346 61.5858 30.066 61.5634 30.0705C61.4235 30.1206 61.3166 30.1401 61.2201 30.1558C61.0256 30.1857 60.8551 30.1962 60.6853 30.2067C60.3479 30.2224 60.0248 30.2216 59.7009 30.2186C59.0569 30.2082 58.4203 30.1805 57.7861 30.1498L53.9945 29.9284L53.9892 29.9075Z" fill="#2458A4"/>
<path id="Fill 29" fill-rule="evenodd" clip-rule="evenodd" d="M71.567 39.852L73.2014 38.8235C73.3988 38.6979 73.5806 38.5483 73.7796 38.4248C74.4849 37.9918 75.1955 37.5557 75.8986 37.1241C76.2098 36.9281 76.5075 36.7105 76.7992 36.492C77.1724 36.21 77.5233 35.8944 77.9608 35.7014C78.2338 35.5795 78.4059 36.4397 77.9765 36.7688C77.2106 37.3455 76.4162 37.8826 75.5605 38.3463C75.0489 38.6231 74.5792 38.9993 74.087 39.3269L72.4526 40.3906L71.4488 41.0473C70.9454 41.3839 70.433 41.7108 69.9498 42.0691C69.5751 42.3488 69.2355 42.663 68.8802 42.9614C68.8017 43.0272 68.7299 43.0983 68.6476 43.1604C68.3439 43.39 68.2093 43.4065 68.0051 43.2471C67.9587 43.2112 67.9078 43.1783 67.8674 43.1379C67.732 42.9996 67.7702 42.7789 67.9639 42.5695C68.5391 41.9501 69.2228 41.4138 69.9394 40.9187C70.4689 40.5476 71.0142 40.1946 71.5528 39.8333L71.567 39.852Z" fill="#2E3543"/>
<path id="Fill 31" fill-rule="evenodd" clip-rule="evenodd" d="M74.9078 50.0432C75.3326 49.8195 75.7493 49.5689 76.1577 49.3041C76.3073 49.2076 76.4352 49.0827 76.584 48.9855C77.1084 48.6384 77.6275 48.2756 78.1339 47.8919C78.362 47.7251 78.5692 47.5321 78.7726 47.3422C79.0322 47.0938 79.2723 46.8245 79.5902 46.6368C79.7854 46.5164 80.0098 47.1567 79.7443 47.4865C79.2476 48.0378 78.739 48.5891 78.0867 48.9855C77.7053 49.2308 77.3761 49.5667 77.0066 49.8449C76.6035 50.1524 76.1786 50.4351 75.7515 50.7119C75.483 50.8749 75.2182 51.0417 74.9437 51.1958C74.5368 51.4426 74.0992 51.6431 73.6751 51.8548C73.343 52.0156 73.037 52.228 72.6915 52.3731C72.6129 52.3993 72.5419 52.439 72.4596 52.4539C72.1544 52.5153 72.0407 52.4711 71.9293 52.2811C71.9038 52.2378 71.8739 52.1959 71.8552 52.1525C71.7924 52.0066 71.8732 51.8383 72.043 51.7029C72.1709 51.6087 72.295 51.504 72.4192 51.4008C72.5561 51.32 72.6877 51.2422 72.8186 51.1651C73.0931 51.0096 73.3632 50.857 73.6354 50.7036C74.0446 50.4725 74.4822 50.2765 74.8928 50.0222L74.9078 50.0432Z" fill="#2E3543"/>
<path id="Fill 33" fill-rule="evenodd" clip-rule="evenodd" d="M34.4788 55.4831L27.6437 55.359L25.1491 55.3462C22.2177 55.2789 19.2871 55.2049 16.355 55.077C15.0527 55.0321 13.7452 54.9872 12.4534 54.9438C10.7929 54.866 9.11888 54.8548 7.46283 54.5003C6.94746 54.4008 7.05966 54.2063 7.52267 54.0582C7.98867 53.9108 8.78229 53.8166 9.72999 53.8577C13.0743 54.0537 16.4552 54.0844 19.8586 54.2415C21.8953 54.3454 24.0189 54.3013 26.105 54.323L32.991 54.4008L37.2307 54.4524C39.3714 54.4846 41.5219 54.5167 43.6454 54.5481C45.2985 54.5691 46.9194 54.5235 48.5582 54.5549C48.9188 54.5579 49.2733 54.5616 49.6361 54.5646C50.987 54.6312 51.4126 54.7374 51.6781 55.0403C51.738 55.1091 51.8195 55.1794 51.8517 55.2468C51.9616 55.4749 51.4014 55.6208 50.4245 55.6215C47.5208 55.6439 44.4548 55.6245 41.3715 55.5923C39.0804 55.5647 36.7789 55.5377 34.481 55.5101L34.4788 55.4831Z" fill="#2E3543"/>
<path id="Fill 35" fill-rule="evenodd" clip-rule="evenodd" d="M75.3868 44.6417L72.1937 46.8109L71.044 47.6225C69.6632 48.5335 68.2802 49.4461 66.9001 50.3556C66.286 50.7588 65.6824 51.1821 65.0885 51.604C64.324 52.1441 63.5746 52.7148 62.742 53.1546C62.2267 53.4321 62.4182 52.3774 63.2911 51.7596C64.8461 50.663 66.408 49.5747 68.0468 48.5627C69.0267 47.9583 69.9766 47.2283 70.9415 46.5551L74.128 44.338L76.0817 42.9632C77.0616 42.2608 78.0542 41.5652 79.0041 40.8382C79.7402 40.2682 80.4305 39.6691 81.1374 39.0841C81.2922 38.9547 81.4366 38.8201 81.5997 38.6982C82.1876 38.2254 82.4531 38.2037 82.6925 38.2434C82.7538 38.2531 82.8249 38.2509 82.8772 38.2628C83.0672 38.2763 82.8899 38.6742 82.5317 39.1081C81.3655 40.3198 79.9862 41.3715 78.5755 42.4015C77.5313 43.1674 76.4625 43.9109 75.4025 44.6604L75.3868 44.6417Z" fill="#2E3543"/>
<path id="Fill 37" fill-rule="evenodd" clip-rule="evenodd" d="M26.6395 69.0346C29.1961 69.0032 31.7565 68.9456 34.3169 68.8752L37.1174 68.763C40.4108 68.6763 43.7087 68.6247 47.0073 68.585C48.4726 68.5566 49.9447 68.5274 51.3988 68.499L52.802 68.4646L54.2097 68.4998C55.1462 68.5177 56.0909 68.6112 57.0214 68.7518C57.5989 68.8827 57.5024 69.0293 56.9938 69.2522C56.4806 69.4819 55.5875 69.6689 54.5209 69.728C52.6382 69.817 50.7465 69.7826 48.8474 69.8185C46.9482 69.8372 45.0416 69.8596 43.1237 69.8476C40.8297 69.8402 38.4458 69.989 36.0994 70.0646L28.3524 70.262L23.581 70.3301C21.1709 70.3578 18.7497 70.3346 16.3546 70.3114C14.4921 70.2972 12.6618 70.3166 10.8045 70.2052C10.3946 70.1775 9.9922 70.1498 9.58006 70.1214C8.81785 70.0631 8.31371 69.8776 7.97487 69.7616C7.63603 69.6262 7.45875 69.4781 7.33982 69.2777C7.28597 69.1864 7.20892 69.0914 7.18723 69.0069C7.11393 68.7242 7.76692 68.6217 8.82832 68.7294C12.0193 68.9717 15.4555 69.057 18.9068 69.0869C21.4709 69.0981 24.0559 69.063 26.635 69.0032L26.6395 69.0346Z" fill="#2E3543"/>
<path id="Fill 40" fill-rule="evenodd" clip-rule="evenodd" d="M46.3202 4.72903C46.2267 4.646 46.3082 4.52184 46.4937 4.37598C46.5528 4.3296 46.7593 4.26602 46.7982 4.28472C46.8744 4.32137 46.9485 4.35803 47.0068 4.40066C47.0405 4.42834 47.3412 4.93099 47.4616 5.09181C47.5731 5.24963 47.6568 5.41868 47.7331 5.59072C47.8925 5.93928 48.0667 6.28111 48.244 6.6222C48.2829 6.69849 48.3106 6.77928 48.3308 6.86455C48.3944 7.15926 48.5327 7.41956 48.6831 7.67462C48.7085 7.71651 48.7257 7.76438 48.7818 7.78906C48.8708 7.8302 49.2463 8.53706 49.271 8.64252C49.3383 8.90058 49.3683 9.18108 49.4363 9.44138C49.4445 9.47953 49.4715 9.50945 49.4513 9.55956C49.4049 9.67625 49.4528 9.74132 49.4812 9.81837C49.5208 9.92458 49.5575 10.0323 49.5837 10.1467C49.5964 10.2028 49.5822 10.2739 49.5777 10.339C49.574 10.3988 49.4655 10.4295 49.4453 10.4205C49.3899 10.3943 49.3638 10.4564 49.3264 10.4833C49.3129 10.4923 49.2964 10.5043 49.2837 10.5088C49.2658 10.5132 48.7138 10.0832 48.6644 10.0286C48.6592 10.0226 48.5006 9.83707 48.3308 9.6381C48.1498 9.44961 48.0129 9.22147 47.9747 9.18108C47.9381 9.1362 47.9329 9.07486 47.9186 9.01727C47.8955 8.98286 47.4751 8.35305 47.4594 8.32911C47.3943 8.18475 47.2866 8.05984 47.303 7.87434C47.306 7.83768 47.2873 7.81076 47.2724 7.78308C47.1407 7.54297 47.0585 7.27819 46.9679 7.01863C46.9201 6.88624 46.8543 6.76207 46.7989 6.63342C46.7892 6.61023 46.7914 6.58106 46.7869 6.55563C46.781 6.52346 46.781 6.48905 46.7675 6.45988C46.6299 6.15769 46.5506 5.83157 46.398 5.53462C46.3606 5.46655 46.3344 5.08657 46.2925 5.00803C46.2686 4.9639 46.3568 4.76194 46.3202 4.72903Z" fill="#2E3543"/>
<path id="Fill 42" fill-rule="evenodd" clip-rule="evenodd" d="M68.7987 11.0404C68.7231 11.175 68.5571 11.1406 68.3349 11.0082C68.2646 10.9656 68.136 10.7756 68.1494 10.7262C68.1756 10.629 68.204 10.5333 68.2429 10.4517C68.2676 10.4024 68.8249 9.86157 69.0096 9.66934C69.1876 9.48309 69.3896 9.32825 69.5945 9.17865L70.8504 8.26536C70.9439 8.19879 71.0441 8.14194 71.1519 8.09556C71.5206 7.93624 71.8505 7.71932 72.1691 7.48371C72.223 7.44481 72.2828 7.4119 72.3157 7.34607C72.3666 7.23163 73.2956 6.67887 73.4332 6.63623C73.7683 6.51954 74.1221 6.43577 74.458 6.32731C74.5066 6.3131 74.5485 6.28019 74.6091 6.29589C74.7482 6.33105 74.8365 6.27196 74.9367 6.23231C75.0743 6.17622 75.2172 6.12834 75.3638 6.0902C75.4364 6.0715 75.5216 6.08047 75.6017 6.07972C75.6742 6.07972 75.6922 6.19342 75.678 6.21511C75.6353 6.27719 75.7071 6.30038 75.7333 6.33853C75.7423 6.35125 75.7535 6.36845 75.7565 6.38117C75.7595 6.39538 75.6017 6.55021 75.4401 6.71477C75.2785 6.88008 75.1147 7.05959 75.0766 7.08353C75.0683 7.09026 74.8252 7.28175 74.5672 7.4852C74.3226 7.70511 74.0421 7.88912 73.992 7.93923C73.9366 7.98636 73.8626 8.00356 73.7938 8.02899C73.7579 8.03572 72.9994 8.64758 72.9642 8.66404C72.787 8.75978 72.6404 8.90489 72.4197 8.93257C72.3763 8.9378 72.3449 8.96473 72.312 8.98792C72.0307 9.19137 71.7211 9.35144 71.4189 9.52572C71.2648 9.61399 71.1257 9.72618 70.9783 9.82492C70.9514 9.84287 70.917 9.84886 70.8871 9.86157C70.8489 9.87803 70.8085 9.88999 70.7756 9.91393C70.4345 10.1615 70.0583 10.3597 69.7367 10.6365C69.6626 10.6993 69.219 10.8766 69.136 10.9544C69.0889 10.9963 68.8293 10.9866 68.7987 11.0404Z" fill="#2E3543"/>
<path id="Fill 44" fill-rule="evenodd" clip-rule="evenodd" d="M60.796 5.38122C60.7997 5.50314 60.6456 5.50164 60.3958 5.42609C60.3158 5.40216 60.1146 5.26528 60.1011 5.22339C60.0757 5.13961 60.0525 5.05733 60.045 4.98478C60.0405 4.94065 60.2425 4.41481 60.3031 4.23155C60.3614 4.05353 60.4527 3.8972 60.5499 3.74386L61.1311 2.80513C61.1752 2.73632 61.2291 2.67348 61.2919 2.61738C61.5081 2.4244 61.6636 2.19178 61.7975 1.94419C61.82 1.90305 61.8521 1.8664 61.8439 1.80731C61.8305 1.70932 62.2418 1.06979 62.3204 1.00322C62.5074 0.834172 62.7063 0.671858 62.9046 0.510291C62.9322 0.487104 62.9442 0.449704 62.9988 0.448208C63.126 0.44372 63.1566 0.374157 63.209 0.317309C63.2793 0.23877 63.3549 0.162475 63.4416 0.0944077C63.4843 0.0607481 63.5561 0.0472842 63.6182 0.0270885C63.6743 0.00838865 63.7663 0.100392 63.77 0.122083C63.7775 0.184167 63.85 0.185663 63.8964 0.211842C63.9121 0.220818 63.9323 0.232038 63.9435 0.241762C63.9615 0.259714 63.868 0.920939 63.8433 0.983022C63.8403 0.989754 63.7558 1.19994 63.6645 1.42434C63.5748 1.64574 63.4513 1.85742 63.4364 1.90754C63.4177 1.95766 63.3676 1.98758 63.3264 2.02273C63.307 2.03993 62.9996 2.67947 62.9824 2.70191C62.8933 2.8171 62.8477 2.96296 62.6891 3.03177C62.6585 3.04524 62.6465 3.07291 62.6323 3.09834C62.5096 3.31751 62.3428 3.5075 62.1865 3.70422C62.1072 3.8052 62.0489 3.91964 61.9786 4.0266C61.9658 4.04605 61.9412 4.05727 61.9232 4.07373C61.9008 4.09317 61.8738 4.11038 61.8589 4.13581C61.704 4.39611 61.4954 4.62125 61.3674 4.90026C61.3375 4.96384 61.0615 5.18075 61.0308 5.25705C61.0136 5.29968 60.7945 5.3326 60.796 5.38122Z" fill="#2E3543"/>
</g>
</svg>
