<svg width="78" height="89" viewBox="0 0 78 89" fill="none" xmlns="http://www.w3.org/2000/svg">
<g id="Icon">
<path id="Fill 1" fill-rule="evenodd" clip-rule="evenodd" d="M70.1033 32.687C69.9179 32.3738 69.6178 32.0988 69.2866 31.8629C68.957 31.624 68.5953 31.4154 68.2202 31.2271C67.4702 30.8505 66.6791 30.5359 65.8693 30.2664C64.2523 29.726 62.5804 29.3077 60.9106 29.0096C60.6383 28.9778 61.0327 27.2077 61.3113 27.308C63.0275 27.8163 64.6884 28.4337 66.3064 29.1805C67.114 29.5538 67.9061 29.9732 68.6639 30.4659C69.0422 30.7118 69.4112 30.9812 69.7549 31.2939C70.097 31.6024 70.4253 31.9611 70.634 32.4238C70.8033 32.8631 70.261 32.9381 70.1033 32.687Z" fill="#2E3543"/>
<path id="Fill 3" fill-rule="evenodd" clip-rule="evenodd" d="M11.0293 42.7036L13.4449 33.4197L14.2963 30.0267C15.3633 26.0557 16.4766 22.0974 17.5996 18.1421C18.1102 16.3901 18.5633 14.6128 19.0316 12.863C19.6355 10.6177 20.1441 8.32771 21.1212 6.19145C21.4186 5.52323 21.593 5.67925 21.7043 6.35205C21.7608 6.68908 21.8083 7.15718 21.8319 7.71105C21.8337 8.259 21.7506 8.87423 21.5891 9.52145C20.4006 14.1024 19.1124 18.6558 17.7164 23.2317C16.8819 25.968 16.2143 28.8688 15.4805 31.7001L13.0644 41.0446C12.5806 42.9657 12.0967 44.8868 11.6134 46.806C10.8982 49.7173 10.1664 52.6408 9.51909 55.5456C9.01701 57.8046 8.62067 60.0407 8.18796 62.2857C8.09625 62.781 8.00622 63.266 7.91417 63.7647C7.48764 65.5959 7.24882 66.1538 6.78273 66.4609C6.68338 66.536 6.58471 66.6441 6.50553 66.688C6.2686 66.858 6.05616 65.9834 6.24674 64.6158C6.78469 60.5372 7.75199 56.3314 8.71529 52.1057C9.44198 48.9703 10.2225 45.8319 10.9902 42.6982L11.0293 42.7036Z" fill="#2E3543"/>
<path id="Fill 6" fill-rule="evenodd" clip-rule="evenodd" d="M58.6403 63.6124C61.7124 55.7694 64.8454 47.9499 67.8008 40.0836C68.3368 38.6484 68.855 37.2058 69.3447 35.763C69.5901 35.0418 69.8327 34.3183 70.051 33.6018C70.1685 33.241 70.2636 32.8877 70.3645 32.5341C70.4114 32.368 70.4488 32.174 70.4798 32.0532C70.4945 31.9882 70.5042 31.954 70.4968 31.9052C70.4826 31.8787 70.4685 31.8523 70.4486 31.8283C70.4343 31.8047 70.4152 31.7874 70.3366 31.707C70.2074 31.5762 70.0465 31.4465 69.8748 31.3213C69.528 31.0708 69.1295 30.8417 68.7177 30.6286C67.889 30.2045 66.9944 29.8442 66.0865 29.5162C65.1772 29.1879 64.2481 28.8943 63.3109 28.6226L61.8992 28.2333C61.1937 28.047 60.2999 27.8492 59.5122 27.6695L60.0517 26.4866L60.3058 25.8975L60.5125 25.3935L61.0593 23.991C61.4147 23.0492 61.7565 22.1003 62.0845 21.1473C62.4125 20.1943 62.7283 19.2369 63.0162 18.2795L63.2232 17.5624L63.3878 16.9355C63.4118 16.8354 63.4363 16.7334 63.4471 16.6271C63.49 16.4906 63.332 16.4877 63.2447 16.4548L63.0334 16.3963L62.5493 16.2751L61.5324 16.0278L59.4876 15.5414L55.3933 14.5579C50.7199 13.41 46.0249 12.2155 41.4451 10.8112C38.5036 9.90794 35.5703 8.92562 32.716 7.68321C31.2936 7.05093 29.8881 6.36081 28.5466 5.52123C27.2247 4.669 25.8924 3.69986 24.9871 2.22276C24.8578 1.98387 24.737 1.79045 24.6768 1.59973C24.6234 1.40319 24.5916 1.24182 24.5773 1.1144C24.549 0.858926 24.5898 0.743242 24.6802 0.737774C24.7706 0.732306 24.9118 0.835286 25.0861 1.01059C25.1734 1.09791 25.2681 1.20323 25.3672 1.32207C25.489 1.4299 25.6242 1.55037 25.774 1.68388C26.3616 2.20435 27.224 2.82616 28.3939 3.44618C29.5519 4.07474 30.9604 4.74075 32.5114 5.47006C34.9356 6.60905 37.4887 7.55178 40.0708 8.41598C42.6551 9.27947 45.2776 10.0622 47.919 10.797C50.5614 11.5307 53.2231 12.2195 55.8973 12.8862C57.2372 13.2151 58.5784 13.5444 59.9202 13.8739L61.9406 14.3679L62.9566 14.6227L63.5017 14.7625L64.4083 15.017C64.933 15.2708 65.2878 15.7428 65.1935 16.4018C65.1555 16.7252 65.0856 17.0589 65.0083 17.3796L64.8534 17.9508C64.641 18.6949 64.4078 19.4184 64.1653 20.1391C63.7578 21.3492 63.33 22.5553 62.8831 23.7677C62.6529 24.3726 62.4226 24.9803 62.1901 25.5903L61.9322 26.2325L61.8063 26.5127L62.7219 26.7471C63.3482 26.9115 63.9735 27.0864 64.5975 27.2723C65.8464 27.6465 67.0915 28.0589 68.3211 28.574C68.9359 28.833 69.5472 29.1174 70.1496 29.4641C70.4504 29.6378 70.7494 29.8266 71.0429 30.0502C71.3459 30.299 71.596 30.4651 71.9459 30.9484C72.0263 31.0559 72.0931 31.1706 72.1611 31.2857L72.2633 31.4584C72.3014 31.5144 72.2633 31.5879 72.2666 31.6526C72.236 31.9088 72.2338 32.2058 72.1683 32.4264C72.0948 32.779 72.0054 33.1018 71.9132 33.4194C71.7294 34.0577 71.5303 34.6757 71.3231 35.2897C69.9448 39.3364 68.4102 43.287 66.8883 47.2528L62.2599 59.1107C60.3564 63.9725 58.4435 68.8322 56.5953 73.7073C55.8971 75.554 55.2023 77.4039 54.5313 79.2603C54.1985 80.1889 53.8676 81.1182 53.5568 82.05L53.3259 82.7491L53.0648 83.59L52.9808 83.8408L52.9383 83.9667C52.9193 84.0031 52.8619 84.0036 52.8257 84.0241L52.3269 84.2125C52.1672 84.2835 51.9787 84.3129 51.8372 84.3429C51.7012 84.3667 51.563 84.407 51.4296 84.4152C49.2796 84.6096 47.3218 84.0981 45.3857 83.6189C43.4609 83.0953 41.5783 82.4728 39.725 81.8012C36.8414 80.7589 34.0282 79.6334 31.2385 78.4822C29.8481 77.9026 28.4599 77.3229 27.0708 76.7436C26.3839 76.4606 25.6753 76.1596 25.0183 75.9265C24.3676 75.7246 23.6032 75.5225 22.8975 75.344C21.6282 75.0251 20.3777 74.7813 19.0854 74.5785C16.6891 74.2151 15.0928 74.1698 13.9682 74.0744C12.8428 73.9939 12.1861 73.8825 11.6436 73.6798C11.3962 73.5897 11.0699 73.5049 10.9204 73.408C10.6687 73.2449 11.0397 73.0506 11.9443 72.8616C12.8484 72.6839 14.2932 72.5258 16.1573 72.5967C18.9248 72.685 21.7138 73.1927 24.4235 73.924C24.7692 74.0203 25.0831 74.1013 25.4557 74.2152C25.8645 74.3465 26.1692 74.4741 26.5089 74.6066C27.1549 74.8736 27.8026 75.1418 28.4525 75.41C29.734 75.9501 31.0213 76.492 32.3124 77.0358C34.8941 78.111 37.4992 79.1675 40.1381 80.1249C42.7721 81.07 45.4584 81.9701 48.1284 82.4739C49.1099 82.6517 50.1104 82.7738 50.9764 82.7097C51.0818 82.6995 51.1942 82.6971 51.2939 82.6823L51.4327 82.6515C51.4846 82.6408 51.5303 82.6318 51.5243 82.635L51.5367 82.6344L51.5381 82.632L51.6249 82.3463L51.8768 81.5756C52.556 79.5299 53.2912 77.5327 54.0338 75.5327C55.5241 71.5394 57.0611 67.5709 58.5957 63.606L58.6403 63.6124Z" fill="#2E3543"/>
<path id="Fill 9" fill-rule="evenodd" clip-rule="evenodd" d="M72.3779 31.719C71.931 29.0573 70.7371 26.4356 69.6661 23.9794C68.4796 21.2599 67.2138 18.4461 65.4492 16.0447C65.2588 15.7858 64.596 15.8193 64.3187 15.8324C64.2098 15.8373 63.4927 15.8871 63.6629 16.1184C65.4327 18.5264 66.7053 21.3508 67.8883 24.0793C68.9318 26.4871 70.0923 29.0514 70.5301 31.6581C70.6041 32.0956 72.4225 31.9844 72.3779 31.719Z" fill="#2E3543"/>
<path id="Fill 11" fill-rule="evenodd" clip-rule="evenodd" d="M25.8921 25.2224C26.3559 25.0477 26.7527 24.9878 27.118 25.0029C27.4973 25.0028 27.853 25.0829 28.1935 25.1963C30.4879 25.9424 32.845 26.5859 35.1832 27.268C37.1922 27.8702 39.2051 28.4736 41.2141 29.0757C44.688 30.0684 48.1763 31.0139 51.6631 31.9739L54.7533 32.8307C55.7457 33.0855 56.737 33.3415 57.7257 33.6252C57.8924 33.6723 58.0754 33.6942 58.2207 33.7791C58.6104 34.0084 58.5898 34.425 58.193 34.6265C58.1026 34.6721 57.9919 34.7587 57.9153 34.7376C57.1502 34.5282 56.3924 34.8769 55.5901 34.6441C54.1163 34.1836 52.5883 33.8971 51.0858 33.5217C50.4852 33.3715 49.8892 33.197 49.3003 33.006C48.5569 32.7509 47.7961 32.4899 47.0523 32.2339C46.0225 31.8998 41.1274 30.5042 36.4485 29.0963C34.11 28.3869 31.8247 27.6836 30.1041 27.0982C29.2419 26.8127 28.5225 26.5449 28.002 26.3618C27.4812 26.1586 27.1667 26.0209 27.111 25.9968C26.7543 25.8427 26.4211 25.5705 25.8921 25.2224Z" fill="#2458A4"/>
<path id="Fill 13" fill-rule="evenodd" clip-rule="evenodd" d="M24.313 34.7214C24.7407 34.5242 25.0797 34.4447 25.4016 34.4237C25.7308 34.3977 26.0342 34.4519 26.3234 34.539C28.2986 35.0944 30.3227 35.576 32.3326 36.0997C34.0643 36.5475 35.7766 37.0732 37.5061 37.5447C40.4816 38.3552 43.4631 39.1597 46.4245 40.0683L49.0425 40.9105C49.8809 41.1801 50.7219 41.4412 51.5496 41.7648C51.6891 41.8165 51.8465 41.845 51.9624 41.9324C52.2755 42.1713 52.1996 42.5769 51.829 42.7606C51.7447 42.8023 51.6371 42.8834 51.573 42.861C50.9339 42.6376 50.253 42.9382 49.5857 42.7084C48.3714 42.2323 47.082 41.9538 45.8191 41.6047C45.3127 41.4674 44.8134 41.3043 44.3193 41.1264C43.6959 40.8956 43.0514 40.6569 42.4272 40.4266C41.5587 40.1242 37.4035 38.929 33.3942 37.8282C31.391 37.2729 29.4298 36.7231 27.9476 36.2716C26.465 35.8328 25.4595 35.4538 25.3649 35.4C25.0584 35.2712 24.7681 35.0371 24.313 34.7214Z" fill="#2458A4"/>
<path id="Fill 15" fill-rule="evenodd" clip-rule="evenodd" d="M22.2175 44.5758C22.662 44.3845 23.0136 44.3131 23.3558 44.2961C23.7025 44.2761 24.0236 44.3378 24.3333 44.4304C26.4333 45.0273 28.5798 45.5561 30.7117 46.1255C32.5484 46.6116 34.3652 47.1776 36.1997 47.6874C39.3547 48.5639 42.5162 49.4309 45.6588 50.3981C46.5886 50.6775 47.5075 51.0024 48.4378 51.2899C49.3273 51.5793 50.2197 51.8525 51.0989 52.1974C51.2475 52.2526 51.414 52.2838 51.538 52.3751C51.873 52.6221 51.8021 53.0299 51.4155 53.2074C51.3274 53.2479 51.216 53.3271 51.1482 53.3029C50.4703 53.0635 49.7575 53.3558 49.0487 53.1119C47.7568 52.6087 46.3883 52.3055 45.0457 51.9315C44.5078 51.7846 43.9791 51.6076 43.4517 51.4238C42.7875 51.1792 42.1041 50.9273 41.4407 50.6822C40.5167 50.3623 36.1054 49.0771 31.8528 47.8845C29.7282 47.2837 27.649 46.6889 26.0773 46.2044C24.505 45.7334 23.4401 45.3356 23.339 45.2799C23.0145 45.1442 22.7047 44.9062 22.2175 44.5758Z" fill="#2458A4"/>
<path id="Fill 17" fill-rule="evenodd" clip-rule="evenodd" d="M26.1348 56.7551C26.6845 56.2386 26.948 56.1555 27.2065 56.2211C28.0432 56.4372 28.9032 56.6426 29.7507 56.8799C30.4813 57.0824 31.1909 57.3616 31.9207 57.576C33.1766 57.9438 34.4436 58.277 35.7098 58.615C36.0842 58.7137 36.4536 58.8287 36.8317 58.9149C37.1952 58.9902 37.5596 59.0651 37.9184 59.1561C37.9797 59.1712 38.0508 59.1584 38.0965 59.2131C38.2198 59.3607 38.1468 59.7615 37.9531 60.0246C37.9092 60.0843 37.8495 60.1864 37.821 60.1813C37.5391 60.1201 37.1711 60.5851 36.879 60.5007C36.3465 60.3146 35.7666 60.2945 35.2124 60.1849C34.9907 60.1419 34.775 60.0722 34.5646 59.9875C34.2963 59.8789 34.0406 59.7289 33.7721 59.6209C33.4049 59.4729 31.6323 58.9361 29.9383 58.3923C29.0903 58.1191 28.263 57.8436 27.6355 57.6172C27.0091 57.3991 26.5787 57.209 26.5404 57.1774C26.4167 57.1018 26.3092 56.9468 26.1348 56.7551Z" fill="#2E3543"/>
<path id="Fill 19" fill-rule="evenodd" clip-rule="evenodd" d="M15.2833 73.4391C15.2833 73.4391 23.4177 73.6007 32.4839 78.2743C41.5508 82.9482 52.5093 83.5724 52.5093 83.5724C52.5093 83.5724 48.3669 88.5537 32.7883 80.5851C23.8276 76.0021 15.5431 76.3917 13.8637 75.8825C12.8768 75.5835 15.2833 73.4391 15.2833 73.4391Z" fill="#2E3543"/>
</g>
</svg>
