<svg width="74" height="77" viewBox="0 0 74 77" fill="none" xmlns="http://www.w3.org/2000/svg">
<g id="Icon">
<path id="Stroke 1" fill-rule="evenodd" clip-rule="evenodd" d="M58.8716 2.00356C59.3119 1.47752 60.0274 1.35141 60.4706 1.72108C62.6634 3.55647 56.5779 4.74187 58.8716 2.00356Z" stroke="#2E3543" stroke-width="1.50109"/>
<path id="Stroke 3" fill-rule="evenodd" clip-rule="evenodd" d="M2.57106 22.8745C1.9744 23.2132 1.25956 23.0806 0.974916 22.579C-0.436756 20.0922 5.67833 21.1126 2.57106 22.8745Z" stroke="#2E3543" stroke-width="1.50109"/>
<path id="Fill 5" fill-rule="evenodd" clip-rule="evenodd" d="M68.9341 12.2934C69.3751 11.7673 70.0907 11.6412 70.5331 12.0109C72.7259 13.8463 66.6404 15.0317 68.9341 12.2934Z" fill="#2E3543"/>
<path id="Fill 7" fill-rule="evenodd" clip-rule="evenodd" d="M45.3869 13.7753C45.7861 13.8784 46.1831 13.9908 46.5773 14.1119L47.1668 14.3007L47.2302 14.3223L47.2446 14.3288L47.2741 14.341L55.2419 9.59653L63.4172 16.4099L64.826 17.5737C63.8943 19.827 62.9625 22.0782 62.0322 24.3294L61.5962 25.3476L61.9277 25.8636C62.123 26.1734 62.3132 26.4869 62.497 26.804C62.6807 27.1217 62.858 27.4417 63.0288 27.766L63.2616 28.2199L63.3271 28.3619L72.1719 29.9689L73.8033 42.2351L72.164 43.0976L68.6575 44.9518C67.5816 45.529 66.5079 46.1062 65.4385 46.6798L65.3946 46.9342L65.2893 47.4616C65.2144 47.8191 65.133 48.1736 65.0465 48.5274C64.9593 48.8798 64.8671 49.23 64.7676 49.5795L64.501 50.4601L64.4534 50.6064C66.224 52.7603 67.9974 54.9178 69.7701 57.0731L67.3323 60.3541C66.6218 61.2923 65.9026 62.2233 65.1719 63.1443C64.1659 64.4096 63.9353 63.9701 64.3972 62.6117C64.6286 61.9322 65.0321 61.0228 65.5999 59.9829C65.8831 59.4627 66.2081 58.91 66.572 58.3364C66.7587 58.0524 66.9503 57.7606 67.1471 57.4623L67.3006 57.2396L67.3726 57.1358L67.3712 57.1329L67.3669 57.1272V57.1265C65.7095 55.0756 64.0521 53.0247 62.3925 50.971L62.7694 49.8822L62.9546 49.2992C63.0619 48.949 63.1628 48.593 63.2565 48.2363C63.3509 47.8796 63.4381 47.5207 63.5181 47.1604L63.6334 46.6157L63.8359 45.5138C65.3758 44.7053 66.9165 43.8961 68.4586 43.0861L70.5275 42.0095L71.563 41.4727L71.8224 41.3379C71.8995 41.2976 71.8584 41.3221 71.8829 41.3098L71.9384 41.2889C71.5853 38.3928 71.2315 35.4909 70.8762 32.5804C70.8395 32.2777 70.8034 31.9743 70.766 31.6681C70.7573 31.5672 70.748 31.4656 70.7393 31.3611L70.5952 31.3279L70.5202 31.3114L70.2832 31.2667L69.2001 31.0692C68.4766 30.9388 67.7502 30.8098 67.0217 30.6787C65.4299 30.4027 63.8294 30.1245 62.2246 29.8464L61.8261 29.0443L61.5688 28.5543C61.4053 28.2509 61.2359 27.9512 61.0608 27.655C60.885 27.3588 60.7034 27.0648 60.516 26.7758L60.1932 26.288L59.6837 25.5508C60.3258 24.0051 60.9671 22.4608 61.6063 20.9223L62.8018 18.0824L55.0949 11.6582L49.6918 14.8829L47.4766 16.2088L46.7048 15.9415L46.2076 15.7808C45.879 15.6785 45.5476 15.5826 45.2139 15.494C44.8803 15.4046 44.5452 15.3218 44.2079 15.2468L43.6963 15.138L42.9065 14.9896C41.7622 12.9459 40.6193 10.9037 39.4764 8.86223C39.155 8.28791 38.8329 7.71286 38.5122 7.13998C35.2659 7.56946 32.0145 7.99966 28.7941 8.42626C28.4309 10.6688 28.0713 12.8883 27.7139 15.0969C27.6109 15.7534 27.5071 16.4084 27.4069 17.0455L26.6964 17.4007L26.2014 17.663C25.8872 17.8345 25.5766 18.0125 25.2718 18.197C24.967 18.3808 24.6672 18.5703 24.3725 18.7663L23.9214 19.0733L23.2663 19.5366C20.4949 18.6899 17.7573 17.8547 15.0103 17.0166L14.9159 17.15C14.2991 17.983 13.6959 18.7987 13.0748 19.6389C10.5361 22.989 9.62809 23.9777 8.71219 24.4123C8.50394 24.5103 8.25533 24.6616 8.09895 24.6918C7.57003 24.7942 8.38071 23.2564 10.1729 20.753C10.7911 19.8962 11.4123 19.0343 12.0385 18.166C12.3541 17.7336 12.6705 17.2998 12.9883 16.8632C13.4509 16.2413 13.915 15.6179 14.3812 14.991C17.2017 15.8601 20.0762 16.7457 22.9875 17.6429L23.004 17.6256L23.4443 17.3301C23.7599 17.1233 24.0813 16.9222 24.4078 16.7277C24.7342 16.5331 25.0657 16.3443 25.4022 16.1634L25.867 15.9177L25.8735 15.9112C26.3412 12.9841 26.816 10.0116 27.2909 7.03549L27.3118 6.90794C31.3451 6.36172 35.3877 5.81406 39.4397 5.26495C40.9645 7.97949 42.4936 10.7012 44.022 13.4222L44.4443 13.5109L45.3883 13.7307L45.3869 13.7753Z" fill="#2E3543"/>
<path id="Fill 10" fill-rule="evenodd" clip-rule="evenodd" d="M29.4911 67.3897L28.9507 67.2174L28.8981 67.1936L21.6905 72.5334L14.7035 66.7418L12.1252 64.6355C12.8307 63.2137 13.5347 61.7941 14.2387 60.376L15.966 56.9913L15.5567 56.3377C15.3355 55.9781 15.1215 55.6163 14.9139 55.2517C14.7057 54.8864 14.5032 54.5189 14.3065 54.1463L14.0161 53.5828L13.9145 53.3637L5.20374 51.555L4.4334 45.7318C4.19128 43.9843 3.94844 42.2325 3.70703 40.4929C5.4192 39.4841 7.12056 38.4824 8.80894 37.4873L11.5105 35.8681L11.5465 35.6346L11.6517 35.0862C11.726 34.7216 11.8081 34.3591 11.8989 33.9981C11.989 33.6371 12.0877 33.2782 12.1936 32.9215L12.4192 32.2103L11.0853 30.2581C10.5788 29.5036 10.0801 28.7441 9.59296 27.9781C8.87236 26.8446 9.30328 26.7185 10.2732 27.3685C10.7582 27.6935 11.3779 28.213 12.0553 28.8983C12.394 29.2413 12.7478 29.6254 13.1059 30.0477C13.5044 30.5276 13.6716 30.7056 14.5263 31.9126C14.4484 32.1454 14.3692 32.3825 14.2885 32.621L14.073 33.2782L13.9375 33.7329C13.8496 34.0363 13.7675 34.3411 13.6903 34.6473C13.614 34.9536 13.5433 35.2613 13.4778 35.5704L13.3769 36.0778L13.2025 37.0513L8.84641 39.5749L6.90005 40.6933L5.92579 41.2517L5.68222 41.3901C5.608 41.4326 5.657 41.4031 5.63754 41.4131L5.61809 41.4189C5.80112 42.8565 5.98416 44.2949 6.16791 45.7354L6.48642 48.2827C6.57938 49.0494 6.74079 50.3062 6.69828 50.1368L6.7725 50.1621L6.81213 50.175L6.84024 50.1837L6.95986 50.2096L7.91683 50.4193L9.83221 50.8438C10.6155 51.0131 11.4024 51.1846 12.1972 51.3568C13.1247 51.5478 14.06 51.7395 15.0055 51.9348L15.4494 52.8377L15.7261 53.3673C15.9156 53.7197 16.1123 54.0714 16.3148 54.4194C16.518 54.7682 16.727 55.1148 16.9417 55.4549L17.2883 55.9932L17.8821 56.8544C16.7998 59.0335 15.7102 61.2277 14.6293 63.4061L14.2366 64.1765L21.7295 70.3896L26.0632 67.172L28.5904 65.292L29.53 65.6126L30.1577 65.8086L31.4281 66.1718L32.7101 66.4983L33.3507 66.6453L34.2954 66.8326L35.7179 69.9478C36.4371 71.5274 37.157 73.1099 37.8733 74.6837C40.6894 74.3198 45.5751 73.6676 48.374 73.2677L48.3833 73.2086C48.8143 70.3406 49.2401 67.5093 49.6639 64.6924L50.4248 64.3076L50.9192 64.0395C51.2319 63.8644 51.5403 63.6836 51.8444 63.4977C52.1478 63.311 52.4476 63.1179 52.743 62.919L53.1934 62.6077L53.9169 62.091L53.9861 62.1126C55.0108 62.4225 56.0131 62.7259 57.0458 63.0393C60.4615 64.1102 61.5099 64.5714 62.0994 65.2466C62.2334 65.4008 62.4208 65.5716 62.4849 65.7027C62.7026 66.148 61.2231 65.9809 58.6967 65.2754C57.2158 64.856 55.7184 64.4323 54.203 64.0028L54.1381 64.064L53.6906 64.3754C53.3757 64.5886 53.0558 64.7955 52.73 64.9958C52.4043 65.1954 52.0743 65.3885 51.7392 65.5737L51.2672 65.8295L51.2305 65.8584L51.2319 65.9038L51.1627 66.3707L51.0006 67.4401C50.8903 68.1549 50.7801 68.8719 50.6698 69.5904C50.3946 71.3098 50.1186 73.04 49.8411 74.7759C47.6253 75.0843 45.3726 75.3971 43.1186 75.7113C41.0324 75.9944 38.9426 76.2791 36.8449 76.5637C35.5976 73.8391 34.3466 71.1044 33.0949 68.3697L33.0762 68.3639L32.6085 68.2602L31.5607 68.0065C30.8661 67.8307 30.1779 67.6419 29.4861 67.4329L29.4911 67.3897Z" fill="#2E3543"/>
<path id="Fill 12" fill-rule="evenodd" clip-rule="evenodd" d="M11.7052 63.6465L13.7359 59.3063L14.4464 57.7087L14.6518 57.2735L14.7029 57.1647L14.7217 57.1315L14.7548 57.0717L13.4455 54.3204L13.2487 54.2772L12.8358 54.2008L12.01 54.0488C11.1136 53.8852 10.207 53.7519 9.31205 53.6265C8.16124 53.4651 6.99746 53.3584 5.86898 53.0615C5.16639 52.8763 6.23649 51.9936 7.56025 52.1946C8.60658 52.3539 9.65074 52.5247 10.6949 52.7135C11.2152 52.8115 11.7362 52.9095 12.2601 53.0075L13.0419 53.1653L13.4332 53.246L14.1264 53.3779L14.4233 53.999L14.5797 54.3528C14.762 54.765 14.9587 55.1772 15.1627 55.5887C15.4077 56.0686 15.6541 56.5521 15.9013 57.0357C15.6476 57.6064 15.394 58.1778 15.1411 58.7457L13.1154 63.1277L12.317 64.8435L12.7119 65.1922C13.8468 66.1723 14.9768 67.1696 16.124 68.1172C17.0154 68.8544 17.9313 69.5282 18.8356 70.23C19.0359 70.3828 19.2327 70.5334 19.4337 70.6876C20.1651 71.2807 20.3475 71.5286 20.3165 71.8788C20.3093 71.9588 20.3136 72.0474 20.292 72.1151C20.2177 72.3428 19.8063 72.2362 19.237 71.8413C17.5493 70.6703 15.8833 69.3019 14.2273 67.9068C13.1551 66.9894 12.0792 66.0685 11.0019 65.1483L11.68 63.6379L11.7052 63.6465Z" fill="#2E3543"/>
<path id="Fill 14" fill-rule="evenodd" clip-rule="evenodd" d="M3.21495 39.578L6.92608 37.6266L8.21669 36.9154L10.4599 35.7552C10.4917 35.7365 10.5486 35.7321 10.5421 35.6839L10.5846 35.4799C10.6351 35.2537 10.6956 35.0368 10.7612 34.8235C10.8916 34.3976 11.0379 33.9832 11.1899 33.5725C11.342 33.1661 11.4933 32.7589 11.6439 32.3547C11.5099 32.1947 11.378 32.0361 11.2469 31.8783C10.6185 31.126 9.94976 30.4018 9.41867 29.5731C9.08791 29.0557 10.2964 29.0809 11.0091 29.9557L11.7815 30.9178L12.776 32.1831C12.5158 32.836 12.255 33.4896 11.9927 34.1468C11.7902 34.6837 11.5827 35.2364 11.4529 35.7516C11.4256 35.8748 11.4119 36.0117 11.3903 36.1371C11.3658 36.1912 11.4061 36.2885 11.3283 36.3058L11.1517 36.398L10.6214 36.6754L9.8078 37.115C9.2659 37.4133 8.72184 37.7138 8.18066 38.0114L4.58482 39.9218L3.76045 40.3534L3.88079 41.4581C4.02707 42.7148 4.16039 43.9781 4.33477 45.2211C4.47025 46.1882 4.65905 47.1279 4.82551 48.0791L4.93864 48.7038C5.05682 49.4893 5.02439 49.748 4.79164 49.9505C4.73903 49.9959 4.68787 50.0542 4.63238 50.0845C4.44575 50.1854 4.24181 49.8856 4.10922 49.3163C3.71649 47.6287 3.45851 45.8279 3.22359 44.0177C3.05425 42.6241 2.88491 41.2239 2.71484 39.8259L3.19549 39.5622L3.21495 39.578Z" fill="#2E3543"/>
<path id="Fill 16" fill-rule="evenodd" clip-rule="evenodd" d="M25.0321 15.1603C25.1409 14.6177 25.2504 14.0743 25.3592 13.5332C25.3996 13.3357 25.4125 13.1332 25.4558 12.9365C25.6114 12.2418 25.7909 11.5515 25.9624 10.8604C26.038 10.5534 26.0906 10.2407 26.1418 9.92939C26.2059 9.53162 26.2326 9.11582 26.438 8.74831C26.5634 8.52204 27.3755 9.07907 27.2789 9.50279C27.111 10.2782 26.9193 11.0593 26.6484 11.8397C26.4877 12.3074 26.4452 12.8162 26.3508 13.3083C26.2463 13.8488 26.1418 14.3914 26.0366 14.9333C25.9775 15.2677 25.9184 15.6035 25.8593 15.9364L25.7527 16.6325C25.2252 16.8458 25.0141 16.9611 24.7193 17.1355C24.3878 17.338 24.1054 17.6024 23.8236 17.8583C23.7638 17.9159 23.7018 17.9757 23.6435 18.0319C23.4064 18.2337 23.2947 18.2495 23.0756 18.0946C23.0259 18.0593 22.9726 18.0283 22.9279 17.9901C22.7751 17.859 22.7722 17.6471 22.93 17.4453C23.3999 16.853 24.0513 16.4005 24.7539 16.038L24.867 15.9811L24.8706 15.9832H24.8771C24.8771 15.9832 24.8786 15.9861 24.88 15.9789L24.8908 15.9032L24.9139 15.7541L25.0083 15.1581L25.0321 15.1603Z" fill="#2E3543"/>
<path id="Fill 18" fill-rule="evenodd" clip-rule="evenodd" d="M50.8708 66.5297L50.8608 66.1997C50.9962 66.1002 51.1231 66.0325 51.2614 65.9446L51.4675 65.8185L51.5778 65.7464C51.7082 65.6635 51.848 65.554 51.9835 65.4409C52.2566 65.2146 52.5275 64.9653 52.7913 64.7066C52.9988 64.5026 53.1826 64.2756 53.3858 64.0667L53.7122 63.7287L53.9341 63.4866L54.2008 63.1882C54.9091 63.3179 55.1585 63.3893 55.5325 63.4815L56.6026 63.7676C57.0602 63.8937 57.5141 64.0184 57.9681 64.1423C58.546 64.316 59.1679 64.463 59.6702 64.9364C59.828 65.087 59.6291 65.2492 59.3668 65.3601C59.1045 65.4675 58.8004 65.554 58.5165 65.4365C57.5048 65.0135 56.346 64.7001 55.206 64.3318C55.0605 64.2872 54.9127 64.2461 54.7628 64.2115L54.6346 64.1798C54.6101 64.1733 54.5849 64.1668 54.5604 64.1639L54.2981 64.4644C54.1547 64.6287 54.0084 64.7923 53.857 64.9494C53.2834 65.5309 52.6709 66.1643 51.9755 66.6075C51.9251 66.6522 51.835 66.6392 51.8321 66.6926L51.8019 67.6719C51.7694 68.448 51.6722 69.2212 51.5641 69.9865C51.4762 70.5795 51.4221 71.1747 51.2693 71.7671C51.2427 71.8982 51.2081 72.0272 51.1656 72.1569C51.0078 72.6383 50.8485 72.7543 50.584 72.7363C50.5221 72.7313 50.4565 72.7334 50.3988 72.719C50.2043 72.6678 50.1373 72.4207 50.2209 72.1043C50.4327 71.1409 50.6179 70.1263 50.7318 69.0713C50.7685 68.68 50.8081 68.2865 50.8276 67.8916L50.8521 67.2971L50.8571 67.0003L50.8564 66.8259L50.8463 66.5254L50.8708 66.5297Z" fill="#2E3543"/>
<path id="Fill 20" fill-rule="evenodd" clip-rule="evenodd" d="M31.8015 36.2642C30.1261 38.4159 29.5741 41.4331 30.4569 44.0835C30.7689 45.0491 31.2942 45.9319 31.9125 46.7324C32.4493 47.4509 33.1296 48.0555 33.8639 48.5743C34.6004 49.0946 35.4247 49.4974 36.2967 49.7496C38.0305 50.2836 39.9523 50.2497 41.7099 49.6704C43.2729 49.158 44.6795 48.1693 45.6848 46.8967C46.9999 45.2552 47.6088 43.1907 47.7716 41.1312C47.8091 40.492 48.2559 40.5057 48.7106 41.1059C49.1531 41.6882 49.5314 42.9766 49.0925 44.3782C48.3467 46.8261 46.6792 48.9944 44.472 50.298C42.2864 51.6196 39.6389 52.0873 37.1578 51.6268C34.2134 51.0777 31.349 49.3245 29.7961 46.6662C28.9486 45.2228 28.4399 43.5776 28.3671 41.9159C28.295 40.2535 28.6272 38.5816 29.3176 37.0792C29.7615 36.1626 30.33 35.3137 31.0016 34.5556C31.6819 33.804 32.4803 33.1699 33.3371 32.6409C35.963 31.052 39.298 30.7904 42.1213 31.8396C44.3142 32.633 46.2771 34.044 47.6102 36.0105C47.7493 36.231 47.8877 36.4501 48.026 36.6691C48.1514 36.8954 48.2689 37.1282 48.3856 37.3653C48.7913 38.2639 48.9088 38.9189 48.9181 39.3743C48.921 39.8341 48.8036 40.1093 48.5946 40.3306C48.4995 40.4307 48.4036 40.5568 48.302 40.6145C47.941 40.8054 47.6722 40.1021 47.2499 38.9823C46.5927 37.322 45.4614 35.8275 43.9935 34.7466C42.5328 33.6613 40.7414 32.9861 38.9233 32.9198C37.5772 32.8643 36.208 33.1569 34.9787 33.7262C33.7392 34.2911 32.6698 35.2049 31.8383 36.2865L31.8015 36.2642Z" fill="#2E3543"/>
<path id="Fill 22" fill-rule="evenodd" clip-rule="evenodd" d="M34.794 40.3831C34.825 40.1784 34.9756 39.4045 35.4246 38.4482C35.6393 37.9683 35.9434 37.4495 36.3152 36.9335C36.6863 36.4111 37.1836 35.9081 37.6707 35.5089C38.655 34.6975 39.8174 34.0777 40.8911 33.9732C41.4207 33.9098 41.892 33.9437 42.2242 34.0172C42.555 34.0864 42.7459 34.1786 42.7661 34.1757C42.9391 34.2204 43.0227 34.4186 43.0335 34.6535C43.05 35.0145 42.8346 35.3301 42.6155 35.5132C42.4627 35.6407 42.341 35.7366 42.2552 35.7582C41.9281 35.7863 41.6268 35.8994 41.3054 36.0457C41.095 36.1459 40.8875 36.2597 40.6699 36.3894C40.4472 36.4983 40.2253 36.6395 40.0091 36.7887C39.6581 37.0394 39.2481 37.2729 39.0319 37.6685C38.8691 37.969 38.6947 38.1895 38.5124 38.4648C38.3387 38.7336 38.178 39.0233 38.1326 39.3591C38.0476 39.9903 37.8278 40.5661 37.8213 41.1837C37.8163 41.9835 37.8746 42.7618 38.1218 43.4262C38.2018 43.6344 38.3661 43.7995 38.4569 43.9775C38.5138 44.1252 38.5477 44.1518 38.5722 44.2599C38.6277 44.3442 38.6608 44.4437 38.7502 44.5186C38.9447 44.724 39.2726 44.8458 39.5731 44.9841C40.0401 45.1881 40.5776 45.3344 41.0986 45.3473C41.2507 45.3581 41.3948 45.2637 41.5375 45.2738C41.7191 45.2623 41.9122 45.3207 42.0844 45.2839C42.3388 45.2342 42.5564 45.1275 42.7214 45C42.738 44.987 42.7315 44.9373 42.7359 44.9085C42.7315 44.8011 42.8735 44.6044 42.9837 44.4884C43.1041 44.3615 43.2237 44.2462 43.3577 44.1403C43.8067 43.7483 44.1504 43.3001 44.3875 42.8663C44.4977 42.6739 45.4778 41.3544 44.5669 39.3468C44.4682 39.1133 44.3212 38.8402 44.2232 38.6392C44.1764 38.5578 44.1418 38.4879 44.087 38.4345C43.9883 38.3272 43.7865 38.2385 43.5451 38.2155C43.0428 38.1729 42.6177 38.3762 42.5946 38.3913C42.5752 38.4086 42.5514 38.418 42.5312 38.4338C42.4635 38.4864 42.2941 38.4122 42.3921 38.6983C42.4282 38.7984 42.3539 38.7675 42.3121 38.7761C42.2703 38.7804 42.1918 38.743 42.292 38.908C42.3381 38.9822 42.2905 38.9764 42.2415 38.9577C42.1024 38.9051 41.9634 38.8698 41.8798 38.8914C41.794 38.9087 41.74 38.9735 41.8365 39.1141C41.8884 39.1919 41.7695 39.1688 41.7674 39.2171C41.7976 39.4326 41.5505 39.4989 41.8012 39.7172C41.8827 39.7792 41.6924 39.844 41.6369 39.932C41.6167 39.9651 41.562 40.0004 41.6088 40.0328C41.7796 40.1568 41.7702 40.2699 41.7198 40.4313C41.6441 40.6511 41.8293 40.8104 41.9165 40.9682L42.0563 41.1671C42.1068 41.2226 42.1572 41.2708 42.1961 41.3314C42.3107 41.4481 42.4058 41.5814 42.475 41.5584C42.5031 41.5533 42.5463 41.4798 42.5593 41.4906C42.6177 41.482 42.635 41.4157 42.6962 41.3753C42.7294 41.3465 42.8043 41.4272 42.8411 41.4128C43.0904 41.3696 43.5999 40.943 43.6921 40.7419C43.6964 40.7282 43.7152 40.7037 43.7058 40.698L43.7007 40.6864C43.7007 40.6864 43.6957 40.6814 43.7051 40.6828L43.7771 40.7037C43.9818 40.7549 44.1591 40.7614 44.2513 40.7549C44.2744 40.7578 44.3406 40.7426 44.3406 40.7426L44.3479 40.7419L44.3543 40.7398L44.3579 40.7383L44.3601 40.7376H44.3608H44.3615C44.8689 40.5394 43.6712 41.0064 43.7944 40.9588V40.9595C43.8024 40.9603 43.7865 40.9718 43.816 40.9631C43.8795 40.9379 43.9422 40.9084 44.0034 40.876C44.118 40.8212 44.2686 40.6936 44.3219 40.6771C44.688 40.4133 44.6469 40.2829 44.6332 40.4198C44.6289 40.453 44.6303 40.4832 44.6354 40.5084C44.6368 40.5474 44.6375 40.6115 44.6483 40.6562C44.6729 40.7383 44.6974 40.8608 44.7435 40.9567C44.7954 41.0503 44.8213 41.1339 44.8753 41.2002C44.9315 41.2781 44.8782 41.2096 44.8725 41.2125C44.8681 41.2103 44.8328 41.2009 44.8321 41.1945C44.7831 41.1613 44.6664 41.0806 44.5345 41.0158C44.288 40.8781 43.9112 40.8615 43.8831 40.8839C43.8139 40.9098 43.8975 40.8796 43.8939 40.8731C43.9061 40.863 43.9097 40.8551 43.9097 40.8551L43.9104 40.8536C43.9104 40.8536 43.9313 40.8378 43.8478 40.9069C43.7281 41.0049 43.5999 41.0979 43.4514 41.17C43.1567 41.3177 42.774 41.3516 42.4959 41.2298C42.1968 41.1109 42.0217 40.9012 42.0333 40.7945C42.0311 40.4566 42.2588 39.4751 43.1199 38.8136C43.3361 38.6399 43.602 38.4763 43.9407 38.3531C44.1072 38.2911 44.319 38.2551 44.5194 38.2256C44.7478 38.227 44.9769 38.2104 45.2205 38.2846C45.7163 38.3935 46.1609 38.7278 46.4247 39.0579C46.589 39.2373 46.6567 39.3886 46.7561 39.5587C46.8513 39.7143 46.9284 39.9219 46.9903 40.1352C47.2188 41.0013 46.9997 41.7875 46.7496 42.3474C46.4852 42.9153 46.1566 43.3462 45.8323 43.6979C45.1931 44.3954 44.492 44.7586 44.2232 44.8595C43.8917 44.9856 43.5595 45.0555 43.2115 45.1153C42.8439 45.1441 42.4772 45.1672 42.1111 45.098C41.3934 45.0007 40.6648 44.6555 40.1539 44.2181C39.4311 43.6272 38.9166 42.9282 38.5952 42.1694C38.2746 41.3897 38.1701 40.5661 38.1751 39.6985C38.1737 39.0211 38.271 38.2212 38.5578 37.5403C38.6046 37.4415 38.6781 37.3572 38.7408 37.2679C38.8201 37.1569 38.9065 37.051 38.9793 36.9393C39.0903 36.775 39.2063 36.6049 39.3202 36.4363C39.3648 36.3671 39.4232 36.3145 39.4679 36.2475C39.4974 36.2021 39.4881 36.1113 39.5392 36.0933C39.7785 36.0075 39.9745 35.8944 40.1676 35.7784C40.3492 35.6494 40.5286 35.5218 40.7145 35.39C40.7989 35.3309 40.9062 35.3129 40.9891 35.2523C41.7832 34.6931 42.8209 34.1966 43.9342 34.482C44.1482 34.5447 44.332 34.5685 44.5777 34.4842C44.7175 34.4323 44.8732 34.4575 44.9892 34.5353C45.2731 34.7342 45.583 34.8502 45.9015 34.9698C46.2128 35.1132 46.5558 35.2415 46.795 35.5053C47.0573 35.7517 47.2894 36.0046 47.4991 36.2814L47.6562 36.4889L47.7491 36.6453C47.8068 36.7483 47.8587 36.855 47.8997 36.9681C48.0821 37.4206 48.4287 37.822 48.6095 38.3055C48.683 38.5621 48.9641 39.2611 49.1176 40.071C49.266 40.8824 49.2682 41.7709 49.2076 42.1594C49.1464 42.7128 48.9843 43.2482 48.8034 43.7591C48.366 44.9791 47.6569 46.0117 46.8772 46.8613C46.3915 47.3809 45.8856 47.8414 45.3481 48.268C44.6152 48.8286 43.7865 49.1853 42.9686 49.3784C42.6696 49.457 41.5757 49.6263 40.2303 49.3705C38.9022 49.0923 37.2765 48.4625 36.0342 47.0307C35.7301 46.6711 35.4591 46.2675 35.2451 45.8229C35.0578 45.4158 34.9331 45.0504 34.8308 44.67C34.6312 43.9198 34.5656 43.215 34.5605 42.6097C34.5649 41.3977 34.7775 40.5805 34.794 40.3831Z" fill="#2458A4"/>
<path id="Fill 24" fill-rule="evenodd" clip-rule="evenodd" d="M41.2784 40.6026C41.3101 40.5803 41.099 39.6226 40.7171 39.4914C40.5492 39.3826 40.253 39.4424 40.039 39.6341C39.9316 39.7227 39.8509 39.8258 39.7933 39.9C39.7334 39.9728 39.7125 40.0326 39.7082 40.0362C39.6945 40.0859 39.5879 40.0838 39.4185 40.0621C39.1649 40.0283 38.8766 39.9404 38.7311 39.7905C38.6338 39.6896 38.5567 39.5721 38.5704 39.4972C38.623 39.1945 38.7592 38.8926 38.9581 38.618C39.2319 38.2664 39.6434 37.9709 40.1377 37.8362C40.5499 37.7252 40.9808 37.7951 41.3959 37.852C42.074 37.9421 42.453 38.4782 42.8746 38.84C43.3091 39.2082 43.4568 39.7076 43.6694 40.2581C43.9094 41.009 43.7739 41.8802 43.428 42.6095C43.3322 42.848 43.2327 43.0937 43.0727 43.3027C42.8436 43.5665 42.5582 43.7639 42.2577 43.9534C41.9003 44.2107 41.4658 44.4514 40.9261 44.5486C40.5124 44.6099 40.039 44.5897 39.5627 44.4038C39.1022 44.2258 38.6727 43.8893 38.4133 43.529C38.2267 43.3106 38.089 43.1391 37.9989 42.9215C37.8627 42.6189 37.8793 42.3602 37.8404 42.1159C37.7583 41.7512 37.7792 41.3693 37.7496 40.9903C37.7446 40.9542 37.7193 40.9038 37.7064 40.8577C37.6523 40.635 37.653 40.403 37.6862 40.1803C37.7309 39.9612 37.8404 39.7609 37.9276 39.5555C38.2872 38.8551 38.9768 38.2988 39.5612 37.9716C39.6837 37.8866 40.4966 37.5969 41.1048 37.46C41.8283 37.2316 41.7043 37.3462 41.8614 37.2568C41.8585 37.2316 41.9313 37.0932 41.9399 37.0334C41.9529 36.9599 41.9817 36.8835 41.9774 36.8316C41.994 36.7135 41.9911 36.6335 41.9781 36.5715C41.9644 36.4468 41.9227 36.3748 41.9097 36.3661C41.9025 36.3618 41.9003 36.3539 41.8938 36.3481C41.8751 36.3308 41.95 36.2307 41.7245 36.3524C41.6438 36.3978 41.6834 36.3517 41.6863 36.3315C41.6899 36.3135 41.7418 36.2537 41.5984 36.3532C41.535 36.3978 41.5487 36.3676 41.5724 36.333C41.7086 36.1456 41.7937 35.9215 41.5501 36.0714C41.4824 36.1154 41.5299 36.0202 41.4924 36.0231C41.3274 36.0447 41.3152 35.8264 41.0658 35.9705C40.9808 36.0246 41.0125 35.8444 40.9837 35.7745C40.9722 35.7471 40.9693 35.6988 40.9325 35.7219C40.7906 35.812 40.7106 35.7709 40.658 35.6578C40.5859 35.505 40.4058 35.5648 40.2775 35.5345L39.8956 35.4704C39.7262 35.4315 39.5641 35.3479 39.3746 35.3638C39.3162 35.3674 39.2442 35.425 39.1851 35.4221C39.0272 35.4092 38.8586 35.4625 38.6979 35.4675C38.6187 35.4683 38.5516 35.3839 38.4717 35.3695C38.1078 35.2859 37.7323 35.2117 37.3547 35.1706C37.2077 35.1526 37.06 35.2232 36.9151 35.1699C36.6788 35.082 36.4381 35.0409 36.2118 35.1454C36.0526 35.2225 35.876 35.0546 35.7103 35.0186C35.5273 34.9782 35.3435 34.9559 35.2015 34.9444C35.0963 34.9314 34.8801 34.2728 34.7533 33.604C34.6207 32.9375 34.6265 32.245 34.6899 32.245C34.8715 32.2226 35.8522 31.938 36.8344 31.8184C37.8166 31.6836 38.8356 31.6692 39.0308 31.7218C39.5302 31.8349 40.0231 31.9834 40.5211 32.134C40.8626 32.2414 41.2215 32.3055 41.5688 32.4489C41.9212 32.5887 42.2484 32.8128 42.6051 32.9937C42.8861 33.14 43.2133 33.2445 43.5217 33.4239C43.5678 33.4477 43.5973 33.5003 43.6334 33.5406C43.6788 33.5918 43.7155 33.6516 43.7689 33.6934C43.8481 33.7561 43.9396 33.8065 44.0239 33.8779C44.0571 33.9045 44.0866 33.9362 44.127 33.9579C44.1529 33.9723 44.2214 33.9514 44.2243 33.9845C44.2488 34.2922 44.4073 34.4875 44.5752 34.6914C44.6112 34.7404 44.612 34.8111 44.6509 34.8593C45.0177 35.3047 45.4097 35.9381 45.2302 36.5578C45.205 36.6796 45.1784 36.7769 45.2951 36.8915C45.3614 36.9563 45.365 37.0363 45.3203 37.0997C45.0969 37.3966 45.2771 37.7302 45.1661 38.0134C45.1142 38.1367 45.0804 38.2757 45.0292 38.4458C44.9651 38.6389 44.8757 38.8299 44.751 38.9935C44.4923 39.294 44.3453 39.6925 44.0023 39.9303C43.8755 40.0492 43.2688 40.4405 42.925 40.5817C42.5186 40.7712 42.1886 40.8865 42.0495 40.9348C41.8463 41.0047 41.664 41.0299 41.5162 41.084C41.3426 41.1438 41.197 41.2079 41.1451 41.2432C41.1062 41.2728 41.0961 41.267 41.1091 41.2922C41.0997 41.3009 41.1163 41.321 41.1278 41.3282C41.1458 41.3383 41.1386 41.4724 41.1747 41.5394C41.1819 41.5372 41.1639 41.6316 41.1588 41.6136C41.2165 41.5826 40.9642 41.6777 40.8331 41.7793C40.7409 41.8183 40.6529 41.8694 40.5701 41.9761C40.5124 42.0099 40.565 42.0568 40.5744 41.721C40.5614 41.6799 40.5679 41.5747 40.5499 41.5041C40.5391 41.4507 40.5441 41.5228 40.56 41.5012C40.5874 41.507 40.6292 41.5199 40.6818 41.4976C40.9116 41.4572 41.1321 41.2252 41.2114 41.0371C41.2251 40.9867 41.246 40.9391 41.2662 40.8937C41.2662 40.8462 41.2698 40.8022 41.2791 40.7633C41.3065 40.6847 41.2871 40.6228 41.2784 40.6026Z" fill="#2458A4"/>
</g>
</svg>
