<svg width="74" height="57" viewBox="0 0 74 57" fill="none" xmlns="http://www.w3.org/2000/svg">
<g id="Icon">
<path id="Fill 1" fill-rule="evenodd" clip-rule="evenodd" d="M59.486 35.003L53.9235 38.8253C53.2448 39.2871 52.5823 39.7722 51.8977 40.225C50.6843 41.0207 49.4799 41.8123 48.2051 42.5525C48.0438 42.6445 47.8813 42.7353 47.705 42.8231C47.6387 42.8667 47.4935 42.9133 47.3573 42.9599C47.291 42.9892 47.2217 42.9994 47.1506 43.003L47.0981 43.0077L47.0849 43.0089L47.0819 43.0095C47.0813 43.0412 47.0795 43.0179 47.0789 43.0251L47.0724 43.0239L47.0461 43.0203L46.9421 43.0071L46.5759 42.8942C46.4791 42.8578 46.3853 42.81 46.291 42.7676C46.0992 42.6863 45.9289 42.5615 45.7587 42.4462C45.0925 41.9437 44.66 41.2418 44.3798 40.5297C43.8852 39.2536 43.7543 37.9136 43.752 36.6112C43.7543 35.7725 43.8213 34.9331 43.9736 34.1027C44.1439 33.2759 44.3518 32.4455 44.8733 31.6868C45.0424 31.4502 45.2067 31.4036 45.2586 31.4753C45.3243 31.5524 45.3118 31.7214 45.3094 31.9562C45.2849 32.4156 45.2538 33.16 45.0782 34.0286C44.7759 35.5729 44.7138 37.2098 44.9689 38.7392C45.1003 39.4991 45.3226 40.2423 45.7007 40.8415C45.8895 41.1396 46.1099 41.4073 46.3752 41.608C46.512 41.7006 46.647 41.7986 46.8011 41.8649C46.8681 41.9061 46.966 41.9396 47.0216 41.9581C47.0347 41.9664 47.0592 41.985 47.0855 41.9802C47.0867 41.9993 47.3777 41.8571 47.5736 41.7448C47.7869 41.6295 48.0025 41.4975 48.217 41.3684C48.6466 41.1026 49.0749 40.8254 49.5015 40.5392C50.3504 39.9579 51.2035 39.3737 52.0494 38.7942C53.9122 37.5187 55.7713 36.2307 57.6191 34.9283L61.0184 32.5064L63.5705 30.6419L64.8227 29.6902L65.122 29.4483C65.1907 29.3843 65.2516 29.3557 65.2827 29.281C65.3078 29.2069 65.3066 29.1412 65.3078 29.0486C65.306 28.9321 65.2982 28.8096 65.2869 28.6848C65.1059 27.1094 64.745 25.5018 64.7737 23.8266C64.7779 23.4574 64.7904 23.0918 64.8484 22.716C64.9523 22.0182 65.1357 21.5666 65.3287 21.2876C65.5145 21.0044 65.683 20.8754 65.864 20.8085C65.9464 20.7774 66.0354 20.7302 66.0988 20.7254C66.318 20.7171 66.1388 21.2279 66.0474 22.1168C65.8467 23.4252 65.9554 24.8362 66.1567 26.2796C66.2529 27.0084 66.3694 27.7295 66.4512 28.5372L66.4739 28.8544C66.4763 28.9715 66.4859 29.0629 66.4704 29.275C66.4536 29.6508 66.284 30.0015 65.993 30.2434L65.7111 30.477L65.4804 30.6604L65.0216 31.0153C63.2067 32.3941 61.3535 33.7048 59.5051 35.0245L59.486 35.003Z" fill="#2458A4"/>
<path id="Fill 3" fill-rule="evenodd" clip-rule="evenodd" d="M6.79174 43.2478C6.18895 43.1875 5.58675 43.1212 4.96007 43.0053L4.48214 42.9049C4.31128 42.8583 4.13086 42.798 3.95761 42.7412C3.86262 42.706 3.72342 42.6253 3.6141 42.5596L3.44443 42.4503L3.35661 42.3631L3.00952 42.0154C2.08651 41.0936 1.39591 39.9095 1.07151 38.6412C0.740544 37.3735 0.741739 36.0544 0.983691 34.8094C1.22684 33.562 1.68744 32.3713 2.35117 31.2906C2.84941 30.5098 3.43368 29.7666 4.22525 29.1716C4.3292 29.0981 4.40627 29.0294 4.561 28.9338C4.72947 28.84 4.92841 28.7952 5.02698 28.7707C5.26714 28.714 5.48938 28.6751 5.7152 28.6405C6.16266 28.5724 6.61311 28.527 7.06475 28.5067C13.1829 28.297 19.2562 28.4075 25.345 28.567C28.0447 28.6429 30.7599 28.7128 33.4393 28.8245C35.1611 28.8974 36.887 28.9756 38.6129 29.119C39.4756 29.1925 40.3382 29.2779 41.2003 29.4028C42.063 29.5324 42.9203 29.6686 43.7883 29.9691C44.0607 30.0719 44.2537 30.18 44.3702 30.3049C44.4873 30.4274 44.507 30.5271 44.4616 30.5445C44.3612 30.5743 44.0882 30.4865 43.6383 30.4817C42.7398 30.4375 41.0934 30.4596 39.1362 30.3001C35.6659 30.0229 32.1615 29.9118 28.6552 29.806C25.1454 29.729 21.6279 29.6507 18.093 29.5731C15.9787 29.5277 13.8215 29.5348 11.6541 29.5796C10.5704 29.6017 9.48368 29.6328 8.40176 29.677C7.31626 29.7218 6.2469 29.7565 5.28028 29.9805C5.13989 30.0193 5.18948 29.9912 5.06521 30.0827L4.75097 30.3115C4.55801 30.4949 4.3531 30.6687 4.17567 30.8766C3.81901 31.29 3.48745 31.7417 3.22339 32.2357C2.67795 33.2137 2.30457 34.2992 2.14506 35.4074C1.98615 36.5144 2.04947 37.6513 2.39538 38.6967C2.74068 39.7398 3.35841 40.6897 4.20016 41.4245C4.26707 41.5052 4.30351 41.4968 4.34234 41.5225C4.36385 41.5327 4.3752 41.5458 4.40268 41.5589L4.5144 41.5924C4.65838 41.6414 4.81072 41.6868 4.98695 41.7161C5.31672 41.7937 5.67816 41.8332 6.02884 41.8851C6.74335 41.9664 7.46562 42.0303 8.19327 42.0745C9.64617 42.1659 11.108 42.2167 12.5693 42.2525C16.9991 42.3499 21.4612 42.372 25.8683 42.3589C29.2951 42.3481 32.6549 42.2645 36.0524 42.2902C36.8004 42.2985 37.5334 42.2968 38.2897 42.3236C41.091 42.4288 42.005 42.66 42.5505 43.0889C42.6741 43.1893 42.8372 43.2968 42.8988 43.3864C43.0917 43.6977 42.002 43.6583 39.9792 43.6212C36.9814 43.5507 33.876 43.5884 30.7283 43.6057C27.5751 43.62 24.3784 43.6338 21.175 43.6487C18.7932 43.6505 16.4041 43.6397 14.0103 43.5931C11.6135 43.5388 9.22081 43.4838 6.79532 43.2807L6.79174 43.2478Z" fill="#2458A4"/>
<path id="Fill 5" fill-rule="evenodd" clip-rule="evenodd" d="M19.1531 20.1731L15.896 22.3065C15.4987 22.5645 15.1176 22.8477 14.7149 23.098C13.2907 23.9649 11.8641 24.8329 10.441 25.6998C9.81015 26.0947 9.17928 26.4901 8.55379 26.8814C7.75565 27.3928 6.9342 27.9006 6.00523 28.1886C5.71668 28.28 5.67545 28.0733 5.80987 27.7752C5.94728 27.4807 6.23882 27.0756 6.68568 26.7924C8.30527 25.8408 9.91888 24.8222 11.6 23.8532C12.6084 23.2719 13.5954 22.5711 14.5799 21.9259L17.843 19.7776L19.8431 18.4358C20.8533 17.7554 21.8671 17.0719 22.8696 16.3963C23.6426 15.8604 24.3739 15.294 25.135 14.754C25.3023 14.6345 25.4701 14.524 25.647 14.4158C26.3059 14.0215 26.5634 13.9743 26.8274 14.0938C26.8878 14.1219 26.9571 14.1422 27.0031 14.1763C27.1548 14.2862 26.9768 14.5939 26.5497 14.9589C25.9248 15.5145 25.2425 16.0139 24.5406 16.5074C23.8326 16.9984 23.1187 17.4943 22.4018 17.9913C21.3271 18.7238 20.2475 19.4598 19.1698 20.194L19.1531 20.1731Z" fill="#2458A4"/>
<path id="Fill 7" fill-rule="evenodd" clip-rule="evenodd" d="M63.5361 18.4256C62.5641 17.5533 61.2307 17.0007 59.8399 16.6566C58.4443 16.303 56.9735 16.1399 55.4979 16.049C54.4184 15.9899 53.3317 15.9989 52.2438 15.9989C50.3231 15.9983 48.3935 16.0735 46.4585 16.1626C44.5216 16.2444 42.5836 16.3669 40.6158 16.334C38.863 16.3006 37.1245 16.0813 35.4326 15.7521C33.2664 15.3214 31.0906 14.7622 29.1108 13.7538C28.4943 13.4407 28.6215 13.3959 29.2052 13.4927C29.5385 13.5495 29.9448 13.6194 30.3982 13.697C30.8917 13.7735 31.4556 13.8894 32.0572 14.0471C34.1906 14.6027 36.3777 14.9438 38.5577 15.1362C40.7221 15.3614 42.9307 15.2151 45.1913 15.135C47.8863 15.0299 50.6983 14.7497 53.4918 14.7545C55.026 14.7539 56.5679 14.8423 58.1068 15.0508C59.6404 15.2706 61.1865 15.6183 62.6328 16.3125C62.8533 16.423 63.0683 16.5479 63.2858 16.6656C63.4943 16.8024 63.704 16.938 63.9077 17.0832C64.0995 17.2463 64.305 17.3914 64.4836 17.5707L64.7506 17.8407C64.8468 17.9195 64.9544 18.0814 65.0404 18.2171L65.317 18.6347C65.4263 18.7673 65.3749 18.9555 65.3146 19.0947C65.1909 19.3862 64.9072 19.6473 64.6736 19.8546C64.2942 20.176 63.9083 20.4532 63.5182 20.7244C61.147 22.3344 58.6696 23.7258 56.2626 25.1817C54.3891 26.306 52.5849 27.4638 50.7742 28.627C50.3787 28.8868 49.9916 29.1413 49.5937 29.403C48.1133 30.3684 47.6288 30.5745 47.1455 30.5596C47.032 30.556 46.9041 30.5787 46.8109 30.5757C46.6437 30.5865 46.6562 30.3475 46.8689 30.0434C47.0762 29.7429 47.4549 29.366 47.9813 28.9627C51.1499 26.6603 54.6836 24.6536 58.1719 22.5459C59.4653 21.7663 60.7629 20.9855 62.0151 20.1682C62.634 19.7602 63.2631 19.3372 63.7852 18.9029L63.8647 18.8378C63.8706 18.833 63.8796 18.8234 63.873 18.8163C63.8641 18.8049 63.8754 18.8115 63.8479 18.784L63.5176 18.4518L63.5361 18.4256Z" fill="#2458A4"/>
<path id="Fill 9" fill-rule="evenodd" clip-rule="evenodd" d="M12.331 54.7037C15.3168 54.6547 18.3087 54.5669 21.2999 54.4701L24.5725 54.3297C28.4205 54.2114 32.2708 54.1188 36.1235 54.0555C37.8339 54.0167 39.5533 53.9772 41.2505 53.9384C42.342 53.9103 43.4376 53.893 44.5357 53.9402C45.6337 53.9898 46.733 54.0477 47.8442 54.3249C48.5646 54.6224 48.3352 54.7061 47.7617 54.7843C47.1697 54.8955 46.1385 55.0711 44.8995 55.092C40.4715 55.1517 36.0506 55.2121 31.5784 55.2724C28.8978 55.2868 26.1127 55.4588 23.3717 55.5562C20.3584 55.6607 17.3415 55.7575 14.3227 55.831C12.4654 55.8758 10.6056 55.9087 8.74469 55.9134C7.32763 55.8985 5.93147 55.9248 4.47319 55.7348L4.19599 55.6918L3.88832 55.604C3.68162 55.5442 3.546 55.4301 3.37216 55.3453C3.21205 55.2467 3.03283 55.1768 2.89004 55.0532L2.45334 54.6977C2.15403 54.4683 1.94135 54.1559 1.68387 53.8876C1.48792 53.5758 1.25493 53.2818 1.09482 52.9527C0.550577 51.9472 0.239922 50.8522 0.0989326 49.7476C-0.0450439 48.6423 -0.033693 47.5186 0.144933 46.4056C0.240519 45.9181 0.322365 45.436 0.495017 44.9581C0.800893 44.0709 1.14679 43.5345 1.43296 43.1999C1.70119 42.854 1.98198 42.7453 2.21497 42.6903C2.32668 42.6682 2.45334 42.627 2.53817 42.6377C2.68155 42.6563 2.67856 42.8421 2.56565 43.136C2.43362 43.4335 2.24603 43.8565 2.00707 44.3959C1.3541 46.043 1.08407 47.929 1.33498 49.7553C1.54407 51.5685 2.35835 53.378 3.80289 54.2586L4.21212 54.4862C4.27903 54.5233 4.31428 54.5101 4.36506 54.5304L4.43675 54.5531L4.55862 54.5687C4.86987 54.6218 5.23788 54.6428 5.59393 54.6708C6.32517 54.7055 7.06835 54.724 7.81691 54.7276C9.31283 54.7371 10.8207 54.7121 12.3262 54.6744L12.331 54.7037Z" fill="#2458A4"/>
<path id="Fill 11" fill-rule="evenodd" clip-rule="evenodd" d="M48.5769 50.3934C48.4628 49.9119 48.3762 49.422 48.3086 48.9309C48.2883 48.7505 48.2328 48.5773 48.2202 48.3968C48.1712 47.7582 48.2017 47.1196 48.2495 46.4929C48.2877 46.2151 48.2907 45.9361 48.323 45.6625C48.3445 45.3094 48.372 44.951 48.5237 44.6212C48.6109 44.4169 49.2358 44.8231 49.2328 45.1947C49.2101 45.8674 49.2101 46.5144 49.1068 47.1919C49.062 47.5987 49.1558 48.0145 49.2191 48.4225C49.286 48.8736 49.3726 49.3258 49.4879 49.7745C49.5596 50.0505 49.6343 50.3271 49.7275 50.5989C49.8643 51.0111 50.0077 51.4287 50.1983 51.8218C50.3452 52.1283 50.5669 52.3941 50.7341 52.6893C50.773 52.7538 50.819 52.8117 50.8524 52.8798C50.9821 53.1284 50.9116 53.2574 50.7001 53.4181C50.6499 53.4551 50.6027 53.4958 50.5519 53.5274C50.3823 53.6326 50.1738 53.6021 49.9993 53.4575C49.5351 53.0071 49.2484 52.4294 49.0106 51.8146C48.8332 51.3576 48.6838 50.8845 48.5518 50.4024L48.5769 50.3934Z" fill="#2458A4"/>
<path id="Fill 13" fill-rule="evenodd" clip-rule="evenodd" d="M64.0964 43.6914C63.1602 44.4824 62.1888 45.2238 61.2396 45.9885C60.8919 46.2657 60.5675 46.571 60.2186 46.8452C58.9867 47.8136 57.7453 48.7676 56.5403 49.7611C56.0038 50.199 55.4847 50.6638 54.993 51.1382C54.6764 51.4429 54.3729 51.7601 54.0706 52.0707C53.7838 52.3647 53.5007 52.6538 53.205 52.9567C53.1147 53.0499 52.8172 53.0517 52.7115 52.664C52.6207 52.3007 52.7342 51.7398 53.0914 51.3461C54.3639 49.9619 55.7356 48.785 57.2393 47.7216C58.133 47.0823 58.964 46.3051 59.8309 45.6008L62.6949 43.29C63.2827 42.818 63.8706 42.3455 64.4381 41.8562C64.8629 41.4876 65.3067 41.11 65.664 40.7241C65.7339 40.6458 65.7823 40.5962 65.7906 40.5108L65.79 40.3746L65.7865 40.1667C65.7787 39.8895 65.7554 39.6135 65.7243 39.3375C65.6222 38.4832 65.3898 37.6193 65.3372 36.7142C65.3271 36.5159 65.3026 36.3217 65.3073 36.1216C65.3545 35.3802 65.4698 35.1544 65.6945 35.0158C65.747 34.9841 65.7984 34.9417 65.8474 34.925C66.0135 34.8694 66.1282 35.1723 66.2124 35.6861C66.3355 36.4514 66.4323 37.1922 66.5858 37.9688C66.6569 38.3589 66.7352 38.7652 66.7943 39.1911C66.8242 39.4044 66.8481 39.6207 66.8678 39.8393L66.8905 40.1685C66.8988 40.2909 66.8982 40.3423 66.9054 40.595C66.9186 40.9015 66.7125 41.1674 66.5673 41.4057C66.4305 41.57 66.3229 41.6853 66.2052 41.8048C65.9746 42.0426 65.7446 42.2576 65.5134 42.4721C65.0505 42.8975 64.5833 43.3055 64.1173 43.7135L64.0964 43.6914Z" fill="#2458A4"/>
<path id="Fill 15" fill-rule="evenodd" clip-rule="evenodd" d="M13.8678 36.2029C11.5391 38.9086 12.8098 47.6893 12.8098 47.6893C10.3747 48.3035 8.38953 45.6707 8.38953 45.6707C7.11883 40.828 9.10463 36.2029 9.10463 36.2029H13.8678Z" fill="#2458A4"/>
<path id="Fill 17" fill-rule="evenodd" clip-rule="evenodd" d="M66.0768 38.1238C83.3593 40.2494 64.9321 49.4412 54.4434 51.0996L66.1288 41.2954L66.0768 38.1238Z" fill="#2458A4"/>
<path id="Fill 19" fill-rule="evenodd" clip-rule="evenodd" d="M2.53487 36.9592C2.46438 36.3313 2.45124 35.6987 2.56295 35.0845C2.60358 34.8617 2.60716 34.6323 2.68482 34.4178C2.8993 33.6489 3.27268 32.9404 3.7518 32.3299C3.96568 32.061 4.16521 31.7796 4.40239 31.5335C4.68496 31.2019 5.01414 30.8865 5.42336 30.7037C5.55002 30.6446 5.61812 30.7987 5.62051 31C5.62409 31.2073 5.56256 31.4349 5.40903 31.5915C4.8385 32.1291 4.36415 32.7582 3.93342 33.4387C3.65443 33.8419 3.54749 34.3437 3.4298 34.8187C3.34019 35.3492 3.26372 35.8964 3.33541 36.4413C3.34377 36.7806 3.44414 37.1068 3.51403 37.4395L3.77928 38.1702C3.891 38.4044 4.02004 38.632 4.14849 38.856C4.38088 39.1864 4.65091 39.4815 4.93767 39.7563C5.00279 39.816 5.07268 39.8686 5.13422 39.9313C5.36303 40.1643 5.38931 40.2808 5.2758 40.4947C5.24952 40.5437 5.22801 40.5957 5.19754 40.6399C5.09538 40.7892 4.89764 40.788 4.68496 40.6309C4.36714 40.4009 4.05947 40.138 3.80916 39.8095C3.68131 39.6482 3.54151 39.494 3.43159 39.3148L3.11556 38.7664C2.81506 38.2108 2.63882 37.5883 2.51396 36.964L2.53487 36.9592Z" fill="#2458A4"/>
<path id="Fill 21" fill-rule="evenodd" clip-rule="evenodd" d="M3.15703 48.5218C3.15703 48.7626 3.166 49.0045 3.20423 49.2447C3.22275 49.4884 3.2801 49.7256 3.33506 49.964C3.36732 50.1414 3.45694 50.2985 3.50831 50.4688C3.70486 51.0626 3.96235 51.6552 4.34947 52.1589C4.5036 52.399 4.736 52.5687 4.94031 52.7533C5.09086 52.8495 5.24081 52.9427 5.37403 53.0627C5.5204 53.1613 5.66856 53.2563 5.80178 53.3949C5.87287 53.5066 5.82448 53.5944 5.66438 53.6984C5.50726 53.7999 5.242 53.8722 5.00304 53.7892C4.59262 53.6273 4.26583 53.3238 3.9731 53.0126C3.68813 52.6923 3.44021 52.3387 3.26875 51.951C3.0501 51.4975 2.80576 51.0435 2.64684 50.5614C2.55066 50.3003 2.50944 50.0225 2.44074 49.7549C2.39952 49.4807 2.3571 49.207 2.33619 48.9322C2.32006 48.5929 2.30931 48.2548 2.33918 47.916C2.35949 47.4023 2.48913 46.901 2.60622 46.404C2.72152 46.024 2.80874 45.6333 2.98797 45.2599C3.02321 45.1763 3.04831 45.0879 3.10446 45.0144C3.31236 44.7432 3.43244 44.6996 3.64572 44.8005C3.69471 44.8232 3.74608 44.8429 3.78969 44.8716C3.93666 44.969 3.9731 45.1649 3.90261 45.3621C3.68634 45.9344 3.41452 46.4661 3.28966 47.0964C3.20901 47.5582 3.14867 48.0361 3.17794 48.52L3.15703 48.5218Z" fill="#2458A4"/>
<path id="Fill 23" fill-rule="evenodd" clip-rule="evenodd" d="M18.4561 36.5812L15.6829 36.5686C15.3448 36.5686 15.0085 36.5961 14.6709 36.5925C13.4791 36.571 12.2861 36.5274 11.093 36.4844C10.5607 36.4712 10.0296 36.4575 9.50211 36.4444C8.82345 36.4288 8.13463 36.3918 7.45358 36.0829C7.23732 35.9575 7.34904 35.8864 7.54857 35.8344C7.74871 35.7794 8.05936 35.6898 8.43334 35.685C9.75243 35.6946 11.1217 35.703 12.4975 35.7478C13.3226 35.7854 14.1799 35.6946 15.0246 35.6803L17.8163 35.6307L19.5369 35.6044C20.4067 35.5925 21.2795 35.5805 22.1428 35.5686C22.8149 35.5548 23.4744 35.4933 24.1483 35.4837C24.2958 35.4783 24.4428 35.4831 24.5922 35.4915C25.1483 35.5375 25.3264 35.6367 25.4136 35.8702C25.4339 35.9234 25.462 35.9772 25.4704 36.028C25.4948 36.2024 25.2642 36.3082 24.8753 36.3536C23.7175 36.4993 22.4887 36.5507 21.2449 36.5842C20.3183 36.5913 19.3875 36.5985 18.4579 36.6057L18.4561 36.5812Z" fill="#2458A4"/>
<path id="Fill 25" fill-rule="evenodd" clip-rule="evenodd" d="M26.9816 49.9663L24.4498 49.9424C24.1415 49.9418 23.8338 49.9681 23.5256 49.9645C22.4377 49.9346 21.3468 49.9042 20.2601 49.8743C19.7774 49.8641 19.2917 49.8689 18.8114 49.8731C18.1949 49.8958 17.5724 49.8552 16.9582 49.7375C16.7671 49.6999 16.8023 49.5911 16.9714 49.4722C17.141 49.3551 17.4403 49.2148 17.7892 49.1801C18.4093 49.1042 19.0289 49.1234 19.6526 49.1078C20.2763 49.0983 20.9029 49.1018 21.5338 49.1245C22.2889 49.1574 23.0721 49.066 23.8446 49.0523L26.3956 49.0128L27.9679 48.9949C28.7631 48.9877 29.5606 48.9812 30.3498 48.974C30.9646 48.9644 31.568 48.9059 32.1839 48.8975C32.3207 48.8957 32.4539 48.8963 32.5907 48.9059C33.0997 48.9513 33.2622 49.0529 33.3381 49.2793C33.3554 49.3318 33.3805 49.3844 33.3871 49.4352C33.4098 49.6049 33.1905 49.7267 32.8386 49.7662C31.783 49.9119 30.6617 49.9585 29.5266 49.9848C28.6813 49.9872 27.8311 49.989 26.9834 49.9908L26.9816 49.9663Z" fill="#2458A4"/>
<path id="Fill 27" fill-rule="evenodd" clip-rule="evenodd" d="M42.5169 23.8672C41.53 23.8068 40.5461 23.7465 39.5687 23.7304C38.5549 23.7107 37.5608 23.6115 36.5745 23.5135C35.5893 23.4143 34.6108 23.3164 33.637 23.2769C33.1507 23.2572 32.6656 23.2554 32.1859 23.2811C31.9463 23.2967 31.7062 23.3092 31.4708 23.3438L31.2933 23.3654L31.1685 23.3821L31.0418 23.4042C30.9767 23.4155 30.9498 23.4257 30.902 23.437C30.8495 23.4436 30.8817 23.5171 30.9164 23.5326C30.9516 23.5595 30.994 23.5739 31.0353 23.5882C31.0998 23.6067 31.1141 23.6151 31.3238 23.6605C32.0001 23.811 32.714 23.8953 33.4225 23.9825C37.0369 24.4108 40.7038 24.501 44.3552 25.2245L44.4944 25.252L44.5708 25.3685C44.6079 25.424 44.6348 25.4957 44.6455 25.562C44.6557 25.6385 44.6318 25.7502 44.5882 25.8225C44.5595 25.8643 44.523 25.905 44.483 25.9384C44.4412 25.9719 44.4322 25.9713 44.4042 25.9886C44.3068 26.04 44.2524 26.0507 44.1939 26.0663C44.078 26.0955 43.9836 26.1069 43.885 26.12C43.6914 26.1433 43.5074 26.1547 43.3234 26.1636C42.956 26.181 42.594 26.1863 42.2326 26.1869C41.5103 26.1881 40.7922 26.1738 40.0741 26.1559C37.8141 26.0961 35.5421 26.0364 33.2995 25.9772C30.4205 25.9139 27.5279 25.9438 24.6704 25.8076C23.7821 25.7735 23.8956 25.3446 24.6609 24.9646C25.4256 24.5823 26.8444 24.2997 28.5058 24.406C31.15 24.5859 33.7923 24.7657 36.4406 24.9461C37.7597 25.0297 39.0806 25.1134 40.4033 25.1976C41.0634 25.2323 41.7236 25.2639 42.3795 25.2795C42.7069 25.2866 43.0343 25.2908 43.3527 25.2836C43.5116 25.2801 43.6687 25.2729 43.8115 25.2592C43.8826 25.2532 43.9513 25.243 43.9937 25.2347L44.0105 25.2311C44.0152 25.2412 44.0033 25.209 44.0224 25.2538C44.035 25.2836 44.0541 25.3195 44.0577 25.3374C44.0714 25.3816 44.0905 25.424 44.115 25.4641C44.1789 25.5549 44.1873 25.5853 44.2315 25.6045C44.2267 25.608 44.25 25.611 44.2345 25.6098C44.2142 25.611 44.1981 25.6218 44.1891 25.6349L44.173 26.0537C43.6221 25.9151 43.0504 25.8034 42.4745 25.7024C40.7462 25.4025 38.9456 25.2335 37.136 25.062C35.3241 24.884 33.4996 24.7567 31.6811 24.4305C31.4164 24.3774 31.2115 24.3403 30.8955 24.2483C30.5436 24.1539 30.1469 23.9873 29.9474 23.7823C29.8572 23.6748 29.7586 23.5673 29.7598 23.4084C29.755 23.3421 29.7628 23.2345 29.7974 23.1933L29.9677 23.0888C30.0919 23.0242 30.1684 22.9394 30.3327 22.8916L30.8901 22.7751C31.0992 22.7267 31.2097 22.719 31.3376 22.704L31.7199 22.661C31.975 22.6485 32.2307 22.6216 32.4846 22.6228C32.9936 22.6078 33.499 22.6264 34.002 22.652C36.0165 22.7608 37.9796 23.0983 39.96 23.0983C42.4261 23.164 44.8767 23.4078 47.31 23.4209C47.5203 23.4197 47.7311 23.4149 47.9337 23.3982C48.0346 23.391 48.1368 23.3803 48.2228 23.3618C48.2688 23.3552 48.3041 23.3397 48.3232 23.3343C48.3292 23.3427 48.3077 23.3134 48.3375 23.3558C48.3537 23.3767 48.3722 23.397 48.3907 23.4149C48.3925 23.4239 48.3967 23.4323 48.4032 23.4394C48.4008 23.4532 48.4719 23.4645 48.4319 23.4568C48.4122 23.455 48.3973 23.4657 48.3913 23.4783L48.4851 23.1909C48.5263 23.1897 48.5849 23.1843 48.589 23.1825C48.5819 23.1604 48.6046 23.2441 48.6225 23.2829C48.6398 23.3289 48.6297 23.3415 48.6536 23.3648C48.6876 23.3887 48.6607 23.3761 48.6673 23.3857C48.6482 23.394 48.6171 23.4173 48.6058 23.443C48.607 23.4574 48.552 23.5279 48.54 23.5512L48.5383 23.5506C48.5383 23.5506 48.5239 23.5446 48.5179 23.5422C48.4463 23.5141 48.3447 23.4854 48.2509 23.4603L47.6589 23.3194L46.4533 23.0655L44.0332 22.5744C43.2267 22.4035 42.4213 22.2333 41.6178 22.0624L40.4152 21.7834L39.816 21.6323L39.5173 21.5522L39.1224 21.4387C38.7467 21.3282 38.3631 21.1991 38.0895 21.0486C37.8087 20.8939 37.6414 20.7618 37.5064 20.5492C37.4353 20.4285 37.4509 20.205 37.5674 20.122C37.6671 20.0312 37.7759 19.9679 37.9067 19.9165C38.1504 19.8078 38.5107 19.7516 38.9098 19.7241C39.1135 19.7116 39.3172 19.7008 39.5161 19.7032L40.0275 19.7038L40.8967 19.7247C42.0509 19.7659 43.1962 19.8352 44.3426 19.9063C44.9657 19.9422 45.5763 19.9768 46.2042 20.0121C48.5293 20.162 49.2342 20.2355 49.7235 20.6101C49.8346 20.6943 49.9846 20.7756 50.0539 20.861C50.2988 21.1507 49.2928 21.4142 47.571 21.3001C45.9055 21.2033 44.2291 21.0331 42.5372 20.8795C41.6931 20.8048 40.8424 20.729 40.0006 20.6889L39.7414 20.6782L39.675 20.6788L39.6535 20.6854C39.6458 20.6907 39.6296 20.6937 39.6482 20.7069C39.6601 20.7146 39.6756 20.7152 39.681 20.7158C39.6846 20.7164 39.6822 20.7152 39.6888 20.717L39.8805 20.7732L40.5371 20.956C41.4195 21.192 42.3204 21.4035 43.2249 21.6084C44.1867 21.8181 45.1497 22.0289 46.114 22.2392L47.5692 22.5588L48.3059 22.7357C48.4325 22.7691 48.5544 22.8008 48.7019 22.851C48.7354 22.8623 48.7838 22.8815 48.8316 22.9024L48.8901 22.9328L48.9194 22.9496C48.9236 22.9519 48.9397 22.9609 48.9779 22.992C49.0078 23.0171 49.0365 23.0457 49.061 23.0762C49.0819 23.1168 49.1028 23.0941 49.1572 23.2865C49.2038 23.4454 49.095 23.6659 49.0598 23.6898C49.0269 23.7286 48.9869 23.7656 48.9415 23.7949C48.6739 23.9263 48.7037 23.869 48.6332 23.8917L48.5078 23.8988L48.9098 23.1897C48.9624 23.2895 48.9887 23.4317 48.9726 23.5458C48.9541 23.6509 48.8907 23.7662 48.8137 23.8463C48.7473 23.9096 48.727 23.9126 48.678 23.9448C48.6368 23.9687 48.5843 23.9938 48.5663 23.9974C48.4546 24.0374 48.3692 24.053 48.2921 24.0655C48.1368 24.0894 48.0006 24.0978 47.865 24.1061C47.5955 24.1187 47.3375 24.1181 47.0788 24.1157C46.5644 24.1073 46.056 24.0852 45.5494 24.0607L42.5211 23.8839L42.5169 23.8672Z" fill="#2458A4"/>
<path id="Fill 29" fill-rule="evenodd" clip-rule="evenodd" d="M56.5561 31.8098L57.8614 30.9883C58.0191 30.888 58.1643 30.7685 58.3232 30.6699C58.8866 30.324 59.4541 29.9757 60.0157 29.631C60.2642 29.4745 60.502 29.3006 60.735 29.1262C61.0331 28.901 61.3133 28.6489 61.6627 28.4947C61.8808 28.3974 62.0182 29.0844 61.6753 29.3472C61.0635 29.8078 60.4291 30.2368 59.7456 30.6072C59.337 30.8282 58.9618 31.1287 58.5687 31.3904L57.2634 32.2399L56.4617 32.7644C56.0596 33.0333 55.6504 33.2943 55.2645 33.5805C54.9652 33.8039 54.6939 34.0548 54.4102 34.2932C54.3474 34.3458 54.2901 34.4025 54.2244 34.4521C53.9818 34.6355 53.8743 34.6487 53.7112 34.5214C53.6741 34.4928 53.6335 34.4665 53.6013 34.4342C53.4931 34.3237 53.5236 34.1474 53.6783 33.9802C54.1377 33.4855 54.6838 33.0572 55.2561 32.6617C55.6791 32.3654 56.1146 32.0834 56.5447 31.7948L56.5561 31.8098Z" fill="#2458A4"/>
<path id="Fill 31" fill-rule="evenodd" clip-rule="evenodd" d="M59.2255 39.9493C59.5648 39.7707 59.8976 39.5705 60.2238 39.3591C60.3433 39.282 60.4454 39.1822 60.5643 39.1046C60.9831 38.8274 61.3977 38.5376 61.8021 38.2311C61.9844 38.0979 62.1498 37.9438 62.3123 37.792C62.5196 37.5937 62.7114 37.3786 62.9653 37.2287C63.1212 37.1325 63.3005 37.6439 63.0884 37.9073C62.6917 38.3476 62.2855 38.7879 61.7645 39.1046C61.4598 39.3005 61.197 39.5687 60.9018 39.791C60.5798 40.0365 60.2405 40.2623 59.8994 40.4834C59.6849 40.6136 59.4734 40.7468 59.2542 40.8699C58.9292 41.0671 58.5797 41.2272 58.241 41.3962C57.9757 41.5247 57.7314 41.6943 57.4554 41.8102C57.3926 41.8311 57.3359 41.8628 57.2702 41.8748C57.0264 41.9237 56.9356 41.8885 56.8466 41.7368C56.8263 41.7021 56.8024 41.6687 56.7875 41.634C56.7373 41.5175 56.8018 41.3831 56.9374 41.275C57.0396 41.1997 57.1387 41.116 57.2379 41.0336C57.3472 40.9691 57.4524 40.907 57.5569 40.8454C57.7762 40.7212 57.9918 40.5993 58.2093 40.4768C58.5361 40.2922 58.8856 40.1357 59.2136 39.9326L59.2255 39.9493Z" fill="#2458A4"/>
<path id="Fill 33" fill-rule="evenodd" clip-rule="evenodd" d="M26.9366 44.2942L21.4775 44.195L19.4851 44.1849C17.1438 44.1311 14.8032 44.072 12.4613 43.9698C11.4212 43.934 10.3769 43.8981 9.34521 43.8635C8.01895 43.8013 6.68194 43.7924 5.35927 43.5092C4.94765 43.4297 5.03727 43.2744 5.40706 43.1561C5.77925 43.0384 6.41311 42.9632 7.17003 42.996C9.84106 43.1525 12.5414 43.177 15.2596 43.3025C16.8863 43.3855 18.5824 43.3503 20.2486 43.3676L25.7484 43.4297L29.1345 43.471C30.8443 43.4966 32.5619 43.5223 34.2579 43.5474C35.5782 43.5642 36.8728 43.5277 38.1817 43.5528C38.4697 43.5552 38.7528 43.5582 39.0426 43.5606C40.1215 43.6137 40.4614 43.6986 40.6735 43.9405C40.7213 43.9955 40.7864 44.0516 40.8121 44.1054C40.9 44.2876 40.4525 44.4041 39.6723 44.4047C37.3531 44.4226 34.9043 44.4071 32.4418 44.3814C30.6119 44.3593 28.7737 44.3378 26.9384 44.3157L26.9366 44.2942Z" fill="#2458A4"/>
<path id="Fill 35" fill-rule="evenodd" clip-rule="evenodd" d="M59.6085 35.6351L57.0582 37.3676L56.14 38.0157C55.0371 38.7434 53.9325 39.4722 52.8303 40.1987C52.3398 40.5207 51.8577 40.8588 51.3834 41.1958C50.7728 41.6271 50.1742 42.0829 49.5093 42.4342C49.0977 42.6559 49.2506 41.8135 49.9478 41.32C51.1898 40.4442 52.4372 39.575 53.7461 38.7667C54.5287 38.284 55.2875 37.7009 56.0581 37.1632L58.6031 35.3925L60.1635 34.2945C60.9461 33.7335 61.7389 33.1779 62.4976 32.5972C63.0855 32.142 63.6369 31.6635 64.2014 31.1963C64.3251 31.0929 64.4404 30.9854 64.5706 30.888C65.0402 30.5105 65.2523 30.4931 65.4435 30.5248C65.4925 30.5326 65.5492 30.5308 65.591 30.5403C65.7428 30.5511 65.6012 30.8689 65.315 31.2154C64.3837 32.1832 63.282 33.0232 62.1553 33.8458C61.3213 34.4576 60.4676 35.0514 59.6211 35.65L59.6085 35.6351Z" fill="#2458A4"/>
<path id="Fill 37" fill-rule="evenodd" clip-rule="evenodd" d="M20.6736 55.1176C22.7155 55.0925 24.7605 55.0465 26.8054 54.9903L29.0421 54.9007C31.6726 54.8314 34.3065 54.7902 36.9411 54.7585C38.1115 54.7358 39.2872 54.7125 40.4485 54.6898L41.5693 54.6624L42.6936 54.6904C43.4416 54.7048 44.1961 54.7794 44.9393 54.8918C45.4005 54.9963 45.3234 55.1134 44.9172 55.2914C44.5074 55.4748 43.7941 55.6242 42.9421 55.6714C41.4385 55.7425 39.9276 55.715 38.4108 55.7437C36.8939 55.7586 35.3711 55.7765 33.8394 55.767C32.0071 55.761 30.1032 55.8799 28.2291 55.9402L22.0417 56.0979L18.2308 56.1523C16.3059 56.1744 14.3721 56.1559 12.4592 56.1374C10.9716 56.126 9.50974 56.1415 8.02636 56.0525C7.69898 56.0304 7.37757 56.0083 7.0484 55.9856C6.43964 55.939 6.03698 55.7909 5.76635 55.6983C5.49572 55.5901 5.35414 55.4718 5.25915 55.3117C5.21614 55.2389 5.1546 55.163 5.13728 55.0955C5.07873 54.8697 5.60027 54.7878 6.448 54.8738C8.99656 55.0674 11.7411 55.1355 14.4975 55.1594C16.5455 55.1684 18.6101 55.1403 20.67 55.0925L20.6736 55.1176Z" fill="#2458A4"/>
<path id="Fill 40" fill-rule="evenodd" clip-rule="evenodd" d="M36.3934 3.75744C36.3187 3.69113 36.3838 3.59196 36.532 3.47546C36.5792 3.43842 36.7441 3.38764 36.7752 3.40258C36.8361 3.43185 36.8952 3.46113 36.9418 3.49518C36.9687 3.51728 37.2089 3.91874 37.3051 4.04719C37.3941 4.17324 37.461 4.30826 37.5219 4.44566C37.6492 4.72406 37.7884 4.99707 37.9299 5.26949C37.961 5.33043 37.9831 5.39495 37.9992 5.46306C38.05 5.69844 38.1606 5.90634 38.2806 6.11005C38.3009 6.14351 38.3147 6.18174 38.3595 6.20146C38.4306 6.23431 38.7305 6.79887 38.7502 6.88311C38.804 7.08921 38.8279 7.31324 38.8822 7.52114C38.8888 7.55161 38.9103 7.57551 38.8942 7.61553C38.8571 7.70873 38.8954 7.7607 38.9181 7.82224C38.9497 7.90707 38.979 7.9931 38.9999 8.0845C39.0101 8.12931 38.9987 8.18606 38.9951 8.23804C38.9921 8.28583 38.9055 8.31032 38.8894 8.30315C38.8452 8.28225 38.8243 8.33183 38.7944 8.35334C38.7837 8.36051 38.7705 8.37007 38.7604 8.37365C38.746 8.37723 38.3051 8.03372 38.2657 7.99011C38.2615 7.98533 38.1349 7.83717 37.9992 7.67826C37.8547 7.52771 37.7453 7.3455 37.7149 7.31324C37.6856 7.2774 37.6814 7.22841 37.6701 7.18241C37.6516 7.15493 37.3158 6.65191 37.3033 6.63279C37.2513 6.51749 37.1653 6.41772 37.1784 6.26956C37.1808 6.24029 37.1659 6.21878 37.1539 6.19668C37.0488 6.00491 36.983 5.79342 36.9108 5.58612C36.8725 5.48038 36.82 5.38121 36.7757 5.27845C36.768 5.25993 36.7698 5.23664 36.7662 5.21632C36.7614 5.19063 36.7614 5.16315 36.7507 5.13985C36.6407 4.8985 36.5774 4.63803 36.4555 4.40086C36.4257 4.34649 36.4048 4.04301 36.3713 3.98028C36.3522 3.94503 36.4227 3.78373 36.3934 3.75744Z" fill="#2458A4"/>
<path id="Fill 42" fill-rule="evenodd" clip-rule="evenodd" d="M54.3465 8.79821C54.2861 8.90574 54.1535 8.87826 53.9761 8.77252C53.9199 8.73847 53.8172 8.58672 53.8279 8.54729C53.8488 8.46963 53.8715 8.39316 53.9026 8.32804C53.9223 8.28861 54.3674 7.85668 54.515 7.70315C54.6571 7.55439 54.8184 7.43073 54.9821 7.31125L55.9852 6.58181C56.0599 6.52864 56.1399 6.48323 56.2259 6.44619C56.5205 6.31894 56.7839 6.14569 57.0384 5.95751C57.0814 5.92644 57.1292 5.90016 57.1555 5.84759C57.1961 5.75618 57.9381 5.31469 58.0481 5.28064C58.3157 5.18744 58.5983 5.12053 58.8665 5.03391C58.9053 5.02256 58.9388 4.99627 58.9872 5.00882C59.0983 5.0369 59.1688 4.9897 59.2489 4.95804C59.3588 4.91323 59.4729 4.875 59.59 4.84453C59.6479 4.82959 59.716 4.83676 59.78 4.83617C59.8379 4.83617 59.8522 4.92697 59.8409 4.9443C59.8068 4.99388 59.8642 5.0124 59.8851 5.04287C59.8923 5.05303 59.9012 5.06677 59.9036 5.07692C59.906 5.08827 59.78 5.21194 59.6509 5.34337C59.5219 5.4754 59.391 5.61878 59.3606 5.63789C59.354 5.64327 59.1598 5.79621 58.9537 5.9587C58.7584 6.13434 58.5343 6.28131 58.4943 6.32133C58.4501 6.35897 58.391 6.37271 58.336 6.39302C58.3073 6.3984 57.7016 6.88708 57.6735 6.90023C57.5319 6.9767 57.4148 7.09259 57.2386 7.1147C57.2039 7.11888 57.1788 7.14039 57.1525 7.15891C56.9279 7.3214 56.6806 7.44925 56.4392 7.58845C56.3162 7.65894 56.205 7.74855 56.0873 7.82741C56.0658 7.84175 56.0384 7.84653 56.0145 7.85668C55.984 7.86983 55.9517 7.87939 55.9254 7.8985C55.653 8.09625 55.3525 8.25456 55.0956 8.4756C55.0365 8.52579 54.6822 8.66737 54.6159 8.7295C54.5783 8.76296 54.371 8.75519 54.3465 8.79821Z" fill="#2458A4"/>
<path id="Fill 44" fill-rule="evenodd" clip-rule="evenodd" d="M47.9544 4.27827C47.9573 4.37565 47.8343 4.37445 47.6347 4.31412C47.5708 4.295 47.4101 4.18567 47.3994 4.15222C47.379 4.08531 47.3605 4.01959 47.3546 3.96164C47.351 3.92639 47.5123 3.50641 47.5607 3.36005C47.6073 3.21786 47.6801 3.093 47.7578 2.97053L48.222 2.22078C48.2572 2.16582 48.3003 2.11564 48.3504 2.07083C48.5231 1.9167 48.6474 1.7309 48.7543 1.53316C48.7722 1.5003 48.7979 1.47103 48.7913 1.42383C48.7806 1.34557 49.1092 0.834783 49.1719 0.781614C49.3212 0.646598 49.4801 0.51696 49.6385 0.387918C49.6606 0.369399 49.6701 0.339528 49.7137 0.338333C49.8153 0.334749 49.8398 0.279189 49.8816 0.233786C49.9378 0.171058 49.9981 0.110121 50.0674 0.0557569C50.1015 0.0288733 50.1588 0.0181199 50.2084 0.00198976C50.2532 -0.0129456 50.3267 0.0605362 50.3297 0.0778612C50.3356 0.127446 50.3936 0.128641 50.4306 0.149551C50.4432 0.15672 50.4593 0.165681 50.4683 0.173447C50.4826 0.187785 50.4079 0.715898 50.3882 0.765483C50.3858 0.77086 50.3183 0.938733 50.2454 1.11796C50.1737 1.29479 50.0752 1.46386 50.0632 1.50389C50.0483 1.54391 50.0083 1.56781 49.9754 1.59589C49.9599 1.60963 49.7143 2.12042 49.7006 2.13834C49.6295 2.23034 49.5931 2.34683 49.4664 2.4018C49.4419 2.41255 49.4324 2.43465 49.421 2.45497C49.323 2.63001 49.1898 2.78175 49.0649 2.93887C49.0016 3.01952 48.955 3.11093 48.8989 3.19636C48.8887 3.21189 48.869 3.22085 48.8547 3.23399C48.8367 3.24953 48.8152 3.26327 48.8033 3.28358C48.6796 3.49148 48.5129 3.6713 48.4108 3.89413C48.3869 3.94491 48.1664 4.11816 48.1419 4.1791C48.1282 4.21315 47.9532 4.23944 47.9544 4.27827Z" fill="#2458A4"/>
</g>
</svg>
