<svg width="64" height="60" viewBox="0 0 64 60" fill="none" xmlns="http://www.w3.org/2000/svg">
<g id="Black">
<path id="Vector" d="M39.6846 0.230153C39.9221 0.663369 40.2016 4.28282 40.0339 4.56231C39.8383 4.86976 39.0976 4.93963 38.874 4.68809C38.6365 4.39462 38.343 0.593495 38.5247 0.286051C38.7483 -0.0633163 39.5029 -0.105241 39.6846 0.230153Z" fill="#2458A4"/>
<path id="Vector_2" d="M44.5905 0.816965C44.9538 1.18031 44.9538 1.16633 44.4507 2.34021C44.2132 2.88522 43.8918 3.87743 43.738 4.54821C43.5843 5.23298 43.3467 5.88979 43.2349 6.01556C42.7598 6.5466 42.075 6.15531 42.075 5.3867C42.075 4.38052 43.1511 1.20826 43.6402 0.775041C44.0036 0.467597 44.2411 0.467597 44.5905 0.816965Z" fill="#2458A4"/>
<path id="Vector_3" d="M48.81 5.44261C49.1035 5.61031 49.1454 6.30905 48.8799 6.51867C48.796 6.58854 47.9715 7.04971 47.0771 7.52485C45.3582 8.41923 45.0228 8.4891 44.7154 7.91614C44.4219 7.35715 44.7573 7.02176 46.5461 6.12737C48.3069 5.24697 48.4187 5.20504 48.81 5.44261Z" fill="#2458A4"/>
<path id="Vector_4" d="M16.011 6.35106C16.3184 6.37901 17.8557 6.5467 19.4348 6.72837C23.1521 7.13364 28.9376 7.16159 31.0618 6.78428C33.6331 6.33708 36.0507 6.6026 38.3007 7.56686C40.1453 8.36342 40.9419 8.90843 42.4232 10.3898C43.5412 11.4938 43.9604 12.0248 44.4216 12.9332L45.0085 14.0791L45.9588 13.5061C47.9572 12.2763 48.9913 12.0248 49.2708 12.6537C49.4525 13.0589 49.4804 13.0589 50.2351 12.5419C53.7008 10.2221 59.4304 9.46742 62.2254 10.9767C63.5949 11.7174 64.2657 13.1008 63.9024 14.4564C63.567 15.7001 62.4769 17.3911 60.8419 19.1798C58.2007 22.0866 55.7691 24.0431 53.9803 24.7138C52.7505 25.189 51.3111 25.4405 50.4168 25.3706C49.9835 25.3287 49.6202 25.3287 49.6202 25.3706C49.6202 25.4126 49.746 25.5942 49.8997 25.7899C50.7941 26.9218 49.4106 28.3333 45.3579 30.3876L43.4014 31.3798L43.08 32.2043C42.4092 33.9511 40.9559 38.4091 40.6205 39.8065C39.8099 43.1884 39.6422 46.6402 40.1873 49.0578L40.4388 50.1338L41.431 50.2037C41.976 50.2456 43.7788 50.3574 45.4278 50.4413C47.0768 50.5391 48.5441 50.6649 48.6699 50.7208C49.0752 50.9304 49.0892 51.3496 48.7118 52.4816C48.1668 54.1166 47.4681 55.2486 46.1824 56.5762C44.3098 58.5187 42.9263 59.3013 40.6205 59.7624C39.6422 59.9581 37.8954 59.986 27.4004 60C16.5141 60 15.1865 59.9721 14.0406 59.7624C12.0142 59.3711 10.5748 58.868 8.46466 57.792C5.92126 56.4784 5.08278 55.6958 4.0766 53.6136C2.06424 49.477 2.02231 44.8374 3.93685 38.3252C4.23032 37.319 5.0688 34.7756 5.80946 32.6794C8.15721 25.9436 8.7162 23.4421 8.70222 19.6131C8.70222 18.2994 8.64633 17.0557 8.57645 16.8181C8.45068 16.4129 8.43671 16.3989 5.44612 15.7421C3.7971 15.3787 2.34373 15.0853 2.21796 15.0713C2.09219 15.0713 1.96641 15.1971 1.93847 15.3647C1.82667 16.1054 0.834461 16.0635 0.582916 15.3228C0.303421 14.5402 0.247524 13.3105 0.429195 12.3881C0.792538 10.5155 1.85461 9.146 3.54556 8.36342C4.38404 7.97213 7.68207 7.03582 9.72238 6.6026C10.6727 6.40696 14.8791 6.23926 16.011 6.35106ZM10.3512 7.95815C9.932 8.042 8.828 8.30752 7.91964 8.54509L6.25665 8.97831L6.66192 9.2578C6.88551 9.41152 7.47245 9.95654 7.97554 10.4596C10.477 12.9751 11.6649 17.9641 10.9801 23.0508C10.6028 25.9436 10.0159 27.956 7.87772 33.7974C6.38242 37.892 5.64176 40.2397 5.26445 42.0565C4.38404 46.3467 4.66353 49.9941 6.07498 53.0126C7.12309 55.2206 8.52055 56.5902 9.51276 56.3666C10.0438 56.2548 10.7565 55.6678 10.9382 55.1927C11.1478 54.6197 11.0919 53.7673 10.7845 53.0825C10.463 52.3698 10.3792 50.9584 10.6587 50.7487C10.8404 50.595 13.8729 50.3854 19.3649 50.1338C22.7748 49.9801 37.0709 49.9522 38.1609 50.0919C38.9715 50.2037 38.9575 50.2736 38.65 48.6805C38.5103 47.9957 38.4264 46.7799 38.4264 45.5362C38.4264 42.2521 39.0274 39.3733 40.7323 34.4263C41.2493 32.9449 41.5568 31.8409 41.459 31.8829C41.0816 32.0366 39.1112 32.2742 37.5321 32.372L35.8551 32.4838L36.6097 32.7214C37.029 32.8471 37.6439 32.9589 37.9653 32.9589C39.0413 32.9589 39.3348 33.7275 38.4823 34.3005C37.8954 34.6918 35.7852 35.3765 33.9685 35.7678C31.9003 36.215 27.8895 36.229 26.6318 35.7958L25.7933 35.5163L24.4517 36.8299C23.7111 37.5426 22.9984 38.1296 22.8726 38.1296C22.5651 38.1296 22.09 37.6265 22.09 37.319C22.09 37.1793 22.7468 36.4107 23.5574 35.6141C24.7592 34.4263 25.0247 34.1048 25.0247 33.7695C25.0247 32.7493 26.534 29.1019 27.8196 27.0197C28.4066 26.0554 29.4267 24.6579 29.8599 24.2387C30.1394 23.9592 30.6006 23.9592 30.8941 24.2247C31.1037 24.4204 31.1875 24.3365 31.8024 23.4142C32.8785 21.835 35.3101 19.4873 37.1128 18.2994C37.9513 17.7544 38.7758 17.2653 38.9575 17.2234C39.5165 17.0836 39.9357 17.2793 40.1034 17.7544L40.2571 18.2016L41.5568 16.9439C42.2555 16.2452 43.0661 15.5185 43.3316 15.3228L43.8067 14.9455L43.2896 13.9254C42.0599 11.5077 39.5724 9.43947 36.8613 8.58701C35.6874 8.22367 33.675 7.9302 32.9204 8.02802C32.6828 8.05597 31.7465 8.18175 30.8242 8.3215C28.3088 8.67086 23.8229 8.64291 19.9239 8.23764C14.348 7.66468 12.2937 7.60878 10.3512 7.95815ZM2.67912 10.795C2.00834 11.5077 1.54717 13.5341 2.05026 13.5341C2.17603 13.5341 3.55953 13.8136 5.13868 14.1629C6.71782 14.5123 8.04541 14.7638 8.08734 14.7359C8.22709 14.5961 7.15103 12.5698 6.63397 12.0108C6.07498 11.368 5.65574 11.1164 4.56571 10.7251C3.55953 10.3758 3.05644 10.3898 2.67912 10.795ZM57.0268 11.7174C54.4834 12.0527 51.8561 13.1008 50.0394 14.4983C49.5363 14.8896 49.0333 15.1971 48.9075 15.211C48.642 15.211 48.2926 14.8337 48.1668 14.4005C48.1109 14.2328 48.0131 14.0931 47.9572 14.0931C47.7476 14.0931 45.4837 15.5185 44.4915 16.2731C43.9465 16.6923 42.8425 17.7265 42.0319 18.565C41.2214 19.4174 40.4668 20.1022 40.341 20.1022C40.2152 20.1022 39.8379 19.8227 39.5025 19.4733L38.9016 18.8584L37.7277 19.641C36.3163 20.5913 33.8288 23.0369 32.9763 24.2946C32.6409 24.7977 32.0819 25.734 31.7326 26.3908C31.1596 27.4669 31.0618 27.5787 30.6565 27.6206C30.2792 27.6625 30.1534 27.5926 29.9298 27.2293L29.6643 26.7821L28.8538 28.1516C28.0432 29.5211 27.051 31.799 26.6458 33.2105C26.4501 33.9092 26.4501 33.9651 26.6877 34.2027C27.051 34.566 28.6022 34.6918 31.1037 34.594C32.9204 34.5101 33.4235 34.4402 34.8489 34.0629L35.3939 33.9232L34.5694 33.4341C33.5353 32.8052 33.2698 32.5537 33.2698 32.2322C33.2698 31.3518 34.0524 31.0444 36.7635 30.8767C38.7339 30.7369 39.9497 30.4994 41.8503 29.8565C43.667 29.2416 46.2942 27.8582 47.7755 26.7262L48.3904 26.265L47.9293 25.9855C47.6777 25.8318 47.2165 25.6641 46.9091 25.6082C46.1824 25.4964 45.9868 25.3287 45.9868 24.8396C45.9868 24.5741 46.1125 24.3645 46.42 24.1409C47.1606 23.6098 48.055 23.4282 50.4587 23.3303C53.1418 23.2185 53.2955 23.1487 54.8887 21.7512C58.1448 18.8864 61.8341 15.3787 62.1276 14.8756C63.4272 12.6676 61.0515 11.2003 57.0268 11.7174ZM21.7406 51.5453C17.7998 51.685 12.9925 51.9366 12.9086 52.0204C12.8807 52.0484 12.9645 52.3279 13.0763 52.6633C13.1881 52.9847 13.2859 53.7114 13.2859 54.2704C13.2859 55.1088 13.2161 55.4163 12.8667 56.1011C12.6431 56.5482 12.4754 56.9256 12.4894 56.9395C12.5872 57.0094 18.1352 57.4426 20.5528 57.5684C23.6412 57.7361 33.0043 57.6522 37.7417 57.4147C43.3595 57.1212 45.2741 56.2827 46.6855 53.4878C46.9929 52.8589 47.2445 52.272 47.2445 52.1742C47.2445 52.0484 46.406 51.9645 44.1281 51.8248C36.9172 51.4195 28.5603 51.3077 21.7406 51.5453Z" fill="#2458A4"/>
<path id="Vector_5" d="M24.3269 19.2218C24.4387 19.2637 24.83 19.6131 25.1934 20.0044L25.8362 20.731L26.7306 20.7171C27.4154 20.7171 27.8765 20.6053 28.7989 20.214C30.4618 19.5152 31.3981 19.3336 31.8174 19.6131C32.1528 19.8367 32.2506 20.2978 32.027 20.6472C31.9571 20.745 31.6217 20.8848 31.2724 20.9546C30.923 21.0105 30.0566 21.304 29.3439 21.5835C28.3097 22.0027 27.7927 22.1285 26.8983 22.1704C25.5707 22.2403 24.8859 21.9748 24.2291 21.1503C24.0195 20.8848 23.7819 20.6612 23.726 20.6612C23.6562 20.6612 23.3208 20.8568 22.9854 21.1084C22.1189 21.7233 21.2944 21.7792 19.5755 21.304C18.0104 20.8708 16.571 20.8289 15.3552 21.1643C14.5866 21.3879 14.5307 21.3879 14.2651 21.1503C13.8878 20.8009 13.9158 20.2978 14.321 20.0323C14.8521 19.6829 16.6129 19.3755 17.6191 19.4454C18.1222 19.4873 19.1982 19.6969 20.0088 19.9065L21.4901 20.2839L22.4404 19.6969C23.3347 19.1659 23.8099 19.0401 24.3269 19.2218Z" fill="#2458A4"/>
<path id="Vector_6" d="M17.7589 37.1373C18.3459 37.6404 18.5135 37.6544 18.9747 37.2911C19.4219 36.9417 19.7433 36.9417 20.0368 37.2631C20.3722 37.6265 20.3303 37.9199 19.8691 38.437C19.5337 38.8143 19.366 38.8842 18.6533 38.9401C17.9406 38.982 17.7589 38.9401 17.2838 38.6187C16.8645 38.3392 16.6549 38.2693 16.3195 38.3531C15.1177 38.6047 13.2591 38.2833 12.9097 37.7662C12.714 37.4588 12.714 37.4029 12.9376 37.0675C13.1612 36.7181 13.2171 36.7041 13.8879 36.8159C14.7404 36.9557 15.7605 36.9557 16.6409 36.8159C17.2139 36.7181 17.3117 36.7461 17.7589 37.1373Z" fill="#2458A4"/>
<path id="Vector_7" d="M33.746 42.9648C34.2911 43.4959 33.7181 44.2505 32.2228 44.9911C30.2524 45.9554 27.8347 46.0392 23.838 45.2567C20.6517 44.6418 19.2403 44.5859 16.9904 44.9772C14.419 45.4104 13.0076 45.2008 13.0076 44.3902C13.0076 43.7614 13.3569 43.5937 14.4609 43.6775C15.1597 43.7334 15.9003 43.6775 16.7947 43.5098C18.821 43.1185 20.7356 43.1744 23.4886 43.6915C24.7603 43.943 26.3674 44.1946 27.0661 44.2645C29.3021 44.4881 31.2166 44.0828 32.5163 43.0906C33.0473 42.6853 33.4386 42.6434 33.746 42.9648Z" fill="#2458A4"/>
</g>
</svg>
