<svg width="56" height="60" viewBox="0 0 56 60" fill="none" xmlns="http://www.w3.org/2000/svg">
<g id="Icon">
<path id="Fill 1" fill-rule="evenodd" clip-rule="evenodd" d="M16.8008 10.7158C17.2165 9.88446 17.4596 9.68984 17.7259 9.6742C18.5999 9.63431 19.4943 9.58147 20.3855 9.56961C21.1526 9.55937 21.9225 9.64778 22.694 9.65264C24.0214 9.65749 25.3509 9.61867 26.6809 9.58632C27.0739 9.57716 27.467 9.58632 27.86 9.55937C28.2358 9.52432 28.6115 9.4882 28.9878 9.47364C29.0515 9.47095 29.1172 9.43105 29.1776 9.48119C29.3394 9.61705 29.383 10.1281 29.2682 10.5136C29.2423 10.6015 29.2137 10.746 29.1846 10.7487C28.8924 10.773 28.6654 11.4641 28.3554 11.4636C27.7834 11.4231 27.2125 11.6011 26.6394 11.6609C26.4103 11.6857 26.18 11.6776 25.9515 11.648C25.6582 11.6097 25.366 11.5186 25.0732 11.4803C24.6726 11.4291 22.79 11.3989 20.979 11.3336C20.0733 11.3008 19.1854 11.2576 18.5061 11.207C17.83 11.1638 17.3523 11.0916 17.3065 11.0679C17.1636 11.021 17.0181 10.8743 16.8008 10.7158Z" fill="#2458A4"/>
<path id="Fill 3" fill-rule="evenodd" clip-rule="evenodd" d="M18.6699 15.9951C19.0107 15.1519 19.2155 14.9632 19.3988 14.9465C20.0032 14.9168 20.6086 14.8721 21.2222 14.8613C21.75 14.8494 22.2826 14.9384 22.8196 14.9395C23.7437 14.9395 24.6737 14.8958 25.6048 14.8629C25.8803 14.8527 26.1558 14.8613 26.4307 14.836C26.6938 14.8009 26.9574 14.7648 27.2211 14.7518C27.2653 14.7492 27.3117 14.7098 27.3537 14.7599C27.468 14.8963 27.5004 15.4074 27.4211 15.7929C27.4033 15.8802 27.3839 16.0247 27.3634 16.0274C27.1585 16.0512 27.0022 16.7412 26.7855 16.7402C26.3849 16.6992 25.9849 16.876 25.5843 16.9375C25.4236 16.9617 25.263 16.9542 25.1018 16.9251C24.8964 16.8873 24.6909 16.7957 24.4855 16.759C24.2041 16.7084 22.8849 16.6873 21.6023 16.6242C20.9612 16.593 20.3256 16.5445 19.8388 16.4835C19.3519 16.4285 19.0187 16.3541 18.9902 16.332C18.8904 16.283 18.8079 16.1428 18.6699 15.9951Z" fill="#2458A4"/>
<path id="Stroke 5" fill-rule="evenodd" clip-rule="evenodd" d="M1.06282 8.12325C1.16148 7.8057 1.49898 7.62779 1.81652 7.72645C3.39133 8.21328 0.550104 9.7773 1.06282 8.12325Z" stroke="#2458A4" stroke-width="0.95"/>
<path id="Stroke 7" fill-rule="evenodd" clip-rule="evenodd" d="M39.2552 12.9036C39.3539 12.586 39.6914 12.4081 40.0089 12.5062C41.5837 12.9936 38.7425 14.5576 39.2552 12.9036Z" stroke="#2458A4" stroke-width="0.95"/>
<path id="Fill 9" fill-rule="evenodd" clip-rule="evenodd" d="M45.7083 16.3901C45.807 16.0726 46.1445 15.8947 46.462 15.9928C48.0368 16.4802 45.1956 18.0442 45.7083 16.3901Z" fill="#2458A4"/>
<path id="Stroke 11" fill-rule="evenodd" clip-rule="evenodd" d="M18.0988 33.1676C18.253 32.8733 18.617 32.759 18.9119 32.9132C20.3729 33.6771 17.2961 34.702 18.0988 33.1676Z" stroke="#2458A4" stroke-width="0.95"/>
<path id="Fill 13" fill-rule="evenodd" clip-rule="evenodd" d="M5.17893 25.5698C5.33312 25.2749 5.69703 25.1612 5.99194 25.3154C7.45298 26.0793 4.37616 27.1042 5.17893 25.5698Z" fill="#2458A4"/>
<path id="Fill 15" fill-rule="evenodd" clip-rule="evenodd" d="M34.397 36.1337L32.5958 33.348C32.3758 33.0105 32.1289 32.6919 31.917 32.3495C31.1698 31.1424 30.442 29.9229 29.6823 28.7276C29.3459 28.1971 28.975 27.6866 28.6014 27.189C28.1517 26.5285 27.639 25.9134 27.3209 25.1683C27.2153 24.9402 27.3646 24.8534 27.6665 24.8853C27.8185 24.9003 28.011 24.9446 28.2153 25.0206C28.4283 25.0917 28.6305 25.2103 28.7841 25.3883C29.0623 25.6993 29.3335 26.0126 29.5982 26.3301C29.8538 26.6536 30.0743 27.0019 30.3045 27.3426C30.7573 28.0295 31.186 28.733 31.5881 29.4587C32.0685 30.3267 32.7063 31.1338 33.2665 31.9721L35.0887 34.7562C35.4645 35.325 35.8408 35.8949 36.2285 36.4545C36.8161 37.302 37.3994 38.1597 38.0405 38.9533C38.5397 39.569 39.1009 40.1163 39.6557 40.6392C39.7792 40.7513 39.8945 40.8624 40.0061 40.9843C40.1102 41.0856 40.19 41.1848 40.2471 41.2668C40.3037 41.3433 40.3501 41.4059 40.3722 41.4846C40.3943 41.6161 40.4094 41.7633 40.4121 41.8744C40.418 41.9347 40.4504 41.9978 40.4698 42.0507C40.6159 42.2119 40.0072 42.3984 39.5155 42.1191C38.7845 41.7417 38.2621 41.2004 37.7499 40.6451C37.2399 40.0877 36.7714 39.4946 36.3153 38.893C35.6386 37.9985 35.0062 37.0729 34.3706 36.1547L34.397 36.1337Z" fill="#2458A4"/>
<path id="Fill 17" fill-rule="evenodd" clip-rule="evenodd" d="M40.6322 39.0463C40.8252 39.5795 41.0091 40.1181 41.1266 40.7176C41.1859 41.0141 41.2263 41.3381 41.1859 41.7263C41.1649 41.833 41.1519 41.9312 41.1136 42.0428C41.0624 42.1597 41.0004 42.2929 40.9309 42.384C40.7961 42.5474 40.6274 42.7215 40.3842 42.8169C40.1524 42.9178 39.8914 42.9372 39.686 42.9027C39.4688 42.8757 39.2989 42.804 39.1377 42.7318C38.8223 42.5819 38.5776 42.3927 38.3441 42.2045C37.8816 41.8244 37.495 41.4082 37.1246 40.9839C36.5882 40.3628 36.0787 39.732 35.6118 39.0797C33.94 36.8337 32.4131 34.4351 30.9322 32.0607C30.2712 31.0057 29.5865 29.9592 28.8975 28.9376C28.0257 27.6151 27.1329 26.3077 26.3662 24.9135C26.135 24.4725 26.2374 24.4784 26.6083 24.7269C26.99 24.9668 27.6348 25.4602 28.2171 26.1761C29.2355 27.4539 30.1305 28.813 30.9839 30.1932C31.832 31.5701 32.6827 32.9503 33.5389 34.3402C34.5459 35.9991 35.7978 37.6025 36.9537 39.2161C37.5996 40.0738 38.2789 40.9419 39.0703 41.5726C39.4639 41.8848 39.9286 42.0568 40.0645 41.8816C40.2828 41.7829 40.2252 41.2233 40.1044 40.7348C39.7728 39.4927 39.183 38.2645 38.5862 37.0714C37.6637 35.2605 36.6556 33.4716 35.608 31.7367C34.7918 30.3878 33.8925 29.1262 33.0326 27.8259C32.8407 27.5412 32.652 27.2619 32.4584 26.9751C31.7543 25.9022 31.653 25.4817 31.7435 25.0968C31.7662 25.0078 31.777 24.9027 31.8126 24.8369C31.9274 24.617 32.3765 24.9518 32.9809 25.685C34.6969 27.9073 36.2739 30.4088 37.7543 32.9924C38.8175 34.9348 39.8359 36.9102 40.6554 39.0339L40.6322 39.0463Z" fill="#2458A4"/>
<path id="Fill 19" fill-rule="evenodd" clip-rule="evenodd" d="M25.9627 24.3755C27.6712 23.9851 29.301 23.2126 30.6456 22.0707C32.0118 20.952 33.0793 19.4785 33.8125 17.8665C34.3403 16.681 34.6535 15.4065 34.8007 14.1174C34.9064 12.9766 34.8746 11.8256 34.6983 10.6907C34.4869 9.56283 34.129 8.46624 33.6281 7.43218C33.0965 6.41376 32.4156 5.48053 31.6171 4.65027C30.7847 3.85666 29.8509 3.16226 28.8201 2.62691C27.909 2.14438 26.9197 1.81336 25.9185 1.56104C24.9098 1.32706 23.8774 1.22624 22.8536 1.20683C20.2129 1.21654 17.6132 2.01984 15.4292 3.44261C14.7526 3.88524 14.6318 3.60705 15.0507 2.94499C15.448 2.2727 16.5285 1.27746 18.1124 0.738328C20.9024 -0.201917 23.9507 -0.231569 26.7601 0.577667C29.555 1.38259 32.1919 3.09972 33.7904 5.59752C34.7624 7.06288 35.4471 8.74605 35.7717 10.5052C36.0892 12.265 36.0536 14.0948 35.6585 15.8286C35.2239 17.7344 34.3769 19.547 33.1693 21.0851C32.552 21.8405 31.8689 22.5446 31.1039 23.1533C30.3318 23.7517 29.4962 24.2655 28.612 24.6768C26.4258 25.6791 23.962 25.9956 21.6055 25.6775C18.0294 25.2106 14.6561 23.2244 12.6149 20.2711C11.0223 17.9862 10.2217 15.2264 10.3058 12.4553C10.3225 11.8444 10.3743 11.2455 10.4848 10.6373C10.6908 9.50946 10.9727 8.79888 11.2089 8.32606C11.4525 7.85486 11.6714 7.62142 11.914 7.4737C12.0251 7.40684 12.1507 7.31088 12.2408 7.28716C12.5615 7.22031 12.2548 8.06297 11.8617 9.55043C11.2908 11.7609 11.3032 14.1735 11.9901 16.412C12.6537 18.6515 14.0404 20.6786 15.9192 22.123C18.7049 24.2666 22.5004 25.1491 25.9519 24.3491L25.9627 24.3755Z" fill="#2458A4"/>
<path id="Fill 22" fill-rule="evenodd" clip-rule="evenodd" d="M42.2453 33.3241C41.9542 32.7235 41.6231 32.1429 41.2177 31.649C41.0668 31.4722 40.8905 31.325 40.7271 31.18C40.4354 30.9164 40.1432 30.6937 39.8181 30.6209C39.4925 30.533 39.1227 30.5611 38.755 30.698C38.4266 30.8139 38.1263 31.0452 37.8632 31.3013C37.5209 31.6334 37.2675 32.0496 36.888 32.358C36.7774 32.447 36.517 32.275 36.3499 31.9838C36.1828 31.6959 36.1154 31.2878 36.3321 31.0328C36.7095 30.5837 37.1586 30.1756 37.709 29.8607C38.252 29.5502 38.9442 29.3378 39.6429 29.4434C40.0575 29.492 40.4505 29.6359 40.8123 29.8117C40.9848 29.9039 41.1374 30.0117 41.2991 30.1131C41.4463 30.2263 41.5832 30.3476 41.7202 30.4689C42.2874 31.0269 42.6998 31.6663 43.0605 32.3149C43.2831 32.7144 43.4751 33.1257 43.6621 33.536C43.9398 34.1603 44.1646 34.8046 44.404 35.4337C44.5873 35.9243 44.8191 36.3907 44.9986 36.8883C45.0412 36.9967 45.0844 37.1045 45.1167 37.2177C45.2353 37.6372 45.1658 37.8011 44.8676 37.9391C44.7986 37.9714 44.7312 38.0092 44.6601 38.0318C44.4207 38.1073 44.1878 37.9757 44.0659 37.7083C43.6783 36.9104 43.3812 36.0521 43.0464 35.1976C42.7952 34.5652 42.5343 33.9333 42.2194 33.3392L42.2453 33.3241Z" fill="#2458A4"/>
<path id="Fill 24" fill-rule="evenodd" clip-rule="evenodd" d="M47.3936 35.729C47.1806 35.1991 46.9396 34.6799 46.6517 34.1963C46.5434 34.0227 46.4086 33.8674 46.2927 33.7046C45.8986 33.118 45.4247 32.5741 44.8403 32.2996C44.5809 32.1853 44.2974 32.1632 44.0364 32.2134C43.6935 32.2878 43.424 32.5018 43.0466 32.629C42.9274 32.6614 42.7355 32.4166 42.6546 32.1028C42.5716 31.7928 42.618 31.3858 42.9236 31.2365C43.4401 30.9685 44.1097 30.8553 44.7103 30.9928C45.3142 31.1238 45.8042 31.451 46.1676 31.8268C46.6038 32.2738 47.0426 32.6878 47.3801 33.173C47.7456 33.7051 48.0395 34.2664 48.3009 34.8352C48.4643 35.184 48.6018 35.5425 48.7441 35.8967C48.9549 36.4358 49.1215 36.9906 49.3075 37.5324C49.4504 37.9551 49.6439 38.3573 49.7825 38.7962C49.8148 38.8921 49.8515 38.9876 49.8731 39.0895C49.9491 39.4685 49.8644 39.6221 49.5458 39.7068C49.473 39.7267 49.4008 39.7499 49.3275 39.7601C49.0757 39.786 48.8762 39.6669 48.7781 39.4523C48.4832 38.8037 48.2486 38.0775 47.9904 37.3508C47.7985 36.8111 47.6044 36.266 47.3666 35.7425L47.3936 35.729Z" fill="#2458A4"/>
<path id="Fill 26" fill-rule="evenodd" clip-rule="evenodd" d="M53.6597 47.2512C53.5853 46.1466 53.4764 45.0435 53.3076 43.9523C53.2413 43.5555 53.1459 43.1635 53.0677 42.7711C52.8052 41.3871 52.4806 39.9929 51.8671 38.7664C51.5953 38.2305 51.226 37.7307 50.7834 37.4396C50.4988 37.2503 50.1958 37.1867 49.9041 37.1781C49.7531 37.2088 49.6049 37.1948 49.4474 37.2557C49.3693 37.28 49.2884 37.2854 49.207 37.3161C49.1267 37.349 49.0436 37.3797 48.9579 37.4072C48.7493 37.4714 48.5794 37.211 48.6301 36.839C48.6614 36.6589 48.7293 36.4233 48.9094 36.2432C49.0905 36.0643 49.3466 35.8863 49.6949 35.8696C50.2869 35.8082 50.9398 35.9877 51.3872 36.3123C51.6423 36.4562 51.8072 36.6503 52.0089 36.8271C52.1679 37.018 52.342 37.2088 52.4709 37.4094C53.0079 38.21 53.3173 39.0559 53.5448 39.9061C53.8079 40.9224 54.1293 41.9424 54.3244 42.9748C54.5363 44.1086 54.677 45.2484 54.7827 46.3881C54.8442 47.0895 54.8943 47.7914 54.9315 48.4929C54.993 49.5555 55.0037 50.624 55.0312 51.6797C55.055 52.5008 55.1197 53.3084 55.1272 54.13C55.1267 54.3112 55.1439 54.4885 55.1315 54.6718C55.0981 55.3495 54.9784 55.5609 54.6447 55.6606C54.5681 55.6838 54.491 55.7167 54.4155 55.7248C54.16 55.7523 53.9912 55.4617 53.9675 54.9883C53.8834 53.5763 53.8651 52.0937 53.816 50.5965C53.7767 49.4859 53.7292 48.3672 53.63 47.2555L53.6597 47.2512Z" fill="#2458A4"/>
<path id="Fill 28" fill-rule="evenodd" clip-rule="evenodd" d="M38.2283 49.9742C36.9262 48.6005 35.7143 47.1432 34.6517 45.5706C34.2624 44.9986 33.8791 44.4168 33.5524 43.7995C32.9884 42.7089 32.4892 41.5481 32.3803 40.2289C32.328 39.5851 32.4321 38.8136 32.9442 38.2282C33.1874 37.9575 33.5534 37.7117 33.9691 37.6691C34.381 37.6222 34.7476 37.7451 35.0501 37.8928C35.5941 38.1624 36.014 38.529 36.4249 38.8907C36.8281 39.26 37.2104 39.6364 37.57 40.0235C38.0347 40.5173 38.4946 41.009 38.9561 41.4775C39.1879 41.7093 39.4187 41.9368 39.6505 42.1428C39.8796 42.3417 40.1308 42.5293 40.3298 42.5849C40.3896 42.6005 40.4295 42.6183 40.4613 42.6361C40.4953 42.6593 40.525 42.6922 40.5379 42.7321C40.5648 42.7978 40.525 42.9677 40.2942 43.0631C40.0705 43.1607 39.7082 43.1499 39.3631 43.0318C39.017 42.9132 38.6569 42.7197 38.3571 42.4393C37.2988 41.4608 36.4114 40.4165 35.483 39.5312C35.0334 39.1102 34.4845 38.7274 34.161 38.7155C34.0133 38.6983 33.8888 38.7425 33.713 38.9096C33.5653 39.06 33.458 39.2768 33.3982 39.5409C33.2526 40.1879 33.4494 41.0041 33.7394 41.7444C34.0333 42.4975 34.4317 43.2281 34.8581 43.9343C35.8011 45.4886 36.9494 46.94 38.2132 48.2776C38.99 49.1024 39.8079 49.8917 40.6657 50.6352C41.9639 51.7819 43.3214 52.7917 44.7986 53.7578C45.9481 54.5719 46.8899 55.7731 47.2813 57.1592C47.3741 57.4595 47.4539 57.7555 47.5062 58.0623C47.6043 58.631 47.5881 59.002 47.5515 59.2586C47.5299 59.3885 47.4975 59.4877 47.4512 59.5751C47.3946 59.6635 47.3283 59.7336 47.2603 59.7993C47.1978 59.8592 47.1444 59.9368 47.0932 59.9751C46.9509 60.1131 46.5718 59.6662 46.4241 58.899C46.1761 57.7684 45.8327 56.7387 45.2041 55.9009C44.8919 55.4814 44.5097 55.1121 44.0767 54.7854L43.743 54.5482L43.3451 54.2813C43.0772 54.105 42.8136 53.9212 42.5532 53.7325C40.9972 52.624 39.548 51.3603 38.2094 49.9969L38.2283 49.9742Z" fill="#2458A4"/>
<path id="Fill 30" fill-rule="evenodd" clip-rule="evenodd" d="M12.0715 22.2458C13.3007 23.7489 14.9197 24.9625 16.7463 25.7167C17.0735 25.8693 17.425 25.9593 17.7641 26.0806C18.1124 26.1723 18.4596 26.2704 18.8101 26.3529C21.2809 26.94 23.9528 26.7912 26.3412 25.824C27.399 25.397 28.4017 24.804 29.2681 24.0713C30.3992 23.1429 31.3147 21.9989 32.2334 20.857C32.5266 20.5066 32.7466 20.7098 32.7552 21.1999C32.7595 21.4452 32.7099 21.7638 32.5919 22.1169C32.4625 22.4614 32.2447 22.8275 31.9589 23.1828C29.8671 25.6504 26.7935 27.339 23.5571 27.67C21.6335 27.8722 19.5967 27.7988 17.7005 27.236C15.6265 26.6192 13.6915 25.521 12.1518 24.0039C11.2008 23.0766 10.4007 21.9951 9.79794 20.8155C9.34291 19.9221 8.98924 18.9706 8.79084 17.9888C8.72884 17.7457 8.6814 17.5009 8.65282 17.2518C8.61994 17.0044 8.57734 16.7591 8.55147 16.51C8.50672 16.0107 8.49216 15.5099 8.51373 15.0117C8.5795 13.466 8.91107 11.9489 9.56395 10.5423C9.7106 10.2345 9.84862 9.92826 10.0319 9.63551C10.7096 8.547 11.0886 8.31464 11.4822 8.31572C11.5744 8.31733 11.6784 8.30547 11.7523 8.32758C12.0089 8.41222 11.7992 8.88342 11.3539 9.60155C10.0503 11.7403 9.32566 14.389 9.75642 16.9553C10.0244 18.88 10.8563 20.7114 12.0914 22.2258L12.0715 22.2458Z" fill="#2458A4"/>
</g>
</svg>
