<svg width="69" height="60" viewBox="0 0 69 60" fill="none" xmlns="http://www.w3.org/2000/svg">
<g id="Icon">
<g id="Group 3">
<mask id="mask0_696_20907" style="mask-type:luminance" maskUnits="userSpaceOnUse" x="0" y="6" width="65" height="52">
<path id="Clip 2" fill-rule="evenodd" clip-rule="evenodd" d="M0 6.17554H64.2878V57.8594H0V6.17554Z" fill="white"/>
</mask>
<g mask="url(#mask0_696_20907)">
<path id="Fill 1" fill-rule="evenodd" clip-rule="evenodd" d="M45.1043 7.80046C41.3713 7.67707 37.6003 7.71636 33.8415 7.74951C30.0828 7.79678 26.3259 7.90666 22.5794 8.12274C19.8446 8.28112 17.1202 8.54018 14.4137 8.85325C12.03 9.13318 9.65 9.48186 7.35288 10.0503C6.21169 10.3382 5.07419 10.6789 4.07542 11.178C3.57634 11.4242 3.12759 11.7237 2.78996 12.0552L2.59475 12.3124C2.52538 12.4002 2.52538 12.4702 2.47689 12.5635L2.37437 12.9441L2.29211 13.3622C2.08585 14.4978 1.98027 15.7041 1.88634 16.8968C1.79303 18.0939 1.73165 19.2977 1.68315 20.5021C1.58861 22.9122 1.55362 25.3278 1.56283 27.7434C1.58554 32.0307 1.77278 36.3437 2.13864 40.5782C2.3713 43.2989 2.6942 46.0153 3.1147 48.7084C3.53398 51.3996 4.03613 54.0773 4.79242 56.65C5.31298 58.216 4.87591 58.2001 3.99438 56.9545C3.13251 55.7047 2.08708 53.1283 1.56099 49.9656C0.659824 44.3634 0.257123 38.7397 0.0815548 33.1062C-0.0712996 27.4702 -0.0424476 21.8287 0.457859 16.1442C0.547485 15.2909 0.628516 14.4383 0.772162 13.5635C0.843986 13.124 0.919492 12.6881 1.06007 12.205C1.13189 11.9717 1.2694 11.6114 1.44128 11.4211L1.69604 11.0853L1.98088 10.8189C2.75681 10.1362 3.60457 9.75626 4.44558 9.40881C5.2915 9.08346 6.1454 8.82379 7.0042 8.60218C10.4394 7.73539 13.9262 7.30998 17.3823 6.97971C24.9852 6.30322 32.6021 6.18168 40.2043 6.17554C42.5469 6.17922 44.8937 6.21605 47.2418 6.3376C49.5898 6.46713 51.9416 6.65436 54.2823 7.11722C55.1675 7.29954 56.0527 7.52483 56.9232 7.87412C57.3559 8.05706 57.7906 8.25657 58.1976 8.55737C58.6021 8.86676 58.9815 9.2314 59.2264 9.62244C59.7801 10.3935 60.1822 11.2265 60.5168 12.0718C60.8661 12.914 61.1251 13.7777 61.3774 14.6409C62.3167 18.1086 62.8028 21.6366 63.1871 25.1405C63.766 30.5924 64.0889 35.9539 64.2246 41.3664C64.2504 42.558 64.2866 43.7243 64.2878 44.9269C64.2841 49.3836 64.103 50.8017 63.6567 51.7415C63.5536 51.9551 63.448 52.2381 63.348 52.3603C63.0017 52.7716 62.8274 50.957 62.7857 47.7145C62.7181 42.9042 62.5825 37.9644 62.2823 32.9736C61.9704 27.9901 61.5475 22.9238 60.5739 18.0067C60.1994 16.1915 59.7611 14.3781 59.0926 12.72C58.7672 11.8901 58.375 11.0939 57.8937 10.4536C57.7826 10.2713 57.6475 10.1682 57.5284 10.0356C57.4701 9.98769 57.4136 9.93735 57.3584 9.88517L57.1442 9.73846C56.8341 9.54693 56.4646 9.37382 56.0656 9.22772C54.4431 8.65313 52.5739 8.38548 50.7316 8.18597C48.8771 7.99383 46.9968 7.895 45.1122 7.83975L45.1043 7.80046Z" fill="#2458A4"/>
</g>
</g>
<path id="Fill 4" fill-rule="evenodd" clip-rule="evenodd" d="M44.2073 39.6083C43.68 39.3916 43.1422 39.1847 42.6137 39.084C42.2539 39.0042 42.3196 39.0122 42.2263 38.9907C42.1465 38.9692 42.1226 39.0576 42.1005 39.1178C42.0919 39.1577 42.0925 39.1319 42.082 39.2479C42.0716 39.3443 42.0679 39.4474 42.0649 39.5512L42.0495 40.1841C42.0071 41.7077 42.0919 43.2915 42.2306 44.855C42.2963 45.5499 42.4111 46.243 42.5424 46.9213L42.823 48.2227C42.9046 48.6574 42.9574 49.0975 43.0022 49.5328C43.028 49.801 42.7947 49.8464 42.4817 49.685C42.1735 49.5229 41.772 49.1522 41.6051 48.6469C41.1508 46.8323 40.8801 45.0036 40.8187 43.1282C40.8021 42.0048 40.6308 40.8569 40.6658 39.6672C40.6757 39.5008 40.68 39.3388 40.6996 39.1663C40.71 39.0938 40.7119 38.9778 40.7395 38.8458C40.7653 38.7224 40.7806 38.5948 40.8138 38.4763C40.8831 38.2399 40.9679 38.0134 41.1262 37.8477C41.2736 37.6574 41.5062 37.5892 41.7505 37.6169L42.4633 37.6205C42.6695 37.639 42.8033 37.6887 42.9765 37.7212C43.3098 37.7832 43.6155 37.8992 43.9292 37.9975C44.6818 38.2749 45.4086 38.5868 46.0992 38.949C47.1545 39.4849 48.1453 40.1202 49.1385 40.7108C49.9108 41.1693 50.7094 41.5573 51.4884 41.9637C51.6597 42.0521 51.8353 42.1233 52.0028 42.2185C52.3153 42.3848 52.4976 42.5254 52.586 42.6911C52.6781 42.8452 52.6916 43.011 52.6597 43.2326C52.645 43.3339 52.6419 43.4394 52.6173 43.5328C52.5443 43.8415 52.1287 43.9484 51.5774 43.782C50.0391 43.1595 48.6965 42.2209 47.3116 41.3633C46.2895 40.7261 45.2613 40.0969 44.1956 39.642L44.2073 39.6083Z" fill="#2458A4"/>
<path id="Fill 6" fill-rule="evenodd" clip-rule="evenodd" d="M49.8799 46.931C50.6134 47.6517 51.3685 48.3577 52.15 49.0348C52.4342 49.2834 52.7497 49.4903 53.0358 49.7358C54.0444 50.6032 55.0806 51.4412 56.153 52.2257C56.6282 52.5731 57.1365 52.8758 57.646 53.1471C58.301 53.4743 58.9805 53.826 59.5607 54.0593C59.7172 54.1232 59.7516 54.3834 59.4999 54.6272C59.2414 54.8758 58.7147 55.02 58.2519 54.8825C57.4231 54.648 56.7111 54.2625 56.0241 53.8475C55.3348 53.4362 54.6926 52.9605 54.0966 52.424C53.3796 51.7898 52.5429 51.2656 51.7884 50.6554C50.9597 49.9857 50.1573 49.284 49.3704 48.5658C48.8848 48.1256 48.4133 47.6683 47.9406 47.2146C47.2261 46.5234 46.5453 45.7929 45.8559 45.079C45.3231 44.5203 44.7467 44.0133 44.2335 43.3963C44.1174 43.265 44.0002 43.1305 43.8989 42.9777C43.7988 42.8426 43.7362 42.7113 43.7055 42.5885C43.673 42.4682 43.646 42.373 43.6619 42.2772C43.716 42.0698 43.8056 41.9378 43.9363 41.8168C43.9971 41.7622 44.0499 41.7014 44.1076 41.6646C44.2058 41.602 44.3231 41.6167 44.4766 41.6652C44.6239 41.718 44.8412 41.7769 44.9763 41.9267C45.808 42.7892 46.7197 43.7794 47.689 44.7493C48.4053 45.4731 49.142 46.1999 49.9044 46.9009L49.8799 46.931Z" fill="#2458A4"/>
<path id="Fill 8" fill-rule="evenodd" clip-rule="evenodd" d="M35.0015 40.1382C35.1568 40.1271 35.1936 40.3745 35.061 40.6538C35.0199 40.7447 34.8136 40.9558 34.7657 40.9743C34.673 41.0105 34.584 41.0455 34.5196 41.0706C34.4797 41.078 33.8983 40.9681 33.6608 40.9669C33.4496 40.9558 33.2482 40.9067 33.0536 40.8466C32.6515 40.7324 32.2538 40.5973 31.8455 40.4887C31.7553 40.4629 31.6712 40.4187 31.5902 40.3635C31.3139 40.1676 31.0015 40.078 30.681 40.0295C30.6282 40.0203 30.5767 39.9994 30.5128 40.0424C30.4066 40.1075 29.565 39.9301 29.4662 39.8748C29.2157 39.7244 28.9609 39.593 28.7031 39.458C28.6657 39.4377 28.6227 39.4519 28.5957 39.3819C28.5325 39.2186 28.4447 39.2345 28.3618 39.21C28.2464 39.1609 28.1334 39.1437 28.0205 39.0516C27.9646 39.0099 27.9088 38.919 27.8498 38.8521C27.7964 38.7907 27.8253 38.6256 27.8455 38.6035C27.9026 38.5482 27.8572 38.4604 27.8517 38.388C27.8498 38.3635 27.848 38.3309 27.8511 38.31C27.8535 38.2996 28.0457 38.14 28.2642 38.024C28.4772 37.9123 28.7056 37.8331 28.7485 37.8355C28.759 37.8349 29.0493 37.8288 29.3575 37.8226C29.6595 37.8257 29.972 37.8595 30.0371 37.8552C30.1046 37.8539 30.1617 37.9055 30.2212 37.9417C30.2513 37.9522 31.139 38.0399 31.1721 38.0559C31.3434 38.1222 31.5355 38.1161 31.6724 38.2972C31.6994 38.3328 31.7369 38.3364 31.7725 38.3444C32.0776 38.4126 32.36 38.5562 32.6442 38.6894C32.7897 38.7545 32.9456 38.7919 33.096 38.8466C33.1224 38.8564 33.1433 38.8852 33.1672 38.9037C33.1973 38.9264 33.2249 38.9558 33.2599 38.9669C33.6215 39.0811 33.9352 39.3156 34.3072 39.4304C34.3925 39.4568 34.7111 39.7926 34.8124 39.8312C34.8695 39.8466 34.9401 40.1406 35.0015 40.1382Z" fill="#2458A4"/>
<path id="Fill 10" fill-rule="evenodd" clip-rule="evenodd" d="M39.0734 34.8507C39.2134 34.8605 39.1102 34.979 39.0519 35.3197C39.031 35.4247 38.9144 35.7064 38.8543 35.723C38.7425 35.7574 38.6075 35.7764 38.489 35.7678C38.4184 35.7697 37.7499 35.4112 37.5571 35.2988C37.3466 35.1895 37.1827 35.0422 37.028 34.8875C36.7131 34.5732 36.4 34.2651 36.0992 33.944C36.0329 33.8728 35.9819 33.7893 35.9439 33.6954C35.8088 33.3786 35.6173 33.1091 35.3877 32.8654C35.3503 32.8243 35.3245 32.7727 35.2447 32.7647C35.1115 32.7555 34.5713 32.0183 34.5455 31.8875C34.5099 31.731 34.4638 31.5843 34.4196 31.4351C34.3865 31.2767 34.3539 31.1233 34.3196 30.9624C34.3104 30.9182 34.2717 30.8832 34.3122 30.8132C34.4074 30.6506 34.3423 30.5806 34.3128 30.4885C34.2729 30.3535 34.2471 30.2049 34.276 30.0404C34.2993 29.9379 34.3619 29.8366 34.4202 29.7555C34.4724 29.6837 34.6019 29.7052 34.6302 29.7175C34.6959 29.7598 34.7585 29.7046 34.815 29.6935C34.8352 29.6892 34.861 29.6837 34.88 29.6831C34.9132 29.6997 35.0949 29.7285 35.3005 29.8114C35.4651 29.8826 35.6676 29.9857 35.6793 30.0091C35.6793 30.0091 35.8463 30.1883 36.0323 30.3657C36.2085 30.5536 36.3846 30.7568 36.4307 30.7918C36.4773 30.8292 36.4786 30.8986 36.4927 30.9593C36.4957 30.9894 37.0654 31.5407 37.0814 31.5671C37.1636 31.7083 37.3128 31.7991 37.2956 32.0158C37.2932 32.0588 37.3196 32.0797 37.3417 32.1042C37.5264 32.3142 37.6419 32.5806 37.7861 32.8243C37.8592 32.9495 37.9598 33.0539 38.0464 33.1662C38.0624 33.1871 38.0624 33.2202 38.0716 33.2466C38.0826 33.2792 38.0888 33.3166 38.1096 33.3412C38.3294 33.5965 38.4908 33.9084 38.7511 34.1122C38.8082 34.1656 38.942 34.5272 39.0163 34.5702C39.0562 34.6021 39.0182 34.8476 39.0734 34.8507Z" fill="#2458A4"/>
<path id="Fill 12" fill-rule="evenodd" clip-rule="evenodd" d="M45.3483 33.4126C45.4391 33.466 45.2893 33.5072 45.0168 33.6913C44.9308 33.7472 44.6564 33.8638 44.6049 33.8423C44.5054 33.8043 44.4047 33.7496 44.3255 33.6778C44.2924 33.6471 44.2261 33.4771 44.1561 33.2622C44.1003 33.067 44.0481 32.8399 44.0272 32.7361C43.9738 32.5188 43.9898 32.3224 44.0119 32.1235C44.072 31.7318 44.1457 31.35 44.2451 30.9829C44.2672 30.9007 44.3047 30.8233 44.3587 30.7527C44.5453 30.5115 44.6411 30.2457 44.7123 29.967C44.7233 29.9203 44.7491 29.8779 44.716 29.8147C44.654 29.7097 44.9492 28.9805 45.0382 28.9086C45.2402 28.7251 45.4121 28.528 45.6085 28.3469C45.6355 28.3212 45.6349 28.2757 45.7104 28.2806C45.886 28.2929 45.8995 28.2125 45.9517 28.1523C46.0309 28.075 46.1248 28.0032 46.2353 27.9479C46.2906 27.9197 46.3918 27.9258 46.4759 27.9234C46.5521 27.9209 46.7068 28.0639 46.7178 28.0903C46.7479 28.1671 46.8504 28.1947 46.9235 28.2426C46.9486 28.2585 46.9812 28.28 46.9996 28.296C47.0198 28.3132 47.0407 28.4961 47.0732 28.6784C47.1181 28.8724 47.1242 29.0418 47.1076 29.0646C47.1076 29.0646 47.0333 29.2555 46.9634 29.4495C46.8983 29.6496 46.832 29.8571 46.8277 29.9043C46.8216 29.9528 46.7688 29.9798 46.7289 30.0124C46.7055 30.0271 46.5674 30.6508 46.5582 30.6729C46.4937 30.7871 46.498 30.9271 46.3262 31.0019C46.293 31.0173 46.2906 31.0443 46.2838 31.0701C46.2255 31.2874 46.1052 31.4814 46.0063 31.6858C45.9554 31.7895 45.9449 31.9031 45.9112 32.0112C45.9057 32.0308 45.8811 32.0455 45.867 32.0633C45.8486 32.0848 45.8252 32.1057 45.8216 32.1302C45.7767 32.3887 45.6325 32.6342 45.657 32.881C45.6527 32.9406 45.4864 33.1806 45.5036 33.2438C45.5146 33.2678 45.312 33.3838 45.3483 33.4126Z" fill="#2458A4"/>
<path id="Fill 14" fill-rule="evenodd" clip-rule="evenodd" d="M11.1162 16.9582C11.5127 17.0545 11.8718 17.3191 12.0351 17.7556C12.7472 19.6629 9.52561 19.7752 9.54402 18.0742C9.55446 17.162 10.3961 16.7832 11.1162 16.9582Z" fill="#2458A4"/>
<path id="Fill 16" fill-rule="evenodd" clip-rule="evenodd" d="M16.0126 16.4336C16.4092 16.53 16.7683 16.7946 16.9316 17.2311C17.6437 19.139 14.4221 19.2513 14.4405 17.5497C14.4509 16.6374 15.2926 16.2587 16.0126 16.4336Z" fill="#2458A4"/>
<path id="Fill 18" fill-rule="evenodd" clip-rule="evenodd" d="M20.9101 15.9094C21.3067 16.0058 21.6664 16.2704 21.8291 16.7068C22.5412 18.6141 19.3196 18.7265 19.338 17.0254C19.3484 16.1132 20.1906 15.7339 20.9101 15.9094Z" fill="#2458A4"/>
<path id="Fill 20" fill-rule="evenodd" clip-rule="evenodd" d="M36.1371 58.9429C33.6006 59.0252 31.0635 59.0829 28.527 59.124C27.6012 59.1387 26.6767 59.1897 25.7516 59.1934C22.4889 59.2093 19.2268 59.1553 15.9677 59.0866C14.522 59.0571 13.0672 59.0552 11.6338 59.0589C10.7148 59.0687 9.79276 59.0773 8.87195 59.0866C7.96588 59.1019 7.01437 59.0681 6.19608 59.1129C6.09049 59.1271 5.99657 59.1142 5.97386 59.0859C5.93211 59.0559 5.88239 59.0123 5.84985 58.957C5.77312 58.857 5.81179 58.6286 6.05857 58.4156C6.5288 57.9969 7.46987 57.6538 8.53862 57.6476C12.325 57.6519 16.0555 57.7772 19.8449 57.9239C22.1083 58.016 24.4643 57.9208 26.7793 57.8846C29.3256 57.8465 31.8732 57.7919 34.4201 57.7084C35.9874 57.6581 37.5558 57.5997 39.1212 57.523C41.4938 57.4113 43.8775 57.2861 46.228 57.1001C48.0549 56.9484 49.8388 56.7176 51.6387 56.5071C52.0346 56.4586 52.4232 56.4107 52.8222 56.3616C54.3053 56.2081 54.7854 56.2541 55.1365 56.574C55.2163 56.647 55.3195 56.7176 55.3692 56.7937C55.5362 57.0503 54.9499 57.326 53.867 57.5015C50.6546 58.0227 47.2421 58.3321 43.8112 58.5666C41.2636 58.7385 38.7001 58.8637 36.142 58.9754L36.1371 58.9429Z" fill="#2458A4"/>
<path id="Fill 22" fill-rule="evenodd" clip-rule="evenodd" d="M35.1245 59.7435C32.9342 59.8184 30.7433 59.8804 28.553 59.9252L26.1558 59.9854C23.3387 60.0136 20.521 59.9989 17.7058 59.959C16.456 59.9523 15.2006 59.9461 13.9606 59.9394C12.3688 59.9418 10.7684 59.9633 9.18894 59.897C8.19569 59.8639 9.44063 59.064 11.289 59.0787C14.5444 59.1057 17.7813 59.1733 21.0563 59.2512C23.0134 59.3022 25.0508 59.2303 27.0533 59.1929C29.2546 59.153 31.4572 59.0984 33.6592 59.0186C35.0146 58.9787 36.3694 58.9124 37.723 58.851C39.774 58.7503 41.8347 58.6459 43.8673 58.4906C45.4468 58.3648 46.9925 58.2089 48.5505 58.0394C48.893 58.0026 49.2294 57.9658 49.5751 57.9283C50.858 57.8098 51.2712 57.8289 51.5658 58.0155C51.6328 58.0578 51.7193 58.0984 51.7604 58.1432C51.898 58.2948 51.3848 58.471 50.4468 58.5962C47.6647 58.9737 44.7156 59.2168 41.7519 59.4108C39.5511 59.5581 37.3369 59.6601 35.1282 59.7626L35.1245 59.7435Z" fill="#2458A4"/>
<path id="Fill 25" fill-rule="evenodd" clip-rule="evenodd" d="M57.4886 1.37429C57.4585 1.56581 57.3977 1.75734 57.3609 1.94642C57.3468 2.01517 57.3701 2.0827 57.3511 2.15206C57.2854 2.39516 57.2013 2.63702 57.1454 2.87643C57.1209 2.98263 57.1313 3.08883 57.1491 3.19442C57.1718 3.32886 57.2522 3.46452 57.1221 3.59958C57.0423 3.68368 55.9152 3.57686 55.89 3.42524C55.8532 3.15513 55.8839 2.88687 56.0398 2.61185C56.1337 2.44734 56.0687 2.27913 56.0834 2.11277C56.1061 1.93168 56.1288 1.74506 56.1516 1.56152C56.1687 1.44856 56.189 1.33438 56.197 1.22143C56.2099 1.05016 56.2393 0.87582 56.2086 0.708846C56.181 0.579319 56.0975 0.457158 56.0417 0.332542C56.0294 0.304918 56.0042 0.279749 56.0091 0.250283C56.0061 0.19749 56.0429 0.158816 56.127 0.125053C56.2007 0.0931313 56.2927 0.0691903 56.418 0.0440215L56.5813 0.0114862C56.7495 -0.016752 56.9355 0.00841683 57.1104 0.0722597C57.4333 0.283432 57.5156 0.53819 57.5315 0.795402C57.5481 0.986931 57.5279 1.18091 57.5217 1.37244L57.4886 1.37429Z" fill="#2458A4"/>
<path id="Fill 27" fill-rule="evenodd" clip-rule="evenodd" d="M66.2857 6.05109C65.945 6.17693 65.603 6.30216 65.2642 6.42678C65.139 6.47159 65.0291 6.54771 64.9014 6.58823C64.4496 6.72881 63.9904 6.87122 63.5417 7.01057C63.3434 7.07687 63.1525 7.16404 62.9677 7.25612C62.7295 7.37337 62.4993 7.52316 62.2114 7.51947C62.0371 7.52193 61.9345 6.65821 62.1789 6.51272C62.6288 6.26656 63.0868 6.0425 63.6092 5.91174C63.9235 5.83685 64.1844 5.62322 64.4729 5.47528C64.7891 5.30953 65.1236 5.17202 65.4533 5.0204C65.6571 4.9277 65.8615 4.83501 66.0635 4.74293C66.3692 4.59744 66.6847 4.46423 66.9794 4.29725C67.212 4.17571 67.3925 3.95655 67.6245 3.82887C67.6736 3.79817 67.7221 3.76748 67.7786 3.74906C67.9879 3.68522 68.0898 3.74354 68.2439 3.98111C68.2795 4.03513 68.317 4.08669 68.3471 4.14133C68.449 4.32426 68.4447 4.52746 68.3532 4.68829C68.0997 5.2021 67.6994 5.42064 67.2814 5.64777C66.9652 5.80124 66.6307 5.93138 66.3016 6.07933L66.2857 6.05109Z" fill="#2458A4"/>
<path id="Fill 29" fill-rule="evenodd" clip-rule="evenodd" d="M43.3383 11.153C40.1185 11.0468 36.8669 11.0818 33.625 11.1113C30.3831 11.153 27.1431 11.2482 23.9117 11.4354C21.5532 11.5729 19.2033 11.7952 16.8687 12.0659C14.8122 12.3077 12.7594 12.6091 10.7772 13.1002C9.79258 13.3489 8.81038 13.6435 7.94728 14.0757C7.51511 14.2881 7.12653 14.5478 6.8331 14.8363L6.66244 15.0616C6.60228 15.1383 6.60044 15.2009 6.55808 15.2832C6.49731 15.4974 6.44083 15.7233 6.39909 15.9738C6.06698 17.9591 5.96753 20.0659 5.87545 22.134C5.79442 24.2126 5.76434 26.2961 5.77294 28.3796C5.79319 32.0763 5.95464 35.7964 6.26895 39.4483C6.46907 41.7951 6.74715 44.1383 7.10934 46.4612C7.47091 48.7829 7.9043 51.0929 8.55931 53.312C9.0105 54.6638 8.64341 54.6441 7.89448 53.5668C7.16275 52.4857 6.27202 50.2629 5.81898 47.5373C5.04243 42.7086 4.69497 37.8596 4.54212 33.0026C4.40952 28.1432 4.43285 23.2789 4.86072 18.3783C4.93745 17.6429 5.00744 16.9081 5.13021 16.1543C5.1916 15.7761 5.25728 15.4004 5.3776 14.9861C5.4396 14.7859 5.55563 14.479 5.70295 14.3157L5.92088 14.029L6.1652 13.8007C6.83003 13.215 7.55992 12.8872 8.28368 12.5883C9.01173 12.3077 9.74777 12.0849 10.4869 11.8934C13.4482 11.1457 16.4543 10.7798 19.4341 10.4944C25.9884 9.90995 32.5568 9.80375 39.1124 9.79761C41.1327 9.80068 43.156 9.83198 45.1805 9.93634C47.2045 10.0475 49.2327 10.2083 51.2493 10.6073C52.0123 10.7638 52.7754 10.9578 53.5243 11.2586C53.8969 11.4164 54.2708 11.5877 54.6201 11.8461C54.9675 12.1119 55.2935 12.4244 55.5047 12.7614C55.981 13.4244 56.3279 14.142 56.6158 14.87C56.9166 15.5956 57.14 16.3403 57.3573 17.0837C58.1676 20.0726 58.5869 23.115 58.9178 26.1358C59.4163 30.8369 59.6919 35.4606 59.8067 40.1272C59.8288 41.1549 59.8589 42.1604 59.8595 43.1972C59.8564 47.0401 59.7029 48.2629 59.3303 49.0732C59.2438 49.258 59.156 49.5023 59.0719 49.6079C58.7834 49.9627 58.6403 48.398 58.6072 45.6018C58.5532 41.4526 58.439 37.1929 58.1811 32.8878C57.9129 28.5895 57.5489 24.2199 56.7085 19.9769C56.3856 18.4103 56.0074 16.8449 55.4298 15.4121C55.148 14.6951 54.8098 14.0063 54.3917 13.4508C54.2953 13.293 54.1768 13.2028 54.0737 13.0867L53.9239 12.9548L53.7373 12.8265C53.4672 12.6601 53.1462 12.5091 52.8012 12.3826C51.3966 11.886 49.784 11.6558 48.194 11.4839C46.5931 11.3182 44.9706 11.2335 43.3457 11.1856L43.3383 11.153Z" fill="#2458A4"/>
<path id="Fill 31" fill-rule="evenodd" clip-rule="evenodd" d="M35.3981 55.5446L28.9494 55.5741L26.5976 55.6115C23.8334 55.6171 21.0679 55.5459 18.3036 55.5109C17.0764 55.482 15.8438 55.4955 14.6253 55.4814C13.0605 55.4863 11.4841 55.4722 9.92175 55.2457C8.95368 55.1217 10.2397 54.5753 12.0187 54.5195C15.1906 54.5324 18.3736 54.5219 21.5866 54.5931C23.5086 54.6324 25.5086 54.544 27.4742 54.5207L33.9635 54.4354C35.295 54.412 36.6265 54.3887 37.9567 54.3654C39.9727 54.32 41.9985 54.2893 43.9979 54.2052C45.5528 54.1376 47.0746 54.0106 48.6111 53.9105C48.9494 53.889 49.2802 53.8553 49.6222 53.8503C50.8892 53.8362 51.2968 53.9578 51.5749 54.199C51.6381 54.2561 51.721 54.3114 51.7584 54.366C51.8843 54.5477 51.3723 54.7343 50.4515 54.8921C47.7149 55.2727 44.8155 55.3586 41.9052 55.4483C39.7425 55.49 37.57 55.5317 35.4012 55.5729L35.3981 55.5446Z" fill="#2458A4"/>
<path id="Fill 33" fill-rule="evenodd" clip-rule="evenodd" d="M4.2972 38.433C4.17197 36.5054 4.08112 34.5779 4.00438 32.6503C3.97492 31.9468 3.90187 31.2458 3.8859 30.5429C3.83434 28.0616 3.84846 25.5785 3.92703 23.0948C3.96816 21.9922 3.96448 20.8842 3.99395 19.7835C4.04551 18.3698 3.98658 16.9364 4.54827 15.4932C4.73919 15.0352 5.10567 15.2777 5.40892 15.7295C5.69929 16.1696 6.00622 16.8412 5.93072 17.5932C5.70542 20.3164 5.71893 23.1586 5.5231 26.0119C5.41629 27.724 5.56608 29.5024 5.62746 31.2525C5.69315 33.1776 5.77234 35.1058 5.88775 37.0309C5.95589 38.2157 6.03753 39.4011 6.14005 40.5822C6.29965 42.3716 6.43348 44.1745 6.70051 45.9351C6.90862 47.3028 7.21187 48.6294 7.55134 49.9345C7.62378 50.2243 7.71525 50.4974 7.79628 50.7804C7.94177 51.3035 8.03446 51.646 8.0584 51.8823C8.07007 52.1402 8.00377 52.3047 7.92212 52.4852C7.8859 52.5674 7.8681 52.6669 7.83863 52.7295C7.78707 52.8345 7.67412 52.8179 7.43348 52.6785C7.29658 52.6104 7.19284 52.495 7.08357 52.355C6.96202 52.2144 6.8681 52.0297 6.78216 51.8308C6.25852 50.6294 5.9301 49.3839 5.62746 48.1156C5.33526 46.8467 5.09953 45.5533 4.90064 44.2556C4.58633 42.3299 4.41261 40.3814 4.25546 38.4391L4.2972 38.433Z" fill="#2458A4"/>
</g>
</svg>
