<svg width="16" height="17" viewBox="0 0 16 17" fill="none" xmlns="http://www.w3.org/2000/svg">
    <path d="M5 4.75V8H9.79281L8.14656 6.35344C8.05675 6.25891 8.00742 6.13303 8.00909 6.00265C8.01076 5.87227 8.0633 5.7477 8.1555 5.6555C8.2477 5.5633 8.37227 5.51076 8.50265 5.50909C8.63303 5.50742 8.75891 5.55675 8.85344 5.64656L11.3534 8.14656C11.4471 8.24032 11.4998 8.36745 11.4998 8.5C11.4998 8.63255 11.4471 8.75968 11.3534 8.85344L8.85344 11.3534C8.75891 11.4432 8.63303 11.4926 8.50265 11.4909C8.37227 11.4892 8.2477 11.4367 8.1555 11.3445C8.0633 11.2523 8.01076 11.1277 8.00909 10.9973C8.00742 10.867 8.05675 10.7411 8.14656 10.6466L9.79281 9H5V12.25C5.0005 12.714 5.18503 13.1588 5.51311 13.4869C5.84119 13.815 6.28602 13.9995 6.75 14H13.25C13.714 13.9995 14.1588 13.815 14.4869 13.4869C14.815 13.1588 14.9995 12.714 15 12.25V4.75C14.9995 4.28602 14.815 3.84119 14.4869 3.51311C14.1588 3.18503 13.714 3.0005 13.25 3H6.75C6.28602 3.0005 5.84119 3.18503 5.51311 3.51311C5.18503 3.84119 5.0005 4.28602 5 4.75ZM1.5 8C1.36739 8 1.24021 8.05268 1.14645 8.14645C1.05268 8.24021 1 8.36739 1 8.5C1 8.63261 1.05268 8.75979 1.14645 8.85355C1.24021 8.94732 1.36739 9 1.5 9H5V8H1.5Z" fill="#2E3543"/>
</svg>
