<svg width="82" height="25" viewBox="0 0 82 25" fill="none" xmlns="http://www.w3.org/2000/svg">
<path d="M18.407 6.00134V19.9H7.15576V17.9144H13.7741L16.4215 15.2671V6.00134H18.407Z" fill="#2458A4"/>
<path d="M8.1155 2.42789C7.69777 2.54644 7.20665 2.97546 7.12762 3.28594L7.09375 3.42707H6.29214C5.85747 3.42707 5.40022 3.45529 5.28732 3.48352C5.01636 3.56255 4.75668 3.78271 4.6212 4.05367C4.5083 4.26254 4.5083 4.43189 4.5083 10.8221C4.5083 16.5914 4.51959 17.3986 4.59298 17.5793C4.80749 18.093 5.07845 18.2172 5.97038 18.2172H6.64214L6.66472 18.9059C6.6873 19.7188 6.77198 19.9502 7.15584 20.2212L7.39858 20.3905L12.7332 20.4075C16.363 20.4187 18.1355 20.4018 18.2879 20.3623C18.4121 20.3284 18.5984 20.2268 18.7 20.1308C19.1008 19.7865 19.0782 20.2155 19.0613 12.8995L19.0444 6.31735L18.875 6.07461C18.6041 5.69074 18.4234 5.62865 17.6218 5.62865H16.9275V5.03027C16.9275 4.69721 16.8936 4.32463 16.8597 4.1948C16.7694 3.90125 16.4533 3.58513 16.1597 3.49481C15.9904 3.444 15.138 3.42707 12.9985 3.42142H10.0687L9.8429 3.07143C9.66226 2.79482 9.555 2.68756 9.30662 2.56337C8.93404 2.37708 8.48243 2.32628 8.1155 2.42789ZM8.82114 3.2803C9.06388 3.38191 9.23323 3.60206 9.27839 3.87867C9.34613 4.29076 9.18807 4.27383 12.7162 4.27383C15.5783 4.27383 15.8831 4.28512 15.9791 4.36979C16.0751 4.45447 16.0807 4.69721 16.0807 9.67617V14.8866H15.4089C14.2969 14.8866 13.9356 15.0051 13.7098 15.4511C13.6138 15.643 13.5969 15.7898 13.5969 16.5236V17.3704H9.50984C5.83489 17.3704 5.4228 17.3591 5.38893 17.2801C5.372 17.2293 5.35506 14.3108 5.35506 10.7939C5.35506 4.52221 5.35506 4.38673 5.46232 4.33028C5.52441 4.30205 5.89134 4.27383 6.28085 4.27383H6.99213V5.79235C6.99213 6.79153 7.01471 7.37298 7.05988 7.49717C7.16713 7.82458 7.42681 8.14635 7.72599 8.33828C7.96873 8.49635 8.08728 8.53022 8.43727 8.5528C8.95098 8.58667 9.27839 8.47941 9.62274 8.15764C10.0122 7.79636 10.1082 7.49152 10.1421 6.51492C10.159 5.97864 10.1477 5.56655 10.1026 5.38026C9.93322 4.61818 9.05823 4.33028 8.40905 4.8214C8.10986 5.0472 8.0647 5.23349 8.0647 6.18751C8.0647 6.92137 8.07599 7.04556 8.17195 7.15846C8.24534 7.25443 8.33566 7.2883 8.48808 7.2883C8.86065 7.2883 8.91146 7.16411 8.91146 6.24961C8.91146 5.59478 8.92275 5.46494 9.00178 5.43672C9.04694 5.41978 9.13726 5.43107 9.19936 5.45929C9.29533 5.51575 9.30662 5.58349 9.30662 6.23832C9.30097 7.07379 9.25581 7.34475 9.06388 7.53668C8.87759 7.71733 8.44292 7.76813 8.18889 7.63829C7.8389 7.45765 7.83325 7.4012 7.85019 5.40849C7.86712 3.69803 7.87277 3.60207 7.98002 3.48352C8.10421 3.34239 8.37518 3.20691 8.53324 3.20127C8.58969 3.20127 8.71388 3.23514 8.82114 3.2803ZM18.1581 6.54315C18.2089 6.59396 18.2258 8.11248 18.2258 13.035C18.2258 19.3236 18.2258 19.4591 18.1186 19.5155C18.0452 19.555 16.2952 19.572 12.8404 19.572C8.1776 19.572 7.66954 19.5607 7.58487 19.4817C7.51148 19.4083 7.50019 19.2841 7.51148 18.8155L7.52842 18.2454L10.859 18.2285L14.1953 18.2172L15.5614 16.8454L16.9275 15.4737V10.9745V6.47541H17.5089C17.8871 6.47541 18.1129 6.49799 18.1581 6.54315ZM14.9517 16.2696L14.4719 16.7551L14.4549 16.3486C14.4436 16.1228 14.4493 15.9083 14.4662 15.8632C14.4888 15.8124 14.6243 15.7898 14.963 15.7898H15.4315L14.9517 16.2696Z" fill="#2E3543"/>
<path d="M11.6891 5.83758C11.4746 6.02387 11.5254 6.44161 11.7681 6.53193C11.8472 6.5658 12.6036 6.58838 13.4616 6.58838H15.014L15.1495 6.44725C15.3245 6.2779 15.3358 6.01258 15.1778 5.85452C15.0705 5.74726 14.9915 5.74162 13.4334 5.74162C11.9601 5.74162 11.7907 5.75291 11.6891 5.83758Z" fill="#2E3543"/>
<path d="M11.3157 8.18029C11.1125 8.46819 11.2705 8.8069 11.6318 8.87464C11.7334 8.89157 12.552 8.90286 13.4439 8.89157L15.0753 8.87464L15.1826 8.73916C15.3124 8.58109 15.3181 8.34965 15.1995 8.18029C15.1148 8.0561 15.1148 8.0561 13.2576 8.0561C11.4004 8.0561 11.4004 8.0561 11.3157 8.18029Z" fill="#2E3543"/>
<path d="M7.59092 10.4327C7.40463 10.5794 7.3877 10.8786 7.55705 11.048C7.66995 11.1609 7.74334 11.1609 11.3675 11.1609C14.9916 11.1609 15.065 11.1609 15.1779 11.048C15.336 10.8899 15.3247 10.6246 15.1497 10.4553L15.0142 10.3141H11.3788C7.78285 10.3141 7.73769 10.3141 7.59092 10.4327Z" fill="#2E3543"/>
<path d="M7.55705 12.7415C7.3877 12.9108 7.40463 13.21 7.59092 13.3568C7.73769 13.4753 7.78285 13.4753 11.3788 13.4753H15.0142L15.1497 13.3342C15.3247 13.1649 15.336 12.8995 15.1779 12.7415C15.065 12.6286 14.9916 12.6286 11.3675 12.6286C7.74334 12.6286 7.66995 12.6286 7.55705 12.7415Z" fill="#2E3543"/>
<path d="M39.0757 18.179C38.1005 18.179 37.2765 17.9772 36.6039 17.5737C35.9425 17.1701 35.3988 16.5535 34.9728 15.724L37.0579 14.6815C37.2037 15.1747 37.4335 15.5727 37.7473 15.8753C38.0612 16.178 38.5208 16.3293 39.1262 16.3293C39.541 16.3293 39.8941 16.2565 40.1855 16.1107C40.477 15.965 40.7012 15.752 40.8582 15.4718C41.0263 15.1915 41.1104 14.8496 41.1104 14.446C41.1104 14.0425 41.0319 13.7062 40.875 13.4371C40.7292 13.1569 40.5162 12.9495 40.236 12.815C39.9557 12.6692 39.6026 12.5964 39.1766 12.5964C38.8852 12.5964 38.6105 12.6244 38.3527 12.6805C38.1061 12.7365 37.8819 12.8262 37.6801 12.9495C37.4783 13.0616 37.2989 13.2129 37.142 13.4035L35.326 13.0672L36.0154 6.91284H42.7246V8.77933H37.7642L37.4279 11.4866L37.3774 11.7052H37.411C37.6465 11.4361 37.9659 11.2287 38.3695 11.083C38.7843 10.9373 39.2551 10.8644 39.782 10.8644C40.5106 10.8644 41.1328 11.0101 41.6485 11.3016C42.1641 11.5931 42.5621 12.0022 42.8423 12.5291C43.1226 13.0448 43.2627 13.6389 43.2627 14.3115C43.2627 14.9505 43.1562 15.5166 42.9432 16.0099C42.7302 16.4919 42.4276 16.8955 42.0352 17.2206C41.6541 17.5344 41.2113 17.7755 40.7068 17.9436C40.2024 18.1005 39.6587 18.179 39.0757 18.179ZM46.3909 15.4381C46.7496 15.4381 47.0467 15.5278 47.2821 15.7072C47.5175 15.8753 47.6969 16.1051 47.8202 16.3966C47.9435 16.6769 48.0051 16.9907 48.0051 17.3383C48.0051 17.7979 47.9098 18.2407 47.7193 18.6667C47.5399 19.0926 47.2877 19.4738 46.9626 19.8101C46.6375 20.1464 46.2676 20.4098 45.8528 20.6004L44.8607 19.8101C45.1634 19.6868 45.438 19.5354 45.6846 19.3561C45.9425 19.1767 46.1611 18.9749 46.3404 18.7507C46.5198 18.5265 46.6487 18.2967 46.7272 18.0613L46.6431 18.0109C46.5871 18.0445 46.5198 18.0725 46.4413 18.0949C46.3628 18.1286 46.2507 18.1454 46.105 18.1454C45.9257 18.1454 45.7463 18.1005 45.5669 18.0109C45.3876 17.91 45.2362 17.7698 45.1129 17.5905C44.9896 17.3999 44.928 17.1645 44.928 16.8842C44.928 16.5816 44.9952 16.3237 45.1297 16.1107C45.2643 15.8978 45.4436 15.7352 45.6678 15.6231C45.892 15.4998 46.133 15.4381 46.3909 15.4381ZM53.8673 18.179C52.4436 18.179 51.345 17.697 50.5716 16.7329C49.8093 15.7688 49.4281 14.3452 49.4281 12.4619C49.4281 10.5786 49.8093 9.15487 50.5716 8.1908C51.345 7.22673 52.4436 6.74469 53.8673 6.74469C55.291 6.74469 56.384 7.22673 57.1463 8.1908C57.9198 9.15487 58.3065 10.5786 58.3065 12.4619C58.3065 14.3452 57.9198 15.7688 57.1463 16.7329C56.384 17.697 55.291 18.179 53.8673 18.179ZM53.8673 16.3125C54.3494 16.3125 54.7417 16.178 55.0444 15.909C55.3583 15.6287 55.5937 15.2083 55.7506 14.6478C55.9076 14.0761 55.986 13.3475 55.986 12.4619C55.986 11.5763 55.9076 10.8532 55.7506 10.2927C55.5937 9.72098 55.3583 9.3006 55.0444 9.03156C54.7417 8.7513 54.3494 8.61118 53.8673 8.61118C53.3853 8.61118 52.9873 8.7513 52.6734 9.03156C52.3596 9.3006 52.1242 9.72098 51.9672 10.2927C51.8215 10.8532 51.7486 11.5763 51.7486 12.4619C51.7486 13.3475 51.8215 14.0761 51.9672 14.6478C52.1242 15.2083 52.3596 15.6287 52.6734 15.909C52.9873 16.178 53.3853 16.3125 53.8673 16.3125Z" fill="#E44B60"/>
<path d="M72.4784 3.60327L74.8505 8.74596L80.4745 9.41277L76.3165 13.2579L77.4203 18.8127L72.4784 16.0465L67.5365 18.8127L68.6403 13.2579L64.4823 9.41277L70.1063 8.74596L72.4784 3.60327Z" fill="#E44B60" stroke="#E44B60" stroke-width="1.20108" stroke-linejoin="round"/>
</svg>
