<svg width="20" height="20" viewBox="0 0 20 20" fill="none" xmlns="http://www.w3.org/2000/svg">
<g id="icon">
<g id="Black">
<path id="Vector 22" d="M18.407 4.0014V17.9H7.15576V15.9145H13.7741L16.4215 13.2671V4.0014H18.407Z" fill="#2458A4"/>
<path id="Vector" d="M8.1155 0.427919C7.69777 0.546467 7.20665 0.975491 7.12762 1.28597L7.09375 1.4271H6.29214C5.85747 1.4271 5.40022 1.45532 5.28732 1.48355C5.01636 1.56258 4.75668 1.78274 4.6212 2.0537C4.5083 2.26257 4.5083 2.43192 4.5083 8.82215C4.5083 14.5914 4.51959 15.3987 4.59298 15.5793C4.80749 16.093 5.07845 16.2172 5.97038 16.2172H6.64214L6.66472 16.9059C6.6873 17.7188 6.77198 17.9502 7.15584 18.2212L7.39858 18.3906L12.7332 18.4075C16.363 18.4188 18.1355 18.4018 18.2879 18.3623C18.4121 18.3285 18.5984 18.2268 18.7 18.1309C19.1008 17.7865 19.0782 18.2156 19.0613 10.8995L19.0444 4.31738L18.875 4.07464C18.6041 3.69077 18.4234 3.62868 17.6218 3.62868H16.9275V3.0303C16.9275 2.69724 16.8936 2.32467 16.8597 2.19483C16.7694 1.90128 16.4533 1.58516 16.1597 1.49484C15.9904 1.44403 15.138 1.4271 12.9985 1.42145H10.0687L9.8429 1.07146C9.66226 0.794849 9.555 0.687593 9.30662 0.563402C8.93404 0.377115 8.48243 0.326307 8.1155 0.427919ZM8.82114 1.28033C9.06388 1.38194 9.23323 1.60209 9.27839 1.8787C9.34613 2.29079 9.18807 2.27386 12.7162 2.27386C15.5783 2.27386 15.8831 2.28515 15.9791 2.36983C16.0751 2.4545 16.0807 2.69724 16.0807 7.6762V12.8866H15.4089C14.2969 12.8866 13.9356 13.0051 13.7098 13.4511C13.6138 13.643 13.5969 13.7898 13.5969 14.5237V15.3704H9.50984C5.83489 15.3704 5.4228 15.3591 5.38893 15.2801C5.372 15.2293 5.35506 12.3108 5.35506 8.79392C5.35506 2.52224 5.35506 2.38676 5.46232 2.33031C5.52441 2.30208 5.89134 2.27386 6.28085 2.27386H6.99213V3.79239C6.99213 4.79156 7.01471 5.37301 7.05988 5.4972C7.16713 5.82461 7.42681 6.14638 7.72599 6.33831C7.96873 6.49638 8.08728 6.53025 8.43727 6.55283C8.95098 6.5867 9.27839 6.47944 9.62274 6.15767C10.0122 5.79639 10.1082 5.49155 10.1421 4.51495C10.159 3.97867 10.1477 3.56658 10.1026 3.38029C9.93322 2.61821 9.05823 2.33031 8.40905 2.82143C8.10986 3.04723 8.0647 3.23352 8.0647 4.18754C8.0647 4.9214 8.07599 5.04559 8.17195 5.15849C8.24534 5.25446 8.33566 5.28833 8.48808 5.28833C8.86065 5.28833 8.91146 5.16414 8.91146 4.24964C8.91146 3.59481 8.92275 3.46497 9.00178 3.43675C9.04694 3.41981 9.13726 3.4311 9.19936 3.45932C9.29533 3.51578 9.30662 3.58352 9.30662 4.23835C9.30097 5.07382 9.25581 5.34478 9.06388 5.53671C8.87759 5.71736 8.44292 5.76816 8.18889 5.63832C7.8389 5.45768 7.83325 5.40123 7.85019 3.40852C7.86712 1.69806 7.87277 1.6021 7.98002 1.48355C8.10421 1.34242 8.37518 1.20694 8.53324 1.2013C8.58969 1.2013 8.71388 1.23517 8.82114 1.28033ZM18.1581 4.54318C18.2089 4.59399 18.2258 6.11251 18.2258 11.035C18.2258 17.3236 18.2258 17.4591 18.1186 17.5156C18.0452 17.5551 16.2952 17.572 12.8404 17.572C8.1776 17.572 7.66954 17.5607 7.58487 17.4817C7.51148 17.4083 7.50019 17.2841 7.51148 16.8156L7.52842 16.2454L10.859 16.2285L14.1953 16.2172L15.5614 14.8454L16.9275 13.4737V8.97456V4.47544H17.5089C17.8871 4.47544 18.1129 4.49802 18.1581 4.54318ZM14.9517 14.2696L14.4719 14.7551L14.4549 14.3487C14.4436 14.1229 14.4493 13.9084 14.4662 13.8632C14.4888 13.8124 14.6243 13.7898 14.963 13.7898H15.4315L14.9517 14.2696Z" fill="#2E3543"/>
<path id="Vector_2" d="M11.6891 3.83755C11.4746 4.02384 11.5254 4.44158 11.7681 4.5319C11.8472 4.56577 12.6036 4.58835 13.4616 4.58835H15.014L15.1495 4.44722C15.3245 4.27787 15.3358 4.01255 15.1778 3.85449C15.0705 3.74723 14.9915 3.74159 13.4334 3.74159C11.9601 3.74159 11.7907 3.75288 11.6891 3.83755Z" fill="#2E3543"/>
<path id="Vector_3" d="M11.3157 6.18029C11.1125 6.46819 11.2705 6.8069 11.6318 6.87464C11.7334 6.89157 12.552 6.90286 13.4439 6.89157L15.0753 6.87464L15.1826 6.73916C15.3124 6.58109 15.3181 6.34965 15.1995 6.18029C15.1148 6.0561 15.1148 6.0561 13.2576 6.0561C11.4004 6.0561 11.4004 6.0561 11.3157 6.18029Z" fill="#2E3543"/>
<path id="Vector_4" d="M7.59092 8.4327C7.40463 8.57948 7.3877 8.87867 7.55705 9.04802C7.66995 9.16092 7.74334 9.16092 11.3675 9.16092C14.9916 9.16092 15.065 9.16092 15.1779 9.04802C15.336 8.88996 15.3247 8.62464 15.1497 8.45528L15.0142 8.31416H11.3788C7.78285 8.31416 7.73769 8.31416 7.59092 8.4327Z" fill="#2E3543"/>
<path id="Vector_5" d="M7.55705 10.7415C7.3877 10.9109 7.40463 11.2101 7.59092 11.3569C7.73769 11.4754 7.78285 11.4754 11.3788 11.4754H15.0142L15.1497 11.3343C15.3247 11.1649 15.336 10.8996 15.1779 10.7415C15.065 10.6286 14.9916 10.6286 11.3675 10.6286C7.74334 10.6286 7.66995 10.6286 7.55705 10.7415Z" fill="#2E3543"/>
</g>
</g>
</svg>
