<svg width="117" height="25" viewBox="0 0 117 25" fill="none" xmlns="http://www.w3.org/2000/svg">
<path d="M13.8985 6.61856V20.5172H2.64722V18.5317H9.2656L11.913 15.8843V6.61856H13.8985Z" fill="#2458A4"/>
<path d="M3.6072 3.04508C3.18947 3.16362 2.69835 3.59265 2.61932 3.90313L2.58544 4.04426H1.78384C1.34917 4.04426 0.891922 4.07248 0.77902 4.10071C0.508057 4.17974 0.248383 4.39989 0.112902 4.67086C0 4.87973 0 5.04908 0 11.4393C0 17.2086 0.0112901 18.0158 0.0846761 18.1965C0.299189 18.7102 0.570153 18.8344 1.46207 18.8344H2.13384L2.15642 19.5231C2.179 20.3359 2.26368 20.5674 2.64754 20.8384L2.89028 21.0077L8.22488 21.0246C11.8547 21.0359 13.6272 21.019 13.7796 20.9795C13.9038 20.9456 14.0901 20.844 14.1917 20.748C14.5925 20.4037 14.5699 20.8327 14.553 13.5167L14.5361 6.93453L14.3667 6.6918C14.0958 6.30793 13.9151 6.24583 13.1135 6.24583H12.4192V5.64746C12.4192 5.3144 12.3853 4.94182 12.3514 4.81199C12.2611 4.51844 11.945 4.20232 11.6514 4.112C11.4821 4.06119 10.6297 4.04426 8.49019 4.03861H5.5604L5.3346 3.68862C5.15395 3.41201 5.0467 3.30475 4.79831 3.18056C4.42574 2.99427 3.97413 2.94347 3.6072 3.04508ZM4.31284 3.89748C4.55558 3.9991 4.72493 4.21925 4.77009 4.49586C4.83783 4.90795 4.67977 4.89102 8.20794 4.89102C11.07 4.89102 11.3748 4.90231 11.4708 4.98698C11.5668 5.07166 11.5724 5.3144 11.5724 10.2934V15.5038H10.9006C9.78856 15.5038 9.42728 15.6223 9.20147 16.0683C9.10551 16.2602 9.08857 16.407 9.08857 17.1408V17.9876H5.00154C1.32659 17.9876 0.914502 17.9763 0.880632 17.8973C0.863697 17.8465 0.846761 14.928 0.846761 11.4111C0.846761 5.1394 0.846761 5.00392 0.954018 4.94747C1.01611 4.91924 1.38304 4.89102 1.77255 4.89102H2.48383V6.40954C2.48383 7.40872 2.50641 7.99016 2.55157 8.11435C2.65883 8.44177 2.9185 8.76354 3.21769 8.95547C3.46043 9.11353 3.57898 9.1474 3.92897 9.16998C4.44267 9.20385 4.77009 9.0966 5.11444 8.77483C5.50395 8.41354 5.59992 8.10871 5.63379 7.13211C5.65072 6.59583 5.63943 6.18374 5.59427 5.99745C5.42492 5.23537 4.54993 4.94747 3.90075 5.43859C3.60156 5.66439 3.5564 5.85068 3.5564 6.8047C3.5564 7.53856 3.56769 7.66275 3.66365 7.77565C3.73704 7.87162 3.82736 7.90549 3.97978 7.90549C4.35235 7.90549 4.40316 7.78129 4.40316 6.86679C4.40316 6.21196 4.41445 6.08213 4.49348 6.0539C4.53864 6.03697 4.62896 6.04826 4.69106 6.07648C4.78702 6.13293 4.79831 6.20067 4.79831 6.8555C4.79267 7.69097 4.74751 7.96194 4.55558 8.15387C4.36929 8.33451 3.93462 8.38532 3.68059 8.25548C3.33059 8.07484 3.32495 8.01839 3.34188 6.02568C3.35882 4.31522 3.36447 4.21925 3.47172 4.10071C3.59591 3.95958 3.86688 3.8241 4.02494 3.81845C4.08139 3.81845 4.20558 3.85232 4.31284 3.89748ZM13.6498 7.16034C13.7006 7.21114 13.7175 8.72967 13.7175 13.6522C13.7175 19.9408 13.7175 20.0763 13.6103 20.1327C13.5369 20.1722 11.7869 20.1892 8.33213 20.1892C3.6693 20.1892 3.16124 20.1779 3.07657 20.0989C3.00318 20.0255 2.99189 19.9013 3.00318 19.4327L3.02012 18.8626L6.35071 18.8456L9.68695 18.8344L11.0531 17.4626L12.4192 16.0908V11.5917V7.0926H13.0006C13.3788 7.0926 13.6046 7.11518 13.6498 7.16034ZM10.4434 16.8868L9.96356 17.3723L9.94662 16.9658C9.93533 16.74 9.94098 16.5255 9.95791 16.4804C9.98049 16.4296 10.116 16.407 10.4547 16.407H10.9232L10.4434 16.8868Z" fill="#2E3543"/>
<path d="M7.18043 6.45471C6.96592 6.641 7.01672 7.05873 7.25946 7.14905C7.33849 7.18293 8.09493 7.20551 8.95298 7.20551H10.5054L10.6409 7.06438C10.8159 6.89503 10.8271 6.62971 10.6691 6.47165C10.5618 6.36439 10.4828 6.35874 8.92476 6.35874C7.45139 6.35874 7.28204 6.37003 7.18043 6.45471Z" fill="#2E3543"/>
<path d="M6.8074 8.79745C6.60417 9.08535 6.76224 9.42405 7.12352 9.4918C7.22513 9.50873 8.04367 9.52002 8.93559 9.50873L10.567 9.4918L10.6743 9.35631C10.8041 9.19825 10.8098 8.9668 10.6912 8.79745C10.6065 8.67326 10.6065 8.67326 8.7493 8.67326C6.89207 8.67326 6.89207 8.67326 6.8074 8.79745Z" fill="#2E3543"/>
<path d="M3.08262 11.0499C2.89633 11.1966 2.8794 11.4958 3.04875 11.6652C3.16165 11.7781 3.23504 11.7781 6.85918 11.7781C10.4833 11.7781 10.5567 11.7781 10.6696 11.6652C10.8277 11.5071 10.8164 11.2418 10.6414 11.0724L10.5059 10.9313H6.87047C3.27455 10.9313 3.22939 10.9313 3.08262 11.0499Z" fill="#2E3543"/>
<path d="M3.04875 13.3587C2.8794 13.5281 2.89633 13.8272 3.08262 13.974C3.22939 14.0926 3.27455 14.0926 6.87047 14.0926H10.5059L10.6414 13.9514C10.8164 13.7821 10.8277 13.5168 10.6696 13.3587C10.5567 13.2458 10.4833 13.2458 6.85918 13.2458C3.23504 13.2458 3.16165 13.2458 3.04875 13.3587Z" fill="#2E3543"/>
<path d="M26.01 9.79548V10.6668H23.3379V17.463H22.4085V10.6668H19.7365V9.79548H26.01ZM33.6487 9.79548V17.463H32.7193V9.79548H33.6487ZM28.5602 9.79548V17.463H27.6308V9.79548H28.5602ZM33.1491 13.1413V14.0126H28.1187V13.1413H33.1491ZM36.1624 17.463V9.79548H41.5413V10.6668H37.0918V13.1413H40.5538V14.0126H37.0918V16.5917H41.7156V17.463H36.1624ZM46.0338 9.67931C46.7076 9.67931 47.2884 9.81872 47.7764 10.0975C48.2643 10.3686 48.6709 10.7714 48.9962 11.3058L48.2178 11.9099C47.9313 11.4142 47.606 11.0657 47.242 10.8643C46.8857 10.6552 46.452 10.5506 45.9408 10.5506C45.5303 10.5506 45.1895 10.6087 44.9185 10.7249C44.6551 10.8411 44.4615 10.996 44.3376 11.1896C44.2137 11.3755 44.1517 11.5885 44.1517 11.8285C44.1517 12.0996 44.2369 12.3397 44.4073 12.5488C44.5777 12.7502 44.9185 12.909 45.4296 13.0252L47.0909 13.3969C47.8267 13.5596 48.3379 13.8074 48.6245 14.1404C48.9188 14.4657 49.0659 14.8723 49.0659 15.3603C49.0659 15.794 48.942 16.1812 48.6942 16.522C48.4541 16.8551 48.1133 17.1145 47.6718 17.3004C47.2304 17.4863 46.7114 17.5792 46.1151 17.5792C45.5574 17.5792 45.0656 17.5056 44.6396 17.3585C44.2214 17.2036 43.8613 16.9983 43.5592 16.7428C43.2572 16.4872 43.0093 16.2006 42.8157 15.8831L43.6289 15.2209C43.7761 15.5152 43.9658 15.7746 44.1982 15.9992C44.4305 16.2238 44.7094 16.3981 45.0346 16.522C45.3677 16.6459 45.7472 16.7079 46.1732 16.7079C46.5682 16.7079 46.9089 16.6614 47.1955 16.5685C47.4898 16.4678 47.7144 16.3245 47.8693 16.1386C48.0242 15.945 48.1017 15.7127 48.1017 15.4416C48.1017 15.1938 48.0203 14.973 47.8577 14.7794C47.6951 14.578 47.3891 14.427 46.9399 14.3263L45.1392 13.9197C44.6668 13.8113 44.2834 13.6641 43.9891 13.4782C43.7025 13.2846 43.4934 13.06 43.3617 12.8044C43.2378 12.5411 43.1758 12.2584 43.1758 11.9563C43.1758 11.5459 43.2881 11.1702 43.5128 10.8294C43.7451 10.4809 44.0743 10.2021 44.5002 9.99298C44.934 9.78387 45.4451 9.67931 46.0338 9.67931ZM51.9427 9.79548V17.463H51.0133V9.79548H51.9427ZM56.9138 9.67931C57.5876 9.67931 58.1685 9.81872 58.6565 10.0975C59.1444 10.3686 59.551 10.7714 59.8763 11.3058L59.0979 11.9099C58.8114 11.4142 58.4861 11.0657 58.1221 10.8643C57.7658 10.6552 57.3321 10.5506 56.8209 10.5506C56.4104 10.5506 56.0696 10.6087 55.7985 10.7249C55.5352 10.8411 55.3416 10.996 55.2177 11.1896C55.0938 11.3755 55.0318 11.5885 55.0318 11.8285C55.0318 12.0996 55.117 12.3397 55.2874 12.5488C55.4578 12.7502 55.7985 12.909 56.3097 13.0252L57.971 13.3969C58.7068 13.5596 59.218 13.8074 59.5045 14.1404C59.7988 14.4657 59.946 14.8723 59.946 15.3603C59.946 15.794 59.8221 16.1812 59.5742 16.522C59.3341 16.8551 58.9934 17.1145 58.5519 17.3004C58.1104 17.4863 57.5915 17.5792 56.9952 17.5792C56.4375 17.5792 55.9457 17.5056 55.5197 17.3585C55.1015 17.2036 54.7414 16.9983 54.4393 16.7428C54.1372 16.4872 53.8894 16.2006 53.6958 15.8831L54.509 15.2209C54.6562 15.5152 54.8459 15.7746 55.0783 15.9992C55.3106 16.2238 55.5894 16.3981 55.9147 16.522C56.2478 16.6459 56.6273 16.7079 57.0532 16.7079C57.4482 16.7079 57.789 16.6614 58.0756 16.5685C58.3699 16.4678 58.5945 16.3245 58.7494 16.1386C58.9043 15.945 58.9817 15.7127 58.9817 15.4416C58.9817 15.1938 58.9004 14.973 58.7378 14.7794C58.5751 14.578 58.2692 14.427 57.82 14.3263L56.0193 13.9197C55.5468 13.8113 55.1635 13.6641 54.8691 13.4782C54.5826 13.2846 54.3735 13.06 54.2418 12.8044C54.1179 12.5411 54.0559 12.2584 54.0559 11.9563C54.0559 11.5459 54.1682 11.1702 54.3928 10.8294C54.6252 10.4809 54.9543 10.2021 55.3803 9.99298C55.814 9.78387 56.3252 9.67931 56.9138 9.67931Z" fill="#2E3543"/>
<path d="M70.152 9.79548V17.463H68.5488V9.79548H70.152ZM65.1681 9.79548V17.463H63.5649V9.79548H65.1681ZM69.3853 12.9438V14.2334H64.3665V12.9438H69.3853ZM72.1532 17.463V9.79548H77.9039V11.085H73.7565V12.9903H77.021V14.2218H73.7565V16.1735H78.0666V17.463H72.1532ZM81.1082 16.1735H85.1511V17.463H79.505V9.79548H81.1082V16.1735ZM89.7003 9.79548C90.2889 9.79548 90.7924 9.89617 91.2106 10.0975C91.6288 10.2912 91.9502 10.5739 92.1748 10.9456C92.4072 11.3096 92.5234 11.7511 92.5234 12.27C92.5234 12.7889 92.4072 13.2343 92.1748 13.606C91.9502 13.97 91.6288 14.2527 91.2106 14.4541C90.7924 14.6477 90.2889 14.7445 89.7003 14.7445H88.0855V17.463H86.4823V9.79548H89.7003ZM89.4564 13.4782C89.9365 13.4782 90.2967 13.3775 90.5368 13.1762C90.7769 12.9671 90.8969 12.665 90.8969 12.27C90.8969 11.8673 90.7769 11.5652 90.5368 11.3638C90.2967 11.1625 89.9365 11.0618 89.4564 11.0618H88.0855V13.4782H89.4564ZM93.9928 17.463V9.79548H99.7435V11.085H95.596V12.9903H98.8605V14.2218H95.596V16.1735H99.9061V17.463H93.9928ZM104.725 9.79548C105.593 9.79548 106.274 10.0046 106.77 10.4228C107.266 10.8411 107.513 11.4026 107.513 12.1074C107.513 12.8586 107.266 13.4356 106.77 13.8384C106.274 14.2334 105.597 14.4309 104.737 14.4309L104.574 14.5238H102.925V17.463H101.345V9.79548H104.725ZM104.539 13.304C104.989 13.304 105.322 13.2149 105.538 13.0368C105.763 12.8509 105.875 12.5682 105.875 12.1887C105.875 11.8092 105.763 11.5304 105.538 11.3522C105.322 11.1663 104.989 11.0734 104.539 11.0734H102.925V13.304H104.539ZM105.48 13.6409L107.967 17.463H106.166L104.109 14.1056L105.48 13.6409ZM112.041 9.67931C112.738 9.67931 113.35 9.79936 113.876 10.0395C114.403 10.2795 114.852 10.6358 115.224 11.1083L114.329 12.1422C114.012 11.7395 113.663 11.4452 113.284 11.2593C112.912 11.0657 112.478 10.9689 111.983 10.9689C111.657 10.9689 111.386 11.0114 111.169 11.0966C110.96 11.1818 110.805 11.2941 110.705 11.4336C110.612 11.573 110.565 11.7279 110.565 11.8983C110.565 12.1074 110.647 12.2855 110.809 12.4327C110.972 12.5721 111.251 12.6882 111.646 12.7812L113.075 13.1065C113.834 13.2769 114.376 13.5325 114.701 13.8732C115.034 14.2063 115.201 14.64 115.201 15.1744C115.201 15.6778 115.069 16.1115 114.806 16.4756C114.542 16.8318 114.174 17.1068 113.702 17.3004C113.229 17.4863 112.687 17.5792 112.075 17.5792C111.541 17.5792 111.049 17.5173 110.6 17.3933C110.159 17.2617 109.764 17.0835 109.415 16.8589C109.067 16.6343 108.776 16.3749 108.544 16.0806L109.45 15.0001C109.628 15.248 109.849 15.4687 110.112 15.6623C110.375 15.856 110.674 16.0109 111.007 16.127C111.347 16.2355 111.704 16.2897 112.075 16.2897C112.393 16.2897 112.66 16.2548 112.877 16.1851C113.102 16.1077 113.268 16.0031 113.377 15.8714C113.493 15.732 113.551 15.5655 113.551 15.3719C113.551 15.1705 113.481 15.0001 113.342 14.8607C113.21 14.7136 112.962 14.6013 112.598 14.5238L111.042 14.1753C110.592 14.0669 110.205 13.9274 109.88 13.7571C109.562 13.5789 109.318 13.3543 109.148 13.0832C108.985 12.8044 108.904 12.4753 108.904 12.0958C108.904 11.6388 109.028 11.2283 109.276 10.8643C109.523 10.5003 109.88 10.2137 110.344 10.0046C110.817 9.78774 111.382 9.67931 112.041 9.67931Z" fill="#2458A4"/>
</svg>
