<svg width="15" height="19" viewBox="0 0 15 19" fill="none" xmlns="http://www.w3.org/2000/svg">
<g id="icon">
<g id="Black">
<path id="Vector 22" d="M13.8985 3.61856V17.5172H2.64722V15.5317H9.2656L11.913 12.8843V3.61856H13.8985Z" fill="#2458A4"/>
<path id="Vector" d="M3.6072 0.0450764C3.18947 0.163623 2.69835 0.592648 2.61932 0.903127L2.58544 1.04426H1.78384C1.34917 1.04426 0.891922 1.07248 0.77902 1.10071C0.508057 1.17974 0.248383 1.39989 0.112902 1.67086C0 1.87973 0 2.04908 0 8.4393C0 14.2086 0.0112901 15.0158 0.0846761 15.1965C0.299189 15.7102 0.570153 15.8344 1.46207 15.8344H2.13384L2.15642 16.5231C2.179 17.3359 2.26368 17.5674 2.64754 17.8384L2.89028 18.0077L8.22488 18.0246C11.8547 18.0359 13.6272 18.019 13.7796 17.9795C13.9038 17.9456 14.0901 17.844 14.1917 17.748C14.5925 17.4037 14.5699 17.8327 14.553 10.5167L14.5361 3.93453L14.3667 3.6918C14.0958 3.30793 13.9151 3.24583 13.1135 3.24583H12.4192V2.64746C12.4192 2.3144 12.3853 1.94182 12.3514 1.81199C12.2611 1.51844 11.945 1.20232 11.6514 1.112C11.4821 1.06119 10.6297 1.04426 8.49019 1.03861H5.5604L5.3346 0.688616C5.15395 0.412007 5.0467 0.304751 4.79831 0.180559C4.42574 -0.00572813 3.97413 -0.056535 3.6072 0.0450764ZM4.31284 0.897484C4.55558 0.999095 4.72493 1.21925 4.77009 1.49586C4.83783 1.90795 4.67977 1.89102 8.20794 1.89102C11.07 1.89102 11.3748 1.90231 11.4708 1.98698C11.5668 2.07166 11.5724 2.3144 11.5724 7.29335V12.5038H10.9006C9.78856 12.5038 9.42728 12.6223 9.20147 13.0683C9.10551 13.2602 9.08857 13.407 9.08857 14.1408V14.9876H5.00154C1.32659 14.9876 0.914502 14.9763 0.880632 14.8973C0.863697 14.8465 0.846761 11.928 0.846761 8.41108C0.846761 2.1394 0.846761 2.00392 0.954018 1.94747C1.01611 1.91924 1.38304 1.89102 1.77255 1.89102H2.48383V3.40954C2.48383 4.40872 2.50641 4.99016 2.55157 5.11435C2.65883 5.44177 2.9185 5.76354 3.21769 5.95547C3.46043 6.11353 3.57898 6.1474 3.92897 6.16998C4.44267 6.20385 4.77009 6.0966 5.11444 5.77483C5.50395 5.41354 5.59992 5.10871 5.63379 4.13211C5.65072 3.59583 5.63943 3.18374 5.59427 2.99745C5.42492 2.23537 4.54993 1.94747 3.90075 2.43859C3.60156 2.66439 3.5564 2.85068 3.5564 3.8047C3.5564 4.53856 3.56769 4.66275 3.66365 4.77565C3.73704 4.87162 3.82736 4.90549 3.97978 4.90549C4.35235 4.90549 4.40316 4.78129 4.40316 3.86679C4.40316 3.21196 4.41445 3.08213 4.49348 3.0539C4.53864 3.03697 4.62896 3.04826 4.69106 3.07648C4.78702 3.13293 4.79831 3.20067 4.79831 3.8555C4.79267 4.69097 4.74751 4.96194 4.55558 5.15387C4.36929 5.33451 3.93462 5.38532 3.68059 5.25548C3.33059 5.07484 3.32495 5.01839 3.34188 3.02568C3.35882 1.31522 3.36447 1.21925 3.47172 1.10071C3.59591 0.959579 3.86688 0.824098 4.02494 0.818453C4.08139 0.818453 4.20558 0.852323 4.31284 0.897484ZM13.6498 4.16034C13.7006 4.21114 13.7175 5.72967 13.7175 10.6522C13.7175 16.9408 13.7175 17.0763 13.6103 17.1327C13.5369 17.1722 11.7869 17.1892 8.33213 17.1892C3.6693 17.1892 3.16124 17.1779 3.07657 17.0989C3.00318 17.0255 2.99189 16.9013 3.00318 16.4327L3.02012 15.8626L6.35071 15.8456L9.68695 15.8344L11.0531 14.4626L12.4192 13.0908V8.59172V4.0926H13.0006C13.3788 4.0926 13.6046 4.11518 13.6498 4.16034ZM10.4434 13.8868L9.96356 14.3723L9.94662 13.9658C9.93533 13.74 9.94098 13.5255 9.95791 13.4804C9.98049 13.4296 10.116 13.407 10.4547 13.407H10.9232L10.4434 13.8868Z" fill="#2E3543"/>
<path id="Vector_2" d="M7.18043 3.45471C6.96592 3.641 7.01672 4.05873 7.25946 4.14905C7.33849 4.18293 8.09493 4.20551 8.95298 4.20551H10.5054L10.6409 4.06438C10.8159 3.89503 10.8271 3.62971 10.6691 3.47165C10.5618 3.36439 10.4828 3.35874 8.92476 3.35874C7.45139 3.35874 7.28204 3.37003 7.18043 3.45471Z" fill="#2E3543"/>
<path id="Vector_3" d="M6.8074 5.79745C6.60417 6.08535 6.76224 6.42405 7.12352 6.4918C7.22513 6.50873 8.04367 6.52002 8.93559 6.50873L10.567 6.4918L10.6743 6.35631C10.8041 6.19825 10.8098 5.9668 10.6912 5.79745C10.6065 5.67326 10.6065 5.67326 8.7493 5.67326C6.89207 5.67326 6.89207 5.67326 6.8074 5.79745Z" fill="#2E3543"/>
<path id="Vector_4" d="M3.08262 8.04986C2.89633 8.19663 2.8794 8.49582 3.04875 8.66517C3.16165 8.77808 3.23504 8.77808 6.85918 8.77808C10.4833 8.77808 10.5567 8.77808 10.6696 8.66517C10.8277 8.50711 10.8164 8.24179 10.6414 8.07244L10.5059 7.93131H6.87047C3.27455 7.93131 3.22939 7.93131 3.08262 8.04986Z" fill="#2E3543"/>
<path id="Vector_5" d="M3.04875 10.3587C2.8794 10.5281 2.89633 10.8272 3.08262 10.974C3.22939 11.0926 3.27455 11.0926 6.87047 11.0926H10.5059L10.6414 10.9514C10.8164 10.7821 10.8277 10.5168 10.6696 10.3587C10.5567 10.2458 10.4833 10.2458 6.85918 10.2458C3.23504 10.2458 3.16165 10.2458 3.04875 10.3587Z" fill="#2E3543"/>
</g>
</g>
</svg>
