<svg width="217" height="32" viewBox="0 0 217 32" fill="none" xmlns="http://www.w3.org/2000/svg">
<path d="M9.516 24.5V20.47H1.144V18.13C1.23067 17.9567 1.352 17.7487 1.508 17.506C1.68133 17.246 1.872 16.9513 2.08 16.622L8.476 7.34H12.766V17.87H15.548V20.47H12.766V24.5H9.516ZM4.212 17.87H9.542V12.202C9.542 11.838 9.55067 11.448 9.568 11.032C9.58533 10.616 9.60267 10.2087 9.62 9.81H9.568C9.37733 10.1913 9.14333 10.6073 8.866 11.058C8.606 11.4913 8.36333 11.8813 8.138 12.228L4.55 17.376C4.498 17.4627 4.43733 17.5493 4.368 17.636C4.316 17.7053 4.264 17.7833 4.212 17.87ZM19.8894 20.522C20.4441 20.522 20.9034 20.6607 21.2674 20.938C21.6314 21.198 21.9087 21.5533 22.0994 22.004C22.2901 22.4373 22.3854 22.9227 22.3854 23.46C22.3854 24.1707 22.2381 24.8553 21.9434 25.514C21.6661 26.1727 21.2761 26.762 20.7734 27.282C20.2707 27.802 19.6987 28.2093 19.0574 28.504L17.5234 27.282C17.9914 27.0913 18.4161 26.8573 18.7974 26.58C19.1961 26.3027 19.5341 25.9907 19.8114 25.644C20.0887 25.2973 20.2881 24.942 20.4094 24.578L20.2794 24.5C20.1927 24.552 20.0887 24.5953 19.9674 24.63C19.8461 24.682 19.6727 24.708 19.4474 24.708C19.1701 24.708 18.8927 24.6387 18.6154 24.5C18.3381 24.344 18.1041 24.1273 17.9134 23.85C17.7227 23.5553 17.6274 23.1913 17.6274 22.758C17.6274 22.29 17.7314 21.8913 17.9394 21.562C18.1474 21.2327 18.4247 20.9813 18.7714 20.808C19.1181 20.6173 19.4907 20.522 19.8894 20.522ZM31.6739 7.132C32.9046 7.132 33.9706 7.32267 34.8719 7.704C35.7906 8.068 36.4926 8.59667 36.9779 9.29C37.4806 9.966 37.7319 10.7893 37.7319 11.76C37.7319 12.6613 37.5066 13.4413 37.0559 14.1C36.6226 14.7587 35.9899 15.2613 35.1579 15.608V15.634C36.1632 15.998 36.9519 16.5267 37.5239 17.22C38.0959 17.9133 38.3819 18.7887 38.3819 19.846C38.3819 20.8513 38.1046 21.718 37.5499 22.446C37.0126 23.174 36.2412 23.746 35.2359 24.162C34.2479 24.5607 33.0606 24.76 31.6739 24.76C30.3046 24.76 29.1172 24.5607 28.1119 24.162C27.1239 23.746 26.3526 23.174 25.7979 22.446C25.2606 21.718 24.9919 20.8513 24.9919 19.846C24.9919 18.806 25.2779 17.9393 25.8499 17.246C26.4219 16.5353 27.2192 15.998 28.2419 15.634V15.608C27.4099 15.2787 26.7686 14.7847 26.3179 14.126C25.8672 13.45 25.6419 12.6613 25.6419 11.76C25.6419 10.7893 25.8846 9.966 26.3699 9.29C26.8726 8.59667 27.5832 8.068 28.5019 7.704C29.4206 7.32267 30.4779 7.132 31.6739 7.132ZM31.6999 9.888C30.8852 9.888 30.2352 10.0873 29.7499 10.486C29.2646 10.8847 29.0219 11.4393 29.0219 12.15C29.0219 12.8607 29.2646 13.4153 29.7499 13.814C30.2352 14.2127 30.8852 14.412 31.6999 14.412C32.4972 14.412 33.1299 14.2127 33.5979 13.814C34.0832 13.4153 34.3259 12.8607 34.3259 12.15C34.3259 11.4393 34.0919 10.8847 33.6239 10.486C33.1559 10.0873 32.5146 9.888 31.6999 9.888ZM31.6999 21.978C32.3586 21.978 32.9219 21.8827 33.3899 21.692C33.8579 21.5013 34.2132 21.2153 34.4559 20.834C34.7159 20.4527 34.8459 20.002 34.8459 19.482C34.8459 18.962 34.7159 18.5113 34.4559 18.13C34.2132 17.7487 33.8492 17.4627 33.3639 17.272C32.8959 17.064 32.3412 16.96 31.6999 16.96C31.0586 16.96 30.4952 17.064 30.0099 17.272C29.5246 17.4627 29.1519 17.7487 28.8919 18.13C28.6319 18.5113 28.5019 18.962 28.5019 19.482C28.5019 20.002 28.6319 20.4527 28.8919 20.834C29.1519 21.2153 29.5159 21.5013 29.9839 21.692C30.4692 21.8827 31.0412 21.978 31.6999 21.978ZM39.7577 7.34H53.3557V10.07C51.917 11.5087 50.773 12.9907 49.9237 14.516C49.0743 16.0413 48.459 17.6273 48.0777 19.274C47.7137 20.9207 47.5317 22.6627 47.5317 24.5H43.9697C43.9697 22.5933 44.2037 20.7647 44.6717 19.014C45.157 17.246 45.8937 15.5647 46.8817 13.97C47.887 12.358 49.161 10.8153 50.7037 9.342L51.4317 10.278H39.7577V7.34Z" fill="#E44B60"/>
<path d="M74.7552 3.42841L78.3021 11.1181L86.7115 12.1152L80.4942 17.8647L82.1446 26.1706L74.7552 22.0344L67.3658 26.1706L69.0162 17.8647L62.7989 12.1152L71.2083 11.1181L74.7552 3.42841Z" fill="#E44B60" stroke="#E44B60" stroke-width="1.79594" stroke-linejoin="round"/>
<path d="M107.081 3.42841L110.628 11.1181L119.038 12.1152L112.82 17.8647L114.471 26.1706L107.081 22.0344L99.692 26.1706L101.342 17.8647L95.1251 12.1152L103.534 11.1181L107.081 3.42841Z" fill="#E44B60" stroke="#E44B60" stroke-width="1.79594" stroke-linejoin="round"/>
<path d="M139.409 3.42841L142.956 11.1181L151.366 12.1152L145.148 17.8647L146.799 26.1706L139.409 22.0344L132.02 26.1706L133.67 17.8647L127.453 12.1152L135.863 11.1181L139.409 3.42841Z" fill="#E44B60" stroke="#E44B60" stroke-width="1.79594" stroke-linejoin="round"/>
<path d="M171.736 3.42841L175.283 11.1181L183.692 12.1152L177.475 17.8647L179.125 26.1706L171.736 22.0344L164.346 26.1706L165.997 17.8647L159.779 12.1152L168.189 11.1181L171.736 3.42841Z" fill="#E44B60" stroke="#E44B60" stroke-width="1.79594" stroke-linejoin="round"/>
<path d="M204.064 3.42841L207.611 11.1181L216.02 12.1152L209.803 17.8647L211.453 26.1706L204.064 22.0344L196.674 26.1706L198.325 17.8647L192.107 12.1152L200.517 11.1181L204.064 3.42841Z" fill="#E44B60" stroke="#E44B60" stroke-width="1.79594" stroke-linejoin="round"/>
</svg>
