<svg width="340" height="340" viewBox="0 0 340 340" fill="none" xmlns="http://www.w3.org/2000/svg">
<path d="M67.4135 213.683H294.531V222.659H67.4135V213.683Z" fill="white"/>
<path d="M67.4135 223.082H294.531C294.763 223.082 294.952 222.893 294.952 222.661V213.686C294.952 213.453 294.763 213.265 294.531 213.265H67.4135C67.1812 213.265 66.9927 213.453 66.9927 213.686V222.661C66.9908 222.893 67.1793 223.082 67.4135 223.082ZM294.108 222.238H67.8344V214.106H294.108V222.238Z" fill="#2458A4"/>
<path d="M145.553 300.339C145.553 300.339 135.787 320.052 124.814 329.527C122.963 331.125 120.081 330.243 119.39 327.898C118.992 326.543 118.599 324.735 118.278 322.328C117.07 313.328 125.166 289.892 125.166 289.892L128.771 288.73C130.036 288.322 131.376 289.096 131.656 290.396L132.033 292.152L136.368 288.336C137.354 287.467 138.87 287.597 139.685 288.629C141.34 290.726 143.913 294.643 145.553 300.339Z" fill="white"/>
<path d="M122.644 330.757C123.532 330.757 124.398 330.443 125.089 329.845C136.002 320.424 145.833 300.724 145.932 300.526C145.979 300.431 145.989 300.324 145.958 300.222C144.336 294.59 141.831 290.667 140.015 288.366C139.55 287.778 138.881 287.416 138.133 287.348C137.381 287.279 136.653 287.517 136.088 288.016L132.292 291.356L132.065 290.303C131.907 289.568 131.443 288.93 130.791 288.553C130.14 288.176 129.355 288.094 128.639 288.325L125.034 289.486C124.909 289.526 124.808 289.625 124.766 289.749C124.434 290.709 116.651 313.383 117.858 322.38C118.155 324.585 118.533 326.48 118.984 328.013C119.351 329.264 120.319 330.23 121.57 330.599C121.926 330.706 122.286 330.757 122.644 330.757ZM145.101 300.298C144.181 302.117 134.827 320.323 124.537 329.207C123.775 329.866 122.779 330.079 121.808 329.794C120.833 329.506 120.081 328.754 119.793 327.779C119.353 326.286 118.984 324.433 118.694 322.271C117.571 313.907 124.716 292.522 125.495 290.227L128.898 289.13C129.388 288.972 129.925 289.029 130.37 289.286C130.816 289.543 131.134 289.98 131.241 290.482L131.618 292.238C131.648 292.385 131.755 292.503 131.898 292.551C132.041 292.596 132.197 292.566 132.309 292.467L136.644 288.65C137.036 288.306 137.539 288.142 138.057 288.187C138.571 288.233 139.032 288.483 139.352 288.888C141.106 291.109 143.517 294.883 145.101 300.298Z" fill="#2E3543"/>
<path d="M121.761 327.582C121.869 327.582 121.978 327.54 122.06 327.458C133.218 316.252 142.559 298.712 142.652 298.537C142.761 298.332 142.683 298.076 142.477 297.968C142.271 297.859 142.016 297.937 141.908 298.143C141.814 298.318 132.53 315.748 121.463 326.864C121.3 327.03 121.3 327.296 121.465 327.46C121.545 327.54 121.654 327.582 121.761 327.582Z" fill="#2E3543"/>
<path d="M126.518 312.192C126.695 312.192 126.861 312.079 126.918 311.902C126.991 311.681 126.871 311.443 126.65 311.369L120.814 309.447C120.593 309.373 120.355 309.495 120.281 309.716C120.209 309.937 120.329 310.175 120.55 310.249L126.385 312.171C126.431 312.184 126.474 312.192 126.518 312.192Z" fill="#2E3543"/>
<path d="M130.355 305.958C130.532 305.958 130.698 305.846 130.755 305.669C130.827 305.448 130.707 305.21 130.487 305.136L123.154 302.721C122.934 302.648 122.695 302.768 122.621 302.989C122.549 303.21 122.669 303.448 122.89 303.522L130.222 305.937C130.268 305.951 130.311 305.958 130.355 305.958Z" fill="#2E3543"/>
<path d="M225.305 152.314C224.554 151.524 171.047 128.408 149.177 123.492C127.306 118.575 119.157 118.529 111.714 131.028C104.272 143.527 147.563 211.729 147.563 211.729L239.66 187.723L225.305 152.314Z" fill="#2E3543"/>
<path d="M173.474 178.654C173.531 178.654 173.59 178.643 173.645 178.618C173.858 178.523 173.954 178.273 173.858 178.06C163.571 155.098 146.585 138.69 146.415 138.526C146.248 138.364 145.979 138.37 145.819 138.539C145.657 138.707 145.663 138.975 145.833 139.135C146.002 139.297 162.87 155.597 173.089 178.405C173.159 178.561 173.314 178.654 173.474 178.654Z" fill="white"/>
<path d="M269.082 182.863C269.082 182.863 266.658 207.722 261.282 212.89C255.905 218.061 191.396 212.89 191.396 212.89C191.396 212.89 186.27 221.289 182.92 243.736C179.57 266.184 175.833 296.404 170.284 303.776L121.98 293.347C121.98 293.347 138.002 197.19 149.129 184.112C160.257 171.034 241.22 168.981 241.22 168.981L269.082 182.863Z" fill="#2E3543"/>
<path d="M143.54 196.331C143.715 196.331 143.877 196.222 143.938 196.047C145.963 190.227 147.816 186.304 149.448 184.388C153.217 179.959 169.915 175.923 197.735 172.716C197.965 172.689 198.133 172.48 198.106 172.249C198.079 172.017 197.866 171.853 197.64 171.878C169.202 175.156 152.771 179.182 148.806 183.842C147.107 185.839 145.201 189.852 143.142 195.771C143.066 195.992 143.182 196.232 143.401 196.308C143.449 196.323 143.494 196.331 143.54 196.331Z" fill="white"/>
<path d="M179.678 101.479C181.392 100.226 183.805 100.662 184.97 102.437C190.99 111.612 207.643 137.027 207.839 137.656L199.494 138.833L178.743 106.482C177.684 104.827 178.093 102.637 179.678 101.479Z" fill="white"/>
<path d="M199.494 139.253C199.513 139.253 199.534 139.251 199.553 139.249L207.898 138.073C208.02 138.055 208.13 137.985 208.195 137.88C208.262 137.775 208.279 137.648 208.241 137.53C208.048 136.918 195.671 117.983 185.323 102.206C184.696 101.25 183.733 100.612 182.607 100.408C181.482 100.205 180.352 100.464 179.429 101.14C177.667 102.427 177.21 104.872 178.389 106.708L199.139 139.059C199.218 139.181 199.351 139.253 199.494 139.253ZM207.165 137.324L199.703 138.375L179.099 106.251C178.162 104.791 178.526 102.842 179.928 101.818C180.663 101.281 181.562 101.073 182.459 101.235C183.354 101.397 184.119 101.905 184.618 102.665C197.344 122.068 205.557 134.692 207.165 137.324Z" fill="#2E3543"/>
<path d="M293.122 178.08C293.122 178.08 301.789 165.965 298.241 138.831C294.691 111.697 286.009 97.6113 276.923 94.3928C267.839 91.1743 230.47 97.0514 227.552 142.642L293.122 178.08Z" fill="white"/>
<path d="M293.122 178.502C293.253 178.502 293.382 178.439 293.464 178.325C293.552 178.203 302.189 165.763 298.658 138.776C295.42 114.031 287.549 97.7102 277.063 93.9946C272.207 92.2749 259.853 93.1414 248.758 100.462C239.742 106.412 228.672 118.552 227.131 142.615C227.119 142.779 227.207 142.935 227.352 143.013L292.922 178.451C292.984 178.485 293.053 178.502 293.122 178.502ZM271.481 94.0727C273.677 94.0727 275.502 94.3374 276.782 94.7907C281.428 96.4361 285.75 100.948 289.282 107.836C293.272 115.62 296.146 126.065 297.822 138.886C301.004 163.211 294.253 175.472 292.981 177.525L227.99 142.402C229.572 118.865 240.399 106.99 249.222 101.169C257.118 95.9562 265.623 94.0727 271.481 94.0727Z" fill="#2E3543"/>
<path d="M267.012 158.903C267.231 158.903 267.416 158.734 267.433 158.511L269.232 133.064C269.25 132.832 269.074 132.63 268.842 132.613C268.61 132.596 268.408 132.771 268.393 133.003L266.593 158.45C266.576 158.682 266.751 158.884 266.983 158.902C266.991 158.903 267 158.903 267.012 158.903Z" fill="#2E3543"/>
<path d="M296.278 171.102C296.278 171.102 293.13 193.891 261.28 186.263C229.432 178.636 212.827 149.03 212.827 149.03C212.827 149.03 194.284 145.067 194.914 133.034C194.914 133.034 201.121 134.699 206.4 133.034C211.679 131.37 217.39 133.072 219.588 135.133C234.648 149.256 282.751 153.492 296.278 171.102Z" fill="white"/>
<path d="M273.312 188.251C279.239 188.251 284.219 186.889 288.197 184.172C295.51 179.176 296.649 171.483 296.695 171.157C296.71 171.044 296.68 170.932 296.611 170.843C289.167 161.153 271.537 155.523 254.489 150.079C240.183 145.51 226.669 141.194 219.876 134.822C217.388 132.489 211.481 130.988 206.272 132.63C201.17 134.237 195.084 132.642 195.023 132.624C194.899 132.592 194.769 132.617 194.665 132.691C194.562 132.765 194.499 132.883 194.491 133.011C193.878 144.75 210.489 148.926 212.553 149.399C213.221 150.543 217.394 157.462 224.806 165.078C232.264 172.741 244.629 182.707 261.179 186.67C265.58 187.725 269.629 188.251 273.312 188.251ZM295.832 171.214C295.621 172.368 294.132 179.108 287.712 183.486C281.465 187.744 272.606 188.541 261.381 185.853C230.074 178.356 213.364 149.119 213.199 148.824C213.14 148.719 213.037 148.643 212.919 148.618C212.74 148.58 195.266 144.706 195.324 133.567C196.94 133.931 202.02 134.858 206.529 133.438C211.725 131.8 217.286 133.548 219.302 135.441C226.235 141.943 239.836 146.287 254.235 150.884C271.073 156.26 288.481 161.821 295.832 171.214Z" fill="#2E3543"/>
<path d="M206.255 138.598C206.769 138.598 207.3 138.587 207.856 138.566C208.088 138.557 208.269 138.36 208.26 138.128C208.25 137.896 208.069 137.715 207.822 137.724C198.528 138.1 195.357 135.022 195.327 134.991C195.163 134.828 194.896 134.826 194.731 134.988C194.565 135.151 194.561 135.416 194.723 135.582C194.851 135.709 197.77 138.598 206.255 138.598Z" fill="#2E3543"/>
<path d="M207.22 143.008C207.426 143.008 207.634 143.006 207.847 143.002C208.079 142.999 208.266 142.806 208.26 142.572C208.256 142.34 208.058 142.155 207.83 142.159C199.728 142.307 197.113 139.435 197.089 139.407C196.934 139.232 196.668 139.213 196.493 139.367C196.317 139.519 196.298 139.786 196.453 139.963C196.567 140.089 199.21 143.008 207.22 143.008Z" fill="#2E3543"/>
<path d="M262.44 73.2766C262.68 73.7146 272.867 91.1268 272.867 91.1268L279.892 95.8479C277.3 97.8171 272.722 100.78 266.319 102.479C259.787 104.21 254.241 103.858 250.996 103.409C251.278 102.521 251.752 101.365 252.575 100.158C253.872 98.2533 255.418 97.1201 256.407 96.5145C254.31 92.9132 252.213 89.3138 250.116 85.7125L262.44 73.2766Z" fill="white"/>
<path d="M256.372 104.202C259.757 104.202 263.12 103.762 266.428 102.886C271.419 101.562 276.036 99.3076 280.149 96.1844C280.258 96.1025 280.319 95.973 280.315 95.8359C280.311 95.7006 280.241 95.573 280.128 95.4988L273.183 90.831C272.417 89.5226 263.036 73.4854 262.809 73.074C262.745 72.9578 262.63 72.8779 262.499 72.8588C262.368 72.8398 262.234 72.8855 262.141 72.9788L249.817 85.4148C249.682 85.55 249.657 85.7595 249.753 85.9233L255.837 96.3729C254.399 97.3175 253.184 98.5097 252.226 99.9171C251.524 100.949 250.975 102.079 250.594 103.276C250.556 103.395 250.573 103.524 250.64 103.629C250.707 103.734 250.815 103.804 250.939 103.821C252.75 104.076 254.565 104.202 256.372 104.202ZM279.165 95.8663C275.261 98.7401 270.905 100.827 266.211 102.071C261.41 103.343 256.485 103.675 251.56 103.056C251.903 102.113 252.36 101.22 252.922 100.393C253.889 98.9706 255.136 97.786 256.626 96.8719C256.822 96.7519 256.885 96.4986 256.769 96.3005L250.642 85.7785L262.349 73.9653C263.986 76.7839 272.122 90.692 272.501 91.3395C272.533 91.3947 272.577 91.4404 272.631 91.4766L279.165 95.8663Z" fill="#2E3543"/>
<path d="M231.591 62.1524C236.288 58.2959 241.824 62.3219 247.307 57.5931C249.819 55.4259 250.049 53.3805 253.066 52.1941C255.064 51.4094 258.617 50.8686 260.983 52.674C263.995 54.9726 261.779 58.5549 264.222 66.5897C265.938 72.2325 268.317 74.6874 266.982 76.6661C265.631 78.6676 262.493 77.2069 260.853 79.2828C258.732 81.968 262.601 86.1711 261.396 89.9648C260.567 92.5719 256.604 96.2951 246.642 97.5406C246.092 95.9428 244.77 92.7795 243.909 89.6867C241.214 80.0065 242.683 76.3023 240.26 75.0511C236.549 73.1353 232.071 79.0523 229.314 77.266C226.447 75.413 226.769 66.1117 231.591 62.1524Z" fill="#2E3543"/>
<path d="M251.054 66.8905L250.115 69.7338C250.115 69.7338 253.762 78.679 254.416 82.0574C255.067 85.4359 244.756 88.2469 244.756 88.2469L243.138 87.0471L240.258 87.767C240.258 87.767 240.346 77.921 237.708 71.3564C237.708 71.3583 242.576 65.4527 251.054 66.8905Z" fill="white"/>
<path d="M250.695 67.1076C250.322 67.9665 249.99 68.753 249.716 69.6024C249.684 69.7015 249.69 69.8043 249.726 69.8938C250.51 71.8325 251.264 73.7884 251.988 75.7518C252.695 77.7153 253.413 79.6978 253.902 81.6899L253.986 82.0612C254.018 82.1908 254.007 82.265 254.024 82.3679C254.007 82.5621 253.98 82.7602 253.879 82.9544C253.7 83.3448 253.378 83.7105 253.013 84.0342C252.272 84.6818 251.373 85.1979 250.455 85.6568C248.608 86.5614 246.629 87.268 244.647 87.8412L245.008 87.9098L243.392 86.71L243.365 86.6928C243.266 86.6243 243.144 86.609 243.037 86.6395L240.19 87.4832L240.554 87.7707C240.563 86.3653 240.512 84.9731 240.426 83.5772C240.339 82.1831 240.207 80.7891 240.032 79.4008C239.845 78.0124 239.611 76.6298 239.312 75.2567C238.994 73.8874 238.608 72.5295 238.103 71.2021L238.036 71.6268C238.796 70.7756 239.746 69.9985 240.742 69.3625C241.742 68.7188 242.82 68.1931 243.95 67.8256C245.075 67.4561 246.244 67.1952 247.433 67.1381C248.025 67.0695 248.619 67.1095 249.213 67.119C249.541 67.1152 249.726 67.1685 249.962 67.159C250.185 67.159 250.425 67.1285 250.695 67.1076ZM251.417 66.6734C251.08 66.5782 250.712 66.4772 250.331 66.403C249.96 66.3325 249.539 66.2677 249.253 66.2773C248.625 66.2658 247.996 66.2259 247.37 66.2963C246.113 66.3592 244.869 66.6334 243.677 67.0257C242.479 67.4161 241.339 67.9703 240.283 68.6521C239.221 69.3377 238.253 70.1147 237.383 71.0898C237.282 71.2021 237.259 71.3564 237.307 71.4878L237.316 71.5145C237.821 72.7809 238.219 74.0969 238.55 75.4319C238.865 76.7726 239.116 78.1305 239.322 79.496C239.516 80.8653 239.666 82.2403 239.775 83.621C239.882 84.9998 239.954 86.3881 239.965 87.765C239.965 87.9288 240.101 88.0621 240.264 88.0602C240.287 88.0602 240.31 88.0564 240.331 88.0526L243.241 87.4565L242.887 87.3861L244.506 88.5859L244.511 88.5897C244.618 88.6677 244.751 88.6868 244.869 88.6544C246.917 88.0621 248.907 87.3537 250.83 86.4129C251.786 85.933 252.729 85.4016 253.571 84.6665C253.986 84.2952 254.386 83.8686 254.649 83.3029C254.788 83.0268 254.852 82.6992 254.868 82.3717C254.852 82.2155 254.845 82.0232 254.812 81.8975L254.723 81.5013C254.211 79.416 253.491 77.4449 252.779 75.4624C252.051 73.4875 251.295 71.5278 250.507 69.5758L250.516 69.8671C250.87 68.8197 251.165 67.7094 251.417 66.6734Z" fill="#2E3543"/>
<path d="M254.539 74.7895C254.539 74.7895 253.636 68.2515 256.699 68.4705C259.761 68.6876 260.572 75.9112 254.539 74.7895Z" fill="white"/>
<path d="M255.749 75.3306C257.335 75.3306 258.228 74.6754 258.72 74.0546C259.691 72.8281 259.605 71.1027 259.091 69.9334C258.602 68.8231 257.718 68.1184 256.728 68.048C256.053 68.0004 255.49 68.2156 255.048 68.6898C253.517 70.3257 254.096 74.6621 254.12 74.8468C254.145 75.0277 254.282 75.1706 254.461 75.2029C254.934 75.2925 255.362 75.3306 255.749 75.3306ZM256.552 68.8859C256.59 68.8859 256.629 68.8878 256.669 68.8897C257.352 68.9393 257.954 69.442 258.32 70.2724C258.733 71.2093 258.811 72.5786 258.059 73.529C257.432 74.3193 256.352 74.6259 254.92 74.4221C254.779 73.0928 254.703 70.2895 255.665 69.263C255.903 69.0116 256.194 68.8859 256.552 68.8859Z" fill="#2E3543"/>
<path d="M231.67 259.584C233.717 255.371 233.912 251.128 231.67 246.839L233.279 244.91L277.283 246.357L275.767 260.336L233.173 260.827L231.67 259.584Z" fill="white"/>
<path d="M233.17 261.248C233.172 261.248 233.174 261.248 233.176 261.248L275.77 260.757C275.984 260.755 276.161 260.593 276.186 260.38L277.701 246.401C277.715 246.285 277.677 246.167 277.601 246.079C277.524 245.99 277.414 245.938 277.296 245.935L233.292 244.487C233.164 244.483 233.037 244.539 232.955 244.64L231.346 246.569C231.237 246.7 231.216 246.883 231.296 247.033C233.389 251.037 233.387 255.082 231.29 259.397C231.205 259.572 231.25 259.782 231.401 259.906L232.901 261.149C232.978 261.214 233.073 261.248 233.17 261.248ZM275.386 259.919L233.32 260.405L232.191 259.469C234.197 255.154 234.191 250.926 232.172 246.896L233.471 245.339L276.814 246.765L275.386 259.919Z" fill="#2458A4"/>
<path d="M312.526 243.372H254.532H230.854C229.9 243.372 229.125 244.145 229.125 245.101C229.125 246.055 229.898 246.83 230.854 246.83H268.402C271.152 246.83 273.38 249.058 273.38 251.808V254.608C273.38 257.358 271.152 259.586 268.402 259.586H230.854C229.9 259.586 229.125 260.359 229.125 261.315C229.125 262.269 229.898 263.044 230.854 263.044H312.526C317.596 263.044 321.706 258.935 321.706 253.865V252.555C321.706 247.481 317.596 243.372 312.526 243.372Z" fill="white"/>
<path d="M230.854 263.463H312.526C317.821 263.463 322.126 259.155 322.126 253.863V252.553C322.126 247.258 317.819 242.952 312.526 242.952H230.854C229.668 242.952 228.704 243.918 228.704 245.102C228.704 246.289 229.67 247.253 230.854 247.253H268.402C270.914 247.253 272.96 249.296 272.96 251.81V254.609C272.96 257.121 270.916 259.167 268.402 259.167H230.854C229.668 259.167 228.704 260.132 228.704 261.317C228.704 262.498 229.668 263.463 230.854 263.463ZM312.526 243.792C317.356 243.792 321.283 247.721 321.283 252.551V253.861C321.283 258.691 317.354 262.619 312.526 262.619H230.854C230.135 262.619 229.548 262.033 229.548 261.313C229.548 260.593 230.135 260.007 230.854 260.007H268.402C271.379 260.007 273.803 257.584 273.803 254.606V251.806C273.803 248.827 271.381 246.405 268.402 246.405H230.854C230.135 246.405 229.548 245.818 229.548 245.099C229.548 244.379 230.135 243.792 230.854 243.792H312.526Z" fill="#2458A4"/>
<path d="M233.282 253.04H258.063C258.295 253.04 258.484 252.851 258.484 252.619C258.484 252.387 258.295 252.198 258.063 252.198H233.28C233.048 252.198 232.859 252.387 232.859 252.619C232.859 252.849 233.048 253.04 233.282 253.04Z" fill="#2458A4"/>
<path d="M233.124 256.771H253.267C253.5 256.771 253.688 256.582 253.688 256.35C253.688 256.117 253.5 255.929 253.267 255.929H233.124C232.892 255.929 232.703 256.117 232.703 256.35C232.703 256.582 232.892 256.771 233.124 256.771Z" fill="#2458A4"/>
<path d="M228.504 283.366H302.276V265.293H228.506C230.683 271.397 230.742 277.422 228.504 283.366Z" fill="white"/>
<path d="M228.504 283.787H302.276C302.509 283.787 302.697 283.598 302.697 283.366V265.293C302.697 265.06 302.509 264.872 302.276 264.872H228.504C228.367 264.872 228.239 264.939 228.159 265.051C228.081 265.163 228.06 265.306 228.106 265.436C230.268 271.497 230.27 277.481 228.108 283.219C228.059 283.349 228.078 283.493 228.156 283.608C228.238 283.718 228.367 283.787 228.504 283.787ZM301.854 282.943H229.106C231.066 277.367 231.064 271.575 229.096 265.714H301.854V282.943Z" fill="#2458A4"/>
<path d="M293.394 266.184H227.996C227.209 266.184 226.571 265.546 226.571 264.76C226.571 263.973 227.209 263.335 227.996 263.335H312.861C316.318 263.335 319.119 266.136 319.119 269.593V279.431C319.119 282.888 316.318 285.689 312.861 285.689H227.998C227.211 285.689 226.573 285.051 226.573 284.265C226.573 283.478 227.211 282.84 227.998 282.84H293.396C295.837 282.84 297.816 280.862 297.816 278.42V270.604C297.816 268.163 295.837 266.184 293.394 266.184Z" fill="white"/>
<path d="M227.998 286.11H312.861C316.545 286.11 319.54 283.114 319.54 279.431V269.593C319.54 265.91 316.545 262.914 312.861 262.914H227.998C226.981 262.914 226.152 263.742 226.152 264.759C226.152 265.776 226.981 266.605 227.998 266.605H293.394C295.6 266.605 297.394 268.399 297.394 270.604V278.42C297.394 280.625 295.6 282.419 293.394 282.419H227.998C226.981 282.419 226.152 283.248 226.152 284.265C226.152 285.282 226.981 286.11 227.998 286.11ZM312.861 263.758C316.08 263.758 318.697 266.376 318.697 269.595V279.433C318.697 282.652 316.078 285.27 312.861 285.27H227.998C227.446 285.27 226.996 284.821 226.996 284.268C226.996 283.716 227.446 283.267 227.998 283.267H293.394C296.064 283.267 298.237 281.094 298.237 278.424V270.608C298.237 267.938 296.064 265.765 293.394 265.765H227.998C227.446 265.765 226.996 265.315 226.996 264.763C226.996 264.211 227.446 263.761 227.998 263.761H312.861V263.758Z" fill="#2458A4"/>
<path d="M229.809 270.005H240.702C240.935 270.005 241.123 269.816 241.123 269.584C241.123 269.352 240.935 269.163 240.702 269.163H229.809C229.576 269.163 229.388 269.352 229.388 269.584C229.388 269.816 229.576 270.005 229.809 270.005Z" fill="#2458A4"/>
<path d="M230.039 272.417H263.588C263.82 272.417 264.009 272.228 264.009 271.996C264.009 271.764 263.82 271.575 263.588 271.575H230.039C229.807 271.575 229.618 271.764 229.618 271.996C229.618 272.228 229.807 272.417 230.039 272.417Z" fill="#2458A4"/>
<path d="M230.039 277.452H258.905C259.137 277.452 259.326 277.263 259.326 277.031C259.326 276.798 259.137 276.61 258.905 276.61H230.039C229.807 276.61 229.618 276.798 229.618 277.031C229.618 277.263 229.807 277.452 230.039 277.452Z" fill="#2458A4"/>
<path d="M318.83 304.136C316.518 299.377 316.297 294.579 318.83 289.735L317.011 287.554L267.288 289.19L269.002 304.985L317.133 305.539L318.83 304.136Z" fill="white"/>
<path d="M317.133 305.963C317.232 305.963 317.327 305.929 317.402 305.866L319.098 304.462C319.249 304.338 319.295 304.127 319.209 303.954C316.83 299.059 316.83 294.473 319.203 289.933C319.281 289.783 319.262 289.598 319.154 289.469L317.335 287.288C317.251 287.189 317.125 287.134 316.998 287.136L267.275 288.772C267.157 288.775 267.046 288.829 266.97 288.916C266.894 289.006 266.856 289.122 266.869 289.238L268.583 305.034C268.606 305.245 268.785 305.407 268.998 305.411L317.129 305.965C317.129 305.963 317.131 305.963 317.133 305.963ZM318.306 304.022L316.983 305.119L269.379 304.571L267.755 289.6L316.819 287.987L318.325 289.794C316.03 294.352 316.025 299.136 318.306 304.022Z" fill="#2458A4"/>
<path d="M227.463 285.815H292.996H319.752C320.83 285.815 321.706 286.689 321.706 287.769C321.706 288.847 320.831 289.723 319.752 289.723H277.323C274.217 289.723 271.697 292.241 271.697 295.349V298.512C271.697 301.618 274.217 304.138 277.323 304.138H319.752C320.83 304.138 321.706 305.012 321.706 306.092C321.706 307.17 320.831 308.046 319.752 308.046H227.463C221.734 308.046 217.089 303.401 217.089 297.672V296.19C217.089 290.46 221.734 285.815 227.463 285.815Z" fill="white"/>
<path d="M227.463 308.465H319.752C321.062 308.465 322.126 307.401 322.126 306.09C322.126 304.78 321.062 303.715 319.752 303.715H277.323C274.453 303.715 272.12 301.381 272.12 298.513V295.349C272.12 292.479 274.455 290.146 277.323 290.146H319.752C321.062 290.146 322.126 289.082 322.126 287.772C322.126 286.461 321.062 285.397 319.752 285.397H227.463C221.511 285.397 216.668 290.24 216.668 296.191V297.673C216.668 303.622 221.511 308.465 227.463 308.465ZM319.752 304.559C320.595 304.559 321.283 305.247 321.283 306.09C321.283 306.934 320.595 307.622 319.752 307.622H227.463C221.976 307.622 217.512 303.158 217.512 297.671V296.189C217.512 290.702 221.976 286.238 227.463 286.238H319.752C320.595 286.238 321.283 286.926 321.283 287.77C321.283 288.613 320.595 289.301 319.752 289.301H277.323C273.988 289.301 271.276 292.013 271.276 295.347V298.511C271.276 301.845 273.988 304.557 277.323 304.557H319.752V304.559Z" fill="#2458A4"/>
<path d="M294.247 296.686H317.009C317.241 296.686 317.43 296.497 317.43 296.265C317.43 296.032 317.241 295.844 317.009 295.844H294.247C294.015 295.844 293.826 296.032 293.826 296.265C293.826 296.497 294.015 296.686 294.247 296.686Z" fill="#2458A4"/>
<path d="M289.363 300.904H317.185C317.417 300.904 317.605 300.716 317.605 300.483C317.605 300.251 317.417 300.062 317.185 300.062H289.363C289.13 300.062 288.942 300.251 288.942 300.483C288.942 300.716 289.13 300.904 289.363 300.904Z" fill="#2458A4"/>
<path d="M85.7552 220.451C81.4264 223.228 52.9551 239.972 18.8447 223.777C18.7209 223.717 18.6219 223.622 18.5629 223.498C17.2469 220.781 2.72938 188.834 23.6172 143.202C23.7791 142.846 24.2305 142.729 24.5352 142.967C28.3631 145.963 49.9613 162.238 67.0936 161.819C67.4974 161.81 67.7983 162.179 67.6916 162.572C66.4576 167.089 61.6869 190.569 85.8904 219.556C86.1209 219.834 86.0618 220.253 85.7552 220.451Z" fill="white"/>
<path d="M48.9844 231.181C53.8083 231.181 58.6684 230.669 63.5533 229.64C75.5037 227.126 83.7422 222.242 85.9819 220.806C86.2275 220.648 86.3951 220.39 86.4389 220.101C86.4846 219.81 86.4009 219.513 86.2123 219.286C62.1269 190.439 66.8956 167.074 68.0973 162.682C68.183 162.368 68.1182 162.044 67.9183 161.789C67.7164 161.532 67.4079 161.389 67.0822 161.397C50.1518 161.818 28.8887 145.841 24.7942 142.634C24.5485 142.442 24.2343 142.375 23.9296 142.449C23.6192 142.526 23.3659 142.735 23.2326 143.025C14.4626 162.183 10.8004 181.176 12.343 199.478C13.5218 213.468 17.4145 222.095 18.182 223.681C18.2829 223.891 18.4486 224.055 18.6619 224.157C28.5155 228.835 38.6661 231.181 48.9844 231.181ZM67.1089 162.24C67.1889 162.24 67.2346 162.284 67.2555 162.309C67.2784 162.339 67.3032 162.389 67.2841 162.459C66.0634 166.921 61.2109 190.658 85.5667 219.827C85.6143 219.882 85.6124 219.943 85.6086 219.973C85.6048 220.004 85.5876 220.059 85.5286 220.095C83.3195 221.512 75.1932 226.33 63.3819 228.814C48.2378 232 33.3147 230.177 19.0276 223.394C18.9895 223.375 18.9609 223.348 18.9438 223.314C18.1877 221.75 14.3522 213.249 13.1848 199.405C11.6536 181.25 15.293 162.398 24.0001 143.375C24.0344 143.299 24.101 143.274 24.1277 143.268C24.1581 143.261 24.2172 143.255 24.2724 143.299C28.3536 146.494 49.3519 162.246 66.4347 162.248C66.6595 162.248 66.8785 162.246 67.1013 162.24C67.1051 162.24 67.107 162.24 67.1089 162.24Z" fill="#2458A4"/>
<path d="M60.7527 169.703C60.9489 169.703 61.1241 169.565 61.166 169.367C61.2136 169.139 61.0689 168.916 60.8403 168.868C60.6575 168.83 42.3616 164.905 29.0381 155.019C28.8515 154.88 28.5868 154.92 28.4477 155.107C28.3087 155.294 28.3487 155.558 28.5354 155.697C42.0093 165.698 60.4804 169.657 60.6651 169.695C60.6956 169.701 60.7242 169.703 60.7527 169.703Z" fill="#2458A4"/>
<path d="M47.5909 174.459C47.7832 174.459 47.9565 174.325 48.0022 174.131C48.0536 173.904 47.9108 173.678 47.6842 173.626C38.9733 171.648 31.3174 168.422 24.93 164.038C24.7376 163.906 24.4748 163.954 24.3434 164.146C24.212 164.338 24.2615 164.601 24.4519 164.733C30.927 169.178 38.6819 172.446 47.4975 174.449C47.528 174.457 47.5604 174.459 47.5909 174.459Z" fill="#2458A4"/>
<path d="M60.9126 176.287C61.143 176.287 61.3315 176.102 61.3334 175.87C61.3372 175.638 61.1506 175.445 60.9183 175.443C60.8897 175.443 58.094 175.398 53.8204 174.773C53.5881 174.741 53.3767 174.899 53.3424 175.129C53.3081 175.36 53.4681 175.575 53.6986 175.607C58.0331 176.241 60.8783 176.287 60.9068 176.287C60.9088 176.287 60.9107 176.287 60.9126 176.287Z" fill="#2458A4"/>
<path d="M56.8613 183.605C59.6723 183.605 61.3101 183.42 61.3653 183.413C61.5958 183.384 61.7614 183.175 61.7329 182.944C61.7043 182.714 61.4967 182.548 61.2644 182.577C61.0873 182.598 43.2446 184.601 23.2575 174.982C23.048 174.881 22.7948 174.968 22.6938 175.18C22.5929 175.389 22.6805 175.643 22.89 175.743C37.0914 182.575 50.2339 183.605 56.8613 183.605Z" fill="#2458A4"/>
<path d="M51.4133 191.258C58.6368 191.258 63.1579 190.277 63.2494 190.257C63.476 190.205 63.6188 189.98 63.5674 189.752C63.516 189.525 63.2913 189.382 63.0627 189.434C62.8761 189.476 44.2183 193.511 21.8583 184.918C21.6412 184.835 21.3974 184.943 21.3136 185.16C21.2299 185.377 21.3384 185.621 21.5555 185.705C33.165 190.167 43.7917 191.258 51.4133 191.258Z" fill="#2458A4"/>
<path d="M34.8483 200.06C35.0559 200.06 35.2349 199.908 35.2654 199.696C35.2977 199.466 35.1378 199.253 34.9073 199.22C30.411 198.588 26.1279 197.478 22.1762 195.926C21.9591 195.84 21.7153 195.947 21.6296 196.164C21.5439 196.381 21.6505 196.625 21.8676 196.71C25.8803 198.287 30.2281 199.415 34.7893 200.056C34.8083 200.058 34.8292 200.06 34.8483 200.06Z" fill="#2458A4"/>
<path d="M44.3012 200.707C56.2649 200.707 65.4157 197.764 65.5109 197.732C65.7318 197.66 65.8537 197.422 65.7814 197.201C65.709 196.98 65.469 196.86 65.25 196.93C65.151 196.963 55.0918 200.192 42.3111 199.834C42.0673 199.829 41.8845 200.012 41.8769 200.244C41.8712 200.476 42.054 200.67 42.2863 200.678C42.9643 200.697 43.6385 200.707 44.3012 200.707Z" fill="#2458A4"/>
<path d="M122.466 31.4088L81.1626 43.422L51.8476 10.818L122.466 31.4088Z" fill="white"/>
<path d="M81.1622 43.8428C81.2022 43.8428 81.2403 43.8371 81.2803 43.8257L122.584 31.8125C122.765 31.7611 122.888 31.5954 122.888 31.4068C122.888 31.2202 122.765 31.0545 122.584 31.0012L51.9653 10.4104C51.7844 10.3571 51.5901 10.4313 51.4911 10.5913C51.3901 10.7513 51.4092 10.957 51.5349 11.0979L80.8499 43.7C80.9299 43.7933 81.0441 43.8428 81.1622 43.8428ZM120.957 31.4087L81.2993 42.942L53.1518 11.6369L120.957 31.4087Z" fill="#2458A4"/>
<path d="M101.886 50.7931L107.651 35.7195L62.0075 16.4752L100.391 37.8296L91.7567 40.3416L101.886 50.7931Z" fill="white"/>
<path d="M101.887 51.2133C101.915 51.2133 101.944 51.2114 101.971 51.2038C102.112 51.1752 102.228 51.0762 102.279 50.9409L108.044 35.8673C108.126 35.654 108.023 35.416 107.813 35.3284L62.1698 16.084C61.9622 15.9964 61.7242 16.0859 61.627 16.2878C61.528 16.4897 61.6061 16.7315 61.8003 16.842L99.3006 37.7051L91.6371 39.9333C91.4943 39.9752 91.3858 40.0876 91.3477 40.2304C91.3096 40.3732 91.3496 40.5256 91.4524 40.6322L101.582 51.0838C101.664 51.1676 101.774 51.2133 101.887 51.2133ZM107.111 35.9473L101.729 50.023L92.5475 40.5503L100.51 38.2345C100.674 38.1869 100.792 38.046 100.811 37.8765C100.83 37.707 100.746 37.5432 100.598 37.4613L68.9877 19.8758L107.111 35.9473Z" fill="#2458A4"/>
<path d="M101.361 46.6618C101.378 46.6618 101.393 46.6617 101.41 46.6598C101.641 46.6332 101.808 46.4237 101.782 46.1933L100.81 37.7833C100.784 37.5509 100.574 37.3871 100.344 37.4119C100.113 37.4386 99.9458 37.648 99.9724 37.8785L100.944 46.2885C100.967 46.5037 101.149 46.6618 101.361 46.6618Z" fill="#2458A4"/>
<path d="M186.42 322.565C189.248 322.565 192.109 322.487 194.922 322.334C195.154 322.321 195.333 322.123 195.32 321.891C195.306 321.658 195.106 321.481 194.876 321.493C192.078 321.645 189.233 321.723 186.42 321.723C171.876 321.723 157.488 319.681 143.658 315.655C143.435 315.591 143.201 315.718 143.136 315.943C143.071 316.166 143.199 316.4 143.424 316.467C157.33 320.512 171.796 322.565 186.42 322.565Z" fill="#2458A4"/>
<path d="M98.6655 294.947C98.7988 294.947 98.9302 294.884 99.0121 294.768C99.1454 294.577 99.0997 294.314 98.9092 294.181C94.7652 291.279 90.7182 288.133 86.8789 284.832C86.7018 284.68 86.4352 284.701 86.2847 284.876C86.1324 285.053 86.1533 285.32 86.3304 285.47C90.1888 288.79 94.2586 291.953 98.4255 294.87C98.496 294.922 98.5817 294.947 98.6655 294.947Z" fill="#2458A4"/>
<path d="M235.258 24.1966C235.435 24.1966 235.599 24.0862 235.658 23.9091C235.732 23.6882 235.614 23.4482 235.393 23.3739C219.657 18.0834 203.18 15.4019 186.423 15.4019C183.667 15.4019 180.879 15.4762 178.136 15.621C177.904 15.6324 177.725 15.8324 177.738 16.0647C177.75 16.297 177.95 16.476 178.182 16.4627C180.909 16.318 183.682 16.2437 186.424 16.2437C203.092 16.2437 219.478 18.9118 235.127 24.1719C235.169 24.189 235.212 24.1966 235.258 24.1966Z" fill="#2458A4"/>
<path d="M247.947 29.1042C248.109 29.1042 248.263 29.0109 248.334 28.8529C248.427 28.6396 248.33 28.3901 248.117 28.2968C246.342 27.5178 244.527 26.7618 242.725 26.0514C242.508 25.9657 242.264 26.0724 242.179 26.2895C242.093 26.5066 242.199 26.7504 242.417 26.8361C244.209 27.5426 246.012 28.2949 247.778 29.07C247.833 29.0928 247.89 29.1042 247.947 29.1042Z" fill="#2458A4"/>
<path d="M334.719 130.978C334.753 130.978 334.79 130.975 334.824 130.965C335.049 130.906 335.186 130.678 335.127 130.451C332.061 118.586 327.557 107.089 321.737 96.2796C321.626 96.0739 321.371 95.9977 321.165 96.1082C320.96 96.2186 320.883 96.4738 320.994 96.6795C326.781 107.43 331.263 118.862 334.31 130.662C334.361 130.853 334.532 130.978 334.719 130.978Z" fill="#2458A4"/>
<path d="M323.485 237.825C323.639 237.825 323.789 237.739 323.862 237.592C334.57 216.181 340 193.097 340 168.983C340 157.979 338.831 146.996 336.524 136.339C336.475 136.111 336.25 135.968 336.024 136.015C335.795 136.065 335.65 136.29 335.7 136.516C337.995 147.114 339.156 158.038 339.156 168.981C339.156 192.964 333.757 215.92 323.106 237.213C323.001 237.421 323.087 237.674 323.294 237.779C323.357 237.81 323.422 237.825 323.485 237.825Z" fill="#2458A4"/>
<path d="M308.56 102.515C308.634 102.515 308.708 102.496 308.777 102.454C308.977 102.334 309.042 102.075 308.922 101.875C303.671 93.1491 297.436 84.981 290.388 77.5975C290.228 77.428 289.959 77.4223 289.792 77.5841C289.624 77.746 289.616 78.0126 289.778 78.1802C296.785 85.518 302.982 93.6366 308.2 102.309C308.276 102.441 308.415 102.515 308.56 102.515Z" fill="#2458A4"/>
<path d="M315.989 230.175C316.149 230.175 316.303 230.083 316.374 229.927C324.492 211.995 328.61 192.842 328.61 173C328.61 150.712 323.466 129.436 313.321 109.763C313.214 109.555 312.961 109.475 312.753 109.582C312.546 109.689 312.466 109.944 312.572 110.149C322.654 129.702 327.766 150.849 327.766 173.002C327.766 192.724 323.675 211.759 315.606 229.581C315.511 229.792 315.604 230.043 315.816 230.139C315.871 230.163 315.93 230.175 315.989 230.175Z" fill="#2458A4"/>
<path d="M107.121 296.101C107.226 296.101 107.331 296.063 107.413 295.983C107.58 295.821 107.586 295.555 107.426 295.387L105.874 293.766C105.712 293.599 105.445 293.593 105.278 293.753C105.11 293.915 105.104 294.181 105.264 294.349L106.817 295.97C106.9 296.057 107.011 296.101 107.121 296.101Z" fill="#2458A4"/>
<path d="M112.553 301.773C112.657 301.773 112.762 301.735 112.844 301.655C113.012 301.493 113.017 301.227 112.857 301.059L111.305 299.438C111.143 299.271 110.877 299.265 110.709 299.425C110.542 299.587 110.536 299.854 110.696 300.021L112.248 301.642C112.332 301.729 112.442 301.773 112.553 301.773Z" fill="#2458A4"/>
<path d="M111.031 296.189C111.138 296.189 111.245 296.149 111.326 296.067L112.901 294.517C113.067 294.353 113.069 294.087 112.905 293.921C112.741 293.755 112.475 293.754 112.309 293.917L110.734 295.468C110.568 295.631 110.567 295.898 110.73 296.064C110.812 296.147 110.923 296.189 111.031 296.189Z" fill="#2458A4"/>
<path d="M105.516 301.614C105.623 301.614 105.729 301.574 105.811 301.492L107.386 299.942C107.552 299.778 107.554 299.512 107.39 299.346C107.226 299.18 106.96 299.178 106.794 299.342L105.219 300.892C105.053 301.056 105.051 301.323 105.215 301.488C105.299 301.572 105.408 301.614 105.516 301.614Z" fill="#2458A4"/>
<path d="M41.704 140.133C41.8087 140.133 41.9135 140.095 41.9954 140.015C42.163 139.853 42.1687 139.586 42.0087 139.419L40.4566 137.798C40.2947 137.63 40.0281 137.625 39.8605 137.785C39.6929 137.946 39.6872 138.213 39.8472 138.381L41.3993 140.001C41.4831 140.089 41.5935 140.133 41.704 140.133Z" fill="#2458A4"/>
<path d="M47.1359 145.803C47.2406 145.803 47.3454 145.765 47.4273 145.685C47.5949 145.523 47.6006 145.256 47.4406 145.089L45.8885 143.468C45.7266 143.3 45.46 143.295 45.2924 143.455C45.1248 143.617 45.1191 143.883 45.2791 144.051L46.8312 145.671C46.915 145.759 47.0254 145.803 47.1359 145.803Z" fill="#2458A4"/>
<path d="M45.614 140.219C45.7206 140.219 45.8273 140.179 45.9092 140.097L47.4842 138.547C47.6499 138.383 47.6517 138.116 47.488 137.951C47.3242 137.785 47.0576 137.783 46.8919 137.947L45.3169 139.497C45.1512 139.661 45.1493 139.927 45.3131 140.093C45.395 140.177 45.5054 140.219 45.614 140.219Z" fill="#2458A4"/>
<path d="M40.0994 145.646C40.206 145.646 40.3126 145.606 40.3945 145.524L41.9695 143.974C42.1352 143.81 42.1371 143.544 41.9733 143.378C41.8095 143.212 41.5429 143.21 41.3772 143.374L39.8023 144.924C39.6366 145.088 39.6347 145.355 39.7985 145.52C39.8823 145.604 39.9908 145.646 40.0994 145.646Z" fill="#2458A4"/>
<path d="M211.839 122.036C211.955 122.036 212.071 121.988 212.155 121.893C213.292 120.613 214.099 119.057 214.556 117.269C214.613 117.043 214.478 116.814 214.252 116.757C214.025 116.7 213.796 116.835 213.739 117.062C213.316 118.718 212.57 120.156 211.524 121.335C211.37 121.508 211.385 121.775 211.561 121.931C211.639 122.002 211.738 122.036 211.839 122.036ZM214.547 112.563C214.556 112.563 214.566 112.563 214.573 112.563C214.806 112.548 214.983 112.348 214.968 112.116C214.867 110.533 214.583 108.831 214.122 107.05C214.063 106.825 213.834 106.688 213.608 106.747C213.383 106.806 213.246 107.037 213.305 107.261C213.753 108.989 214.029 110.64 214.126 112.169C214.139 112.39 214.326 112.563 214.547 112.563ZM212.117 102.775C212.168 102.775 212.221 102.765 212.275 102.744C212.49 102.656 212.595 102.411 212.509 102.196C211.89 100.655 211.166 99.0971 210.359 97.5659C210.25 97.3602 209.995 97.2802 209.789 97.3888C209.584 97.4973 209.504 97.7525 209.612 97.9582C210.406 99.4646 211.119 100.996 211.726 102.51C211.793 102.674 211.951 102.775 212.117 102.775ZM207.401 93.8294C207.481 93.8294 207.563 93.8065 207.636 93.7589C207.83 93.6294 207.881 93.3685 207.752 93.1743C206.975 92.0087 206.198 90.967 205.445 90.0738C205.173 89.7501 204.899 89.4339 204.619 89.1254C204.463 88.9521 204.196 88.9388 204.023 89.095C203.849 89.2511 203.836 89.5177 203.992 89.691C204.265 89.9939 204.535 90.3043 204.802 90.6185C205.533 91.4869 206.291 92.5058 207.051 93.6447C207.131 93.7646 207.266 93.8294 207.401 93.8294ZM200.68 86.3088C200.8 86.3088 200.919 86.2574 201.002 86.1602C201.153 85.9831 201.13 85.7165 200.953 85.566C199.665 84.4767 198.281 83.4559 196.837 82.5304C196.641 82.4047 196.38 82.4618 196.255 82.658C196.129 82.8541 196.186 83.115 196.382 83.2407C197.795 84.1453 199.149 85.1451 200.408 86.2097C200.486 86.2764 200.583 86.3088 200.68 86.3088ZM192.191 80.8507C192.349 80.8507 192.499 80.763 192.571 80.6107C192.672 80.4012 192.583 80.1479 192.373 80.0489C190.884 79.3347 189.298 78.6796 187.66 78.1006C187.441 78.0226 187.199 78.1387 187.121 78.3577C187.043 78.5767 187.159 78.8186 187.378 78.8967C188.987 79.4661 190.545 80.1098 192.008 80.8107C192.067 80.8373 192.13 80.8507 192.191 80.8507ZM182.68 77.4607C182.868 77.4607 183.04 77.3331 183.089 77.1427C183.146 76.9161 183.009 76.6875 182.785 76.6304C181.204 76.2286 179.53 75.8705 177.808 75.5658C177.58 75.5258 177.361 75.6782 177.319 75.9086C177.279 76.1372 177.431 76.3562 177.662 76.3981C179.362 76.699 181.017 77.0513 182.577 77.4493C182.609 77.4569 182.644 77.4607 182.68 77.4607ZM172.725 75.6782C172.937 75.6782 173.119 75.5201 173.144 75.3049C173.171 75.0745 173.005 74.865 172.775 74.8364C171.175 74.6517 169.472 74.4936 167.715 74.3718C167.482 74.3546 167.28 74.5298 167.265 74.7641C167.25 74.9983 167.423 75.1983 167.656 75.2135C169.402 75.3354 171.091 75.4897 172.678 75.6744C172.693 75.6763 172.71 75.6782 172.725 75.6782ZM137.32 75.1088C137.322 75.1088 137.322 75.1088 137.324 75.1088C139.221 75.0916 141.03 75.0421 142.393 75.0021C142.626 74.9945 142.808 74.8003 142.803 74.5679C142.795 74.3356 142.607 74.1566 142.369 74.1585C141.009 74.1984 139.207 74.248 137.316 74.2651C137.084 74.267 136.895 74.4574 136.899 74.6917C136.901 74.9221 137.089 75.1088 137.32 75.1088ZM132.258 75.065C132.485 75.065 132.673 74.884 132.679 74.6555C132.686 74.4232 132.502 74.2289 132.269 74.2213C130.466 74.168 128.818 74.0747 127.236 73.9337C127.002 73.9128 126.8 74.0842 126.779 74.3165C126.758 74.5489 126.929 74.7526 127.162 74.7736C128.761 74.9145 130.422 75.0097 132.243 75.0631C132.248 75.065 132.254 75.065 132.258 75.065ZM162.626 74.9526C162.853 74.9526 163.039 74.7736 163.047 74.545C163.055 74.3127 162.874 74.1166 162.641 74.1089C161.076 74.0537 159.417 74.0137 157.57 73.989C157.568 73.989 157.566 73.989 157.564 73.989C157.334 73.989 157.145 74.1737 157.143 74.406C157.139 74.6384 157.326 74.8307 157.56 74.8326C159.4 74.8574 161.053 74.8955 162.613 74.9526C162.617 74.9526 162.622 74.9526 162.626 74.9526ZM147.44 74.8479C147.444 74.8479 147.448 74.8479 147.451 74.8479C148.766 74.8136 149.8 74.7964 150.708 74.7964L150.788 74.3756V74.7964L152.502 74.7983C152.734 74.7983 152.923 74.6098 152.923 74.3775C152.923 74.1451 152.734 73.9547 152.502 73.9547L150.788 73.9528H150.708C149.794 73.9528 148.752 73.968 147.431 74.0042C147.198 74.0099 147.013 74.2042 147.019 74.4365C147.025 74.665 147.212 74.8479 147.44 74.8479ZM122.18 74.128C122.381 74.128 122.559 73.9832 122.595 73.7795C122.635 73.5509 122.482 73.3319 122.252 73.2919C120.504 72.9853 118.866 72.5968 117.38 72.1378C117.158 72.0693 116.921 72.1931 116.853 72.4159C116.784 72.6387 116.908 72.8749 117.131 72.9434C118.651 73.4138 120.323 73.8099 122.105 74.1223C122.13 74.1261 122.155 74.128 122.18 74.128ZM112.577 71.0523C112.728 71.0523 112.875 70.9704 112.951 70.8276C113.059 70.6219 112.981 70.3667 112.775 70.2582C111.241 69.445 109.888 68.487 108.753 67.4129C108.584 67.253 108.317 67.2606 108.157 67.4301C107.997 67.5996 108.005 67.8662 108.174 68.0262C109.365 69.1517 110.78 70.1553 112.381 71.0047C112.442 71.0371 112.511 71.0523 112.577 71.0523ZM105.419 64.1373C105.485 64.1373 105.552 64.1221 105.615 64.0878C105.82 63.9792 105.9 63.724 105.79 63.5184C105.053 62.1224 104.516 60.5608 104.194 58.8773C104.15 58.6487 103.929 58.4983 103.701 58.5421C103.472 58.5859 103.322 58.8068 103.366 59.0353C103.705 60.8007 104.268 62.4405 105.043 63.9107C105.12 64.0554 105.266 64.1373 105.419 64.1373Z" fill="#2458A4"/>
</svg>
