<svg width="101" height="25" viewBox="0 0 101 25" fill="none" xmlns="http://www.w3.org/2000/svg">
<g clip-path="url(#clip0_1008_1456)">
<path d="M26.5456 8.51257H36.577V10.3601H32.6327V20.7458H30.4637V10.3601H26.5369V8.51257H26.5456ZM36.1485 11.8881H38.0026V13.5975H38.0375C38.0988 13.3558 38.2125 13.1227 38.3786 12.8982C38.5448 12.6738 38.7459 12.4579 38.9821 12.2766C39.2182 12.0867 39.4806 11.9399 39.7692 11.8191C40.0578 11.7068 40.3552 11.6464 40.6525 11.6464C40.8799 11.6464 41.0461 11.655 41.1335 11.6637C41.221 11.6723 41.3085 11.6896 41.4047 11.6982V13.5802C41.2647 13.5543 41.1248 13.5371 40.9761 13.5198C40.8274 13.5025 40.6875 13.4939 40.5476 13.4939C40.2152 13.4939 39.9004 13.563 39.603 13.6925C39.3057 13.822 39.0521 14.0205 38.8334 14.2709C38.6148 14.5299 38.4398 14.8407 38.3087 15.2205C38.1775 15.6004 38.1163 16.0321 38.1163 16.5241V20.7371H36.1397V11.8881H36.1485ZM50.4915 20.7458H48.5499V19.5112H48.515C48.2701 19.9601 47.9115 20.3141 47.4305 20.5817C46.9495 20.8494 46.4597 20.9875 45.9612 20.9875C44.7805 20.9875 43.9234 20.7026 43.3987 20.1242C42.8739 19.5458 42.6116 18.6738 42.6116 17.5083V11.8881H44.5881V17.3184C44.5881 18.0954 44.7368 18.6479 45.0429 18.9673C45.3403 19.2868 45.7688 19.4508 46.311 19.4508C46.7308 19.4508 47.0719 19.3904 47.3518 19.2609C47.6316 19.1314 47.859 18.9673 48.0252 18.7515C48.2001 18.5443 48.3226 18.2853 48.4013 17.9918C48.48 17.6983 48.515 17.3788 48.515 17.0335V11.8968H50.4915V20.7458ZM53.8586 17.9055C53.9198 18.4752 54.1385 18.8724 54.5146 19.1055C54.8994 19.3299 55.3542 19.4508 55.8876 19.4508C56.0713 19.4508 56.2812 19.4335 56.5173 19.4076C56.7535 19.3817 56.9809 19.3213 57.182 19.2436C57.3919 19.1659 57.5581 19.045 57.698 18.8896C57.8292 18.7342 57.8904 18.5357 57.8817 18.2853C57.8729 18.0349 57.7767 17.8278 57.6018 17.6724C57.4269 17.5083 57.2083 17.3875 56.9371 17.2839C56.666 17.1889 56.3599 17.1026 56.0101 17.0335C55.6603 16.9644 55.3104 16.8867 54.9518 16.809C54.5845 16.7313 54.2259 16.6277 53.8849 16.5155C53.5438 16.4033 53.2377 16.2479 52.9666 16.0493C52.6954 15.8594 52.4768 15.609 52.3194 15.3069C52.1532 15.0047 52.0745 14.6335 52.0745 14.1846C52.0745 13.7011 52.1969 13.304 52.4331 12.9759C52.6692 12.6479 52.9753 12.3889 53.3339 12.1903C53.7012 11.9917 54.1035 11.8536 54.5495 11.7673C54.9956 11.6896 55.4241 11.6464 55.8264 11.6464C56.2899 11.6464 56.736 11.6982 57.1558 11.7932C57.5756 11.8881 57.9604 12.0435 58.3015 12.268C58.6426 12.4838 58.9224 12.7687 59.1498 13.114C59.3772 13.4594 59.5171 13.8824 59.5784 14.3745H57.5144C57.4182 13.9083 57.2083 13.5889 56.8672 13.4335C56.5261 13.2694 56.1325 13.1917 55.6952 13.1917C55.5553 13.1917 55.3891 13.2004 55.1967 13.2263C55.0043 13.2522 54.8294 13.2953 54.6545 13.3558C54.4883 13.4162 54.3484 13.5112 54.2259 13.632C54.1123 13.7529 54.051 13.9083 54.051 14.1069C54.051 14.3486 54.1385 14.5385 54.3047 14.6853C54.4708 14.832 54.6895 14.9529 54.9606 15.0565C55.2317 15.1515 55.5378 15.2378 55.8876 15.3069C56.2375 15.3759 56.5961 15.4536 56.9634 15.5313C57.3219 15.609 57.6718 15.7126 58.0216 15.8249C58.3714 15.9371 58.6775 16.0925 58.9487 16.2911C59.2198 16.4896 59.4384 16.7313 59.6046 17.0249C59.7708 17.3184 59.8582 17.6896 59.8582 18.1213C59.8582 18.6479 59.7358 19.0882 59.4909 19.4594C59.246 19.822 58.9312 20.1242 58.5464 20.3486C58.1615 20.5731 57.7243 20.7458 57.252 20.8494C56.7797 20.953 56.3074 21.0048 55.8439 21.0048C55.2754 21.0048 54.7507 20.9443 54.2697 20.8148C53.7887 20.6853 53.3689 20.4954 53.019 20.245C52.6692 19.986 52.3893 19.6666 52.1882 19.2868C51.987 18.9069 51.8821 18.4493 51.8646 17.9227H53.8586V17.9055ZM60.383 11.8881H61.8785V9.22913H63.855V11.8881H65.6392V13.3471H63.855V18.0781C63.855 18.2853 63.8638 18.458 63.8813 18.6134C63.8988 18.7601 63.9425 18.8896 64.0037 18.9932C64.0649 19.0968 64.1611 19.1745 64.2923 19.2263C64.4235 19.2781 64.5897 19.304 64.8171 19.304C64.957 19.304 65.0969 19.304 65.2369 19.2954C65.3768 19.2868 65.5167 19.2695 65.6567 19.235V20.7458C65.438 20.7717 65.2194 20.7889 65.0182 20.8148C64.8083 20.8407 64.5984 20.8494 64.3798 20.8494C63.855 20.8494 63.4352 20.7976 63.1204 20.7026C62.8055 20.6076 62.5519 20.4609 62.377 20.2709C62.1933 20.081 62.0796 19.8479 62.0097 19.563C61.9485 19.2781 61.9047 18.9501 61.896 18.5875V13.3644H60.4005V11.8881H60.383ZM67.0385 11.8881H68.9101V13.0881H68.9451C69.2249 12.5702 69.6097 12.2076 70.1083 11.9831C70.6068 11.7586 71.1402 11.6464 71.7262 11.6464C72.4346 11.6464 73.0468 11.7673 73.5716 12.0176C74.0963 12.2594 74.5336 12.5961 74.8834 13.0277C75.2333 13.4594 75.4869 13.9601 75.6618 14.5299C75.8367 15.0997 75.9242 15.7126 75.9242 16.3601C75.9242 16.9558 75.8455 17.5342 75.6881 18.0867C75.5306 18.6479 75.2945 19.14 74.9796 19.5717C74.6648 20.0033 74.2625 20.34 73.7727 20.599C73.283 20.858 72.7145 20.9875 72.0498 20.9875C71.7612 20.9875 71.4726 20.9616 71.184 20.9098C70.8954 20.858 70.6155 20.7717 70.3531 20.6594C70.0908 20.5472 69.8371 20.4004 69.6185 20.2191C69.3911 20.0378 69.2074 19.8306 69.05 19.5976H69.015V24.0177H67.0385V11.8881ZM73.9476 16.3256C73.9476 15.9285 73.8952 15.54 73.7902 15.1601C73.6853 14.7802 73.5278 14.4522 73.318 14.1587C73.1081 13.8651 72.8457 13.632 72.5396 13.4594C72.2247 13.2867 71.8661 13.1917 71.4638 13.1917C70.633 13.1917 70.0033 13.4766 69.5835 14.0464C69.1637 14.6162 68.9538 15.3759 68.9538 16.3256C68.9538 16.7745 69.0063 17.1889 69.12 17.5688C69.2337 17.9486 69.3911 18.2767 69.6185 18.5529C69.8371 18.8292 70.0995 19.045 70.4056 19.2004C70.7117 19.3645 71.0703 19.4422 71.4726 19.4422C71.9274 19.4422 72.3034 19.3472 72.6183 19.1659C72.9331 18.9846 73.1868 18.7429 73.3879 18.458C73.5891 18.1644 73.7377 17.8364 73.8252 17.4652C73.9039 17.0939 73.9476 16.7141 73.9476 16.3256ZM77.4372 8.51257H79.4137V10.3601H77.4372V8.51257ZM77.4372 11.8881H79.4137V20.7458H77.4372V11.8881ZM81.1804 8.51257H83.1569V20.7458H81.1804V8.51257ZM89.2177 20.9875C88.5006 20.9875 87.8622 20.8666 87.3024 20.6335C86.7427 20.4004 86.2704 20.0724 85.8769 19.6666C85.492 19.2522 85.1947 18.7601 84.9935 18.1903C84.7924 17.6206 84.6874 16.9903 84.6874 16.3083C84.6874 15.6349 84.7924 15.0133 84.9935 14.4436C85.1947 13.8738 85.492 13.3817 85.8769 12.9673C86.2617 12.5529 86.7427 12.2335 87.3024 12.0004C87.8622 11.7673 88.5006 11.6464 89.2177 11.6464C89.9349 11.6464 90.5733 11.7673 91.1331 12.0004C91.6928 12.2335 92.1651 12.5615 92.5586 12.9673C92.9434 13.3817 93.2408 13.8738 93.4419 14.4436C93.6431 15.0133 93.748 15.6349 93.748 16.3083C93.748 16.9903 93.6431 17.6206 93.4419 18.1903C93.2408 18.7601 92.9434 19.2522 92.5586 19.6666C92.1738 20.081 91.6928 20.4004 91.1331 20.6335C90.5733 20.8666 89.9349 20.9875 89.2177 20.9875ZM89.2177 19.4422C89.655 19.4422 90.0398 19.3472 90.3634 19.1659C90.687 18.9846 90.9494 18.7429 91.1593 18.4493C91.3692 18.1558 91.5179 17.8191 91.6228 17.4479C91.719 17.0767 91.7715 16.6968 91.7715 16.3083C91.7715 15.9285 91.719 15.5572 91.6228 15.1774C91.5266 14.7975 91.3692 14.4695 91.1593 14.1759C90.9494 13.8824 90.687 13.6493 90.3634 13.468C90.0398 13.2867 89.655 13.1917 89.2177 13.1917C88.7805 13.1917 88.3956 13.2867 88.072 13.468C87.7485 13.6493 87.4861 13.891 87.2762 14.1759C87.0663 14.4695 86.9176 14.7975 86.8127 15.1774C86.7165 15.5572 86.664 15.9285 86.664 16.3083C86.664 16.6968 86.7165 17.0767 86.8127 17.4479C86.9089 17.8191 87.0663 18.1558 87.2762 18.4493C87.4861 18.7429 87.7485 18.9846 88.072 19.1659C88.3956 19.3558 88.7805 19.4422 89.2177 19.4422ZM94.3253 11.8881H95.8208V9.22913H97.7973V11.8881H99.5815V13.3471H97.7973V18.0781C97.7973 18.2853 97.8061 18.458 97.8236 18.6134C97.8411 18.7601 97.8848 18.8896 97.946 18.9932C98.0072 19.0968 98.1034 19.1745 98.2346 19.2263C98.3658 19.2781 98.532 19.304 98.7594 19.304C98.8993 19.304 99.0392 19.304 99.1792 19.2954C99.3191 19.2868 99.459 19.2695 99.599 19.235V20.7458C99.3803 20.7717 99.1617 20.7889 98.9605 20.8148C98.7506 20.8407 98.5407 20.8494 98.3221 20.8494C97.7973 20.8494 97.3775 20.7976 97.0627 20.7026C96.7478 20.6076 96.4942 20.4609 96.3193 20.2709C96.1356 20.081 96.022 19.8479 95.952 19.563C95.8908 19.2781 95.847 18.9501 95.8383 18.5875V13.3644H94.3428V11.8881H94.3253Z" fill="#191919"/>
<path d="M24.2368 8.5123H15.1762L12.3775 0L9.57013 8.5123L0.509521 8.50366L7.84722 13.7699L5.03983 22.2736L12.3775 17.016L19.7065 22.2736L16.9078 13.7699L24.2368 8.5123Z" fill="#00B67A"/>
<path d="M17.5374 15.6952L16.9077 13.77L12.3774 17.0161L17.5374 15.6952Z" fill="#005128"/>
</g>
<defs>
<clipPath id="clip0_1008_1456">
<rect width="100.09" height="24.0217" fill="white" transform="translate(0.108887)"/>
</clipPath>
</defs>
</svg>
