<svg width="83" height="25" viewBox="0 0 83 25" fill="none" xmlns="http://www.w3.org/2000/svg">
<g clip-path="url(#clip0_328_75588)">
<path d="M24.591 8.37167H15.5304L12.7318 -0.140625L9.92438 8.37167L0.86377 8.36304L8.20146 13.6293L5.39407 22.1329L12.7318 16.8753L20.0607 22.1329L17.2621 13.6293L24.591 8.37167Z" fill="#00B67A"/>
<path d="M17.8914 15.5546L17.2618 13.6294L12.7314 16.8755L17.8914 15.5546Z" fill="#005128"/>
</g>
<path d="M34.5293 17.8721V15.8358L39.6347 7.7925H41.3903V10.611H40.3513L37.1328 15.7045V15.8H44.3879V17.8721H34.5293ZM40.3991 20.0217V17.251L40.4468 16.3494V7.7925H42.8712V20.0217H40.3991ZM48.6693 18.3498L48.6036 19.0066C48.5519 19.5321 48.4524 20.0556 48.3051 20.5771C48.1618 21.1025 48.0105 21.5782 47.8512 22.0042C47.696 22.4302 47.5706 22.7645 47.4751 23.0074H45.827C45.8867 22.7725 45.9683 22.4441 46.0718 22.0221C46.1753 21.6041 46.2728 21.1344 46.3644 20.6129C46.4559 20.0914 46.5137 19.5599 46.5376 19.0185L46.5674 18.3498H48.6693ZM55.1721 20.1889C54.5431 20.1849 53.936 20.0795 53.3508 19.8724C52.7696 19.6654 52.2481 19.3291 51.7863 18.8633C51.3245 18.3975 50.9583 17.7805 50.6876 17.0122C50.4209 16.2439 50.2875 15.3004 50.2875 14.1818C50.2915 13.1547 50.4089 12.2371 50.6398 11.429C50.8747 10.6169 51.2091 9.92824 51.643 9.36296C52.0809 8.79767 52.6044 8.36774 53.2135 8.07315C53.8225 7.77459 54.5053 7.62531 55.2616 7.62531C56.0777 7.62531 56.7982 7.78454 57.4232 8.10301C58.0482 8.4175 58.5498 8.84544 58.928 9.38684C59.3102 9.92824 59.5411 10.5353 59.6207 11.2081H57.0709C56.9714 10.7821 56.7624 10.4477 56.4439 10.2049C56.1255 9.96208 55.7314 9.84066 55.2616 9.84066C54.4655 9.84066 53.8604 10.187 53.4464 10.8797C53.0363 11.5723 52.8273 12.5138 52.8194 13.7041H52.903C53.0861 13.3418 53.3329 13.0333 53.6434 12.7785C53.9579 12.5198 54.3142 12.3227 54.7123 12.1874C55.1143 12.0481 55.5383 11.9784 55.9842 11.9784C56.7087 11.9784 57.3536 12.1496 57.9189 12.4919C58.4841 12.8303 58.93 13.2961 59.2564 13.8892C59.5829 14.4824 59.7461 15.1611 59.7461 15.9254C59.7461 16.7534 59.553 17.4899 59.1669 18.1348C58.7847 18.7797 58.2493 19.2853 57.5606 19.6515C56.8759 20.0138 56.0797 20.1929 55.1721 20.1889ZM55.1601 18.1587C55.5582 18.1587 55.9145 18.0631 56.229 17.8721C56.5435 17.681 56.7903 17.4222 56.9694 17.0958C57.1486 16.7694 57.2381 16.4031 57.2381 15.9971C57.2381 15.591 57.1486 15.2268 56.9694 14.9043C56.7943 14.5819 56.5514 14.3251 56.2409 14.134C55.9304 13.9429 55.5761 13.8474 55.178 13.8474C54.8795 13.8474 54.6028 13.9031 54.348 14.0146C54.0972 14.1261 53.8763 14.2813 53.6852 14.4804C53.4981 14.6794 53.3508 14.9103 53.2433 15.173C53.1358 15.4318 53.0821 15.7085 53.0821 16.003C53.0821 16.3971 53.1717 16.7574 53.3508 17.0838C53.5339 17.4103 53.7807 17.671 54.0913 17.8661C54.4057 18.0612 54.762 18.1587 55.1601 18.1587Z" fill="#191919"/>
<rect x="65.1196" y="5.20654" width="16.8152" height="16.8152" fill="#00B67A"/>
<path d="M79.9405 12.6064H75.354L73.9373 8.01624L72.5162 12.6064L67.9297 12.6018L71.6441 15.4415L70.2229 20.0271L73.9373 17.192L77.6473 20.0271L76.2306 15.4415L79.9405 12.6064Z" fill="white"/>
<path d="M76.5495 16.4803L76.2308 15.4421L73.9375 17.1926L76.5495 16.4803Z" fill="#00B67A"/>
<defs>
<clipPath id="clip0_328_75588">
<rect width="24" height="24" fill="white" transform="translate(0.114258 0.0217285)"/>
</clipPath>
</defs>
</svg>
