<svg width="70" height="60" viewBox="0 0 70 60" fill="none" xmlns="http://www.w3.org/2000/svg">
<g id="Icon">
<path id="Fill 1" fill-rule="evenodd" clip-rule="evenodd" d="M32.5013 27.7444C32.493 27.1658 32.9018 26.6923 33.6264 26.5226C33.8596 26.4852 34.2287 26.8923 34.2833 26.9492C34.3319 27.17 34.3788 27.4892 34.399 27.7895C34.3812 27.9319 34.0299 30.9168 33.7919 32.0645C33.7504 32.271 33.7041 32.4793 33.6394 32.6994C33.6216 32.7813 33.5397 32.9967 33.4768 33.1587C33.411 33.3308 33.3285 33.4952 33.2448 33.6578C33.0686 33.9788 32.8365 34.2524 32.5499 34.4636C32.2621 34.6868 31.9096 34.7348 31.5583 34.8137L30.9412 34.8636L30.6083 34.901C30.1365 34.9568 29.6588 35.0297 29.1859 35.114C28.9544 35.1561 28.7028 35.2042 28.4939 35.2493C28.4815 35.2535 28.4856 35.2547 28.4821 35.2576C28.4744 35.2665 28.4874 35.2736 28.4939 35.273C28.4939 35.273 28.4536 35.276 28.4239 35.3164C28.4115 35.3336 28.4079 35.3526 28.4109 35.3727C28.412 35.3828 28.4358 35.4048 28.4494 35.4202L28.4631 35.4339L28.5212 35.4701L28.6381 35.5425C28.9503 35.7347 29.2737 35.9145 29.603 36.0825C29.9324 36.2504 30.2682 36.4071 30.6041 36.5483C30.6979 36.5904 31.1168 36.7607 31.4503 36.8676C31.8402 36.934 32.1595 37.1144 32.3588 37.3102C32.4295 37.3737 32.4823 37.4414 32.522 37.4853C32.5754 37.5524 32.6288 37.6609 32.665 37.7446C32.7422 37.9232 32.7968 38.1149 32.8478 38.3167C32.9048 38.4739 32.871 39.1071 32.6775 39.9978C32.6532 40.1183 32.6277 40.2465 32.601 40.3812C32.5909 40.4387 32.6021 40.4037 32.601 40.4185C32.6051 40.4251 32.6075 40.4286 32.6087 40.4322C32.614 40.4411 32.5873 40.4761 32.5315 40.5633C32.4716 40.6535 32.4087 40.7574 32.3517 40.8737C32.3167 40.9407 32.3025 40.9758 32.3037 41.0096C32.306 41.0707 32.3636 41.0849 32.4692 41.0719L32.5369 41.06C32.5802 41.0493 32.6223 40.9781 32.6722 41.0606C32.7992 41.2434 33.0045 41.044 33.2323 40.8968C33.7172 40.5693 34.2109 40.2548 34.7266 39.9759C34.9823 39.8382 35.2867 39.7759 35.5775 39.6952C35.841 39.6216 35.9175 39.9747 35.8653 40.056C35.7128 40.2921 35.9763 40.2981 36.076 40.3972C36.1098 40.4304 36.1531 40.4749 36.165 40.5123C36.1781 40.5538 35.5918 41.1728 34.9746 41.8143C34.8197 41.9739 34.6637 42.1359 34.5147 42.2896L34.4037 42.4035C34.3723 42.4373 34.3308 42.4777 34.2667 42.5358C34.151 42.6421 34.04 42.7435 33.9355 42.8391C33.5302 43.207 33.103 43.5892 32.9837 43.6776C32.9718 43.6871 32.8977 43.7458 32.6775 43.9197C32.4514 44.1149 32.0871 44.4027 31.4604 44.9623C31.3186 45.0893 31.1168 45.2697 30.87 45.4905C30.8124 45.5373 30.7335 45.6234 30.6848 45.6447C30.635 45.6673 30.5833 45.691 30.5293 45.716C30.4219 45.764 30.3074 45.8156 30.1881 45.8696C30.1306 45.894 30.06 45.9302 30.0101 45.9456L29.876 45.9729C29.7852 45.9901 29.6914 46.0073 29.5959 46.0257C29.4778 46.0061 29.339 45.9782 29.2891 45.9343C29.2458 45.9094 29.244 45.9023 29.2286 45.8869C29.1882 45.8572 29.1117 45.8376 29.0701 45.8127C28.9722 45.7628 28.8892 45.6887 28.8257 45.5896C28.7592 45.4952 28.7254 45.3629 28.6862 45.2644C28.6482 45.1659 28.5966 45.1089 28.5812 45.0596C28.4702 44.8448 28.5295 44.3695 28.6969 43.8176C28.7266 43.69 29.1538 41.8475 29.584 39.9937L29.6517 39.672L29.6843 39.494C29.692 39.4471 29.7104 39.3522 29.7092 39.3457L29.7021 39.3373C29.6926 39.3273 29.6825 39.3231 29.6731 39.3225C29.6547 39.3207 29.6422 39.3308 29.6422 39.3308C29.6475 39.3273 29.6434 39.329 29.6434 39.329L29.641 39.3314C29.641 39.3314 29.6422 39.332 29.6392 39.3314L29.5152 39.278C29.12 39.1035 28.745 38.903 28.4085 38.6324C28.2762 38.5261 28.1171 38.4603 27.9634 38.3897L27.4727 38.1505L27.2294 38.0235L26.9149 37.8508C26.3867 37.5547 25.7832 37.1904 25.3168 36.8213C24.8338 36.4486 24.4753 36.0469 24.2831 35.6605C24.2 35.4665 24.1228 35.2772 24.0985 35.0766C24.0849 34.9757 24.0772 34.8707 24.0795 34.755C24.0807 34.6387 24.159 34.5123 24.1519 34.4055C24.2285 34.1841 24.327 34.0221 24.4854 33.8667C24.5554 33.7883 24.6338 33.7106 24.7109 33.6323C24.794 33.5557 24.8468 33.4697 24.972 33.4068L25.3008 33.2038C25.4129 33.1362 25.5631 33.0857 25.6924 33.0258C25.9476 32.9018 26.2585 32.8139 26.5618 32.7226C26.7772 32.6508 27.0282 32.6306 27.2573 32.5873C27.519 32.5428 27.7824 32.4988 28.0388 32.4555C28.5343 32.3475 29.0298 32.2656 29.5289 32.2003L30.2819 32.1107L30.6629 32.074L30.8172 32.0645C30.8539 32.0603 30.8955 32.0698 30.9281 32.049C30.9596 32.0271 30.9786 31.9921 30.9934 31.9576C31.0094 31.9226 31.0183 31.887 31.026 31.849C31.0622 31.731 31.1085 31.5678 31.1429 31.4159C31.2343 31.112 31.8758 29.4125 31.9346 28.9556C31.9684 28.7087 32.5024 27.9818 32.5013 27.7444Z" fill="#2458A4"/>
<path id="Fill 3" fill-rule="evenodd" clip-rule="evenodd" d="M29.919 46.698C29.7748 46.7051 29.6288 46.7051 29.4864 46.698C29.3457 46.6855 29.2176 46.6244 29.0823 46.59C28.9505 46.5455 28.8336 46.4618 28.709 46.4001C28.5986 46.3146 28.5126 46.2013 28.4236 46.098C28.2728 45.8654 28.1791 45.5877 28.1381 45.2898C28.1102 45.1438 28.1102 44.9972 28.0948 44.8507L28.0918 44.5617C28.1102 43.8353 28.2093 43.1802 28.3185 42.5239C28.4319 41.8717 28.566 41.2314 28.7126 40.5959L28.9416 39.6464L28.9909 39.4547L29.0039 39.4126L29.033 39.3236C29.0277 39.2987 28.9873 39.2886 28.963 39.2732L28.9191 39.253C28.8888 39.2405 28.9256 39.253 28.8324 39.218L27.8984 38.8643C27.2646 38.6174 26.6267 38.3385 26.0096 38.0021C25.4239 37.6882 24.853 37.3232 24.3266 36.8865C24.0554 36.6793 23.8151 36.4289 23.5688 36.1886L23.2264 35.7916C23.0668 35.6118 22.9119 35.3566 22.7559 35.1418C22.6704 34.8985 22.5209 34.6689 22.5547 34.4131C22.6028 33.9099 22.995 33.5627 23.4656 33.3183C24.0293 33.0382 24.2596 33.0014 24.602 32.8946C25.2435 32.7165 25.8737 32.5961 26.5062 32.4922C27.1376 32.3896 27.7684 32.3089 28.4028 32.246C28.7197 32.2151 29.0372 32.1878 29.3564 32.167L29.7095 32.1492H29.8816L30.9954 29.0172C31.4363 27.8363 31.863 26.6679 32.4333 25.4917L32.5419 25.2828C32.5893 25.1885 32.6481 25.1012 32.7033 25.0122C32.8113 24.8283 32.9525 24.6888 33.1204 24.5755C33.4498 24.4598 33.8183 24.3832 34.1601 24.528C34.3334 24.5684 34.4995 24.6675 34.6491 24.7636C34.7856 24.8401 34.8805 24.9303 34.9897 25.017C35.4069 25.3689 35.7433 25.7469 36.0632 26.1284C36.7029 26.8916 37.2815 27.6678 37.8695 28.4261C38.2333 28.8985 38.6024 29.3637 38.9763 29.8242L39.5424 30.5084C39.6516 30.6301 39.7394 30.7363 39.8367 30.836L40.0598 30.7274L40.5755 30.5078C40.9636 30.3494 41.357 30.2022 41.7611 30.0746C42.5694 29.826 43.4013 29.6047 44.3556 29.6622C44.6202 29.6907 44.8113 29.7554 44.9276 29.848C45.0392 29.9299 45.0647 30.0028 45.0297 30.0663C44.9519 30.2022 44.6736 30.2675 44.336 30.436C43.6541 30.7547 42.5539 31.3796 41.1125 31.9807L40.8562 32.0887L40.4717 32.259C40.118 32.4174 39.7625 32.5943 39.4088 32.764L38.7062 31.9249L38.3549 31.5048L38.1662 31.271C37.9146 30.9606 37.669 30.6479 37.4268 30.3334L36.0092 28.4487C35.5445 27.8292 35.0823 27.2096 34.6087 26.6708C34.3743 26.3943 34.1304 26.1664 33.9174 25.9979C33.848 25.9575 33.8729 25.9653 33.8681 25.9605L33.8539 25.9504C33.8426 25.9439 33.8296 25.9415 33.8153 25.9439C33.8064 25.9469 33.7993 25.954 33.7916 25.9617L33.7803 25.9742L33.6996 26.1261C33.5839 26.3504 33.4706 26.5961 33.3608 26.8435C33.1406 27.3408 32.9305 27.8559 32.7246 28.3739C32.3128 29.4112 31.917 30.4657 31.5253 31.5238C31.4399 31.7611 31.3533 31.9985 31.2666 32.2388C31.1337 32.634 30.999 33.0334 30.8625 33.4393C29.5113 33.4601 29.1523 33.5081 28.4497 33.5782C27.8052 33.6488 27.159 33.7425 26.5199 33.8606C25.8843 33.9811 25.2464 34.1229 24.6649 34.3176L24.4536 34.3935L24.3711 34.4273C24.3219 34.4487 24.275 34.4748 24.2311 34.5057C24.189 34.5359 24.1439 34.5793 24.1468 34.635C24.1522 34.6896 24.1955 34.7294 24.2222 34.7745C24.2685 34.8398 24.2578 34.838 24.3753 34.9709C24.4869 35.0973 24.5848 35.2344 24.7118 35.3483C25.4055 36.064 26.2778 36.6248 27.2231 37.074C27.6966 37.2983 28.1868 37.4989 28.6924 37.6887L29.5267 38.0038C29.9397 38.1617 30.3213 38.3563 30.6548 38.5818L30.3878 39.5865L30.2145 40.2814C30.1148 40.6938 30.0193 41.1074 29.9314 41.5204C29.7576 42.347 29.6027 43.1802 29.5261 43.9956C29.5 44.2703 29.4864 44.586 29.4947 44.8032C29.5042 44.945 29.506 45.0957 29.608 45.2014C29.722 45.2963 29.8822 45.2761 30.0145 45.2364C30.0507 45.2239 30.0792 45.2227 30.1219 45.2002L30.2887 45.1254C30.4056 45.0791 30.5237 44.9955 30.6417 44.9331C31.5865 44.3463 32.4475 43.5131 33.2421 42.6503C33.6658 42.1928 34.0669 41.7097 34.4616 41.2219L35.0372 40.4778L35.8335 39.3829L36.9462 40.0517L37.7117 40.4992C38.2232 40.7953 38.7383 41.0825 39.2552 41.3638C39.7732 41.6409 40.2924 41.915 40.8176 42.1655C41.0787 42.2948 41.3422 42.4111 41.6057 42.5274C41.738 42.5874 41.8697 42.6343 42.0015 42.6889L42.1949 42.7648L42.3249 42.8064C42.4305 42.8449 42.5284 42.8675 42.6228 42.8841C42.7118 42.8918 42.8358 42.9268 42.8768 42.8182C42.9705 42.6455 42.9747 42.4337 42.9622 42.2598C42.9272 41.645 42.7397 40.9923 42.5136 40.3728C42.281 39.7491 42.0021 39.1367 41.6828 38.5421C41.5262 38.2436 41.357 37.9499 41.1879 37.6567C41.1274 37.554 40.9357 37.2449 40.82 37.0241L40.7245 36.8431C40.6977 36.7826 40.636 36.7215 40.6942 36.661L40.8847 36.299L41.0734 35.9845L41.2401 35.7323C41.3363 35.5987 41.4282 35.4623 41.5309 35.3353C41.7297 35.0742 41.9493 34.8297 42.1848 34.5935C43.0732 33.7307 43.815 33.3361 44.3508 33.1438C44.8914 32.9545 45.2409 32.9527 45.5418 33.0566C45.6783 33.1022 45.845 33.1379 45.9299 33.2008C46.2272 33.4536 45.3667 33.8149 44.1395 34.7211C43.6856 35.0623 43.2696 35.4569 42.9017 35.8931C42.7159 36.1097 42.5468 36.3393 42.3878 36.5725L42.3314 36.661L42.3225 36.6805L42.3089 36.7161C42.2982 36.7393 42.2928 36.7606 42.3184 36.7802L42.3439 36.8099C42.3522 36.8188 42.351 36.8123 42.408 36.9078C42.4958 37.0479 42.5747 37.1938 42.656 37.3386C42.8222 37.6253 42.9782 37.9208 43.1284 38.2222C43.4269 38.8251 43.7081 39.4464 43.9289 40.1128C44.0404 40.4457 44.139 40.7887 44.2191 41.1454C44.2582 41.324 44.2891 41.5091 44.3188 41.6955L44.3502 41.9845C44.355 42.0331 44.3621 42.0794 44.3621 42.1316L44.368 42.3358C44.3639 42.9838 44.2369 43.614 43.8535 44.0092L43.7141 44.1676C43.6903 44.1938 43.6678 44.224 43.6423 44.2466L43.5432 44.2685C43.4091 44.2899 43.2862 44.3439 43.1414 44.3391C42.8507 44.3136 42.5575 44.3492 42.2697 44.2341C41.5819 44.0496 41.3909 43.9445 41.0396 43.8033C40.7221 43.665 40.4099 43.5226 40.1067 43.3742C39.4967 43.0787 38.9021 42.7696 38.3158 42.4503L36.8785 41.648L36.2293 41.2706L36.2264 41.2658L35.4419 42.2729C34.9879 42.8449 34.5007 43.3956 33.9981 43.9356C33.4836 44.4697 32.9483 44.9883 32.3526 45.472C32.0517 45.7123 31.7378 45.9449 31.3871 46.1597C31.2049 46.2648 31.034 46.3728 30.8198 46.463C30.7278 46.4992 30.5955 46.5817 30.4198 46.6119L29.9273 46.733L29.919 46.698Z" fill="#2458A4"/>
<path id="Fill 5" fill-rule="evenodd" clip-rule="evenodd" d="M62.9382 21.565C62.9109 21.6766 62.7714 21.6517 62.5631 21.5544C62.4967 21.5229 62.3477 21.3752 62.3465 21.333C62.3448 21.2517 62.3448 21.1704 62.3572 21.0992C62.3632 21.0559 62.6913 20.5681 62.807 20.402C62.9138 20.2358 63.0503 20.1017 63.1904 19.9717C63.4788 19.7124 63.7648 19.4489 64.0686 19.208C64.1357 19.154 64.2099 19.1089 64.2918 19.0763C64.5707 18.9617 64.8104 18.7956 65.0412 18.611C65.0798 18.5808 65.1249 18.5588 65.1427 18.4977C65.1647 18.3867 65.8459 17.9618 65.9581 17.95C66.2257 17.9025 66.4666 17.8099 66.7348 17.7749C66.7722 17.769 66.8025 17.7417 66.8547 17.7719C66.9758 17.8432 67.0393 17.7969 67.1158 17.7749C67.2167 17.7351 67.3395 17.7411 67.46 17.7452C67.5199 17.7476 67.5917 17.7791 67.6558 17.7951C67.7146 17.8111 67.7342 17.9167 67.7253 17.9363C67.6974 17.9897 67.7549 18.023 67.7775 18.0627C67.7846 18.0764 67.7953 18.0936 67.7982 18.1066C67.8018 18.1209 67.6997 18.2645 67.6101 18.4413C67.5116 18.6021 67.3995 18.7434 67.374 18.7635C67.3686 18.792 66.6571 19.2798 66.5877 19.351C66.5503 19.3866 66.4927 19.389 66.4405 19.4003C66.4168 19.4086 65.8696 19.8228 65.8477 19.8376C65.7183 19.897 65.6222 20.0073 65.4477 19.9996C65.4139 19.9984 65.3925 20.0186 65.3694 20.0346C65.1736 20.1794 64.9487 20.2827 64.735 20.4037C64.6241 20.4649 64.5333 20.5509 64.4312 20.6221C64.4128 20.6352 64.3855 20.6375 64.3636 20.6458C64.3357 20.6565 64.306 20.6642 64.284 20.682C64.0556 20.8684 63.7903 21.0144 63.5933 21.2375C63.5458 21.2855 63.2325 21.4256 63.185 21.4909C63.1566 21.5247 62.9483 21.5188 62.9382 21.565Z" fill="#2458A4"/>
<path id="Fill 7" fill-rule="evenodd" clip-rule="evenodd" d="M62.7872 34.477C62.6756 34.5459 62.6026 34.3957 62.5219 34.1168C62.4964 34.0272 62.5035 33.762 62.5409 33.7269C62.6127 33.6575 62.6887 33.5911 62.767 33.5454C62.8133 33.5026 63.5545 33.4676 63.8055 33.4878C64.0553 33.4836 64.279 33.5549 64.5081 33.6195C64.9567 33.7762 65.4024 33.937 65.8184 34.1423C65.9127 34.1851 65.9994 34.2432 66.0759 34.315C66.3429 34.5571 66.6402 34.7304 66.9464 34.8948C66.9969 34.9227 67.042 34.9612 67.1144 34.9529C67.2396 34.9304 68.0098 35.471 68.0828 35.5748C68.2792 35.8146 68.4478 36.0852 68.6222 36.3397C68.6472 36.3759 68.6899 36.3955 68.6863 36.4602C68.6768 36.6115 68.7546 36.659 68.8139 36.7296C68.8958 36.8275 68.9724 36.9326 69.037 37.0483C69.0691 37.1058 69.0744 37.1919 69.0887 37.2667C69.1005 37.3349 68.983 37.4192 68.9581 37.4186C68.8857 37.4156 68.8733 37.4963 68.8371 37.5432C68.8246 37.5598 68.8086 37.5806 68.7955 37.5913C68.7753 37.599 68.0253 37.4055 67.9612 37.3717C67.957 37.3693 67.8983 37.3379 67.8093 37.2898C67.7203 37.2453 67.6022 37.1848 67.4805 37.1231C67.2277 37.0151 67.007 36.8513 66.9476 36.8376C66.8924 36.8133 66.8628 36.7539 66.826 36.7041C66.8094 36.6756 66.0973 36.3225 66.0712 36.3089C65.943 36.2074 65.7804 36.1665 65.7015 35.9843C65.686 35.9481 65.6546 35.9362 65.6261 35.9208C65.3775 35.7968 65.1585 35.6211 64.9241 35.4728C64.8054 35.3921 64.6707 35.3517 64.5443 35.2912C64.5217 35.2805 64.5057 35.2544 64.4856 35.2372C64.46 35.2158 64.4375 35.1873 64.4078 35.1761C64.0998 35.0633 63.8102 34.8888 63.4874 34.8556C63.4162 34.8426 63.1011 34.6408 63.0127 34.6521C62.967 34.6521 62.8347 34.4444 62.7872 34.477Z" fill="#2458A4"/>
<path id="Fill 10" fill-rule="evenodd" clip-rule="evenodd" d="M2.53358 51.0347C2.4695 51.1676 2.31046 51.0656 2.08022 50.8264C2.00723 50.7505 1.86481 50.4763 1.87667 50.4217C1.89863 50.3149 1.92415 50.2099 1.96272 50.125C1.98646 50.0669 2.54901 49.6402 2.73772 49.4889C2.9193 49.3423 3.12225 49.2414 3.32817 49.1512L4.57612 48.5999C4.66869 48.5608 4.7672 48.5353 4.87045 48.5234C5.22531 48.4807 5.54457 48.3555 5.85374 48.2035C5.90536 48.1786 5.96233 48.165 5.99616 48.1009C6.05194 47.9947 6.91476 47.6523 7.03938 47.6416C7.34973 47.6149 7.64763 47.5561 7.94908 47.5087C7.99418 47.5075 8.03275 47.4814 8.09091 47.5211C8.2268 47.6125 8.30632 47.5662 8.39889 47.5496C8.52647 47.5247 8.65703 47.5069 8.79351 47.5033C8.86116 47.5015 8.94305 47.5342 9.01901 47.552C9.08784 47.5686 9.11336 47.7009 9.10149 47.7241C9.06707 47.7876 9.1365 47.8291 9.16439 47.8778C9.1733 47.8944 9.18576 47.9169 9.18991 47.9324C9.19407 47.9525 8.66474 48.6088 8.59828 48.6628C8.59946 48.7198 7.62805 49.204 7.53013 49.2841C7.47613 49.3215 7.40492 49.3186 7.33905 49.3263C7.3076 49.3298 6.55693 49.7672 6.52489 49.7779C6.35517 49.8348 6.21038 49.9494 6.00328 49.9102C5.96233 49.9025 5.93147 49.9227 5.90002 49.9381C5.62646 50.0758 5.32797 50.1523 5.03779 50.2455C4.88885 50.2924 4.75295 50.3695 4.61053 50.4306C4.58502 50.4413 4.55179 50.436 4.5233 50.4401C4.4871 50.4449 4.44853 50.4437 4.41649 50.4591C4.08655 50.6193 3.72575 50.7083 3.41896 50.9113C3.34953 50.9588 2.9282 50.9973 2.85284 51.0591C2.81071 51.0929 2.5591 50.9807 2.53358 51.0347Z" fill="#2458A4"/>
<path id="Fill 12" fill-rule="evenodd" clip-rule="evenodd" d="M5.19537 33.9242C5.29566 33.8821 5.32829 34.0257 5.32117 34.2803C5.3188 34.361 5.24996 34.5906 5.21792 34.6167C5.15442 34.6672 5.09152 34.7158 5.03277 34.7467C4.99658 34.7645 4.51828 34.7556 4.35747 34.7698C4.20021 34.7793 4.05483 34.755 3.91063 34.7241C3.61985 34.6642 3.32849 34.6209 3.04543 34.59C2.98253 34.5817 2.92081 34.5603 2.86206 34.5325C2.65793 34.428 2.43955 34.4126 2.2283 34.4251C2.19329 34.4274 2.15709 34.4185 2.12267 34.4577C2.06274 34.5111 1.5162 34.5325 1.44262 34.5182C1.25688 34.4589 1.06639 34.4268 0.86938 34.4055C0.841489 34.4037 0.818346 34.4233 0.782148 34.3871C0.69907 34.3034 0.646256 34.3349 0.586321 34.342C0.50265 34.3491 0.421946 34.3681 0.33056 34.3633C0.286054 34.3621 0.226712 34.326 0.170338 34.3016C0.119304 34.2791 0.0825127 34.145 0.0896337 34.126C0.109216 34.0708 0.0522486 34.0221 0.0255449 33.9705C0.0166437 33.9527 0.00477544 33.9301 0.000621537 33.9147C-0.0183677 33.8845 0.40355 33.424 0.473573 33.4056C0.477133 33.3836 1.27468 33.0596 1.37794 33.056C1.42719 33.0388 1.4806 33.059 1.53163 33.0697C1.55418 33.0602 2.22652 32.9391 2.25441 32.9504C2.39386 32.9593 2.53569 32.9308 2.66327 33.043C2.68819 33.0649 2.71609 33.062 2.74338 33.0626C2.97719 33.0721 3.2009 33.1445 3.41928 33.2103C3.53144 33.243 3.64597 33.2548 3.75871 33.2786C3.77889 33.2827 3.7961 33.3017 3.81509 33.3124C3.83823 33.326 3.86078 33.345 3.8863 33.3498C4.15155 33.3996 4.39663 33.5171 4.6613 33.5456C4.72361 33.5521 4.96928 33.7408 5.0393 33.745C5.07906 33.7474 5.15561 33.9414 5.19537 33.9242Z" fill="#2458A4"/>
<path id="Fill 14" fill-rule="evenodd" clip-rule="evenodd" d="M8.73281 25.2866C8.8687 25.3127 8.84793 25.4842 8.71798 25.7281C8.67644 25.8059 8.48892 25.9833 8.44204 25.9892C8.35006 26.0005 8.26223 26.0112 8.18865 26.0082C8.15364 26.0035 7.63559 25.7341 7.44926 25.6575C7.26471 25.5827 7.1122 25.473 6.95376 25.3608C6.63925 25.1306 6.30575 24.9169 5.97878 24.6956C5.90638 24.6463 5.83992 24.5876 5.78117 24.5182C5.57941 24.2802 5.32958 24.1075 5.06433 23.9586C5.02041 23.9342 4.98125 23.8998 4.91716 23.9075C4.8139 23.9176 4.1208 23.4755 4.05493 23.3806C3.88106 23.1622 3.6876 22.9723 3.50068 22.7717C3.47397 22.7433 3.43184 22.7338 3.42888 22.6744C3.42175 22.5368 3.34342 22.5071 3.27933 22.4549C3.18973 22.3825 3.10368 22.3053 3.02773 22.2128C2.98975 22.1665 2.9761 22.0846 2.95533 22.0128C2.93634 21.9475 3.04553 21.8258 3.06986 21.8205C3.14048 21.8051 3.14582 21.7184 3.17786 21.6591C3.18854 21.6389 3.20278 21.6128 3.21406 21.5986C3.23898 21.5683 3.95523 21.6727 4.01695 21.7113C4.02407 21.7149 4.24541 21.8229 4.481 21.9374C4.7148 22.0496 4.95988 22.1671 5.01329 22.186C5.06907 22.2056 5.1029 22.259 5.14147 22.3053C5.15986 22.3255 5.8595 22.6732 5.88383 22.694C6.01023 22.7937 6.16808 22.8489 6.24344 23.0228C6.25827 23.0566 6.28854 23.0702 6.31643 23.0863C6.55439 23.2293 6.7603 23.4174 6.97275 23.5984C7.08134 23.6904 7.20536 23.7598 7.32049 23.844C7.34126 23.8595 7.35253 23.8868 7.36974 23.9069C7.3911 23.9331 7.40891 23.9633 7.43561 23.9811C7.71629 24.1681 7.95366 24.4155 8.25215 24.5876C8.32158 24.6297 8.54055 24.9567 8.62125 25.0083C8.66754 25.0362 8.67881 25.2789 8.73281 25.2866Z" fill="#2458A4"/>
<path id="Fill 16" fill-rule="evenodd" clip-rule="evenodd" d="M22.0271 2.17303C22.5256 3.05069 23.0335 3.91233 23.5854 4.75438C24.1402 5.59347 24.7455 6.40348 25.374 7.19272C26.0042 7.98196 26.6617 8.74806 27.3079 9.52069C27.963 10.2862 28.6371 11.0351 29.3296 11.7561C29.716 12.178 29.5973 12.6996 29.2857 13.0123C28.9766 13.3227 28.4401 13.4277 28.0152 12.9933C27.3037 12.2195 26.6308 11.4196 25.9893 10.596C25.3413 9.77763 24.7532 8.91303 24.1948 8.03062C23.6347 7.1494 23.1035 6.2486 22.6264 5.31516C22.1482 4.38587 21.7061 3.42039 21.4746 2.38132C21.4414 2.07868 21.8372 1.94397 22.0271 2.17303Z" fill="#2458A4"/>
<path id="Fill 18" fill-rule="evenodd" clip-rule="evenodd" d="M41.9446 1.63876C41.6117 2.34374 41.277 3.06237 41.026 3.83143C40.7709 4.59515 40.5507 5.37787 40.3667 6.17008C39.9976 7.74678 39.7098 9.37451 39.5923 10.9352C39.5472 11.3696 38.9906 11.5387 38.4423 11.509C37.9017 11.4805 37.3659 11.1708 37.4442 10.6575C37.7795 8.92352 38.2845 7.31062 38.8903 5.71077C39.1942 4.91441 39.5312 4.12754 39.9276 3.36263C40.3359 2.61018 40.7275 1.81382 41.4319 1.21625C41.6663 1.08036 41.9874 1.39725 41.9446 1.63876Z" fill="#2458A4"/>
<path id="Fill 20" fill-rule="evenodd" clip-rule="evenodd" d="M52.3779 3.33172C52.0088 4.26872 51.7061 5.25319 51.4005 6.23826L50.4813 9.21542C50.1627 10.2106 49.831 11.2075 49.4452 12.2015C49.053 13.1954 48.6275 14.187 48.0222 15.1721C47.8555 15.4522 47.5564 15.5744 47.3018 15.5733C47.0383 15.5727 46.7832 15.4504 46.5749 15.2688C46.1637 14.8885 45.9067 14.3496 46.1981 13.936C46.7446 13.1966 47.2282 12.3172 47.681 11.4217C48.1326 10.5209 48.551 9.58511 48.9664 8.64396L50.2066 5.7926C50.6303 4.83958 51.0569 3.883 51.5726 2.9454C51.7299 2.68786 52.4467 3.05222 52.3779 3.33172Z" fill="#2458A4"/>
<path id="Fill 22" fill-rule="evenodd" clip-rule="evenodd" d="M13.7755 43.5574C16.4648 50.2885 22.4749 55.7349 29.5383 57.6154C32.1143 58.2996 34.8079 58.4254 37.4497 58.1091C42.1169 57.5549 46.6156 55.5236 50.2182 52.4479C53.8238 49.3806 56.5292 45.2029 57.5404 40.547C58.4376 36.4222 58.2756 32.009 56.9938 28.0206C56.1874 25.4541 54.9109 23.0431 53.2524 20.9406C51.6104 18.8162 49.5162 17.0852 47.2506 15.6474C45.8442 14.7471 46.2085 14.4427 47.6998 14.8148C48.073 14.9086 48.5175 15.045 49.0213 15.226C49.5055 15.4361 50.0271 15.7263 50.601 16.0497C50.8823 16.2176 51.1908 16.3784 51.4781 16.5873C51.7581 16.8039 52.0465 17.0336 52.3403 17.2757C52.634 17.5184 52.9331 17.773 53.2351 18.0388C53.5218 18.3201 53.7858 18.637 54.0641 18.9527C56.0236 21.1964 57.5184 23.8347 58.4827 26.638C59.45 29.443 59.9051 32.406 59.8749 35.3582C59.8398 38.3092 59.3319 41.2633 58.2661 44.0476C57.1903 46.8236 55.5732 49.3735 53.5473 51.5234C51.1149 54.0792 48.1929 56.2624 44.8941 57.7353C41.6274 59.2609 37.9844 60.0395 34.3753 59.9985C32.3867 59.9576 30.4178 59.614 28.5082 59.0936C26.6128 58.5132 24.7934 57.7216 23.079 56.7443C21.3937 55.72 19.7915 54.5599 18.3614 53.2051C16.9556 51.832 15.6317 50.3621 14.5612 48.7088C13.2224 46.693 12.1685 44.4849 11.476 42.1635C10.7793 39.8408 10.4636 37.4144 10.5176 35.0016C10.5337 33.1697 10.8327 31.3467 11.2867 29.576C11.5039 28.6853 11.822 27.8266 12.1311 26.9661L12.6788 25.7081C12.8563 25.2868 13.0913 24.8933 13.2942 24.4845C14.1594 22.8769 15.1931 21.3649 16.3723 19.9805C17.5662 18.6091 18.8949 17.3635 20.3274 16.2603C22.5622 14.5596 25.0236 13.1823 27.6596 12.2708C30.2849 11.3398 33.0697 10.827 35.8837 10.8632C36.1935 10.8656 36.5015 10.868 36.8088 10.8704L37.728 10.941C38.0337 10.9689 38.3428 10.9807 38.649 11.0247C38.954 11.0733 39.2608 11.1226 39.57 11.1718C40.1456 11.2513 40.6595 11.3866 41.1313 11.5071C41.6042 11.6228 42.0321 11.7338 42.4089 11.8792C42.7881 12.0162 43.1299 12.1403 43.4408 12.253C43.7488 12.3717 44.0099 12.5165 44.2503 12.634C45.2152 13.1034 45.6869 13.5342 46.0145 13.9597C46.1634 14.1543 46.3717 14.3786 46.4328 14.5288C46.5367 14.7827 46.1444 14.7673 45.3772 14.5258C45.1855 14.4653 44.9701 14.3905 44.7321 14.3021C44.49 14.2249 44.223 14.1407 43.9322 14.0481C43.6444 13.9508 43.3334 13.8457 43.0011 13.7336C42.6629 13.6375 42.3027 13.5354 41.9217 13.4274C37.4064 12.1308 32.4188 12.3741 27.8726 14.0333C25.5927 14.8468 23.4434 16.0556 21.4893 17.5208C20.5024 18.2447 19.6028 19.0797 18.7287 19.9371C17.8926 20.832 17.079 21.753 16.3835 22.7624C15.3302 24.2447 14.4383 25.8452 13.7701 27.5376C13.1073 29.2312 12.6557 31.0055 12.429 32.8101C12.2053 34.6141 12.1828 36.4519 12.4332 38.2641C12.6931 40.0622 13.0871 41.8519 13.8123 43.5325L13.7755 43.5574Z" fill="#2458A4"/>
<path id="Fill 24" fill-rule="evenodd" clip-rule="evenodd" d="M12.2806 3.80205C12.9268 4.8429 13.6532 5.83509 14.3635 6.83203C15.0774 7.82896 15.8452 8.78733 16.5858 9.76112C18.0854 11.6951 19.6461 13.5857 21.2779 15.379C22.1847 16.4174 20.2555 18.1247 19.3339 16.9901C17.8178 14.9778 16.4268 12.9038 15.113 10.78C14.4495 9.72314 13.849 8.62533 13.2538 7.5281C12.655 6.43266 12.121 5.29924 11.6047 4.16166C11.4736 3.83588 12.0652 3.52671 12.2806 3.80205Z" fill="#2458A4"/>
<path id="Fill 26" fill-rule="evenodd" clip-rule="evenodd" d="M15.1583 10.8485C16.0959 11.8745 17.0512 12.8833 18.0506 13.8037C18.5478 14.2659 19.0724 14.6985 19.6089 15.1638C20.1441 15.6308 20.6657 16.1269 21.1636 16.6349C21.7167 17.2437 20.531 18.2359 20.0308 17.6413C19.6047 17.1108 19.1674 16.5993 18.7033 16.1002C18.2387 15.6011 17.7408 15.0902 17.2762 14.549C16.805 14.0132 16.3908 13.4369 15.9778 12.8685C15.5612 12.3023 15.1856 11.7089 14.7951 11.1298C14.6936 10.9618 15.0099 10.7161 15.1583 10.8485Z" fill="#2458A4"/>
<path id="Fill 28" fill-rule="evenodd" clip-rule="evenodd" d="M41.8196 1.79118C41.7739 1.90214 41.6452 1.88909 41.4493 1.81788C41.387 1.79474 41.2606 1.66774 41.2689 1.62621C41.2844 1.54491 41.3028 1.46242 41.3336 1.38884C41.3396 1.33662 41.8404 0.817382 42.0564 0.688018C42.2439 0.532544 42.4635 0.437004 42.6842 0.346211C43.1364 0.184803 43.6017 0.054845 44.0693 0.0121192C44.1725 -0.00330956 44.2776 -0.00390298 44.3808 0.00974555C44.7369 0.0453504 45.0828 0.0506911 45.4294 0.0601858C45.4869 0.0613726 45.5451 0.0708672 45.6032 0.0459438C45.7029 -0.0116174 46.6328 0.121901 46.7414 0.185396C47.053 0.315947 47.2992 0.418608 47.5734 0.53373C47.6125 0.550939 47.6576 0.5545 47.6855 0.597819C47.7496 0.698699 47.8386 0.713535 47.9229 0.746173C48.0404 0.790085 48.1549 0.843493 48.2653 0.906395C48.3199 0.937845 48.365 0.994813 48.4125 1.04407C48.4552 1.08798 48.3953 1.1764 48.3733 1.18174C48.3104 1.19657 48.3383 1.25651 48.33 1.29864C48.327 1.31288 48.3229 1.33187 48.3169 1.34196C48.3033 1.3568 47.5787 1.35917 47.5063 1.35146C47.498 1.35027 47.247 1.31051 46.9812 1.26838C46.7165 1.23574 46.4429 1.20607 46.386 1.20963C46.3266 1.20904 46.2714 1.18293 46.2162 1.16156C46.1883 1.13842 45.4056 1.11646 45.3777 1.12062C45.2181 1.0951 45.0597 1.12358 44.9024 1.04941C44.8716 1.03457 44.8389 1.03754 44.8075 1.03813C44.5345 1.05297 44.2633 1.03873 43.9933 1.05831C43.8533 1.0595 43.7239 1.10875 43.5892 1.1307C43.5655 1.13545 43.5388 1.12952 43.5132 1.12952C43.4812 1.12892 43.4491 1.12833 43.4201 1.13842C43.1151 1.23455 42.7922 1.30102 42.5341 1.49031C42.4688 1.51998 42.1341 1.64341 42.0724 1.7081C42.035 1.7348 41.8374 1.74192 41.8196 1.79118Z" fill="#2458A4"/>
<path id="Fill 30" fill-rule="evenodd" clip-rule="evenodd" d="M22.0667 2.57607C22.1652 2.63778 22.1486 2.76537 22.0507 2.9066C22.0198 2.9517 21.8816 3.02588 21.8477 3.01757C21.7819 2.99977 21.719 2.98434 21.6673 2.96357C21.643 2.93627 21.2947 2.66449 21.1422 2.64787C21.0181 2.59268 20.8781 2.56242 20.7523 2.50901C20.4787 2.42178 20.1678 2.40279 19.8539 2.39448C19.7821 2.39745 19.7109 2.39092 19.6391 2.37668C19.3928 2.32149 19.1341 2.33573 18.8795 2.37965C18.8373 2.38677 18.7928 2.38677 18.7549 2.41881C18.6943 2.46747 17.9941 2.57547 17.8968 2.57547C17.6214 2.56539 17.4137 2.55827 17.1764 2.54996C17.142 2.54758 17.1081 2.56123 17.0713 2.53512C16.9865 2.47519 16.9165 2.49596 16.8423 2.50011C16.7402 2.50723 16.6358 2.50545 16.5302 2.49596C16.4785 2.49121 16.4227 2.46391 16.3693 2.44492C16.3213 2.42771 16.3325 2.34286 16.3462 2.33039C16.3871 2.29598 16.3438 2.26274 16.3343 2.22951C16.3308 2.21824 16.3266 2.2034 16.3272 2.19332C16.3278 2.18263 16.4631 2.10727 16.602 2.0236C16.7414 1.94111 16.8886 1.85388 16.9188 1.84557C16.9224 1.84439 16.9752 1.8254 17.0547 1.79691C17.1337 1.76546 17.2405 1.73401 17.3497 1.699C17.5686 1.6272 17.8007 1.56252 17.8493 1.54887C17.8986 1.53225 17.9532 1.54115 18.006 1.54293C18.0273 1.54056 18.7133 1.36906 18.7466 1.3744C18.8949 1.36669 19.0397 1.31803 19.1952 1.37915C19.2254 1.39102 19.2557 1.38509 19.2854 1.38152C19.5417 1.35067 19.8058 1.37974 20.0693 1.42306C20.204 1.44324 20.3399 1.44621 20.4781 1.47706C20.5031 1.48181 20.5256 1.49665 20.5493 1.50555C20.5796 1.51682 20.6087 1.53225 20.6395 1.53759C20.9647 1.60584 21.2751 1.7536 21.5801 1.92391C21.6151 1.94408 21.7018 2.02597 21.7854 2.10608C21.8596 2.20103 21.9308 2.29538 21.9664 2.32446C22.0133 2.35472 22.0347 2.54936 22.0667 2.57607Z" fill="#2458A4"/>
<path id="Fill 32" fill-rule="evenodd" clip-rule="evenodd" d="M17.1952 42.2326C19.4549 47.8831 24.5001 52.4536 30.4301 54.0315C32.5925 54.6053 34.854 54.7115 37.071 54.4457C40.9887 53.9793 44.764 52.2732 47.7869 49.6912C50.8115 47.1164 53.0819 43.6099 53.9299 39.7023C54.6817 36.2409 54.5464 32.5386 53.4712 29.1912C52.7947 27.0371 51.7248 25.0135 50.3326 23.2487C48.9547 21.4655 47.197 20.0128 45.2945 18.8076C44.113 18.0534 44.4157 17.8065 45.6613 18.1263C45.9734 18.2071 46.3449 18.3234 46.7656 18.4765C47.1709 18.6545 47.6065 18.8984 48.0859 19.1708C48.3215 19.312 48.5791 19.4479 48.8194 19.6229C49.0526 19.8099 49.2929 20.0027 49.5404 20.2009C49.7861 20.4045 50.0365 20.6181 50.2893 20.8412C50.529 21.0768 50.7504 21.3421 50.983 21.6061C54.2913 25.3761 55.9155 30.4177 55.8508 35.3478C55.8223 37.82 55.3968 40.2957 54.5049 42.6278C53.6047 44.9534 52.2511 47.0903 50.5546 48.8925C48.5174 51.0347 46.0689 52.8642 43.3054 54.0985C40.5674 55.3773 37.5149 56.0295 34.4908 55.9951C32.8245 55.9613 31.1754 55.6735 29.575 55.2379C27.987 54.7519 26.4619 54.0884 25.0247 53.2695C23.6124 52.4115 22.2701 51.4394 21.0708 50.3042C19.8928 49.1536 18.7832 47.9217 17.8853 46.5361C15.6297 43.1714 14.3794 39.1006 14.4957 35.0493C14.5088 33.5142 14.7592 31.9861 15.1396 30.5026C15.5217 29.0167 16.0902 27.5794 16.8219 26.2348C17.5465 24.8877 18.4135 23.6202 19.4015 22.4595C20.402 21.31 21.5158 20.2656 22.7163 19.3417C24.5897 17.9157 26.653 16.7627 28.8629 15.999C31.0633 15.2198 33.3978 14.7908 35.7554 14.8216C36.0147 14.824 36.2729 14.8264 36.5304 14.8287L37.3006 14.8875C37.8163 14.9142 38.3267 14.9907 38.8441 15.0821C40.7555 15.437 41.9714 15.8904 42.7666 16.3052C43.5754 16.6968 43.9724 17.0552 44.2489 17.4077C44.3747 17.5691 44.5504 17.7555 44.6032 17.8795C44.6916 18.089 44.3646 18.0735 43.722 17.8682C43.4033 17.7602 43.001 17.6125 42.5108 17.4641C42.2693 17.3822 42.0082 17.2938 41.7293 17.1988C41.4462 17.1181 41.1436 17.0321 40.8243 16.9407C37.0348 15.8494 32.8471 16.0518 29.0296 17.4433C27.1153 18.1263 25.3107 19.1405 23.6699 20.3706C22.0268 21.6008 20.5664 23.0879 19.3831 24.7714C18.4983 26.0158 17.7494 27.3605 17.1886 28.7811C16.632 30.2035 16.2528 31.693 16.0629 33.2086C15.6707 36.2427 16.0718 39.3813 17.2254 42.2118L17.1952 42.2326Z" fill="#2458A4"/>
</g>
</svg>
