<svg width="60" height="56" viewBox="0 0 60 56" fill="none" xmlns="http://www.w3.org/2000/svg">
<g id="Black">
<path id="Vector" d="M46.3594 0.889401C46.2322 1.1014 46.105 2.0766 46.0626 3.07299C45.999 4.79018 46.0202 4.87498 46.4654 4.93858C47.059 5.02338 47.2498 4.40858 47.2498 2.22499C47.271 0.910602 47.2074 0.635003 46.9106 0.571403C46.7198 0.529004 46.4654 0.677402 46.3594 0.889401Z" fill="#2458A4"/>
<path id="Vector_2" d="M53.5678 1.99181C53.1438 2.24621 50.7482 6.76179 50.8118 7.20698C50.8542 7.46138 51.0238 7.63098 51.2994 7.63098C51.5962 7.63098 52.0414 7.01618 53.0166 5.29899C53.7586 4.0058 54.3522 2.75501 54.3522 2.52181C54.3734 2.03421 53.9494 1.73741 53.5678 1.99181Z" fill="#2458A4"/>
<path id="Vector_3" d="M36.7772 6.0198C36.1412 6.2318 35.2932 6.5498 34.9116 6.7618C34.2332 7.1222 32.0709 8.86059 30.6293 10.2174C29.2725 11.5106 28.8273 11.447 26.5377 9.58138C24.6085 8.05499 23.3153 7.44019 20.2201 6.6558C17.7609 6.0198 17.4429 5.9986 14.8354 6.1046C12.5458 6.1894 11.825 6.3166 10.5954 6.7618C4.82901 8.94538 1.18263 13.6306 0.207432 20.1389C-0.979762 28.1525 2.94222 35.8692 11.6342 42.5684C15.111 45.2608 26.5377 52.4688 27.9369 52.8504C28.8273 53.1048 28.9757 53.02 31.1593 51.324L32.7705 50.0732L33.9789 50.9636C35.908 52.3416 39.3636 54.5039 41.0384 55.3519C42.3104 56.0091 42.6708 56.0939 43.116 55.9243C43.6036 55.7547 48.6916 51.9388 51.5112 49.628C56.8747 45.2608 59.0159 42.4412 59.7791 38.7948C60.5423 35.0212 59.3127 31.4173 56.3235 28.7037L55.0091 27.5165L55.4331 25.8629C55.9631 23.7641 56.0055 20.0117 55.5179 17.9553C55.3271 17.1709 54.7123 15.581 54.1611 14.415C52.1896 10.3022 48.7764 7.44019 44.2608 6.147C41.9924 5.4898 38.6216 5.4262 36.7772 6.0198ZM43.54 7.2282C48.6704 8.47899 52.974 12.8674 54.2459 18.1461C54.6911 19.9481 54.6911 23.7641 54.2671 25.4389C54.0763 26.1385 53.8855 26.7321 53.8432 26.7745C53.8008 26.8169 53.1224 26.6897 52.338 26.4989C49.7516 25.8629 47.7164 26.4565 45.1936 28.5977C44.4092 29.2549 43.7308 29.7849 43.6884 29.7849C43.6248 29.7849 42.9252 29.3609 42.1408 28.8733C38.9608 26.8381 36.5652 26.0325 34.3605 26.2657C29.5693 26.7533 26.2833 29.5729 25.2233 34.0673C24.8205 35.7632 24.8205 37.014 25.2233 38.922C25.9229 42.208 27.1737 44.4976 29.8661 47.3172C30.9049 48.3984 31.7105 49.3312 31.6681 49.3524C31.6257 49.3948 30.9897 49.8612 30.2901 50.4124L28.9969 51.3876L27.7461 50.4336C27.0465 49.8824 23.5909 47.5292 20.0293 45.1548C16.4677 42.8016 12.6306 40.088 11.4858 39.1128C7.98779 36.1872 5.359 32.8801 3.70541 29.2973C2.45462 26.6261 2.15782 25.0149 2.26382 21.7925C2.34862 19.3757 2.43342 18.8881 3.02702 17.3829C5.3802 11.4046 10.8286 7.50379 16.8069 7.52499C18.6937 7.54619 21.7465 8.22459 23.3153 9.00898C24.0149 9.34818 25.1597 10.0902 25.8593 10.6626C27.9157 12.3374 28.8485 12.6766 30.0357 12.2102C30.3113 12.1042 31.3289 11.2774 32.3253 10.4082C34.636 8.33059 35.378 7.82179 36.7984 7.313C38.2612 6.783 41.5684 6.7406 43.54 7.2282ZM53.5888 28.3433C56.0903 29.5941 58.1043 32.3289 58.6343 35.1696C59.0159 37.226 58.5071 39.7064 57.3199 41.8264C56.2599 43.6708 52.2532 47.508 47.6104 51.112L43.4764 54.2919L39.2364 51.43C34.1908 48.0592 33.0461 47.2112 31.3925 45.5576C29.2301 43.374 28.0641 41.3176 27.5341 38.7524C27.2373 37.3532 27.2161 36.8868 27.4493 35.6572C28.2125 31.3749 31.7529 28.3009 35.8868 28.3009C37.9644 28.3009 40.1904 28.9793 41.0808 29.8697C41.6956 30.4845 42.9888 31.2689 43.3916 31.2689C43.9004 31.2689 44.812 30.6541 46.1264 29.4457C48.4584 27.3257 50.854 26.9653 53.5888 28.3433Z" fill="#2458A4"/>
<path id="Vector_4" d="M9.85329 13.3762C7.03371 15.2842 5.71932 18.4005 6.48251 21.4321C6.69451 22.2801 6.77931 22.3861 7.28811 22.3225C7.7969 22.2589 7.8393 22.1953 7.7333 21.5169C7.50011 19.8421 7.64851 18.019 8.1149 17.1498C8.7721 15.8778 9.5777 14.9874 10.5317 14.4998C11.1677 14.1818 11.3585 13.9698 11.2949 13.6094C11.2101 13.0158 10.5529 12.9098 9.85329 13.3762Z" fill="#2458A4"/>
<path id="Vector_5" d="M51.8928 31.3961C51.808 31.6505 52.0412 31.9685 52.656 32.4773C53.6312 33.3041 54.1824 34.1945 54.352 35.2969C54.458 35.9117 54.5852 36.0389 55.0092 36.0389C55.4968 36.0389 55.5392 35.9753 55.518 35.0637C55.4756 33.8553 55.0304 32.9649 53.9068 31.8837C52.9952 31.0145 52.126 30.8025 51.8928 31.3961Z" fill="#2458A4"/>
<path id="Vector_6" d="M55.4544 8.05504C53.4828 9.41183 53.3556 9.56023 53.8008 10.0054C54.14 10.3446 54.2036 10.3446 54.8608 9.96303C55.2212 9.75103 56.048 9.19983 56.6628 8.75463C57.6168 8.03384 57.744 7.88544 57.5532 7.52504C57.2352 6.93144 57.002 6.99504 55.4544 8.05504Z" fill="#2458A4"/>
</g>
</svg>
