<svg width="42" height="60" viewBox="0 0 42 60" fill="none" xmlns="http://www.w3.org/2000/svg">
<g id="Icon">
<path id="Fill 1" fill-rule="evenodd" clip-rule="evenodd" d="M19.7982 54.5293C18.7598 54.504 17.6967 54.4035 16.6507 54.1103C16.2701 54.0038 15.8814 53.8989 15.5156 53.7221C14.8715 53.4157 14.273 52.9775 13.8019 52.4328C13.5641 52.1565 13.3604 51.8798 13.1781 51.552C12.987 51.2242 12.8755 50.8436 12.831 50.462C12.786 50.1221 12.8222 49.7723 12.9057 49.4423C12.9963 49.1112 13.1578 48.8097 13.3461 48.5341C13.8518 47.84 14.709 47.4243 15.5091 47.5006C15.76 47.5165 15.7243 47.6461 15.5634 47.8427C15.3915 48.0168 15.1598 48.3715 14.9023 48.5659C14.6546 48.7339 14.5113 48.9871 14.3515 49.1787C14.2038 49.3879 14.1088 49.6175 14.0665 49.8508C14.0034 50.0804 13.9919 50.3269 14.0407 50.5833C14.0912 50.8387 14.2181 51.0929 14.3905 51.3933C14.6003 51.7266 14.8891 52.0165 15.2224 52.2532C15.5618 52.4838 15.9407 52.6628 16.3311 52.8193C17.1943 53.1614 18.1651 53.3108 19.1458 53.3728C19.7515 53.4074 20.3665 53.4162 20.9716 53.3816C21.8903 53.3278 22.8166 53.2136 23.687 52.944C24.369 52.7534 25.0005 52.4624 25.6028 52.1307C25.7368 52.0588 25.8615 51.9786 25.9922 51.9012C26.4776 51.6135 26.6599 51.5613 26.8806 51.6404C26.93 51.658 26.9866 51.6678 27.0261 51.6904C27.1508 51.7519 27.0585 52.0314 26.723 52.3498C26.2228 52.8144 25.6385 53.2262 25.0027 53.5568C24.6842 53.7193 24.3569 53.8775 24.0165 53.9983C23.6727 54.1064 23.3224 54.1976 22.9693 54.269C21.9221 54.4897 20.8508 54.56 19.7998 54.5578L19.7982 54.5293Z" fill="#2458A4"/>
<path id="Fill 3" fill-rule="evenodd" clip-rule="evenodd" d="M22.6301 54.9267C22.0672 55.0761 21.4945 55.1826 20.9201 55.2704C20.7087 55.299 20.5017 55.3264 20.2897 55.355C19.5429 55.4088 18.7918 55.3923 18.0516 55.2886C17.7221 55.2452 17.3937 55.187 17.0697 55.1183C16.659 55.0146 16.2274 54.9091 15.8771 54.639C15.7656 54.5599 15.854 54.4583 16.0121 54.3957C16.1741 54.3304 16.3828 54.3144 16.5915 54.3809C17.3207 54.6543 18.1202 54.7773 18.94 54.8493C19.4331 54.8866 19.9487 54.8322 20.4501 54.7598C21.0047 54.6966 21.5549 54.5824 22.1002 54.4462C22.4362 54.366 22.7662 54.2557 23.0968 54.1535L23.8414 53.8894C24.0847 53.7906 24.3263 53.6857 24.5646 53.5775C24.9292 53.3974 25.268 53.1844 25.6211 52.9949L25.849 52.8615C26.14 52.7039 26.2553 52.6918 26.3684 52.7396C26.3942 52.7511 26.4244 52.7588 26.4442 52.7731C26.5095 52.8186 26.4277 52.9449 26.2383 53.1108C25.6798 53.6083 25.0061 54.0179 24.2873 54.338C23.7596 54.5906 23.2017 54.785 22.635 54.941L22.6301 54.9267Z" fill="#2458A4"/>
<path id="Fill 5" fill-rule="evenodd" clip-rule="evenodd" d="M23.7285 58.4683C23.907 58.3162 24.0597 58.0999 24.1997 57.8731C24.2535 57.7924 24.2733 57.6897 24.3238 57.604C24.4962 57.2927 24.6483 56.9561 24.7993 56.6079C24.8718 56.4564 24.9245 56.2944 24.9838 56.1329C25.064 55.9281 25.1156 55.6953 25.3462 55.5278C25.4121 55.4762 25.4879 55.5794 25.5571 55.7046C25.623 55.837 25.7032 55.9468 25.6823 56.0533C25.5823 56.3971 25.539 56.8429 25.2913 57.229C25.1573 57.464 25.1024 57.7435 24.9827 58.0005C24.8559 58.2838 24.6856 58.5567 24.4951 58.8159C24.3578 58.9653 24.2376 59.124 24.0706 59.2481L23.8911 59.3941L23.6846 59.5056C23.5528 59.5902 23.4046 59.633 23.2607 59.6873C23.1503 59.7384 23.04 59.773 22.9252 59.8049C22.8126 59.8345 22.694 59.8883 22.5776 59.8977C22.5265 59.9042 22.476 59.9053 22.4238 59.901C22.2311 59.8768 22.1746 59.8186 22.1603 59.6247C22.1564 59.5836 22.1504 59.5435 22.1504 59.5061C22.1509 59.3886 22.2382 59.2409 22.3503 59.1877C22.6935 59.0174 22.9488 58.9614 23.1986 58.8395C23.3656 58.7297 23.5572 58.6391 23.7126 58.4557L23.7285 58.4683Z" fill="#2458A4"/>
<path id="Fill 7" fill-rule="evenodd" clip-rule="evenodd" d="M15.0787 48.7744C14.9409 48.8315 14.7773 48.8941 14.6362 49.0034C14.5856 49.0434 14.5554 49.1005 14.5049 49.1417C14.3204 49.2861 14.1387 49.4553 14.0047 49.6552C13.9553 49.743 13.9245 49.8468 13.9306 49.9374C13.9273 50.0664 13.9734 50.1356 13.8778 50.235C13.8438 50.2685 13.6318 50.3679 13.3952 50.3932C13.1667 50.4316 12.868 50.3223 12.8444 50.1708C12.7824 49.8995 12.8356 49.6623 12.9185 49.4646C12.9987 49.262 13.1228 49.0956 13.2722 48.955C13.4545 48.7941 13.5352 48.5729 13.6944 48.4021C13.8712 48.2187 14.0667 48.0545 14.2897 47.92C14.4204 47.8326 14.5752 47.7733 14.7213 47.708C14.8344 47.6608 14.9623 47.6361 15.0793 47.6009C15.2083 47.5888 15.3302 47.5597 15.4587 47.551C15.5592 47.5493 15.6619 47.5251 15.7668 47.5208C15.8695 47.5257 15.9782 47.5312 16.0858 47.5488C16.1352 47.5521 16.1715 47.579 16.211 47.6037C16.3483 47.7124 16.3516 47.8074 16.2533 48.0034C16.2308 48.0484 16.2099 48.0929 16.1847 48.1347C16.1001 48.2719 15.9733 48.3697 15.875 48.4224C15.5697 48.5948 15.5537 48.6453 15.4247 48.6755C15.3412 48.6942 15.2199 48.7315 15.0952 48.798L15.0787 48.7744Z" fill="#2458A4"/>
<path id="Fill 9" fill-rule="evenodd" clip-rule="evenodd" d="M5.66001 39.5462C4.34434 38.0207 3.1588 36.3684 2.21103 34.5783C2.02818 34.2571 1.86948 33.9232 1.71354 33.5877C1.54825 33.2566 1.39944 32.9189 1.2726 32.5708C0.303963 30.1492 -0.0919475 27.5052 0.10134 24.9205C0.13264 24.3462 0.228185 23.7756 0.297374 23.2051C0.420375 22.6439 0.489014 22.0706 0.651002 21.5237C0.97443 20.1021 1.52684 18.6887 2.3829 17.4949C2.65197 17.1242 2.67613 17.2198 2.54544 17.5871C2.40926 17.9545 2.18083 18.6195 1.87772 19.3739C1.74374 19.7095 1.62513 20.0516 1.51915 20.3964C1.41207 20.7396 1.33959 21.1009 1.23745 21.449C1.13752 21.7994 1.04746 22.1514 0.987608 22.5105C0.925009 22.8685 0.830562 23.2216 0.792673 23.5834C0.563144 25.021 0.546122 26.4883 0.686145 27.9461C0.852527 29.6951 1.39725 31.4682 2.15722 33.0979C2.98363 34.8974 4.04232 36.5969 5.28716 38.1558C6.04329 39.1228 6.86092 40.0448 7.72083 40.9244C9.01729 42.2643 10.4082 43.5272 11.826 44.7237C12.9292 45.6545 14.0516 46.516 15.1613 47.421C15.4046 47.622 15.6495 47.8098 15.8867 48.0234C16.7746 48.8031 17.0146 49.1062 17.1024 49.3769C17.1233 49.4379 17.1584 49.5104 17.1634 49.5521C17.1777 49.6949 16.7812 49.4203 16.1184 48.8811C14.1389 47.2958 11.9957 45.6539 9.95846 43.8534C8.44731 42.5147 6.98172 41.0985 5.65013 39.5577L5.66001 39.5462Z" fill="#2458A4"/>
<path id="Fill 11" fill-rule="evenodd" clip-rule="evenodd" d="M3.04182 16.4593C3.90613 15.3045 4.92418 14.2886 6.03504 13.3974C7.1717 12.5419 8.38853 11.805 9.67401 11.2147C12.2537 10.0682 15.0696 9.44327 17.9052 9.53223C18.9397 9.56407 19.9721 9.68323 20.9704 9.88146C21.4733 9.98085 21.9747 10.1006 22.4716 10.2472C22.9686 10.391 23.4545 10.6013 23.9433 10.7809C25.6367 11.5211 27.1435 12.6611 28.3449 14.0377C29.5519 15.4138 30.4618 17.0161 31.0856 18.7024C32.3529 22.0784 32.5962 25.7431 32.1239 29.2443C31.935 30.8043 31.6034 32.3435 31.1937 33.853C30.7978 35.3685 30.2778 36.8413 29.7254 38.2871C29.0132 40.1453 28.1588 41.9496 27.2061 43.6964C26.2611 45.4475 25.187 47.125 24.0212 48.7257C23.2904 49.7223 23.2541 49.4906 23.667 48.5176C23.8785 48.0349 24.1772 47.3518 24.5588 46.5463C24.9267 45.7325 25.3825 44.7995 25.903 43.8051C26.831 42.043 27.6256 40.2205 28.3861 38.393C29.1307 36.5579 29.7666 34.681 30.2465 32.7679C31.2152 28.9516 31.5144 24.9409 30.5919 21.1141C30.3108 19.9769 29.916 18.8562 29.3954 17.7909C28.8726 16.7262 28.1956 15.7367 27.4054 14.8553C26.6125 13.9773 25.6971 13.2019 24.6631 12.6287C23.6308 12.0543 22.5342 11.6145 21.3657 11.3437C16.2535 10.0643 10.5548 11.3948 6.46005 14.7565C5.20862 15.7921 4.12083 17.0309 3.32242 18.4383C3.14341 18.8002 2.95122 19.1571 2.78045 19.5222L2.36037 20.6578C2.15061 21.4485 1.93207 22.2403 1.82554 23.053L1.74921 23.5115L1.71077 23.975L1.63719 24.9024L1.64323 25.8332L1.64818 26.2983L1.69156 26.7623C1.76569 28.0044 2.05232 29.2251 2.40485 30.4183C2.76507 31.6131 3.28508 32.7548 3.85067 33.8678C4.44261 34.9688 5.11363 36.0258 5.8434 37.0389C8.13759 40.1843 10.9622 42.7975 13.8582 45.3558C14.4985 45.9197 15.1366 46.4584 15.7741 47.0449C18.1424 49.1946 18.786 50.1386 18.9095 50.9029C18.9364 51.0775 18.9655 51.2966 18.9513 51.396C18.937 51.4822 18.8832 51.474 18.7909 51.3966C18.6943 51.3186 18.5938 51.1676 18.3884 50.9732C18.0112 50.579 17.3841 49.965 16.516 49.2034C13.9143 46.9702 11.1149 44.6991 8.55437 42.0716C5.9988 39.4534 3.60686 36.4755 2.03475 32.9766C1.44885 31.6829 1.01011 30.3139 0.705898 28.9121C0.395649 27.508 0.316577 26.0556 0.361055 24.6175C0.414319 23.1738 0.700956 21.756 1.0749 20.3728C1.51035 18.9671 2.17313 17.6404 3.01052 16.4456L3.04182 16.4593Z" fill="#2458A4"/>
<path id="Fill 13" fill-rule="evenodd" clip-rule="evenodd" d="M17.2383 53.6469C18.638 53.9034 20.1267 53.8611 21.5862 53.6233C22.115 53.5305 22.6509 53.3834 23.1638 53.2708C24.0265 53.0473 24.9056 52.6366 25.7079 52.1605C26.5085 51.6767 27.2553 51.0842 27.7758 50.3643C28.2146 49.7153 28.3172 48.9372 27.9279 48.2997C27.6858 47.895 27.2794 47.5611 26.8412 47.2871C26.3937 47.0235 25.9165 46.7836 25.4091 46.6029C25.0939 46.4969 25.1412 46.3937 25.4657 46.3014C25.7787 46.2301 26.4228 46.1296 27.079 46.4223C27.6517 46.6781 28.2156 47.0252 28.6725 47.5831C28.9114 47.8582 29.0536 48.2162 29.1887 48.5671C29.2277 48.7549 29.259 48.9476 29.2743 49.1404C29.2793 49.3315 29.2463 49.5203 29.2266 49.7098C29.0816 50.4522 28.6956 51.0414 28.2772 51.5296C27.8554 52.0243 27.359 52.3971 26.8484 52.7338C26.2355 53.1313 25.6002 53.4899 24.9352 53.8095C24.6025 53.9687 24.2609 54.1153 23.9068 54.2422C23.7316 54.3086 23.5416 54.3569 23.3604 54.4135L22.8316 54.5288C21.2897 54.872 19.6912 55.0516 18.0928 54.917C17.1104 54.8308 16.133 54.6249 15.2022 54.2647C14.4994 53.9841 13.8366 53.5865 13.2534 53.0824C12.6785 52.5696 12.2085 51.9079 11.9762 51.1402C11.8082 50.5455 11.7829 49.8767 11.9855 49.2694C12.1942 48.6643 12.5846 48.1432 13.0503 47.7434C13.2556 47.5661 13.4637 47.4035 13.6971 47.2673C14.1276 47.0131 14.451 46.9379 14.6784 46.9093C14.9101 46.8912 15.0595 46.9439 15.1934 47.0543C15.2544 47.1032 15.3269 47.1465 15.3664 47.1981C15.4993 47.3766 15.1901 47.6336 14.6811 47.9548C13.9228 48.4216 13.2853 49.0679 13.1112 49.7576C13.0058 50.1013 13.025 50.4407 13.1057 50.7992C13.2035 51.1578 13.4138 51.5076 13.6707 51.8338C14.4884 52.7996 15.8447 53.3795 17.2411 53.6178L17.2383 53.6469Z" fill="#2458A4"/>
<path id="Fill 15" fill-rule="evenodd" clip-rule="evenodd" d="M15.7716 51.0483C16.5481 51.3734 17.4118 51.5859 18.2953 51.6896C18.6182 51.7292 18.9449 51.7237 19.2706 51.7363C20.4204 51.7868 21.5961 51.7017 22.7223 51.4145C23.2203 51.286 23.7101 51.1098 24.1588 50.8792C24.7359 50.5771 25.2383 50.1873 25.6842 49.754C25.8259 49.6195 25.9313 49.6964 25.9511 49.9347C25.9829 50.1768 25.883 50.598 25.5546 50.8967C24.3894 51.9109 22.9474 52.3837 21.512 52.5243C20.6521 52.6061 19.7653 52.7379 18.8807 52.7126C17.9115 52.6835 16.9368 52.5572 15.9984 52.2547C15.4224 52.0691 14.859 51.8209 14.339 51.4859C13.9475 51.2295 13.5818 50.9181 13.2808 50.5436C13.1403 50.3487 12.9992 50.1543 12.8943 49.9363C12.774 49.7408 12.6862 49.4295 12.6917 49.1648C12.6977 48.7349 12.8619 48.3532 13.0722 48.0347C13.2858 47.7152 13.5538 47.445 13.8629 47.2254C13.9969 47.1254 14.1364 47.037 14.2901 46.9618C14.8766 46.701 15.1445 46.802 15.2763 47.0337C15.3076 47.0875 15.3444 47.1391 15.3598 47.1919C15.401 47.3703 15.211 47.5334 14.9287 47.6888C14.4982 47.9156 14.093 48.2868 13.8728 48.6712C13.7624 48.8612 13.7141 49.0468 13.7251 49.1692C13.7267 49.2329 13.7459 49.2818 13.7707 49.3334C13.8003 49.3971 13.8827 49.5294 13.9326 49.6261C14.3187 50.229 14.9963 50.71 15.7804 51.023L15.7716 51.0483Z" fill="#2458A4"/>
<path id="Fill 17" fill-rule="evenodd" clip-rule="evenodd" d="M18.9325 56.0745C19.6568 56.2447 20.4448 56.2705 21.2305 56.1997C21.5188 56.1799 21.7989 56.0997 22.0855 56.0525C23.0997 55.8872 24.1018 55.5715 25.0606 55.1514C25.4812 54.9559 25.8837 54.716 26.2483 54.443C26.7299 54.0988 27.1132 53.6721 27.5091 53.2756C27.6425 53.1559 27.7617 53.2295 27.8182 53.4574C27.8446 53.57 27.8671 53.7347 27.8336 53.906C27.7941 54.0647 27.7177 54.2399 27.5958 54.3969C26.6816 55.4161 25.5438 56.1464 24.2836 56.5313C23.5286 56.7477 22.7768 57.0623 21.9806 57.2001C21.1114 57.3577 20.2163 57.4132 19.3229 57.3237C18.7749 57.2655 18.223 57.1353 17.7063 56.9514C16.9227 56.6637 16.1825 56.2222 15.5686 55.6467C15.0893 55.2063 14.6483 54.711 14.3315 54.1295C14.2667 53.9999 14.203 53.8725 14.1486 53.7369C13.9899 53.2191 14.0805 53.0208 14.298 52.8605C14.348 52.8237 14.393 52.7809 14.4408 52.7567C14.594 52.676 14.8268 52.8303 15.0289 53.112C15.3259 53.5321 15.5846 53.928 15.8794 54.2909C16.1754 54.6528 16.5241 54.9647 16.9194 55.2288C17.5004 55.6187 18.2214 55.9037 18.9363 56.0448L18.9325 56.0745Z" fill="#2458A4"/>
<path id="Fill 22" fill-rule="evenodd" clip-rule="evenodd" d="M15.9083 22.37C15.8886 22.0949 15.8869 21.8126 15.9023 21.5238L15.9347 21.0785L15.988 20.7572C16.0187 20.6414 16.0604 20.5294 16.0961 20.4152C16.2488 19.9561 16.6057 19.6574 17.0285 19.5701C17.4557 19.4855 17.9011 19.6321 18.2437 19.944C18.3266 20.0247 18.4134 20.1076 18.482 20.1994C18.5584 20.2916 18.6308 20.3811 18.6621 20.441C18.7495 20.5771 18.8186 20.7111 18.8845 20.8451C19.0152 21.112 19.1157 21.3755 19.2058 21.638C19.3754 22.1674 19.5177 22.7165 19.5819 23.2612C19.8526 25.4406 19.5248 27.6382 18.571 29.6122C18.3958 29.9719 18.191 30.32 17.9648 30.6572C17.85 30.8269 17.6963 30.9982 17.5612 31.1662C17.4003 31.3205 17.2366 31.4781 17.0527 31.611C16.301 32.1557 15.2939 32.299 14.4686 32.1036C13.7267 31.9515 13.0689 31.6368 12.472 31.2612C11.874 30.8812 11.3364 30.4392 10.8499 29.9252C10.3557 29.3948 9.97189 28.8127 9.64901 28.1944C9.32997 27.5756 9.0675 26.9216 8.93571 26.2138C8.80612 25.5153 8.78251 24.7306 9.1246 24.0042C9.28659 23.6511 9.50953 23.3348 9.83351 23.0679C10.1509 22.8005 10.5946 22.6456 11.0157 22.6588C11.8702 22.6874 12.5137 23.2019 12.9991 23.6714C13.5005 24.1596 13.9151 24.7131 14.2775 25.288C15.5586 27.3384 16.2746 29.638 16.9544 31.846C17.3986 33.2721 17.7885 34.7366 18.0367 36.2323C18.1531 36.9813 18.2426 37.7369 18.2657 38.4958C18.2887 39.2552 18.2498 40.0135 18.1784 40.7647C18.0642 41.7015 17.9258 41.5516 17.7803 40.7636C17.7001 40.343 17.5947 39.7972 17.4733 39.1635C17.3284 38.5095 17.1828 37.7561 17.0439 36.9358C16.7957 35.4806 16.3811 34.0562 15.9369 32.6219C15.5042 31.1712 15.072 29.7298 14.5471 28.357C14.021 26.988 13.3813 25.6455 12.4594 24.6043C12.232 24.3457 11.975 24.0997 11.734 23.9339C11.4836 23.7686 11.2162 23.6664 10.9894 23.667C10.7621 23.661 10.5638 23.7422 10.3716 23.9278C10.1795 24.1145 10.0164 24.394 9.934 24.6647C9.72039 25.3506 9.88513 26.2308 10.2091 27.0237C10.5314 27.8232 11.0136 28.6035 11.6006 29.2174C12.2145 29.839 12.953 30.3739 13.7355 30.7286C14.5141 31.0657 15.3741 31.2261 16.0467 30.9114C16.4185 30.75 16.7381 30.4656 17.0022 30.1086C17.2707 29.7204 17.5079 29.2976 17.7045 28.8539C18.0867 27.9611 18.3415 26.9979 18.4496 26.0194C18.5677 25.0409 18.543 24.0453 18.37 23.0882C18.2723 22.6143 18.1432 22.1471 17.9604 21.7001C17.8698 21.4799 17.7671 21.269 17.6512 21.0878C17.5551 20.9368 17.5063 20.8792 17.3937 20.8149C17.2608 20.7397 17.0939 20.8193 17.0412 20.9571C17.0121 21.0219 16.9874 21.0955 16.9769 21.1619C16.9528 21.2718 16.9258 21.4316 16.9209 21.5716C16.8924 22.1569 16.9588 22.7725 17.073 23.3721C17.1889 23.9723 17.3547 24.5675 17.5864 25.1254C17.8127 25.6691 18.1207 26.239 18.5144 26.5114C18.8401 26.7107 19.242 26.8085 19.628 26.7354C20.019 26.6695 20.4028 26.4598 20.7394 26.1836C21.4088 25.6251 21.9453 24.8273 22.2023 23.9981C22.3291 23.6055 22.333 23.1541 22.2764 22.7264C22.2149 22.3052 22.0612 21.8862 21.8091 21.6715C21.5483 21.4552 21.288 21.4579 21.0129 21.7176C20.7361 21.9829 20.5105 22.3837 20.3402 22.7934C20.1997 23.1135 20.1178 23.4397 20.0371 23.7999C19.9465 24.1486 19.8861 24.5044 19.8279 24.8597C19.723 25.5713 19.6599 26.2879 19.6445 27.0051C19.6121 28.4393 19.7208 29.8725 19.9696 31.2854C20.0794 31.9081 20.2161 32.511 20.3715 33.1271C20.6549 34.2715 20.8992 35.0067 21.031 35.5388C21.1694 36.0687 21.1914 36.3993 21.1513 36.6958C21.1326 36.8309 21.1304 37.0017 21.0964 37.0923C21.0085 37.3932 20.3287 36.5981 19.7192 34.8837C18.8368 32.3468 18.3953 29.57 18.5161 26.7415C18.554 26.0353 18.6204 25.3253 18.739 24.6181C18.8055 24.2661 18.845 23.9081 18.9301 23.5561L19.0465 23.0196C19.0981 22.817 19.1585 22.6347 19.2255 22.4485C19.3634 22.0801 19.5264 21.7176 19.7659 21.3514C20.0053 21.0022 20.3249 20.5722 21.0206 20.341C21.3522 20.2658 21.7213 20.2587 22.0337 20.4108C22.3637 20.5189 22.5987 20.721 22.7904 20.9335C23.1704 21.3695 23.3126 21.8269 23.4109 22.253C23.5322 22.896 23.5476 23.4852 23.3845 24.1656C23.2132 24.785 22.9414 25.3121 22.6119 25.8036C22.2792 26.2912 21.8832 26.7387 21.3929 27.1176C20.9053 27.4894 20.2969 27.8079 19.5775 27.865C19.4023 27.8908 19.2167 27.8595 19.0383 27.8512C18.8598 27.8287 18.6869 27.7722 18.5133 27.7271C18.3508 27.6612 18.1943 27.5833 18.0378 27.5064C17.8626 27.4037 17.7111 27.2791 17.5842 27.155C17.101 26.6503 16.8528 26.1248 16.6315 25.6021C16.2164 24.5511 15.9687 23.4929 15.8831 22.3777L15.9083 22.37Z" fill="#2458A4"/>
<path id="Fill 24" fill-rule="evenodd" clip-rule="evenodd" d="M37.6622 23.6964C37.6496 23.7925 37.5227 23.7502 37.3256 23.6338C37.2624 23.597 37.1136 23.4438 37.1087 23.406C37.0988 23.3324 37.0906 23.2593 37.095 23.1967C37.095 23.1589 37.3443 22.7607 37.4327 22.6207C37.515 22.484 37.6232 22.3736 37.7407 22.2748C37.9741 22.0672 38.2239 21.8745 38.4881 21.6988C38.5468 21.6603 38.6127 21.6329 38.683 21.6147C38.9279 21.5571 39.1388 21.4489 39.3474 21.3226C39.3826 21.3023 39.4232 21.2919 39.443 21.2392C39.4688 21.1436 40.0964 20.8949 40.192 20.9064C40.4209 20.9157 40.6395 20.9042 40.8619 20.9322C40.8932 20.936 40.9223 20.9135 40.958 20.9575C41.0398 21.0585 41.0991 21.031 41.1644 21.031C41.2539 21.0288 41.3451 21.0393 41.4362 21.0689C41.4813 21.0832 41.529 21.142 41.5741 21.1881C41.6147 21.2293 41.6043 21.394 41.5933 21.4127C41.5603 21.467 41.5955 21.5412 41.6032 21.6087C41.6059 21.6312 41.6092 21.6609 41.6087 21.6795C41.5993 21.7158 41.2062 22.0568 41.1694 22.07C41.1633 22.0667 41.0162 22.1304 40.8646 22.1897C40.712 22.2501 40.5577 22.3226 40.5286 22.3451C40.4978 22.3659 40.4544 22.3511 40.4149 22.3467C40.3929 22.3407 39.9701 22.601 39.9542 22.6097C39.8559 22.6405 39.7829 22.7207 39.6472 22.6789C39.6203 22.6718 39.6044 22.6866 39.5868 22.6976C39.4358 22.792 39.2629 22.8486 39.0954 22.9233C39.0114 22.9634 38.9394 23.0227 38.862 23.0737C38.8477 23.0831 38.8263 23.0814 38.8087 23.0858C38.7868 23.0913 38.7621 23.093 38.745 23.1061C38.566 23.2346 38.3546 23.3285 38.2042 23.4982C38.1679 23.5333 37.9098 23.6152 37.8731 23.6651C37.8516 23.6909 37.6671 23.6569 37.6622 23.6964Z" fill="#2458A4"/>
<path id="Fill 26" fill-rule="evenodd" clip-rule="evenodd" d="M32.3713 11.4612C32.3581 11.56 32.2236 11.515 32.0182 11.3964C31.9529 11.3585 31.798 11.2015 31.792 11.1625C31.7805 11.0856 31.7706 11.0093 31.7728 10.9434C31.7728 10.9039 32.0116 10.4777 32.0918 10.3234C32.1676 10.1746 32.2708 10.0538 32.3828 9.944C32.6118 9.72161 32.8562 9.51789 33.0989 9.32241C33.1532 9.27958 33.2158 9.24663 33.285 9.22686C33.5222 9.15658 33.7122 9.02479 33.8836 8.87049C33.9121 8.84468 33.9484 8.82876 33.9522 8.77C33.9621 8.67336 34.4502 8.31149 34.5293 8.29337C34.7347 8.25054 34.9192 8.17806 35.1136 8.11656C35.1421 8.10942 35.1559 8.07867 35.2097 8.10832C35.3349 8.17751 35.3706 8.12534 35.4255 8.09898C35.5018 8.06164 35.5803 8.0276 35.6731 8.01058C35.7192 8.00179 35.7956 8.03254 35.8631 8.05121C35.9246 8.06823 36.024 8.22253 36.0262 8.2467C36.0322 8.31533 36.1113 8.36366 36.1618 8.42076C36.1788 8.43998 36.2014 8.46524 36.2129 8.48227C36.2387 8.51686 36.0547 9.10112 36.0097 9.13791C36.0114 9.16317 35.4562 9.65792 35.4013 9.72436C35.3728 9.75895 35.3189 9.75895 35.2728 9.76829C35.2508 9.77488 34.8247 10.1779 34.8055 10.1856C34.6979 10.2389 34.626 10.341 34.4678 10.3163C34.4365 10.3114 34.42 10.3289 34.4019 10.3438C34.246 10.4684 34.0593 10.5453 33.8825 10.6359C33.7935 10.6826 33.7216 10.7528 33.6403 10.8094C33.6255 10.8204 33.6019 10.8182 33.5837 10.8237C33.5601 10.8303 33.5332 10.8319 33.5157 10.8467C33.3388 11.0005 33.1055 11.0851 32.9495 11.2635C32.9111 11.2998 32.6338 11.3794 32.5953 11.431C32.5723 11.4574 32.3768 11.4206 32.3713 11.4612Z" fill="#2458A4"/>
<path id="Fill 19" fill-rule="evenodd" clip-rule="evenodd" d="M25.2501 58.3817C24.9596 58.7963 24.6148 59.2147 24.1557 59.5403C23.9828 59.6507 23.8208 59.783 23.6209 59.8522C23.2777 59.9945 22.8741 60.0307 22.5243 59.9752C22.1696 59.9214 21.8484 59.8006 21.5606 59.6447C21.3048 59.5074 21.0577 59.3663 20.8226 59.2142C20.6738 59.1142 20.5212 59.0181 20.3833 58.9045C20.251 58.7837 20.1395 58.6398 20.0467 58.4822C19.9902 58.3823 20.0945 58.301 20.2625 58.2538C20.4278 58.2098 20.6694 58.1774 20.8397 58.2543C21.3706 58.6266 21.9049 58.9352 22.4359 59.14C22.7731 59.2614 23.0899 59.1686 23.3985 58.9978C23.7351 58.8155 24.0344 58.5129 24.2925 58.1544C24.4545 57.9364 24.5989 57.6937 24.7373 57.4471C24.9421 57.0682 25.1491 56.6773 25.3281 56.2731C25.4643 55.9585 25.5571 55.6213 25.7059 55.3001C25.7394 55.2293 25.7646 55.1551 25.8036 55.0865C25.964 54.8394 26.093 54.8097 26.3242 54.9047C26.3742 54.9245 26.423 54.9382 26.4626 54.958C26.5823 55.0151 26.6959 55.2364 26.6498 55.428C26.5202 56.003 26.2803 56.54 25.9931 57.1083C25.7833 57.53 25.5466 57.9605 25.2704 58.3932L25.2501 58.3817Z" fill="#2458A4"/>
<path id="Fill 28" fill-rule="evenodd" clip-rule="evenodd" d="M17.8402 5.23599C17.9011 5.3222 17.782 5.40072 17.5673 5.47265C17.4986 5.49572 17.2894 5.49901 17.257 5.4754C17.1955 5.42927 17.1335 5.38315 17.0879 5.33592C17.0632 5.30572 16.8952 4.84227 16.8144 4.69017C16.7414 4.54136 16.703 4.39145 16.6711 4.24099C16.6074 3.93569 16.5135 3.63642 16.4603 3.33331C16.4465 3.26632 16.4482 3.19713 16.4603 3.12629C16.5047 2.88194 16.463 2.64857 16.3845 2.42233C16.3713 2.38444 16.3702 2.34326 16.3153 2.31526C16.2208 2.27023 16.0676 1.64699 16.1083 1.55089C16.1654 1.32466 16.1819 1.10501 16.2104 0.880973C16.2143 0.849124 16.1906 0.821669 16.2379 0.782133C16.3477 0.689333 16.3087 0.631676 16.3164 0.561938C16.323 0.466942 16.3274 0.371396 16.3598 0.26981C16.3916 0.214899 16.457 0.1523 16.4987 0.0962908C16.5371 0.0446742 16.6486 0.0391831 16.6695 0.048518C16.7205 0.0781701 16.7727 0.0303973 16.8199 0.014473C16.8364 0.0089819 16.8578 0.00184343 16.8732 0.000196092C16.9281 -0.010237 17.4833 0.398852 17.4734 0.463098C17.4756 0.469138 17.5568 0.653091 17.643 0.849674C17.7287 1.04461 17.8221 1.24888 17.8462 1.28951C17.8726 1.33234 17.8545 1.38451 17.8484 1.43393C17.8539 1.45425 18.0626 2.06266 18.062 2.09012C18.0681 2.223 18.1345 2.34765 18.0395 2.49756C18.0214 2.52721 18.0313 2.55247 18.0373 2.57883C18.0856 2.80177 18.0692 3.03569 18.0653 3.26522C18.0631 3.38273 18.0895 3.49695 18.09 3.61391C18.0906 3.63477 18.0746 3.65729 18.0681 3.67925C18.0598 3.70671 18.0461 3.73471 18.0477 3.76107C18.067 4.03508 18.0142 4.31403 18.0554 4.58419C18.0642 4.64679 17.9478 4.95264 17.9626 5.02293C17.9698 5.06356 17.8144 5.20194 17.8402 5.23599Z" fill="#2458A4"/>
<path id="Fill 31" fill-rule="evenodd" clip-rule="evenodd" d="M0.0606384 6.19964C-0.0563226 6.18426 0.0035307 6.02776 0.174854 5.79878C0.229216 5.72575 0.438428 5.55223 0.483455 5.54454C0.570764 5.52862 0.655877 5.51379 0.725065 5.51215C0.765699 5.51544 1.1649 5.7274 1.31701 5.77243C1.45868 5.82404 1.57399 5.90202 1.68491 5.98713L2.39052 6.47968C2.44324 6.51647 2.48717 6.56534 2.5267 6.62355C2.65849 6.82672 2.84739 6.95576 3.0555 7.0557C3.09009 7.07218 3.1192 7.10018 3.17521 7.07986C3.26361 7.04801 3.80394 7.36925 3.85885 7.44283C3.98954 7.62403 4.14055 7.77669 4.28441 7.94307C4.30528 7.96668 4.34207 7.96778 4.33768 8.02928C4.32724 8.1715 4.39314 8.18578 4.44421 8.22641C4.51449 8.28352 4.58203 8.34722 4.63694 8.43013C4.6644 8.47077 4.6644 8.55588 4.67154 8.62836C4.67868 8.69425 4.56117 8.84801 4.53865 8.85899C4.47276 8.89029 4.45409 8.98474 4.4162 9.05557C4.40357 9.07918 4.38655 9.10993 4.37392 9.12805C4.34482 9.16649 3.73969 9.19559 3.69247 9.16649C3.68698 9.16375 3.51071 9.09236 3.32292 9.01494C3.13512 8.93971 2.93744 8.86173 2.89351 8.8502C2.84793 8.83867 2.82432 8.7898 2.79467 8.75081C2.78204 8.73654 2.19779 8.5114 2.17747 8.49328C2.07533 8.41476 1.93806 8.3851 1.89138 8.22037C1.88259 8.18797 1.85679 8.17864 1.83427 8.16711C1.63549 8.06058 1.47351 7.89804 1.30712 7.74319C1.22091 7.66522 1.11878 7.60701 1.02598 7.53672C1.00951 7.5241 1.00347 7.49774 0.991385 7.47907C0.976009 7.45601 0.966125 7.42471 0.945259 7.40933C0.725614 7.24075 0.559233 7.01122 0.328056 6.85033C0.271498 6.81464 0.153988 6.4989 0.0930361 6.45772C0.0562455 6.43411 0.106215 6.20568 0.0606384 6.19964Z" fill="#2458A4"/>
</g>
</svg>
