<svg width="14" height="16" viewBox="0 0 14 16" fill="none" xmlns="http://www.w3.org/2000/svg">
<g id="Icon/verified" clip-path="url(#clip0_628_1592)">
<path id="Vector" d="M6.61663 0.0900002C6.52964 0.135 6.29424 0.315001 6.09467 0.485001C5.21962 1.24 4.07846 1.815 2.96802 2.07C2.28742 2.225 2.05714 2.255 1.25373 2.305C0.808529 2.33 0.378678 2.38 0.307036 2.415C0.235394 2.45 0.138166 2.555 0.0921109 2.65C0.0102345 2.81 0 3.02 0 4.85C0 6.815 0.0511727 7.725 0.204691 8.65C0.496375 10.42 1.14115 11.89 2.1339 13.06C3.16759 14.28 4.7693 15.305 6.53987 15.895L6.85714 16L7.17953 15.895C10.7309 14.715 12.9006 12.26 13.4891 8.75C13.6682 7.67 13.7092 6.94 13.7143 4.875C13.7143 3.02 13.7041 2.81 13.6222 2.65C13.5761 2.555 13.4789 2.45 13.4072 2.415C13.3356 2.38 12.9058 2.33 12.4606 2.305C11.6571 2.255 11.4269 2.225 10.7463 2.07C9.62047 1.815 8.38209 1.175 7.51727 0.405001C7.2 0.125 6.99531 0 6.84179 0C6.80597 0 6.70874 0.04 6.61663 0.0900002ZM9.92751 6.46C9.85586 6.515 9.58977 6.755 9.33902 6.995C9.08316 7.23 8.53049 7.74 8.11087 8.125C7.68614 8.515 7.10789 9.045 6.8162 9.315C6.07932 9.99 5.90021 10.015 5.38337 9.49C4.81023 8.9 3.76119 7.74 3.75096 7.68C3.74584 7.65 3.93518 7.46 4.17569 7.26L4.60554 6.895L4.87676 7.185C5.03028 7.345 5.34243 7.685 5.57271 7.935C5.8081 8.19 6.01791 8.4 6.03838 8.4C6.07932 8.4 7.20512 7.365 8.71983 5.94L9.1855 5.505L9.62047 5.93L10.0554 6.36L9.92751 6.46Z" fill="#2AA100"/>
</g>
<defs>
<clipPath id="clip0_628_1592">
<rect width="13.7143" height="16" fill="white"/>
</clipPath>
</defs>
</svg>
