<svg width="361" height="340" viewBox="0 0 361 340" fill="none" xmlns="http://www.w3.org/2000/svg">
<path d="M302.704 118.561L304.204 113.081L310.405 113.363C310.98 112.156 311.644 111.012 312.398 109.942L309.116 104.683L313.155 100.687L318.386 104.032C319.475 103.285 320.624 102.63 321.822 102.074L321.607 95.8689L327.105 94.4277L329.957 99.932C331.261 99.83 332.585 99.8409 333.916 99.9603L336.833 94.482L342.313 95.9818L342.031 102.183C343.238 102.758 344.382 103.422 345.452 104.175L350.711 100.894L354.706 104.933L351.362 110.164C352.108 111.253 352.764 112.401 353.32 113.599L359.523 113.385L360.964 118.882L355.46 121.734C355.562 123.039 355.551 124.363 355.431 125.693L360.91 128.61L359.41 134.091L353.209 133.809C352.634 135.015 351.969 136.159 351.216 137.229L354.498 142.488L350.459 146.484L345.228 143.139C344.138 143.886 342.99 144.542 341.792 145.097L342.007 151.303L336.509 152.744L333.657 147.239C332.353 147.341 331.029 147.331 329.698 147.211L326.781 152.689L321.301 151.19L321.583 144.989C320.376 144.413 319.232 143.749 318.162 142.996L312.903 146.278L308.908 142.239L312.252 137.008C311.506 135.918 310.85 134.77 310.294 133.572L304.089 133.787L302.648 128.289L308.152 125.437C308.05 124.133 308.061 122.809 308.18 121.478L302.704 118.561ZM327.945 137.694C335.737 139.827 343.785 135.241 345.918 127.447C348.052 119.655 343.466 111.607 335.671 109.473C327.88 107.34 319.831 111.926 317.698 119.72C315.566 127.514 320.153 135.56 327.945 137.694Z" fill="#2458A4"/>
<path d="M227.107 44.7742L229.674 35.3956L240.283 35.8774C241.267 33.8111 242.406 31.8534 243.693 30.0237L238.076 21.025L244.989 14.1858L253.938 19.9093C255.802 18.6309 257.767 17.511 259.815 16.5582L259.449 5.94025L268.855 3.47461L273.737 12.8922C275.968 12.7186 278.234 12.736 280.511 12.94L285.501 3.5636L294.879 6.13125L294.397 16.7405C296.462 17.7237 298.421 18.8632 300.251 20.1503L309.25 14.5331L316.089 21.446L310.366 30.3948C311.644 32.2571 312.764 34.2235 313.717 36.2725L324.332 35.9056L326.798 45.3124L317.38 50.1938C317.556 52.425 317.537 54.691 317.333 56.9678L326.709 61.9577L324.141 71.3363L313.532 70.8544C312.549 72.9207 311.41 74.8785 310.122 76.7082L315.74 85.7069L308.829 92.5525L299.88 86.829C298.018 88.1074 296.051 89.2274 294.002 90.1802L294.369 100.796L284.962 103.262L280.081 93.844C277.85 94.0198 275.584 94.0002 273.307 93.7962L268.317 103.173L258.939 100.605L259.42 89.9957C257.354 89.0125 255.396 87.873 253.567 86.5859L244.568 92.2031L237.729 85.2902L243.452 76.3414C242.174 74.4769 241.054 72.5127 240.101 70.4637L229.483 70.8306L227.018 61.4238L236.435 56.5424C236.259 54.3112 236.279 52.0452 236.483 49.7684L227.107 44.7742ZM270.299 77.5134C283.634 81.1641 297.404 73.3157 301.054 59.9804C304.705 46.6451 296.857 32.8757 283.521 29.225C270.186 25.5742 256.417 33.4226 252.766 46.758C249.113 60.0933 256.963 73.8627 270.299 77.5134Z" fill="white"/>
<path d="M284.96 103.739C284.999 103.739 285.04 103.735 285.082 103.724L294.488 101.258C294.703 101.202 294.853 101.002 294.844 100.781L294.488 90.4799C296.357 89.5922 298.172 88.5591 299.886 87.4022L308.57 92.9564C308.759 93.0758 309.005 93.0498 309.163 92.8935L316.078 86.0544C316.236 85.8981 316.265 85.6506 316.147 85.4618L310.697 76.73C311.861 75.0458 312.914 73.24 313.829 71.3516L324.124 71.8205C324.345 71.84 324.547 71.6859 324.606 71.4688L327.173 62.0903C327.232 61.8754 327.134 61.6475 326.937 61.5433L317.84 56.701C318.014 54.6087 318.029 52.5185 317.886 50.4783L327.024 45.7424C327.221 45.6403 327.323 45.4125 327.267 45.1976L324.801 35.7908C324.745 35.5759 324.543 35.4131 324.324 35.4348L314.02 35.7886C313.133 33.9199 312.1 32.1054 310.943 30.3907L316.497 21.7067C316.616 21.5178 316.59 21.2726 316.434 21.1141L309.595 14.2012C309.439 14.0428 309.193 14.0146 309.002 14.1318L300.271 19.584C298.586 18.4206 296.78 17.3679 294.892 16.452L295.359 6.15748C295.37 5.93393 295.224 5.73424 295.007 5.67564L285.629 3.10799C285.412 3.04939 285.186 3.14706 285.082 3.34457L280.239 12.441C278.147 12.2673 276.057 12.2521 274.017 12.3954L269.281 3.25775C269.179 3.06024 268.953 2.96039 268.736 3.01465L259.329 5.4803C259.114 5.53673 258.965 5.73642 258.973 5.95781L259.329 16.261C257.458 17.1487 255.646 18.1818 253.931 19.3387L245.247 13.7845C245.058 13.6651 244.813 13.6912 244.655 13.8474L237.742 20.6866C237.583 20.8428 237.555 21.0903 237.672 21.2791L243.122 30.0109C241.959 31.6951 240.906 33.501 239.99 35.3893L229.696 34.9204C229.47 34.9052 229.273 35.055 229.214 35.2721L226.646 44.6506C226.588 44.8655 226.685 45.0934 226.883 45.1976L235.979 50.0399C235.806 52.1322 235.79 54.2224 235.934 56.2626L226.796 60.9985C226.599 61.1006 226.497 61.3285 226.553 61.5433L229.019 70.9501C229.075 71.165 229.27 71.3343 229.496 71.3061L239.799 70.9523C240.687 72.821 241.72 74.6356 242.877 76.3502L237.323 85.0342C237.203 85.2231 237.23 85.4683 237.386 85.6268L244.225 92.5397C244.381 92.6981 244.626 92.7264 244.817 92.6091L253.549 87.1591C255.231 88.3203 257.039 89.373 258.928 90.2911L258.459 100.586C258.448 100.809 258.593 101.009 258.81 101.067L268.189 103.635C268.406 103.692 268.632 103.596 268.736 103.399L273.578 94.3021C275.673 94.4757 277.761 94.4909 279.801 94.3477L284.537 103.485C284.619 103.644 284.784 103.739 284.96 103.739ZM293.876 100.431L285.208 102.704L280.502 93.6249C280.413 93.4535 280.229 93.3536 280.042 93.3688C277.854 93.5403 275.601 93.5251 273.348 93.3211C273.159 93.3015 272.975 93.4035 272.884 93.5728L268.072 102.611L259.429 100.245L259.893 90.0154C259.902 89.8244 259.796 89.6465 259.622 89.564C257.58 88.5916 255.633 87.4586 253.838 86.1954C253.682 86.0847 253.473 86.0804 253.31 86.1802L244.635 91.5955L238.334 85.2252L243.852 76.5976C243.956 76.437 243.951 76.2287 243.843 76.0702C242.584 74.234 241.471 72.2806 240.531 70.2599C240.45 70.0863 240.277 69.9604 240.081 69.9842L229.846 70.3359L227.573 61.667L236.652 56.9615C236.821 56.8725 236.923 56.6923 236.908 56.5013C236.737 54.3113 236.752 52.0606 236.956 49.8076C236.973 49.6166 236.874 49.4343 236.704 49.3432L227.666 44.5312L230.032 35.8885L240.262 36.3529C240.45 36.3638 240.633 36.2553 240.713 36.0816C241.685 34.0414 242.818 32.0945 244.082 30.2974C244.192 30.1411 244.197 29.9327 244.097 29.7699L238.682 21.0946L245.052 14.7938L253.679 20.3111C253.84 20.4131 254.048 20.4109 254.207 20.3024C256.043 19.0435 257.996 17.9301 260.017 16.9903C260.191 16.91 260.299 16.732 260.293 16.541L259.939 6.30507L268.61 4.0326L273.316 13.1116C273.405 13.2831 273.587 13.3873 273.776 13.3678C275.966 13.1963 278.219 13.2115 280.472 13.4155C280.66 13.435 280.845 13.333 280.936 13.1637L285.746 4.12593L294.389 6.49174L293.924 16.7211C293.915 16.9121 294.022 17.0901 294.195 17.1726C296.236 18.1449 298.183 19.2779 299.98 20.5411C300.136 20.6518 300.344 20.6562 300.507 20.5563L309.182 15.141L315.483 21.5113L309.966 30.1389C309.862 30.3017 309.866 30.5079 309.975 30.6663C311.234 32.5026 312.349 34.456 313.287 36.4767C313.367 36.6503 313.534 36.7762 313.736 36.7523L323.972 36.4007L326.244 45.0695L317.165 49.7751C316.996 49.8641 316.894 50.0442 316.909 50.2352C317.081 52.4252 317.066 54.6782 316.862 56.9311C316.844 57.1221 316.944 57.3044 317.113 57.3956L326.151 62.2053L323.785 70.8481L313.556 70.3836C313.376 70.3641 313.187 70.4813 313.105 70.6549C312.132 72.6952 310.999 74.6421 309.736 76.4392C309.625 76.5955 309.621 76.8038 309.721 76.9666L315.136 85.642L308.766 91.9428L300.138 86.4255C299.978 86.3235 299.769 86.3257 299.611 86.4342C297.775 87.6931 295.819 88.8087 293.8 89.7463C293.627 89.8266 293.518 90.0046 293.525 90.1956L293.876 100.431ZM276.949 78.8897C281.322 78.8897 285.642 77.7545 289.542 75.5298C295.461 72.1547 299.713 66.6765 301.512 60.1043C303.311 53.5322 302.443 46.6518 299.07 40.7329C295.695 34.8141 290.217 30.5622 283.645 28.7628C277.073 26.9635 270.192 27.8317 264.273 31.2046C258.355 34.5797 254.103 40.0579 252.303 46.6301C250.504 53.2022 251.372 60.0804 254.745 66.0015C258.12 71.9225 263.598 76.1722 270.171 77.9716C272.413 78.5858 274.687 78.8897 276.949 78.8897ZM276.871 28.8019C279.048 28.8019 281.238 29.0949 283.395 29.6853C289.722 31.4173 294.994 35.5086 298.243 41.2083C301.493 46.9057 302.326 53.5278 300.594 59.8547C298.862 66.1816 294.771 71.4537 289.071 74.7028C283.374 77.952 276.751 78.7855 270.425 77.0534C264.098 75.3214 258.826 71.2301 255.576 65.5305C252.327 59.833 251.494 53.2109 253.226 46.884C254.958 40.5571 259.049 35.2851 264.749 32.0359C268.504 29.8958 272.66 28.8019 276.871 28.8019Z" fill="#2458A4"/>
<path d="M179.261 164.023C174.787 175.828 170.318 213.359 187.534 236.631C204.729 259.875 246.052 272.261 273.417 253.975C306.421 231.921 301.675 176.909 281.578 153.926C270.324 141.055 259.589 144.328 244.06 125.868C228.569 107.456 231.606 95.1126 218.051 87.6723C201.751 78.7278 177.96 85.7774 173.737 95.4534C169.96 104.105 182.019 111.157 184.324 131.377C184.756 135.171 184.715 138.287 184.396 141.035C182.983 153.166 180.068 161.891 179.261 164.023Z" fill="#2E3543"/>
<path d="M225.49 78.499C222.944 82.2561 220.912 94.3868 226.56 98.2155C232.207 102.042 243.394 96.1166 245.94 92.3596C248.486 88.6025 245.972 82.4536 240.325 78.6271C234.677 74.8005 228.035 74.7419 225.49 78.499Z" fill="#2E3543"/>
<path d="M239.747 204.182C239.747 204.182 251.969 173.464 244.769 166.983C244.392 166.644 239.528 166.147 234.547 170.705C229.843 175.009 224.999 184.373 224.999 184.373L223.401 205.578L239.747 204.182Z" fill="white"/>
<path d="M223.399 206.053C223.412 206.053 223.425 206.053 223.44 206.051L239.788 204.657C239.968 204.642 240.124 204.527 240.192 204.358C240.695 203.09 252.453 173.255 245.088 166.626C244.411 166.017 239.271 165.732 234.225 170.351C229.513 174.662 224.775 183.764 224.575 184.151C224.545 184.207 224.528 184.27 224.523 184.335L222.926 205.541C222.915 205.68 222.967 205.816 223.067 205.916C223.154 206.003 223.275 206.053 223.399 206.053ZM239.41 203.733L223.918 205.055L225.465 184.507C225.964 183.56 230.518 175.037 234.868 171.059C239.519 166.802 243.944 167.154 244.478 167.367C250.94 173.294 240.591 200.683 239.41 203.733Z" fill="#2E3543"/>
<path d="M146.786 148.425C146.786 148.425 142.024 149.451 138.278 155.233C130.807 166.77 119.26 187.751 100.785 190.888C73.0509 195.593 56.2472 161.849 58.6325 154.292C58.6325 154.292 62.6153 149 69.1592 147.405C69.1592 147.405 69.2287 142.13 63.5377 144.629C57.849 147.127 55.57 145.601 53.0284 145.004C48.5572 143.956 39.0571 133.214 35.5171 131.849C31.9771 130.484 33.084 133.436 33.084 133.436C33.084 133.436 29.6156 129.533 27.2259 131.489L32.3222 138.221C32.3222 138.221 28.2005 132.776 25.8108 135.511L36.4721 147.986L28.6584 141.853C28.6584 141.853 27.571 143.051 29.6134 145.173C31.6558 147.296 39.9644 158.88 47.9169 158.88C47.9169 158.88 43.6324 222.78 91.4803 225.376C132.589 227.605 149.33 194.443 149.33 194.443L146.786 148.425Z" fill="white"/>
<path d="M95.3566 225.961C114.65 225.961 128.091 218.019 136.133 211.108C145.42 203.127 149.714 194.743 149.757 194.658C149.794 194.584 149.811 194.5 149.807 194.417L147.263 148.399C147.257 148.26 147.187 148.132 147.077 148.045C146.966 147.961 146.823 147.93 146.686 147.959C146.484 148.002 141.687 149.094 137.878 154.973C137.173 156.063 136.433 157.235 135.651 158.47C128.315 170.076 117.228 187.613 100.707 190.417C85.4332 193.009 74.5397 183.506 69.4044 177.611C61.4475 168.478 58.0442 158.069 59.0643 154.513C59.5396 153.916 63.3618 149.306 69.2742 147.867C69.4847 147.815 69.6366 147.629 69.6388 147.409C69.641 147.314 69.6518 145.048 68.0544 143.991C66.9301 143.244 65.3478 143.312 63.3488 144.191C58.7691 146.2 56.5639 145.541 54.4325 144.898C54.0115 144.772 53.5774 144.64 53.1389 144.538C50.7449 143.976 46.6297 140.314 43.0007 137.085C39.9534 134.374 37.3228 132.032 35.6906 131.402C34.321 130.875 33.3943 130.877 32.856 131.413C32.6346 131.632 32.5217 131.906 32.474 132.184C31.176 131.075 28.8232 129.564 26.9263 131.118C26.7288 131.281 26.694 131.569 26.8481 131.776L29.0664 134.708C28.5563 134.454 28.0289 134.285 27.5101 134.267C26.694 134.241 26.0169 134.552 25.4525 135.198C25.2963 135.376 25.2941 135.641 25.4482 135.821L32.9884 144.644L28.9535 141.478C28.756 141.323 28.4738 141.345 28.3067 141.532C28.2503 141.595 26.9458 143.088 29.2704 145.504C29.5699 145.816 30.0235 146.355 30.5965 147.036C33.8783 150.939 40.6219 158.961 47.4176 159.343C47.2309 163.614 46.493 194.393 62.498 212.467C69.7929 220.702 79.5339 225.205 91.4563 225.852C92.7824 225.926 94.0825 225.961 95.3566 225.961ZM148.848 194.339C148.314 195.346 144.062 203.047 135.482 210.411C127.045 217.652 112.573 226.039 91.5084 224.901C79.853 224.27 70.3333 219.875 63.2164 211.84C46.3389 192.787 48.3726 159.251 48.3965 158.913C48.4052 158.78 48.3596 158.652 48.2684 158.555C48.1773 158.459 48.0514 158.403 47.919 158.403C41.3989 158.403 34.5967 150.311 31.3258 146.422C30.7419 145.727 30.2796 145.178 29.9584 144.844C28.947 143.793 28.8037 143.047 28.8558 142.615L36.1789 148.364C36.3699 148.516 36.6478 148.497 36.8171 148.319C36.9864 148.141 36.995 147.865 36.8344 147.679L26.4661 135.546C26.7635 135.316 27.0956 135.211 27.4754 135.222C29.1423 135.281 31.265 137.616 31.9422 138.511C32.1028 138.721 32.4002 138.76 32.6107 138.604C32.8213 138.445 32.8625 138.146 32.7041 137.935L27.916 131.611C29.9172 130.638 32.6975 133.72 32.7279 133.755C32.8799 133.927 33.1338 133.966 33.3313 133.846C33.5288 133.727 33.6113 133.486 33.531 133.271C33.4312 133 33.2901 132.327 33.5266 132.095C33.6135 132.01 33.9955 131.778 35.3455 132.299C36.8171 132.867 39.5128 135.264 42.3648 137.803C46.2607 141.269 50.2913 144.855 52.9197 145.473C53.3299 145.569 53.7315 145.69 54.1569 145.818C56.3469 146.476 58.8299 147.223 63.7308 145.072C65.4129 144.334 66.6891 144.241 67.5248 144.794C68.3734 145.356 68.5991 146.472 68.6599 147.045C62.257 148.766 58.4132 153.793 58.2504 154.01C58.2178 154.053 58.1918 154.101 58.1766 154.153C56.8591 158.331 60.8506 169.253 68.6838 178.245C73.9515 184.29 85.1381 194.033 100.865 191.366C117.808 188.49 129.031 170.735 136.459 158.989C137.236 157.758 137.976 156.588 138.679 155.501C141.531 151.097 145.019 149.526 146.343 149.065L148.848 194.339Z" fill="#2E3543"/>
<path d="M42.0225 143.025C42.144 143.025 42.2634 142.979 42.3567 142.888C42.5456 142.703 42.5477 142.402 42.3632 142.213L33.4253 133.101C33.2408 132.912 32.9391 132.91 32.7503 133.095C32.5614 133.279 32.5593 133.581 32.7437 133.77L41.6817 142.881C41.775 142.975 41.8988 143.025 42.0225 143.025Z" fill="#2E3543"/>
<path d="M38.3843 144.868C38.5058 144.868 38.6252 144.822 38.7185 144.731C38.9074 144.546 38.9096 144.245 38.7251 144.056L32.6629 137.887C32.4785 137.699 32.1768 137.696 31.9879 137.881C31.7991 138.065 31.7969 138.367 31.9814 138.556L38.0435 144.724C38.1369 144.82 38.2606 144.868 38.3843 144.868Z" fill="#2E3543"/>
<path d="M54.3305 154.788C54.3956 154.788 54.4629 154.775 54.5259 154.745C54.7668 154.636 54.8731 154.354 54.7646 154.113C54.6539 153.866 51.9864 148.086 47.6281 148.976C43.7908 149.761 41.0451 148.774 41.0169 148.765C40.7695 148.674 40.496 148.8 40.4049 149.047C40.3137 149.295 40.4374 149.568 40.6848 149.659C40.8064 149.705 43.6996 150.755 47.8213 149.911C51.4438 149.171 53.8726 154.454 53.8964 154.508C53.9746 154.684 54.1482 154.788 54.3305 154.788Z" fill="#2E3543"/>
<path d="M244.769 166.982C244.769 166.982 160.579 143.382 143.563 146.221L137.611 185.889L126.353 216.234C123.117 224.957 124.949 234.798 131.226 241.665C138.243 249.34 149.907 257.451 168.18 258.274C203.656 259.871 220.913 268.614 222.793 252.939C224.675 237.261 226.91 199.656 226.91 199.656C232.58 184.697 239.482 167.414 244.769 166.982Z" fill="white"/>
<path d="M210.42 262.621C214.502 262.621 217.602 262.011 219.766 260.316C221.715 258.791 222.859 256.396 223.267 253C225.088 237.815 227.269 201.636 227.382 199.763C231.619 188.587 239.471 167.896 244.808 167.462C245.038 167.442 245.223 167.262 245.245 167.032C245.266 166.802 245.121 166.589 244.897 166.526C241.455 165.56 160.408 142.931 143.485 145.753C143.281 145.788 143.122 145.948 143.092 146.152L137.149 185.772L125.908 216.071C122.575 225.059 124.478 234.991 130.877 241.991C137.438 249.169 149.234 257.903 168.161 258.756C178.572 259.225 187.547 260.327 194.76 261.213C201.039 261.981 206.244 262.619 210.42 262.621ZM243.161 167.032C238.017 169.973 232.113 184.587 226.464 199.489C226.446 199.535 226.435 199.582 226.433 199.63C226.412 200.006 224.176 237.401 222.318 252.883C221.936 256.058 220.938 258.181 219.175 259.563C215.112 262.747 207.06 261.76 194.873 260.262C187.643 259.374 178.646 258.27 168.2 257.799C149.599 256.961 138.017 248.387 131.578 241.344C125.42 234.612 123.59 225.053 126.8 216.401L138.059 186.054C138.069 186.024 138.078 185.991 138.082 185.958L143.982 146.638C160.16 144.405 231.912 163.928 243.161 167.032Z" fill="#2E3543"/>
<path d="M187.677 139.971C184.638 140.458 181.693 139.956 180.197 138.611C178.355 136.95 178.509 134.569 178.3 131.632C178.213 130.404 178.205 128.993 177.282 127.546C176.794 126.779 176.178 126.202 175.559 125.766C174.799 125.232 174.571 124.205 175.008 123.385L175.351 122.916C178.053 119.233 179.318 112.665 178.882 105.832L180.772 102.344C186.014 101.572 190.186 101.823 190.659 102.737C190.833 103.074 191.145 103.343 190.809 104.688C189.189 111.193 195.212 111.905 200.404 111.862C205.596 111.818 201.726 120.511 201.726 120.511C201.726 120.511 205.7 117.294 208.281 121.512C210.13 124.533 204.463 127.428 201.101 128.826C201.101 128.826 201.06 149.962 205.34 152.784L217.223 160.348C217.223 160.348 191.221 166.685 173.308 151.492C173.308 151.492 181.272 151.915 184.773 149.207C188.278 146.5 187.321 140.657 187.677 139.971Z" fill="white"/>
<path d="M204.38 162.103C211.866 162.103 217.219 160.844 217.336 160.816C217.523 160.771 217.664 160.619 217.694 160.43C217.724 160.241 217.64 160.052 217.479 159.95L205.596 152.386C202.327 150.231 201.594 135.183 201.578 129.147C204.611 127.86 208.235 125.885 208.98 123.591C209.24 122.79 209.142 122.008 208.689 121.266C207.868 119.925 206.822 119.137 205.581 118.922C204.48 118.731 203.438 119.039 202.674 119.393C203.308 117.583 204.166 114.36 203.02 112.61C202.483 111.79 201.596 111.367 200.4 111.39C197.233 111.425 193.396 111.184 191.794 109.153C190.974 108.113 190.804 106.691 191.273 104.81C191.588 103.544 191.39 103.054 191.141 102.624C191.121 102.589 191.102 102.557 191.084 102.522C190.366 101.133 185.2 101.215 180.705 101.877C180.555 101.899 180.427 101.99 180.356 102.123L178.465 105.613C178.422 105.693 178.402 105.782 178.409 105.871C178.847 112.725 177.528 119.152 174.969 122.64L174.626 123.109C174.613 123.128 174.6 123.148 174.589 123.167C174.037 124.207 174.337 125.494 175.288 126.163C175.947 126.627 176.484 127.181 176.883 127.808C177.653 129.019 177.729 130.195 177.803 131.331L177.827 131.671C177.855 132.082 177.877 132.481 177.899 132.869C178.033 135.307 178.148 137.412 179.88 138.971C181.367 140.31 184.1 140.894 187.114 140.535C187.106 140.726 187.099 140.954 187.093 141.232C187.049 143.218 186.969 146.917 184.484 148.837C181.163 151.407 173.414 151.027 173.336 151.025C173.137 151.012 172.943 151.136 172.868 151.327C172.792 151.518 172.846 151.735 173.002 151.867C182.849 160.213 195.212 162.101 204.38 162.103ZM215.975 160.122C210.914 161.077 190.012 164.063 174.68 152C177.167 151.991 182.337 151.7 185.068 149.588C187.911 147.39 187.998 143.396 188.046 141.25C188.056 140.805 188.067 140.299 188.109 140.175C188.191 140.015 188.174 139.83 188.067 139.685C187.961 139.539 187.781 139.474 187.601 139.502C184.66 139.973 181.879 139.485 180.516 138.259C179.079 136.965 178.977 135.133 178.849 132.815C178.828 132.422 178.806 132.016 178.776 131.6L178.754 131.265C178.676 130.067 178.589 128.711 177.686 127.291C177.219 126.558 176.596 125.915 175.835 125.379C175.285 124.993 175.107 124.25 175.413 123.641L175.735 123.202C178.443 119.508 179.798 113.066 179.366 105.945L181.076 102.787C186.624 101.997 189.934 102.466 190.233 102.963C190.257 103.01 190.285 103.056 190.312 103.104C190.448 103.34 190.592 103.583 190.344 104.58C189.808 106.737 190.042 108.476 191.043 109.745C192.901 112.105 197.025 112.372 200.406 112.348C201.277 112.328 201.867 112.599 202.221 113.138C203.33 114.829 201.924 118.9 201.29 120.326C201.201 120.528 201.259 120.763 201.435 120.897C201.609 121.03 201.854 121.03 202.026 120.891C202.043 120.878 203.695 119.571 205.422 119.868C206.377 120.035 207.202 120.674 207.873 121.77C208.179 122.269 208.244 122.77 208.07 123.302C207.558 124.88 205.019 126.69 200.916 128.396C200.738 128.47 200.623 128.643 200.623 128.834C200.621 129.707 200.632 150.261 205.077 153.191L215.975 160.122Z" fill="#2E3543"/>
<path d="M187.677 140.449C187.692 140.449 187.71 140.449 187.725 140.447C193.624 139.845 197.65 132.865 197.818 132.568C197.948 132.34 197.867 132.047 197.637 131.917C197.407 131.786 197.116 131.867 196.986 132.095C196.947 132.164 193.032 138.945 187.627 139.494C187.365 139.52 187.174 139.754 187.202 140.017C187.228 140.266 187.436 140.449 187.677 140.449Z" fill="#2E3543"/>
<path d="M147.663 205.676C151.422 202.859 163.705 194.661 168.048 197.218C170.939 198.917 173.787 201.548 176.098 209.003L225.255 226.339L225.118 211.382C225.053 204.237 226.662 197.174 229.813 190.761L238.994 172.086C244.726 175.869 249.208 181.3 251.702 187.698C261.801 213.616 258.951 260.274 249.245 262.722C223.161 269.301 172.736 216.978 172.736 216.978C172.736 216.978 159.015 216.912 156.328 216.641C145.182 215.521 145.143 207.562 147.663 205.676Z" fill="white"/>
<path d="M244.316 263.779C246.107 263.779 247.789 263.582 249.36 263.184C250.943 262.785 252.377 261.355 253.625 258.935C260.178 246.227 260.638 209.316 252.145 187.524C249.629 181.069 245.173 175.593 239.255 171.686C239.14 171.61 238.998 171.587 238.866 171.623C238.734 171.66 238.623 171.749 238.562 171.873L229.381 190.548C226.212 196.994 224.571 204.2 224.637 211.384L224.767 225.661L176.478 208.632C174.093 201.074 171.132 198.479 168.285 196.805C162.978 193.686 148.006 204.819 147.372 205.294C146.031 206.299 145.482 208.547 146.064 210.642C146.532 212.326 148.466 216.333 156.271 217.119C158.806 217.375 170.757 217.446 172.526 217.455C173.961 218.924 186.089 231.244 200.911 242.695C219.056 256.712 233.618 263.779 244.316 263.779ZM239.179 172.787C244.707 176.561 248.876 181.766 251.255 187.872C255.149 197.867 257.443 212.072 257.549 226.844C257.647 240.471 255.817 252.599 252.777 258.496C251.659 260.662 250.43 261.93 249.126 262.258C223.606 268.697 173.579 217.166 173.077 216.645C172.988 216.552 172.864 216.5 172.736 216.5C172.6 216.5 159.008 216.433 156.373 216.166C149.154 215.439 147.405 211.879 146.99 210.384C146.45 208.445 147.084 206.707 147.952 206.056C152.134 202.922 163.853 195.299 167.809 197.626C170.52 199.219 173.344 201.717 175.647 209.142C175.693 209.285 175.801 209.4 175.944 209.45L225.101 226.786C225.249 226.838 225.411 226.814 225.537 226.723C225.663 226.632 225.739 226.486 225.737 226.33L225.6 211.371C225.535 204.335 227.141 197.278 230.245 190.964L239.179 172.787Z" fill="#2E3543"/>
<path d="M146.313 209.462C146.365 209.462 146.417 209.453 146.467 209.436L163.597 203.562C163.846 203.475 163.979 203.206 163.894 202.957C163.807 202.707 163.538 202.575 163.288 202.659L146.159 208.533C145.909 208.619 145.777 208.889 145.862 209.138C145.929 209.338 146.116 209.462 146.313 209.462Z" fill="#2E3543"/>
<path d="M147.283 212.676C147.329 212.676 147.375 212.67 147.42 212.657L164.133 207.686C164.384 207.61 164.53 207.346 164.454 207.092C164.378 206.84 164.118 206.697 163.859 206.77L147.147 211.741C146.895 211.817 146.749 212.081 146.825 212.335C146.886 212.542 147.077 212.676 147.283 212.676Z" fill="#2E3543"/>
<path d="M150.47 215.511C150.513 215.511 150.557 215.504 150.598 215.493C156.054 213.974 164.391 211.693 164.992 211.63C165.257 211.63 165.457 211.417 165.457 211.152C165.457 210.887 165.231 210.675 164.968 210.675C164.408 210.675 154.555 213.401 150.342 214.573C150.088 214.645 149.94 214.907 150.01 215.161C150.068 215.374 150.259 215.511 150.47 215.511Z" fill="#2E3543"/>
<path d="M238.775 234.395C238.942 234.395 239.105 234.308 239.192 234.152C239.32 233.922 239.239 233.631 239.009 233.503L225.487 225.926C225.257 225.798 224.966 225.878 224.838 226.108C224.71 226.338 224.791 226.629 225.021 226.757L238.543 234.334C238.616 234.376 238.697 234.395 238.775 234.395Z" fill="#2E3543"/>
<path d="M137.364 240.905C138.148 239.017 139.988 237.773 142.033 237.773C161.098 237.78 180.454 242.544 200.121 252.337C201.803 253.175 203.194 254.499 204.104 256.144C207.707 262.656 217.335 280.794 222.259 297.198C223.616 301.715 229.303 319.318 232.521 330.066C233.624 333.747 230.874 337.448 227.032 337.458C208.488 337.504 124.048 337.923 110.238 335.937C108.443 335.679 107.242 333.94 107.613 332.165C114.72 298.097 132.643 252.302 137.364 240.905Z" fill="#2E3543"/>
<path d="M89.2165 69.2598H156.13C159.919 69.2598 162.817 72.3418 162.817 76.1314V95.4963C162.817 99.2838 159.919 102.344 156.13 102.344C156.095 102.344 155.077 102.344 153.71 102.344V115.276L144.904 102.344C132.107 102.344 89.2144 102.344 89.2144 102.344C85.4269 102.344 82.1821 99.2838 82.1821 95.4963V76.1314C82.1842 72.3418 85.4291 69.2598 89.2165 69.2598Z" fill="white"/>
<path d="M153.712 115.753C153.757 115.753 153.805 115.746 153.853 115.731C154.053 115.668 154.189 115.484 154.189 115.275V102.821H156.132C160.149 102.821 163.294 99.6026 163.294 95.4961V76.1312C163.294 72.0117 160.147 68.7842 156.132 68.7842H89.2166C85.1448 68.7842 81.7068 72.1484 81.7068 76.1312V95.4961C81.7068 99.468 85.147 102.821 89.2166 102.821H144.655L153.317 115.545C153.408 115.677 153.558 115.753 153.712 115.753ZM156.132 69.737C159.613 69.737 162.342 72.5456 162.342 76.1312V95.4961C162.342 99.0686 159.613 101.869 156.132 101.869H153.712C153.447 101.869 153.234 102.081 153.234 102.346V113.728L145.301 102.077C145.212 101.947 145.065 101.869 144.906 101.869H89.2166C85.6635 101.869 82.6618 98.9514 82.6618 95.4961V76.1312C82.6618 72.665 85.6635 69.737 89.2166 69.737H156.132Z" fill="#2458A4"/>
<path d="M116.784 83.0712H95.7584C94.5343 83.0712 93.5424 82.0793 93.5424 80.8552V80.4602C93.5424 79.236 94.5343 78.2441 95.7584 78.2441H116.784C118.008 78.2441 119 79.236 119 80.4602V80.8552C119 82.0793 118.008 83.0712 116.784 83.0712Z" fill="#2458A4"/>
<path d="M139.422 83.0712H127.996C126.772 83.0712 125.78 82.0793 125.78 80.8552V80.4602C125.78 79.236 126.772 78.2441 127.996 78.2441H139.422C140.646 78.2441 141.638 79.236 141.638 80.4602V80.8552C141.638 82.0793 140.646 83.0712 139.422 83.0712Z" fill="#2458A4"/>
<path d="M149.243 93.499H95.7584C94.5343 93.499 93.5424 92.5071 93.5424 91.2829V90.8879C93.5424 89.6638 94.5343 88.6719 95.7584 88.6719H149.243C150.467 88.6719 151.459 89.6638 151.459 90.8879V91.2829C151.459 92.5071 150.467 93.499 149.243 93.499Z" fill="#2458A4"/>
<path d="M30.4068 115.607C30.6564 115.245 30.6564 114.776 30.4068 114.412C30.0617 113.91 29.8728 113.37 29.8728 112.805C29.8728 110.186 33.9316 108.061 38.9389 108.061C43.9461 108.061 48.0049 110.186 48.0049 112.805C48.0049 113.37 47.816 113.91 47.4709 114.412C47.2213 114.774 47.2213 115.243 47.4709 115.607C47.816 116.109 48.0049 116.649 48.0049 117.214C48.0049 118.457 47.0911 119.588 45.5956 120.435C45.6282 120.576 45.6477 120.719 45.6477 120.864C45.6477 122.803 42.6438 124.376 38.9389 124.376C35.2339 124.376 32.23 122.805 32.23 120.864C32.23 120.719 32.2495 120.576 32.282 120.435C30.7866 119.588 29.8728 118.457 29.8728 117.214C29.875 116.651 30.0617 116.109 30.4068 115.607Z" fill="#2458A4"/>
<path d="M14.3318 76.431C14.3318 62.9937 25.5162 51.5293 38.9535 51.5293C52.3648 51.5293 63.4298 62.6833 63.5188 76.0946C63.5644 82.925 60.2696 89.2758 55.7789 93.7231C52.5384 96.9289 50.177 100.916 49.031 105.326L48.9746 105.539C47.8611 109.821 43.9955 112.81 39.5699 112.81H37.7554C33.3299 112.81 29.4643 109.821 28.3508 105.539L28.3183 105.411C27.1788 101.031 24.9128 97.007 21.6723 93.8468C17.1426 89.4277 14.3318 83.2571 14.3318 76.431Z" fill="white"/>
<path d="M37.7555 113.289H39.57C44.2104 113.289 48.2671 110.152 49.4348 105.659L49.4912 105.447C50.5981 101.193 52.888 97.2554 56.1133 94.0604C61.1661 89.0597 64.0376 82.5114 63.9964 76.0912C63.9031 62.2849 52.6709 51.0527 38.9536 51.0527C25.3491 51.0527 13.8544 62.6756 13.8544 76.4319C13.8544 83.1734 16.5132 89.4786 21.3403 94.1885C24.4679 97.2402 26.7209 101.162 27.8582 105.531L27.8908 105.659C29.0563 110.152 33.1151 113.289 37.7555 113.289ZM38.9536 52.0077C52.1478 52.0077 62.9524 62.8145 63.0414 76.0999C63.0826 82.264 60.3131 88.5648 55.4426 93.3854C52.0936 96.6997 49.7169 100.789 48.5666 105.208L48.5101 105.421C47.451 109.492 43.7742 112.336 39.5679 112.336H37.7533C33.547 112.336 29.8702 109.492 28.811 105.421L28.7785 105.293C27.5977 100.754 25.2558 96.678 22.0045 93.507C17.364 88.9794 14.8072 82.9151 14.8072 76.4341C14.8072 63.1921 25.8657 52.0077 38.9536 52.0077Z" fill="#2458A4"/>
<path d="M37.5706 109.804C37.5727 109.804 37.5727 109.804 37.5706 109.804C37.8353 109.804 38.0481 109.589 38.0481 109.324C37.996 96.2297 30.3494 81.4467 28.8171 78.6164C27.9055 76.9322 27.556 75.5539 27.7514 74.4014C28.0422 72.6932 28.9147 71.595 30.3451 71.137C31.3695 70.8093 32.9627 70.7767 34.3192 71.5472C32.5872 73.3162 31.426 76.2268 32.1487 78.7532C32.4331 79.7472 33.2318 80.444 34.2845 80.6198C35.5129 80.8238 36.7718 80.2877 37.4968 79.2524C38.1197 78.3625 38.8663 76.3418 36.863 72.8104C36.5678 72.2917 36.2227 71.8554 35.845 71.4951C35.8993 71.4583 35.9557 71.4214 36.01 71.3866C37.0301 70.7442 38.7079 70.2754 40.3618 70.8918C40.8328 71.0676 41.2734 71.3215 41.6814 71.6514C39.83 72.9472 38.9054 76.3678 39.2939 78.293C39.5869 79.7472 40.4356 80.7847 41.6206 81.1429C42.6321 81.4467 43.726 81.1689 44.4748 80.4158C45.5145 79.3739 45.7619 77.6289 45.152 75.6299C44.6593 74.0151 44.0168 72.8365 43.3331 71.9792C46.094 71.2152 48.0213 72.537 48.5444 73.8284C49.1565 75.339 48.9329 77.1384 47.9627 78.5253C45.7206 81.7311 40.4746 91.0879 40.2185 108.725C40.2142 108.99 40.4247 109.205 40.6895 109.209C40.6917 109.209 40.6939 109.209 40.696 109.209C40.9565 109.209 41.1692 109.001 41.1735 108.738C41.4275 91.3657 46.5541 82.2042 48.7463 79.0722C49.9183 77.3988 50.1744 75.3043 49.43 73.4703C48.6139 71.4561 45.8661 70.0995 42.6169 71.2021C41.9505 70.5836 41.2799 70.2146 40.6938 69.9975C38.7166 69.2617 36.7132 69.8152 35.4999 70.5814C35.3523 70.6747 35.2069 70.7746 35.0637 70.8853C33.3859 69.8 31.3413 69.8174 30.0499 70.2319C27.8121 70.9504 27.0503 72.8104 26.8072 74.2451C26.5728 75.6342 26.9418 77.1687 27.9749 79.0744C29.4878 81.87 37.0388 96.4663 37.0909 109.331C37.0952 109.591 37.3079 109.804 37.5706 109.804ZM42.389 72.3308C43.1638 73.212 43.7911 74.4144 44.2447 75.9055C44.7483 77.5573 44.5876 78.955 43.8041 79.7407C43.2962 80.2508 42.5843 80.4353 41.9006 80.2269C41.0628 79.9751 40.4551 79.2003 40.2337 78.102C39.9016 76.4568 40.7742 73.2489 42.389 72.3308ZM35.1027 72.1094C35.4522 72.4241 35.7691 72.8104 36.0339 73.2814C37.7768 76.357 37.2103 78 36.7154 78.7076C36.201 79.4434 35.3111 79.8276 34.4429 79.68C33.7527 79.5649 33.2513 79.1308 33.069 78.4905C32.4266 76.2441 33.5183 73.6396 35.1027 72.1094Z" fill="#2458A4"/>
<path d="M27.6692 92.1763C27.8277 92.1763 27.9818 92.0981 28.0729 91.9527C28.214 91.7291 28.1467 91.434 27.9232 91.295C23.5757 88.5603 20.4459 84.1195 19.3368 79.1101C19.2804 78.8518 19.0243 78.6912 18.7682 78.7476C18.5099 78.804 18.3493 79.0602 18.4057 79.3163C19.5691 84.5731 22.853 89.2331 27.4174 92.1025C27.4934 92.1524 27.5824 92.1763 27.6692 92.1763Z" fill="#2458A4"/>
<path d="M54.1508 89.3576C54.2832 89.3576 54.4134 89.3034 54.5068 89.197C57.8059 85.4877 59.6204 80.7083 59.6204 75.7401C59.6204 67.9894 55.3077 61.0331 48.3644 57.5864C48.1278 57.467 47.8413 57.5647 47.7241 57.8013C47.6069 58.0379 47.7024 58.3244 47.9389 58.4416C54.5545 61.7276 58.6654 68.3562 58.6654 75.7401C58.6654 80.4739 56.9355 85.0276 53.7927 88.5632C53.6169 88.7607 53.6342 89.0624 53.8318 89.2361C53.9251 89.3186 54.0379 89.3576 54.1508 89.3576Z" fill="#2458A4"/>
<path d="M37.3904 115.822C37.6183 115.822 37.8202 115.657 37.8593 115.425C37.9048 115.164 37.729 114.919 37.4707 114.873C36.6481 114.732 35.8472 114.552 35.0897 114.339C34.838 114.266 34.5732 114.415 34.5015 114.669C34.4299 114.923 34.5775 115.186 34.8314 115.258C35.6215 115.481 36.4571 115.668 37.3123 115.815C37.3383 115.82 37.3644 115.822 37.3904 115.822Z" fill="white"/>
<path d="M41.2122 120.485C41.4748 120.485 41.6875 120.274 41.6897 120.011C41.6919 119.747 41.4813 119.532 41.2165 119.53C39.3521 119.512 36.6173 119.254 34.1734 118.112C33.9324 118.002 33.6503 118.104 33.5396 118.342C33.4289 118.581 33.5309 118.865 33.7697 118.976C36.3677 120.192 39.2501 120.467 41.2078 120.485C41.21 120.485 41.2122 120.485 41.2122 120.485Z" fill="white"/>
<path d="M38.8195 46.15C38.8216 46.15 38.826 46.15 38.8303 46.15C39.0951 46.1434 39.3035 45.9264 39.297 45.6638L39.0734 34.9178C39.0669 34.6574 38.8563 34.4512 38.5959 34.4512C38.5915 34.4512 38.5894 34.4512 38.5851 34.4512C38.3203 34.4577 38.1119 34.6747 38.1184 34.9374L38.342 45.6833C38.3485 45.9438 38.559 46.15 38.8195 46.15Z" fill="#2458A4"/>
<path d="M69.9676 68.0433L76.8306 68.039C77.0932 68.039 77.3081 67.8241 77.3081 67.5615C77.3081 67.2989 77.0932 67.084 76.8306 67.084L69.9698 67.0883C69.7071 67.0883 69.4923 67.3032 69.4923 67.5658C69.4901 67.8306 69.705 68.0433 69.9676 68.0433Z" fill="#2458A4"/>
<path d="M63.6345 53.6946C63.7105 53.6946 63.7886 53.6751 63.8624 53.636L71.6023 49.4427C71.8345 49.3168 71.9192 49.0281 71.7933 48.7959C71.6674 48.5637 71.3787 48.479 71.1465 48.6049L63.4066 52.7982C63.1744 52.9241 63.0897 53.2128 63.2156 53.445C63.3025 53.6035 63.4652 53.6946 63.6345 53.6946Z" fill="#2458A4"/>
<path d="M7.91653 68.0433C8.17915 68.0433 8.39404 67.8306 8.39404 67.5658C8.39404 67.301 8.18132 67.0883 7.91653 67.0883L1.0557 67.084C0.793073 67.084 0.578208 67.2967 0.578208 67.5615C0.578208 67.8263 0.790903 68.039 1.0557 68.039L7.91653 68.0433Z" fill="#2458A4"/>
<path d="M14.2474 53.6942C14.4167 53.6942 14.5817 53.603 14.6663 53.4446C14.7922 53.2123 14.7054 52.9237 14.4753 52.7978L6.7376 48.6045C6.50753 48.4786 6.21669 48.5654 6.0908 48.7955C5.96491 49.0277 6.05176 49.3164 6.28183 49.4422L14.0195 53.6356C14.0911 53.6768 14.1693 53.6942 14.2474 53.6942Z" fill="#2458A4"/>
<path d="M180.893 21.7025C181.156 21.7025 181.371 21.4898 181.371 21.225V17.5222C181.371 17.2574 181.158 17.0447 180.893 17.0447C180.628 17.0447 180.416 17.2574 180.416 17.5222V21.225C180.416 21.4898 180.628 21.7025 180.893 21.7025Z" fill="#2458A4"/>
<path d="M180.893 30.3258C181.156 30.3258 181.371 30.1131 181.371 29.8483V26.1455C181.371 25.8807 181.158 25.668 180.893 25.668C180.628 25.668 180.416 25.8807 180.416 26.1455V29.8483C180.416 30.1131 180.628 30.3258 180.893 30.3258Z" fill="#2458A4"/>
<path d="M183.355 24.164H187.057C187.32 24.164 187.535 23.9513 187.535 23.6865C187.535 23.4217 187.322 23.209 187.057 23.209H183.355C183.092 23.209 182.877 23.4217 182.877 23.6865C182.877 23.9513 183.09 24.164 183.355 24.164Z" fill="#2458A4"/>
<path d="M174.729 24.164H178.432C178.697 24.164 178.91 23.9513 178.91 23.6865C178.91 23.4217 178.697 23.209 178.432 23.209H174.729C174.465 23.209 174.252 23.4217 174.252 23.6865C174.252 23.9513 174.467 24.164 174.729 24.164Z" fill="#2458A4"/>
<path d="M354.358 227.992C354.621 227.992 354.836 227.779 354.836 227.514V223.812C354.836 223.547 354.623 223.334 354.358 223.334C354.096 223.334 353.881 223.547 353.881 223.812V227.514C353.881 227.779 354.093 227.992 354.358 227.992Z" fill="#2458A4"/>
<path d="M354.358 236.615C354.621 236.615 354.836 236.402 354.836 236.137V232.434C354.836 232.169 354.623 231.957 354.358 231.957C354.096 231.957 353.881 232.169 353.881 232.434V236.137C353.881 236.402 354.093 236.615 354.358 236.615Z" fill="#2458A4"/>
<path d="M356.82 230.453H360.523C360.785 230.453 361 230.241 361 229.976C361 229.711 360.787 229.498 360.523 229.498H356.82C356.557 229.498 356.342 229.711 356.342 229.976C356.342 230.238 356.555 230.453 356.82 230.453Z" fill="#2458A4"/>
<path d="M348.194 230.453H351.897C352.16 230.453 352.375 230.241 352.375 229.976C352.375 229.711 352.162 229.498 351.897 229.498H348.194C347.932 229.498 347.717 229.711 347.717 229.976C347.717 230.238 347.932 230.453 348.194 230.453Z" fill="#2458A4"/>
<path d="M35.9888 238.656C36.2536 238.656 36.4663 238.443 36.4663 238.179V234.476C36.4663 234.211 36.2536 233.998 35.9888 233.998C35.724 233.998 35.5113 234.211 35.5113 234.476V238.179C35.5113 238.441 35.7262 238.656 35.9888 238.656Z" fill="#2458A4"/>
<path d="M35.9888 247.279C36.2536 247.279 36.4663 247.066 36.4663 246.801V243.099C36.4663 242.834 36.2536 242.621 35.9888 242.621C35.724 242.621 35.5113 242.834 35.5113 243.099V246.801C35.5113 247.066 35.7262 247.279 35.9888 247.279Z" fill="#2458A4"/>
<path d="M38.4503 241.115H42.1509C42.4157 241.115 42.6284 240.902 42.6284 240.638C42.6284 240.373 42.4157 240.16 42.1509 240.16H38.4503C38.1855 240.16 37.9728 240.373 37.9728 240.638C37.9728 240.902 38.1877 241.115 38.4503 241.115Z" fill="#2458A4"/>
<path d="M29.8275 241.115H33.5303C33.7951 241.115 34.0078 240.902 34.0078 240.638C34.0078 240.373 33.7951 240.16 33.5303 240.16H29.8275C29.5627 240.16 29.35 240.373 29.35 240.638C29.35 240.902 29.5627 241.115 29.8275 241.115Z" fill="#2458A4"/>
</svg>
